M48
;DRILL file {KiCad 5.0.2-bee76a0~70~ubuntu18.04.1} date 2018年12月26日 23時39分00秒
;FORMAT={3:3/ absolute / metric / suppress trailing zeros}
FMAT,2
METRIC,LZ
T1C0.813
T2C1.000
T3C1.300
%
G90
G05
T1
X136525Y-048895
X136525Y-051435
X136525Y-053975
X136525Y-056515
X136525Y-059055
X136525Y-061595
X136525Y-064135
X136525Y-066675
X136525Y-069215
X136525Y-071755
X136525Y-074295
X136525Y-076835
X151765Y-048895
X151765Y-051435
X151765Y-053975
X151765Y-056515
X151765Y-059055
X151765Y-061595
X151765Y-064135
X151765Y-066675
X151765Y-069215
X151765Y-071755
X151765Y-074295
X151765Y-076835
X12065Y-059055
X09906Y-061595
X16383Y-059055
X09652Y-059055
X09652Y-066675
X114935Y-048895
X114935Y-051435
X114935Y-053975
X114935Y-056515
X114935Y-059055
X114935Y-061595
X114935Y-064135
X114935Y-066675
X114935Y-069215
X114935Y-071755
X114935Y-074295
X114935Y-076835
X130175Y-048895
X130175Y-051435
X130175Y-053975
X130175Y-056515
X130175Y-059055
X130175Y-061595
X130175Y-064135
X130175Y-066675
X130175Y-069215
X130175Y-071755
X130175Y-074295
X130175Y-076835
X1143Y-085725
X16764Y-071755
X09652Y-051435
X14224Y-051435
X11811Y-076835
X10541Y-056515
X09652Y-069215
X12065Y-056515
X09906Y-066675
X1524Y-08382
X14859Y-056515
X16764Y-069215
X10287Y-059055
X13589Y-093345
X09652Y-076835
X14605Y-059055
X12446Y-061595
X160655Y-093345
X09906Y-064135
X16383Y-061595
X1397Y-051435
X09906Y-051435
X12827Y-08382
X14859Y-076835
X118745Y-080645
X121285Y-080645
X123825Y-080645
X126365Y-080645
X16129Y-069215
X09271Y-093345
X14986Y-085725
X14859Y-069215
X127Y-059055
X12446Y-076835
X11684Y-085725
X09652Y-071755
X09271Y-08382
X16764Y-053975
X09652Y-048895
X127Y-071755
X10287Y-066675
X09906Y-056515
X14859Y-048895
X14224Y-074295
X12827Y-085725
X17399Y-085725
X12446Y-048895
X12065Y-053975
X127635Y-0889
X17018Y-064135
X1397Y-064135
X10541Y-066675
X1524Y-085725
X12065Y-066675
X11684Y-08382
X16383Y-053975
X16129Y-076835
X10287Y-069215
X11811Y-056515
X13081Y-085725
X14605Y-071755
X09906Y-053975
X13589Y-085725
X12065Y-076835
X16764Y-051435
X16383Y-064135
X14859Y-066675
X14859Y-059055
X1397Y-053975
X127Y-048895
X097155Y-080645
X099695Y-080645
X102235Y-080645
X104775Y-080645
X16129Y-066675
X16383Y-066675
X117475Y-093345
X16129Y-071755
X13081Y-08382
X10287Y-051435
X10287Y-064135
X127Y-053975
X130175Y-0889
X11811Y-071755
X14224Y-061595
X1143Y-093345
X14605Y-066675
X12446Y-074295
X10541Y-051435
X127Y-061595
X127Y-074295
X16129Y-059055
X161925Y-080645
X164465Y-080645
X167005Y-080645
X169545Y-080645
X17018Y-061595
X14605Y-074295
X095885Y-093345
X17018Y-071755
X13843Y-085725
X11811Y-053975
X1397Y-074295
X14859Y-074295
X17399Y-08382
X17018Y-051435
X16764Y-056515
X17145Y-08382
X14224Y-069215
X14224Y-066675
X11811Y-059055
X15748Y-085725
X1397Y-071755
X106045Y-0889
X17018Y-066675
X16764Y-059055
X12065Y-051435
X14605Y-048895
X149225Y-0889
X173355Y-0889
X127Y-051435
X09652Y-074295
X09525Y-085725
X09906Y-048895
X108585Y-0889
X16383Y-048895
X17018Y-069215
X158115Y-048895
X158115Y-051435
X158115Y-053975
X158115Y-056515
X158115Y-059055
X158115Y-061595
X158115Y-064135
X158115Y-066675
X158115Y-069215
X158115Y-071755
X158115Y-074295
X158115Y-076835
X173355Y-048895
X173355Y-051435
X173355Y-053975
X173355Y-056515
X173355Y-059055
X173355Y-061595
X173355Y-064135
X173355Y-066675
X173355Y-069215
X173355Y-071755
X173355Y-074295
X173355Y-076835
X14224Y-059055
X1397Y-076835
X10287Y-056515
X10541Y-076835
X09271Y-085725
X16383Y-076835
X11811Y-048895
X11811Y-051435
X16129Y-051435
X14605Y-076835
X14605Y-061595
X1397Y-069215
X16764Y-074295
X10541Y-053975
X12446Y-071755
X12446Y-066675
X10287Y-053975
X10922Y-08382
X16129Y-074295
X16383Y-051435
X170815Y-0889
X16764Y-076835
X12446Y-051435
X12446Y-064135
X11811Y-074295
X10287Y-071755
X14986Y-08382
X12065Y-071755
X16764Y-066675
X14224Y-056515
X127Y-056515
X10541Y-059055
X10287Y-048895
X10668Y-08382
X16383Y-069215
X14224Y-076835
X17145Y-085725
X14605Y-051435
X10287Y-074295
X13589Y-08382
X16764Y-048895
X09906Y-074295
X11811Y-069215
X17018Y-053975
X10541Y-048895
X14859Y-071755
X10668Y-085725
X16002Y-08382
X15748Y-08382
X12065Y-074295
X093345Y-048895
X093345Y-051435
X093345Y-053975
X093345Y-056515
X093345Y-059055
X093345Y-061595
X093345Y-064135
X093345Y-066675
X093345Y-069215
X093345Y-071755
X093345Y-074295
X093345Y-076835
X108585Y-048895
X108585Y-051435
X108585Y-053975
X108585Y-056515
X108585Y-059055
X108585Y-061595
X108585Y-064135
X108585Y-066675
X108585Y-069215
X108585Y-071755
X108585Y-074295
X108585Y-076835
X09525Y-08382
X10287Y-076835
X16129Y-064135
X09906Y-071755
X14605Y-069215
X16383Y-056515
X17018Y-076835
X16383Y-074295
X17018Y-074295
X10922Y-085725
X14224Y-053975
X14605Y-053975
X12446Y-056515
X12446Y-059055
X16764Y-064135
X12065Y-048895
X09652Y-053975
X13843Y-08382
X09906Y-076835
X1397Y-056515
X11811Y-064135
X151765Y-0889
X14605Y-056515
X127Y-076835
X17018Y-059055
X16129Y-053975
X09652Y-061595
X10541Y-074295
X12065Y-064135
X127Y-064135
X1143Y-08382
X09906Y-069215
X12446Y-053975
X10287Y-061595
X1397Y-048895
X14859Y-053975
X12446Y-069215
X17018Y-048895
X10541Y-071755
X1397Y-059055
X127Y-069215
X127Y-066675
X1397Y-066675
X14859Y-061595
X139065Y-093345
X15748Y-093345
X10541Y-061595
X14605Y-064135
X16129Y-048895
X12065Y-069215
X14224Y-064135
X14859Y-064135
X14859Y-051435
X10541Y-064135
X16129Y-056515
X1397Y-061595
X11811Y-061595
X16002Y-085725
X11811Y-066675
X12065Y-061595
X16764Y-061595
X17018Y-056515
X10541Y-069215
X140335Y-080645
X142875Y-080645
X145415Y-080645
X147955Y-080645
X09652Y-056515
X16129Y-061595
X14224Y-071755
X09652Y-064135
X14224Y-048895
X09906Y-059055
X16383Y-071755
T3
X14097Y-084455
X14747Y-084455
X16256Y-084455
X16906Y-084455
X11938Y-084455
X12588Y-084455
X09779Y-084455
X10429Y-084455
T2
X137085Y-08803G85X137585Y-08803
G05
X140085Y-08803G85X140585Y-08803
G05
X144085Y-08803G85X144585Y-08803
G05
X145585Y-09223G85X146085Y-09223
G05
X099575Y-08978G85X099075Y-08978
G05
X101075Y-09398G85X100575Y-09398
G05
X105075Y-09398G85X104575Y-09398
G05
X108075Y-09398G85X107575Y-09398
G05
X164345Y-08978G85X163845Y-08978
G05
X165845Y-09398G85X165345Y-09398
G05
X169845Y-09398G85X169345Y-09398
G05
X172845Y-09398G85X172345Y-09398
G05
X121165Y-08978G85X120665Y-08978
G05
X122665Y-09398G85X122165Y-09398
G05
X126665Y-09398G85X126165Y-09398
G05
X129665Y-09398G85X129165Y-09398
G05
X115495Y-08803G85X115995Y-08803
G05
X118495Y-08803G85X118995Y-08803
G05
X122495Y-08803G85X122995Y-08803
G05
X123995Y-09223G85X124495Y-09223
G05
X093905Y-08803G85X094405Y-08803
G05
X096905Y-08803G85X097405Y-08803
G05
X100905Y-08803G85X101405Y-08803
G05
X102405Y-09223G85X102905Y-09223
G05
X142755Y-08978G85X142255Y-08978
G05
X144255Y-09398G85X143755Y-09398
G05
X148255Y-09398G85X147755Y-09398
G05
X151255Y-09398G85X150755Y-09398
G05
X158675Y-08803G85X159175Y-08803
G05
X161675Y-08803G85X162175Y-08803
G05
X165675Y-08803G85X166175Y-08803
G05
X167175Y-09223G85X167675Y-09223
G05
T0
M30
