M48
;DRILL file {KiCad 5.0.2-bee76a0~70~ubuntu18.04.1} date 2018年12月26日 23時39分00秒
;FORMAT={3:3/ absolute / metric / suppress trailing zeros}
FMAT,2
METRIC,LZ
T1C1.200
T2C2.200
%
G90
G05
T1
X109626Y-09188
X124206Y-09188
X092354Y-09013
X145796Y-09188
X152806Y-09188
X157124Y-09013
X164134Y-09013
X135534Y-09013
X142544Y-09013
X102616Y-09188
X167386Y-09188
X174396Y-09188
X131216Y-09188
X113944Y-09013
X120954Y-09013
X099364Y-09013
T2
X173355Y-097155
X130175Y-080645
X136525Y-080645
X108585Y-097155
X158115Y-097155
X114935Y-097155
X093345Y-097155
X093345Y-080645
X108585Y-080645
X151765Y-080645
X130175Y-097155
X151765Y-097155
X158115Y-080645
X136525Y-097155
X114935Y-080645
X173355Y-080645
T0
M30
