G04 #@! TF.FileFunction,Legend,Bot*
%FSLAX46Y46*%
G04 Gerber Fmt 4.6, Leading zero omitted, Abs format (unit mm)*
G04 Created by KiCad (PCBNEW 4.0.2-stable) date 2016/07/17 14:51:38*
%MOMM*%
G01*
G04 APERTURE LIST*
%ADD10C,0.100000*%
%ADD11C,0.200000*%
%ADD12C,1.710000*%
%ADD13C,2.500000*%
%ADD14C,4.000000*%
%ADD15C,0.800000*%
%ADD16O,1.600000X1.800000*%
%ADD17O,1.800000X1.600000*%
%ADD18C,1.400000*%
%ADD19R,1.400000X1.400000*%
G04 APERTURE END LIST*
D10*
D11*
X198374000Y-134366000D02*
X99060000Y-134366000D01*
X99060000Y-114300000D02*
X198374000Y-114300000D01*
X198374000Y-94234000D02*
X99060000Y-94234000D01*
X99060000Y-74168000D02*
X198374000Y-74168000D01*
X178816000Y-153924000D02*
X178816000Y-54610000D01*
X158750000Y-54610000D02*
X158750000Y-153924000D01*
X138684000Y-153924000D02*
X138684000Y-54610000D01*
X118618000Y-54610000D02*
X118618000Y-153924000D01*
X104051142Y-136813857D02*
X104736857Y-136813857D01*
X104393999Y-136813857D02*
X104393999Y-135613857D01*
X104508285Y-135785286D01*
X104622571Y-135899571D01*
X104736857Y-135956714D01*
X117690857Y-141316143D02*
X117633714Y-141259000D01*
X117519428Y-141201857D01*
X117233714Y-141201857D01*
X117119428Y-141259000D01*
X117062285Y-141316143D01*
X117005142Y-141430429D01*
X117005142Y-141544714D01*
X117062285Y-141716143D01*
X117747999Y-142401857D01*
X117005142Y-142401857D01*
X117690857Y-146396143D02*
X117633714Y-146339000D01*
X117519428Y-146281857D01*
X117233714Y-146281857D01*
X117119428Y-146339000D01*
X117062285Y-146396143D01*
X117005142Y-146510429D01*
X117005142Y-146624714D01*
X117062285Y-146796143D01*
X117747999Y-147481857D01*
X117005142Y-147481857D01*
X116497142Y-153196857D02*
X117182857Y-153196857D01*
X116839999Y-153196857D02*
X116839999Y-151996857D01*
X116954285Y-152168286D01*
X117068571Y-152282571D01*
X117182857Y-152339714D01*
X112052142Y-153196857D02*
X112737857Y-153196857D01*
X112394999Y-153196857D02*
X112394999Y-151996857D01*
X112509285Y-152168286D01*
X112623571Y-152282571D01*
X112737857Y-152339714D01*
X106972142Y-153196857D02*
X107657857Y-153196857D01*
X107314999Y-153196857D02*
X107314999Y-151996857D01*
X107429285Y-152168286D01*
X107543571Y-152282571D01*
X107657857Y-152339714D01*
X99606142Y-136813857D02*
X100291857Y-136813857D01*
X99948999Y-136813857D02*
X99948999Y-135613857D01*
X100063285Y-135785286D01*
X100177571Y-135899571D01*
X100291857Y-135956714D01*
X102527142Y-153196857D02*
X103212857Y-153196857D01*
X102869999Y-153196857D02*
X102869999Y-151996857D01*
X102984285Y-152168286D01*
X103098571Y-152282571D01*
X103212857Y-152339714D01*
X100164857Y-141316143D02*
X100107714Y-141259000D01*
X99993428Y-141201857D01*
X99707714Y-141201857D01*
X99593428Y-141259000D01*
X99536285Y-141316143D01*
X99479142Y-141430429D01*
X99479142Y-141544714D01*
X99536285Y-141716143D01*
X100221999Y-142401857D01*
X99479142Y-142401857D01*
X100164857Y-146396143D02*
X100107714Y-146339000D01*
X99993428Y-146281857D01*
X99707714Y-146281857D01*
X99593428Y-146339000D01*
X99536285Y-146396143D01*
X99479142Y-146510429D01*
X99479142Y-146624714D01*
X99536285Y-146796143D01*
X100221999Y-147481857D01*
X99479142Y-147481857D01*
X120230857Y-146396143D02*
X120173714Y-146339000D01*
X120059428Y-146281857D01*
X119773714Y-146281857D01*
X119659428Y-146339000D01*
X119602285Y-146396143D01*
X119545142Y-146510429D01*
X119545142Y-146624714D01*
X119602285Y-146796143D01*
X120287999Y-147481857D01*
X119545142Y-147481857D01*
X120230857Y-141316143D02*
X120173714Y-141259000D01*
X120059428Y-141201857D01*
X119773714Y-141201857D01*
X119659428Y-141259000D01*
X119602285Y-141316143D01*
X119545142Y-141430429D01*
X119545142Y-141544714D01*
X119602285Y-141716143D01*
X120287999Y-142401857D01*
X119545142Y-142401857D01*
X122593142Y-153196857D02*
X123278857Y-153196857D01*
X122935999Y-153196857D02*
X122935999Y-151996857D01*
X123050285Y-152168286D01*
X123164571Y-152282571D01*
X123278857Y-152339714D01*
X119672142Y-136813857D02*
X120357857Y-136813857D01*
X120014999Y-136813857D02*
X120014999Y-135613857D01*
X120129285Y-135785286D01*
X120243571Y-135899571D01*
X120357857Y-135956714D01*
X127038142Y-153196857D02*
X127723857Y-153196857D01*
X127380999Y-153196857D02*
X127380999Y-151996857D01*
X127495285Y-152168286D01*
X127609571Y-152282571D01*
X127723857Y-152339714D01*
X132118142Y-153196857D02*
X132803857Y-153196857D01*
X132460999Y-153196857D02*
X132460999Y-151996857D01*
X132575285Y-152168286D01*
X132689571Y-152282571D01*
X132803857Y-152339714D01*
X136563142Y-153196857D02*
X137248857Y-153196857D01*
X136905999Y-153196857D02*
X136905999Y-151996857D01*
X137020285Y-152168286D01*
X137134571Y-152282571D01*
X137248857Y-152339714D01*
X137756857Y-146396143D02*
X137699714Y-146339000D01*
X137585428Y-146281857D01*
X137299714Y-146281857D01*
X137185428Y-146339000D01*
X137128285Y-146396143D01*
X137071142Y-146510429D01*
X137071142Y-146624714D01*
X137128285Y-146796143D01*
X137813999Y-147481857D01*
X137071142Y-147481857D01*
X137756857Y-141316143D02*
X137699714Y-141259000D01*
X137585428Y-141201857D01*
X137299714Y-141201857D01*
X137185428Y-141259000D01*
X137128285Y-141316143D01*
X137071142Y-141430429D01*
X137071142Y-141544714D01*
X137128285Y-141716143D01*
X137813999Y-142401857D01*
X137071142Y-142401857D01*
X124117142Y-136813857D02*
X124802857Y-136813857D01*
X124459999Y-136813857D02*
X124459999Y-135613857D01*
X124574285Y-135785286D01*
X124688571Y-135899571D01*
X124802857Y-135956714D01*
X164249142Y-136813857D02*
X164934857Y-136813857D01*
X164591999Y-136813857D02*
X164591999Y-135613857D01*
X164706285Y-135785286D01*
X164820571Y-135899571D01*
X164934857Y-135956714D01*
X177888857Y-141316143D02*
X177831714Y-141259000D01*
X177717428Y-141201857D01*
X177431714Y-141201857D01*
X177317428Y-141259000D01*
X177260285Y-141316143D01*
X177203142Y-141430429D01*
X177203142Y-141544714D01*
X177260285Y-141716143D01*
X177945999Y-142401857D01*
X177203142Y-142401857D01*
X177888857Y-146396143D02*
X177831714Y-146339000D01*
X177717428Y-146281857D01*
X177431714Y-146281857D01*
X177317428Y-146339000D01*
X177260285Y-146396143D01*
X177203142Y-146510429D01*
X177203142Y-146624714D01*
X177260285Y-146796143D01*
X177945999Y-147481857D01*
X177203142Y-147481857D01*
X176695142Y-153196857D02*
X177380857Y-153196857D01*
X177037999Y-153196857D02*
X177037999Y-151996857D01*
X177152285Y-152168286D01*
X177266571Y-152282571D01*
X177380857Y-152339714D01*
X172250142Y-153196857D02*
X172935857Y-153196857D01*
X172592999Y-153196857D02*
X172592999Y-151996857D01*
X172707285Y-152168286D01*
X172821571Y-152282571D01*
X172935857Y-152339714D01*
X167170142Y-153196857D02*
X167855857Y-153196857D01*
X167512999Y-153196857D02*
X167512999Y-151996857D01*
X167627285Y-152168286D01*
X167741571Y-152282571D01*
X167855857Y-152339714D01*
X159804142Y-136813857D02*
X160489857Y-136813857D01*
X160146999Y-136813857D02*
X160146999Y-135613857D01*
X160261285Y-135785286D01*
X160375571Y-135899571D01*
X160489857Y-135956714D01*
X162725142Y-153196857D02*
X163410857Y-153196857D01*
X163067999Y-153196857D02*
X163067999Y-151996857D01*
X163182285Y-152168286D01*
X163296571Y-152282571D01*
X163410857Y-152339714D01*
X160362857Y-141316143D02*
X160305714Y-141259000D01*
X160191428Y-141201857D01*
X159905714Y-141201857D01*
X159791428Y-141259000D01*
X159734285Y-141316143D01*
X159677142Y-141430429D01*
X159677142Y-141544714D01*
X159734285Y-141716143D01*
X160419999Y-142401857D01*
X159677142Y-142401857D01*
X160362857Y-146396143D02*
X160305714Y-146339000D01*
X160191428Y-146281857D01*
X159905714Y-146281857D01*
X159791428Y-146339000D01*
X159734285Y-146396143D01*
X159677142Y-146510429D01*
X159677142Y-146624714D01*
X159734285Y-146796143D01*
X160419999Y-147481857D01*
X159677142Y-147481857D01*
X140296857Y-146396143D02*
X140239714Y-146339000D01*
X140125428Y-146281857D01*
X139839714Y-146281857D01*
X139725428Y-146339000D01*
X139668285Y-146396143D01*
X139611142Y-146510429D01*
X139611142Y-146624714D01*
X139668285Y-146796143D01*
X140353999Y-147481857D01*
X139611142Y-147481857D01*
X140296857Y-141316143D02*
X140239714Y-141259000D01*
X140125428Y-141201857D01*
X139839714Y-141201857D01*
X139725428Y-141259000D01*
X139668285Y-141316143D01*
X139611142Y-141430429D01*
X139611142Y-141544714D01*
X139668285Y-141716143D01*
X140353999Y-142401857D01*
X139611142Y-142401857D01*
X142659142Y-153196857D02*
X143344857Y-153196857D01*
X143001999Y-153196857D02*
X143001999Y-151996857D01*
X143116285Y-152168286D01*
X143230571Y-152282571D01*
X143344857Y-152339714D01*
X139738142Y-136813857D02*
X140423857Y-136813857D01*
X140080999Y-136813857D02*
X140080999Y-135613857D01*
X140195285Y-135785286D01*
X140309571Y-135899571D01*
X140423857Y-135956714D01*
X147104142Y-153196857D02*
X147789857Y-153196857D01*
X147446999Y-153196857D02*
X147446999Y-151996857D01*
X147561285Y-152168286D01*
X147675571Y-152282571D01*
X147789857Y-152339714D01*
X152184142Y-153196857D02*
X152869857Y-153196857D01*
X152526999Y-153196857D02*
X152526999Y-151996857D01*
X152641285Y-152168286D01*
X152755571Y-152282571D01*
X152869857Y-152339714D01*
X156629142Y-153196857D02*
X157314857Y-153196857D01*
X156971999Y-153196857D02*
X156971999Y-151996857D01*
X157086285Y-152168286D01*
X157200571Y-152282571D01*
X157314857Y-152339714D01*
X157822857Y-146396143D02*
X157765714Y-146339000D01*
X157651428Y-146281857D01*
X157365714Y-146281857D01*
X157251428Y-146339000D01*
X157194285Y-146396143D01*
X157137142Y-146510429D01*
X157137142Y-146624714D01*
X157194285Y-146796143D01*
X157879999Y-147481857D01*
X157137142Y-147481857D01*
X157822857Y-141316143D02*
X157765714Y-141259000D01*
X157651428Y-141201857D01*
X157365714Y-141201857D01*
X157251428Y-141259000D01*
X157194285Y-141316143D01*
X157137142Y-141430429D01*
X157137142Y-141544714D01*
X157194285Y-141716143D01*
X157879999Y-142401857D01*
X157137142Y-142401857D01*
X144183142Y-136813857D02*
X144868857Y-136813857D01*
X144525999Y-136813857D02*
X144525999Y-135613857D01*
X144640285Y-135785286D01*
X144754571Y-135899571D01*
X144868857Y-135956714D01*
X180428857Y-146396143D02*
X180371714Y-146339000D01*
X180257428Y-146281857D01*
X179971714Y-146281857D01*
X179857428Y-146339000D01*
X179800285Y-146396143D01*
X179743142Y-146510429D01*
X179743142Y-146624714D01*
X179800285Y-146796143D01*
X180485999Y-147481857D01*
X179743142Y-147481857D01*
X180428857Y-141316143D02*
X180371714Y-141259000D01*
X180257428Y-141201857D01*
X179971714Y-141201857D01*
X179857428Y-141259000D01*
X179800285Y-141316143D01*
X179743142Y-141430429D01*
X179743142Y-141544714D01*
X179800285Y-141716143D01*
X180485999Y-142401857D01*
X179743142Y-142401857D01*
X182791142Y-153196857D02*
X183476857Y-153196857D01*
X183133999Y-153196857D02*
X183133999Y-151996857D01*
X183248285Y-152168286D01*
X183362571Y-152282571D01*
X183476857Y-152339714D01*
X179870142Y-136813857D02*
X180555857Y-136813857D01*
X180212999Y-136813857D02*
X180212999Y-135613857D01*
X180327285Y-135785286D01*
X180441571Y-135899571D01*
X180555857Y-135956714D01*
X187236142Y-153196857D02*
X187921857Y-153196857D01*
X187578999Y-153196857D02*
X187578999Y-151996857D01*
X187693285Y-152168286D01*
X187807571Y-152282571D01*
X187921857Y-152339714D01*
X192316142Y-153196857D02*
X193001857Y-153196857D01*
X192658999Y-153196857D02*
X192658999Y-151996857D01*
X192773285Y-152168286D01*
X192887571Y-152282571D01*
X193001857Y-152339714D01*
X196761142Y-153196857D02*
X197446857Y-153196857D01*
X197103999Y-153196857D02*
X197103999Y-151996857D01*
X197218285Y-152168286D01*
X197332571Y-152282571D01*
X197446857Y-152339714D01*
X197954857Y-146396143D02*
X197897714Y-146339000D01*
X197783428Y-146281857D01*
X197497714Y-146281857D01*
X197383428Y-146339000D01*
X197326285Y-146396143D01*
X197269142Y-146510429D01*
X197269142Y-146624714D01*
X197326285Y-146796143D01*
X198011999Y-147481857D01*
X197269142Y-147481857D01*
X197954857Y-141316143D02*
X197897714Y-141259000D01*
X197783428Y-141201857D01*
X197497714Y-141201857D01*
X197383428Y-141259000D01*
X197326285Y-141316143D01*
X197269142Y-141430429D01*
X197269142Y-141544714D01*
X197326285Y-141716143D01*
X198011999Y-142401857D01*
X197269142Y-142401857D01*
X184315142Y-136813857D02*
X185000857Y-136813857D01*
X184657999Y-136813857D02*
X184657999Y-135613857D01*
X184772285Y-135785286D01*
X184886571Y-135899571D01*
X185000857Y-135956714D01*
X104051142Y-96681857D02*
X104736857Y-96681857D01*
X104393999Y-96681857D02*
X104393999Y-95481857D01*
X104508285Y-95653286D01*
X104622571Y-95767571D01*
X104736857Y-95824714D01*
X117690857Y-101184143D02*
X117633714Y-101127000D01*
X117519428Y-101069857D01*
X117233714Y-101069857D01*
X117119428Y-101127000D01*
X117062285Y-101184143D01*
X117005142Y-101298429D01*
X117005142Y-101412714D01*
X117062285Y-101584143D01*
X117747999Y-102269857D01*
X117005142Y-102269857D01*
X117690857Y-106264143D02*
X117633714Y-106207000D01*
X117519428Y-106149857D01*
X117233714Y-106149857D01*
X117119428Y-106207000D01*
X117062285Y-106264143D01*
X117005142Y-106378429D01*
X117005142Y-106492714D01*
X117062285Y-106664143D01*
X117747999Y-107349857D01*
X117005142Y-107349857D01*
X116497142Y-113064857D02*
X117182857Y-113064857D01*
X116839999Y-113064857D02*
X116839999Y-111864857D01*
X116954285Y-112036286D01*
X117068571Y-112150571D01*
X117182857Y-112207714D01*
X112052142Y-113064857D02*
X112737857Y-113064857D01*
X112394999Y-113064857D02*
X112394999Y-111864857D01*
X112509285Y-112036286D01*
X112623571Y-112150571D01*
X112737857Y-112207714D01*
X106972142Y-113064857D02*
X107657857Y-113064857D01*
X107314999Y-113064857D02*
X107314999Y-111864857D01*
X107429285Y-112036286D01*
X107543571Y-112150571D01*
X107657857Y-112207714D01*
X99606142Y-96681857D02*
X100291857Y-96681857D01*
X99948999Y-96681857D02*
X99948999Y-95481857D01*
X100063285Y-95653286D01*
X100177571Y-95767571D01*
X100291857Y-95824714D01*
X102527142Y-113064857D02*
X103212857Y-113064857D01*
X102869999Y-113064857D02*
X102869999Y-111864857D01*
X102984285Y-112036286D01*
X103098571Y-112150571D01*
X103212857Y-112207714D01*
X100164857Y-101184143D02*
X100107714Y-101127000D01*
X99993428Y-101069857D01*
X99707714Y-101069857D01*
X99593428Y-101127000D01*
X99536285Y-101184143D01*
X99479142Y-101298429D01*
X99479142Y-101412714D01*
X99536285Y-101584143D01*
X100221999Y-102269857D01*
X99479142Y-102269857D01*
X100164857Y-106264143D02*
X100107714Y-106207000D01*
X99993428Y-106149857D01*
X99707714Y-106149857D01*
X99593428Y-106207000D01*
X99536285Y-106264143D01*
X99479142Y-106378429D01*
X99479142Y-106492714D01*
X99536285Y-106664143D01*
X100221999Y-107349857D01*
X99479142Y-107349857D01*
X120230857Y-106264143D02*
X120173714Y-106207000D01*
X120059428Y-106149857D01*
X119773714Y-106149857D01*
X119659428Y-106207000D01*
X119602285Y-106264143D01*
X119545142Y-106378429D01*
X119545142Y-106492714D01*
X119602285Y-106664143D01*
X120287999Y-107349857D01*
X119545142Y-107349857D01*
X120230857Y-101184143D02*
X120173714Y-101127000D01*
X120059428Y-101069857D01*
X119773714Y-101069857D01*
X119659428Y-101127000D01*
X119602285Y-101184143D01*
X119545142Y-101298429D01*
X119545142Y-101412714D01*
X119602285Y-101584143D01*
X120287999Y-102269857D01*
X119545142Y-102269857D01*
X122593142Y-113064857D02*
X123278857Y-113064857D01*
X122935999Y-113064857D02*
X122935999Y-111864857D01*
X123050285Y-112036286D01*
X123164571Y-112150571D01*
X123278857Y-112207714D01*
X119672142Y-96681857D02*
X120357857Y-96681857D01*
X120014999Y-96681857D02*
X120014999Y-95481857D01*
X120129285Y-95653286D01*
X120243571Y-95767571D01*
X120357857Y-95824714D01*
X127038142Y-113064857D02*
X127723857Y-113064857D01*
X127380999Y-113064857D02*
X127380999Y-111864857D01*
X127495285Y-112036286D01*
X127609571Y-112150571D01*
X127723857Y-112207714D01*
X132118142Y-113064857D02*
X132803857Y-113064857D01*
X132460999Y-113064857D02*
X132460999Y-111864857D01*
X132575285Y-112036286D01*
X132689571Y-112150571D01*
X132803857Y-112207714D01*
X136563142Y-113064857D02*
X137248857Y-113064857D01*
X136905999Y-113064857D02*
X136905999Y-111864857D01*
X137020285Y-112036286D01*
X137134571Y-112150571D01*
X137248857Y-112207714D01*
X137756857Y-106264143D02*
X137699714Y-106207000D01*
X137585428Y-106149857D01*
X137299714Y-106149857D01*
X137185428Y-106207000D01*
X137128285Y-106264143D01*
X137071142Y-106378429D01*
X137071142Y-106492714D01*
X137128285Y-106664143D01*
X137813999Y-107349857D01*
X137071142Y-107349857D01*
X137756857Y-101184143D02*
X137699714Y-101127000D01*
X137585428Y-101069857D01*
X137299714Y-101069857D01*
X137185428Y-101127000D01*
X137128285Y-101184143D01*
X137071142Y-101298429D01*
X137071142Y-101412714D01*
X137128285Y-101584143D01*
X137813999Y-102269857D01*
X137071142Y-102269857D01*
X124117142Y-96681857D02*
X124802857Y-96681857D01*
X124459999Y-96681857D02*
X124459999Y-95481857D01*
X124574285Y-95653286D01*
X124688571Y-95767571D01*
X124802857Y-95824714D01*
X164249142Y-96681857D02*
X164934857Y-96681857D01*
X164591999Y-96681857D02*
X164591999Y-95481857D01*
X164706285Y-95653286D01*
X164820571Y-95767571D01*
X164934857Y-95824714D01*
X177888857Y-101184143D02*
X177831714Y-101127000D01*
X177717428Y-101069857D01*
X177431714Y-101069857D01*
X177317428Y-101127000D01*
X177260285Y-101184143D01*
X177203142Y-101298429D01*
X177203142Y-101412714D01*
X177260285Y-101584143D01*
X177945999Y-102269857D01*
X177203142Y-102269857D01*
X177888857Y-106264143D02*
X177831714Y-106207000D01*
X177717428Y-106149857D01*
X177431714Y-106149857D01*
X177317428Y-106207000D01*
X177260285Y-106264143D01*
X177203142Y-106378429D01*
X177203142Y-106492714D01*
X177260285Y-106664143D01*
X177945999Y-107349857D01*
X177203142Y-107349857D01*
X176695142Y-113064857D02*
X177380857Y-113064857D01*
X177037999Y-113064857D02*
X177037999Y-111864857D01*
X177152285Y-112036286D01*
X177266571Y-112150571D01*
X177380857Y-112207714D01*
X172250142Y-113064857D02*
X172935857Y-113064857D01*
X172592999Y-113064857D02*
X172592999Y-111864857D01*
X172707285Y-112036286D01*
X172821571Y-112150571D01*
X172935857Y-112207714D01*
X167170142Y-113064857D02*
X167855857Y-113064857D01*
X167512999Y-113064857D02*
X167512999Y-111864857D01*
X167627285Y-112036286D01*
X167741571Y-112150571D01*
X167855857Y-112207714D01*
X159804142Y-96681857D02*
X160489857Y-96681857D01*
X160146999Y-96681857D02*
X160146999Y-95481857D01*
X160261285Y-95653286D01*
X160375571Y-95767571D01*
X160489857Y-95824714D01*
X162725142Y-113064857D02*
X163410857Y-113064857D01*
X163067999Y-113064857D02*
X163067999Y-111864857D01*
X163182285Y-112036286D01*
X163296571Y-112150571D01*
X163410857Y-112207714D01*
X160362857Y-101184143D02*
X160305714Y-101127000D01*
X160191428Y-101069857D01*
X159905714Y-101069857D01*
X159791428Y-101127000D01*
X159734285Y-101184143D01*
X159677142Y-101298429D01*
X159677142Y-101412714D01*
X159734285Y-101584143D01*
X160419999Y-102269857D01*
X159677142Y-102269857D01*
X160362857Y-106264143D02*
X160305714Y-106207000D01*
X160191428Y-106149857D01*
X159905714Y-106149857D01*
X159791428Y-106207000D01*
X159734285Y-106264143D01*
X159677142Y-106378429D01*
X159677142Y-106492714D01*
X159734285Y-106664143D01*
X160419999Y-107349857D01*
X159677142Y-107349857D01*
X140296857Y-106264143D02*
X140239714Y-106207000D01*
X140125428Y-106149857D01*
X139839714Y-106149857D01*
X139725428Y-106207000D01*
X139668285Y-106264143D01*
X139611142Y-106378429D01*
X139611142Y-106492714D01*
X139668285Y-106664143D01*
X140353999Y-107349857D01*
X139611142Y-107349857D01*
X140296857Y-101184143D02*
X140239714Y-101127000D01*
X140125428Y-101069857D01*
X139839714Y-101069857D01*
X139725428Y-101127000D01*
X139668285Y-101184143D01*
X139611142Y-101298429D01*
X139611142Y-101412714D01*
X139668285Y-101584143D01*
X140353999Y-102269857D01*
X139611142Y-102269857D01*
X142659142Y-113064857D02*
X143344857Y-113064857D01*
X143001999Y-113064857D02*
X143001999Y-111864857D01*
X143116285Y-112036286D01*
X143230571Y-112150571D01*
X143344857Y-112207714D01*
X139738142Y-96681857D02*
X140423857Y-96681857D01*
X140080999Y-96681857D02*
X140080999Y-95481857D01*
X140195285Y-95653286D01*
X140309571Y-95767571D01*
X140423857Y-95824714D01*
X147104142Y-113064857D02*
X147789857Y-113064857D01*
X147446999Y-113064857D02*
X147446999Y-111864857D01*
X147561285Y-112036286D01*
X147675571Y-112150571D01*
X147789857Y-112207714D01*
X152184142Y-113064857D02*
X152869857Y-113064857D01*
X152526999Y-113064857D02*
X152526999Y-111864857D01*
X152641285Y-112036286D01*
X152755571Y-112150571D01*
X152869857Y-112207714D01*
X156629142Y-113064857D02*
X157314857Y-113064857D01*
X156971999Y-113064857D02*
X156971999Y-111864857D01*
X157086285Y-112036286D01*
X157200571Y-112150571D01*
X157314857Y-112207714D01*
X157822857Y-106264143D02*
X157765714Y-106207000D01*
X157651428Y-106149857D01*
X157365714Y-106149857D01*
X157251428Y-106207000D01*
X157194285Y-106264143D01*
X157137142Y-106378429D01*
X157137142Y-106492714D01*
X157194285Y-106664143D01*
X157879999Y-107349857D01*
X157137142Y-107349857D01*
X157822857Y-101184143D02*
X157765714Y-101127000D01*
X157651428Y-101069857D01*
X157365714Y-101069857D01*
X157251428Y-101127000D01*
X157194285Y-101184143D01*
X157137142Y-101298429D01*
X157137142Y-101412714D01*
X157194285Y-101584143D01*
X157879999Y-102269857D01*
X157137142Y-102269857D01*
X144183142Y-96681857D02*
X144868857Y-96681857D01*
X144525999Y-96681857D02*
X144525999Y-95481857D01*
X144640285Y-95653286D01*
X144754571Y-95767571D01*
X144868857Y-95824714D01*
X180428857Y-106264143D02*
X180371714Y-106207000D01*
X180257428Y-106149857D01*
X179971714Y-106149857D01*
X179857428Y-106207000D01*
X179800285Y-106264143D01*
X179743142Y-106378429D01*
X179743142Y-106492714D01*
X179800285Y-106664143D01*
X180485999Y-107349857D01*
X179743142Y-107349857D01*
X180428857Y-101184143D02*
X180371714Y-101127000D01*
X180257428Y-101069857D01*
X179971714Y-101069857D01*
X179857428Y-101127000D01*
X179800285Y-101184143D01*
X179743142Y-101298429D01*
X179743142Y-101412714D01*
X179800285Y-101584143D01*
X180485999Y-102269857D01*
X179743142Y-102269857D01*
X182791142Y-113064857D02*
X183476857Y-113064857D01*
X183133999Y-113064857D02*
X183133999Y-111864857D01*
X183248285Y-112036286D01*
X183362571Y-112150571D01*
X183476857Y-112207714D01*
X179870142Y-96681857D02*
X180555857Y-96681857D01*
X180212999Y-96681857D02*
X180212999Y-95481857D01*
X180327285Y-95653286D01*
X180441571Y-95767571D01*
X180555857Y-95824714D01*
X187236142Y-113064857D02*
X187921857Y-113064857D01*
X187578999Y-113064857D02*
X187578999Y-111864857D01*
X187693285Y-112036286D01*
X187807571Y-112150571D01*
X187921857Y-112207714D01*
X192316142Y-113064857D02*
X193001857Y-113064857D01*
X192658999Y-113064857D02*
X192658999Y-111864857D01*
X192773285Y-112036286D01*
X192887571Y-112150571D01*
X193001857Y-112207714D01*
X196761142Y-113064857D02*
X197446857Y-113064857D01*
X197103999Y-113064857D02*
X197103999Y-111864857D01*
X197218285Y-112036286D01*
X197332571Y-112150571D01*
X197446857Y-112207714D01*
X197954857Y-106264143D02*
X197897714Y-106207000D01*
X197783428Y-106149857D01*
X197497714Y-106149857D01*
X197383428Y-106207000D01*
X197326285Y-106264143D01*
X197269142Y-106378429D01*
X197269142Y-106492714D01*
X197326285Y-106664143D01*
X198011999Y-107349857D01*
X197269142Y-107349857D01*
X197954857Y-101184143D02*
X197897714Y-101127000D01*
X197783428Y-101069857D01*
X197497714Y-101069857D01*
X197383428Y-101127000D01*
X197326285Y-101184143D01*
X197269142Y-101298429D01*
X197269142Y-101412714D01*
X197326285Y-101584143D01*
X198011999Y-102269857D01*
X197269142Y-102269857D01*
X184315142Y-96681857D02*
X185000857Y-96681857D01*
X184657999Y-96681857D02*
X184657999Y-95481857D01*
X184772285Y-95653286D01*
X184886571Y-95767571D01*
X185000857Y-95824714D01*
X184315142Y-116747857D02*
X185000857Y-116747857D01*
X184657999Y-116747857D02*
X184657999Y-115547857D01*
X184772285Y-115719286D01*
X184886571Y-115833571D01*
X185000857Y-115890714D01*
X197954857Y-121250143D02*
X197897714Y-121193000D01*
X197783428Y-121135857D01*
X197497714Y-121135857D01*
X197383428Y-121193000D01*
X197326285Y-121250143D01*
X197269142Y-121364429D01*
X197269142Y-121478714D01*
X197326285Y-121650143D01*
X198011999Y-122335857D01*
X197269142Y-122335857D01*
X197954857Y-126330143D02*
X197897714Y-126273000D01*
X197783428Y-126215857D01*
X197497714Y-126215857D01*
X197383428Y-126273000D01*
X197326285Y-126330143D01*
X197269142Y-126444429D01*
X197269142Y-126558714D01*
X197326285Y-126730143D01*
X198011999Y-127415857D01*
X197269142Y-127415857D01*
X196761142Y-133130857D02*
X197446857Y-133130857D01*
X197103999Y-133130857D02*
X197103999Y-131930857D01*
X197218285Y-132102286D01*
X197332571Y-132216571D01*
X197446857Y-132273714D01*
X192316142Y-133130857D02*
X193001857Y-133130857D01*
X192658999Y-133130857D02*
X192658999Y-131930857D01*
X192773285Y-132102286D01*
X192887571Y-132216571D01*
X193001857Y-132273714D01*
X187236142Y-133130857D02*
X187921857Y-133130857D01*
X187578999Y-133130857D02*
X187578999Y-131930857D01*
X187693285Y-132102286D01*
X187807571Y-132216571D01*
X187921857Y-132273714D01*
X179870142Y-116747857D02*
X180555857Y-116747857D01*
X180212999Y-116747857D02*
X180212999Y-115547857D01*
X180327285Y-115719286D01*
X180441571Y-115833571D01*
X180555857Y-115890714D01*
X182791142Y-133130857D02*
X183476857Y-133130857D01*
X183133999Y-133130857D02*
X183133999Y-131930857D01*
X183248285Y-132102286D01*
X183362571Y-132216571D01*
X183476857Y-132273714D01*
X180428857Y-121250143D02*
X180371714Y-121193000D01*
X180257428Y-121135857D01*
X179971714Y-121135857D01*
X179857428Y-121193000D01*
X179800285Y-121250143D01*
X179743142Y-121364429D01*
X179743142Y-121478714D01*
X179800285Y-121650143D01*
X180485999Y-122335857D01*
X179743142Y-122335857D01*
X180428857Y-126330143D02*
X180371714Y-126273000D01*
X180257428Y-126215857D01*
X179971714Y-126215857D01*
X179857428Y-126273000D01*
X179800285Y-126330143D01*
X179743142Y-126444429D01*
X179743142Y-126558714D01*
X179800285Y-126730143D01*
X180485999Y-127415857D01*
X179743142Y-127415857D01*
X144183142Y-116747857D02*
X144868857Y-116747857D01*
X144525999Y-116747857D02*
X144525999Y-115547857D01*
X144640285Y-115719286D01*
X144754571Y-115833571D01*
X144868857Y-115890714D01*
X157822857Y-121250143D02*
X157765714Y-121193000D01*
X157651428Y-121135857D01*
X157365714Y-121135857D01*
X157251428Y-121193000D01*
X157194285Y-121250143D01*
X157137142Y-121364429D01*
X157137142Y-121478714D01*
X157194285Y-121650143D01*
X157879999Y-122335857D01*
X157137142Y-122335857D01*
X157822857Y-126330143D02*
X157765714Y-126273000D01*
X157651428Y-126215857D01*
X157365714Y-126215857D01*
X157251428Y-126273000D01*
X157194285Y-126330143D01*
X157137142Y-126444429D01*
X157137142Y-126558714D01*
X157194285Y-126730143D01*
X157879999Y-127415857D01*
X157137142Y-127415857D01*
X156629142Y-133130857D02*
X157314857Y-133130857D01*
X156971999Y-133130857D02*
X156971999Y-131930857D01*
X157086285Y-132102286D01*
X157200571Y-132216571D01*
X157314857Y-132273714D01*
X152184142Y-133130857D02*
X152869857Y-133130857D01*
X152526999Y-133130857D02*
X152526999Y-131930857D01*
X152641285Y-132102286D01*
X152755571Y-132216571D01*
X152869857Y-132273714D01*
X147104142Y-133130857D02*
X147789857Y-133130857D01*
X147446999Y-133130857D02*
X147446999Y-131930857D01*
X147561285Y-132102286D01*
X147675571Y-132216571D01*
X147789857Y-132273714D01*
X139738142Y-116747857D02*
X140423857Y-116747857D01*
X140080999Y-116747857D02*
X140080999Y-115547857D01*
X140195285Y-115719286D01*
X140309571Y-115833571D01*
X140423857Y-115890714D01*
X142659142Y-133130857D02*
X143344857Y-133130857D01*
X143001999Y-133130857D02*
X143001999Y-131930857D01*
X143116285Y-132102286D01*
X143230571Y-132216571D01*
X143344857Y-132273714D01*
X140296857Y-121250143D02*
X140239714Y-121193000D01*
X140125428Y-121135857D01*
X139839714Y-121135857D01*
X139725428Y-121193000D01*
X139668285Y-121250143D01*
X139611142Y-121364429D01*
X139611142Y-121478714D01*
X139668285Y-121650143D01*
X140353999Y-122335857D01*
X139611142Y-122335857D01*
X140296857Y-126330143D02*
X140239714Y-126273000D01*
X140125428Y-126215857D01*
X139839714Y-126215857D01*
X139725428Y-126273000D01*
X139668285Y-126330143D01*
X139611142Y-126444429D01*
X139611142Y-126558714D01*
X139668285Y-126730143D01*
X140353999Y-127415857D01*
X139611142Y-127415857D01*
X160362857Y-126330143D02*
X160305714Y-126273000D01*
X160191428Y-126215857D01*
X159905714Y-126215857D01*
X159791428Y-126273000D01*
X159734285Y-126330143D01*
X159677142Y-126444429D01*
X159677142Y-126558714D01*
X159734285Y-126730143D01*
X160419999Y-127415857D01*
X159677142Y-127415857D01*
X160362857Y-121250143D02*
X160305714Y-121193000D01*
X160191428Y-121135857D01*
X159905714Y-121135857D01*
X159791428Y-121193000D01*
X159734285Y-121250143D01*
X159677142Y-121364429D01*
X159677142Y-121478714D01*
X159734285Y-121650143D01*
X160419999Y-122335857D01*
X159677142Y-122335857D01*
X162725142Y-133130857D02*
X163410857Y-133130857D01*
X163067999Y-133130857D02*
X163067999Y-131930857D01*
X163182285Y-132102286D01*
X163296571Y-132216571D01*
X163410857Y-132273714D01*
X159804142Y-116747857D02*
X160489857Y-116747857D01*
X160146999Y-116747857D02*
X160146999Y-115547857D01*
X160261285Y-115719286D01*
X160375571Y-115833571D01*
X160489857Y-115890714D01*
X167170142Y-133130857D02*
X167855857Y-133130857D01*
X167512999Y-133130857D02*
X167512999Y-131930857D01*
X167627285Y-132102286D01*
X167741571Y-132216571D01*
X167855857Y-132273714D01*
X172250142Y-133130857D02*
X172935857Y-133130857D01*
X172592999Y-133130857D02*
X172592999Y-131930857D01*
X172707285Y-132102286D01*
X172821571Y-132216571D01*
X172935857Y-132273714D01*
X176695142Y-133130857D02*
X177380857Y-133130857D01*
X177037999Y-133130857D02*
X177037999Y-131930857D01*
X177152285Y-132102286D01*
X177266571Y-132216571D01*
X177380857Y-132273714D01*
X177888857Y-126330143D02*
X177831714Y-126273000D01*
X177717428Y-126215857D01*
X177431714Y-126215857D01*
X177317428Y-126273000D01*
X177260285Y-126330143D01*
X177203142Y-126444429D01*
X177203142Y-126558714D01*
X177260285Y-126730143D01*
X177945999Y-127415857D01*
X177203142Y-127415857D01*
X177888857Y-121250143D02*
X177831714Y-121193000D01*
X177717428Y-121135857D01*
X177431714Y-121135857D01*
X177317428Y-121193000D01*
X177260285Y-121250143D01*
X177203142Y-121364429D01*
X177203142Y-121478714D01*
X177260285Y-121650143D01*
X177945999Y-122335857D01*
X177203142Y-122335857D01*
X164249142Y-116747857D02*
X164934857Y-116747857D01*
X164591999Y-116747857D02*
X164591999Y-115547857D01*
X164706285Y-115719286D01*
X164820571Y-115833571D01*
X164934857Y-115890714D01*
X124117142Y-116747857D02*
X124802857Y-116747857D01*
X124459999Y-116747857D02*
X124459999Y-115547857D01*
X124574285Y-115719286D01*
X124688571Y-115833571D01*
X124802857Y-115890714D01*
X137756857Y-121250143D02*
X137699714Y-121193000D01*
X137585428Y-121135857D01*
X137299714Y-121135857D01*
X137185428Y-121193000D01*
X137128285Y-121250143D01*
X137071142Y-121364429D01*
X137071142Y-121478714D01*
X137128285Y-121650143D01*
X137813999Y-122335857D01*
X137071142Y-122335857D01*
X137756857Y-126330143D02*
X137699714Y-126273000D01*
X137585428Y-126215857D01*
X137299714Y-126215857D01*
X137185428Y-126273000D01*
X137128285Y-126330143D01*
X137071142Y-126444429D01*
X137071142Y-126558714D01*
X137128285Y-126730143D01*
X137813999Y-127415857D01*
X137071142Y-127415857D01*
X136563142Y-133130857D02*
X137248857Y-133130857D01*
X136905999Y-133130857D02*
X136905999Y-131930857D01*
X137020285Y-132102286D01*
X137134571Y-132216571D01*
X137248857Y-132273714D01*
X132118142Y-133130857D02*
X132803857Y-133130857D01*
X132460999Y-133130857D02*
X132460999Y-131930857D01*
X132575285Y-132102286D01*
X132689571Y-132216571D01*
X132803857Y-132273714D01*
X127038142Y-133130857D02*
X127723857Y-133130857D01*
X127380999Y-133130857D02*
X127380999Y-131930857D01*
X127495285Y-132102286D01*
X127609571Y-132216571D01*
X127723857Y-132273714D01*
X119672142Y-116747857D02*
X120357857Y-116747857D01*
X120014999Y-116747857D02*
X120014999Y-115547857D01*
X120129285Y-115719286D01*
X120243571Y-115833571D01*
X120357857Y-115890714D01*
X122593142Y-133130857D02*
X123278857Y-133130857D01*
X122935999Y-133130857D02*
X122935999Y-131930857D01*
X123050285Y-132102286D01*
X123164571Y-132216571D01*
X123278857Y-132273714D01*
X120230857Y-121250143D02*
X120173714Y-121193000D01*
X120059428Y-121135857D01*
X119773714Y-121135857D01*
X119659428Y-121193000D01*
X119602285Y-121250143D01*
X119545142Y-121364429D01*
X119545142Y-121478714D01*
X119602285Y-121650143D01*
X120287999Y-122335857D01*
X119545142Y-122335857D01*
X120230857Y-126330143D02*
X120173714Y-126273000D01*
X120059428Y-126215857D01*
X119773714Y-126215857D01*
X119659428Y-126273000D01*
X119602285Y-126330143D01*
X119545142Y-126444429D01*
X119545142Y-126558714D01*
X119602285Y-126730143D01*
X120287999Y-127415857D01*
X119545142Y-127415857D01*
X100164857Y-126330143D02*
X100107714Y-126273000D01*
X99993428Y-126215857D01*
X99707714Y-126215857D01*
X99593428Y-126273000D01*
X99536285Y-126330143D01*
X99479142Y-126444429D01*
X99479142Y-126558714D01*
X99536285Y-126730143D01*
X100221999Y-127415857D01*
X99479142Y-127415857D01*
X100164857Y-121250143D02*
X100107714Y-121193000D01*
X99993428Y-121135857D01*
X99707714Y-121135857D01*
X99593428Y-121193000D01*
X99536285Y-121250143D01*
X99479142Y-121364429D01*
X99479142Y-121478714D01*
X99536285Y-121650143D01*
X100221999Y-122335857D01*
X99479142Y-122335857D01*
X102527142Y-133130857D02*
X103212857Y-133130857D01*
X102869999Y-133130857D02*
X102869999Y-131930857D01*
X102984285Y-132102286D01*
X103098571Y-132216571D01*
X103212857Y-132273714D01*
X99606142Y-116747857D02*
X100291857Y-116747857D01*
X99948999Y-116747857D02*
X99948999Y-115547857D01*
X100063285Y-115719286D01*
X100177571Y-115833571D01*
X100291857Y-115890714D01*
X106972142Y-133130857D02*
X107657857Y-133130857D01*
X107314999Y-133130857D02*
X107314999Y-131930857D01*
X107429285Y-132102286D01*
X107543571Y-132216571D01*
X107657857Y-132273714D01*
X112052142Y-133130857D02*
X112737857Y-133130857D01*
X112394999Y-133130857D02*
X112394999Y-131930857D01*
X112509285Y-132102286D01*
X112623571Y-132216571D01*
X112737857Y-132273714D01*
X116497142Y-133130857D02*
X117182857Y-133130857D01*
X116839999Y-133130857D02*
X116839999Y-131930857D01*
X116954285Y-132102286D01*
X117068571Y-132216571D01*
X117182857Y-132273714D01*
X117690857Y-126330143D02*
X117633714Y-126273000D01*
X117519428Y-126215857D01*
X117233714Y-126215857D01*
X117119428Y-126273000D01*
X117062285Y-126330143D01*
X117005142Y-126444429D01*
X117005142Y-126558714D01*
X117062285Y-126730143D01*
X117747999Y-127415857D01*
X117005142Y-127415857D01*
X117690857Y-121250143D02*
X117633714Y-121193000D01*
X117519428Y-121135857D01*
X117233714Y-121135857D01*
X117119428Y-121193000D01*
X117062285Y-121250143D01*
X117005142Y-121364429D01*
X117005142Y-121478714D01*
X117062285Y-121650143D01*
X117747999Y-122335857D01*
X117005142Y-122335857D01*
X104051142Y-116747857D02*
X104736857Y-116747857D01*
X104393999Y-116747857D02*
X104393999Y-115547857D01*
X104508285Y-115719286D01*
X104622571Y-115833571D01*
X104736857Y-115890714D01*
X104051142Y-76615857D02*
X104736857Y-76615857D01*
X104393999Y-76615857D02*
X104393999Y-75415857D01*
X104508285Y-75587286D01*
X104622571Y-75701571D01*
X104736857Y-75758714D01*
X117690857Y-81118143D02*
X117633714Y-81061000D01*
X117519428Y-81003857D01*
X117233714Y-81003857D01*
X117119428Y-81061000D01*
X117062285Y-81118143D01*
X117005142Y-81232429D01*
X117005142Y-81346714D01*
X117062285Y-81518143D01*
X117747999Y-82203857D01*
X117005142Y-82203857D01*
X117690857Y-86198143D02*
X117633714Y-86141000D01*
X117519428Y-86083857D01*
X117233714Y-86083857D01*
X117119428Y-86141000D01*
X117062285Y-86198143D01*
X117005142Y-86312429D01*
X117005142Y-86426714D01*
X117062285Y-86598143D01*
X117747999Y-87283857D01*
X117005142Y-87283857D01*
X116497142Y-92998857D02*
X117182857Y-92998857D01*
X116839999Y-92998857D02*
X116839999Y-91798857D01*
X116954285Y-91970286D01*
X117068571Y-92084571D01*
X117182857Y-92141714D01*
X112052142Y-92998857D02*
X112737857Y-92998857D01*
X112394999Y-92998857D02*
X112394999Y-91798857D01*
X112509285Y-91970286D01*
X112623571Y-92084571D01*
X112737857Y-92141714D01*
X106972142Y-92998857D02*
X107657857Y-92998857D01*
X107314999Y-92998857D02*
X107314999Y-91798857D01*
X107429285Y-91970286D01*
X107543571Y-92084571D01*
X107657857Y-92141714D01*
X99606142Y-76615857D02*
X100291857Y-76615857D01*
X99948999Y-76615857D02*
X99948999Y-75415857D01*
X100063285Y-75587286D01*
X100177571Y-75701571D01*
X100291857Y-75758714D01*
X102527142Y-92998857D02*
X103212857Y-92998857D01*
X102869999Y-92998857D02*
X102869999Y-91798857D01*
X102984285Y-91970286D01*
X103098571Y-92084571D01*
X103212857Y-92141714D01*
X100164857Y-81118143D02*
X100107714Y-81061000D01*
X99993428Y-81003857D01*
X99707714Y-81003857D01*
X99593428Y-81061000D01*
X99536285Y-81118143D01*
X99479142Y-81232429D01*
X99479142Y-81346714D01*
X99536285Y-81518143D01*
X100221999Y-82203857D01*
X99479142Y-82203857D01*
X100164857Y-86198143D02*
X100107714Y-86141000D01*
X99993428Y-86083857D01*
X99707714Y-86083857D01*
X99593428Y-86141000D01*
X99536285Y-86198143D01*
X99479142Y-86312429D01*
X99479142Y-86426714D01*
X99536285Y-86598143D01*
X100221999Y-87283857D01*
X99479142Y-87283857D01*
X120230857Y-86198143D02*
X120173714Y-86141000D01*
X120059428Y-86083857D01*
X119773714Y-86083857D01*
X119659428Y-86141000D01*
X119602285Y-86198143D01*
X119545142Y-86312429D01*
X119545142Y-86426714D01*
X119602285Y-86598143D01*
X120287999Y-87283857D01*
X119545142Y-87283857D01*
X120230857Y-81118143D02*
X120173714Y-81061000D01*
X120059428Y-81003857D01*
X119773714Y-81003857D01*
X119659428Y-81061000D01*
X119602285Y-81118143D01*
X119545142Y-81232429D01*
X119545142Y-81346714D01*
X119602285Y-81518143D01*
X120287999Y-82203857D01*
X119545142Y-82203857D01*
X122593142Y-92998857D02*
X123278857Y-92998857D01*
X122935999Y-92998857D02*
X122935999Y-91798857D01*
X123050285Y-91970286D01*
X123164571Y-92084571D01*
X123278857Y-92141714D01*
X119672142Y-76615857D02*
X120357857Y-76615857D01*
X120014999Y-76615857D02*
X120014999Y-75415857D01*
X120129285Y-75587286D01*
X120243571Y-75701571D01*
X120357857Y-75758714D01*
X127038142Y-92998857D02*
X127723857Y-92998857D01*
X127380999Y-92998857D02*
X127380999Y-91798857D01*
X127495285Y-91970286D01*
X127609571Y-92084571D01*
X127723857Y-92141714D01*
X132118142Y-92998857D02*
X132803857Y-92998857D01*
X132460999Y-92998857D02*
X132460999Y-91798857D01*
X132575285Y-91970286D01*
X132689571Y-92084571D01*
X132803857Y-92141714D01*
X136563142Y-92998857D02*
X137248857Y-92998857D01*
X136905999Y-92998857D02*
X136905999Y-91798857D01*
X137020285Y-91970286D01*
X137134571Y-92084571D01*
X137248857Y-92141714D01*
X137756857Y-86198143D02*
X137699714Y-86141000D01*
X137585428Y-86083857D01*
X137299714Y-86083857D01*
X137185428Y-86141000D01*
X137128285Y-86198143D01*
X137071142Y-86312429D01*
X137071142Y-86426714D01*
X137128285Y-86598143D01*
X137813999Y-87283857D01*
X137071142Y-87283857D01*
X137756857Y-81118143D02*
X137699714Y-81061000D01*
X137585428Y-81003857D01*
X137299714Y-81003857D01*
X137185428Y-81061000D01*
X137128285Y-81118143D01*
X137071142Y-81232429D01*
X137071142Y-81346714D01*
X137128285Y-81518143D01*
X137813999Y-82203857D01*
X137071142Y-82203857D01*
X124117142Y-76615857D02*
X124802857Y-76615857D01*
X124459999Y-76615857D02*
X124459999Y-75415857D01*
X124574285Y-75587286D01*
X124688571Y-75701571D01*
X124802857Y-75758714D01*
X164249142Y-76615857D02*
X164934857Y-76615857D01*
X164591999Y-76615857D02*
X164591999Y-75415857D01*
X164706285Y-75587286D01*
X164820571Y-75701571D01*
X164934857Y-75758714D01*
X177888857Y-81118143D02*
X177831714Y-81061000D01*
X177717428Y-81003857D01*
X177431714Y-81003857D01*
X177317428Y-81061000D01*
X177260285Y-81118143D01*
X177203142Y-81232429D01*
X177203142Y-81346714D01*
X177260285Y-81518143D01*
X177945999Y-82203857D01*
X177203142Y-82203857D01*
X177888857Y-86198143D02*
X177831714Y-86141000D01*
X177717428Y-86083857D01*
X177431714Y-86083857D01*
X177317428Y-86141000D01*
X177260285Y-86198143D01*
X177203142Y-86312429D01*
X177203142Y-86426714D01*
X177260285Y-86598143D01*
X177945999Y-87283857D01*
X177203142Y-87283857D01*
X176695142Y-92998857D02*
X177380857Y-92998857D01*
X177037999Y-92998857D02*
X177037999Y-91798857D01*
X177152285Y-91970286D01*
X177266571Y-92084571D01*
X177380857Y-92141714D01*
X172250142Y-92998857D02*
X172935857Y-92998857D01*
X172592999Y-92998857D02*
X172592999Y-91798857D01*
X172707285Y-91970286D01*
X172821571Y-92084571D01*
X172935857Y-92141714D01*
X167170142Y-92998857D02*
X167855857Y-92998857D01*
X167512999Y-92998857D02*
X167512999Y-91798857D01*
X167627285Y-91970286D01*
X167741571Y-92084571D01*
X167855857Y-92141714D01*
X159804142Y-76615857D02*
X160489857Y-76615857D01*
X160146999Y-76615857D02*
X160146999Y-75415857D01*
X160261285Y-75587286D01*
X160375571Y-75701571D01*
X160489857Y-75758714D01*
X162725142Y-92998857D02*
X163410857Y-92998857D01*
X163067999Y-92998857D02*
X163067999Y-91798857D01*
X163182285Y-91970286D01*
X163296571Y-92084571D01*
X163410857Y-92141714D01*
X160362857Y-81118143D02*
X160305714Y-81061000D01*
X160191428Y-81003857D01*
X159905714Y-81003857D01*
X159791428Y-81061000D01*
X159734285Y-81118143D01*
X159677142Y-81232429D01*
X159677142Y-81346714D01*
X159734285Y-81518143D01*
X160419999Y-82203857D01*
X159677142Y-82203857D01*
X160362857Y-86198143D02*
X160305714Y-86141000D01*
X160191428Y-86083857D01*
X159905714Y-86083857D01*
X159791428Y-86141000D01*
X159734285Y-86198143D01*
X159677142Y-86312429D01*
X159677142Y-86426714D01*
X159734285Y-86598143D01*
X160419999Y-87283857D01*
X159677142Y-87283857D01*
X140296857Y-86198143D02*
X140239714Y-86141000D01*
X140125428Y-86083857D01*
X139839714Y-86083857D01*
X139725428Y-86141000D01*
X139668285Y-86198143D01*
X139611142Y-86312429D01*
X139611142Y-86426714D01*
X139668285Y-86598143D01*
X140353999Y-87283857D01*
X139611142Y-87283857D01*
X140296857Y-81118143D02*
X140239714Y-81061000D01*
X140125428Y-81003857D01*
X139839714Y-81003857D01*
X139725428Y-81061000D01*
X139668285Y-81118143D01*
X139611142Y-81232429D01*
X139611142Y-81346714D01*
X139668285Y-81518143D01*
X140353999Y-82203857D01*
X139611142Y-82203857D01*
X142659142Y-92998857D02*
X143344857Y-92998857D01*
X143001999Y-92998857D02*
X143001999Y-91798857D01*
X143116285Y-91970286D01*
X143230571Y-92084571D01*
X143344857Y-92141714D01*
X139738142Y-76615857D02*
X140423857Y-76615857D01*
X140080999Y-76615857D02*
X140080999Y-75415857D01*
X140195285Y-75587286D01*
X140309571Y-75701571D01*
X140423857Y-75758714D01*
X147104142Y-92998857D02*
X147789857Y-92998857D01*
X147446999Y-92998857D02*
X147446999Y-91798857D01*
X147561285Y-91970286D01*
X147675571Y-92084571D01*
X147789857Y-92141714D01*
X152184142Y-92998857D02*
X152869857Y-92998857D01*
X152526999Y-92998857D02*
X152526999Y-91798857D01*
X152641285Y-91970286D01*
X152755571Y-92084571D01*
X152869857Y-92141714D01*
X156629142Y-92998857D02*
X157314857Y-92998857D01*
X156971999Y-92998857D02*
X156971999Y-91798857D01*
X157086285Y-91970286D01*
X157200571Y-92084571D01*
X157314857Y-92141714D01*
X157822857Y-86198143D02*
X157765714Y-86141000D01*
X157651428Y-86083857D01*
X157365714Y-86083857D01*
X157251428Y-86141000D01*
X157194285Y-86198143D01*
X157137142Y-86312429D01*
X157137142Y-86426714D01*
X157194285Y-86598143D01*
X157879999Y-87283857D01*
X157137142Y-87283857D01*
X157822857Y-81118143D02*
X157765714Y-81061000D01*
X157651428Y-81003857D01*
X157365714Y-81003857D01*
X157251428Y-81061000D01*
X157194285Y-81118143D01*
X157137142Y-81232429D01*
X157137142Y-81346714D01*
X157194285Y-81518143D01*
X157879999Y-82203857D01*
X157137142Y-82203857D01*
X144183142Y-76615857D02*
X144868857Y-76615857D01*
X144525999Y-76615857D02*
X144525999Y-75415857D01*
X144640285Y-75587286D01*
X144754571Y-75701571D01*
X144868857Y-75758714D01*
X180428857Y-86198143D02*
X180371714Y-86141000D01*
X180257428Y-86083857D01*
X179971714Y-86083857D01*
X179857428Y-86141000D01*
X179800285Y-86198143D01*
X179743142Y-86312429D01*
X179743142Y-86426714D01*
X179800285Y-86598143D01*
X180485999Y-87283857D01*
X179743142Y-87283857D01*
X180428857Y-81118143D02*
X180371714Y-81061000D01*
X180257428Y-81003857D01*
X179971714Y-81003857D01*
X179857428Y-81061000D01*
X179800285Y-81118143D01*
X179743142Y-81232429D01*
X179743142Y-81346714D01*
X179800285Y-81518143D01*
X180485999Y-82203857D01*
X179743142Y-82203857D01*
X182791142Y-92998857D02*
X183476857Y-92998857D01*
X183133999Y-92998857D02*
X183133999Y-91798857D01*
X183248285Y-91970286D01*
X183362571Y-92084571D01*
X183476857Y-92141714D01*
X179870142Y-76615857D02*
X180555857Y-76615857D01*
X180212999Y-76615857D02*
X180212999Y-75415857D01*
X180327285Y-75587286D01*
X180441571Y-75701571D01*
X180555857Y-75758714D01*
X187236142Y-92998857D02*
X187921857Y-92998857D01*
X187578999Y-92998857D02*
X187578999Y-91798857D01*
X187693285Y-91970286D01*
X187807571Y-92084571D01*
X187921857Y-92141714D01*
X192316142Y-92998857D02*
X193001857Y-92998857D01*
X192658999Y-92998857D02*
X192658999Y-91798857D01*
X192773285Y-91970286D01*
X192887571Y-92084571D01*
X193001857Y-92141714D01*
X196761142Y-92998857D02*
X197446857Y-92998857D01*
X197103999Y-92998857D02*
X197103999Y-91798857D01*
X197218285Y-91970286D01*
X197332571Y-92084571D01*
X197446857Y-92141714D01*
X197954857Y-86198143D02*
X197897714Y-86141000D01*
X197783428Y-86083857D01*
X197497714Y-86083857D01*
X197383428Y-86141000D01*
X197326285Y-86198143D01*
X197269142Y-86312429D01*
X197269142Y-86426714D01*
X197326285Y-86598143D01*
X198011999Y-87283857D01*
X197269142Y-87283857D01*
X197954857Y-81118143D02*
X197897714Y-81061000D01*
X197783428Y-81003857D01*
X197497714Y-81003857D01*
X197383428Y-81061000D01*
X197326285Y-81118143D01*
X197269142Y-81232429D01*
X197269142Y-81346714D01*
X197326285Y-81518143D01*
X198011999Y-82203857D01*
X197269142Y-82203857D01*
X184315142Y-76615857D02*
X185000857Y-76615857D01*
X184657999Y-76615857D02*
X184657999Y-75415857D01*
X184772285Y-75587286D01*
X184886571Y-75701571D01*
X185000857Y-75758714D01*
X184315142Y-56549857D02*
X185000857Y-56549857D01*
X184657999Y-56549857D02*
X184657999Y-55349857D01*
X184772285Y-55521286D01*
X184886571Y-55635571D01*
X185000857Y-55692714D01*
X197954857Y-61052143D02*
X197897714Y-60995000D01*
X197783428Y-60937857D01*
X197497714Y-60937857D01*
X197383428Y-60995000D01*
X197326285Y-61052143D01*
X197269142Y-61166429D01*
X197269142Y-61280714D01*
X197326285Y-61452143D01*
X198011999Y-62137857D01*
X197269142Y-62137857D01*
X197954857Y-66132143D02*
X197897714Y-66075000D01*
X197783428Y-66017857D01*
X197497714Y-66017857D01*
X197383428Y-66075000D01*
X197326285Y-66132143D01*
X197269142Y-66246429D01*
X197269142Y-66360714D01*
X197326285Y-66532143D01*
X198011999Y-67217857D01*
X197269142Y-67217857D01*
X196761142Y-72932857D02*
X197446857Y-72932857D01*
X197103999Y-72932857D02*
X197103999Y-71732857D01*
X197218285Y-71904286D01*
X197332571Y-72018571D01*
X197446857Y-72075714D01*
X192316142Y-72932857D02*
X193001857Y-72932857D01*
X192658999Y-72932857D02*
X192658999Y-71732857D01*
X192773285Y-71904286D01*
X192887571Y-72018571D01*
X193001857Y-72075714D01*
X187236142Y-72932857D02*
X187921857Y-72932857D01*
X187578999Y-72932857D02*
X187578999Y-71732857D01*
X187693285Y-71904286D01*
X187807571Y-72018571D01*
X187921857Y-72075714D01*
X179870142Y-56549857D02*
X180555857Y-56549857D01*
X180212999Y-56549857D02*
X180212999Y-55349857D01*
X180327285Y-55521286D01*
X180441571Y-55635571D01*
X180555857Y-55692714D01*
X182791142Y-72932857D02*
X183476857Y-72932857D01*
X183133999Y-72932857D02*
X183133999Y-71732857D01*
X183248285Y-71904286D01*
X183362571Y-72018571D01*
X183476857Y-72075714D01*
X180428857Y-61052143D02*
X180371714Y-60995000D01*
X180257428Y-60937857D01*
X179971714Y-60937857D01*
X179857428Y-60995000D01*
X179800285Y-61052143D01*
X179743142Y-61166429D01*
X179743142Y-61280714D01*
X179800285Y-61452143D01*
X180485999Y-62137857D01*
X179743142Y-62137857D01*
X180428857Y-66132143D02*
X180371714Y-66075000D01*
X180257428Y-66017857D01*
X179971714Y-66017857D01*
X179857428Y-66075000D01*
X179800285Y-66132143D01*
X179743142Y-66246429D01*
X179743142Y-66360714D01*
X179800285Y-66532143D01*
X180485999Y-67217857D01*
X179743142Y-67217857D01*
X144183142Y-56549857D02*
X144868857Y-56549857D01*
X144525999Y-56549857D02*
X144525999Y-55349857D01*
X144640285Y-55521286D01*
X144754571Y-55635571D01*
X144868857Y-55692714D01*
X157822857Y-61052143D02*
X157765714Y-60995000D01*
X157651428Y-60937857D01*
X157365714Y-60937857D01*
X157251428Y-60995000D01*
X157194285Y-61052143D01*
X157137142Y-61166429D01*
X157137142Y-61280714D01*
X157194285Y-61452143D01*
X157879999Y-62137857D01*
X157137142Y-62137857D01*
X157822857Y-66132143D02*
X157765714Y-66075000D01*
X157651428Y-66017857D01*
X157365714Y-66017857D01*
X157251428Y-66075000D01*
X157194285Y-66132143D01*
X157137142Y-66246429D01*
X157137142Y-66360714D01*
X157194285Y-66532143D01*
X157879999Y-67217857D01*
X157137142Y-67217857D01*
X156629142Y-72932857D02*
X157314857Y-72932857D01*
X156971999Y-72932857D02*
X156971999Y-71732857D01*
X157086285Y-71904286D01*
X157200571Y-72018571D01*
X157314857Y-72075714D01*
X152184142Y-72932857D02*
X152869857Y-72932857D01*
X152526999Y-72932857D02*
X152526999Y-71732857D01*
X152641285Y-71904286D01*
X152755571Y-72018571D01*
X152869857Y-72075714D01*
X147104142Y-72932857D02*
X147789857Y-72932857D01*
X147446999Y-72932857D02*
X147446999Y-71732857D01*
X147561285Y-71904286D01*
X147675571Y-72018571D01*
X147789857Y-72075714D01*
X139738142Y-56549857D02*
X140423857Y-56549857D01*
X140080999Y-56549857D02*
X140080999Y-55349857D01*
X140195285Y-55521286D01*
X140309571Y-55635571D01*
X140423857Y-55692714D01*
X142659142Y-72932857D02*
X143344857Y-72932857D01*
X143001999Y-72932857D02*
X143001999Y-71732857D01*
X143116285Y-71904286D01*
X143230571Y-72018571D01*
X143344857Y-72075714D01*
X140296857Y-61052143D02*
X140239714Y-60995000D01*
X140125428Y-60937857D01*
X139839714Y-60937857D01*
X139725428Y-60995000D01*
X139668285Y-61052143D01*
X139611142Y-61166429D01*
X139611142Y-61280714D01*
X139668285Y-61452143D01*
X140353999Y-62137857D01*
X139611142Y-62137857D01*
X140296857Y-66132143D02*
X140239714Y-66075000D01*
X140125428Y-66017857D01*
X139839714Y-66017857D01*
X139725428Y-66075000D01*
X139668285Y-66132143D01*
X139611142Y-66246429D01*
X139611142Y-66360714D01*
X139668285Y-66532143D01*
X140353999Y-67217857D01*
X139611142Y-67217857D01*
X160362857Y-66132143D02*
X160305714Y-66075000D01*
X160191428Y-66017857D01*
X159905714Y-66017857D01*
X159791428Y-66075000D01*
X159734285Y-66132143D01*
X159677142Y-66246429D01*
X159677142Y-66360714D01*
X159734285Y-66532143D01*
X160419999Y-67217857D01*
X159677142Y-67217857D01*
X160362857Y-61052143D02*
X160305714Y-60995000D01*
X160191428Y-60937857D01*
X159905714Y-60937857D01*
X159791428Y-60995000D01*
X159734285Y-61052143D01*
X159677142Y-61166429D01*
X159677142Y-61280714D01*
X159734285Y-61452143D01*
X160419999Y-62137857D01*
X159677142Y-62137857D01*
X162725142Y-72932857D02*
X163410857Y-72932857D01*
X163067999Y-72932857D02*
X163067999Y-71732857D01*
X163182285Y-71904286D01*
X163296571Y-72018571D01*
X163410857Y-72075714D01*
X159804142Y-56549857D02*
X160489857Y-56549857D01*
X160146999Y-56549857D02*
X160146999Y-55349857D01*
X160261285Y-55521286D01*
X160375571Y-55635571D01*
X160489857Y-55692714D01*
X167170142Y-72932857D02*
X167855857Y-72932857D01*
X167512999Y-72932857D02*
X167512999Y-71732857D01*
X167627285Y-71904286D01*
X167741571Y-72018571D01*
X167855857Y-72075714D01*
X172250142Y-72932857D02*
X172935857Y-72932857D01*
X172592999Y-72932857D02*
X172592999Y-71732857D01*
X172707285Y-71904286D01*
X172821571Y-72018571D01*
X172935857Y-72075714D01*
X176695142Y-72932857D02*
X177380857Y-72932857D01*
X177037999Y-72932857D02*
X177037999Y-71732857D01*
X177152285Y-71904286D01*
X177266571Y-72018571D01*
X177380857Y-72075714D01*
X177888857Y-66132143D02*
X177831714Y-66075000D01*
X177717428Y-66017857D01*
X177431714Y-66017857D01*
X177317428Y-66075000D01*
X177260285Y-66132143D01*
X177203142Y-66246429D01*
X177203142Y-66360714D01*
X177260285Y-66532143D01*
X177945999Y-67217857D01*
X177203142Y-67217857D01*
X177888857Y-61052143D02*
X177831714Y-60995000D01*
X177717428Y-60937857D01*
X177431714Y-60937857D01*
X177317428Y-60995000D01*
X177260285Y-61052143D01*
X177203142Y-61166429D01*
X177203142Y-61280714D01*
X177260285Y-61452143D01*
X177945999Y-62137857D01*
X177203142Y-62137857D01*
X164249142Y-56549857D02*
X164934857Y-56549857D01*
X164591999Y-56549857D02*
X164591999Y-55349857D01*
X164706285Y-55521286D01*
X164820571Y-55635571D01*
X164934857Y-55692714D01*
X124117142Y-56549857D02*
X124802857Y-56549857D01*
X124459999Y-56549857D02*
X124459999Y-55349857D01*
X124574285Y-55521286D01*
X124688571Y-55635571D01*
X124802857Y-55692714D01*
X137756857Y-61052143D02*
X137699714Y-60995000D01*
X137585428Y-60937857D01*
X137299714Y-60937857D01*
X137185428Y-60995000D01*
X137128285Y-61052143D01*
X137071142Y-61166429D01*
X137071142Y-61280714D01*
X137128285Y-61452143D01*
X137813999Y-62137857D01*
X137071142Y-62137857D01*
X137756857Y-66132143D02*
X137699714Y-66075000D01*
X137585428Y-66017857D01*
X137299714Y-66017857D01*
X137185428Y-66075000D01*
X137128285Y-66132143D01*
X137071142Y-66246429D01*
X137071142Y-66360714D01*
X137128285Y-66532143D01*
X137813999Y-67217857D01*
X137071142Y-67217857D01*
X136563142Y-72932857D02*
X137248857Y-72932857D01*
X136905999Y-72932857D02*
X136905999Y-71732857D01*
X137020285Y-71904286D01*
X137134571Y-72018571D01*
X137248857Y-72075714D01*
X132118142Y-72932857D02*
X132803857Y-72932857D01*
X132460999Y-72932857D02*
X132460999Y-71732857D01*
X132575285Y-71904286D01*
X132689571Y-72018571D01*
X132803857Y-72075714D01*
X127038142Y-72932857D02*
X127723857Y-72932857D01*
X127380999Y-72932857D02*
X127380999Y-71732857D01*
X127495285Y-71904286D01*
X127609571Y-72018571D01*
X127723857Y-72075714D01*
X119672142Y-56549857D02*
X120357857Y-56549857D01*
X120014999Y-56549857D02*
X120014999Y-55349857D01*
X120129285Y-55521286D01*
X120243571Y-55635571D01*
X120357857Y-55692714D01*
X122593142Y-72932857D02*
X123278857Y-72932857D01*
X122935999Y-72932857D02*
X122935999Y-71732857D01*
X123050285Y-71904286D01*
X123164571Y-72018571D01*
X123278857Y-72075714D01*
X120230857Y-61052143D02*
X120173714Y-60995000D01*
X120059428Y-60937857D01*
X119773714Y-60937857D01*
X119659428Y-60995000D01*
X119602285Y-61052143D01*
X119545142Y-61166429D01*
X119545142Y-61280714D01*
X119602285Y-61452143D01*
X120287999Y-62137857D01*
X119545142Y-62137857D01*
X120230857Y-66132143D02*
X120173714Y-66075000D01*
X120059428Y-66017857D01*
X119773714Y-66017857D01*
X119659428Y-66075000D01*
X119602285Y-66132143D01*
X119545142Y-66246429D01*
X119545142Y-66360714D01*
X119602285Y-66532143D01*
X120287999Y-67217857D01*
X119545142Y-67217857D01*
X100164857Y-66132143D02*
X100107714Y-66075000D01*
X99993428Y-66017857D01*
X99707714Y-66017857D01*
X99593428Y-66075000D01*
X99536285Y-66132143D01*
X99479142Y-66246429D01*
X99479142Y-66360714D01*
X99536285Y-66532143D01*
X100221999Y-67217857D01*
X99479142Y-67217857D01*
X100164857Y-61052143D02*
X100107714Y-60995000D01*
X99993428Y-60937857D01*
X99707714Y-60937857D01*
X99593428Y-60995000D01*
X99536285Y-61052143D01*
X99479142Y-61166429D01*
X99479142Y-61280714D01*
X99536285Y-61452143D01*
X100221999Y-62137857D01*
X99479142Y-62137857D01*
X102527142Y-72932857D02*
X103212857Y-72932857D01*
X102869999Y-72932857D02*
X102869999Y-71732857D01*
X102984285Y-71904286D01*
X103098571Y-72018571D01*
X103212857Y-72075714D01*
X99606142Y-56549857D02*
X100291857Y-56549857D01*
X99948999Y-56549857D02*
X99948999Y-55349857D01*
X100063285Y-55521286D01*
X100177571Y-55635571D01*
X100291857Y-55692714D01*
X106972142Y-72932857D02*
X107657857Y-72932857D01*
X107314999Y-72932857D02*
X107314999Y-71732857D01*
X107429285Y-71904286D01*
X107543571Y-72018571D01*
X107657857Y-72075714D01*
X112052142Y-72932857D02*
X112737857Y-72932857D01*
X112394999Y-72932857D02*
X112394999Y-71732857D01*
X112509285Y-71904286D01*
X112623571Y-72018571D01*
X112737857Y-72075714D01*
X116497142Y-72932857D02*
X117182857Y-72932857D01*
X116839999Y-72932857D02*
X116839999Y-71732857D01*
X116954285Y-71904286D01*
X117068571Y-72018571D01*
X117182857Y-72075714D01*
X117690857Y-66132143D02*
X117633714Y-66075000D01*
X117519428Y-66017857D01*
X117233714Y-66017857D01*
X117119428Y-66075000D01*
X117062285Y-66132143D01*
X117005142Y-66246429D01*
X117005142Y-66360714D01*
X117062285Y-66532143D01*
X117747999Y-67217857D01*
X117005142Y-67217857D01*
X117690857Y-61052143D02*
X117633714Y-60995000D01*
X117519428Y-60937857D01*
X117233714Y-60937857D01*
X117119428Y-60995000D01*
X117062285Y-61052143D01*
X117005142Y-61166429D01*
X117005142Y-61280714D01*
X117062285Y-61452143D01*
X117747999Y-62137857D01*
X117005142Y-62137857D01*
X104051142Y-56549857D02*
X104736857Y-56549857D01*
X104393999Y-56549857D02*
X104393999Y-55349857D01*
X104508285Y-55521286D01*
X104622571Y-55635571D01*
X104736857Y-55692714D01*
X114120000Y-136779000D02*
X114520000Y-136779000D01*
X110620000Y-136779000D02*
X110220000Y-136779000D01*
X111120000Y-137579000D02*
X111120000Y-135979000D01*
X110620000Y-137579000D02*
X114120000Y-137579000D01*
X114120000Y-137579000D02*
X114120000Y-135979000D01*
X114120000Y-135979000D02*
X110620000Y-135979000D01*
X110620000Y-135979000D02*
X110620000Y-137579000D01*
X134186000Y-136779000D02*
X134586000Y-136779000D01*
X130686000Y-136779000D02*
X130286000Y-136779000D01*
X131186000Y-137579000D02*
X131186000Y-135979000D01*
X130686000Y-137579000D02*
X134186000Y-137579000D01*
X134186000Y-137579000D02*
X134186000Y-135979000D01*
X134186000Y-135979000D02*
X130686000Y-135979000D01*
X130686000Y-135979000D02*
X130686000Y-137579000D01*
X174318000Y-136779000D02*
X174718000Y-136779000D01*
X170818000Y-136779000D02*
X170418000Y-136779000D01*
X171318000Y-137579000D02*
X171318000Y-135979000D01*
X170818000Y-137579000D02*
X174318000Y-137579000D01*
X174318000Y-137579000D02*
X174318000Y-135979000D01*
X174318000Y-135979000D02*
X170818000Y-135979000D01*
X170818000Y-135979000D02*
X170818000Y-137579000D01*
X154252000Y-136779000D02*
X154652000Y-136779000D01*
X150752000Y-136779000D02*
X150352000Y-136779000D01*
X151252000Y-137579000D02*
X151252000Y-135979000D01*
X150752000Y-137579000D02*
X154252000Y-137579000D01*
X154252000Y-137579000D02*
X154252000Y-135979000D01*
X154252000Y-135979000D02*
X150752000Y-135979000D01*
X150752000Y-135979000D02*
X150752000Y-137579000D01*
X194384000Y-136779000D02*
X194784000Y-136779000D01*
X190884000Y-136779000D02*
X190484000Y-136779000D01*
X191384000Y-137579000D02*
X191384000Y-135979000D01*
X190884000Y-137579000D02*
X194384000Y-137579000D01*
X194384000Y-137579000D02*
X194384000Y-135979000D01*
X194384000Y-135979000D02*
X190884000Y-135979000D01*
X190884000Y-135979000D02*
X190884000Y-137579000D01*
X114120000Y-96647000D02*
X114520000Y-96647000D01*
X110620000Y-96647000D02*
X110220000Y-96647000D01*
X111120000Y-97447000D02*
X111120000Y-95847000D01*
X110620000Y-97447000D02*
X114120000Y-97447000D01*
X114120000Y-97447000D02*
X114120000Y-95847000D01*
X114120000Y-95847000D02*
X110620000Y-95847000D01*
X110620000Y-95847000D02*
X110620000Y-97447000D01*
X134186000Y-96647000D02*
X134586000Y-96647000D01*
X130686000Y-96647000D02*
X130286000Y-96647000D01*
X131186000Y-97447000D02*
X131186000Y-95847000D01*
X130686000Y-97447000D02*
X134186000Y-97447000D01*
X134186000Y-97447000D02*
X134186000Y-95847000D01*
X134186000Y-95847000D02*
X130686000Y-95847000D01*
X130686000Y-95847000D02*
X130686000Y-97447000D01*
X174318000Y-96647000D02*
X174718000Y-96647000D01*
X170818000Y-96647000D02*
X170418000Y-96647000D01*
X171318000Y-97447000D02*
X171318000Y-95847000D01*
X170818000Y-97447000D02*
X174318000Y-97447000D01*
X174318000Y-97447000D02*
X174318000Y-95847000D01*
X174318000Y-95847000D02*
X170818000Y-95847000D01*
X170818000Y-95847000D02*
X170818000Y-97447000D01*
X154252000Y-96647000D02*
X154652000Y-96647000D01*
X150752000Y-96647000D02*
X150352000Y-96647000D01*
X151252000Y-97447000D02*
X151252000Y-95847000D01*
X150752000Y-97447000D02*
X154252000Y-97447000D01*
X154252000Y-97447000D02*
X154252000Y-95847000D01*
X154252000Y-95847000D02*
X150752000Y-95847000D01*
X150752000Y-95847000D02*
X150752000Y-97447000D01*
X194384000Y-96647000D02*
X194784000Y-96647000D01*
X190884000Y-96647000D02*
X190484000Y-96647000D01*
X191384000Y-97447000D02*
X191384000Y-95847000D01*
X190884000Y-97447000D02*
X194384000Y-97447000D01*
X194384000Y-97447000D02*
X194384000Y-95847000D01*
X194384000Y-95847000D02*
X190884000Y-95847000D01*
X190884000Y-95847000D02*
X190884000Y-97447000D01*
X194384000Y-116713000D02*
X194784000Y-116713000D01*
X190884000Y-116713000D02*
X190484000Y-116713000D01*
X191384000Y-117513000D02*
X191384000Y-115913000D01*
X190884000Y-117513000D02*
X194384000Y-117513000D01*
X194384000Y-117513000D02*
X194384000Y-115913000D01*
X194384000Y-115913000D02*
X190884000Y-115913000D01*
X190884000Y-115913000D02*
X190884000Y-117513000D01*
X154252000Y-116713000D02*
X154652000Y-116713000D01*
X150752000Y-116713000D02*
X150352000Y-116713000D01*
X151252000Y-117513000D02*
X151252000Y-115913000D01*
X150752000Y-117513000D02*
X154252000Y-117513000D01*
X154252000Y-117513000D02*
X154252000Y-115913000D01*
X154252000Y-115913000D02*
X150752000Y-115913000D01*
X150752000Y-115913000D02*
X150752000Y-117513000D01*
X174318000Y-116713000D02*
X174718000Y-116713000D01*
X170818000Y-116713000D02*
X170418000Y-116713000D01*
X171318000Y-117513000D02*
X171318000Y-115913000D01*
X170818000Y-117513000D02*
X174318000Y-117513000D01*
X174318000Y-117513000D02*
X174318000Y-115913000D01*
X174318000Y-115913000D02*
X170818000Y-115913000D01*
X170818000Y-115913000D02*
X170818000Y-117513000D01*
X134186000Y-116713000D02*
X134586000Y-116713000D01*
X130686000Y-116713000D02*
X130286000Y-116713000D01*
X131186000Y-117513000D02*
X131186000Y-115913000D01*
X130686000Y-117513000D02*
X134186000Y-117513000D01*
X134186000Y-117513000D02*
X134186000Y-115913000D01*
X134186000Y-115913000D02*
X130686000Y-115913000D01*
X130686000Y-115913000D02*
X130686000Y-117513000D01*
X114120000Y-116713000D02*
X114520000Y-116713000D01*
X110620000Y-116713000D02*
X110220000Y-116713000D01*
X111120000Y-117513000D02*
X111120000Y-115913000D01*
X110620000Y-117513000D02*
X114120000Y-117513000D01*
X114120000Y-117513000D02*
X114120000Y-115913000D01*
X114120000Y-115913000D02*
X110620000Y-115913000D01*
X110620000Y-115913000D02*
X110620000Y-117513000D01*
X114120000Y-76581000D02*
X114520000Y-76581000D01*
X110620000Y-76581000D02*
X110220000Y-76581000D01*
X111120000Y-77381000D02*
X111120000Y-75781000D01*
X110620000Y-77381000D02*
X114120000Y-77381000D01*
X114120000Y-77381000D02*
X114120000Y-75781000D01*
X114120000Y-75781000D02*
X110620000Y-75781000D01*
X110620000Y-75781000D02*
X110620000Y-77381000D01*
X134186000Y-76581000D02*
X134586000Y-76581000D01*
X130686000Y-76581000D02*
X130286000Y-76581000D01*
X131186000Y-77381000D02*
X131186000Y-75781000D01*
X130686000Y-77381000D02*
X134186000Y-77381000D01*
X134186000Y-77381000D02*
X134186000Y-75781000D01*
X134186000Y-75781000D02*
X130686000Y-75781000D01*
X130686000Y-75781000D02*
X130686000Y-77381000D01*
X174318000Y-76581000D02*
X174718000Y-76581000D01*
X170818000Y-76581000D02*
X170418000Y-76581000D01*
X171318000Y-77381000D02*
X171318000Y-75781000D01*
X170818000Y-77381000D02*
X174318000Y-77381000D01*
X174318000Y-77381000D02*
X174318000Y-75781000D01*
X174318000Y-75781000D02*
X170818000Y-75781000D01*
X170818000Y-75781000D02*
X170818000Y-77381000D01*
X154252000Y-76581000D02*
X154652000Y-76581000D01*
X150752000Y-76581000D02*
X150352000Y-76581000D01*
X151252000Y-77381000D02*
X151252000Y-75781000D01*
X150752000Y-77381000D02*
X154252000Y-77381000D01*
X154252000Y-77381000D02*
X154252000Y-75781000D01*
X154252000Y-75781000D02*
X150752000Y-75781000D01*
X150752000Y-75781000D02*
X150752000Y-77381000D01*
X194384000Y-76581000D02*
X194784000Y-76581000D01*
X190884000Y-76581000D02*
X190484000Y-76581000D01*
X191384000Y-77381000D02*
X191384000Y-75781000D01*
X190884000Y-77381000D02*
X194384000Y-77381000D01*
X194384000Y-77381000D02*
X194384000Y-75781000D01*
X194384000Y-75781000D02*
X190884000Y-75781000D01*
X190884000Y-75781000D02*
X190884000Y-77381000D01*
X194384000Y-56515000D02*
X194784000Y-56515000D01*
X190884000Y-56515000D02*
X190484000Y-56515000D01*
X191384000Y-57315000D02*
X191384000Y-55715000D01*
X190884000Y-57315000D02*
X194384000Y-57315000D01*
X194384000Y-57315000D02*
X194384000Y-55715000D01*
X194384000Y-55715000D02*
X190884000Y-55715000D01*
X190884000Y-55715000D02*
X190884000Y-57315000D01*
X154252000Y-56515000D02*
X154652000Y-56515000D01*
X150752000Y-56515000D02*
X150352000Y-56515000D01*
X151252000Y-57315000D02*
X151252000Y-55715000D01*
X150752000Y-57315000D02*
X154252000Y-57315000D01*
X154252000Y-57315000D02*
X154252000Y-55715000D01*
X154252000Y-55715000D02*
X150752000Y-55715000D01*
X150752000Y-55715000D02*
X150752000Y-57315000D01*
X174318000Y-56515000D02*
X174718000Y-56515000D01*
X170818000Y-56515000D02*
X170418000Y-56515000D01*
X171318000Y-57315000D02*
X171318000Y-55715000D01*
X170818000Y-57315000D02*
X174318000Y-57315000D01*
X174318000Y-57315000D02*
X174318000Y-55715000D01*
X174318000Y-55715000D02*
X170818000Y-55715000D01*
X170818000Y-55715000D02*
X170818000Y-57315000D01*
X134186000Y-56515000D02*
X134586000Y-56515000D01*
X130686000Y-56515000D02*
X130286000Y-56515000D01*
X131186000Y-57315000D02*
X131186000Y-55715000D01*
X130686000Y-57315000D02*
X134186000Y-57315000D01*
X134186000Y-57315000D02*
X134186000Y-55715000D01*
X134186000Y-55715000D02*
X130686000Y-55715000D01*
X130686000Y-55715000D02*
X130686000Y-57315000D01*
X114120000Y-56515000D02*
X114520000Y-56515000D01*
X110620000Y-56515000D02*
X110220000Y-56515000D01*
X111120000Y-57315000D02*
X111120000Y-55715000D01*
X110620000Y-57315000D02*
X114120000Y-57315000D01*
X114120000Y-57315000D02*
X114120000Y-55715000D01*
X114120000Y-55715000D02*
X110620000Y-55715000D01*
X110620000Y-55715000D02*
X110620000Y-57315000D01*
X113260095Y-137231381D02*
X113260095Y-136231381D01*
X113022000Y-136231381D01*
X112879142Y-136279000D01*
X112783904Y-136374238D01*
X112736285Y-136469476D01*
X112688666Y-136659952D01*
X112688666Y-136802810D01*
X112736285Y-136993286D01*
X112783904Y-137088524D01*
X112879142Y-137183762D01*
X113022000Y-137231381D01*
X113260095Y-137231381D01*
X111736285Y-137231381D02*
X112307714Y-137231381D01*
X112022000Y-137231381D02*
X112022000Y-136231381D01*
X112117238Y-136374238D01*
X112212476Y-136469476D01*
X112307714Y-136517095D01*
X133326095Y-137231381D02*
X133326095Y-136231381D01*
X133088000Y-136231381D01*
X132945142Y-136279000D01*
X132849904Y-136374238D01*
X132802285Y-136469476D01*
X132754666Y-136659952D01*
X132754666Y-136802810D01*
X132802285Y-136993286D01*
X132849904Y-137088524D01*
X132945142Y-137183762D01*
X133088000Y-137231381D01*
X133326095Y-137231381D01*
X131802285Y-137231381D02*
X132373714Y-137231381D01*
X132088000Y-137231381D02*
X132088000Y-136231381D01*
X132183238Y-136374238D01*
X132278476Y-136469476D01*
X132373714Y-136517095D01*
X173458095Y-137231381D02*
X173458095Y-136231381D01*
X173220000Y-136231381D01*
X173077142Y-136279000D01*
X172981904Y-136374238D01*
X172934285Y-136469476D01*
X172886666Y-136659952D01*
X172886666Y-136802810D01*
X172934285Y-136993286D01*
X172981904Y-137088524D01*
X173077142Y-137183762D01*
X173220000Y-137231381D01*
X173458095Y-137231381D01*
X171934285Y-137231381D02*
X172505714Y-137231381D01*
X172220000Y-137231381D02*
X172220000Y-136231381D01*
X172315238Y-136374238D01*
X172410476Y-136469476D01*
X172505714Y-136517095D01*
X153392095Y-137231381D02*
X153392095Y-136231381D01*
X153154000Y-136231381D01*
X153011142Y-136279000D01*
X152915904Y-136374238D01*
X152868285Y-136469476D01*
X152820666Y-136659952D01*
X152820666Y-136802810D01*
X152868285Y-136993286D01*
X152915904Y-137088524D01*
X153011142Y-137183762D01*
X153154000Y-137231381D01*
X153392095Y-137231381D01*
X151868285Y-137231381D02*
X152439714Y-137231381D01*
X152154000Y-137231381D02*
X152154000Y-136231381D01*
X152249238Y-136374238D01*
X152344476Y-136469476D01*
X152439714Y-136517095D01*
X193524095Y-137231381D02*
X193524095Y-136231381D01*
X193286000Y-136231381D01*
X193143142Y-136279000D01*
X193047904Y-136374238D01*
X193000285Y-136469476D01*
X192952666Y-136659952D01*
X192952666Y-136802810D01*
X193000285Y-136993286D01*
X193047904Y-137088524D01*
X193143142Y-137183762D01*
X193286000Y-137231381D01*
X193524095Y-137231381D01*
X192000285Y-137231381D02*
X192571714Y-137231381D01*
X192286000Y-137231381D02*
X192286000Y-136231381D01*
X192381238Y-136374238D01*
X192476476Y-136469476D01*
X192571714Y-136517095D01*
X113260095Y-97099381D02*
X113260095Y-96099381D01*
X113022000Y-96099381D01*
X112879142Y-96147000D01*
X112783904Y-96242238D01*
X112736285Y-96337476D01*
X112688666Y-96527952D01*
X112688666Y-96670810D01*
X112736285Y-96861286D01*
X112783904Y-96956524D01*
X112879142Y-97051762D01*
X113022000Y-97099381D01*
X113260095Y-97099381D01*
X111736285Y-97099381D02*
X112307714Y-97099381D01*
X112022000Y-97099381D02*
X112022000Y-96099381D01*
X112117238Y-96242238D01*
X112212476Y-96337476D01*
X112307714Y-96385095D01*
X133326095Y-97099381D02*
X133326095Y-96099381D01*
X133088000Y-96099381D01*
X132945142Y-96147000D01*
X132849904Y-96242238D01*
X132802285Y-96337476D01*
X132754666Y-96527952D01*
X132754666Y-96670810D01*
X132802285Y-96861286D01*
X132849904Y-96956524D01*
X132945142Y-97051762D01*
X133088000Y-97099381D01*
X133326095Y-97099381D01*
X131802285Y-97099381D02*
X132373714Y-97099381D01*
X132088000Y-97099381D02*
X132088000Y-96099381D01*
X132183238Y-96242238D01*
X132278476Y-96337476D01*
X132373714Y-96385095D01*
X173458095Y-97099381D02*
X173458095Y-96099381D01*
X173220000Y-96099381D01*
X173077142Y-96147000D01*
X172981904Y-96242238D01*
X172934285Y-96337476D01*
X172886666Y-96527952D01*
X172886666Y-96670810D01*
X172934285Y-96861286D01*
X172981904Y-96956524D01*
X173077142Y-97051762D01*
X173220000Y-97099381D01*
X173458095Y-97099381D01*
X171934285Y-97099381D02*
X172505714Y-97099381D01*
X172220000Y-97099381D02*
X172220000Y-96099381D01*
X172315238Y-96242238D01*
X172410476Y-96337476D01*
X172505714Y-96385095D01*
X153392095Y-97099381D02*
X153392095Y-96099381D01*
X153154000Y-96099381D01*
X153011142Y-96147000D01*
X152915904Y-96242238D01*
X152868285Y-96337476D01*
X152820666Y-96527952D01*
X152820666Y-96670810D01*
X152868285Y-96861286D01*
X152915904Y-96956524D01*
X153011142Y-97051762D01*
X153154000Y-97099381D01*
X153392095Y-97099381D01*
X151868285Y-97099381D02*
X152439714Y-97099381D01*
X152154000Y-97099381D02*
X152154000Y-96099381D01*
X152249238Y-96242238D01*
X152344476Y-96337476D01*
X152439714Y-96385095D01*
X193524095Y-97099381D02*
X193524095Y-96099381D01*
X193286000Y-96099381D01*
X193143142Y-96147000D01*
X193047904Y-96242238D01*
X193000285Y-96337476D01*
X192952666Y-96527952D01*
X192952666Y-96670810D01*
X193000285Y-96861286D01*
X193047904Y-96956524D01*
X193143142Y-97051762D01*
X193286000Y-97099381D01*
X193524095Y-97099381D01*
X192000285Y-97099381D02*
X192571714Y-97099381D01*
X192286000Y-97099381D02*
X192286000Y-96099381D01*
X192381238Y-96242238D01*
X192476476Y-96337476D01*
X192571714Y-96385095D01*
X193524095Y-117165381D02*
X193524095Y-116165381D01*
X193286000Y-116165381D01*
X193143142Y-116213000D01*
X193047904Y-116308238D01*
X193000285Y-116403476D01*
X192952666Y-116593952D01*
X192952666Y-116736810D01*
X193000285Y-116927286D01*
X193047904Y-117022524D01*
X193143142Y-117117762D01*
X193286000Y-117165381D01*
X193524095Y-117165381D01*
X192000285Y-117165381D02*
X192571714Y-117165381D01*
X192286000Y-117165381D02*
X192286000Y-116165381D01*
X192381238Y-116308238D01*
X192476476Y-116403476D01*
X192571714Y-116451095D01*
X153392095Y-117165381D02*
X153392095Y-116165381D01*
X153154000Y-116165381D01*
X153011142Y-116213000D01*
X152915904Y-116308238D01*
X152868285Y-116403476D01*
X152820666Y-116593952D01*
X152820666Y-116736810D01*
X152868285Y-116927286D01*
X152915904Y-117022524D01*
X153011142Y-117117762D01*
X153154000Y-117165381D01*
X153392095Y-117165381D01*
X151868285Y-117165381D02*
X152439714Y-117165381D01*
X152154000Y-117165381D02*
X152154000Y-116165381D01*
X152249238Y-116308238D01*
X152344476Y-116403476D01*
X152439714Y-116451095D01*
X173458095Y-117165381D02*
X173458095Y-116165381D01*
X173220000Y-116165381D01*
X173077142Y-116213000D01*
X172981904Y-116308238D01*
X172934285Y-116403476D01*
X172886666Y-116593952D01*
X172886666Y-116736810D01*
X172934285Y-116927286D01*
X172981904Y-117022524D01*
X173077142Y-117117762D01*
X173220000Y-117165381D01*
X173458095Y-117165381D01*
X171934285Y-117165381D02*
X172505714Y-117165381D01*
X172220000Y-117165381D02*
X172220000Y-116165381D01*
X172315238Y-116308238D01*
X172410476Y-116403476D01*
X172505714Y-116451095D01*
X133326095Y-117165381D02*
X133326095Y-116165381D01*
X133088000Y-116165381D01*
X132945142Y-116213000D01*
X132849904Y-116308238D01*
X132802285Y-116403476D01*
X132754666Y-116593952D01*
X132754666Y-116736810D01*
X132802285Y-116927286D01*
X132849904Y-117022524D01*
X132945142Y-117117762D01*
X133088000Y-117165381D01*
X133326095Y-117165381D01*
X131802285Y-117165381D02*
X132373714Y-117165381D01*
X132088000Y-117165381D02*
X132088000Y-116165381D01*
X132183238Y-116308238D01*
X132278476Y-116403476D01*
X132373714Y-116451095D01*
X113260095Y-117165381D02*
X113260095Y-116165381D01*
X113022000Y-116165381D01*
X112879142Y-116213000D01*
X112783904Y-116308238D01*
X112736285Y-116403476D01*
X112688666Y-116593952D01*
X112688666Y-116736810D01*
X112736285Y-116927286D01*
X112783904Y-117022524D01*
X112879142Y-117117762D01*
X113022000Y-117165381D01*
X113260095Y-117165381D01*
X111736285Y-117165381D02*
X112307714Y-117165381D01*
X112022000Y-117165381D02*
X112022000Y-116165381D01*
X112117238Y-116308238D01*
X112212476Y-116403476D01*
X112307714Y-116451095D01*
X113260095Y-77033381D02*
X113260095Y-76033381D01*
X113022000Y-76033381D01*
X112879142Y-76081000D01*
X112783904Y-76176238D01*
X112736285Y-76271476D01*
X112688666Y-76461952D01*
X112688666Y-76604810D01*
X112736285Y-76795286D01*
X112783904Y-76890524D01*
X112879142Y-76985762D01*
X113022000Y-77033381D01*
X113260095Y-77033381D01*
X111736285Y-77033381D02*
X112307714Y-77033381D01*
X112022000Y-77033381D02*
X112022000Y-76033381D01*
X112117238Y-76176238D01*
X112212476Y-76271476D01*
X112307714Y-76319095D01*
X133326095Y-77033381D02*
X133326095Y-76033381D01*
X133088000Y-76033381D01*
X132945142Y-76081000D01*
X132849904Y-76176238D01*
X132802285Y-76271476D01*
X132754666Y-76461952D01*
X132754666Y-76604810D01*
X132802285Y-76795286D01*
X132849904Y-76890524D01*
X132945142Y-76985762D01*
X133088000Y-77033381D01*
X133326095Y-77033381D01*
X131802285Y-77033381D02*
X132373714Y-77033381D01*
X132088000Y-77033381D02*
X132088000Y-76033381D01*
X132183238Y-76176238D01*
X132278476Y-76271476D01*
X132373714Y-76319095D01*
X173458095Y-77033381D02*
X173458095Y-76033381D01*
X173220000Y-76033381D01*
X173077142Y-76081000D01*
X172981904Y-76176238D01*
X172934285Y-76271476D01*
X172886666Y-76461952D01*
X172886666Y-76604810D01*
X172934285Y-76795286D01*
X172981904Y-76890524D01*
X173077142Y-76985762D01*
X173220000Y-77033381D01*
X173458095Y-77033381D01*
X171934285Y-77033381D02*
X172505714Y-77033381D01*
X172220000Y-77033381D02*
X172220000Y-76033381D01*
X172315238Y-76176238D01*
X172410476Y-76271476D01*
X172505714Y-76319095D01*
X153392095Y-77033381D02*
X153392095Y-76033381D01*
X153154000Y-76033381D01*
X153011142Y-76081000D01*
X152915904Y-76176238D01*
X152868285Y-76271476D01*
X152820666Y-76461952D01*
X152820666Y-76604810D01*
X152868285Y-76795286D01*
X152915904Y-76890524D01*
X153011142Y-76985762D01*
X153154000Y-77033381D01*
X153392095Y-77033381D01*
X151868285Y-77033381D02*
X152439714Y-77033381D01*
X152154000Y-77033381D02*
X152154000Y-76033381D01*
X152249238Y-76176238D01*
X152344476Y-76271476D01*
X152439714Y-76319095D01*
X193524095Y-77033381D02*
X193524095Y-76033381D01*
X193286000Y-76033381D01*
X193143142Y-76081000D01*
X193047904Y-76176238D01*
X193000285Y-76271476D01*
X192952666Y-76461952D01*
X192952666Y-76604810D01*
X193000285Y-76795286D01*
X193047904Y-76890524D01*
X193143142Y-76985762D01*
X193286000Y-77033381D01*
X193524095Y-77033381D01*
X192000285Y-77033381D02*
X192571714Y-77033381D01*
X192286000Y-77033381D02*
X192286000Y-76033381D01*
X192381238Y-76176238D01*
X192476476Y-76271476D01*
X192571714Y-76319095D01*
X193524095Y-56967381D02*
X193524095Y-55967381D01*
X193286000Y-55967381D01*
X193143142Y-56015000D01*
X193047904Y-56110238D01*
X193000285Y-56205476D01*
X192952666Y-56395952D01*
X192952666Y-56538810D01*
X193000285Y-56729286D01*
X193047904Y-56824524D01*
X193143142Y-56919762D01*
X193286000Y-56967381D01*
X193524095Y-56967381D01*
X192000285Y-56967381D02*
X192571714Y-56967381D01*
X192286000Y-56967381D02*
X192286000Y-55967381D01*
X192381238Y-56110238D01*
X192476476Y-56205476D01*
X192571714Y-56253095D01*
X153392095Y-56967381D02*
X153392095Y-55967381D01*
X153154000Y-55967381D01*
X153011142Y-56015000D01*
X152915904Y-56110238D01*
X152868285Y-56205476D01*
X152820666Y-56395952D01*
X152820666Y-56538810D01*
X152868285Y-56729286D01*
X152915904Y-56824524D01*
X153011142Y-56919762D01*
X153154000Y-56967381D01*
X153392095Y-56967381D01*
X151868285Y-56967381D02*
X152439714Y-56967381D01*
X152154000Y-56967381D02*
X152154000Y-55967381D01*
X152249238Y-56110238D01*
X152344476Y-56205476D01*
X152439714Y-56253095D01*
X173458095Y-56967381D02*
X173458095Y-55967381D01*
X173220000Y-55967381D01*
X173077142Y-56015000D01*
X172981904Y-56110238D01*
X172934285Y-56205476D01*
X172886666Y-56395952D01*
X172886666Y-56538810D01*
X172934285Y-56729286D01*
X172981904Y-56824524D01*
X173077142Y-56919762D01*
X173220000Y-56967381D01*
X173458095Y-56967381D01*
X171934285Y-56967381D02*
X172505714Y-56967381D01*
X172220000Y-56967381D02*
X172220000Y-55967381D01*
X172315238Y-56110238D01*
X172410476Y-56205476D01*
X172505714Y-56253095D01*
X133326095Y-56967381D02*
X133326095Y-55967381D01*
X133088000Y-55967381D01*
X132945142Y-56015000D01*
X132849904Y-56110238D01*
X132802285Y-56205476D01*
X132754666Y-56395952D01*
X132754666Y-56538810D01*
X132802285Y-56729286D01*
X132849904Y-56824524D01*
X132945142Y-56919762D01*
X133088000Y-56967381D01*
X133326095Y-56967381D01*
X131802285Y-56967381D02*
X132373714Y-56967381D01*
X132088000Y-56967381D02*
X132088000Y-55967381D01*
X132183238Y-56110238D01*
X132278476Y-56205476D01*
X132373714Y-56253095D01*
X113260095Y-56967381D02*
X113260095Y-55967381D01*
X113022000Y-55967381D01*
X112879142Y-56015000D01*
X112783904Y-56110238D01*
X112736285Y-56205476D01*
X112688666Y-56395952D01*
X112688666Y-56538810D01*
X112736285Y-56729286D01*
X112783904Y-56824524D01*
X112879142Y-56919762D01*
X113022000Y-56967381D01*
X113260095Y-56967381D01*
X111736285Y-56967381D02*
X112307714Y-56967381D01*
X112022000Y-56967381D02*
X112022000Y-55967381D01*
X112117238Y-56110238D01*
X112212476Y-56205476D01*
X112307714Y-56253095D01*
%LPC*%
D12*
X113665000Y-144399000D03*
D13*
X111125000Y-139319000D03*
D14*
X108585000Y-144399000D03*
D13*
X104775000Y-141859000D03*
D12*
X103505000Y-144399000D03*
D15*
X109855000Y-149479000D03*
X107315000Y-149479000D03*
D16*
X101400000Y-146939000D03*
X101400000Y-141859000D03*
X115770000Y-141859000D03*
X115770000Y-146939000D03*
D17*
X111125000Y-151584000D03*
X115570000Y-151584000D03*
X101600000Y-151584000D03*
X106045000Y-151584000D03*
X101600000Y-137214000D03*
X106045000Y-137214000D03*
D18*
X115570000Y-136779000D03*
D19*
X109220000Y-136779000D03*
D18*
X135636000Y-136779000D03*
D19*
X129286000Y-136779000D03*
D17*
X126111000Y-137214000D03*
X121666000Y-137214000D03*
X126111000Y-151584000D03*
X121666000Y-151584000D03*
X135636000Y-151584000D03*
X131191000Y-151584000D03*
D16*
X135836000Y-146939000D03*
X135836000Y-141859000D03*
X121466000Y-141859000D03*
X121466000Y-146939000D03*
D12*
X133731000Y-144399000D03*
D13*
X131191000Y-139319000D03*
D14*
X128651000Y-144399000D03*
D13*
X124841000Y-141859000D03*
D12*
X123571000Y-144399000D03*
D15*
X129921000Y-149479000D03*
X127381000Y-149479000D03*
D12*
X173863000Y-144399000D03*
D13*
X171323000Y-139319000D03*
D14*
X168783000Y-144399000D03*
D13*
X164973000Y-141859000D03*
D12*
X163703000Y-144399000D03*
D15*
X170053000Y-149479000D03*
X167513000Y-149479000D03*
D16*
X161598000Y-146939000D03*
X161598000Y-141859000D03*
X175968000Y-141859000D03*
X175968000Y-146939000D03*
D17*
X171323000Y-151584000D03*
X175768000Y-151584000D03*
X161798000Y-151584000D03*
X166243000Y-151584000D03*
X161798000Y-137214000D03*
X166243000Y-137214000D03*
D18*
X175768000Y-136779000D03*
D19*
X169418000Y-136779000D03*
D18*
X155702000Y-136779000D03*
D19*
X149352000Y-136779000D03*
D17*
X146177000Y-137214000D03*
X141732000Y-137214000D03*
X146177000Y-151584000D03*
X141732000Y-151584000D03*
X155702000Y-151584000D03*
X151257000Y-151584000D03*
D16*
X155902000Y-146939000D03*
X155902000Y-141859000D03*
X141532000Y-141859000D03*
X141532000Y-146939000D03*
D12*
X153797000Y-144399000D03*
D13*
X151257000Y-139319000D03*
D14*
X148717000Y-144399000D03*
D13*
X144907000Y-141859000D03*
D12*
X143637000Y-144399000D03*
D15*
X149987000Y-149479000D03*
X147447000Y-149479000D03*
D18*
X195834000Y-136779000D03*
D19*
X189484000Y-136779000D03*
D17*
X186309000Y-137214000D03*
X181864000Y-137214000D03*
X186309000Y-151584000D03*
X181864000Y-151584000D03*
X195834000Y-151584000D03*
X191389000Y-151584000D03*
D16*
X196034000Y-146939000D03*
X196034000Y-141859000D03*
X181664000Y-141859000D03*
X181664000Y-146939000D03*
D12*
X193929000Y-144399000D03*
D13*
X191389000Y-139319000D03*
D14*
X188849000Y-144399000D03*
D13*
X185039000Y-141859000D03*
D12*
X183769000Y-144399000D03*
D15*
X190119000Y-149479000D03*
X187579000Y-149479000D03*
D12*
X113665000Y-104267000D03*
D13*
X111125000Y-99187000D03*
D14*
X108585000Y-104267000D03*
D13*
X104775000Y-101727000D03*
D12*
X103505000Y-104267000D03*
D15*
X109855000Y-109347000D03*
X107315000Y-109347000D03*
D16*
X101400000Y-106807000D03*
X101400000Y-101727000D03*
X115770000Y-101727000D03*
X115770000Y-106807000D03*
D17*
X111125000Y-111452000D03*
X115570000Y-111452000D03*
X101600000Y-111452000D03*
X106045000Y-111452000D03*
X101600000Y-97082000D03*
X106045000Y-97082000D03*
D18*
X115570000Y-96647000D03*
D19*
X109220000Y-96647000D03*
D18*
X135636000Y-96647000D03*
D19*
X129286000Y-96647000D03*
D17*
X126111000Y-97082000D03*
X121666000Y-97082000D03*
X126111000Y-111452000D03*
X121666000Y-111452000D03*
X135636000Y-111452000D03*
X131191000Y-111452000D03*
D16*
X135836000Y-106807000D03*
X135836000Y-101727000D03*
X121466000Y-101727000D03*
X121466000Y-106807000D03*
D12*
X133731000Y-104267000D03*
D13*
X131191000Y-99187000D03*
D14*
X128651000Y-104267000D03*
D13*
X124841000Y-101727000D03*
D12*
X123571000Y-104267000D03*
D15*
X129921000Y-109347000D03*
X127381000Y-109347000D03*
D12*
X173863000Y-104267000D03*
D13*
X171323000Y-99187000D03*
D14*
X168783000Y-104267000D03*
D13*
X164973000Y-101727000D03*
D12*
X163703000Y-104267000D03*
D15*
X170053000Y-109347000D03*
X167513000Y-109347000D03*
D16*
X161598000Y-106807000D03*
X161598000Y-101727000D03*
X175968000Y-101727000D03*
X175968000Y-106807000D03*
D17*
X171323000Y-111452000D03*
X175768000Y-111452000D03*
X161798000Y-111452000D03*
X166243000Y-111452000D03*
X161798000Y-97082000D03*
X166243000Y-97082000D03*
D18*
X175768000Y-96647000D03*
D19*
X169418000Y-96647000D03*
D18*
X155702000Y-96647000D03*
D19*
X149352000Y-96647000D03*
D17*
X146177000Y-97082000D03*
X141732000Y-97082000D03*
X146177000Y-111452000D03*
X141732000Y-111452000D03*
X155702000Y-111452000D03*
X151257000Y-111452000D03*
D16*
X155902000Y-106807000D03*
X155902000Y-101727000D03*
X141532000Y-101727000D03*
X141532000Y-106807000D03*
D12*
X153797000Y-104267000D03*
D13*
X151257000Y-99187000D03*
D14*
X148717000Y-104267000D03*
D13*
X144907000Y-101727000D03*
D12*
X143637000Y-104267000D03*
D15*
X149987000Y-109347000D03*
X147447000Y-109347000D03*
D18*
X195834000Y-96647000D03*
D19*
X189484000Y-96647000D03*
D17*
X186309000Y-97082000D03*
X181864000Y-97082000D03*
X186309000Y-111452000D03*
X181864000Y-111452000D03*
X195834000Y-111452000D03*
X191389000Y-111452000D03*
D16*
X196034000Y-106807000D03*
X196034000Y-101727000D03*
X181664000Y-101727000D03*
X181664000Y-106807000D03*
D12*
X193929000Y-104267000D03*
D13*
X191389000Y-99187000D03*
D14*
X188849000Y-104267000D03*
D13*
X185039000Y-101727000D03*
D12*
X183769000Y-104267000D03*
D15*
X190119000Y-109347000D03*
X187579000Y-109347000D03*
D12*
X193929000Y-124333000D03*
D13*
X191389000Y-119253000D03*
D14*
X188849000Y-124333000D03*
D13*
X185039000Y-121793000D03*
D12*
X183769000Y-124333000D03*
D15*
X190119000Y-129413000D03*
X187579000Y-129413000D03*
D16*
X181664000Y-126873000D03*
X181664000Y-121793000D03*
X196034000Y-121793000D03*
X196034000Y-126873000D03*
D17*
X191389000Y-131518000D03*
X195834000Y-131518000D03*
X181864000Y-131518000D03*
X186309000Y-131518000D03*
X181864000Y-117148000D03*
X186309000Y-117148000D03*
D18*
X195834000Y-116713000D03*
D19*
X189484000Y-116713000D03*
D12*
X153797000Y-124333000D03*
D13*
X151257000Y-119253000D03*
D14*
X148717000Y-124333000D03*
D13*
X144907000Y-121793000D03*
D12*
X143637000Y-124333000D03*
D15*
X149987000Y-129413000D03*
X147447000Y-129413000D03*
D16*
X141532000Y-126873000D03*
X141532000Y-121793000D03*
X155902000Y-121793000D03*
X155902000Y-126873000D03*
D17*
X151257000Y-131518000D03*
X155702000Y-131518000D03*
X141732000Y-131518000D03*
X146177000Y-131518000D03*
X141732000Y-117148000D03*
X146177000Y-117148000D03*
D18*
X155702000Y-116713000D03*
D19*
X149352000Y-116713000D03*
D18*
X175768000Y-116713000D03*
D19*
X169418000Y-116713000D03*
D17*
X166243000Y-117148000D03*
X161798000Y-117148000D03*
X166243000Y-131518000D03*
X161798000Y-131518000D03*
X175768000Y-131518000D03*
X171323000Y-131518000D03*
D16*
X175968000Y-126873000D03*
X175968000Y-121793000D03*
X161598000Y-121793000D03*
X161598000Y-126873000D03*
D12*
X173863000Y-124333000D03*
D13*
X171323000Y-119253000D03*
D14*
X168783000Y-124333000D03*
D13*
X164973000Y-121793000D03*
D12*
X163703000Y-124333000D03*
D15*
X170053000Y-129413000D03*
X167513000Y-129413000D03*
D12*
X133731000Y-124333000D03*
D13*
X131191000Y-119253000D03*
D14*
X128651000Y-124333000D03*
D13*
X124841000Y-121793000D03*
D12*
X123571000Y-124333000D03*
D15*
X129921000Y-129413000D03*
X127381000Y-129413000D03*
D16*
X121466000Y-126873000D03*
X121466000Y-121793000D03*
X135836000Y-121793000D03*
X135836000Y-126873000D03*
D17*
X131191000Y-131518000D03*
X135636000Y-131518000D03*
X121666000Y-131518000D03*
X126111000Y-131518000D03*
X121666000Y-117148000D03*
X126111000Y-117148000D03*
D18*
X135636000Y-116713000D03*
D19*
X129286000Y-116713000D03*
D18*
X115570000Y-116713000D03*
D19*
X109220000Y-116713000D03*
D17*
X106045000Y-117148000D03*
X101600000Y-117148000D03*
X106045000Y-131518000D03*
X101600000Y-131518000D03*
X115570000Y-131518000D03*
X111125000Y-131518000D03*
D16*
X115770000Y-126873000D03*
X115770000Y-121793000D03*
X101400000Y-121793000D03*
X101400000Y-126873000D03*
D12*
X113665000Y-124333000D03*
D13*
X111125000Y-119253000D03*
D14*
X108585000Y-124333000D03*
D13*
X104775000Y-121793000D03*
D12*
X103505000Y-124333000D03*
D15*
X109855000Y-129413000D03*
X107315000Y-129413000D03*
D12*
X113665000Y-84201000D03*
D13*
X111125000Y-79121000D03*
D14*
X108585000Y-84201000D03*
D13*
X104775000Y-81661000D03*
D12*
X103505000Y-84201000D03*
D15*
X109855000Y-89281000D03*
X107315000Y-89281000D03*
D16*
X101400000Y-86741000D03*
X101400000Y-81661000D03*
X115770000Y-81661000D03*
X115770000Y-86741000D03*
D17*
X111125000Y-91386000D03*
X115570000Y-91386000D03*
X101600000Y-91386000D03*
X106045000Y-91386000D03*
X101600000Y-77016000D03*
X106045000Y-77016000D03*
D18*
X115570000Y-76581000D03*
D19*
X109220000Y-76581000D03*
D18*
X135636000Y-76581000D03*
D19*
X129286000Y-76581000D03*
D17*
X126111000Y-77016000D03*
X121666000Y-77016000D03*
X126111000Y-91386000D03*
X121666000Y-91386000D03*
X135636000Y-91386000D03*
X131191000Y-91386000D03*
D16*
X135836000Y-86741000D03*
X135836000Y-81661000D03*
X121466000Y-81661000D03*
X121466000Y-86741000D03*
D12*
X133731000Y-84201000D03*
D13*
X131191000Y-79121000D03*
D14*
X128651000Y-84201000D03*
D13*
X124841000Y-81661000D03*
D12*
X123571000Y-84201000D03*
D15*
X129921000Y-89281000D03*
X127381000Y-89281000D03*
D12*
X173863000Y-84201000D03*
D13*
X171323000Y-79121000D03*
D14*
X168783000Y-84201000D03*
D13*
X164973000Y-81661000D03*
D12*
X163703000Y-84201000D03*
D15*
X170053000Y-89281000D03*
X167513000Y-89281000D03*
D16*
X161598000Y-86741000D03*
X161598000Y-81661000D03*
X175968000Y-81661000D03*
X175968000Y-86741000D03*
D17*
X171323000Y-91386000D03*
X175768000Y-91386000D03*
X161798000Y-91386000D03*
X166243000Y-91386000D03*
X161798000Y-77016000D03*
X166243000Y-77016000D03*
D18*
X175768000Y-76581000D03*
D19*
X169418000Y-76581000D03*
D18*
X155702000Y-76581000D03*
D19*
X149352000Y-76581000D03*
D17*
X146177000Y-77016000D03*
X141732000Y-77016000D03*
X146177000Y-91386000D03*
X141732000Y-91386000D03*
X155702000Y-91386000D03*
X151257000Y-91386000D03*
D16*
X155902000Y-86741000D03*
X155902000Y-81661000D03*
X141532000Y-81661000D03*
X141532000Y-86741000D03*
D12*
X153797000Y-84201000D03*
D13*
X151257000Y-79121000D03*
D14*
X148717000Y-84201000D03*
D13*
X144907000Y-81661000D03*
D12*
X143637000Y-84201000D03*
D15*
X149987000Y-89281000D03*
X147447000Y-89281000D03*
D18*
X195834000Y-76581000D03*
D19*
X189484000Y-76581000D03*
D17*
X186309000Y-77016000D03*
X181864000Y-77016000D03*
X186309000Y-91386000D03*
X181864000Y-91386000D03*
X195834000Y-91386000D03*
X191389000Y-91386000D03*
D16*
X196034000Y-86741000D03*
X196034000Y-81661000D03*
X181664000Y-81661000D03*
X181664000Y-86741000D03*
D12*
X193929000Y-84201000D03*
D13*
X191389000Y-79121000D03*
D14*
X188849000Y-84201000D03*
D13*
X185039000Y-81661000D03*
D12*
X183769000Y-84201000D03*
D15*
X190119000Y-89281000D03*
X187579000Y-89281000D03*
D12*
X193929000Y-64135000D03*
D13*
X191389000Y-59055000D03*
D14*
X188849000Y-64135000D03*
D13*
X185039000Y-61595000D03*
D12*
X183769000Y-64135000D03*
D15*
X190119000Y-69215000D03*
X187579000Y-69215000D03*
D16*
X181664000Y-66675000D03*
X181664000Y-61595000D03*
X196034000Y-61595000D03*
X196034000Y-66675000D03*
D17*
X191389000Y-71320000D03*
X195834000Y-71320000D03*
X181864000Y-71320000D03*
X186309000Y-71320000D03*
X181864000Y-56950000D03*
X186309000Y-56950000D03*
D18*
X195834000Y-56515000D03*
D19*
X189484000Y-56515000D03*
D12*
X153797000Y-64135000D03*
D13*
X151257000Y-59055000D03*
D14*
X148717000Y-64135000D03*
D13*
X144907000Y-61595000D03*
D12*
X143637000Y-64135000D03*
D15*
X149987000Y-69215000D03*
X147447000Y-69215000D03*
D16*
X141532000Y-66675000D03*
X141532000Y-61595000D03*
X155902000Y-61595000D03*
X155902000Y-66675000D03*
D17*
X151257000Y-71320000D03*
X155702000Y-71320000D03*
X141732000Y-71320000D03*
X146177000Y-71320000D03*
X141732000Y-56950000D03*
X146177000Y-56950000D03*
D18*
X155702000Y-56515000D03*
D19*
X149352000Y-56515000D03*
D18*
X175768000Y-56515000D03*
D19*
X169418000Y-56515000D03*
D17*
X166243000Y-56950000D03*
X161798000Y-56950000D03*
X166243000Y-71320000D03*
X161798000Y-71320000D03*
X175768000Y-71320000D03*
X171323000Y-71320000D03*
D16*
X175968000Y-66675000D03*
X175968000Y-61595000D03*
X161598000Y-61595000D03*
X161598000Y-66675000D03*
D12*
X173863000Y-64135000D03*
D13*
X171323000Y-59055000D03*
D14*
X168783000Y-64135000D03*
D13*
X164973000Y-61595000D03*
D12*
X163703000Y-64135000D03*
D15*
X170053000Y-69215000D03*
X167513000Y-69215000D03*
D12*
X133731000Y-64135000D03*
D13*
X131191000Y-59055000D03*
D14*
X128651000Y-64135000D03*
D13*
X124841000Y-61595000D03*
D12*
X123571000Y-64135000D03*
D15*
X129921000Y-69215000D03*
X127381000Y-69215000D03*
D16*
X121466000Y-66675000D03*
X121466000Y-61595000D03*
X135836000Y-61595000D03*
X135836000Y-66675000D03*
D17*
X131191000Y-71320000D03*
X135636000Y-71320000D03*
X121666000Y-71320000D03*
X126111000Y-71320000D03*
X121666000Y-56950000D03*
X126111000Y-56950000D03*
D18*
X135636000Y-56515000D03*
D19*
X129286000Y-56515000D03*
D18*
X115570000Y-56515000D03*
D19*
X109220000Y-56515000D03*
D17*
X106045000Y-56950000D03*
X101600000Y-56950000D03*
X106045000Y-71320000D03*
X101600000Y-71320000D03*
X115570000Y-71320000D03*
X111125000Y-71320000D03*
D16*
X115770000Y-66675000D03*
X115770000Y-61595000D03*
X101400000Y-61595000D03*
X101400000Y-66675000D03*
D12*
X113665000Y-64135000D03*
D13*
X111125000Y-59055000D03*
D14*
X108585000Y-64135000D03*
D13*
X104775000Y-61595000D03*
D12*
X103505000Y-64135000D03*
D15*
X109855000Y-69215000D03*
X107315000Y-69215000D03*
M02*
