G04 #@! TF.FileFunction,Legend,Top*
%FSLAX46Y46*%
G04 Gerber Fmt 4.6, Leading zero omitted, Abs format (unit mm)*
G04 Created by KiCad (PCBNEW 4.0.2-stable) date 2016/07/17 14:51:38*
%MOMM*%
G01*
G04 APERTURE LIST*
%ADD10C,0.100000*%
%ADD11C,0.200000*%
%ADD12C,0.150000*%
%ADD13C,1.710000*%
%ADD14C,2.500000*%
%ADD15C,4.000000*%
%ADD16C,0.800000*%
%ADD17O,1.600000X1.800000*%
%ADD18O,1.800000X1.600000*%
%ADD19C,1.400000*%
%ADD20R,1.400000X1.400000*%
G04 APERTURE END LIST*
D10*
D11*
X99060000Y-134366000D02*
X198374000Y-134366000D01*
X99060000Y-114300000D02*
X198374000Y-114300000D01*
X99060000Y-94234000D02*
X198374000Y-94234000D01*
X99060000Y-74168000D02*
X198374000Y-74168000D01*
X178816000Y-54610000D02*
X178816000Y-153924000D01*
X158750000Y-153924000D02*
X158750000Y-54610000D01*
X138684000Y-54610000D02*
X138684000Y-153924000D01*
X118618000Y-153924000D02*
X118618000Y-54610000D01*
D12*
X102085000Y-137899000D02*
X115085000Y-137899000D01*
X115085000Y-137899000D02*
X115085000Y-150899000D01*
X115085000Y-150899000D02*
X102085000Y-150899000D01*
X102085000Y-150899000D02*
X102085000Y-137899000D01*
D11*
X114119200Y-135979000D02*
X114119200Y-137579000D01*
X110619200Y-135979000D02*
X114119200Y-135979000D01*
X110619200Y-137579000D02*
X110619200Y-135979000D01*
X114119200Y-137579000D02*
X110619200Y-137579000D01*
X111119840Y-137579000D02*
X111119840Y-135979000D01*
X114119200Y-136779000D02*
X114519200Y-136779000D01*
X110619200Y-136779000D02*
X110219200Y-136779000D01*
X134185200Y-135979000D02*
X134185200Y-137579000D01*
X130685200Y-135979000D02*
X134185200Y-135979000D01*
X130685200Y-137579000D02*
X130685200Y-135979000D01*
X134185200Y-137579000D02*
X130685200Y-137579000D01*
X131185840Y-137579000D02*
X131185840Y-135979000D01*
X134185200Y-136779000D02*
X134585200Y-136779000D01*
X130685200Y-136779000D02*
X130285200Y-136779000D01*
D12*
X122151000Y-137899000D02*
X135151000Y-137899000D01*
X135151000Y-137899000D02*
X135151000Y-150899000D01*
X135151000Y-150899000D02*
X122151000Y-150899000D01*
X122151000Y-150899000D02*
X122151000Y-137899000D01*
X162283000Y-137899000D02*
X175283000Y-137899000D01*
X175283000Y-137899000D02*
X175283000Y-150899000D01*
X175283000Y-150899000D02*
X162283000Y-150899000D01*
X162283000Y-150899000D02*
X162283000Y-137899000D01*
D11*
X174317200Y-135979000D02*
X174317200Y-137579000D01*
X170817200Y-135979000D02*
X174317200Y-135979000D01*
X170817200Y-137579000D02*
X170817200Y-135979000D01*
X174317200Y-137579000D02*
X170817200Y-137579000D01*
X171317840Y-137579000D02*
X171317840Y-135979000D01*
X174317200Y-136779000D02*
X174717200Y-136779000D01*
X170817200Y-136779000D02*
X170417200Y-136779000D01*
X154251200Y-135979000D02*
X154251200Y-137579000D01*
X150751200Y-135979000D02*
X154251200Y-135979000D01*
X150751200Y-137579000D02*
X150751200Y-135979000D01*
X154251200Y-137579000D02*
X150751200Y-137579000D01*
X151251840Y-137579000D02*
X151251840Y-135979000D01*
X154251200Y-136779000D02*
X154651200Y-136779000D01*
X150751200Y-136779000D02*
X150351200Y-136779000D01*
D12*
X142217000Y-137899000D02*
X155217000Y-137899000D01*
X155217000Y-137899000D02*
X155217000Y-150899000D01*
X155217000Y-150899000D02*
X142217000Y-150899000D01*
X142217000Y-150899000D02*
X142217000Y-137899000D01*
D11*
X194383200Y-135979000D02*
X194383200Y-137579000D01*
X190883200Y-135979000D02*
X194383200Y-135979000D01*
X190883200Y-137579000D02*
X190883200Y-135979000D01*
X194383200Y-137579000D02*
X190883200Y-137579000D01*
X191383840Y-137579000D02*
X191383840Y-135979000D01*
X194383200Y-136779000D02*
X194783200Y-136779000D01*
X190883200Y-136779000D02*
X190483200Y-136779000D01*
D12*
X182349000Y-137899000D02*
X195349000Y-137899000D01*
X195349000Y-137899000D02*
X195349000Y-150899000D01*
X195349000Y-150899000D02*
X182349000Y-150899000D01*
X182349000Y-150899000D02*
X182349000Y-137899000D01*
X102085000Y-97767000D02*
X115085000Y-97767000D01*
X115085000Y-97767000D02*
X115085000Y-110767000D01*
X115085000Y-110767000D02*
X102085000Y-110767000D01*
X102085000Y-110767000D02*
X102085000Y-97767000D01*
D11*
X114119200Y-95847000D02*
X114119200Y-97447000D01*
X110619200Y-95847000D02*
X114119200Y-95847000D01*
X110619200Y-97447000D02*
X110619200Y-95847000D01*
X114119200Y-97447000D02*
X110619200Y-97447000D01*
X111119840Y-97447000D02*
X111119840Y-95847000D01*
X114119200Y-96647000D02*
X114519200Y-96647000D01*
X110619200Y-96647000D02*
X110219200Y-96647000D01*
X134185200Y-95847000D02*
X134185200Y-97447000D01*
X130685200Y-95847000D02*
X134185200Y-95847000D01*
X130685200Y-97447000D02*
X130685200Y-95847000D01*
X134185200Y-97447000D02*
X130685200Y-97447000D01*
X131185840Y-97447000D02*
X131185840Y-95847000D01*
X134185200Y-96647000D02*
X134585200Y-96647000D01*
X130685200Y-96647000D02*
X130285200Y-96647000D01*
D12*
X122151000Y-97767000D02*
X135151000Y-97767000D01*
X135151000Y-97767000D02*
X135151000Y-110767000D01*
X135151000Y-110767000D02*
X122151000Y-110767000D01*
X122151000Y-110767000D02*
X122151000Y-97767000D01*
X162283000Y-97767000D02*
X175283000Y-97767000D01*
X175283000Y-97767000D02*
X175283000Y-110767000D01*
X175283000Y-110767000D02*
X162283000Y-110767000D01*
X162283000Y-110767000D02*
X162283000Y-97767000D01*
D11*
X174317200Y-95847000D02*
X174317200Y-97447000D01*
X170817200Y-95847000D02*
X174317200Y-95847000D01*
X170817200Y-97447000D02*
X170817200Y-95847000D01*
X174317200Y-97447000D02*
X170817200Y-97447000D01*
X171317840Y-97447000D02*
X171317840Y-95847000D01*
X174317200Y-96647000D02*
X174717200Y-96647000D01*
X170817200Y-96647000D02*
X170417200Y-96647000D01*
X154251200Y-95847000D02*
X154251200Y-97447000D01*
X150751200Y-95847000D02*
X154251200Y-95847000D01*
X150751200Y-97447000D02*
X150751200Y-95847000D01*
X154251200Y-97447000D02*
X150751200Y-97447000D01*
X151251840Y-97447000D02*
X151251840Y-95847000D01*
X154251200Y-96647000D02*
X154651200Y-96647000D01*
X150751200Y-96647000D02*
X150351200Y-96647000D01*
D12*
X142217000Y-97767000D02*
X155217000Y-97767000D01*
X155217000Y-97767000D02*
X155217000Y-110767000D01*
X155217000Y-110767000D02*
X142217000Y-110767000D01*
X142217000Y-110767000D02*
X142217000Y-97767000D01*
D11*
X194383200Y-95847000D02*
X194383200Y-97447000D01*
X190883200Y-95847000D02*
X194383200Y-95847000D01*
X190883200Y-97447000D02*
X190883200Y-95847000D01*
X194383200Y-97447000D02*
X190883200Y-97447000D01*
X191383840Y-97447000D02*
X191383840Y-95847000D01*
X194383200Y-96647000D02*
X194783200Y-96647000D01*
X190883200Y-96647000D02*
X190483200Y-96647000D01*
D12*
X182349000Y-97767000D02*
X195349000Y-97767000D01*
X195349000Y-97767000D02*
X195349000Y-110767000D01*
X195349000Y-110767000D02*
X182349000Y-110767000D01*
X182349000Y-110767000D02*
X182349000Y-97767000D01*
X182349000Y-117833000D02*
X195349000Y-117833000D01*
X195349000Y-117833000D02*
X195349000Y-130833000D01*
X195349000Y-130833000D02*
X182349000Y-130833000D01*
X182349000Y-130833000D02*
X182349000Y-117833000D01*
D11*
X194383200Y-115913000D02*
X194383200Y-117513000D01*
X190883200Y-115913000D02*
X194383200Y-115913000D01*
X190883200Y-117513000D02*
X190883200Y-115913000D01*
X194383200Y-117513000D02*
X190883200Y-117513000D01*
X191383840Y-117513000D02*
X191383840Y-115913000D01*
X194383200Y-116713000D02*
X194783200Y-116713000D01*
X190883200Y-116713000D02*
X190483200Y-116713000D01*
D12*
X142217000Y-117833000D02*
X155217000Y-117833000D01*
X155217000Y-117833000D02*
X155217000Y-130833000D01*
X155217000Y-130833000D02*
X142217000Y-130833000D01*
X142217000Y-130833000D02*
X142217000Y-117833000D01*
D11*
X154251200Y-115913000D02*
X154251200Y-117513000D01*
X150751200Y-115913000D02*
X154251200Y-115913000D01*
X150751200Y-117513000D02*
X150751200Y-115913000D01*
X154251200Y-117513000D02*
X150751200Y-117513000D01*
X151251840Y-117513000D02*
X151251840Y-115913000D01*
X154251200Y-116713000D02*
X154651200Y-116713000D01*
X150751200Y-116713000D02*
X150351200Y-116713000D01*
X174317200Y-115913000D02*
X174317200Y-117513000D01*
X170817200Y-115913000D02*
X174317200Y-115913000D01*
X170817200Y-117513000D02*
X170817200Y-115913000D01*
X174317200Y-117513000D02*
X170817200Y-117513000D01*
X171317840Y-117513000D02*
X171317840Y-115913000D01*
X174317200Y-116713000D02*
X174717200Y-116713000D01*
X170817200Y-116713000D02*
X170417200Y-116713000D01*
D12*
X162283000Y-117833000D02*
X175283000Y-117833000D01*
X175283000Y-117833000D02*
X175283000Y-130833000D01*
X175283000Y-130833000D02*
X162283000Y-130833000D01*
X162283000Y-130833000D02*
X162283000Y-117833000D01*
X122151000Y-117833000D02*
X135151000Y-117833000D01*
X135151000Y-117833000D02*
X135151000Y-130833000D01*
X135151000Y-130833000D02*
X122151000Y-130833000D01*
X122151000Y-130833000D02*
X122151000Y-117833000D01*
D11*
X134185200Y-115913000D02*
X134185200Y-117513000D01*
X130685200Y-115913000D02*
X134185200Y-115913000D01*
X130685200Y-117513000D02*
X130685200Y-115913000D01*
X134185200Y-117513000D02*
X130685200Y-117513000D01*
X131185840Y-117513000D02*
X131185840Y-115913000D01*
X134185200Y-116713000D02*
X134585200Y-116713000D01*
X130685200Y-116713000D02*
X130285200Y-116713000D01*
X114119200Y-115913000D02*
X114119200Y-117513000D01*
X110619200Y-115913000D02*
X114119200Y-115913000D01*
X110619200Y-117513000D02*
X110619200Y-115913000D01*
X114119200Y-117513000D02*
X110619200Y-117513000D01*
X111119840Y-117513000D02*
X111119840Y-115913000D01*
X114119200Y-116713000D02*
X114519200Y-116713000D01*
X110619200Y-116713000D02*
X110219200Y-116713000D01*
D12*
X102085000Y-117833000D02*
X115085000Y-117833000D01*
X115085000Y-117833000D02*
X115085000Y-130833000D01*
X115085000Y-130833000D02*
X102085000Y-130833000D01*
X102085000Y-130833000D02*
X102085000Y-117833000D01*
X102085000Y-77701000D02*
X115085000Y-77701000D01*
X115085000Y-77701000D02*
X115085000Y-90701000D01*
X115085000Y-90701000D02*
X102085000Y-90701000D01*
X102085000Y-90701000D02*
X102085000Y-77701000D01*
D11*
X114119200Y-75781000D02*
X114119200Y-77381000D01*
X110619200Y-75781000D02*
X114119200Y-75781000D01*
X110619200Y-77381000D02*
X110619200Y-75781000D01*
X114119200Y-77381000D02*
X110619200Y-77381000D01*
X111119840Y-77381000D02*
X111119840Y-75781000D01*
X114119200Y-76581000D02*
X114519200Y-76581000D01*
X110619200Y-76581000D02*
X110219200Y-76581000D01*
X134185200Y-75781000D02*
X134185200Y-77381000D01*
X130685200Y-75781000D02*
X134185200Y-75781000D01*
X130685200Y-77381000D02*
X130685200Y-75781000D01*
X134185200Y-77381000D02*
X130685200Y-77381000D01*
X131185840Y-77381000D02*
X131185840Y-75781000D01*
X134185200Y-76581000D02*
X134585200Y-76581000D01*
X130685200Y-76581000D02*
X130285200Y-76581000D01*
D12*
X122151000Y-77701000D02*
X135151000Y-77701000D01*
X135151000Y-77701000D02*
X135151000Y-90701000D01*
X135151000Y-90701000D02*
X122151000Y-90701000D01*
X122151000Y-90701000D02*
X122151000Y-77701000D01*
X162283000Y-77701000D02*
X175283000Y-77701000D01*
X175283000Y-77701000D02*
X175283000Y-90701000D01*
X175283000Y-90701000D02*
X162283000Y-90701000D01*
X162283000Y-90701000D02*
X162283000Y-77701000D01*
D11*
X174317200Y-75781000D02*
X174317200Y-77381000D01*
X170817200Y-75781000D02*
X174317200Y-75781000D01*
X170817200Y-77381000D02*
X170817200Y-75781000D01*
X174317200Y-77381000D02*
X170817200Y-77381000D01*
X171317840Y-77381000D02*
X171317840Y-75781000D01*
X174317200Y-76581000D02*
X174717200Y-76581000D01*
X170817200Y-76581000D02*
X170417200Y-76581000D01*
X154251200Y-75781000D02*
X154251200Y-77381000D01*
X150751200Y-75781000D02*
X154251200Y-75781000D01*
X150751200Y-77381000D02*
X150751200Y-75781000D01*
X154251200Y-77381000D02*
X150751200Y-77381000D01*
X151251840Y-77381000D02*
X151251840Y-75781000D01*
X154251200Y-76581000D02*
X154651200Y-76581000D01*
X150751200Y-76581000D02*
X150351200Y-76581000D01*
D12*
X142217000Y-77701000D02*
X155217000Y-77701000D01*
X155217000Y-77701000D02*
X155217000Y-90701000D01*
X155217000Y-90701000D02*
X142217000Y-90701000D01*
X142217000Y-90701000D02*
X142217000Y-77701000D01*
D11*
X194383200Y-75781000D02*
X194383200Y-77381000D01*
X190883200Y-75781000D02*
X194383200Y-75781000D01*
X190883200Y-77381000D02*
X190883200Y-75781000D01*
X194383200Y-77381000D02*
X190883200Y-77381000D01*
X191383840Y-77381000D02*
X191383840Y-75781000D01*
X194383200Y-76581000D02*
X194783200Y-76581000D01*
X190883200Y-76581000D02*
X190483200Y-76581000D01*
D12*
X182349000Y-77701000D02*
X195349000Y-77701000D01*
X195349000Y-77701000D02*
X195349000Y-90701000D01*
X195349000Y-90701000D02*
X182349000Y-90701000D01*
X182349000Y-90701000D02*
X182349000Y-77701000D01*
X182349000Y-57635000D02*
X195349000Y-57635000D01*
X195349000Y-57635000D02*
X195349000Y-70635000D01*
X195349000Y-70635000D02*
X182349000Y-70635000D01*
X182349000Y-70635000D02*
X182349000Y-57635000D01*
D11*
X194383200Y-55715000D02*
X194383200Y-57315000D01*
X190883200Y-55715000D02*
X194383200Y-55715000D01*
X190883200Y-57315000D02*
X190883200Y-55715000D01*
X194383200Y-57315000D02*
X190883200Y-57315000D01*
X191383840Y-57315000D02*
X191383840Y-55715000D01*
X194383200Y-56515000D02*
X194783200Y-56515000D01*
X190883200Y-56515000D02*
X190483200Y-56515000D01*
D12*
X142217000Y-57635000D02*
X155217000Y-57635000D01*
X155217000Y-57635000D02*
X155217000Y-70635000D01*
X155217000Y-70635000D02*
X142217000Y-70635000D01*
X142217000Y-70635000D02*
X142217000Y-57635000D01*
D11*
X154251200Y-55715000D02*
X154251200Y-57315000D01*
X150751200Y-55715000D02*
X154251200Y-55715000D01*
X150751200Y-57315000D02*
X150751200Y-55715000D01*
X154251200Y-57315000D02*
X150751200Y-57315000D01*
X151251840Y-57315000D02*
X151251840Y-55715000D01*
X154251200Y-56515000D02*
X154651200Y-56515000D01*
X150751200Y-56515000D02*
X150351200Y-56515000D01*
X174317200Y-55715000D02*
X174317200Y-57315000D01*
X170817200Y-55715000D02*
X174317200Y-55715000D01*
X170817200Y-57315000D02*
X170817200Y-55715000D01*
X174317200Y-57315000D02*
X170817200Y-57315000D01*
X171317840Y-57315000D02*
X171317840Y-55715000D01*
X174317200Y-56515000D02*
X174717200Y-56515000D01*
X170817200Y-56515000D02*
X170417200Y-56515000D01*
D12*
X162283000Y-57635000D02*
X175283000Y-57635000D01*
X175283000Y-57635000D02*
X175283000Y-70635000D01*
X175283000Y-70635000D02*
X162283000Y-70635000D01*
X162283000Y-70635000D02*
X162283000Y-57635000D01*
X122151000Y-57635000D02*
X135151000Y-57635000D01*
X135151000Y-57635000D02*
X135151000Y-70635000D01*
X135151000Y-70635000D02*
X122151000Y-70635000D01*
X122151000Y-70635000D02*
X122151000Y-57635000D01*
D11*
X134185200Y-55715000D02*
X134185200Y-57315000D01*
X130685200Y-55715000D02*
X134185200Y-55715000D01*
X130685200Y-57315000D02*
X130685200Y-55715000D01*
X134185200Y-57315000D02*
X130685200Y-57315000D01*
X131185840Y-57315000D02*
X131185840Y-55715000D01*
X134185200Y-56515000D02*
X134585200Y-56515000D01*
X130685200Y-56515000D02*
X130285200Y-56515000D01*
X114119200Y-55715000D02*
X114119200Y-57315000D01*
X110619200Y-55715000D02*
X114119200Y-55715000D01*
X110619200Y-57315000D02*
X110619200Y-55715000D01*
X114119200Y-57315000D02*
X110619200Y-57315000D01*
X111119840Y-57315000D02*
X111119840Y-55715000D01*
X114119200Y-56515000D02*
X114519200Y-56515000D01*
X110619200Y-56515000D02*
X110219200Y-56515000D01*
D12*
X102085000Y-57635000D02*
X115085000Y-57635000D01*
X115085000Y-57635000D02*
X115085000Y-70635000D01*
X115085000Y-70635000D02*
X102085000Y-70635000D01*
X102085000Y-70635000D02*
X102085000Y-57635000D01*
D11*
X105918333Y-148637524D02*
X106204048Y-148732762D01*
X106680238Y-148732762D01*
X106870714Y-148637524D01*
X106965952Y-148542286D01*
X107061191Y-148351810D01*
X107061191Y-148161333D01*
X106965952Y-147970857D01*
X106870714Y-147875619D01*
X106680238Y-147780381D01*
X106299286Y-147685143D01*
X106108810Y-147589905D01*
X106013571Y-147494667D01*
X105918333Y-147304190D01*
X105918333Y-147113714D01*
X106013571Y-146923238D01*
X106108810Y-146828000D01*
X106299286Y-146732762D01*
X106775476Y-146732762D01*
X107061191Y-146828000D01*
X107727857Y-146732762D02*
X108204048Y-148732762D01*
X108585000Y-147304190D01*
X108965953Y-148732762D01*
X109442143Y-146732762D01*
X111251667Y-148732762D02*
X110108809Y-148732762D01*
X110680238Y-148732762D02*
X110680238Y-146732762D01*
X110489762Y-147018476D01*
X110299286Y-147208952D01*
X110108809Y-147304190D01*
X125984333Y-148637524D02*
X126270048Y-148732762D01*
X126746238Y-148732762D01*
X126936714Y-148637524D01*
X127031952Y-148542286D01*
X127127191Y-148351810D01*
X127127191Y-148161333D01*
X127031952Y-147970857D01*
X126936714Y-147875619D01*
X126746238Y-147780381D01*
X126365286Y-147685143D01*
X126174810Y-147589905D01*
X126079571Y-147494667D01*
X125984333Y-147304190D01*
X125984333Y-147113714D01*
X126079571Y-146923238D01*
X126174810Y-146828000D01*
X126365286Y-146732762D01*
X126841476Y-146732762D01*
X127127191Y-146828000D01*
X127793857Y-146732762D02*
X128270048Y-148732762D01*
X128651000Y-147304190D01*
X129031953Y-148732762D01*
X129508143Y-146732762D01*
X131317667Y-148732762D02*
X130174809Y-148732762D01*
X130746238Y-148732762D02*
X130746238Y-146732762D01*
X130555762Y-147018476D01*
X130365286Y-147208952D01*
X130174809Y-147304190D01*
X166116333Y-148637524D02*
X166402048Y-148732762D01*
X166878238Y-148732762D01*
X167068714Y-148637524D01*
X167163952Y-148542286D01*
X167259191Y-148351810D01*
X167259191Y-148161333D01*
X167163952Y-147970857D01*
X167068714Y-147875619D01*
X166878238Y-147780381D01*
X166497286Y-147685143D01*
X166306810Y-147589905D01*
X166211571Y-147494667D01*
X166116333Y-147304190D01*
X166116333Y-147113714D01*
X166211571Y-146923238D01*
X166306810Y-146828000D01*
X166497286Y-146732762D01*
X166973476Y-146732762D01*
X167259191Y-146828000D01*
X167925857Y-146732762D02*
X168402048Y-148732762D01*
X168783000Y-147304190D01*
X169163953Y-148732762D01*
X169640143Y-146732762D01*
X171449667Y-148732762D02*
X170306809Y-148732762D01*
X170878238Y-148732762D02*
X170878238Y-146732762D01*
X170687762Y-147018476D01*
X170497286Y-147208952D01*
X170306809Y-147304190D01*
X146050333Y-148637524D02*
X146336048Y-148732762D01*
X146812238Y-148732762D01*
X147002714Y-148637524D01*
X147097952Y-148542286D01*
X147193191Y-148351810D01*
X147193191Y-148161333D01*
X147097952Y-147970857D01*
X147002714Y-147875619D01*
X146812238Y-147780381D01*
X146431286Y-147685143D01*
X146240810Y-147589905D01*
X146145571Y-147494667D01*
X146050333Y-147304190D01*
X146050333Y-147113714D01*
X146145571Y-146923238D01*
X146240810Y-146828000D01*
X146431286Y-146732762D01*
X146907476Y-146732762D01*
X147193191Y-146828000D01*
X147859857Y-146732762D02*
X148336048Y-148732762D01*
X148717000Y-147304190D01*
X149097953Y-148732762D01*
X149574143Y-146732762D01*
X151383667Y-148732762D02*
X150240809Y-148732762D01*
X150812238Y-148732762D02*
X150812238Y-146732762D01*
X150621762Y-147018476D01*
X150431286Y-147208952D01*
X150240809Y-147304190D01*
X186182333Y-148637524D02*
X186468048Y-148732762D01*
X186944238Y-148732762D01*
X187134714Y-148637524D01*
X187229952Y-148542286D01*
X187325191Y-148351810D01*
X187325191Y-148161333D01*
X187229952Y-147970857D01*
X187134714Y-147875619D01*
X186944238Y-147780381D01*
X186563286Y-147685143D01*
X186372810Y-147589905D01*
X186277571Y-147494667D01*
X186182333Y-147304190D01*
X186182333Y-147113714D01*
X186277571Y-146923238D01*
X186372810Y-146828000D01*
X186563286Y-146732762D01*
X187039476Y-146732762D01*
X187325191Y-146828000D01*
X187991857Y-146732762D02*
X188468048Y-148732762D01*
X188849000Y-147304190D01*
X189229953Y-148732762D01*
X189706143Y-146732762D01*
X191515667Y-148732762D02*
X190372809Y-148732762D01*
X190944238Y-148732762D02*
X190944238Y-146732762D01*
X190753762Y-147018476D01*
X190563286Y-147208952D01*
X190372809Y-147304190D01*
X105918333Y-108505524D02*
X106204048Y-108600762D01*
X106680238Y-108600762D01*
X106870714Y-108505524D01*
X106965952Y-108410286D01*
X107061191Y-108219810D01*
X107061191Y-108029333D01*
X106965952Y-107838857D01*
X106870714Y-107743619D01*
X106680238Y-107648381D01*
X106299286Y-107553143D01*
X106108810Y-107457905D01*
X106013571Y-107362667D01*
X105918333Y-107172190D01*
X105918333Y-106981714D01*
X106013571Y-106791238D01*
X106108810Y-106696000D01*
X106299286Y-106600762D01*
X106775476Y-106600762D01*
X107061191Y-106696000D01*
X107727857Y-106600762D02*
X108204048Y-108600762D01*
X108585000Y-107172190D01*
X108965953Y-108600762D01*
X109442143Y-106600762D01*
X111251667Y-108600762D02*
X110108809Y-108600762D01*
X110680238Y-108600762D02*
X110680238Y-106600762D01*
X110489762Y-106886476D01*
X110299286Y-107076952D01*
X110108809Y-107172190D01*
X125984333Y-108505524D02*
X126270048Y-108600762D01*
X126746238Y-108600762D01*
X126936714Y-108505524D01*
X127031952Y-108410286D01*
X127127191Y-108219810D01*
X127127191Y-108029333D01*
X127031952Y-107838857D01*
X126936714Y-107743619D01*
X126746238Y-107648381D01*
X126365286Y-107553143D01*
X126174810Y-107457905D01*
X126079571Y-107362667D01*
X125984333Y-107172190D01*
X125984333Y-106981714D01*
X126079571Y-106791238D01*
X126174810Y-106696000D01*
X126365286Y-106600762D01*
X126841476Y-106600762D01*
X127127191Y-106696000D01*
X127793857Y-106600762D02*
X128270048Y-108600762D01*
X128651000Y-107172190D01*
X129031953Y-108600762D01*
X129508143Y-106600762D01*
X131317667Y-108600762D02*
X130174809Y-108600762D01*
X130746238Y-108600762D02*
X130746238Y-106600762D01*
X130555762Y-106886476D01*
X130365286Y-107076952D01*
X130174809Y-107172190D01*
X166116333Y-108505524D02*
X166402048Y-108600762D01*
X166878238Y-108600762D01*
X167068714Y-108505524D01*
X167163952Y-108410286D01*
X167259191Y-108219810D01*
X167259191Y-108029333D01*
X167163952Y-107838857D01*
X167068714Y-107743619D01*
X166878238Y-107648381D01*
X166497286Y-107553143D01*
X166306810Y-107457905D01*
X166211571Y-107362667D01*
X166116333Y-107172190D01*
X166116333Y-106981714D01*
X166211571Y-106791238D01*
X166306810Y-106696000D01*
X166497286Y-106600762D01*
X166973476Y-106600762D01*
X167259191Y-106696000D01*
X167925857Y-106600762D02*
X168402048Y-108600762D01*
X168783000Y-107172190D01*
X169163953Y-108600762D01*
X169640143Y-106600762D01*
X171449667Y-108600762D02*
X170306809Y-108600762D01*
X170878238Y-108600762D02*
X170878238Y-106600762D01*
X170687762Y-106886476D01*
X170497286Y-107076952D01*
X170306809Y-107172190D01*
X146050333Y-108505524D02*
X146336048Y-108600762D01*
X146812238Y-108600762D01*
X147002714Y-108505524D01*
X147097952Y-108410286D01*
X147193191Y-108219810D01*
X147193191Y-108029333D01*
X147097952Y-107838857D01*
X147002714Y-107743619D01*
X146812238Y-107648381D01*
X146431286Y-107553143D01*
X146240810Y-107457905D01*
X146145571Y-107362667D01*
X146050333Y-107172190D01*
X146050333Y-106981714D01*
X146145571Y-106791238D01*
X146240810Y-106696000D01*
X146431286Y-106600762D01*
X146907476Y-106600762D01*
X147193191Y-106696000D01*
X147859857Y-106600762D02*
X148336048Y-108600762D01*
X148717000Y-107172190D01*
X149097953Y-108600762D01*
X149574143Y-106600762D01*
X151383667Y-108600762D02*
X150240809Y-108600762D01*
X150812238Y-108600762D02*
X150812238Y-106600762D01*
X150621762Y-106886476D01*
X150431286Y-107076952D01*
X150240809Y-107172190D01*
X186182333Y-108505524D02*
X186468048Y-108600762D01*
X186944238Y-108600762D01*
X187134714Y-108505524D01*
X187229952Y-108410286D01*
X187325191Y-108219810D01*
X187325191Y-108029333D01*
X187229952Y-107838857D01*
X187134714Y-107743619D01*
X186944238Y-107648381D01*
X186563286Y-107553143D01*
X186372810Y-107457905D01*
X186277571Y-107362667D01*
X186182333Y-107172190D01*
X186182333Y-106981714D01*
X186277571Y-106791238D01*
X186372810Y-106696000D01*
X186563286Y-106600762D01*
X187039476Y-106600762D01*
X187325191Y-106696000D01*
X187991857Y-106600762D02*
X188468048Y-108600762D01*
X188849000Y-107172190D01*
X189229953Y-108600762D01*
X189706143Y-106600762D01*
X191515667Y-108600762D02*
X190372809Y-108600762D01*
X190944238Y-108600762D02*
X190944238Y-106600762D01*
X190753762Y-106886476D01*
X190563286Y-107076952D01*
X190372809Y-107172190D01*
X186182333Y-128571524D02*
X186468048Y-128666762D01*
X186944238Y-128666762D01*
X187134714Y-128571524D01*
X187229952Y-128476286D01*
X187325191Y-128285810D01*
X187325191Y-128095333D01*
X187229952Y-127904857D01*
X187134714Y-127809619D01*
X186944238Y-127714381D01*
X186563286Y-127619143D01*
X186372810Y-127523905D01*
X186277571Y-127428667D01*
X186182333Y-127238190D01*
X186182333Y-127047714D01*
X186277571Y-126857238D01*
X186372810Y-126762000D01*
X186563286Y-126666762D01*
X187039476Y-126666762D01*
X187325191Y-126762000D01*
X187991857Y-126666762D02*
X188468048Y-128666762D01*
X188849000Y-127238190D01*
X189229953Y-128666762D01*
X189706143Y-126666762D01*
X191515667Y-128666762D02*
X190372809Y-128666762D01*
X190944238Y-128666762D02*
X190944238Y-126666762D01*
X190753762Y-126952476D01*
X190563286Y-127142952D01*
X190372809Y-127238190D01*
X146050333Y-128571524D02*
X146336048Y-128666762D01*
X146812238Y-128666762D01*
X147002714Y-128571524D01*
X147097952Y-128476286D01*
X147193191Y-128285810D01*
X147193191Y-128095333D01*
X147097952Y-127904857D01*
X147002714Y-127809619D01*
X146812238Y-127714381D01*
X146431286Y-127619143D01*
X146240810Y-127523905D01*
X146145571Y-127428667D01*
X146050333Y-127238190D01*
X146050333Y-127047714D01*
X146145571Y-126857238D01*
X146240810Y-126762000D01*
X146431286Y-126666762D01*
X146907476Y-126666762D01*
X147193191Y-126762000D01*
X147859857Y-126666762D02*
X148336048Y-128666762D01*
X148717000Y-127238190D01*
X149097953Y-128666762D01*
X149574143Y-126666762D01*
X151383667Y-128666762D02*
X150240809Y-128666762D01*
X150812238Y-128666762D02*
X150812238Y-126666762D01*
X150621762Y-126952476D01*
X150431286Y-127142952D01*
X150240809Y-127238190D01*
X166116333Y-128571524D02*
X166402048Y-128666762D01*
X166878238Y-128666762D01*
X167068714Y-128571524D01*
X167163952Y-128476286D01*
X167259191Y-128285810D01*
X167259191Y-128095333D01*
X167163952Y-127904857D01*
X167068714Y-127809619D01*
X166878238Y-127714381D01*
X166497286Y-127619143D01*
X166306810Y-127523905D01*
X166211571Y-127428667D01*
X166116333Y-127238190D01*
X166116333Y-127047714D01*
X166211571Y-126857238D01*
X166306810Y-126762000D01*
X166497286Y-126666762D01*
X166973476Y-126666762D01*
X167259191Y-126762000D01*
X167925857Y-126666762D02*
X168402048Y-128666762D01*
X168783000Y-127238190D01*
X169163953Y-128666762D01*
X169640143Y-126666762D01*
X171449667Y-128666762D02*
X170306809Y-128666762D01*
X170878238Y-128666762D02*
X170878238Y-126666762D01*
X170687762Y-126952476D01*
X170497286Y-127142952D01*
X170306809Y-127238190D01*
X125984333Y-128571524D02*
X126270048Y-128666762D01*
X126746238Y-128666762D01*
X126936714Y-128571524D01*
X127031952Y-128476286D01*
X127127191Y-128285810D01*
X127127191Y-128095333D01*
X127031952Y-127904857D01*
X126936714Y-127809619D01*
X126746238Y-127714381D01*
X126365286Y-127619143D01*
X126174810Y-127523905D01*
X126079571Y-127428667D01*
X125984333Y-127238190D01*
X125984333Y-127047714D01*
X126079571Y-126857238D01*
X126174810Y-126762000D01*
X126365286Y-126666762D01*
X126841476Y-126666762D01*
X127127191Y-126762000D01*
X127793857Y-126666762D02*
X128270048Y-128666762D01*
X128651000Y-127238190D01*
X129031953Y-128666762D01*
X129508143Y-126666762D01*
X131317667Y-128666762D02*
X130174809Y-128666762D01*
X130746238Y-128666762D02*
X130746238Y-126666762D01*
X130555762Y-126952476D01*
X130365286Y-127142952D01*
X130174809Y-127238190D01*
X105918333Y-128571524D02*
X106204048Y-128666762D01*
X106680238Y-128666762D01*
X106870714Y-128571524D01*
X106965952Y-128476286D01*
X107061191Y-128285810D01*
X107061191Y-128095333D01*
X106965952Y-127904857D01*
X106870714Y-127809619D01*
X106680238Y-127714381D01*
X106299286Y-127619143D01*
X106108810Y-127523905D01*
X106013571Y-127428667D01*
X105918333Y-127238190D01*
X105918333Y-127047714D01*
X106013571Y-126857238D01*
X106108810Y-126762000D01*
X106299286Y-126666762D01*
X106775476Y-126666762D01*
X107061191Y-126762000D01*
X107727857Y-126666762D02*
X108204048Y-128666762D01*
X108585000Y-127238190D01*
X108965953Y-128666762D01*
X109442143Y-126666762D01*
X111251667Y-128666762D02*
X110108809Y-128666762D01*
X110680238Y-128666762D02*
X110680238Y-126666762D01*
X110489762Y-126952476D01*
X110299286Y-127142952D01*
X110108809Y-127238190D01*
X105918333Y-88439524D02*
X106204048Y-88534762D01*
X106680238Y-88534762D01*
X106870714Y-88439524D01*
X106965952Y-88344286D01*
X107061191Y-88153810D01*
X107061191Y-87963333D01*
X106965952Y-87772857D01*
X106870714Y-87677619D01*
X106680238Y-87582381D01*
X106299286Y-87487143D01*
X106108810Y-87391905D01*
X106013571Y-87296667D01*
X105918333Y-87106190D01*
X105918333Y-86915714D01*
X106013571Y-86725238D01*
X106108810Y-86630000D01*
X106299286Y-86534762D01*
X106775476Y-86534762D01*
X107061191Y-86630000D01*
X107727857Y-86534762D02*
X108204048Y-88534762D01*
X108585000Y-87106190D01*
X108965953Y-88534762D01*
X109442143Y-86534762D01*
X111251667Y-88534762D02*
X110108809Y-88534762D01*
X110680238Y-88534762D02*
X110680238Y-86534762D01*
X110489762Y-86820476D01*
X110299286Y-87010952D01*
X110108809Y-87106190D01*
X125984333Y-88439524D02*
X126270048Y-88534762D01*
X126746238Y-88534762D01*
X126936714Y-88439524D01*
X127031952Y-88344286D01*
X127127191Y-88153810D01*
X127127191Y-87963333D01*
X127031952Y-87772857D01*
X126936714Y-87677619D01*
X126746238Y-87582381D01*
X126365286Y-87487143D01*
X126174810Y-87391905D01*
X126079571Y-87296667D01*
X125984333Y-87106190D01*
X125984333Y-86915714D01*
X126079571Y-86725238D01*
X126174810Y-86630000D01*
X126365286Y-86534762D01*
X126841476Y-86534762D01*
X127127191Y-86630000D01*
X127793857Y-86534762D02*
X128270048Y-88534762D01*
X128651000Y-87106190D01*
X129031953Y-88534762D01*
X129508143Y-86534762D01*
X131317667Y-88534762D02*
X130174809Y-88534762D01*
X130746238Y-88534762D02*
X130746238Y-86534762D01*
X130555762Y-86820476D01*
X130365286Y-87010952D01*
X130174809Y-87106190D01*
X166116333Y-88439524D02*
X166402048Y-88534762D01*
X166878238Y-88534762D01*
X167068714Y-88439524D01*
X167163952Y-88344286D01*
X167259191Y-88153810D01*
X167259191Y-87963333D01*
X167163952Y-87772857D01*
X167068714Y-87677619D01*
X166878238Y-87582381D01*
X166497286Y-87487143D01*
X166306810Y-87391905D01*
X166211571Y-87296667D01*
X166116333Y-87106190D01*
X166116333Y-86915714D01*
X166211571Y-86725238D01*
X166306810Y-86630000D01*
X166497286Y-86534762D01*
X166973476Y-86534762D01*
X167259191Y-86630000D01*
X167925857Y-86534762D02*
X168402048Y-88534762D01*
X168783000Y-87106190D01*
X169163953Y-88534762D01*
X169640143Y-86534762D01*
X171449667Y-88534762D02*
X170306809Y-88534762D01*
X170878238Y-88534762D02*
X170878238Y-86534762D01*
X170687762Y-86820476D01*
X170497286Y-87010952D01*
X170306809Y-87106190D01*
X146050333Y-88439524D02*
X146336048Y-88534762D01*
X146812238Y-88534762D01*
X147002714Y-88439524D01*
X147097952Y-88344286D01*
X147193191Y-88153810D01*
X147193191Y-87963333D01*
X147097952Y-87772857D01*
X147002714Y-87677619D01*
X146812238Y-87582381D01*
X146431286Y-87487143D01*
X146240810Y-87391905D01*
X146145571Y-87296667D01*
X146050333Y-87106190D01*
X146050333Y-86915714D01*
X146145571Y-86725238D01*
X146240810Y-86630000D01*
X146431286Y-86534762D01*
X146907476Y-86534762D01*
X147193191Y-86630000D01*
X147859857Y-86534762D02*
X148336048Y-88534762D01*
X148717000Y-87106190D01*
X149097953Y-88534762D01*
X149574143Y-86534762D01*
X151383667Y-88534762D02*
X150240809Y-88534762D01*
X150812238Y-88534762D02*
X150812238Y-86534762D01*
X150621762Y-86820476D01*
X150431286Y-87010952D01*
X150240809Y-87106190D01*
X186182333Y-88439524D02*
X186468048Y-88534762D01*
X186944238Y-88534762D01*
X187134714Y-88439524D01*
X187229952Y-88344286D01*
X187325191Y-88153810D01*
X187325191Y-87963333D01*
X187229952Y-87772857D01*
X187134714Y-87677619D01*
X186944238Y-87582381D01*
X186563286Y-87487143D01*
X186372810Y-87391905D01*
X186277571Y-87296667D01*
X186182333Y-87106190D01*
X186182333Y-86915714D01*
X186277571Y-86725238D01*
X186372810Y-86630000D01*
X186563286Y-86534762D01*
X187039476Y-86534762D01*
X187325191Y-86630000D01*
X187991857Y-86534762D02*
X188468048Y-88534762D01*
X188849000Y-87106190D01*
X189229953Y-88534762D01*
X189706143Y-86534762D01*
X191515667Y-88534762D02*
X190372809Y-88534762D01*
X190944238Y-88534762D02*
X190944238Y-86534762D01*
X190753762Y-86820476D01*
X190563286Y-87010952D01*
X190372809Y-87106190D01*
X186182333Y-68373524D02*
X186468048Y-68468762D01*
X186944238Y-68468762D01*
X187134714Y-68373524D01*
X187229952Y-68278286D01*
X187325191Y-68087810D01*
X187325191Y-67897333D01*
X187229952Y-67706857D01*
X187134714Y-67611619D01*
X186944238Y-67516381D01*
X186563286Y-67421143D01*
X186372810Y-67325905D01*
X186277571Y-67230667D01*
X186182333Y-67040190D01*
X186182333Y-66849714D01*
X186277571Y-66659238D01*
X186372810Y-66564000D01*
X186563286Y-66468762D01*
X187039476Y-66468762D01*
X187325191Y-66564000D01*
X187991857Y-66468762D02*
X188468048Y-68468762D01*
X188849000Y-67040190D01*
X189229953Y-68468762D01*
X189706143Y-66468762D01*
X191515667Y-68468762D02*
X190372809Y-68468762D01*
X190944238Y-68468762D02*
X190944238Y-66468762D01*
X190753762Y-66754476D01*
X190563286Y-66944952D01*
X190372809Y-67040190D01*
X146050333Y-68373524D02*
X146336048Y-68468762D01*
X146812238Y-68468762D01*
X147002714Y-68373524D01*
X147097952Y-68278286D01*
X147193191Y-68087810D01*
X147193191Y-67897333D01*
X147097952Y-67706857D01*
X147002714Y-67611619D01*
X146812238Y-67516381D01*
X146431286Y-67421143D01*
X146240810Y-67325905D01*
X146145571Y-67230667D01*
X146050333Y-67040190D01*
X146050333Y-66849714D01*
X146145571Y-66659238D01*
X146240810Y-66564000D01*
X146431286Y-66468762D01*
X146907476Y-66468762D01*
X147193191Y-66564000D01*
X147859857Y-66468762D02*
X148336048Y-68468762D01*
X148717000Y-67040190D01*
X149097953Y-68468762D01*
X149574143Y-66468762D01*
X151383667Y-68468762D02*
X150240809Y-68468762D01*
X150812238Y-68468762D02*
X150812238Y-66468762D01*
X150621762Y-66754476D01*
X150431286Y-66944952D01*
X150240809Y-67040190D01*
X166116333Y-68373524D02*
X166402048Y-68468762D01*
X166878238Y-68468762D01*
X167068714Y-68373524D01*
X167163952Y-68278286D01*
X167259191Y-68087810D01*
X167259191Y-67897333D01*
X167163952Y-67706857D01*
X167068714Y-67611619D01*
X166878238Y-67516381D01*
X166497286Y-67421143D01*
X166306810Y-67325905D01*
X166211571Y-67230667D01*
X166116333Y-67040190D01*
X166116333Y-66849714D01*
X166211571Y-66659238D01*
X166306810Y-66564000D01*
X166497286Y-66468762D01*
X166973476Y-66468762D01*
X167259191Y-66564000D01*
X167925857Y-66468762D02*
X168402048Y-68468762D01*
X168783000Y-67040190D01*
X169163953Y-68468762D01*
X169640143Y-66468762D01*
X171449667Y-68468762D02*
X170306809Y-68468762D01*
X170878238Y-68468762D02*
X170878238Y-66468762D01*
X170687762Y-66754476D01*
X170497286Y-66944952D01*
X170306809Y-67040190D01*
X125984333Y-68373524D02*
X126270048Y-68468762D01*
X126746238Y-68468762D01*
X126936714Y-68373524D01*
X127031952Y-68278286D01*
X127127191Y-68087810D01*
X127127191Y-67897333D01*
X127031952Y-67706857D01*
X126936714Y-67611619D01*
X126746238Y-67516381D01*
X126365286Y-67421143D01*
X126174810Y-67325905D01*
X126079571Y-67230667D01*
X125984333Y-67040190D01*
X125984333Y-66849714D01*
X126079571Y-66659238D01*
X126174810Y-66564000D01*
X126365286Y-66468762D01*
X126841476Y-66468762D01*
X127127191Y-66564000D01*
X127793857Y-66468762D02*
X128270048Y-68468762D01*
X128651000Y-67040190D01*
X129031953Y-68468762D01*
X129508143Y-66468762D01*
X131317667Y-68468762D02*
X130174809Y-68468762D01*
X130746238Y-68468762D02*
X130746238Y-66468762D01*
X130555762Y-66754476D01*
X130365286Y-66944952D01*
X130174809Y-67040190D01*
X105918333Y-68373524D02*
X106204048Y-68468762D01*
X106680238Y-68468762D01*
X106870714Y-68373524D01*
X106965952Y-68278286D01*
X107061191Y-68087810D01*
X107061191Y-67897333D01*
X106965952Y-67706857D01*
X106870714Y-67611619D01*
X106680238Y-67516381D01*
X106299286Y-67421143D01*
X106108810Y-67325905D01*
X106013571Y-67230667D01*
X105918333Y-67040190D01*
X105918333Y-66849714D01*
X106013571Y-66659238D01*
X106108810Y-66564000D01*
X106299286Y-66468762D01*
X106775476Y-66468762D01*
X107061191Y-66564000D01*
X107727857Y-66468762D02*
X108204048Y-68468762D01*
X108585000Y-67040190D01*
X108965953Y-68468762D01*
X109442143Y-66468762D01*
X111251667Y-68468762D02*
X110108809Y-68468762D01*
X110680238Y-68468762D02*
X110680238Y-66468762D01*
X110489762Y-66754476D01*
X110299286Y-66944952D01*
X110108809Y-67040190D01*
%LPC*%
D13*
X113665000Y-144399000D03*
D14*
X111125000Y-139319000D03*
D15*
X108585000Y-144399000D03*
D14*
X104775000Y-141859000D03*
D13*
X103505000Y-144399000D03*
D16*
X109855000Y-149479000D03*
X107315000Y-149479000D03*
D17*
X101400000Y-146939000D03*
X101400000Y-141859000D03*
X115770000Y-141859000D03*
X115770000Y-146939000D03*
D18*
X111125000Y-151584000D03*
X115570000Y-151584000D03*
X101600000Y-151584000D03*
X106045000Y-151584000D03*
X101600000Y-137214000D03*
X106045000Y-137214000D03*
D19*
X115570000Y-136779000D03*
D20*
X109220000Y-136779000D03*
D19*
X135636000Y-136779000D03*
D20*
X129286000Y-136779000D03*
D18*
X126111000Y-137214000D03*
X121666000Y-137214000D03*
X126111000Y-151584000D03*
X121666000Y-151584000D03*
X135636000Y-151584000D03*
X131191000Y-151584000D03*
D17*
X135836000Y-146939000D03*
X135836000Y-141859000D03*
X121466000Y-141859000D03*
X121466000Y-146939000D03*
D13*
X133731000Y-144399000D03*
D14*
X131191000Y-139319000D03*
D15*
X128651000Y-144399000D03*
D14*
X124841000Y-141859000D03*
D13*
X123571000Y-144399000D03*
D16*
X129921000Y-149479000D03*
X127381000Y-149479000D03*
D13*
X173863000Y-144399000D03*
D14*
X171323000Y-139319000D03*
D15*
X168783000Y-144399000D03*
D14*
X164973000Y-141859000D03*
D13*
X163703000Y-144399000D03*
D16*
X170053000Y-149479000D03*
X167513000Y-149479000D03*
D17*
X161598000Y-146939000D03*
X161598000Y-141859000D03*
X175968000Y-141859000D03*
X175968000Y-146939000D03*
D18*
X171323000Y-151584000D03*
X175768000Y-151584000D03*
X161798000Y-151584000D03*
X166243000Y-151584000D03*
X161798000Y-137214000D03*
X166243000Y-137214000D03*
D19*
X175768000Y-136779000D03*
D20*
X169418000Y-136779000D03*
D19*
X155702000Y-136779000D03*
D20*
X149352000Y-136779000D03*
D18*
X146177000Y-137214000D03*
X141732000Y-137214000D03*
X146177000Y-151584000D03*
X141732000Y-151584000D03*
X155702000Y-151584000D03*
X151257000Y-151584000D03*
D17*
X155902000Y-146939000D03*
X155902000Y-141859000D03*
X141532000Y-141859000D03*
X141532000Y-146939000D03*
D13*
X153797000Y-144399000D03*
D14*
X151257000Y-139319000D03*
D15*
X148717000Y-144399000D03*
D14*
X144907000Y-141859000D03*
D13*
X143637000Y-144399000D03*
D16*
X149987000Y-149479000D03*
X147447000Y-149479000D03*
D19*
X195834000Y-136779000D03*
D20*
X189484000Y-136779000D03*
D18*
X186309000Y-137214000D03*
X181864000Y-137214000D03*
X186309000Y-151584000D03*
X181864000Y-151584000D03*
X195834000Y-151584000D03*
X191389000Y-151584000D03*
D17*
X196034000Y-146939000D03*
X196034000Y-141859000D03*
X181664000Y-141859000D03*
X181664000Y-146939000D03*
D13*
X193929000Y-144399000D03*
D14*
X191389000Y-139319000D03*
D15*
X188849000Y-144399000D03*
D14*
X185039000Y-141859000D03*
D13*
X183769000Y-144399000D03*
D16*
X190119000Y-149479000D03*
X187579000Y-149479000D03*
D13*
X113665000Y-104267000D03*
D14*
X111125000Y-99187000D03*
D15*
X108585000Y-104267000D03*
D14*
X104775000Y-101727000D03*
D13*
X103505000Y-104267000D03*
D16*
X109855000Y-109347000D03*
X107315000Y-109347000D03*
D17*
X101400000Y-106807000D03*
X101400000Y-101727000D03*
X115770000Y-101727000D03*
X115770000Y-106807000D03*
D18*
X111125000Y-111452000D03*
X115570000Y-111452000D03*
X101600000Y-111452000D03*
X106045000Y-111452000D03*
X101600000Y-97082000D03*
X106045000Y-97082000D03*
D19*
X115570000Y-96647000D03*
D20*
X109220000Y-96647000D03*
D19*
X135636000Y-96647000D03*
D20*
X129286000Y-96647000D03*
D18*
X126111000Y-97082000D03*
X121666000Y-97082000D03*
X126111000Y-111452000D03*
X121666000Y-111452000D03*
X135636000Y-111452000D03*
X131191000Y-111452000D03*
D17*
X135836000Y-106807000D03*
X135836000Y-101727000D03*
X121466000Y-101727000D03*
X121466000Y-106807000D03*
D13*
X133731000Y-104267000D03*
D14*
X131191000Y-99187000D03*
D15*
X128651000Y-104267000D03*
D14*
X124841000Y-101727000D03*
D13*
X123571000Y-104267000D03*
D16*
X129921000Y-109347000D03*
X127381000Y-109347000D03*
D13*
X173863000Y-104267000D03*
D14*
X171323000Y-99187000D03*
D15*
X168783000Y-104267000D03*
D14*
X164973000Y-101727000D03*
D13*
X163703000Y-104267000D03*
D16*
X170053000Y-109347000D03*
X167513000Y-109347000D03*
D17*
X161598000Y-106807000D03*
X161598000Y-101727000D03*
X175968000Y-101727000D03*
X175968000Y-106807000D03*
D18*
X171323000Y-111452000D03*
X175768000Y-111452000D03*
X161798000Y-111452000D03*
X166243000Y-111452000D03*
X161798000Y-97082000D03*
X166243000Y-97082000D03*
D19*
X175768000Y-96647000D03*
D20*
X169418000Y-96647000D03*
D19*
X155702000Y-96647000D03*
D20*
X149352000Y-96647000D03*
D18*
X146177000Y-97082000D03*
X141732000Y-97082000D03*
X146177000Y-111452000D03*
X141732000Y-111452000D03*
X155702000Y-111452000D03*
X151257000Y-111452000D03*
D17*
X155902000Y-106807000D03*
X155902000Y-101727000D03*
X141532000Y-101727000D03*
X141532000Y-106807000D03*
D13*
X153797000Y-104267000D03*
D14*
X151257000Y-99187000D03*
D15*
X148717000Y-104267000D03*
D14*
X144907000Y-101727000D03*
D13*
X143637000Y-104267000D03*
D16*
X149987000Y-109347000D03*
X147447000Y-109347000D03*
D19*
X195834000Y-96647000D03*
D20*
X189484000Y-96647000D03*
D18*
X186309000Y-97082000D03*
X181864000Y-97082000D03*
X186309000Y-111452000D03*
X181864000Y-111452000D03*
X195834000Y-111452000D03*
X191389000Y-111452000D03*
D17*
X196034000Y-106807000D03*
X196034000Y-101727000D03*
X181664000Y-101727000D03*
X181664000Y-106807000D03*
D13*
X193929000Y-104267000D03*
D14*
X191389000Y-99187000D03*
D15*
X188849000Y-104267000D03*
D14*
X185039000Y-101727000D03*
D13*
X183769000Y-104267000D03*
D16*
X190119000Y-109347000D03*
X187579000Y-109347000D03*
D13*
X193929000Y-124333000D03*
D14*
X191389000Y-119253000D03*
D15*
X188849000Y-124333000D03*
D14*
X185039000Y-121793000D03*
D13*
X183769000Y-124333000D03*
D16*
X190119000Y-129413000D03*
X187579000Y-129413000D03*
D17*
X181664000Y-126873000D03*
X181664000Y-121793000D03*
X196034000Y-121793000D03*
X196034000Y-126873000D03*
D18*
X191389000Y-131518000D03*
X195834000Y-131518000D03*
X181864000Y-131518000D03*
X186309000Y-131518000D03*
X181864000Y-117148000D03*
X186309000Y-117148000D03*
D19*
X195834000Y-116713000D03*
D20*
X189484000Y-116713000D03*
D13*
X153797000Y-124333000D03*
D14*
X151257000Y-119253000D03*
D15*
X148717000Y-124333000D03*
D14*
X144907000Y-121793000D03*
D13*
X143637000Y-124333000D03*
D16*
X149987000Y-129413000D03*
X147447000Y-129413000D03*
D17*
X141532000Y-126873000D03*
X141532000Y-121793000D03*
X155902000Y-121793000D03*
X155902000Y-126873000D03*
D18*
X151257000Y-131518000D03*
X155702000Y-131518000D03*
X141732000Y-131518000D03*
X146177000Y-131518000D03*
X141732000Y-117148000D03*
X146177000Y-117148000D03*
D19*
X155702000Y-116713000D03*
D20*
X149352000Y-116713000D03*
D19*
X175768000Y-116713000D03*
D20*
X169418000Y-116713000D03*
D18*
X166243000Y-117148000D03*
X161798000Y-117148000D03*
X166243000Y-131518000D03*
X161798000Y-131518000D03*
X175768000Y-131518000D03*
X171323000Y-131518000D03*
D17*
X175968000Y-126873000D03*
X175968000Y-121793000D03*
X161598000Y-121793000D03*
X161598000Y-126873000D03*
D13*
X173863000Y-124333000D03*
D14*
X171323000Y-119253000D03*
D15*
X168783000Y-124333000D03*
D14*
X164973000Y-121793000D03*
D13*
X163703000Y-124333000D03*
D16*
X170053000Y-129413000D03*
X167513000Y-129413000D03*
D13*
X133731000Y-124333000D03*
D14*
X131191000Y-119253000D03*
D15*
X128651000Y-124333000D03*
D14*
X124841000Y-121793000D03*
D13*
X123571000Y-124333000D03*
D16*
X129921000Y-129413000D03*
X127381000Y-129413000D03*
D17*
X121466000Y-126873000D03*
X121466000Y-121793000D03*
X135836000Y-121793000D03*
X135836000Y-126873000D03*
D18*
X131191000Y-131518000D03*
X135636000Y-131518000D03*
X121666000Y-131518000D03*
X126111000Y-131518000D03*
X121666000Y-117148000D03*
X126111000Y-117148000D03*
D19*
X135636000Y-116713000D03*
D20*
X129286000Y-116713000D03*
D19*
X115570000Y-116713000D03*
D20*
X109220000Y-116713000D03*
D18*
X106045000Y-117148000D03*
X101600000Y-117148000D03*
X106045000Y-131518000D03*
X101600000Y-131518000D03*
X115570000Y-131518000D03*
X111125000Y-131518000D03*
D17*
X115770000Y-126873000D03*
X115770000Y-121793000D03*
X101400000Y-121793000D03*
X101400000Y-126873000D03*
D13*
X113665000Y-124333000D03*
D14*
X111125000Y-119253000D03*
D15*
X108585000Y-124333000D03*
D14*
X104775000Y-121793000D03*
D13*
X103505000Y-124333000D03*
D16*
X109855000Y-129413000D03*
X107315000Y-129413000D03*
D13*
X113665000Y-84201000D03*
D14*
X111125000Y-79121000D03*
D15*
X108585000Y-84201000D03*
D14*
X104775000Y-81661000D03*
D13*
X103505000Y-84201000D03*
D16*
X109855000Y-89281000D03*
X107315000Y-89281000D03*
D17*
X101400000Y-86741000D03*
X101400000Y-81661000D03*
X115770000Y-81661000D03*
X115770000Y-86741000D03*
D18*
X111125000Y-91386000D03*
X115570000Y-91386000D03*
X101600000Y-91386000D03*
X106045000Y-91386000D03*
X101600000Y-77016000D03*
X106045000Y-77016000D03*
D19*
X115570000Y-76581000D03*
D20*
X109220000Y-76581000D03*
D19*
X135636000Y-76581000D03*
D20*
X129286000Y-76581000D03*
D18*
X126111000Y-77016000D03*
X121666000Y-77016000D03*
X126111000Y-91386000D03*
X121666000Y-91386000D03*
X135636000Y-91386000D03*
X131191000Y-91386000D03*
D17*
X135836000Y-86741000D03*
X135836000Y-81661000D03*
X121466000Y-81661000D03*
X121466000Y-86741000D03*
D13*
X133731000Y-84201000D03*
D14*
X131191000Y-79121000D03*
D15*
X128651000Y-84201000D03*
D14*
X124841000Y-81661000D03*
D13*
X123571000Y-84201000D03*
D16*
X129921000Y-89281000D03*
X127381000Y-89281000D03*
D13*
X173863000Y-84201000D03*
D14*
X171323000Y-79121000D03*
D15*
X168783000Y-84201000D03*
D14*
X164973000Y-81661000D03*
D13*
X163703000Y-84201000D03*
D16*
X170053000Y-89281000D03*
X167513000Y-89281000D03*
D17*
X161598000Y-86741000D03*
X161598000Y-81661000D03*
X175968000Y-81661000D03*
X175968000Y-86741000D03*
D18*
X171323000Y-91386000D03*
X175768000Y-91386000D03*
X161798000Y-91386000D03*
X166243000Y-91386000D03*
X161798000Y-77016000D03*
X166243000Y-77016000D03*
D19*
X175768000Y-76581000D03*
D20*
X169418000Y-76581000D03*
D19*
X155702000Y-76581000D03*
D20*
X149352000Y-76581000D03*
D18*
X146177000Y-77016000D03*
X141732000Y-77016000D03*
X146177000Y-91386000D03*
X141732000Y-91386000D03*
X155702000Y-91386000D03*
X151257000Y-91386000D03*
D17*
X155902000Y-86741000D03*
X155902000Y-81661000D03*
X141532000Y-81661000D03*
X141532000Y-86741000D03*
D13*
X153797000Y-84201000D03*
D14*
X151257000Y-79121000D03*
D15*
X148717000Y-84201000D03*
D14*
X144907000Y-81661000D03*
D13*
X143637000Y-84201000D03*
D16*
X149987000Y-89281000D03*
X147447000Y-89281000D03*
D19*
X195834000Y-76581000D03*
D20*
X189484000Y-76581000D03*
D18*
X186309000Y-77016000D03*
X181864000Y-77016000D03*
X186309000Y-91386000D03*
X181864000Y-91386000D03*
X195834000Y-91386000D03*
X191389000Y-91386000D03*
D17*
X196034000Y-86741000D03*
X196034000Y-81661000D03*
X181664000Y-81661000D03*
X181664000Y-86741000D03*
D13*
X193929000Y-84201000D03*
D14*
X191389000Y-79121000D03*
D15*
X188849000Y-84201000D03*
D14*
X185039000Y-81661000D03*
D13*
X183769000Y-84201000D03*
D16*
X190119000Y-89281000D03*
X187579000Y-89281000D03*
D13*
X193929000Y-64135000D03*
D14*
X191389000Y-59055000D03*
D15*
X188849000Y-64135000D03*
D14*
X185039000Y-61595000D03*
D13*
X183769000Y-64135000D03*
D16*
X190119000Y-69215000D03*
X187579000Y-69215000D03*
D17*
X181664000Y-66675000D03*
X181664000Y-61595000D03*
X196034000Y-61595000D03*
X196034000Y-66675000D03*
D18*
X191389000Y-71320000D03*
X195834000Y-71320000D03*
X181864000Y-71320000D03*
X186309000Y-71320000D03*
X181864000Y-56950000D03*
X186309000Y-56950000D03*
D19*
X195834000Y-56515000D03*
D20*
X189484000Y-56515000D03*
D13*
X153797000Y-64135000D03*
D14*
X151257000Y-59055000D03*
D15*
X148717000Y-64135000D03*
D14*
X144907000Y-61595000D03*
D13*
X143637000Y-64135000D03*
D16*
X149987000Y-69215000D03*
X147447000Y-69215000D03*
D17*
X141532000Y-66675000D03*
X141532000Y-61595000D03*
X155902000Y-61595000D03*
X155902000Y-66675000D03*
D18*
X151257000Y-71320000D03*
X155702000Y-71320000D03*
X141732000Y-71320000D03*
X146177000Y-71320000D03*
X141732000Y-56950000D03*
X146177000Y-56950000D03*
D19*
X155702000Y-56515000D03*
D20*
X149352000Y-56515000D03*
D19*
X175768000Y-56515000D03*
D20*
X169418000Y-56515000D03*
D18*
X166243000Y-56950000D03*
X161798000Y-56950000D03*
X166243000Y-71320000D03*
X161798000Y-71320000D03*
X175768000Y-71320000D03*
X171323000Y-71320000D03*
D17*
X175968000Y-66675000D03*
X175968000Y-61595000D03*
X161598000Y-61595000D03*
X161598000Y-66675000D03*
D13*
X173863000Y-64135000D03*
D14*
X171323000Y-59055000D03*
D15*
X168783000Y-64135000D03*
D14*
X164973000Y-61595000D03*
D13*
X163703000Y-64135000D03*
D16*
X170053000Y-69215000D03*
X167513000Y-69215000D03*
D13*
X133731000Y-64135000D03*
D14*
X131191000Y-59055000D03*
D15*
X128651000Y-64135000D03*
D14*
X124841000Y-61595000D03*
D13*
X123571000Y-64135000D03*
D16*
X129921000Y-69215000D03*
X127381000Y-69215000D03*
D17*
X121466000Y-66675000D03*
X121466000Y-61595000D03*
X135836000Y-61595000D03*
X135836000Y-66675000D03*
D18*
X131191000Y-71320000D03*
X135636000Y-71320000D03*
X121666000Y-71320000D03*
X126111000Y-71320000D03*
X121666000Y-56950000D03*
X126111000Y-56950000D03*
D19*
X135636000Y-56515000D03*
D20*
X129286000Y-56515000D03*
D19*
X115570000Y-56515000D03*
D20*
X109220000Y-56515000D03*
D18*
X106045000Y-56950000D03*
X101600000Y-56950000D03*
X106045000Y-71320000D03*
X101600000Y-71320000D03*
X115570000Y-71320000D03*
X111125000Y-71320000D03*
D17*
X115770000Y-66675000D03*
X115770000Y-61595000D03*
X101400000Y-61595000D03*
X101400000Y-66675000D03*
D13*
X113665000Y-64135000D03*
D14*
X111125000Y-59055000D03*
D15*
X108585000Y-64135000D03*
D14*
X104775000Y-61595000D03*
D13*
X103505000Y-64135000D03*
D16*
X109855000Y-69215000D03*
X107315000Y-69215000D03*
M02*
