G04 #@! TF.FileFunction,Profile,NP*
%FSLAX46Y46*%
G04 Gerber Fmt 4.6, Leading zero omitted, Abs format (unit mm)*
G04 Created by KiCad (PCBNEW 4.0.2-stable) date 2016/07/17 14:51:38*
%MOMM*%
G01*
G04 APERTURE LIST*
%ADD10C,0.100000*%
G04 APERTURE END LIST*
D10*
X190246000Y-134874000D02*
X198374000Y-134874000D01*
X179324000Y-134874000D02*
X187452000Y-134874000D01*
X170180000Y-134874000D02*
X178308000Y-134874000D01*
X159258000Y-134874000D02*
X167386000Y-134874000D01*
X150114000Y-134874000D02*
X158242000Y-134874000D01*
X139192000Y-134874000D02*
X147320000Y-134874000D01*
X130048000Y-134874000D02*
X138176000Y-134874000D01*
X119126000Y-134874000D02*
X127254000Y-134874000D01*
X109982000Y-134874000D02*
X118110000Y-134874000D01*
X99060000Y-134874000D02*
X107188000Y-134874000D01*
X179324000Y-153924000D02*
X198374000Y-153924000D01*
X159258000Y-153924000D02*
X178308000Y-153924000D01*
X139192000Y-153924000D02*
X158242000Y-153924000D01*
X119126000Y-153924000D02*
X138176000Y-153924000D01*
X99060000Y-153924000D02*
X118110000Y-153924000D01*
X99060000Y-153924000D02*
X99060000Y-134874000D01*
X118110000Y-143002000D02*
G75*
G03X118618000Y-143510000I508000J0D01*
G01*
X118618000Y-143510000D02*
G75*
G03X119126000Y-143002000I0J508000D01*
G01*
X118618000Y-145288000D02*
G75*
G03X118110000Y-145796000I0J-508000D01*
G01*
X119126000Y-145796000D02*
G75*
G03X118618000Y-145288000I-508000J0D01*
G01*
X118110000Y-134874000D02*
X118110000Y-143002000D01*
X118110000Y-145796000D02*
X118110000Y-153924000D01*
X138176000Y-145796000D02*
X138176000Y-153924000D01*
X138176000Y-134874000D02*
X138176000Y-143002000D01*
X139192000Y-145796000D02*
G75*
G03X138684000Y-145288000I-508000J0D01*
G01*
X138684000Y-145288000D02*
G75*
G03X138176000Y-145796000I0J-508000D01*
G01*
X138684000Y-143510000D02*
G75*
G03X139192000Y-143002000I0J508000D01*
G01*
X138176000Y-143002000D02*
G75*
G03X138684000Y-143510000I508000J0D01*
G01*
X178308000Y-143002000D02*
G75*
G03X178816000Y-143510000I508000J0D01*
G01*
X178816000Y-143510000D02*
G75*
G03X179324000Y-143002000I0J508000D01*
G01*
X178816000Y-145288000D02*
G75*
G03X178308000Y-145796000I0J-508000D01*
G01*
X179324000Y-145796000D02*
G75*
G03X178816000Y-145288000I-508000J0D01*
G01*
X178308000Y-134874000D02*
X178308000Y-143002000D01*
X178308000Y-145796000D02*
X178308000Y-153924000D01*
X158242000Y-145796000D02*
X158242000Y-153924000D01*
X158242000Y-134874000D02*
X158242000Y-143002000D01*
X159258000Y-145796000D02*
G75*
G03X158750000Y-145288000I-508000J0D01*
G01*
X158750000Y-145288000D02*
G75*
G03X158242000Y-145796000I0J-508000D01*
G01*
X158750000Y-143510000D02*
G75*
G03X159258000Y-143002000I0J508000D01*
G01*
X158242000Y-143002000D02*
G75*
G03X158750000Y-143510000I508000J0D01*
G01*
X119126000Y-134874000D02*
X119126000Y-143002000D01*
X119126000Y-145796000D02*
X119126000Y-153924000D01*
X139192000Y-134874000D02*
X139192000Y-143002000D01*
X139192000Y-145796000D02*
X139192000Y-153924000D01*
X159258000Y-134874000D02*
X159258000Y-143002000D01*
X159258000Y-145796000D02*
X159258000Y-153924000D01*
X179324000Y-134874000D02*
X179324000Y-143002000D01*
X179324000Y-145796000D02*
X179324000Y-153924000D01*
X198374000Y-134874000D02*
X198374000Y-153924000D01*
X190246000Y-114808000D02*
X198374000Y-114808000D01*
X179324000Y-114808000D02*
X187452000Y-114808000D01*
X170180000Y-114808000D02*
X178308000Y-114808000D01*
X159258000Y-114808000D02*
X167386000Y-114808000D01*
X150114000Y-114808000D02*
X158242000Y-114808000D01*
X139192000Y-114808000D02*
X147320000Y-114808000D01*
X130048000Y-114808000D02*
X138176000Y-114808000D01*
X119126000Y-114808000D02*
X127254000Y-114808000D01*
X109982000Y-114808000D02*
X118110000Y-114808000D01*
X99060000Y-114808000D02*
X107188000Y-114808000D01*
X190246000Y-94742000D02*
X198374000Y-94742000D01*
X179324000Y-94742000D02*
X187452000Y-94742000D01*
X170180000Y-94742000D02*
X178308000Y-94742000D01*
X159258000Y-94742000D02*
X167386000Y-94742000D01*
X150114000Y-94742000D02*
X158242000Y-94742000D01*
X139192000Y-94742000D02*
X147320000Y-94742000D01*
X130048000Y-94742000D02*
X138176000Y-94742000D01*
X119126000Y-94742000D02*
X127254000Y-94742000D01*
X109982000Y-94742000D02*
X118110000Y-94742000D01*
X99060000Y-94742000D02*
X107188000Y-94742000D01*
X107188000Y-74676000D02*
X99060000Y-74676000D01*
X118110000Y-74676000D02*
X109982000Y-74676000D01*
X127254000Y-74676000D02*
X119126000Y-74676000D01*
X138176000Y-74676000D02*
X130048000Y-74676000D01*
X147320000Y-74676000D02*
X139192000Y-74676000D01*
X158242000Y-74676000D02*
X150114000Y-74676000D01*
X167386000Y-74676000D02*
X159258000Y-74676000D01*
X178308000Y-74676000D02*
X170180000Y-74676000D01*
X187452000Y-74676000D02*
X179324000Y-74676000D01*
X198374000Y-74676000D02*
X190246000Y-74676000D01*
X99060000Y-113792000D02*
X99060000Y-94742000D01*
X118110000Y-102870000D02*
G75*
G03X118618000Y-103378000I508000J0D01*
G01*
X118618000Y-103378000D02*
G75*
G03X119126000Y-102870000I0J508000D01*
G01*
X118618000Y-105156000D02*
G75*
G03X118110000Y-105664000I0J-508000D01*
G01*
X119126000Y-105664000D02*
G75*
G03X118618000Y-105156000I-508000J0D01*
G01*
X107188000Y-114808000D02*
G75*
G03X107696000Y-114300000I0J508000D01*
G01*
X107696000Y-114300000D02*
G75*
G03X107188000Y-113792000I-508000J0D01*
G01*
X109982000Y-113792000D02*
G75*
G03X109474000Y-114300000I0J-508000D01*
G01*
X109474000Y-114300000D02*
G75*
G03X109982000Y-114808000I508000J0D01*
G01*
X118110000Y-94742000D02*
X118110000Y-102870000D01*
X118110000Y-105664000D02*
X118110000Y-113792000D01*
X118110000Y-113792000D02*
X109982000Y-113792000D01*
X99060000Y-113792000D02*
X107188000Y-113792000D01*
X119126000Y-113792000D02*
X127254000Y-113792000D01*
X138176000Y-113792000D02*
X130048000Y-113792000D01*
X138176000Y-105664000D02*
X138176000Y-113792000D01*
X138176000Y-94742000D02*
X138176000Y-102870000D01*
X129540000Y-114300000D02*
G75*
G03X130048000Y-114808000I508000J0D01*
G01*
X130048000Y-113792000D02*
G75*
G03X129540000Y-114300000I0J-508000D01*
G01*
X127762000Y-114300000D02*
G75*
G03X127254000Y-113792000I-508000J0D01*
G01*
X127254000Y-114808000D02*
G75*
G03X127762000Y-114300000I0J508000D01*
G01*
X139192000Y-105664000D02*
G75*
G03X138684000Y-105156000I-508000J0D01*
G01*
X138684000Y-105156000D02*
G75*
G03X138176000Y-105664000I0J-508000D01*
G01*
X138684000Y-103378000D02*
G75*
G03X139192000Y-102870000I0J508000D01*
G01*
X138176000Y-102870000D02*
G75*
G03X138684000Y-103378000I508000J0D01*
G01*
X178308000Y-102870000D02*
G75*
G03X178816000Y-103378000I508000J0D01*
G01*
X178816000Y-103378000D02*
G75*
G03X179324000Y-102870000I0J508000D01*
G01*
X178816000Y-105156000D02*
G75*
G03X178308000Y-105664000I0J-508000D01*
G01*
X179324000Y-105664000D02*
G75*
G03X178816000Y-105156000I-508000J0D01*
G01*
X167386000Y-114808000D02*
G75*
G03X167894000Y-114300000I0J508000D01*
G01*
X167894000Y-114300000D02*
G75*
G03X167386000Y-113792000I-508000J0D01*
G01*
X170180000Y-113792000D02*
G75*
G03X169672000Y-114300000I0J-508000D01*
G01*
X169672000Y-114300000D02*
G75*
G03X170180000Y-114808000I508000J0D01*
G01*
X178308000Y-94742000D02*
X178308000Y-102870000D01*
X178308000Y-105664000D02*
X178308000Y-113792000D01*
X178308000Y-113792000D02*
X170180000Y-113792000D01*
X159258000Y-113792000D02*
X167386000Y-113792000D01*
X139192000Y-113792000D02*
X147320000Y-113792000D01*
X158242000Y-113792000D02*
X150114000Y-113792000D01*
X158242000Y-105664000D02*
X158242000Y-113792000D01*
X158242000Y-94742000D02*
X158242000Y-102870000D01*
X149606000Y-114300000D02*
G75*
G03X150114000Y-114808000I508000J0D01*
G01*
X150114000Y-113792000D02*
G75*
G03X149606000Y-114300000I0J-508000D01*
G01*
X147828000Y-114300000D02*
G75*
G03X147320000Y-113792000I-508000J0D01*
G01*
X147320000Y-114808000D02*
G75*
G03X147828000Y-114300000I0J508000D01*
G01*
X159258000Y-105664000D02*
G75*
G03X158750000Y-105156000I-508000J0D01*
G01*
X158750000Y-105156000D02*
G75*
G03X158242000Y-105664000I0J-508000D01*
G01*
X158750000Y-103378000D02*
G75*
G03X159258000Y-102870000I0J508000D01*
G01*
X158242000Y-102870000D02*
G75*
G03X158750000Y-103378000I508000J0D01*
G01*
X179324000Y-113792000D02*
X187452000Y-113792000D01*
X198374000Y-113792000D02*
X190246000Y-113792000D01*
X189738000Y-114300000D02*
G75*
G03X190246000Y-114808000I508000J0D01*
G01*
X190246000Y-113792000D02*
G75*
G03X189738000Y-114300000I0J-508000D01*
G01*
X187960000Y-114300000D02*
G75*
G03X187452000Y-113792000I-508000J0D01*
G01*
X187452000Y-114808000D02*
G75*
G03X187960000Y-114300000I0J508000D01*
G01*
X119126000Y-94742000D02*
X119126000Y-102870000D01*
X119126000Y-105664000D02*
X119126000Y-113792000D01*
X139192000Y-94742000D02*
X139192000Y-102870000D01*
X139192000Y-105664000D02*
X139192000Y-113792000D01*
X159258000Y-94742000D02*
X159258000Y-102870000D01*
X159258000Y-105664000D02*
X159258000Y-113792000D01*
X179324000Y-94742000D02*
X179324000Y-102870000D01*
X179324000Y-105664000D02*
X179324000Y-113792000D01*
X198374000Y-94742000D02*
X198374000Y-113792000D01*
X198374000Y-114808000D02*
X198374000Y-133858000D01*
X179324000Y-125730000D02*
X179324000Y-133858000D01*
X179324000Y-114808000D02*
X179324000Y-122936000D01*
X159258000Y-125730000D02*
X159258000Y-133858000D01*
X159258000Y-114808000D02*
X159258000Y-122936000D01*
X139192000Y-125730000D02*
X139192000Y-133858000D01*
X139192000Y-114808000D02*
X139192000Y-122936000D01*
X119126000Y-125730000D02*
X119126000Y-133858000D01*
X119126000Y-114808000D02*
X119126000Y-122936000D01*
X187452000Y-134874000D02*
G75*
G03X187960000Y-134366000I0J508000D01*
G01*
X187960000Y-134366000D02*
G75*
G03X187452000Y-133858000I-508000J0D01*
G01*
X190246000Y-133858000D02*
G75*
G03X189738000Y-134366000I0J-508000D01*
G01*
X189738000Y-134366000D02*
G75*
G03X190246000Y-134874000I508000J0D01*
G01*
X198374000Y-133858000D02*
X190246000Y-133858000D01*
X179324000Y-133858000D02*
X187452000Y-133858000D01*
X158242000Y-122936000D02*
G75*
G03X158750000Y-123444000I508000J0D01*
G01*
X158750000Y-123444000D02*
G75*
G03X159258000Y-122936000I0J508000D01*
G01*
X158750000Y-125222000D02*
G75*
G03X158242000Y-125730000I0J-508000D01*
G01*
X159258000Y-125730000D02*
G75*
G03X158750000Y-125222000I-508000J0D01*
G01*
X147320000Y-134874000D02*
G75*
G03X147828000Y-134366000I0J508000D01*
G01*
X147828000Y-134366000D02*
G75*
G03X147320000Y-133858000I-508000J0D01*
G01*
X150114000Y-133858000D02*
G75*
G03X149606000Y-134366000I0J-508000D01*
G01*
X149606000Y-134366000D02*
G75*
G03X150114000Y-134874000I508000J0D01*
G01*
X158242000Y-114808000D02*
X158242000Y-122936000D01*
X158242000Y-125730000D02*
X158242000Y-133858000D01*
X158242000Y-133858000D02*
X150114000Y-133858000D01*
X139192000Y-133858000D02*
X147320000Y-133858000D01*
X159258000Y-133858000D02*
X167386000Y-133858000D01*
X178308000Y-133858000D02*
X170180000Y-133858000D01*
X178308000Y-125730000D02*
X178308000Y-133858000D01*
X178308000Y-114808000D02*
X178308000Y-122936000D01*
X169672000Y-134366000D02*
G75*
G03X170180000Y-134874000I508000J0D01*
G01*
X170180000Y-133858000D02*
G75*
G03X169672000Y-134366000I0J-508000D01*
G01*
X167894000Y-134366000D02*
G75*
G03X167386000Y-133858000I-508000J0D01*
G01*
X167386000Y-134874000D02*
G75*
G03X167894000Y-134366000I0J508000D01*
G01*
X179324000Y-125730000D02*
G75*
G03X178816000Y-125222000I-508000J0D01*
G01*
X178816000Y-125222000D02*
G75*
G03X178308000Y-125730000I0J-508000D01*
G01*
X178816000Y-123444000D02*
G75*
G03X179324000Y-122936000I0J508000D01*
G01*
X178308000Y-122936000D02*
G75*
G03X178816000Y-123444000I508000J0D01*
G01*
X138176000Y-122936000D02*
G75*
G03X138684000Y-123444000I508000J0D01*
G01*
X138684000Y-123444000D02*
G75*
G03X139192000Y-122936000I0J508000D01*
G01*
X138684000Y-125222000D02*
G75*
G03X138176000Y-125730000I0J-508000D01*
G01*
X139192000Y-125730000D02*
G75*
G03X138684000Y-125222000I-508000J0D01*
G01*
X127254000Y-134874000D02*
G75*
G03X127762000Y-134366000I0J508000D01*
G01*
X127762000Y-134366000D02*
G75*
G03X127254000Y-133858000I-508000J0D01*
G01*
X130048000Y-133858000D02*
G75*
G03X129540000Y-134366000I0J-508000D01*
G01*
X129540000Y-134366000D02*
G75*
G03X130048000Y-134874000I508000J0D01*
G01*
X138176000Y-114808000D02*
X138176000Y-122936000D01*
X138176000Y-125730000D02*
X138176000Y-133858000D01*
X138176000Y-133858000D02*
X130048000Y-133858000D01*
X119126000Y-133858000D02*
X127254000Y-133858000D01*
X99060000Y-133858000D02*
X107188000Y-133858000D01*
X118110000Y-133858000D02*
X109982000Y-133858000D01*
X118110000Y-125730000D02*
X118110000Y-133858000D01*
X118110000Y-114808000D02*
X118110000Y-122936000D01*
X109474000Y-134366000D02*
G75*
G03X109982000Y-134874000I508000J0D01*
G01*
X109982000Y-133858000D02*
G75*
G03X109474000Y-134366000I0J-508000D01*
G01*
X107696000Y-134366000D02*
G75*
G03X107188000Y-133858000I-508000J0D01*
G01*
X107188000Y-134874000D02*
G75*
G03X107696000Y-134366000I0J508000D01*
G01*
X119126000Y-125730000D02*
G75*
G03X118618000Y-125222000I-508000J0D01*
G01*
X118618000Y-125222000D02*
G75*
G03X118110000Y-125730000I0J-508000D01*
G01*
X118618000Y-123444000D02*
G75*
G03X119126000Y-122936000I0J508000D01*
G01*
X118110000Y-122936000D02*
G75*
G03X118618000Y-123444000I508000J0D01*
G01*
X99060000Y-133858000D02*
X99060000Y-114808000D01*
X99060000Y-93726000D02*
X99060000Y-74676000D01*
X118110000Y-82804000D02*
G75*
G03X118618000Y-83312000I508000J0D01*
G01*
X118618000Y-83312000D02*
G75*
G03X119126000Y-82804000I0J508000D01*
G01*
X118618000Y-85090000D02*
G75*
G03X118110000Y-85598000I0J-508000D01*
G01*
X119126000Y-85598000D02*
G75*
G03X118618000Y-85090000I-508000J0D01*
G01*
X107188000Y-94742000D02*
G75*
G03X107696000Y-94234000I0J508000D01*
G01*
X107696000Y-94234000D02*
G75*
G03X107188000Y-93726000I-508000J0D01*
G01*
X109982000Y-93726000D02*
G75*
G03X109474000Y-94234000I0J-508000D01*
G01*
X109474000Y-94234000D02*
G75*
G03X109982000Y-94742000I508000J0D01*
G01*
X118110000Y-74676000D02*
X118110000Y-82804000D01*
X118110000Y-85598000D02*
X118110000Y-93726000D01*
X118110000Y-93726000D02*
X109982000Y-93726000D01*
X99060000Y-93726000D02*
X107188000Y-93726000D01*
X119126000Y-93726000D02*
X127254000Y-93726000D01*
X138176000Y-93726000D02*
X130048000Y-93726000D01*
X138176000Y-85598000D02*
X138176000Y-93726000D01*
X138176000Y-74676000D02*
X138176000Y-82804000D01*
X129540000Y-94234000D02*
G75*
G03X130048000Y-94742000I508000J0D01*
G01*
X130048000Y-93726000D02*
G75*
G03X129540000Y-94234000I0J-508000D01*
G01*
X127762000Y-94234000D02*
G75*
G03X127254000Y-93726000I-508000J0D01*
G01*
X127254000Y-94742000D02*
G75*
G03X127762000Y-94234000I0J508000D01*
G01*
X139192000Y-85598000D02*
G75*
G03X138684000Y-85090000I-508000J0D01*
G01*
X138684000Y-85090000D02*
G75*
G03X138176000Y-85598000I0J-508000D01*
G01*
X138684000Y-83312000D02*
G75*
G03X139192000Y-82804000I0J508000D01*
G01*
X138176000Y-82804000D02*
G75*
G03X138684000Y-83312000I508000J0D01*
G01*
X178308000Y-82804000D02*
G75*
G03X178816000Y-83312000I508000J0D01*
G01*
X178816000Y-83312000D02*
G75*
G03X179324000Y-82804000I0J508000D01*
G01*
X178816000Y-85090000D02*
G75*
G03X178308000Y-85598000I0J-508000D01*
G01*
X179324000Y-85598000D02*
G75*
G03X178816000Y-85090000I-508000J0D01*
G01*
X167386000Y-94742000D02*
G75*
G03X167894000Y-94234000I0J508000D01*
G01*
X167894000Y-94234000D02*
G75*
G03X167386000Y-93726000I-508000J0D01*
G01*
X170180000Y-93726000D02*
G75*
G03X169672000Y-94234000I0J-508000D01*
G01*
X169672000Y-94234000D02*
G75*
G03X170180000Y-94742000I508000J0D01*
G01*
X178308000Y-74676000D02*
X178308000Y-82804000D01*
X178308000Y-85598000D02*
X178308000Y-93726000D01*
X178308000Y-93726000D02*
X170180000Y-93726000D01*
X159258000Y-93726000D02*
X167386000Y-93726000D01*
X139192000Y-93726000D02*
X147320000Y-93726000D01*
X158242000Y-93726000D02*
X150114000Y-93726000D01*
X158242000Y-85598000D02*
X158242000Y-93726000D01*
X158242000Y-74676000D02*
X158242000Y-82804000D01*
X149606000Y-94234000D02*
G75*
G03X150114000Y-94742000I508000J0D01*
G01*
X150114000Y-93726000D02*
G75*
G03X149606000Y-94234000I0J-508000D01*
G01*
X147828000Y-94234000D02*
G75*
G03X147320000Y-93726000I-508000J0D01*
G01*
X147320000Y-94742000D02*
G75*
G03X147828000Y-94234000I0J508000D01*
G01*
X159258000Y-85598000D02*
G75*
G03X158750000Y-85090000I-508000J0D01*
G01*
X158750000Y-85090000D02*
G75*
G03X158242000Y-85598000I0J-508000D01*
G01*
X158750000Y-83312000D02*
G75*
G03X159258000Y-82804000I0J508000D01*
G01*
X158242000Y-82804000D02*
G75*
G03X158750000Y-83312000I508000J0D01*
G01*
X179324000Y-93726000D02*
X187452000Y-93726000D01*
X198374000Y-93726000D02*
X190246000Y-93726000D01*
X189738000Y-94234000D02*
G75*
G03X190246000Y-94742000I508000J0D01*
G01*
X190246000Y-93726000D02*
G75*
G03X189738000Y-94234000I0J-508000D01*
G01*
X187960000Y-94234000D02*
G75*
G03X187452000Y-93726000I-508000J0D01*
G01*
X187452000Y-94742000D02*
G75*
G03X187960000Y-94234000I0J508000D01*
G01*
X119126000Y-74676000D02*
X119126000Y-82804000D01*
X119126000Y-85598000D02*
X119126000Y-93726000D01*
X139192000Y-74676000D02*
X139192000Y-82804000D01*
X139192000Y-85598000D02*
X139192000Y-93726000D01*
X159258000Y-74676000D02*
X159258000Y-82804000D01*
X159258000Y-85598000D02*
X159258000Y-93726000D01*
X179324000Y-74676000D02*
X179324000Y-82804000D01*
X179324000Y-85598000D02*
X179324000Y-93726000D01*
X198374000Y-74676000D02*
X198374000Y-93726000D01*
X198374000Y-54610000D02*
X198374000Y-73660000D01*
X179324000Y-65532000D02*
X179324000Y-73660000D01*
X179324000Y-54610000D02*
X179324000Y-62738000D01*
X159258000Y-65532000D02*
X159258000Y-73660000D01*
X159258000Y-54610000D02*
X159258000Y-62738000D01*
X139192000Y-65532000D02*
X139192000Y-73660000D01*
X139192000Y-54610000D02*
X139192000Y-62738000D01*
X119126000Y-65532000D02*
X119126000Y-73660000D01*
X119126000Y-54610000D02*
X119126000Y-62738000D01*
X179324000Y-54610000D02*
X198374000Y-54610000D01*
X187452000Y-74676000D02*
G75*
G03X187960000Y-74168000I0J508000D01*
G01*
X187960000Y-74168000D02*
G75*
G03X187452000Y-73660000I-508000J0D01*
G01*
X190246000Y-73660000D02*
G75*
G03X189738000Y-74168000I0J-508000D01*
G01*
X189738000Y-74168000D02*
G75*
G03X190246000Y-74676000I508000J0D01*
G01*
X198374000Y-73660000D02*
X190246000Y-73660000D01*
X179324000Y-73660000D02*
X187452000Y-73660000D01*
X139192000Y-54610000D02*
X158242000Y-54610000D01*
X158242000Y-62738000D02*
G75*
G03X158750000Y-63246000I508000J0D01*
G01*
X158750000Y-63246000D02*
G75*
G03X159258000Y-62738000I0J508000D01*
G01*
X158750000Y-65024000D02*
G75*
G03X158242000Y-65532000I0J-508000D01*
G01*
X159258000Y-65532000D02*
G75*
G03X158750000Y-65024000I-508000J0D01*
G01*
X147320000Y-74676000D02*
G75*
G03X147828000Y-74168000I0J508000D01*
G01*
X147828000Y-74168000D02*
G75*
G03X147320000Y-73660000I-508000J0D01*
G01*
X150114000Y-73660000D02*
G75*
G03X149606000Y-74168000I0J-508000D01*
G01*
X149606000Y-74168000D02*
G75*
G03X150114000Y-74676000I508000J0D01*
G01*
X158242000Y-54610000D02*
X158242000Y-62738000D01*
X158242000Y-65532000D02*
X158242000Y-73660000D01*
X158242000Y-73660000D02*
X150114000Y-73660000D01*
X139192000Y-73660000D02*
X147320000Y-73660000D01*
X159258000Y-73660000D02*
X167386000Y-73660000D01*
X178308000Y-73660000D02*
X170180000Y-73660000D01*
X178308000Y-65532000D02*
X178308000Y-73660000D01*
X178308000Y-54610000D02*
X178308000Y-62738000D01*
X169672000Y-74168000D02*
G75*
G03X170180000Y-74676000I508000J0D01*
G01*
X170180000Y-73660000D02*
G75*
G03X169672000Y-74168000I0J-508000D01*
G01*
X167894000Y-74168000D02*
G75*
G03X167386000Y-73660000I-508000J0D01*
G01*
X167386000Y-74676000D02*
G75*
G03X167894000Y-74168000I0J508000D01*
G01*
X179324000Y-65532000D02*
G75*
G03X178816000Y-65024000I-508000J0D01*
G01*
X178816000Y-65024000D02*
G75*
G03X178308000Y-65532000I0J-508000D01*
G01*
X178816000Y-63246000D02*
G75*
G03X179324000Y-62738000I0J508000D01*
G01*
X178308000Y-62738000D02*
G75*
G03X178816000Y-63246000I508000J0D01*
G01*
X159258000Y-54610000D02*
X178308000Y-54610000D01*
X119126000Y-54610000D02*
X138176000Y-54610000D01*
X138176000Y-62738000D02*
G75*
G03X138684000Y-63246000I508000J0D01*
G01*
X138684000Y-63246000D02*
G75*
G03X139192000Y-62738000I0J508000D01*
G01*
X138684000Y-65024000D02*
G75*
G03X138176000Y-65532000I0J-508000D01*
G01*
X139192000Y-65532000D02*
G75*
G03X138684000Y-65024000I-508000J0D01*
G01*
X127254000Y-74676000D02*
G75*
G03X127762000Y-74168000I0J508000D01*
G01*
X127762000Y-74168000D02*
G75*
G03X127254000Y-73660000I-508000J0D01*
G01*
X130048000Y-73660000D02*
G75*
G03X129540000Y-74168000I0J-508000D01*
G01*
X129540000Y-74168000D02*
G75*
G03X130048000Y-74676000I508000J0D01*
G01*
X138176000Y-54610000D02*
X138176000Y-62738000D01*
X138176000Y-65532000D02*
X138176000Y-73660000D01*
X138176000Y-73660000D02*
X130048000Y-73660000D01*
X119126000Y-73660000D02*
X127254000Y-73660000D01*
X99060000Y-73660000D02*
X107188000Y-73660000D01*
X118110000Y-73660000D02*
X109982000Y-73660000D01*
X118110000Y-65532000D02*
X118110000Y-73660000D01*
X118110000Y-54610000D02*
X118110000Y-62738000D01*
X109474000Y-74168000D02*
G75*
G03X109982000Y-74676000I508000J0D01*
G01*
X109982000Y-73660000D02*
G75*
G03X109474000Y-74168000I0J-508000D01*
G01*
X107696000Y-74168000D02*
G75*
G03X107188000Y-73660000I-508000J0D01*
G01*
X107188000Y-74676000D02*
G75*
G03X107696000Y-74168000I0J508000D01*
G01*
X119126000Y-65532000D02*
G75*
G03X118618000Y-65024000I-508000J0D01*
G01*
X118618000Y-65024000D02*
G75*
G03X118110000Y-65532000I0J-508000D01*
G01*
X118618000Y-63246000D02*
G75*
G03X119126000Y-62738000I0J508000D01*
G01*
X118110000Y-62738000D02*
G75*
G03X118618000Y-63246000I508000J0D01*
G01*
X99060000Y-73660000D02*
X99060000Y-54610000D01*
X99060000Y-54610000D02*
X118110000Y-54610000D01*
M02*
