G04 #@! TF.FileFunction,Copper,L1,Top,Signal*
%FSLAX46Y46*%
G04 Gerber Fmt 4.6, Leading zero omitted, Abs format (unit mm)*
G04 Created by KiCad (PCBNEW 4.0.2-stable) date 2016/07/17 14:51:38*
%MOMM*%
G01*
G04 APERTURE LIST*
%ADD10C,0.100000*%
%ADD11C,2.500000*%
%ADD12O,1.600000X1.800000*%
%ADD13O,1.800000X1.600000*%
%ADD14C,1.400000*%
%ADD15R,1.400000X1.400000*%
%ADD16C,0.400000*%
G04 APERTURE END LIST*
D10*
D11*
X111125000Y-139319000D03*
X104775000Y-141859000D03*
D12*
X101400000Y-146939000D03*
X101400000Y-141859000D03*
X115770000Y-141859000D03*
X115770000Y-146939000D03*
D13*
X111125000Y-151584000D03*
X115570000Y-151584000D03*
X101600000Y-151584000D03*
X106045000Y-151584000D03*
X101600000Y-137214000D03*
X106045000Y-137214000D03*
D14*
X115570000Y-136779000D03*
D15*
X109220000Y-136779000D03*
D14*
X135636000Y-136779000D03*
D15*
X129286000Y-136779000D03*
D13*
X126111000Y-137214000D03*
X121666000Y-137214000D03*
X126111000Y-151584000D03*
X121666000Y-151584000D03*
X135636000Y-151584000D03*
X131191000Y-151584000D03*
D12*
X135836000Y-146939000D03*
X135836000Y-141859000D03*
X121466000Y-141859000D03*
X121466000Y-146939000D03*
D11*
X131191000Y-139319000D03*
X124841000Y-141859000D03*
X171323000Y-139319000D03*
X164973000Y-141859000D03*
D12*
X161598000Y-146939000D03*
X161598000Y-141859000D03*
X175968000Y-141859000D03*
X175968000Y-146939000D03*
D13*
X171323000Y-151584000D03*
X175768000Y-151584000D03*
X161798000Y-151584000D03*
X166243000Y-151584000D03*
X161798000Y-137214000D03*
X166243000Y-137214000D03*
D14*
X175768000Y-136779000D03*
D15*
X169418000Y-136779000D03*
D14*
X155702000Y-136779000D03*
D15*
X149352000Y-136779000D03*
D13*
X146177000Y-137214000D03*
X141732000Y-137214000D03*
X146177000Y-151584000D03*
X141732000Y-151584000D03*
X155702000Y-151584000D03*
X151257000Y-151584000D03*
D12*
X155902000Y-146939000D03*
X155902000Y-141859000D03*
X141532000Y-141859000D03*
X141532000Y-146939000D03*
D11*
X151257000Y-139319000D03*
X144907000Y-141859000D03*
D14*
X195834000Y-136779000D03*
D15*
X189484000Y-136779000D03*
D13*
X186309000Y-137214000D03*
X181864000Y-137214000D03*
X186309000Y-151584000D03*
X181864000Y-151584000D03*
X195834000Y-151584000D03*
X191389000Y-151584000D03*
D12*
X196034000Y-146939000D03*
X196034000Y-141859000D03*
X181664000Y-141859000D03*
X181664000Y-146939000D03*
D11*
X191389000Y-139319000D03*
X185039000Y-141859000D03*
X111125000Y-99187000D03*
X104775000Y-101727000D03*
D12*
X101400000Y-106807000D03*
X101400000Y-101727000D03*
X115770000Y-101727000D03*
X115770000Y-106807000D03*
D13*
X111125000Y-111452000D03*
X115570000Y-111452000D03*
X101600000Y-111452000D03*
X106045000Y-111452000D03*
X101600000Y-97082000D03*
X106045000Y-97082000D03*
D14*
X115570000Y-96647000D03*
D15*
X109220000Y-96647000D03*
D14*
X135636000Y-96647000D03*
D15*
X129286000Y-96647000D03*
D13*
X126111000Y-97082000D03*
X121666000Y-97082000D03*
X126111000Y-111452000D03*
X121666000Y-111452000D03*
X135636000Y-111452000D03*
X131191000Y-111452000D03*
D12*
X135836000Y-106807000D03*
X135836000Y-101727000D03*
X121466000Y-101727000D03*
X121466000Y-106807000D03*
D11*
X131191000Y-99187000D03*
X124841000Y-101727000D03*
X171323000Y-99187000D03*
X164973000Y-101727000D03*
D12*
X161598000Y-106807000D03*
X161598000Y-101727000D03*
X175968000Y-101727000D03*
X175968000Y-106807000D03*
D13*
X171323000Y-111452000D03*
X175768000Y-111452000D03*
X161798000Y-111452000D03*
X166243000Y-111452000D03*
X161798000Y-97082000D03*
X166243000Y-97082000D03*
D14*
X175768000Y-96647000D03*
D15*
X169418000Y-96647000D03*
D14*
X155702000Y-96647000D03*
D15*
X149352000Y-96647000D03*
D13*
X146177000Y-97082000D03*
X141732000Y-97082000D03*
X146177000Y-111452000D03*
X141732000Y-111452000D03*
X155702000Y-111452000D03*
X151257000Y-111452000D03*
D12*
X155902000Y-106807000D03*
X155902000Y-101727000D03*
X141532000Y-101727000D03*
X141532000Y-106807000D03*
D11*
X151257000Y-99187000D03*
X144907000Y-101727000D03*
D14*
X195834000Y-96647000D03*
D15*
X189484000Y-96647000D03*
D13*
X186309000Y-97082000D03*
X181864000Y-97082000D03*
X186309000Y-111452000D03*
X181864000Y-111452000D03*
X195834000Y-111452000D03*
X191389000Y-111452000D03*
D12*
X196034000Y-106807000D03*
X196034000Y-101727000D03*
X181664000Y-101727000D03*
X181664000Y-106807000D03*
D11*
X191389000Y-99187000D03*
X185039000Y-101727000D03*
X191389000Y-119253000D03*
X185039000Y-121793000D03*
D12*
X181664000Y-126873000D03*
X181664000Y-121793000D03*
X196034000Y-121793000D03*
X196034000Y-126873000D03*
D13*
X191389000Y-131518000D03*
X195834000Y-131518000D03*
X181864000Y-131518000D03*
X186309000Y-131518000D03*
X181864000Y-117148000D03*
X186309000Y-117148000D03*
D14*
X195834000Y-116713000D03*
D15*
X189484000Y-116713000D03*
D11*
X151257000Y-119253000D03*
X144907000Y-121793000D03*
D12*
X141532000Y-126873000D03*
X141532000Y-121793000D03*
X155902000Y-121793000D03*
X155902000Y-126873000D03*
D13*
X151257000Y-131518000D03*
X155702000Y-131518000D03*
X141732000Y-131518000D03*
X146177000Y-131518000D03*
X141732000Y-117148000D03*
X146177000Y-117148000D03*
D14*
X155702000Y-116713000D03*
D15*
X149352000Y-116713000D03*
D14*
X175768000Y-116713000D03*
D15*
X169418000Y-116713000D03*
D13*
X166243000Y-117148000D03*
X161798000Y-117148000D03*
X166243000Y-131518000D03*
X161798000Y-131518000D03*
X175768000Y-131518000D03*
X171323000Y-131518000D03*
D12*
X175968000Y-126873000D03*
X175968000Y-121793000D03*
X161598000Y-121793000D03*
X161598000Y-126873000D03*
D11*
X171323000Y-119253000D03*
X164973000Y-121793000D03*
X131191000Y-119253000D03*
X124841000Y-121793000D03*
D12*
X121466000Y-126873000D03*
X121466000Y-121793000D03*
X135836000Y-121793000D03*
X135836000Y-126873000D03*
D13*
X131191000Y-131518000D03*
X135636000Y-131518000D03*
X121666000Y-131518000D03*
X126111000Y-131518000D03*
X121666000Y-117148000D03*
X126111000Y-117148000D03*
D14*
X135636000Y-116713000D03*
D15*
X129286000Y-116713000D03*
D14*
X115570000Y-116713000D03*
D15*
X109220000Y-116713000D03*
D13*
X106045000Y-117148000D03*
X101600000Y-117148000D03*
X106045000Y-131518000D03*
X101600000Y-131518000D03*
X115570000Y-131518000D03*
X111125000Y-131518000D03*
D12*
X115770000Y-126873000D03*
X115770000Y-121793000D03*
X101400000Y-121793000D03*
X101400000Y-126873000D03*
D11*
X111125000Y-119253000D03*
X104775000Y-121793000D03*
X111125000Y-79121000D03*
X104775000Y-81661000D03*
D12*
X101400000Y-86741000D03*
X101400000Y-81661000D03*
X115770000Y-81661000D03*
X115770000Y-86741000D03*
D13*
X111125000Y-91386000D03*
X115570000Y-91386000D03*
X101600000Y-91386000D03*
X106045000Y-91386000D03*
X101600000Y-77016000D03*
X106045000Y-77016000D03*
D14*
X115570000Y-76581000D03*
D15*
X109220000Y-76581000D03*
D14*
X135636000Y-76581000D03*
D15*
X129286000Y-76581000D03*
D13*
X126111000Y-77016000D03*
X121666000Y-77016000D03*
X126111000Y-91386000D03*
X121666000Y-91386000D03*
X135636000Y-91386000D03*
X131191000Y-91386000D03*
D12*
X135836000Y-86741000D03*
X135836000Y-81661000D03*
X121466000Y-81661000D03*
X121466000Y-86741000D03*
D11*
X131191000Y-79121000D03*
X124841000Y-81661000D03*
X171323000Y-79121000D03*
X164973000Y-81661000D03*
D12*
X161598000Y-86741000D03*
X161598000Y-81661000D03*
X175968000Y-81661000D03*
X175968000Y-86741000D03*
D13*
X171323000Y-91386000D03*
X175768000Y-91386000D03*
X161798000Y-91386000D03*
X166243000Y-91386000D03*
X161798000Y-77016000D03*
X166243000Y-77016000D03*
D14*
X175768000Y-76581000D03*
D15*
X169418000Y-76581000D03*
D14*
X155702000Y-76581000D03*
D15*
X149352000Y-76581000D03*
D13*
X146177000Y-77016000D03*
X141732000Y-77016000D03*
X146177000Y-91386000D03*
X141732000Y-91386000D03*
X155702000Y-91386000D03*
X151257000Y-91386000D03*
D12*
X155902000Y-86741000D03*
X155902000Y-81661000D03*
X141532000Y-81661000D03*
X141532000Y-86741000D03*
D11*
X151257000Y-79121000D03*
X144907000Y-81661000D03*
D14*
X195834000Y-76581000D03*
D15*
X189484000Y-76581000D03*
D13*
X186309000Y-77016000D03*
X181864000Y-77016000D03*
X186309000Y-91386000D03*
X181864000Y-91386000D03*
X195834000Y-91386000D03*
X191389000Y-91386000D03*
D12*
X196034000Y-86741000D03*
X196034000Y-81661000D03*
X181664000Y-81661000D03*
X181664000Y-86741000D03*
D11*
X191389000Y-79121000D03*
X185039000Y-81661000D03*
X191389000Y-59055000D03*
X185039000Y-61595000D03*
D12*
X181664000Y-66675000D03*
X181664000Y-61595000D03*
X196034000Y-61595000D03*
X196034000Y-66675000D03*
D13*
X191389000Y-71320000D03*
X195834000Y-71320000D03*
X181864000Y-71320000D03*
X186309000Y-71320000D03*
X181864000Y-56950000D03*
X186309000Y-56950000D03*
D14*
X195834000Y-56515000D03*
D15*
X189484000Y-56515000D03*
D11*
X151257000Y-59055000D03*
X144907000Y-61595000D03*
D12*
X141532000Y-66675000D03*
X141532000Y-61595000D03*
X155902000Y-61595000D03*
X155902000Y-66675000D03*
D13*
X151257000Y-71320000D03*
X155702000Y-71320000D03*
X141732000Y-71320000D03*
X146177000Y-71320000D03*
X141732000Y-56950000D03*
X146177000Y-56950000D03*
D14*
X155702000Y-56515000D03*
D15*
X149352000Y-56515000D03*
D14*
X175768000Y-56515000D03*
D15*
X169418000Y-56515000D03*
D13*
X166243000Y-56950000D03*
X161798000Y-56950000D03*
X166243000Y-71320000D03*
X161798000Y-71320000D03*
X175768000Y-71320000D03*
X171323000Y-71320000D03*
D12*
X175968000Y-66675000D03*
X175968000Y-61595000D03*
X161598000Y-61595000D03*
X161598000Y-66675000D03*
D11*
X171323000Y-59055000D03*
X164973000Y-61595000D03*
X131191000Y-59055000D03*
X124841000Y-61595000D03*
D12*
X121466000Y-66675000D03*
X121466000Y-61595000D03*
X135836000Y-61595000D03*
X135836000Y-66675000D03*
D13*
X131191000Y-71320000D03*
X135636000Y-71320000D03*
X121666000Y-71320000D03*
X126111000Y-71320000D03*
X121666000Y-56950000D03*
X126111000Y-56950000D03*
D14*
X135636000Y-56515000D03*
D15*
X129286000Y-56515000D03*
D14*
X115570000Y-56515000D03*
D15*
X109220000Y-56515000D03*
D13*
X106045000Y-56950000D03*
X101600000Y-56950000D03*
X106045000Y-71320000D03*
X101600000Y-71320000D03*
X115570000Y-71320000D03*
X111125000Y-71320000D03*
D12*
X115770000Y-66675000D03*
X115770000Y-61595000D03*
X101400000Y-61595000D03*
X101400000Y-66675000D03*
D11*
X111125000Y-59055000D03*
X104775000Y-61595000D03*
D16*
X115570000Y-137414000D02*
X115570000Y-136779000D01*
X113665000Y-139319000D02*
X115570000Y-137414000D01*
X111125000Y-139319000D02*
X113665000Y-139319000D01*
X131191000Y-139319000D02*
X133731000Y-139319000D01*
X133731000Y-139319000D02*
X135636000Y-137414000D01*
X135636000Y-137414000D02*
X135636000Y-136779000D01*
X175768000Y-137414000D02*
X175768000Y-136779000D01*
X173863000Y-139319000D02*
X175768000Y-137414000D01*
X171323000Y-139319000D02*
X173863000Y-139319000D01*
X151257000Y-139319000D02*
X153797000Y-139319000D01*
X153797000Y-139319000D02*
X155702000Y-137414000D01*
X155702000Y-137414000D02*
X155702000Y-136779000D01*
X191389000Y-139319000D02*
X193929000Y-139319000D01*
X193929000Y-139319000D02*
X195834000Y-137414000D01*
X195834000Y-137414000D02*
X195834000Y-136779000D01*
X115570000Y-97282000D02*
X115570000Y-96647000D01*
X113665000Y-99187000D02*
X115570000Y-97282000D01*
X111125000Y-99187000D02*
X113665000Y-99187000D01*
X131191000Y-99187000D02*
X133731000Y-99187000D01*
X133731000Y-99187000D02*
X135636000Y-97282000D01*
X135636000Y-97282000D02*
X135636000Y-96647000D01*
X175768000Y-97282000D02*
X175768000Y-96647000D01*
X173863000Y-99187000D02*
X175768000Y-97282000D01*
X171323000Y-99187000D02*
X173863000Y-99187000D01*
X151257000Y-99187000D02*
X153797000Y-99187000D01*
X153797000Y-99187000D02*
X155702000Y-97282000D01*
X155702000Y-97282000D02*
X155702000Y-96647000D01*
X191389000Y-99187000D02*
X193929000Y-99187000D01*
X193929000Y-99187000D02*
X195834000Y-97282000D01*
X195834000Y-97282000D02*
X195834000Y-96647000D01*
X195834000Y-117348000D02*
X195834000Y-116713000D01*
X193929000Y-119253000D02*
X195834000Y-117348000D01*
X191389000Y-119253000D02*
X193929000Y-119253000D01*
X155702000Y-117348000D02*
X155702000Y-116713000D01*
X153797000Y-119253000D02*
X155702000Y-117348000D01*
X151257000Y-119253000D02*
X153797000Y-119253000D01*
X171323000Y-119253000D02*
X173863000Y-119253000D01*
X173863000Y-119253000D02*
X175768000Y-117348000D01*
X175768000Y-117348000D02*
X175768000Y-116713000D01*
X135636000Y-117348000D02*
X135636000Y-116713000D01*
X133731000Y-119253000D02*
X135636000Y-117348000D01*
X131191000Y-119253000D02*
X133731000Y-119253000D01*
X111125000Y-119253000D02*
X113665000Y-119253000D01*
X113665000Y-119253000D02*
X115570000Y-117348000D01*
X115570000Y-117348000D02*
X115570000Y-116713000D01*
X115570000Y-77216000D02*
X115570000Y-76581000D01*
X113665000Y-79121000D02*
X115570000Y-77216000D01*
X111125000Y-79121000D02*
X113665000Y-79121000D01*
X131191000Y-79121000D02*
X133731000Y-79121000D01*
X133731000Y-79121000D02*
X135636000Y-77216000D01*
X135636000Y-77216000D02*
X135636000Y-76581000D01*
X175768000Y-77216000D02*
X175768000Y-76581000D01*
X173863000Y-79121000D02*
X175768000Y-77216000D01*
X171323000Y-79121000D02*
X173863000Y-79121000D01*
X151257000Y-79121000D02*
X153797000Y-79121000D01*
X153797000Y-79121000D02*
X155702000Y-77216000D01*
X155702000Y-77216000D02*
X155702000Y-76581000D01*
X191389000Y-79121000D02*
X193929000Y-79121000D01*
X193929000Y-79121000D02*
X195834000Y-77216000D01*
X195834000Y-77216000D02*
X195834000Y-76581000D01*
X195834000Y-57150000D02*
X195834000Y-56515000D01*
X193929000Y-59055000D02*
X195834000Y-57150000D01*
X191389000Y-59055000D02*
X193929000Y-59055000D01*
X155702000Y-57150000D02*
X155702000Y-56515000D01*
X153797000Y-59055000D02*
X155702000Y-57150000D01*
X151257000Y-59055000D02*
X153797000Y-59055000D01*
X171323000Y-59055000D02*
X173863000Y-59055000D01*
X173863000Y-59055000D02*
X175768000Y-57150000D01*
X175768000Y-57150000D02*
X175768000Y-56515000D01*
X135636000Y-57150000D02*
X135636000Y-56515000D01*
X133731000Y-59055000D02*
X135636000Y-57150000D01*
X131191000Y-59055000D02*
X133731000Y-59055000D01*
X111125000Y-59055000D02*
X113665000Y-59055000D01*
X113665000Y-59055000D02*
X115570000Y-57150000D01*
X115570000Y-57150000D02*
X115570000Y-56515000D01*
X101600000Y-138684000D02*
X104775000Y-141859000D01*
X101600000Y-137414000D02*
X101600000Y-138684000D01*
X106045000Y-137414000D02*
X101600000Y-137414000D01*
X101600000Y-151384000D02*
X106045000Y-151384000D01*
X106045000Y-151384000D02*
X111125000Y-151384000D01*
X111125000Y-151384000D02*
X115570000Y-151384000D01*
X105410000Y-143129000D02*
X105410000Y-148844000D01*
X105410000Y-148844000D02*
X106045000Y-149479000D01*
X106045000Y-149479000D02*
X106045000Y-151384000D01*
X104775000Y-142494000D02*
X105410000Y-143129000D01*
X104775000Y-141859000D02*
X104775000Y-142494000D01*
X124841000Y-141859000D02*
X124841000Y-142494000D01*
X124841000Y-142494000D02*
X125476000Y-143129000D01*
X126111000Y-149479000D02*
X126111000Y-151384000D01*
X125476000Y-148844000D02*
X126111000Y-149479000D01*
X125476000Y-143129000D02*
X125476000Y-148844000D01*
X131191000Y-151384000D02*
X135636000Y-151384000D01*
X126111000Y-151384000D02*
X131191000Y-151384000D01*
X121666000Y-151384000D02*
X126111000Y-151384000D01*
X126111000Y-137414000D02*
X121666000Y-137414000D01*
X121666000Y-137414000D02*
X121666000Y-138684000D01*
X121666000Y-138684000D02*
X124841000Y-141859000D01*
X161798000Y-138684000D02*
X164973000Y-141859000D01*
X161798000Y-137414000D02*
X161798000Y-138684000D01*
X166243000Y-137414000D02*
X161798000Y-137414000D01*
X161798000Y-151384000D02*
X166243000Y-151384000D01*
X166243000Y-151384000D02*
X171323000Y-151384000D01*
X171323000Y-151384000D02*
X175768000Y-151384000D01*
X165608000Y-143129000D02*
X165608000Y-148844000D01*
X165608000Y-148844000D02*
X166243000Y-149479000D01*
X166243000Y-149479000D02*
X166243000Y-151384000D01*
X164973000Y-142494000D02*
X165608000Y-143129000D01*
X164973000Y-141859000D02*
X164973000Y-142494000D01*
X144907000Y-141859000D02*
X144907000Y-142494000D01*
X144907000Y-142494000D02*
X145542000Y-143129000D01*
X146177000Y-149479000D02*
X146177000Y-151384000D01*
X145542000Y-148844000D02*
X146177000Y-149479000D01*
X145542000Y-143129000D02*
X145542000Y-148844000D01*
X151257000Y-151384000D02*
X155702000Y-151384000D01*
X146177000Y-151384000D02*
X151257000Y-151384000D01*
X141732000Y-151384000D02*
X146177000Y-151384000D01*
X146177000Y-137414000D02*
X141732000Y-137414000D01*
X141732000Y-137414000D02*
X141732000Y-138684000D01*
X141732000Y-138684000D02*
X144907000Y-141859000D01*
X186309000Y-149479000D02*
X186309000Y-151384000D01*
X191389000Y-151384000D02*
X195834000Y-151384000D01*
X186309000Y-151384000D02*
X191389000Y-151384000D01*
X181864000Y-151384000D02*
X186309000Y-151384000D01*
X186309000Y-137414000D02*
X181864000Y-137414000D01*
X181864000Y-137414000D02*
X181864000Y-138684000D01*
X181864000Y-138684000D02*
X185039000Y-141859000D01*
X185039000Y-141859000D02*
X185039000Y-142494000D01*
X185039000Y-142494000D02*
X185674000Y-143129000D01*
X185674000Y-148844000D02*
X186309000Y-149479000D01*
X185674000Y-143129000D02*
X185674000Y-148844000D01*
X101600000Y-98552000D02*
X104775000Y-101727000D01*
X101600000Y-97282000D02*
X101600000Y-98552000D01*
X106045000Y-97282000D02*
X101600000Y-97282000D01*
X101600000Y-111252000D02*
X106045000Y-111252000D01*
X106045000Y-111252000D02*
X111125000Y-111252000D01*
X111125000Y-111252000D02*
X115570000Y-111252000D01*
X105410000Y-102997000D02*
X105410000Y-108712000D01*
X105410000Y-108712000D02*
X106045000Y-109347000D01*
X106045000Y-109347000D02*
X106045000Y-111252000D01*
X104775000Y-102362000D02*
X105410000Y-102997000D01*
X104775000Y-101727000D02*
X104775000Y-102362000D01*
X124841000Y-101727000D02*
X124841000Y-102362000D01*
X124841000Y-102362000D02*
X125476000Y-102997000D01*
X126111000Y-109347000D02*
X126111000Y-111252000D01*
X125476000Y-108712000D02*
X126111000Y-109347000D01*
X125476000Y-102997000D02*
X125476000Y-108712000D01*
X131191000Y-111252000D02*
X135636000Y-111252000D01*
X126111000Y-111252000D02*
X131191000Y-111252000D01*
X121666000Y-111252000D02*
X126111000Y-111252000D01*
X126111000Y-97282000D02*
X121666000Y-97282000D01*
X121666000Y-97282000D02*
X121666000Y-98552000D01*
X121666000Y-98552000D02*
X124841000Y-101727000D01*
X161798000Y-98552000D02*
X164973000Y-101727000D01*
X161798000Y-97282000D02*
X161798000Y-98552000D01*
X166243000Y-97282000D02*
X161798000Y-97282000D01*
X161798000Y-111252000D02*
X166243000Y-111252000D01*
X166243000Y-111252000D02*
X171323000Y-111252000D01*
X171323000Y-111252000D02*
X175768000Y-111252000D01*
X165608000Y-102997000D02*
X165608000Y-108712000D01*
X165608000Y-108712000D02*
X166243000Y-109347000D01*
X166243000Y-109347000D02*
X166243000Y-111252000D01*
X164973000Y-102362000D02*
X165608000Y-102997000D01*
X164973000Y-101727000D02*
X164973000Y-102362000D01*
X144907000Y-101727000D02*
X144907000Y-102362000D01*
X144907000Y-102362000D02*
X145542000Y-102997000D01*
X146177000Y-109347000D02*
X146177000Y-111252000D01*
X145542000Y-108712000D02*
X146177000Y-109347000D01*
X145542000Y-102997000D02*
X145542000Y-108712000D01*
X151257000Y-111252000D02*
X155702000Y-111252000D01*
X146177000Y-111252000D02*
X151257000Y-111252000D01*
X141732000Y-111252000D02*
X146177000Y-111252000D01*
X146177000Y-97282000D02*
X141732000Y-97282000D01*
X141732000Y-97282000D02*
X141732000Y-98552000D01*
X141732000Y-98552000D02*
X144907000Y-101727000D01*
X186309000Y-109347000D02*
X186309000Y-111252000D01*
X191389000Y-111252000D02*
X195834000Y-111252000D01*
X186309000Y-111252000D02*
X191389000Y-111252000D01*
X181864000Y-111252000D02*
X186309000Y-111252000D01*
X186309000Y-97282000D02*
X181864000Y-97282000D01*
X181864000Y-97282000D02*
X181864000Y-98552000D01*
X181864000Y-98552000D02*
X185039000Y-101727000D01*
X185039000Y-101727000D02*
X185039000Y-102362000D01*
X185039000Y-102362000D02*
X185674000Y-102997000D01*
X185674000Y-108712000D02*
X186309000Y-109347000D01*
X185674000Y-102997000D02*
X185674000Y-108712000D01*
X185674000Y-123063000D02*
X185674000Y-128778000D01*
X185674000Y-128778000D02*
X186309000Y-129413000D01*
X185039000Y-122428000D02*
X185674000Y-123063000D01*
X185039000Y-121793000D02*
X185039000Y-122428000D01*
X181864000Y-118618000D02*
X185039000Y-121793000D01*
X181864000Y-117348000D02*
X181864000Y-118618000D01*
X186309000Y-117348000D02*
X181864000Y-117348000D01*
X181864000Y-131318000D02*
X186309000Y-131318000D01*
X186309000Y-131318000D02*
X191389000Y-131318000D01*
X191389000Y-131318000D02*
X195834000Y-131318000D01*
X186309000Y-129413000D02*
X186309000Y-131318000D01*
X141732000Y-118618000D02*
X144907000Y-121793000D01*
X141732000Y-117348000D02*
X141732000Y-118618000D01*
X146177000Y-117348000D02*
X141732000Y-117348000D01*
X141732000Y-131318000D02*
X146177000Y-131318000D01*
X146177000Y-131318000D02*
X151257000Y-131318000D01*
X151257000Y-131318000D02*
X155702000Y-131318000D01*
X145542000Y-123063000D02*
X145542000Y-128778000D01*
X145542000Y-128778000D02*
X146177000Y-129413000D01*
X146177000Y-129413000D02*
X146177000Y-131318000D01*
X144907000Y-122428000D02*
X145542000Y-123063000D01*
X144907000Y-121793000D02*
X144907000Y-122428000D01*
X164973000Y-121793000D02*
X164973000Y-122428000D01*
X164973000Y-122428000D02*
X165608000Y-123063000D01*
X166243000Y-129413000D02*
X166243000Y-131318000D01*
X165608000Y-128778000D02*
X166243000Y-129413000D01*
X165608000Y-123063000D02*
X165608000Y-128778000D01*
X171323000Y-131318000D02*
X175768000Y-131318000D01*
X166243000Y-131318000D02*
X171323000Y-131318000D01*
X161798000Y-131318000D02*
X166243000Y-131318000D01*
X166243000Y-117348000D02*
X161798000Y-117348000D01*
X161798000Y-117348000D02*
X161798000Y-118618000D01*
X161798000Y-118618000D02*
X164973000Y-121793000D01*
X121666000Y-118618000D02*
X124841000Y-121793000D01*
X121666000Y-117348000D02*
X121666000Y-118618000D01*
X126111000Y-117348000D02*
X121666000Y-117348000D01*
X121666000Y-131318000D02*
X126111000Y-131318000D01*
X126111000Y-131318000D02*
X131191000Y-131318000D01*
X131191000Y-131318000D02*
X135636000Y-131318000D01*
X125476000Y-123063000D02*
X125476000Y-128778000D01*
X125476000Y-128778000D02*
X126111000Y-129413000D01*
X126111000Y-129413000D02*
X126111000Y-131318000D01*
X124841000Y-122428000D02*
X125476000Y-123063000D01*
X124841000Y-121793000D02*
X124841000Y-122428000D01*
X104775000Y-121793000D02*
X104775000Y-122428000D01*
X104775000Y-122428000D02*
X105410000Y-123063000D01*
X106045000Y-129413000D02*
X106045000Y-131318000D01*
X105410000Y-128778000D02*
X106045000Y-129413000D01*
X105410000Y-123063000D02*
X105410000Y-128778000D01*
X111125000Y-131318000D02*
X115570000Y-131318000D01*
X106045000Y-131318000D02*
X111125000Y-131318000D01*
X101600000Y-131318000D02*
X106045000Y-131318000D01*
X106045000Y-117348000D02*
X101600000Y-117348000D01*
X101600000Y-117348000D02*
X101600000Y-118618000D01*
X101600000Y-118618000D02*
X104775000Y-121793000D01*
X101600000Y-78486000D02*
X104775000Y-81661000D01*
X101600000Y-77216000D02*
X101600000Y-78486000D01*
X106045000Y-77216000D02*
X101600000Y-77216000D01*
X101600000Y-91186000D02*
X106045000Y-91186000D01*
X106045000Y-91186000D02*
X111125000Y-91186000D01*
X111125000Y-91186000D02*
X115570000Y-91186000D01*
X105410000Y-82931000D02*
X105410000Y-88646000D01*
X105410000Y-88646000D02*
X106045000Y-89281000D01*
X106045000Y-89281000D02*
X106045000Y-91186000D01*
X104775000Y-82296000D02*
X105410000Y-82931000D01*
X104775000Y-81661000D02*
X104775000Y-82296000D01*
X124841000Y-81661000D02*
X124841000Y-82296000D01*
X124841000Y-82296000D02*
X125476000Y-82931000D01*
X126111000Y-89281000D02*
X126111000Y-91186000D01*
X125476000Y-88646000D02*
X126111000Y-89281000D01*
X125476000Y-82931000D02*
X125476000Y-88646000D01*
X131191000Y-91186000D02*
X135636000Y-91186000D01*
X126111000Y-91186000D02*
X131191000Y-91186000D01*
X121666000Y-91186000D02*
X126111000Y-91186000D01*
X126111000Y-77216000D02*
X121666000Y-77216000D01*
X121666000Y-77216000D02*
X121666000Y-78486000D01*
X121666000Y-78486000D02*
X124841000Y-81661000D01*
X161798000Y-78486000D02*
X164973000Y-81661000D01*
X161798000Y-77216000D02*
X161798000Y-78486000D01*
X166243000Y-77216000D02*
X161798000Y-77216000D01*
X161798000Y-91186000D02*
X166243000Y-91186000D01*
X166243000Y-91186000D02*
X171323000Y-91186000D01*
X171323000Y-91186000D02*
X175768000Y-91186000D01*
X165608000Y-82931000D02*
X165608000Y-88646000D01*
X165608000Y-88646000D02*
X166243000Y-89281000D01*
X166243000Y-89281000D02*
X166243000Y-91186000D01*
X164973000Y-82296000D02*
X165608000Y-82931000D01*
X164973000Y-81661000D02*
X164973000Y-82296000D01*
X144907000Y-81661000D02*
X144907000Y-82296000D01*
X144907000Y-82296000D02*
X145542000Y-82931000D01*
X146177000Y-89281000D02*
X146177000Y-91186000D01*
X145542000Y-88646000D02*
X146177000Y-89281000D01*
X145542000Y-82931000D02*
X145542000Y-88646000D01*
X151257000Y-91186000D02*
X155702000Y-91186000D01*
X146177000Y-91186000D02*
X151257000Y-91186000D01*
X141732000Y-91186000D02*
X146177000Y-91186000D01*
X146177000Y-77216000D02*
X141732000Y-77216000D01*
X141732000Y-77216000D02*
X141732000Y-78486000D01*
X141732000Y-78486000D02*
X144907000Y-81661000D01*
X186309000Y-89281000D02*
X186309000Y-91186000D01*
X191389000Y-91186000D02*
X195834000Y-91186000D01*
X186309000Y-91186000D02*
X191389000Y-91186000D01*
X181864000Y-91186000D02*
X186309000Y-91186000D01*
X186309000Y-77216000D02*
X181864000Y-77216000D01*
X181864000Y-77216000D02*
X181864000Y-78486000D01*
X181864000Y-78486000D02*
X185039000Y-81661000D01*
X185039000Y-81661000D02*
X185039000Y-82296000D01*
X185039000Y-82296000D02*
X185674000Y-82931000D01*
X185674000Y-88646000D02*
X186309000Y-89281000D01*
X185674000Y-82931000D02*
X185674000Y-88646000D01*
X185674000Y-62865000D02*
X185674000Y-68580000D01*
X185674000Y-68580000D02*
X186309000Y-69215000D01*
X185039000Y-62230000D02*
X185674000Y-62865000D01*
X185039000Y-61595000D02*
X185039000Y-62230000D01*
X181864000Y-58420000D02*
X185039000Y-61595000D01*
X181864000Y-57150000D02*
X181864000Y-58420000D01*
X186309000Y-57150000D02*
X181864000Y-57150000D01*
X181864000Y-71120000D02*
X186309000Y-71120000D01*
X186309000Y-71120000D02*
X191389000Y-71120000D01*
X191389000Y-71120000D02*
X195834000Y-71120000D01*
X186309000Y-69215000D02*
X186309000Y-71120000D01*
X141732000Y-58420000D02*
X144907000Y-61595000D01*
X141732000Y-57150000D02*
X141732000Y-58420000D01*
X146177000Y-57150000D02*
X141732000Y-57150000D01*
X141732000Y-71120000D02*
X146177000Y-71120000D01*
X146177000Y-71120000D02*
X151257000Y-71120000D01*
X151257000Y-71120000D02*
X155702000Y-71120000D01*
X145542000Y-62865000D02*
X145542000Y-68580000D01*
X145542000Y-68580000D02*
X146177000Y-69215000D01*
X146177000Y-69215000D02*
X146177000Y-71120000D01*
X144907000Y-62230000D02*
X145542000Y-62865000D01*
X144907000Y-61595000D02*
X144907000Y-62230000D01*
X164973000Y-61595000D02*
X164973000Y-62230000D01*
X164973000Y-62230000D02*
X165608000Y-62865000D01*
X166243000Y-69215000D02*
X166243000Y-71120000D01*
X165608000Y-68580000D02*
X166243000Y-69215000D01*
X165608000Y-62865000D02*
X165608000Y-68580000D01*
X171323000Y-71120000D02*
X175768000Y-71120000D01*
X166243000Y-71120000D02*
X171323000Y-71120000D01*
X161798000Y-71120000D02*
X166243000Y-71120000D01*
X166243000Y-57150000D02*
X161798000Y-57150000D01*
X161798000Y-57150000D02*
X161798000Y-58420000D01*
X161798000Y-58420000D02*
X164973000Y-61595000D01*
X121666000Y-58420000D02*
X124841000Y-61595000D01*
X121666000Y-57150000D02*
X121666000Y-58420000D01*
X126111000Y-57150000D02*
X121666000Y-57150000D01*
X121666000Y-71120000D02*
X126111000Y-71120000D01*
X126111000Y-71120000D02*
X131191000Y-71120000D01*
X131191000Y-71120000D02*
X135636000Y-71120000D01*
X125476000Y-62865000D02*
X125476000Y-68580000D01*
X125476000Y-68580000D02*
X126111000Y-69215000D01*
X126111000Y-69215000D02*
X126111000Y-71120000D01*
X124841000Y-62230000D02*
X125476000Y-62865000D01*
X124841000Y-61595000D02*
X124841000Y-62230000D01*
X104775000Y-61595000D02*
X104775000Y-62230000D01*
X104775000Y-62230000D02*
X105410000Y-62865000D01*
X106045000Y-69215000D02*
X106045000Y-71120000D01*
X105410000Y-68580000D02*
X106045000Y-69215000D01*
X105410000Y-62865000D02*
X105410000Y-68580000D01*
X111125000Y-71120000D02*
X115570000Y-71120000D01*
X106045000Y-71120000D02*
X111125000Y-71120000D01*
X101600000Y-71120000D02*
X106045000Y-71120000D01*
X106045000Y-57150000D02*
X101600000Y-57150000D01*
X101600000Y-57150000D02*
X101600000Y-58420000D01*
X101600000Y-58420000D02*
X104775000Y-61595000D01*
M02*
