M48
;DRILL file {KiCad 5.0.0-fee4fd1~66~ubuntu18.04.1} date Sun Sep 16 19:45:18 2018
;FORMAT={3:3/ absolute / metric / suppress leading zeros}
FMAT,2
METRIC,TZ
T1C0.400
T2C0.800
T3C1.500
T4C1.710
T5C4.000
%
G90
G05
M71
T1
X82550Y-52070
X82550Y-71120
X82550Y-90170
X82550Y-109220
X82550Y-128270
X86360Y-48895
X86360Y-67945
X86360Y-86995
X86360Y-106045
X86360Y-125095
X87630Y-50165
X87630Y-69215
X87630Y-88265
X87630Y-107315
X87630Y-126365
X92491Y-51019
X92491Y-70069
X92491Y-89119
X92491Y-108169
X92491Y-127219
X101600Y-52070
X101600Y-71120
X101600Y-90170
X101600Y-109220
X101600Y-128270
X105410Y-48895
X105410Y-67945
X105410Y-86995
X105410Y-106045
X105410Y-125095
X106680Y-50165
X106680Y-69215
X106680Y-88265
X106680Y-107315
X106680Y-126365
X111541Y-51019
X111541Y-70069
X111541Y-89119
X111541Y-108169
X111541Y-127219
X120650Y-52070
X120650Y-71120
X120650Y-90170
X120650Y-109220
X120650Y-128270
X124460Y-48895
X124460Y-67945
X124460Y-86995
X124460Y-106045
X124460Y-125095
X125730Y-50165
X125730Y-69215
X125730Y-88265
X125730Y-107315
X125730Y-126365
X130591Y-51019
X130591Y-70069
X130591Y-89119
X130591Y-108169
X130591Y-127219
X139700Y-52070
X139700Y-71120
X139700Y-90170
X139700Y-109220
X139700Y-128270
X143510Y-48895
X143510Y-67945
X143510Y-86995
X143510Y-106045
X143510Y-125095
X144780Y-50165
X144780Y-69215
X144780Y-88265
X144780Y-107315
X144780Y-126365
X149641Y-51019
X149641Y-70069
X149641Y-89119
X149641Y-108169
X149641Y-127219
X158750Y-52070
X158750Y-71120
X158750Y-90170
X158750Y-109220
X158750Y-128270
X162560Y-48895
X162560Y-67945
X162560Y-86995
X162560Y-106045
X162560Y-125095
X163830Y-50165
X163830Y-69215
X163830Y-88265
X163830Y-107315
X163830Y-126365
X168691Y-51019
X168691Y-70069
X168691Y-89119
X168691Y-108169
X168691Y-127219
T2
X172085Y-53975
X99695Y-92075
X99695Y-118745
X137795Y-76835
X133985Y-69215
X84455Y-46355
X156845Y-50165
X133985Y-95885
X95885Y-57785
X137795Y-118745
X118745Y-53975
X80645Y-107315
X153035Y-107315
X163195Y-122555
X169545Y-122555
X106045Y-65405
X112395Y-65405
X86995Y-65405
X93345Y-65405
X144145Y-46355
X150495Y-46355
X125095Y-46355
X131445Y-46355
X172085Y-57785
X156845Y-73025
X80645Y-133985
X133985Y-130175
X114935Y-111125
X103505Y-99695
X118745Y-137795
X156845Y-122555
X160655Y-84455
X172085Y-69215
X172085Y-111125
X114935Y-76835
X114935Y-118745
X84455Y-137795
X130175Y-80645
X118745Y-126365
X160655Y-80645
X137795Y-95885
X153035Y-84455
X133985Y-65405
X118745Y-130175
X156845Y-107315
X149225Y-99695
X168275Y-80645
X172085Y-84455
X133985Y-114935
X84455Y-122555
X153035Y-103505
X133985Y-88265
X153035Y-69215
X130175Y-137795
X95885Y-99695
X111125Y-61595
X80645Y-118745
X137795Y-103505
X118745Y-84455
X172085Y-80645
X168275Y-118745
X118745Y-76835
X114935Y-69215
X114935Y-95885
X168275Y-99695
X172085Y-107315
X95885Y-53975
X99695Y-137795
X80645Y-130175
X84455Y-99695
X153035Y-50165
X156845Y-137795
X160655Y-122555
X118745Y-61595
X92075Y-61595
X172085Y-73025
X95885Y-76835
X95885Y-118745
X141605Y-118745
X99695Y-126365
X156845Y-53975
X153035Y-137795
X141605Y-61595
X114935Y-65405
X130175Y-99695
X114935Y-114935
X133985Y-103505
X95885Y-88265
X153035Y-92075
X111125Y-137795
X160655Y-65405
X172085Y-88265
X153035Y-80645
X137795Y-133985
X137795Y-99695
X118745Y-103505
X99695Y-84455
X144145Y-84455
X150495Y-84455
X125095Y-84455
X131445Y-84455
X99695Y-76835
X103505Y-103505
X133985Y-107315
X95885Y-69215
X153035Y-122555
X168275Y-61595
X156845Y-61595
X172085Y-114935
X99695Y-103505
X95885Y-95885
X133985Y-61595
X80645Y-53975
X122555Y-65405
X137795Y-111125
X95885Y-107315
X118745Y-122555
X141605Y-80645
X95885Y-46355
X156845Y-92075
X153035Y-57785
X153035Y-99695
X122555Y-118745
X133985Y-84455
X80645Y-126365
X172085Y-137795
X160655Y-103505
X133985Y-137795
X122555Y-61595
X137795Y-126365
X95885Y-65405
X80645Y-88265
X106045Y-46355
X112395Y-46355
X111125Y-99695
X153035Y-126365
X80645Y-92075
X114935Y-103505
X137795Y-80645
X133985Y-92075
X92075Y-137795
X133985Y-80645
X118745Y-133985
X122555Y-84455
X99695Y-99695
X118745Y-99695
X80645Y-84455
X95885Y-92075
X156845Y-46355
X80645Y-76835
X84455Y-103505
X125095Y-122555
X131445Y-122555
X106045Y-122555
X112395Y-122555
X114935Y-50165
X114935Y-107315
X133985Y-122555
X86995Y-122555
X93345Y-122555
X144145Y-103505
X150495Y-103505
X156845Y-111125
X118745Y-65405
X80645Y-69215
X172085Y-133985
X172085Y-61595
X160655Y-46355
X84455Y-61595
X103505Y-65405
X118745Y-111125
X133985Y-53975
X99695Y-61595
X153035Y-88265
X99695Y-122555
X122555Y-80645
X122555Y-122555
X99695Y-130175
X137795Y-107315
X80645Y-65405
X80645Y-50165
X156845Y-118745
X156845Y-95885
X172085Y-65405
X133985Y-99695
X103505Y-118745
X114935Y-84455
X156845Y-126365
X114935Y-137795
X114935Y-61595
X153035Y-46355
X137795Y-50165
X137795Y-114935
X114935Y-130175
X137795Y-73025
X118745Y-80645
X86995Y-46355
X93345Y-46355
X149225Y-118745
X133985Y-133985
X114935Y-80645
X99695Y-133985
X103505Y-84455
X106045Y-103505
X112395Y-103505
X153035Y-73025
X172085Y-122555
X80645Y-103505
X111125Y-80645
X137795Y-57785
X141605Y-84455
X160655Y-118745
X99695Y-65405
X118745Y-95885
X122555Y-46355
X114935Y-122555
X137795Y-92075
X95885Y-50165
X80645Y-61595
X84455Y-65405
X99695Y-111125
X137795Y-88265
X114935Y-53975
X137795Y-122555
X156845Y-88265
X153035Y-133985
X103505Y-80645
X137795Y-46355
X163195Y-84455
X169545Y-84455
X106045Y-84455
X112395Y-84455
X95885Y-130175
X156845Y-103505
X114935Y-99695
X84455Y-118745
X156845Y-130175
X95885Y-126365
X95885Y-111125
X156845Y-114935
X95885Y-137795
X141605Y-137795
X141605Y-103505
X163195Y-65405
X169545Y-65405
X118745Y-50165
X118745Y-114935
X99695Y-80645
X137795Y-69215
X80645Y-99695
X118745Y-73025
X144145Y-65405
X150495Y-65405
X125095Y-65405
X131445Y-65405
X130175Y-118745
X156845Y-76835
X172085Y-46355
X114935Y-133985
X95885Y-80645
X84455Y-84455
X133985Y-73025
X172085Y-103505
X133985Y-46355
X137795Y-84455
X92075Y-80645
X118745Y-57785
X156845Y-133985
X80645Y-57785
X172085Y-50165
X99695Y-95885
X103505Y-46355
X172085Y-95885
X137795Y-65405
X95885Y-114935
X80645Y-46355
X141605Y-46355
X80645Y-111125
X80645Y-73025
X118745Y-107315
X118745Y-88265
X163195Y-46355
X169545Y-46355
X156845Y-84455
X84455Y-80645
X99695Y-53975
X118745Y-46355
X160655Y-137795
X168275Y-137795
X160655Y-99695
X153035Y-111125
X141605Y-99695
X172085Y-118745
X133985Y-50165
X125095Y-103505
X131445Y-103505
X153035Y-76835
X153035Y-118745
X122555Y-137795
X92075Y-99695
X122555Y-103505
X99695Y-50165
X156845Y-99695
X156845Y-65405
X99695Y-114935
X80645Y-80645
X95885Y-84455
X118745Y-69215
X99695Y-73025
X99695Y-46355
X111125Y-118745
X172085Y-92075
X95885Y-133985
X153035Y-61595
X103505Y-61595
X141605Y-65405
X95885Y-73025
X114935Y-73025
X114935Y-46355
X133985Y-57785
X149225Y-61595
X99695Y-57785
X172085Y-126365
X118745Y-92075
X118745Y-118745
X80645Y-95885
X144145Y-122555
X150495Y-122555
X95885Y-103505
X156845Y-57785
X156845Y-69215
X153035Y-95885
X95885Y-61595
X80645Y-137795
X137795Y-53975
X99695Y-107315
X99695Y-88265
X172085Y-130175
X114935Y-92075
X172085Y-76835
X153035Y-130175
X160655Y-61595
X156845Y-80645
X133985Y-111125
X122555Y-99695
X137795Y-137795
X86995Y-103505
X93345Y-103505
X133985Y-76835
X133985Y-118745
X103505Y-137795
X149225Y-80645
X114935Y-126365
X163195Y-103505
X169545Y-103505
X80645Y-114935
X137795Y-61595
X153035Y-65405
X99695Y-69215
X137795Y-130175
X114935Y-88265
X92075Y-118745
X153035Y-114935
X103505Y-122555
X133985Y-126365
X95885Y-122555
X153035Y-53975
X86995Y-84455
X93345Y-84455
X149225Y-137795
X172085Y-99695
X114935Y-57785
X130175Y-61595
X141605Y-122555
X80645Y-122555
T3
X84455Y-108585
X90805Y-106045
X141605Y-89535
X147955Y-86995
X103505Y-127635
X109855Y-125095
X84455Y-70485
X90805Y-67945
X122555Y-89535
X128905Y-86995
X84455Y-127635
X90805Y-125095
X103505Y-89535
X109855Y-86995
X160655Y-70485
X167005Y-67945
X122555Y-127635
X128905Y-125095
X84455Y-89535
X90805Y-86995
X84455Y-51435
X90805Y-48895
X160655Y-108585
X167005Y-106045
X122555Y-108585
X128905Y-106045
X103505Y-51435
X109855Y-48895
X160655Y-127635
X167005Y-125095
X103505Y-108585
X109855Y-106045
X141605Y-51435
X147955Y-48895
X141605Y-127635
X147955Y-125095
X122555Y-51435
X128905Y-48895
X103505Y-70485
X109855Y-67945
X160655Y-89535
X167005Y-86995
X141605Y-70485
X147955Y-67945
X160655Y-51435
X167005Y-48895
X122555Y-70485
X128905Y-67945
X141605Y-108585
X147955Y-106045
T4
X140335Y-73025
X150495Y-73025
X159385Y-53975
X169545Y-53975
X121285Y-73025
X131445Y-73025
X140335Y-111125
X150495Y-111125
X83185Y-111125
X93345Y-111125
X140335Y-92075
X150495Y-92075
X102235Y-130175
X112395Y-130175
X83185Y-73025
X93345Y-73025
X121285Y-92075
X131445Y-92075
X83185Y-130175
X93345Y-130175
X102235Y-92075
X112395Y-92075
X159385Y-73025
X169545Y-73025
X121285Y-130175
X131445Y-130175
X83185Y-92075
X93345Y-92075
X83185Y-53975
X93345Y-53975
X159385Y-111125
X169545Y-111125
X121285Y-111125
X131445Y-111125
X102235Y-53975
X112395Y-53975
X159385Y-130175
X169545Y-130175
X102235Y-111125
X112395Y-111125
X140335Y-53975
X150495Y-53975
X140335Y-130175
X150495Y-130175
X121285Y-53975
X131445Y-53975
X102235Y-73025
X112395Y-73025
X159385Y-92075
X169545Y-92075
T5
X145415Y-130175
X126365Y-53975
X107315Y-73025
X164465Y-92075
X145415Y-73025
X164465Y-53975
X126365Y-73025
X145415Y-111125
X88265Y-111125
X145415Y-92075
X107315Y-130175
X88265Y-73025
X126365Y-92075
X88265Y-130175
X107315Y-92075
X164465Y-73025
X126365Y-130175
X88265Y-92075
X88265Y-53975
X164465Y-111125
X126365Y-111125
X107315Y-53975
X164465Y-130175
X107315Y-111125
X145415Y-53975
T0
M30
