G04 #@! TF.GenerationSoftware,KiCad,Pcbnew,5.0.0-fee4fd1~66~ubuntu18.04.1*
G04 #@! TF.CreationDate,2018-09-16T19:45:11+09:00*
G04 #@! TF.ProjectId,MxLEDBit,4D784C45444269742E6B696361645F70,1*
G04 #@! TF.SameCoordinates,Original*
G04 #@! TF.FileFunction,Legend,Top*
G04 #@! TF.FilePolarity,Positive*
%FSLAX46Y46*%
G04 Gerber Fmt 4.6, Leading zero omitted, Abs format (unit mm)*
G04 Created by KiCad (PCBNEW 5.0.0-fee4fd1~66~ubuntu18.04.1) date Sun Sep 16 19:45:11 2018*
%MOMM*%
%LPD*%
G01*
G04 APERTURE LIST*
%ADD10C,0.200000*%
%ADD11C,0.150000*%
G04 APERTURE END LIST*
D10*
X156245000Y-105952857D02*
X156245000Y-104752857D01*
X156530714Y-104752857D01*
X156702142Y-104810000D01*
X156816428Y-104924285D01*
X156873571Y-105038571D01*
X156930714Y-105267142D01*
X156930714Y-105438571D01*
X156873571Y-105667142D01*
X156816428Y-105781428D01*
X156702142Y-105895714D01*
X156530714Y-105952857D01*
X156245000Y-105952857D01*
X157445000Y-105952857D02*
X157445000Y-104752857D01*
X171627857Y-116925714D02*
X172542142Y-116925714D01*
X172085000Y-117382857D02*
X172085000Y-116468571D01*
X158292857Y-103590714D02*
X159207142Y-103590714D01*
X169722857Y-104860714D02*
X170637142Y-104860714D01*
X170180000Y-105317857D02*
X170180000Y-104403571D01*
X155902142Y-113572857D02*
X155902142Y-112372857D01*
X156187857Y-112372857D01*
X156359285Y-112430000D01*
X156473571Y-112544285D01*
X156530714Y-112658571D01*
X156587857Y-112887142D01*
X156587857Y-113058571D01*
X156530714Y-113287142D01*
X156473571Y-113401428D01*
X156359285Y-113515714D01*
X156187857Y-113572857D01*
X155902142Y-113572857D01*
X157330714Y-112372857D02*
X157559285Y-112372857D01*
X157673571Y-112430000D01*
X157787857Y-112544285D01*
X157845000Y-112772857D01*
X157845000Y-113172857D01*
X157787857Y-113401428D01*
X157673571Y-113515714D01*
X157559285Y-113572857D01*
X157330714Y-113572857D01*
X157216428Y-113515714D01*
X157102142Y-113401428D01*
X157045000Y-113172857D01*
X157045000Y-112772857D01*
X157102142Y-112544285D01*
X157216428Y-112430000D01*
X157330714Y-112372857D01*
X156387857Y-116925714D02*
X157302142Y-116925714D01*
X172456428Y-109762857D02*
X172056428Y-109191428D01*
X171770714Y-109762857D02*
X171770714Y-108562857D01*
X172227857Y-108562857D01*
X172342142Y-108620000D01*
X172399285Y-108677142D01*
X172456428Y-108791428D01*
X172456428Y-108962857D01*
X172399285Y-109077142D01*
X172342142Y-109134285D01*
X172227857Y-109191428D01*
X171770714Y-109191428D01*
X171485000Y-113572857D02*
X171485000Y-112372857D01*
X171770714Y-112372857D01*
X171942142Y-112430000D01*
X172056428Y-112544285D01*
X172113571Y-112658571D01*
X172170714Y-112887142D01*
X172170714Y-113058571D01*
X172113571Y-113287142D01*
X172056428Y-113401428D01*
X171942142Y-113515714D01*
X171770714Y-113572857D01*
X171485000Y-113572857D01*
X172685000Y-113572857D02*
X172685000Y-112372857D01*
X159121428Y-119173571D02*
X159064285Y-119230714D01*
X158892857Y-119287857D01*
X158778571Y-119287857D01*
X158607142Y-119230714D01*
X158492857Y-119116428D01*
X158435714Y-119002142D01*
X158378571Y-118773571D01*
X158378571Y-118602142D01*
X158435714Y-118373571D01*
X158492857Y-118259285D01*
X158607142Y-118145000D01*
X158778571Y-118087857D01*
X158892857Y-118087857D01*
X159064285Y-118145000D01*
X159121428Y-118202142D01*
X157216428Y-109762857D02*
X156816428Y-109191428D01*
X156530714Y-109762857D02*
X156530714Y-108562857D01*
X156987857Y-108562857D01*
X157102142Y-108620000D01*
X157159285Y-108677142D01*
X157216428Y-108791428D01*
X157216428Y-108962857D01*
X157159285Y-109077142D01*
X157102142Y-109134285D01*
X156987857Y-109191428D01*
X156530714Y-109191428D01*
X161026428Y-105838571D02*
X160969285Y-105895714D01*
X160797857Y-105952857D01*
X160683571Y-105952857D01*
X160512142Y-105895714D01*
X160397857Y-105781428D01*
X160340714Y-105667142D01*
X160283571Y-105438571D01*
X160283571Y-105267142D01*
X160340714Y-105038571D01*
X160397857Y-104924285D01*
X160512142Y-104810000D01*
X160683571Y-104752857D01*
X160797857Y-104752857D01*
X160969285Y-104810000D01*
X161026428Y-104867142D01*
X171142142Y-105952857D02*
X171142142Y-104752857D01*
X171427857Y-104752857D01*
X171599285Y-104810000D01*
X171713571Y-104924285D01*
X171770714Y-105038571D01*
X171827857Y-105267142D01*
X171827857Y-105438571D01*
X171770714Y-105667142D01*
X171713571Y-105781428D01*
X171599285Y-105895714D01*
X171427857Y-105952857D01*
X171142142Y-105952857D01*
X172570714Y-104752857D02*
X172799285Y-104752857D01*
X172913571Y-104810000D01*
X173027857Y-104924285D01*
X173085000Y-105152857D01*
X173085000Y-105552857D01*
X173027857Y-105781428D01*
X172913571Y-105895714D01*
X172799285Y-105952857D01*
X172570714Y-105952857D01*
X172456428Y-105895714D01*
X172342142Y-105781428D01*
X172285000Y-105552857D01*
X172285000Y-105152857D01*
X172342142Y-104924285D01*
X172456428Y-104810000D01*
X172570714Y-104752857D01*
X156245000Y-48802857D02*
X156245000Y-47602857D01*
X156530714Y-47602857D01*
X156702142Y-47660000D01*
X156816428Y-47774285D01*
X156873571Y-47888571D01*
X156930714Y-48117142D01*
X156930714Y-48288571D01*
X156873571Y-48517142D01*
X156816428Y-48631428D01*
X156702142Y-48745714D01*
X156530714Y-48802857D01*
X156245000Y-48802857D01*
X157445000Y-48802857D02*
X157445000Y-47602857D01*
X156245000Y-67852857D02*
X156245000Y-66652857D01*
X156530714Y-66652857D01*
X156702142Y-66710000D01*
X156816428Y-66824285D01*
X156873571Y-66938571D01*
X156930714Y-67167142D01*
X156930714Y-67338571D01*
X156873571Y-67567142D01*
X156816428Y-67681428D01*
X156702142Y-67795714D01*
X156530714Y-67852857D01*
X156245000Y-67852857D01*
X157445000Y-67852857D02*
X157445000Y-66652857D01*
X156245000Y-86902857D02*
X156245000Y-85702857D01*
X156530714Y-85702857D01*
X156702142Y-85760000D01*
X156816428Y-85874285D01*
X156873571Y-85988571D01*
X156930714Y-86217142D01*
X156930714Y-86388571D01*
X156873571Y-86617142D01*
X156816428Y-86731428D01*
X156702142Y-86845714D01*
X156530714Y-86902857D01*
X156245000Y-86902857D01*
X157445000Y-86902857D02*
X157445000Y-85702857D01*
X171627857Y-59775714D02*
X172542142Y-59775714D01*
X172085000Y-60232857D02*
X172085000Y-59318571D01*
X171627857Y-78825714D02*
X172542142Y-78825714D01*
X172085000Y-79282857D02*
X172085000Y-78368571D01*
X171627857Y-97875714D02*
X172542142Y-97875714D01*
X172085000Y-98332857D02*
X172085000Y-97418571D01*
X158292857Y-46440714D02*
X159207142Y-46440714D01*
X158292857Y-65490714D02*
X159207142Y-65490714D01*
X158292857Y-84540714D02*
X159207142Y-84540714D01*
X169722857Y-47710714D02*
X170637142Y-47710714D01*
X170180000Y-48167857D02*
X170180000Y-47253571D01*
X169722857Y-66760714D02*
X170637142Y-66760714D01*
X170180000Y-67217857D02*
X170180000Y-66303571D01*
X169722857Y-85810714D02*
X170637142Y-85810714D01*
X170180000Y-86267857D02*
X170180000Y-85353571D01*
X155902142Y-56422857D02*
X155902142Y-55222857D01*
X156187857Y-55222857D01*
X156359285Y-55280000D01*
X156473571Y-55394285D01*
X156530714Y-55508571D01*
X156587857Y-55737142D01*
X156587857Y-55908571D01*
X156530714Y-56137142D01*
X156473571Y-56251428D01*
X156359285Y-56365714D01*
X156187857Y-56422857D01*
X155902142Y-56422857D01*
X157330714Y-55222857D02*
X157559285Y-55222857D01*
X157673571Y-55280000D01*
X157787857Y-55394285D01*
X157845000Y-55622857D01*
X157845000Y-56022857D01*
X157787857Y-56251428D01*
X157673571Y-56365714D01*
X157559285Y-56422857D01*
X157330714Y-56422857D01*
X157216428Y-56365714D01*
X157102142Y-56251428D01*
X157045000Y-56022857D01*
X157045000Y-55622857D01*
X157102142Y-55394285D01*
X157216428Y-55280000D01*
X157330714Y-55222857D01*
X155902142Y-75472857D02*
X155902142Y-74272857D01*
X156187857Y-74272857D01*
X156359285Y-74330000D01*
X156473571Y-74444285D01*
X156530714Y-74558571D01*
X156587857Y-74787142D01*
X156587857Y-74958571D01*
X156530714Y-75187142D01*
X156473571Y-75301428D01*
X156359285Y-75415714D01*
X156187857Y-75472857D01*
X155902142Y-75472857D01*
X157330714Y-74272857D02*
X157559285Y-74272857D01*
X157673571Y-74330000D01*
X157787857Y-74444285D01*
X157845000Y-74672857D01*
X157845000Y-75072857D01*
X157787857Y-75301428D01*
X157673571Y-75415714D01*
X157559285Y-75472857D01*
X157330714Y-75472857D01*
X157216428Y-75415714D01*
X157102142Y-75301428D01*
X157045000Y-75072857D01*
X157045000Y-74672857D01*
X157102142Y-74444285D01*
X157216428Y-74330000D01*
X157330714Y-74272857D01*
X155902142Y-94522857D02*
X155902142Y-93322857D01*
X156187857Y-93322857D01*
X156359285Y-93380000D01*
X156473571Y-93494285D01*
X156530714Y-93608571D01*
X156587857Y-93837142D01*
X156587857Y-94008571D01*
X156530714Y-94237142D01*
X156473571Y-94351428D01*
X156359285Y-94465714D01*
X156187857Y-94522857D01*
X155902142Y-94522857D01*
X157330714Y-93322857D02*
X157559285Y-93322857D01*
X157673571Y-93380000D01*
X157787857Y-93494285D01*
X157845000Y-93722857D01*
X157845000Y-94122857D01*
X157787857Y-94351428D01*
X157673571Y-94465714D01*
X157559285Y-94522857D01*
X157330714Y-94522857D01*
X157216428Y-94465714D01*
X157102142Y-94351428D01*
X157045000Y-94122857D01*
X157045000Y-93722857D01*
X157102142Y-93494285D01*
X157216428Y-93380000D01*
X157330714Y-93322857D01*
X156387857Y-59775714D02*
X157302142Y-59775714D01*
X156387857Y-78825714D02*
X157302142Y-78825714D01*
X156387857Y-97875714D02*
X157302142Y-97875714D01*
X172456428Y-52612857D02*
X172056428Y-52041428D01*
X171770714Y-52612857D02*
X171770714Y-51412857D01*
X172227857Y-51412857D01*
X172342142Y-51470000D01*
X172399285Y-51527142D01*
X172456428Y-51641428D01*
X172456428Y-51812857D01*
X172399285Y-51927142D01*
X172342142Y-51984285D01*
X172227857Y-52041428D01*
X171770714Y-52041428D01*
X172456428Y-71662857D02*
X172056428Y-71091428D01*
X171770714Y-71662857D02*
X171770714Y-70462857D01*
X172227857Y-70462857D01*
X172342142Y-70520000D01*
X172399285Y-70577142D01*
X172456428Y-70691428D01*
X172456428Y-70862857D01*
X172399285Y-70977142D01*
X172342142Y-71034285D01*
X172227857Y-71091428D01*
X171770714Y-71091428D01*
X172456428Y-90712857D02*
X172056428Y-90141428D01*
X171770714Y-90712857D02*
X171770714Y-89512857D01*
X172227857Y-89512857D01*
X172342142Y-89570000D01*
X172399285Y-89627142D01*
X172456428Y-89741428D01*
X172456428Y-89912857D01*
X172399285Y-90027142D01*
X172342142Y-90084285D01*
X172227857Y-90141428D01*
X171770714Y-90141428D01*
X171485000Y-56422857D02*
X171485000Y-55222857D01*
X171770714Y-55222857D01*
X171942142Y-55280000D01*
X172056428Y-55394285D01*
X172113571Y-55508571D01*
X172170714Y-55737142D01*
X172170714Y-55908571D01*
X172113571Y-56137142D01*
X172056428Y-56251428D01*
X171942142Y-56365714D01*
X171770714Y-56422857D01*
X171485000Y-56422857D01*
X172685000Y-56422857D02*
X172685000Y-55222857D01*
X171485000Y-75472857D02*
X171485000Y-74272857D01*
X171770714Y-74272857D01*
X171942142Y-74330000D01*
X172056428Y-74444285D01*
X172113571Y-74558571D01*
X172170714Y-74787142D01*
X172170714Y-74958571D01*
X172113571Y-75187142D01*
X172056428Y-75301428D01*
X171942142Y-75415714D01*
X171770714Y-75472857D01*
X171485000Y-75472857D01*
X172685000Y-75472857D02*
X172685000Y-74272857D01*
X171485000Y-94522857D02*
X171485000Y-93322857D01*
X171770714Y-93322857D01*
X171942142Y-93380000D01*
X172056428Y-93494285D01*
X172113571Y-93608571D01*
X172170714Y-93837142D01*
X172170714Y-94008571D01*
X172113571Y-94237142D01*
X172056428Y-94351428D01*
X171942142Y-94465714D01*
X171770714Y-94522857D01*
X171485000Y-94522857D01*
X172685000Y-94522857D02*
X172685000Y-93322857D01*
X159121428Y-62023571D02*
X159064285Y-62080714D01*
X158892857Y-62137857D01*
X158778571Y-62137857D01*
X158607142Y-62080714D01*
X158492857Y-61966428D01*
X158435714Y-61852142D01*
X158378571Y-61623571D01*
X158378571Y-61452142D01*
X158435714Y-61223571D01*
X158492857Y-61109285D01*
X158607142Y-60995000D01*
X158778571Y-60937857D01*
X158892857Y-60937857D01*
X159064285Y-60995000D01*
X159121428Y-61052142D01*
X159121428Y-81073571D02*
X159064285Y-81130714D01*
X158892857Y-81187857D01*
X158778571Y-81187857D01*
X158607142Y-81130714D01*
X158492857Y-81016428D01*
X158435714Y-80902142D01*
X158378571Y-80673571D01*
X158378571Y-80502142D01*
X158435714Y-80273571D01*
X158492857Y-80159285D01*
X158607142Y-80045000D01*
X158778571Y-79987857D01*
X158892857Y-79987857D01*
X159064285Y-80045000D01*
X159121428Y-80102142D01*
X159121428Y-100123571D02*
X159064285Y-100180714D01*
X158892857Y-100237857D01*
X158778571Y-100237857D01*
X158607142Y-100180714D01*
X158492857Y-100066428D01*
X158435714Y-99952142D01*
X158378571Y-99723571D01*
X158378571Y-99552142D01*
X158435714Y-99323571D01*
X158492857Y-99209285D01*
X158607142Y-99095000D01*
X158778571Y-99037857D01*
X158892857Y-99037857D01*
X159064285Y-99095000D01*
X159121428Y-99152142D01*
X157216428Y-52612857D02*
X156816428Y-52041428D01*
X156530714Y-52612857D02*
X156530714Y-51412857D01*
X156987857Y-51412857D01*
X157102142Y-51470000D01*
X157159285Y-51527142D01*
X157216428Y-51641428D01*
X157216428Y-51812857D01*
X157159285Y-51927142D01*
X157102142Y-51984285D01*
X156987857Y-52041428D01*
X156530714Y-52041428D01*
X157216428Y-71662857D02*
X156816428Y-71091428D01*
X156530714Y-71662857D02*
X156530714Y-70462857D01*
X156987857Y-70462857D01*
X157102142Y-70520000D01*
X157159285Y-70577142D01*
X157216428Y-70691428D01*
X157216428Y-70862857D01*
X157159285Y-70977142D01*
X157102142Y-71034285D01*
X156987857Y-71091428D01*
X156530714Y-71091428D01*
X157216428Y-90712857D02*
X156816428Y-90141428D01*
X156530714Y-90712857D02*
X156530714Y-89512857D01*
X156987857Y-89512857D01*
X157102142Y-89570000D01*
X157159285Y-89627142D01*
X157216428Y-89741428D01*
X157216428Y-89912857D01*
X157159285Y-90027142D01*
X157102142Y-90084285D01*
X156987857Y-90141428D01*
X156530714Y-90141428D01*
X161026428Y-48688571D02*
X160969285Y-48745714D01*
X160797857Y-48802857D01*
X160683571Y-48802857D01*
X160512142Y-48745714D01*
X160397857Y-48631428D01*
X160340714Y-48517142D01*
X160283571Y-48288571D01*
X160283571Y-48117142D01*
X160340714Y-47888571D01*
X160397857Y-47774285D01*
X160512142Y-47660000D01*
X160683571Y-47602857D01*
X160797857Y-47602857D01*
X160969285Y-47660000D01*
X161026428Y-47717142D01*
X161026428Y-67738571D02*
X160969285Y-67795714D01*
X160797857Y-67852857D01*
X160683571Y-67852857D01*
X160512142Y-67795714D01*
X160397857Y-67681428D01*
X160340714Y-67567142D01*
X160283571Y-67338571D01*
X160283571Y-67167142D01*
X160340714Y-66938571D01*
X160397857Y-66824285D01*
X160512142Y-66710000D01*
X160683571Y-66652857D01*
X160797857Y-66652857D01*
X160969285Y-66710000D01*
X161026428Y-66767142D01*
X161026428Y-86788571D02*
X160969285Y-86845714D01*
X160797857Y-86902857D01*
X160683571Y-86902857D01*
X160512142Y-86845714D01*
X160397857Y-86731428D01*
X160340714Y-86617142D01*
X160283571Y-86388571D01*
X160283571Y-86217142D01*
X160340714Y-85988571D01*
X160397857Y-85874285D01*
X160512142Y-85760000D01*
X160683571Y-85702857D01*
X160797857Y-85702857D01*
X160969285Y-85760000D01*
X161026428Y-85817142D01*
X171142142Y-48802857D02*
X171142142Y-47602857D01*
X171427857Y-47602857D01*
X171599285Y-47660000D01*
X171713571Y-47774285D01*
X171770714Y-47888571D01*
X171827857Y-48117142D01*
X171827857Y-48288571D01*
X171770714Y-48517142D01*
X171713571Y-48631428D01*
X171599285Y-48745714D01*
X171427857Y-48802857D01*
X171142142Y-48802857D01*
X172570714Y-47602857D02*
X172799285Y-47602857D01*
X172913571Y-47660000D01*
X173027857Y-47774285D01*
X173085000Y-48002857D01*
X173085000Y-48402857D01*
X173027857Y-48631428D01*
X172913571Y-48745714D01*
X172799285Y-48802857D01*
X172570714Y-48802857D01*
X172456428Y-48745714D01*
X172342142Y-48631428D01*
X172285000Y-48402857D01*
X172285000Y-48002857D01*
X172342142Y-47774285D01*
X172456428Y-47660000D01*
X172570714Y-47602857D01*
X171142142Y-67852857D02*
X171142142Y-66652857D01*
X171427857Y-66652857D01*
X171599285Y-66710000D01*
X171713571Y-66824285D01*
X171770714Y-66938571D01*
X171827857Y-67167142D01*
X171827857Y-67338571D01*
X171770714Y-67567142D01*
X171713571Y-67681428D01*
X171599285Y-67795714D01*
X171427857Y-67852857D01*
X171142142Y-67852857D01*
X172570714Y-66652857D02*
X172799285Y-66652857D01*
X172913571Y-66710000D01*
X173027857Y-66824285D01*
X173085000Y-67052857D01*
X173085000Y-67452857D01*
X173027857Y-67681428D01*
X172913571Y-67795714D01*
X172799285Y-67852857D01*
X172570714Y-67852857D01*
X172456428Y-67795714D01*
X172342142Y-67681428D01*
X172285000Y-67452857D01*
X172285000Y-67052857D01*
X172342142Y-66824285D01*
X172456428Y-66710000D01*
X172570714Y-66652857D01*
X171142142Y-86902857D02*
X171142142Y-85702857D01*
X171427857Y-85702857D01*
X171599285Y-85760000D01*
X171713571Y-85874285D01*
X171770714Y-85988571D01*
X171827857Y-86217142D01*
X171827857Y-86388571D01*
X171770714Y-86617142D01*
X171713571Y-86731428D01*
X171599285Y-86845714D01*
X171427857Y-86902857D01*
X171142142Y-86902857D01*
X172570714Y-85702857D02*
X172799285Y-85702857D01*
X172913571Y-85760000D01*
X173027857Y-85874285D01*
X173085000Y-86102857D01*
X173085000Y-86502857D01*
X173027857Y-86731428D01*
X172913571Y-86845714D01*
X172799285Y-86902857D01*
X172570714Y-86902857D01*
X172456428Y-86845714D01*
X172342142Y-86731428D01*
X172285000Y-86502857D01*
X172285000Y-86102857D01*
X172342142Y-85874285D01*
X172456428Y-85760000D01*
X172570714Y-85702857D01*
X161026428Y-124888571D02*
X160969285Y-124945714D01*
X160797857Y-125002857D01*
X160683571Y-125002857D01*
X160512142Y-124945714D01*
X160397857Y-124831428D01*
X160340714Y-124717142D01*
X160283571Y-124488571D01*
X160283571Y-124317142D01*
X160340714Y-124088571D01*
X160397857Y-123974285D01*
X160512142Y-123860000D01*
X160683571Y-123802857D01*
X160797857Y-123802857D01*
X160969285Y-123860000D01*
X161026428Y-123917142D01*
X171485000Y-132622857D02*
X171485000Y-131422857D01*
X171770714Y-131422857D01*
X171942142Y-131480000D01*
X172056428Y-131594285D01*
X172113571Y-131708571D01*
X172170714Y-131937142D01*
X172170714Y-132108571D01*
X172113571Y-132337142D01*
X172056428Y-132451428D01*
X171942142Y-132565714D01*
X171770714Y-132622857D01*
X171485000Y-132622857D01*
X172685000Y-132622857D02*
X172685000Y-131422857D01*
X157216428Y-128812857D02*
X156816428Y-128241428D01*
X156530714Y-128812857D02*
X156530714Y-127612857D01*
X156987857Y-127612857D01*
X157102142Y-127670000D01*
X157159285Y-127727142D01*
X157216428Y-127841428D01*
X157216428Y-128012857D01*
X157159285Y-128127142D01*
X157102142Y-128184285D01*
X156987857Y-128241428D01*
X156530714Y-128241428D01*
X171142142Y-125002857D02*
X171142142Y-123802857D01*
X171427857Y-123802857D01*
X171599285Y-123860000D01*
X171713571Y-123974285D01*
X171770714Y-124088571D01*
X171827857Y-124317142D01*
X171827857Y-124488571D01*
X171770714Y-124717142D01*
X171713571Y-124831428D01*
X171599285Y-124945714D01*
X171427857Y-125002857D01*
X171142142Y-125002857D01*
X172570714Y-123802857D02*
X172799285Y-123802857D01*
X172913571Y-123860000D01*
X173027857Y-123974285D01*
X173085000Y-124202857D01*
X173085000Y-124602857D01*
X173027857Y-124831428D01*
X172913571Y-124945714D01*
X172799285Y-125002857D01*
X172570714Y-125002857D01*
X172456428Y-124945714D01*
X172342142Y-124831428D01*
X172285000Y-124602857D01*
X172285000Y-124202857D01*
X172342142Y-123974285D01*
X172456428Y-123860000D01*
X172570714Y-123802857D01*
X156245000Y-125002857D02*
X156245000Y-123802857D01*
X156530714Y-123802857D01*
X156702142Y-123860000D01*
X156816428Y-123974285D01*
X156873571Y-124088571D01*
X156930714Y-124317142D01*
X156930714Y-124488571D01*
X156873571Y-124717142D01*
X156816428Y-124831428D01*
X156702142Y-124945714D01*
X156530714Y-125002857D01*
X156245000Y-125002857D01*
X157445000Y-125002857D02*
X157445000Y-123802857D01*
X169722857Y-123910714D02*
X170637142Y-123910714D01*
X170180000Y-124367857D02*
X170180000Y-123453571D01*
X172456428Y-128812857D02*
X172056428Y-128241428D01*
X171770714Y-128812857D02*
X171770714Y-127612857D01*
X172227857Y-127612857D01*
X172342142Y-127670000D01*
X172399285Y-127727142D01*
X172456428Y-127841428D01*
X172456428Y-128012857D01*
X172399285Y-128127142D01*
X172342142Y-128184285D01*
X172227857Y-128241428D01*
X171770714Y-128241428D01*
X156387857Y-135975714D02*
X157302142Y-135975714D01*
X171627857Y-135975714D02*
X172542142Y-135975714D01*
X172085000Y-136432857D02*
X172085000Y-135518571D01*
X158292857Y-122640714D02*
X159207142Y-122640714D01*
X155902142Y-132622857D02*
X155902142Y-131422857D01*
X156187857Y-131422857D01*
X156359285Y-131480000D01*
X156473571Y-131594285D01*
X156530714Y-131708571D01*
X156587857Y-131937142D01*
X156587857Y-132108571D01*
X156530714Y-132337142D01*
X156473571Y-132451428D01*
X156359285Y-132565714D01*
X156187857Y-132622857D01*
X155902142Y-132622857D01*
X157330714Y-131422857D02*
X157559285Y-131422857D01*
X157673571Y-131480000D01*
X157787857Y-131594285D01*
X157845000Y-131822857D01*
X157845000Y-132222857D01*
X157787857Y-132451428D01*
X157673571Y-132565714D01*
X157559285Y-132622857D01*
X157330714Y-132622857D01*
X157216428Y-132565714D01*
X157102142Y-132451428D01*
X157045000Y-132222857D01*
X157045000Y-131822857D01*
X157102142Y-131594285D01*
X157216428Y-131480000D01*
X157330714Y-131422857D01*
X159121428Y-138223571D02*
X159064285Y-138280714D01*
X158892857Y-138337857D01*
X158778571Y-138337857D01*
X158607142Y-138280714D01*
X158492857Y-138166428D01*
X158435714Y-138052142D01*
X158378571Y-137823571D01*
X158378571Y-137652142D01*
X158435714Y-137423571D01*
X158492857Y-137309285D01*
X158607142Y-137195000D01*
X158778571Y-137137857D01*
X158892857Y-137137857D01*
X159064285Y-137195000D01*
X159121428Y-137252142D01*
X152092142Y-125002857D02*
X152092142Y-123802857D01*
X152377857Y-123802857D01*
X152549285Y-123860000D01*
X152663571Y-123974285D01*
X152720714Y-124088571D01*
X152777857Y-124317142D01*
X152777857Y-124488571D01*
X152720714Y-124717142D01*
X152663571Y-124831428D01*
X152549285Y-124945714D01*
X152377857Y-125002857D01*
X152092142Y-125002857D01*
X153520714Y-123802857D02*
X153749285Y-123802857D01*
X153863571Y-123860000D01*
X153977857Y-123974285D01*
X154035000Y-124202857D01*
X154035000Y-124602857D01*
X153977857Y-124831428D01*
X153863571Y-124945714D01*
X153749285Y-125002857D01*
X153520714Y-125002857D01*
X153406428Y-124945714D01*
X153292142Y-124831428D01*
X153235000Y-124602857D01*
X153235000Y-124202857D01*
X153292142Y-123974285D01*
X153406428Y-123860000D01*
X153520714Y-123802857D01*
X133042142Y-125002857D02*
X133042142Y-123802857D01*
X133327857Y-123802857D01*
X133499285Y-123860000D01*
X133613571Y-123974285D01*
X133670714Y-124088571D01*
X133727857Y-124317142D01*
X133727857Y-124488571D01*
X133670714Y-124717142D01*
X133613571Y-124831428D01*
X133499285Y-124945714D01*
X133327857Y-125002857D01*
X133042142Y-125002857D01*
X134470714Y-123802857D02*
X134699285Y-123802857D01*
X134813571Y-123860000D01*
X134927857Y-123974285D01*
X134985000Y-124202857D01*
X134985000Y-124602857D01*
X134927857Y-124831428D01*
X134813571Y-124945714D01*
X134699285Y-125002857D01*
X134470714Y-125002857D01*
X134356428Y-124945714D01*
X134242142Y-124831428D01*
X134185000Y-124602857D01*
X134185000Y-124202857D01*
X134242142Y-123974285D01*
X134356428Y-123860000D01*
X134470714Y-123802857D01*
X113992142Y-125002857D02*
X113992142Y-123802857D01*
X114277857Y-123802857D01*
X114449285Y-123860000D01*
X114563571Y-123974285D01*
X114620714Y-124088571D01*
X114677857Y-124317142D01*
X114677857Y-124488571D01*
X114620714Y-124717142D01*
X114563571Y-124831428D01*
X114449285Y-124945714D01*
X114277857Y-125002857D01*
X113992142Y-125002857D01*
X115420714Y-123802857D02*
X115649285Y-123802857D01*
X115763571Y-123860000D01*
X115877857Y-123974285D01*
X115935000Y-124202857D01*
X115935000Y-124602857D01*
X115877857Y-124831428D01*
X115763571Y-124945714D01*
X115649285Y-125002857D01*
X115420714Y-125002857D01*
X115306428Y-124945714D01*
X115192142Y-124831428D01*
X115135000Y-124602857D01*
X115135000Y-124202857D01*
X115192142Y-123974285D01*
X115306428Y-123860000D01*
X115420714Y-123802857D01*
X94942142Y-125002857D02*
X94942142Y-123802857D01*
X95227857Y-123802857D01*
X95399285Y-123860000D01*
X95513571Y-123974285D01*
X95570714Y-124088571D01*
X95627857Y-124317142D01*
X95627857Y-124488571D01*
X95570714Y-124717142D01*
X95513571Y-124831428D01*
X95399285Y-124945714D01*
X95227857Y-125002857D01*
X94942142Y-125002857D01*
X96370714Y-123802857D02*
X96599285Y-123802857D01*
X96713571Y-123860000D01*
X96827857Y-123974285D01*
X96885000Y-124202857D01*
X96885000Y-124602857D01*
X96827857Y-124831428D01*
X96713571Y-124945714D01*
X96599285Y-125002857D01*
X96370714Y-125002857D01*
X96256428Y-124945714D01*
X96142142Y-124831428D01*
X96085000Y-124602857D01*
X96085000Y-124202857D01*
X96142142Y-123974285D01*
X96256428Y-123860000D01*
X96370714Y-123802857D01*
X152092142Y-105952857D02*
X152092142Y-104752857D01*
X152377857Y-104752857D01*
X152549285Y-104810000D01*
X152663571Y-104924285D01*
X152720714Y-105038571D01*
X152777857Y-105267142D01*
X152777857Y-105438571D01*
X152720714Y-105667142D01*
X152663571Y-105781428D01*
X152549285Y-105895714D01*
X152377857Y-105952857D01*
X152092142Y-105952857D01*
X153520714Y-104752857D02*
X153749285Y-104752857D01*
X153863571Y-104810000D01*
X153977857Y-104924285D01*
X154035000Y-105152857D01*
X154035000Y-105552857D01*
X153977857Y-105781428D01*
X153863571Y-105895714D01*
X153749285Y-105952857D01*
X153520714Y-105952857D01*
X153406428Y-105895714D01*
X153292142Y-105781428D01*
X153235000Y-105552857D01*
X153235000Y-105152857D01*
X153292142Y-104924285D01*
X153406428Y-104810000D01*
X153520714Y-104752857D01*
X133042142Y-105952857D02*
X133042142Y-104752857D01*
X133327857Y-104752857D01*
X133499285Y-104810000D01*
X133613571Y-104924285D01*
X133670714Y-105038571D01*
X133727857Y-105267142D01*
X133727857Y-105438571D01*
X133670714Y-105667142D01*
X133613571Y-105781428D01*
X133499285Y-105895714D01*
X133327857Y-105952857D01*
X133042142Y-105952857D01*
X134470714Y-104752857D02*
X134699285Y-104752857D01*
X134813571Y-104810000D01*
X134927857Y-104924285D01*
X134985000Y-105152857D01*
X134985000Y-105552857D01*
X134927857Y-105781428D01*
X134813571Y-105895714D01*
X134699285Y-105952857D01*
X134470714Y-105952857D01*
X134356428Y-105895714D01*
X134242142Y-105781428D01*
X134185000Y-105552857D01*
X134185000Y-105152857D01*
X134242142Y-104924285D01*
X134356428Y-104810000D01*
X134470714Y-104752857D01*
X113992142Y-105952857D02*
X113992142Y-104752857D01*
X114277857Y-104752857D01*
X114449285Y-104810000D01*
X114563571Y-104924285D01*
X114620714Y-105038571D01*
X114677857Y-105267142D01*
X114677857Y-105438571D01*
X114620714Y-105667142D01*
X114563571Y-105781428D01*
X114449285Y-105895714D01*
X114277857Y-105952857D01*
X113992142Y-105952857D01*
X115420714Y-104752857D02*
X115649285Y-104752857D01*
X115763571Y-104810000D01*
X115877857Y-104924285D01*
X115935000Y-105152857D01*
X115935000Y-105552857D01*
X115877857Y-105781428D01*
X115763571Y-105895714D01*
X115649285Y-105952857D01*
X115420714Y-105952857D01*
X115306428Y-105895714D01*
X115192142Y-105781428D01*
X115135000Y-105552857D01*
X115135000Y-105152857D01*
X115192142Y-104924285D01*
X115306428Y-104810000D01*
X115420714Y-104752857D01*
X94942142Y-105952857D02*
X94942142Y-104752857D01*
X95227857Y-104752857D01*
X95399285Y-104810000D01*
X95513571Y-104924285D01*
X95570714Y-105038571D01*
X95627857Y-105267142D01*
X95627857Y-105438571D01*
X95570714Y-105667142D01*
X95513571Y-105781428D01*
X95399285Y-105895714D01*
X95227857Y-105952857D01*
X94942142Y-105952857D01*
X96370714Y-104752857D02*
X96599285Y-104752857D01*
X96713571Y-104810000D01*
X96827857Y-104924285D01*
X96885000Y-105152857D01*
X96885000Y-105552857D01*
X96827857Y-105781428D01*
X96713571Y-105895714D01*
X96599285Y-105952857D01*
X96370714Y-105952857D01*
X96256428Y-105895714D01*
X96142142Y-105781428D01*
X96085000Y-105552857D01*
X96085000Y-105152857D01*
X96142142Y-104924285D01*
X96256428Y-104810000D01*
X96370714Y-104752857D01*
X152092142Y-86902857D02*
X152092142Y-85702857D01*
X152377857Y-85702857D01*
X152549285Y-85760000D01*
X152663571Y-85874285D01*
X152720714Y-85988571D01*
X152777857Y-86217142D01*
X152777857Y-86388571D01*
X152720714Y-86617142D01*
X152663571Y-86731428D01*
X152549285Y-86845714D01*
X152377857Y-86902857D01*
X152092142Y-86902857D01*
X153520714Y-85702857D02*
X153749285Y-85702857D01*
X153863571Y-85760000D01*
X153977857Y-85874285D01*
X154035000Y-86102857D01*
X154035000Y-86502857D01*
X153977857Y-86731428D01*
X153863571Y-86845714D01*
X153749285Y-86902857D01*
X153520714Y-86902857D01*
X153406428Y-86845714D01*
X153292142Y-86731428D01*
X153235000Y-86502857D01*
X153235000Y-86102857D01*
X153292142Y-85874285D01*
X153406428Y-85760000D01*
X153520714Y-85702857D01*
X133042142Y-86902857D02*
X133042142Y-85702857D01*
X133327857Y-85702857D01*
X133499285Y-85760000D01*
X133613571Y-85874285D01*
X133670714Y-85988571D01*
X133727857Y-86217142D01*
X133727857Y-86388571D01*
X133670714Y-86617142D01*
X133613571Y-86731428D01*
X133499285Y-86845714D01*
X133327857Y-86902857D01*
X133042142Y-86902857D01*
X134470714Y-85702857D02*
X134699285Y-85702857D01*
X134813571Y-85760000D01*
X134927857Y-85874285D01*
X134985000Y-86102857D01*
X134985000Y-86502857D01*
X134927857Y-86731428D01*
X134813571Y-86845714D01*
X134699285Y-86902857D01*
X134470714Y-86902857D01*
X134356428Y-86845714D01*
X134242142Y-86731428D01*
X134185000Y-86502857D01*
X134185000Y-86102857D01*
X134242142Y-85874285D01*
X134356428Y-85760000D01*
X134470714Y-85702857D01*
X113992142Y-86902857D02*
X113992142Y-85702857D01*
X114277857Y-85702857D01*
X114449285Y-85760000D01*
X114563571Y-85874285D01*
X114620714Y-85988571D01*
X114677857Y-86217142D01*
X114677857Y-86388571D01*
X114620714Y-86617142D01*
X114563571Y-86731428D01*
X114449285Y-86845714D01*
X114277857Y-86902857D01*
X113992142Y-86902857D01*
X115420714Y-85702857D02*
X115649285Y-85702857D01*
X115763571Y-85760000D01*
X115877857Y-85874285D01*
X115935000Y-86102857D01*
X115935000Y-86502857D01*
X115877857Y-86731428D01*
X115763571Y-86845714D01*
X115649285Y-86902857D01*
X115420714Y-86902857D01*
X115306428Y-86845714D01*
X115192142Y-86731428D01*
X115135000Y-86502857D01*
X115135000Y-86102857D01*
X115192142Y-85874285D01*
X115306428Y-85760000D01*
X115420714Y-85702857D01*
X94942142Y-86902857D02*
X94942142Y-85702857D01*
X95227857Y-85702857D01*
X95399285Y-85760000D01*
X95513571Y-85874285D01*
X95570714Y-85988571D01*
X95627857Y-86217142D01*
X95627857Y-86388571D01*
X95570714Y-86617142D01*
X95513571Y-86731428D01*
X95399285Y-86845714D01*
X95227857Y-86902857D01*
X94942142Y-86902857D01*
X96370714Y-85702857D02*
X96599285Y-85702857D01*
X96713571Y-85760000D01*
X96827857Y-85874285D01*
X96885000Y-86102857D01*
X96885000Y-86502857D01*
X96827857Y-86731428D01*
X96713571Y-86845714D01*
X96599285Y-86902857D01*
X96370714Y-86902857D01*
X96256428Y-86845714D01*
X96142142Y-86731428D01*
X96085000Y-86502857D01*
X96085000Y-86102857D01*
X96142142Y-85874285D01*
X96256428Y-85760000D01*
X96370714Y-85702857D01*
X152092142Y-67852857D02*
X152092142Y-66652857D01*
X152377857Y-66652857D01*
X152549285Y-66710000D01*
X152663571Y-66824285D01*
X152720714Y-66938571D01*
X152777857Y-67167142D01*
X152777857Y-67338571D01*
X152720714Y-67567142D01*
X152663571Y-67681428D01*
X152549285Y-67795714D01*
X152377857Y-67852857D01*
X152092142Y-67852857D01*
X153520714Y-66652857D02*
X153749285Y-66652857D01*
X153863571Y-66710000D01*
X153977857Y-66824285D01*
X154035000Y-67052857D01*
X154035000Y-67452857D01*
X153977857Y-67681428D01*
X153863571Y-67795714D01*
X153749285Y-67852857D01*
X153520714Y-67852857D01*
X153406428Y-67795714D01*
X153292142Y-67681428D01*
X153235000Y-67452857D01*
X153235000Y-67052857D01*
X153292142Y-66824285D01*
X153406428Y-66710000D01*
X153520714Y-66652857D01*
X133042142Y-67852857D02*
X133042142Y-66652857D01*
X133327857Y-66652857D01*
X133499285Y-66710000D01*
X133613571Y-66824285D01*
X133670714Y-66938571D01*
X133727857Y-67167142D01*
X133727857Y-67338571D01*
X133670714Y-67567142D01*
X133613571Y-67681428D01*
X133499285Y-67795714D01*
X133327857Y-67852857D01*
X133042142Y-67852857D01*
X134470714Y-66652857D02*
X134699285Y-66652857D01*
X134813571Y-66710000D01*
X134927857Y-66824285D01*
X134985000Y-67052857D01*
X134985000Y-67452857D01*
X134927857Y-67681428D01*
X134813571Y-67795714D01*
X134699285Y-67852857D01*
X134470714Y-67852857D01*
X134356428Y-67795714D01*
X134242142Y-67681428D01*
X134185000Y-67452857D01*
X134185000Y-67052857D01*
X134242142Y-66824285D01*
X134356428Y-66710000D01*
X134470714Y-66652857D01*
X113992142Y-67852857D02*
X113992142Y-66652857D01*
X114277857Y-66652857D01*
X114449285Y-66710000D01*
X114563571Y-66824285D01*
X114620714Y-66938571D01*
X114677857Y-67167142D01*
X114677857Y-67338571D01*
X114620714Y-67567142D01*
X114563571Y-67681428D01*
X114449285Y-67795714D01*
X114277857Y-67852857D01*
X113992142Y-67852857D01*
X115420714Y-66652857D02*
X115649285Y-66652857D01*
X115763571Y-66710000D01*
X115877857Y-66824285D01*
X115935000Y-67052857D01*
X115935000Y-67452857D01*
X115877857Y-67681428D01*
X115763571Y-67795714D01*
X115649285Y-67852857D01*
X115420714Y-67852857D01*
X115306428Y-67795714D01*
X115192142Y-67681428D01*
X115135000Y-67452857D01*
X115135000Y-67052857D01*
X115192142Y-66824285D01*
X115306428Y-66710000D01*
X115420714Y-66652857D01*
X94942142Y-67852857D02*
X94942142Y-66652857D01*
X95227857Y-66652857D01*
X95399285Y-66710000D01*
X95513571Y-66824285D01*
X95570714Y-66938571D01*
X95627857Y-67167142D01*
X95627857Y-67338571D01*
X95570714Y-67567142D01*
X95513571Y-67681428D01*
X95399285Y-67795714D01*
X95227857Y-67852857D01*
X94942142Y-67852857D01*
X96370714Y-66652857D02*
X96599285Y-66652857D01*
X96713571Y-66710000D01*
X96827857Y-66824285D01*
X96885000Y-67052857D01*
X96885000Y-67452857D01*
X96827857Y-67681428D01*
X96713571Y-67795714D01*
X96599285Y-67852857D01*
X96370714Y-67852857D01*
X96256428Y-67795714D01*
X96142142Y-67681428D01*
X96085000Y-67452857D01*
X96085000Y-67052857D01*
X96142142Y-66824285D01*
X96256428Y-66710000D01*
X96370714Y-66652857D01*
X152092142Y-48802857D02*
X152092142Y-47602857D01*
X152377857Y-47602857D01*
X152549285Y-47660000D01*
X152663571Y-47774285D01*
X152720714Y-47888571D01*
X152777857Y-48117142D01*
X152777857Y-48288571D01*
X152720714Y-48517142D01*
X152663571Y-48631428D01*
X152549285Y-48745714D01*
X152377857Y-48802857D01*
X152092142Y-48802857D01*
X153520714Y-47602857D02*
X153749285Y-47602857D01*
X153863571Y-47660000D01*
X153977857Y-47774285D01*
X154035000Y-48002857D01*
X154035000Y-48402857D01*
X153977857Y-48631428D01*
X153863571Y-48745714D01*
X153749285Y-48802857D01*
X153520714Y-48802857D01*
X153406428Y-48745714D01*
X153292142Y-48631428D01*
X153235000Y-48402857D01*
X153235000Y-48002857D01*
X153292142Y-47774285D01*
X153406428Y-47660000D01*
X153520714Y-47602857D01*
X133042142Y-48802857D02*
X133042142Y-47602857D01*
X133327857Y-47602857D01*
X133499285Y-47660000D01*
X133613571Y-47774285D01*
X133670714Y-47888571D01*
X133727857Y-48117142D01*
X133727857Y-48288571D01*
X133670714Y-48517142D01*
X133613571Y-48631428D01*
X133499285Y-48745714D01*
X133327857Y-48802857D01*
X133042142Y-48802857D01*
X134470714Y-47602857D02*
X134699285Y-47602857D01*
X134813571Y-47660000D01*
X134927857Y-47774285D01*
X134985000Y-48002857D01*
X134985000Y-48402857D01*
X134927857Y-48631428D01*
X134813571Y-48745714D01*
X134699285Y-48802857D01*
X134470714Y-48802857D01*
X134356428Y-48745714D01*
X134242142Y-48631428D01*
X134185000Y-48402857D01*
X134185000Y-48002857D01*
X134242142Y-47774285D01*
X134356428Y-47660000D01*
X134470714Y-47602857D01*
X113992142Y-48802857D02*
X113992142Y-47602857D01*
X114277857Y-47602857D01*
X114449285Y-47660000D01*
X114563571Y-47774285D01*
X114620714Y-47888571D01*
X114677857Y-48117142D01*
X114677857Y-48288571D01*
X114620714Y-48517142D01*
X114563571Y-48631428D01*
X114449285Y-48745714D01*
X114277857Y-48802857D01*
X113992142Y-48802857D01*
X115420714Y-47602857D02*
X115649285Y-47602857D01*
X115763571Y-47660000D01*
X115877857Y-47774285D01*
X115935000Y-48002857D01*
X115935000Y-48402857D01*
X115877857Y-48631428D01*
X115763571Y-48745714D01*
X115649285Y-48802857D01*
X115420714Y-48802857D01*
X115306428Y-48745714D01*
X115192142Y-48631428D01*
X115135000Y-48402857D01*
X115135000Y-48002857D01*
X115192142Y-47774285D01*
X115306428Y-47660000D01*
X115420714Y-47602857D01*
X141976428Y-124888571D02*
X141919285Y-124945714D01*
X141747857Y-125002857D01*
X141633571Y-125002857D01*
X141462142Y-124945714D01*
X141347857Y-124831428D01*
X141290714Y-124717142D01*
X141233571Y-124488571D01*
X141233571Y-124317142D01*
X141290714Y-124088571D01*
X141347857Y-123974285D01*
X141462142Y-123860000D01*
X141633571Y-123802857D01*
X141747857Y-123802857D01*
X141919285Y-123860000D01*
X141976428Y-123917142D01*
X122926428Y-124888571D02*
X122869285Y-124945714D01*
X122697857Y-125002857D01*
X122583571Y-125002857D01*
X122412142Y-124945714D01*
X122297857Y-124831428D01*
X122240714Y-124717142D01*
X122183571Y-124488571D01*
X122183571Y-124317142D01*
X122240714Y-124088571D01*
X122297857Y-123974285D01*
X122412142Y-123860000D01*
X122583571Y-123802857D01*
X122697857Y-123802857D01*
X122869285Y-123860000D01*
X122926428Y-123917142D01*
X103876428Y-124888571D02*
X103819285Y-124945714D01*
X103647857Y-125002857D01*
X103533571Y-125002857D01*
X103362142Y-124945714D01*
X103247857Y-124831428D01*
X103190714Y-124717142D01*
X103133571Y-124488571D01*
X103133571Y-124317142D01*
X103190714Y-124088571D01*
X103247857Y-123974285D01*
X103362142Y-123860000D01*
X103533571Y-123802857D01*
X103647857Y-123802857D01*
X103819285Y-123860000D01*
X103876428Y-123917142D01*
X84826428Y-124888571D02*
X84769285Y-124945714D01*
X84597857Y-125002857D01*
X84483571Y-125002857D01*
X84312142Y-124945714D01*
X84197857Y-124831428D01*
X84140714Y-124717142D01*
X84083571Y-124488571D01*
X84083571Y-124317142D01*
X84140714Y-124088571D01*
X84197857Y-123974285D01*
X84312142Y-123860000D01*
X84483571Y-123802857D01*
X84597857Y-123802857D01*
X84769285Y-123860000D01*
X84826428Y-123917142D01*
X141976428Y-105838571D02*
X141919285Y-105895714D01*
X141747857Y-105952857D01*
X141633571Y-105952857D01*
X141462142Y-105895714D01*
X141347857Y-105781428D01*
X141290714Y-105667142D01*
X141233571Y-105438571D01*
X141233571Y-105267142D01*
X141290714Y-105038571D01*
X141347857Y-104924285D01*
X141462142Y-104810000D01*
X141633571Y-104752857D01*
X141747857Y-104752857D01*
X141919285Y-104810000D01*
X141976428Y-104867142D01*
X122926428Y-105838571D02*
X122869285Y-105895714D01*
X122697857Y-105952857D01*
X122583571Y-105952857D01*
X122412142Y-105895714D01*
X122297857Y-105781428D01*
X122240714Y-105667142D01*
X122183571Y-105438571D01*
X122183571Y-105267142D01*
X122240714Y-105038571D01*
X122297857Y-104924285D01*
X122412142Y-104810000D01*
X122583571Y-104752857D01*
X122697857Y-104752857D01*
X122869285Y-104810000D01*
X122926428Y-104867142D01*
X103876428Y-105838571D02*
X103819285Y-105895714D01*
X103647857Y-105952857D01*
X103533571Y-105952857D01*
X103362142Y-105895714D01*
X103247857Y-105781428D01*
X103190714Y-105667142D01*
X103133571Y-105438571D01*
X103133571Y-105267142D01*
X103190714Y-105038571D01*
X103247857Y-104924285D01*
X103362142Y-104810000D01*
X103533571Y-104752857D01*
X103647857Y-104752857D01*
X103819285Y-104810000D01*
X103876428Y-104867142D01*
X84826428Y-105838571D02*
X84769285Y-105895714D01*
X84597857Y-105952857D01*
X84483571Y-105952857D01*
X84312142Y-105895714D01*
X84197857Y-105781428D01*
X84140714Y-105667142D01*
X84083571Y-105438571D01*
X84083571Y-105267142D01*
X84140714Y-105038571D01*
X84197857Y-104924285D01*
X84312142Y-104810000D01*
X84483571Y-104752857D01*
X84597857Y-104752857D01*
X84769285Y-104810000D01*
X84826428Y-104867142D01*
X141976428Y-86788571D02*
X141919285Y-86845714D01*
X141747857Y-86902857D01*
X141633571Y-86902857D01*
X141462142Y-86845714D01*
X141347857Y-86731428D01*
X141290714Y-86617142D01*
X141233571Y-86388571D01*
X141233571Y-86217142D01*
X141290714Y-85988571D01*
X141347857Y-85874285D01*
X141462142Y-85760000D01*
X141633571Y-85702857D01*
X141747857Y-85702857D01*
X141919285Y-85760000D01*
X141976428Y-85817142D01*
X122926428Y-86788571D02*
X122869285Y-86845714D01*
X122697857Y-86902857D01*
X122583571Y-86902857D01*
X122412142Y-86845714D01*
X122297857Y-86731428D01*
X122240714Y-86617142D01*
X122183571Y-86388571D01*
X122183571Y-86217142D01*
X122240714Y-85988571D01*
X122297857Y-85874285D01*
X122412142Y-85760000D01*
X122583571Y-85702857D01*
X122697857Y-85702857D01*
X122869285Y-85760000D01*
X122926428Y-85817142D01*
X103876428Y-86788571D02*
X103819285Y-86845714D01*
X103647857Y-86902857D01*
X103533571Y-86902857D01*
X103362142Y-86845714D01*
X103247857Y-86731428D01*
X103190714Y-86617142D01*
X103133571Y-86388571D01*
X103133571Y-86217142D01*
X103190714Y-85988571D01*
X103247857Y-85874285D01*
X103362142Y-85760000D01*
X103533571Y-85702857D01*
X103647857Y-85702857D01*
X103819285Y-85760000D01*
X103876428Y-85817142D01*
X84826428Y-86788571D02*
X84769285Y-86845714D01*
X84597857Y-86902857D01*
X84483571Y-86902857D01*
X84312142Y-86845714D01*
X84197857Y-86731428D01*
X84140714Y-86617142D01*
X84083571Y-86388571D01*
X84083571Y-86217142D01*
X84140714Y-85988571D01*
X84197857Y-85874285D01*
X84312142Y-85760000D01*
X84483571Y-85702857D01*
X84597857Y-85702857D01*
X84769285Y-85760000D01*
X84826428Y-85817142D01*
X141976428Y-67738571D02*
X141919285Y-67795714D01*
X141747857Y-67852857D01*
X141633571Y-67852857D01*
X141462142Y-67795714D01*
X141347857Y-67681428D01*
X141290714Y-67567142D01*
X141233571Y-67338571D01*
X141233571Y-67167142D01*
X141290714Y-66938571D01*
X141347857Y-66824285D01*
X141462142Y-66710000D01*
X141633571Y-66652857D01*
X141747857Y-66652857D01*
X141919285Y-66710000D01*
X141976428Y-66767142D01*
X122926428Y-67738571D02*
X122869285Y-67795714D01*
X122697857Y-67852857D01*
X122583571Y-67852857D01*
X122412142Y-67795714D01*
X122297857Y-67681428D01*
X122240714Y-67567142D01*
X122183571Y-67338571D01*
X122183571Y-67167142D01*
X122240714Y-66938571D01*
X122297857Y-66824285D01*
X122412142Y-66710000D01*
X122583571Y-66652857D01*
X122697857Y-66652857D01*
X122869285Y-66710000D01*
X122926428Y-66767142D01*
X103876428Y-67738571D02*
X103819285Y-67795714D01*
X103647857Y-67852857D01*
X103533571Y-67852857D01*
X103362142Y-67795714D01*
X103247857Y-67681428D01*
X103190714Y-67567142D01*
X103133571Y-67338571D01*
X103133571Y-67167142D01*
X103190714Y-66938571D01*
X103247857Y-66824285D01*
X103362142Y-66710000D01*
X103533571Y-66652857D01*
X103647857Y-66652857D01*
X103819285Y-66710000D01*
X103876428Y-66767142D01*
X84826428Y-67738571D02*
X84769285Y-67795714D01*
X84597857Y-67852857D01*
X84483571Y-67852857D01*
X84312142Y-67795714D01*
X84197857Y-67681428D01*
X84140714Y-67567142D01*
X84083571Y-67338571D01*
X84083571Y-67167142D01*
X84140714Y-66938571D01*
X84197857Y-66824285D01*
X84312142Y-66710000D01*
X84483571Y-66652857D01*
X84597857Y-66652857D01*
X84769285Y-66710000D01*
X84826428Y-66767142D01*
X141976428Y-48688571D02*
X141919285Y-48745714D01*
X141747857Y-48802857D01*
X141633571Y-48802857D01*
X141462142Y-48745714D01*
X141347857Y-48631428D01*
X141290714Y-48517142D01*
X141233571Y-48288571D01*
X141233571Y-48117142D01*
X141290714Y-47888571D01*
X141347857Y-47774285D01*
X141462142Y-47660000D01*
X141633571Y-47602857D01*
X141747857Y-47602857D01*
X141919285Y-47660000D01*
X141976428Y-47717142D01*
X122926428Y-48688571D02*
X122869285Y-48745714D01*
X122697857Y-48802857D01*
X122583571Y-48802857D01*
X122412142Y-48745714D01*
X122297857Y-48631428D01*
X122240714Y-48517142D01*
X122183571Y-48288571D01*
X122183571Y-48117142D01*
X122240714Y-47888571D01*
X122297857Y-47774285D01*
X122412142Y-47660000D01*
X122583571Y-47602857D01*
X122697857Y-47602857D01*
X122869285Y-47660000D01*
X122926428Y-47717142D01*
X103876428Y-48688571D02*
X103819285Y-48745714D01*
X103647857Y-48802857D01*
X103533571Y-48802857D01*
X103362142Y-48745714D01*
X103247857Y-48631428D01*
X103190714Y-48517142D01*
X103133571Y-48288571D01*
X103133571Y-48117142D01*
X103190714Y-47888571D01*
X103247857Y-47774285D01*
X103362142Y-47660000D01*
X103533571Y-47602857D01*
X103647857Y-47602857D01*
X103819285Y-47660000D01*
X103876428Y-47717142D01*
X138166428Y-128812857D02*
X137766428Y-128241428D01*
X137480714Y-128812857D02*
X137480714Y-127612857D01*
X137937857Y-127612857D01*
X138052142Y-127670000D01*
X138109285Y-127727142D01*
X138166428Y-127841428D01*
X138166428Y-128012857D01*
X138109285Y-128127142D01*
X138052142Y-128184285D01*
X137937857Y-128241428D01*
X137480714Y-128241428D01*
X119116428Y-128812857D02*
X118716428Y-128241428D01*
X118430714Y-128812857D02*
X118430714Y-127612857D01*
X118887857Y-127612857D01*
X119002142Y-127670000D01*
X119059285Y-127727142D01*
X119116428Y-127841428D01*
X119116428Y-128012857D01*
X119059285Y-128127142D01*
X119002142Y-128184285D01*
X118887857Y-128241428D01*
X118430714Y-128241428D01*
X100066428Y-128812857D02*
X99666428Y-128241428D01*
X99380714Y-128812857D02*
X99380714Y-127612857D01*
X99837857Y-127612857D01*
X99952142Y-127670000D01*
X100009285Y-127727142D01*
X100066428Y-127841428D01*
X100066428Y-128012857D01*
X100009285Y-128127142D01*
X99952142Y-128184285D01*
X99837857Y-128241428D01*
X99380714Y-128241428D01*
X81016428Y-128812857D02*
X80616428Y-128241428D01*
X80330714Y-128812857D02*
X80330714Y-127612857D01*
X80787857Y-127612857D01*
X80902142Y-127670000D01*
X80959285Y-127727142D01*
X81016428Y-127841428D01*
X81016428Y-128012857D01*
X80959285Y-128127142D01*
X80902142Y-128184285D01*
X80787857Y-128241428D01*
X80330714Y-128241428D01*
X138166428Y-109762857D02*
X137766428Y-109191428D01*
X137480714Y-109762857D02*
X137480714Y-108562857D01*
X137937857Y-108562857D01*
X138052142Y-108620000D01*
X138109285Y-108677142D01*
X138166428Y-108791428D01*
X138166428Y-108962857D01*
X138109285Y-109077142D01*
X138052142Y-109134285D01*
X137937857Y-109191428D01*
X137480714Y-109191428D01*
X119116428Y-109762857D02*
X118716428Y-109191428D01*
X118430714Y-109762857D02*
X118430714Y-108562857D01*
X118887857Y-108562857D01*
X119002142Y-108620000D01*
X119059285Y-108677142D01*
X119116428Y-108791428D01*
X119116428Y-108962857D01*
X119059285Y-109077142D01*
X119002142Y-109134285D01*
X118887857Y-109191428D01*
X118430714Y-109191428D01*
X100066428Y-109762857D02*
X99666428Y-109191428D01*
X99380714Y-109762857D02*
X99380714Y-108562857D01*
X99837857Y-108562857D01*
X99952142Y-108620000D01*
X100009285Y-108677142D01*
X100066428Y-108791428D01*
X100066428Y-108962857D01*
X100009285Y-109077142D01*
X99952142Y-109134285D01*
X99837857Y-109191428D01*
X99380714Y-109191428D01*
X81016428Y-109762857D02*
X80616428Y-109191428D01*
X80330714Y-109762857D02*
X80330714Y-108562857D01*
X80787857Y-108562857D01*
X80902142Y-108620000D01*
X80959285Y-108677142D01*
X81016428Y-108791428D01*
X81016428Y-108962857D01*
X80959285Y-109077142D01*
X80902142Y-109134285D01*
X80787857Y-109191428D01*
X80330714Y-109191428D01*
X138166428Y-90712857D02*
X137766428Y-90141428D01*
X137480714Y-90712857D02*
X137480714Y-89512857D01*
X137937857Y-89512857D01*
X138052142Y-89570000D01*
X138109285Y-89627142D01*
X138166428Y-89741428D01*
X138166428Y-89912857D01*
X138109285Y-90027142D01*
X138052142Y-90084285D01*
X137937857Y-90141428D01*
X137480714Y-90141428D01*
X119116428Y-90712857D02*
X118716428Y-90141428D01*
X118430714Y-90712857D02*
X118430714Y-89512857D01*
X118887857Y-89512857D01*
X119002142Y-89570000D01*
X119059285Y-89627142D01*
X119116428Y-89741428D01*
X119116428Y-89912857D01*
X119059285Y-90027142D01*
X119002142Y-90084285D01*
X118887857Y-90141428D01*
X118430714Y-90141428D01*
X100066428Y-90712857D02*
X99666428Y-90141428D01*
X99380714Y-90712857D02*
X99380714Y-89512857D01*
X99837857Y-89512857D01*
X99952142Y-89570000D01*
X100009285Y-89627142D01*
X100066428Y-89741428D01*
X100066428Y-89912857D01*
X100009285Y-90027142D01*
X99952142Y-90084285D01*
X99837857Y-90141428D01*
X99380714Y-90141428D01*
X81016428Y-90712857D02*
X80616428Y-90141428D01*
X80330714Y-90712857D02*
X80330714Y-89512857D01*
X80787857Y-89512857D01*
X80902142Y-89570000D01*
X80959285Y-89627142D01*
X81016428Y-89741428D01*
X81016428Y-89912857D01*
X80959285Y-90027142D01*
X80902142Y-90084285D01*
X80787857Y-90141428D01*
X80330714Y-90141428D01*
X138166428Y-71662857D02*
X137766428Y-71091428D01*
X137480714Y-71662857D02*
X137480714Y-70462857D01*
X137937857Y-70462857D01*
X138052142Y-70520000D01*
X138109285Y-70577142D01*
X138166428Y-70691428D01*
X138166428Y-70862857D01*
X138109285Y-70977142D01*
X138052142Y-71034285D01*
X137937857Y-71091428D01*
X137480714Y-71091428D01*
X119116428Y-71662857D02*
X118716428Y-71091428D01*
X118430714Y-71662857D02*
X118430714Y-70462857D01*
X118887857Y-70462857D01*
X119002142Y-70520000D01*
X119059285Y-70577142D01*
X119116428Y-70691428D01*
X119116428Y-70862857D01*
X119059285Y-70977142D01*
X119002142Y-71034285D01*
X118887857Y-71091428D01*
X118430714Y-71091428D01*
X100066428Y-71662857D02*
X99666428Y-71091428D01*
X99380714Y-71662857D02*
X99380714Y-70462857D01*
X99837857Y-70462857D01*
X99952142Y-70520000D01*
X100009285Y-70577142D01*
X100066428Y-70691428D01*
X100066428Y-70862857D01*
X100009285Y-70977142D01*
X99952142Y-71034285D01*
X99837857Y-71091428D01*
X99380714Y-71091428D01*
X81016428Y-71662857D02*
X80616428Y-71091428D01*
X80330714Y-71662857D02*
X80330714Y-70462857D01*
X80787857Y-70462857D01*
X80902142Y-70520000D01*
X80959285Y-70577142D01*
X81016428Y-70691428D01*
X81016428Y-70862857D01*
X80959285Y-70977142D01*
X80902142Y-71034285D01*
X80787857Y-71091428D01*
X80330714Y-71091428D01*
X138166428Y-52612857D02*
X137766428Y-52041428D01*
X137480714Y-52612857D02*
X137480714Y-51412857D01*
X137937857Y-51412857D01*
X138052142Y-51470000D01*
X138109285Y-51527142D01*
X138166428Y-51641428D01*
X138166428Y-51812857D01*
X138109285Y-51927142D01*
X138052142Y-51984285D01*
X137937857Y-52041428D01*
X137480714Y-52041428D01*
X119116428Y-52612857D02*
X118716428Y-52041428D01*
X118430714Y-52612857D02*
X118430714Y-51412857D01*
X118887857Y-51412857D01*
X119002142Y-51470000D01*
X119059285Y-51527142D01*
X119116428Y-51641428D01*
X119116428Y-51812857D01*
X119059285Y-51927142D01*
X119002142Y-51984285D01*
X118887857Y-52041428D01*
X118430714Y-52041428D01*
X100066428Y-52612857D02*
X99666428Y-52041428D01*
X99380714Y-52612857D02*
X99380714Y-51412857D01*
X99837857Y-51412857D01*
X99952142Y-51470000D01*
X100009285Y-51527142D01*
X100066428Y-51641428D01*
X100066428Y-51812857D01*
X100009285Y-51927142D01*
X99952142Y-51984285D01*
X99837857Y-52041428D01*
X99380714Y-52041428D01*
X140071428Y-138223571D02*
X140014285Y-138280714D01*
X139842857Y-138337857D01*
X139728571Y-138337857D01*
X139557142Y-138280714D01*
X139442857Y-138166428D01*
X139385714Y-138052142D01*
X139328571Y-137823571D01*
X139328571Y-137652142D01*
X139385714Y-137423571D01*
X139442857Y-137309285D01*
X139557142Y-137195000D01*
X139728571Y-137137857D01*
X139842857Y-137137857D01*
X140014285Y-137195000D01*
X140071428Y-137252142D01*
X121021428Y-138223571D02*
X120964285Y-138280714D01*
X120792857Y-138337857D01*
X120678571Y-138337857D01*
X120507142Y-138280714D01*
X120392857Y-138166428D01*
X120335714Y-138052142D01*
X120278571Y-137823571D01*
X120278571Y-137652142D01*
X120335714Y-137423571D01*
X120392857Y-137309285D01*
X120507142Y-137195000D01*
X120678571Y-137137857D01*
X120792857Y-137137857D01*
X120964285Y-137195000D01*
X121021428Y-137252142D01*
X101971428Y-138223571D02*
X101914285Y-138280714D01*
X101742857Y-138337857D01*
X101628571Y-138337857D01*
X101457142Y-138280714D01*
X101342857Y-138166428D01*
X101285714Y-138052142D01*
X101228571Y-137823571D01*
X101228571Y-137652142D01*
X101285714Y-137423571D01*
X101342857Y-137309285D01*
X101457142Y-137195000D01*
X101628571Y-137137857D01*
X101742857Y-137137857D01*
X101914285Y-137195000D01*
X101971428Y-137252142D01*
X82921428Y-138223571D02*
X82864285Y-138280714D01*
X82692857Y-138337857D01*
X82578571Y-138337857D01*
X82407142Y-138280714D01*
X82292857Y-138166428D01*
X82235714Y-138052142D01*
X82178571Y-137823571D01*
X82178571Y-137652142D01*
X82235714Y-137423571D01*
X82292857Y-137309285D01*
X82407142Y-137195000D01*
X82578571Y-137137857D01*
X82692857Y-137137857D01*
X82864285Y-137195000D01*
X82921428Y-137252142D01*
X140071428Y-119173571D02*
X140014285Y-119230714D01*
X139842857Y-119287857D01*
X139728571Y-119287857D01*
X139557142Y-119230714D01*
X139442857Y-119116428D01*
X139385714Y-119002142D01*
X139328571Y-118773571D01*
X139328571Y-118602142D01*
X139385714Y-118373571D01*
X139442857Y-118259285D01*
X139557142Y-118145000D01*
X139728571Y-118087857D01*
X139842857Y-118087857D01*
X140014285Y-118145000D01*
X140071428Y-118202142D01*
X121021428Y-119173571D02*
X120964285Y-119230714D01*
X120792857Y-119287857D01*
X120678571Y-119287857D01*
X120507142Y-119230714D01*
X120392857Y-119116428D01*
X120335714Y-119002142D01*
X120278571Y-118773571D01*
X120278571Y-118602142D01*
X120335714Y-118373571D01*
X120392857Y-118259285D01*
X120507142Y-118145000D01*
X120678571Y-118087857D01*
X120792857Y-118087857D01*
X120964285Y-118145000D01*
X121021428Y-118202142D01*
X101971428Y-119173571D02*
X101914285Y-119230714D01*
X101742857Y-119287857D01*
X101628571Y-119287857D01*
X101457142Y-119230714D01*
X101342857Y-119116428D01*
X101285714Y-119002142D01*
X101228571Y-118773571D01*
X101228571Y-118602142D01*
X101285714Y-118373571D01*
X101342857Y-118259285D01*
X101457142Y-118145000D01*
X101628571Y-118087857D01*
X101742857Y-118087857D01*
X101914285Y-118145000D01*
X101971428Y-118202142D01*
X82921428Y-119173571D02*
X82864285Y-119230714D01*
X82692857Y-119287857D01*
X82578571Y-119287857D01*
X82407142Y-119230714D01*
X82292857Y-119116428D01*
X82235714Y-119002142D01*
X82178571Y-118773571D01*
X82178571Y-118602142D01*
X82235714Y-118373571D01*
X82292857Y-118259285D01*
X82407142Y-118145000D01*
X82578571Y-118087857D01*
X82692857Y-118087857D01*
X82864285Y-118145000D01*
X82921428Y-118202142D01*
X140071428Y-100123571D02*
X140014285Y-100180714D01*
X139842857Y-100237857D01*
X139728571Y-100237857D01*
X139557142Y-100180714D01*
X139442857Y-100066428D01*
X139385714Y-99952142D01*
X139328571Y-99723571D01*
X139328571Y-99552142D01*
X139385714Y-99323571D01*
X139442857Y-99209285D01*
X139557142Y-99095000D01*
X139728571Y-99037857D01*
X139842857Y-99037857D01*
X140014285Y-99095000D01*
X140071428Y-99152142D01*
X121021428Y-100123571D02*
X120964285Y-100180714D01*
X120792857Y-100237857D01*
X120678571Y-100237857D01*
X120507142Y-100180714D01*
X120392857Y-100066428D01*
X120335714Y-99952142D01*
X120278571Y-99723571D01*
X120278571Y-99552142D01*
X120335714Y-99323571D01*
X120392857Y-99209285D01*
X120507142Y-99095000D01*
X120678571Y-99037857D01*
X120792857Y-99037857D01*
X120964285Y-99095000D01*
X121021428Y-99152142D01*
X101971428Y-100123571D02*
X101914285Y-100180714D01*
X101742857Y-100237857D01*
X101628571Y-100237857D01*
X101457142Y-100180714D01*
X101342857Y-100066428D01*
X101285714Y-99952142D01*
X101228571Y-99723571D01*
X101228571Y-99552142D01*
X101285714Y-99323571D01*
X101342857Y-99209285D01*
X101457142Y-99095000D01*
X101628571Y-99037857D01*
X101742857Y-99037857D01*
X101914285Y-99095000D01*
X101971428Y-99152142D01*
X82921428Y-100123571D02*
X82864285Y-100180714D01*
X82692857Y-100237857D01*
X82578571Y-100237857D01*
X82407142Y-100180714D01*
X82292857Y-100066428D01*
X82235714Y-99952142D01*
X82178571Y-99723571D01*
X82178571Y-99552142D01*
X82235714Y-99323571D01*
X82292857Y-99209285D01*
X82407142Y-99095000D01*
X82578571Y-99037857D01*
X82692857Y-99037857D01*
X82864285Y-99095000D01*
X82921428Y-99152142D01*
X140071428Y-81073571D02*
X140014285Y-81130714D01*
X139842857Y-81187857D01*
X139728571Y-81187857D01*
X139557142Y-81130714D01*
X139442857Y-81016428D01*
X139385714Y-80902142D01*
X139328571Y-80673571D01*
X139328571Y-80502142D01*
X139385714Y-80273571D01*
X139442857Y-80159285D01*
X139557142Y-80045000D01*
X139728571Y-79987857D01*
X139842857Y-79987857D01*
X140014285Y-80045000D01*
X140071428Y-80102142D01*
X121021428Y-81073571D02*
X120964285Y-81130714D01*
X120792857Y-81187857D01*
X120678571Y-81187857D01*
X120507142Y-81130714D01*
X120392857Y-81016428D01*
X120335714Y-80902142D01*
X120278571Y-80673571D01*
X120278571Y-80502142D01*
X120335714Y-80273571D01*
X120392857Y-80159285D01*
X120507142Y-80045000D01*
X120678571Y-79987857D01*
X120792857Y-79987857D01*
X120964285Y-80045000D01*
X121021428Y-80102142D01*
X101971428Y-81073571D02*
X101914285Y-81130714D01*
X101742857Y-81187857D01*
X101628571Y-81187857D01*
X101457142Y-81130714D01*
X101342857Y-81016428D01*
X101285714Y-80902142D01*
X101228571Y-80673571D01*
X101228571Y-80502142D01*
X101285714Y-80273571D01*
X101342857Y-80159285D01*
X101457142Y-80045000D01*
X101628571Y-79987857D01*
X101742857Y-79987857D01*
X101914285Y-80045000D01*
X101971428Y-80102142D01*
X82921428Y-81073571D02*
X82864285Y-81130714D01*
X82692857Y-81187857D01*
X82578571Y-81187857D01*
X82407142Y-81130714D01*
X82292857Y-81016428D01*
X82235714Y-80902142D01*
X82178571Y-80673571D01*
X82178571Y-80502142D01*
X82235714Y-80273571D01*
X82292857Y-80159285D01*
X82407142Y-80045000D01*
X82578571Y-79987857D01*
X82692857Y-79987857D01*
X82864285Y-80045000D01*
X82921428Y-80102142D01*
X140071428Y-62023571D02*
X140014285Y-62080714D01*
X139842857Y-62137857D01*
X139728571Y-62137857D01*
X139557142Y-62080714D01*
X139442857Y-61966428D01*
X139385714Y-61852142D01*
X139328571Y-61623571D01*
X139328571Y-61452142D01*
X139385714Y-61223571D01*
X139442857Y-61109285D01*
X139557142Y-60995000D01*
X139728571Y-60937857D01*
X139842857Y-60937857D01*
X140014285Y-60995000D01*
X140071428Y-61052142D01*
X121021428Y-62023571D02*
X120964285Y-62080714D01*
X120792857Y-62137857D01*
X120678571Y-62137857D01*
X120507142Y-62080714D01*
X120392857Y-61966428D01*
X120335714Y-61852142D01*
X120278571Y-61623571D01*
X120278571Y-61452142D01*
X120335714Y-61223571D01*
X120392857Y-61109285D01*
X120507142Y-60995000D01*
X120678571Y-60937857D01*
X120792857Y-60937857D01*
X120964285Y-60995000D01*
X121021428Y-61052142D01*
X101971428Y-62023571D02*
X101914285Y-62080714D01*
X101742857Y-62137857D01*
X101628571Y-62137857D01*
X101457142Y-62080714D01*
X101342857Y-61966428D01*
X101285714Y-61852142D01*
X101228571Y-61623571D01*
X101228571Y-61452142D01*
X101285714Y-61223571D01*
X101342857Y-61109285D01*
X101457142Y-60995000D01*
X101628571Y-60937857D01*
X101742857Y-60937857D01*
X101914285Y-60995000D01*
X101971428Y-61052142D01*
X152435000Y-132622857D02*
X152435000Y-131422857D01*
X152720714Y-131422857D01*
X152892142Y-131480000D01*
X153006428Y-131594285D01*
X153063571Y-131708571D01*
X153120714Y-131937142D01*
X153120714Y-132108571D01*
X153063571Y-132337142D01*
X153006428Y-132451428D01*
X152892142Y-132565714D01*
X152720714Y-132622857D01*
X152435000Y-132622857D01*
X153635000Y-132622857D02*
X153635000Y-131422857D01*
X133385000Y-132622857D02*
X133385000Y-131422857D01*
X133670714Y-131422857D01*
X133842142Y-131480000D01*
X133956428Y-131594285D01*
X134013571Y-131708571D01*
X134070714Y-131937142D01*
X134070714Y-132108571D01*
X134013571Y-132337142D01*
X133956428Y-132451428D01*
X133842142Y-132565714D01*
X133670714Y-132622857D01*
X133385000Y-132622857D01*
X134585000Y-132622857D02*
X134585000Y-131422857D01*
X114335000Y-132622857D02*
X114335000Y-131422857D01*
X114620714Y-131422857D01*
X114792142Y-131480000D01*
X114906428Y-131594285D01*
X114963571Y-131708571D01*
X115020714Y-131937142D01*
X115020714Y-132108571D01*
X114963571Y-132337142D01*
X114906428Y-132451428D01*
X114792142Y-132565714D01*
X114620714Y-132622857D01*
X114335000Y-132622857D01*
X115535000Y-132622857D02*
X115535000Y-131422857D01*
X95285000Y-132622857D02*
X95285000Y-131422857D01*
X95570714Y-131422857D01*
X95742142Y-131480000D01*
X95856428Y-131594285D01*
X95913571Y-131708571D01*
X95970714Y-131937142D01*
X95970714Y-132108571D01*
X95913571Y-132337142D01*
X95856428Y-132451428D01*
X95742142Y-132565714D01*
X95570714Y-132622857D01*
X95285000Y-132622857D01*
X96485000Y-132622857D02*
X96485000Y-131422857D01*
X152435000Y-113572857D02*
X152435000Y-112372857D01*
X152720714Y-112372857D01*
X152892142Y-112430000D01*
X153006428Y-112544285D01*
X153063571Y-112658571D01*
X153120714Y-112887142D01*
X153120714Y-113058571D01*
X153063571Y-113287142D01*
X153006428Y-113401428D01*
X152892142Y-113515714D01*
X152720714Y-113572857D01*
X152435000Y-113572857D01*
X153635000Y-113572857D02*
X153635000Y-112372857D01*
X133385000Y-113572857D02*
X133385000Y-112372857D01*
X133670714Y-112372857D01*
X133842142Y-112430000D01*
X133956428Y-112544285D01*
X134013571Y-112658571D01*
X134070714Y-112887142D01*
X134070714Y-113058571D01*
X134013571Y-113287142D01*
X133956428Y-113401428D01*
X133842142Y-113515714D01*
X133670714Y-113572857D01*
X133385000Y-113572857D01*
X134585000Y-113572857D02*
X134585000Y-112372857D01*
X114335000Y-113572857D02*
X114335000Y-112372857D01*
X114620714Y-112372857D01*
X114792142Y-112430000D01*
X114906428Y-112544285D01*
X114963571Y-112658571D01*
X115020714Y-112887142D01*
X115020714Y-113058571D01*
X114963571Y-113287142D01*
X114906428Y-113401428D01*
X114792142Y-113515714D01*
X114620714Y-113572857D01*
X114335000Y-113572857D01*
X115535000Y-113572857D02*
X115535000Y-112372857D01*
X95285000Y-113572857D02*
X95285000Y-112372857D01*
X95570714Y-112372857D01*
X95742142Y-112430000D01*
X95856428Y-112544285D01*
X95913571Y-112658571D01*
X95970714Y-112887142D01*
X95970714Y-113058571D01*
X95913571Y-113287142D01*
X95856428Y-113401428D01*
X95742142Y-113515714D01*
X95570714Y-113572857D01*
X95285000Y-113572857D01*
X96485000Y-113572857D02*
X96485000Y-112372857D01*
X152435000Y-94522857D02*
X152435000Y-93322857D01*
X152720714Y-93322857D01*
X152892142Y-93380000D01*
X153006428Y-93494285D01*
X153063571Y-93608571D01*
X153120714Y-93837142D01*
X153120714Y-94008571D01*
X153063571Y-94237142D01*
X153006428Y-94351428D01*
X152892142Y-94465714D01*
X152720714Y-94522857D01*
X152435000Y-94522857D01*
X153635000Y-94522857D02*
X153635000Y-93322857D01*
X133385000Y-94522857D02*
X133385000Y-93322857D01*
X133670714Y-93322857D01*
X133842142Y-93380000D01*
X133956428Y-93494285D01*
X134013571Y-93608571D01*
X134070714Y-93837142D01*
X134070714Y-94008571D01*
X134013571Y-94237142D01*
X133956428Y-94351428D01*
X133842142Y-94465714D01*
X133670714Y-94522857D01*
X133385000Y-94522857D01*
X134585000Y-94522857D02*
X134585000Y-93322857D01*
X114335000Y-94522857D02*
X114335000Y-93322857D01*
X114620714Y-93322857D01*
X114792142Y-93380000D01*
X114906428Y-93494285D01*
X114963571Y-93608571D01*
X115020714Y-93837142D01*
X115020714Y-94008571D01*
X114963571Y-94237142D01*
X114906428Y-94351428D01*
X114792142Y-94465714D01*
X114620714Y-94522857D01*
X114335000Y-94522857D01*
X115535000Y-94522857D02*
X115535000Y-93322857D01*
X95285000Y-94522857D02*
X95285000Y-93322857D01*
X95570714Y-93322857D01*
X95742142Y-93380000D01*
X95856428Y-93494285D01*
X95913571Y-93608571D01*
X95970714Y-93837142D01*
X95970714Y-94008571D01*
X95913571Y-94237142D01*
X95856428Y-94351428D01*
X95742142Y-94465714D01*
X95570714Y-94522857D01*
X95285000Y-94522857D01*
X96485000Y-94522857D02*
X96485000Y-93322857D01*
X152435000Y-75472857D02*
X152435000Y-74272857D01*
X152720714Y-74272857D01*
X152892142Y-74330000D01*
X153006428Y-74444285D01*
X153063571Y-74558571D01*
X153120714Y-74787142D01*
X153120714Y-74958571D01*
X153063571Y-75187142D01*
X153006428Y-75301428D01*
X152892142Y-75415714D01*
X152720714Y-75472857D01*
X152435000Y-75472857D01*
X153635000Y-75472857D02*
X153635000Y-74272857D01*
X133385000Y-75472857D02*
X133385000Y-74272857D01*
X133670714Y-74272857D01*
X133842142Y-74330000D01*
X133956428Y-74444285D01*
X134013571Y-74558571D01*
X134070714Y-74787142D01*
X134070714Y-74958571D01*
X134013571Y-75187142D01*
X133956428Y-75301428D01*
X133842142Y-75415714D01*
X133670714Y-75472857D01*
X133385000Y-75472857D01*
X134585000Y-75472857D02*
X134585000Y-74272857D01*
X114335000Y-75472857D02*
X114335000Y-74272857D01*
X114620714Y-74272857D01*
X114792142Y-74330000D01*
X114906428Y-74444285D01*
X114963571Y-74558571D01*
X115020714Y-74787142D01*
X115020714Y-74958571D01*
X114963571Y-75187142D01*
X114906428Y-75301428D01*
X114792142Y-75415714D01*
X114620714Y-75472857D01*
X114335000Y-75472857D01*
X115535000Y-75472857D02*
X115535000Y-74272857D01*
X95285000Y-75472857D02*
X95285000Y-74272857D01*
X95570714Y-74272857D01*
X95742142Y-74330000D01*
X95856428Y-74444285D01*
X95913571Y-74558571D01*
X95970714Y-74787142D01*
X95970714Y-74958571D01*
X95913571Y-75187142D01*
X95856428Y-75301428D01*
X95742142Y-75415714D01*
X95570714Y-75472857D01*
X95285000Y-75472857D01*
X96485000Y-75472857D02*
X96485000Y-74272857D01*
X152435000Y-56422857D02*
X152435000Y-55222857D01*
X152720714Y-55222857D01*
X152892142Y-55280000D01*
X153006428Y-55394285D01*
X153063571Y-55508571D01*
X153120714Y-55737142D01*
X153120714Y-55908571D01*
X153063571Y-56137142D01*
X153006428Y-56251428D01*
X152892142Y-56365714D01*
X152720714Y-56422857D01*
X152435000Y-56422857D01*
X153635000Y-56422857D02*
X153635000Y-55222857D01*
X133385000Y-56422857D02*
X133385000Y-55222857D01*
X133670714Y-55222857D01*
X133842142Y-55280000D01*
X133956428Y-55394285D01*
X134013571Y-55508571D01*
X134070714Y-55737142D01*
X134070714Y-55908571D01*
X134013571Y-56137142D01*
X133956428Y-56251428D01*
X133842142Y-56365714D01*
X133670714Y-56422857D01*
X133385000Y-56422857D01*
X134585000Y-56422857D02*
X134585000Y-55222857D01*
X114335000Y-56422857D02*
X114335000Y-55222857D01*
X114620714Y-55222857D01*
X114792142Y-55280000D01*
X114906428Y-55394285D01*
X114963571Y-55508571D01*
X115020714Y-55737142D01*
X115020714Y-55908571D01*
X114963571Y-56137142D01*
X114906428Y-56251428D01*
X114792142Y-56365714D01*
X114620714Y-56422857D01*
X114335000Y-56422857D01*
X115535000Y-56422857D02*
X115535000Y-55222857D01*
X153406428Y-128812857D02*
X153006428Y-128241428D01*
X152720714Y-128812857D02*
X152720714Y-127612857D01*
X153177857Y-127612857D01*
X153292142Y-127670000D01*
X153349285Y-127727142D01*
X153406428Y-127841428D01*
X153406428Y-128012857D01*
X153349285Y-128127142D01*
X153292142Y-128184285D01*
X153177857Y-128241428D01*
X152720714Y-128241428D01*
X134356428Y-128812857D02*
X133956428Y-128241428D01*
X133670714Y-128812857D02*
X133670714Y-127612857D01*
X134127857Y-127612857D01*
X134242142Y-127670000D01*
X134299285Y-127727142D01*
X134356428Y-127841428D01*
X134356428Y-128012857D01*
X134299285Y-128127142D01*
X134242142Y-128184285D01*
X134127857Y-128241428D01*
X133670714Y-128241428D01*
X115306428Y-128812857D02*
X114906428Y-128241428D01*
X114620714Y-128812857D02*
X114620714Y-127612857D01*
X115077857Y-127612857D01*
X115192142Y-127670000D01*
X115249285Y-127727142D01*
X115306428Y-127841428D01*
X115306428Y-128012857D01*
X115249285Y-128127142D01*
X115192142Y-128184285D01*
X115077857Y-128241428D01*
X114620714Y-128241428D01*
X96256428Y-128812857D02*
X95856428Y-128241428D01*
X95570714Y-128812857D02*
X95570714Y-127612857D01*
X96027857Y-127612857D01*
X96142142Y-127670000D01*
X96199285Y-127727142D01*
X96256428Y-127841428D01*
X96256428Y-128012857D01*
X96199285Y-128127142D01*
X96142142Y-128184285D01*
X96027857Y-128241428D01*
X95570714Y-128241428D01*
X153406428Y-109762857D02*
X153006428Y-109191428D01*
X152720714Y-109762857D02*
X152720714Y-108562857D01*
X153177857Y-108562857D01*
X153292142Y-108620000D01*
X153349285Y-108677142D01*
X153406428Y-108791428D01*
X153406428Y-108962857D01*
X153349285Y-109077142D01*
X153292142Y-109134285D01*
X153177857Y-109191428D01*
X152720714Y-109191428D01*
X134356428Y-109762857D02*
X133956428Y-109191428D01*
X133670714Y-109762857D02*
X133670714Y-108562857D01*
X134127857Y-108562857D01*
X134242142Y-108620000D01*
X134299285Y-108677142D01*
X134356428Y-108791428D01*
X134356428Y-108962857D01*
X134299285Y-109077142D01*
X134242142Y-109134285D01*
X134127857Y-109191428D01*
X133670714Y-109191428D01*
X115306428Y-109762857D02*
X114906428Y-109191428D01*
X114620714Y-109762857D02*
X114620714Y-108562857D01*
X115077857Y-108562857D01*
X115192142Y-108620000D01*
X115249285Y-108677142D01*
X115306428Y-108791428D01*
X115306428Y-108962857D01*
X115249285Y-109077142D01*
X115192142Y-109134285D01*
X115077857Y-109191428D01*
X114620714Y-109191428D01*
X96256428Y-109762857D02*
X95856428Y-109191428D01*
X95570714Y-109762857D02*
X95570714Y-108562857D01*
X96027857Y-108562857D01*
X96142142Y-108620000D01*
X96199285Y-108677142D01*
X96256428Y-108791428D01*
X96256428Y-108962857D01*
X96199285Y-109077142D01*
X96142142Y-109134285D01*
X96027857Y-109191428D01*
X95570714Y-109191428D01*
X153406428Y-90712857D02*
X153006428Y-90141428D01*
X152720714Y-90712857D02*
X152720714Y-89512857D01*
X153177857Y-89512857D01*
X153292142Y-89570000D01*
X153349285Y-89627142D01*
X153406428Y-89741428D01*
X153406428Y-89912857D01*
X153349285Y-90027142D01*
X153292142Y-90084285D01*
X153177857Y-90141428D01*
X152720714Y-90141428D01*
X134356428Y-90712857D02*
X133956428Y-90141428D01*
X133670714Y-90712857D02*
X133670714Y-89512857D01*
X134127857Y-89512857D01*
X134242142Y-89570000D01*
X134299285Y-89627142D01*
X134356428Y-89741428D01*
X134356428Y-89912857D01*
X134299285Y-90027142D01*
X134242142Y-90084285D01*
X134127857Y-90141428D01*
X133670714Y-90141428D01*
X115306428Y-90712857D02*
X114906428Y-90141428D01*
X114620714Y-90712857D02*
X114620714Y-89512857D01*
X115077857Y-89512857D01*
X115192142Y-89570000D01*
X115249285Y-89627142D01*
X115306428Y-89741428D01*
X115306428Y-89912857D01*
X115249285Y-90027142D01*
X115192142Y-90084285D01*
X115077857Y-90141428D01*
X114620714Y-90141428D01*
X96256428Y-90712857D02*
X95856428Y-90141428D01*
X95570714Y-90712857D02*
X95570714Y-89512857D01*
X96027857Y-89512857D01*
X96142142Y-89570000D01*
X96199285Y-89627142D01*
X96256428Y-89741428D01*
X96256428Y-89912857D01*
X96199285Y-90027142D01*
X96142142Y-90084285D01*
X96027857Y-90141428D01*
X95570714Y-90141428D01*
X153406428Y-71662857D02*
X153006428Y-71091428D01*
X152720714Y-71662857D02*
X152720714Y-70462857D01*
X153177857Y-70462857D01*
X153292142Y-70520000D01*
X153349285Y-70577142D01*
X153406428Y-70691428D01*
X153406428Y-70862857D01*
X153349285Y-70977142D01*
X153292142Y-71034285D01*
X153177857Y-71091428D01*
X152720714Y-71091428D01*
X134356428Y-71662857D02*
X133956428Y-71091428D01*
X133670714Y-71662857D02*
X133670714Y-70462857D01*
X134127857Y-70462857D01*
X134242142Y-70520000D01*
X134299285Y-70577142D01*
X134356428Y-70691428D01*
X134356428Y-70862857D01*
X134299285Y-70977142D01*
X134242142Y-71034285D01*
X134127857Y-71091428D01*
X133670714Y-71091428D01*
X115306428Y-71662857D02*
X114906428Y-71091428D01*
X114620714Y-71662857D02*
X114620714Y-70462857D01*
X115077857Y-70462857D01*
X115192142Y-70520000D01*
X115249285Y-70577142D01*
X115306428Y-70691428D01*
X115306428Y-70862857D01*
X115249285Y-70977142D01*
X115192142Y-71034285D01*
X115077857Y-71091428D01*
X114620714Y-71091428D01*
X96256428Y-71662857D02*
X95856428Y-71091428D01*
X95570714Y-71662857D02*
X95570714Y-70462857D01*
X96027857Y-70462857D01*
X96142142Y-70520000D01*
X96199285Y-70577142D01*
X96256428Y-70691428D01*
X96256428Y-70862857D01*
X96199285Y-70977142D01*
X96142142Y-71034285D01*
X96027857Y-71091428D01*
X95570714Y-71091428D01*
X153406428Y-52612857D02*
X153006428Y-52041428D01*
X152720714Y-52612857D02*
X152720714Y-51412857D01*
X153177857Y-51412857D01*
X153292142Y-51470000D01*
X153349285Y-51527142D01*
X153406428Y-51641428D01*
X153406428Y-51812857D01*
X153349285Y-51927142D01*
X153292142Y-51984285D01*
X153177857Y-52041428D01*
X152720714Y-52041428D01*
X134356428Y-52612857D02*
X133956428Y-52041428D01*
X133670714Y-52612857D02*
X133670714Y-51412857D01*
X134127857Y-51412857D01*
X134242142Y-51470000D01*
X134299285Y-51527142D01*
X134356428Y-51641428D01*
X134356428Y-51812857D01*
X134299285Y-51927142D01*
X134242142Y-51984285D01*
X134127857Y-52041428D01*
X133670714Y-52041428D01*
X115306428Y-52612857D02*
X114906428Y-52041428D01*
X114620714Y-52612857D02*
X114620714Y-51412857D01*
X115077857Y-51412857D01*
X115192142Y-51470000D01*
X115249285Y-51527142D01*
X115306428Y-51641428D01*
X115306428Y-51812857D01*
X115249285Y-51927142D01*
X115192142Y-51984285D01*
X115077857Y-52041428D01*
X114620714Y-52041428D01*
X137337857Y-135975714D02*
X138252142Y-135975714D01*
X118287857Y-135975714D02*
X119202142Y-135975714D01*
X99237857Y-135975714D02*
X100152142Y-135975714D01*
X80187857Y-135975714D02*
X81102142Y-135975714D01*
X137337857Y-116925714D02*
X138252142Y-116925714D01*
X118287857Y-116925714D02*
X119202142Y-116925714D01*
X99237857Y-116925714D02*
X100152142Y-116925714D01*
X80187857Y-116925714D02*
X81102142Y-116925714D01*
X137337857Y-97875714D02*
X138252142Y-97875714D01*
X118287857Y-97875714D02*
X119202142Y-97875714D01*
X99237857Y-97875714D02*
X100152142Y-97875714D01*
X80187857Y-97875714D02*
X81102142Y-97875714D01*
X137337857Y-78825714D02*
X138252142Y-78825714D01*
X118287857Y-78825714D02*
X119202142Y-78825714D01*
X99237857Y-78825714D02*
X100152142Y-78825714D01*
X80187857Y-78825714D02*
X81102142Y-78825714D01*
X137337857Y-59775714D02*
X138252142Y-59775714D01*
X118287857Y-59775714D02*
X119202142Y-59775714D01*
X99237857Y-59775714D02*
X100152142Y-59775714D01*
X136852142Y-132622857D02*
X136852142Y-131422857D01*
X137137857Y-131422857D01*
X137309285Y-131480000D01*
X137423571Y-131594285D01*
X137480714Y-131708571D01*
X137537857Y-131937142D01*
X137537857Y-132108571D01*
X137480714Y-132337142D01*
X137423571Y-132451428D01*
X137309285Y-132565714D01*
X137137857Y-132622857D01*
X136852142Y-132622857D01*
X138280714Y-131422857D02*
X138509285Y-131422857D01*
X138623571Y-131480000D01*
X138737857Y-131594285D01*
X138795000Y-131822857D01*
X138795000Y-132222857D01*
X138737857Y-132451428D01*
X138623571Y-132565714D01*
X138509285Y-132622857D01*
X138280714Y-132622857D01*
X138166428Y-132565714D01*
X138052142Y-132451428D01*
X137995000Y-132222857D01*
X137995000Y-131822857D01*
X138052142Y-131594285D01*
X138166428Y-131480000D01*
X138280714Y-131422857D01*
X117802142Y-132622857D02*
X117802142Y-131422857D01*
X118087857Y-131422857D01*
X118259285Y-131480000D01*
X118373571Y-131594285D01*
X118430714Y-131708571D01*
X118487857Y-131937142D01*
X118487857Y-132108571D01*
X118430714Y-132337142D01*
X118373571Y-132451428D01*
X118259285Y-132565714D01*
X118087857Y-132622857D01*
X117802142Y-132622857D01*
X119230714Y-131422857D02*
X119459285Y-131422857D01*
X119573571Y-131480000D01*
X119687857Y-131594285D01*
X119745000Y-131822857D01*
X119745000Y-132222857D01*
X119687857Y-132451428D01*
X119573571Y-132565714D01*
X119459285Y-132622857D01*
X119230714Y-132622857D01*
X119116428Y-132565714D01*
X119002142Y-132451428D01*
X118945000Y-132222857D01*
X118945000Y-131822857D01*
X119002142Y-131594285D01*
X119116428Y-131480000D01*
X119230714Y-131422857D01*
X98752142Y-132622857D02*
X98752142Y-131422857D01*
X99037857Y-131422857D01*
X99209285Y-131480000D01*
X99323571Y-131594285D01*
X99380714Y-131708571D01*
X99437857Y-131937142D01*
X99437857Y-132108571D01*
X99380714Y-132337142D01*
X99323571Y-132451428D01*
X99209285Y-132565714D01*
X99037857Y-132622857D01*
X98752142Y-132622857D01*
X100180714Y-131422857D02*
X100409285Y-131422857D01*
X100523571Y-131480000D01*
X100637857Y-131594285D01*
X100695000Y-131822857D01*
X100695000Y-132222857D01*
X100637857Y-132451428D01*
X100523571Y-132565714D01*
X100409285Y-132622857D01*
X100180714Y-132622857D01*
X100066428Y-132565714D01*
X99952142Y-132451428D01*
X99895000Y-132222857D01*
X99895000Y-131822857D01*
X99952142Y-131594285D01*
X100066428Y-131480000D01*
X100180714Y-131422857D01*
X79702142Y-132622857D02*
X79702142Y-131422857D01*
X79987857Y-131422857D01*
X80159285Y-131480000D01*
X80273571Y-131594285D01*
X80330714Y-131708571D01*
X80387857Y-131937142D01*
X80387857Y-132108571D01*
X80330714Y-132337142D01*
X80273571Y-132451428D01*
X80159285Y-132565714D01*
X79987857Y-132622857D01*
X79702142Y-132622857D01*
X81130714Y-131422857D02*
X81359285Y-131422857D01*
X81473571Y-131480000D01*
X81587857Y-131594285D01*
X81645000Y-131822857D01*
X81645000Y-132222857D01*
X81587857Y-132451428D01*
X81473571Y-132565714D01*
X81359285Y-132622857D01*
X81130714Y-132622857D01*
X81016428Y-132565714D01*
X80902142Y-132451428D01*
X80845000Y-132222857D01*
X80845000Y-131822857D01*
X80902142Y-131594285D01*
X81016428Y-131480000D01*
X81130714Y-131422857D01*
X136852142Y-113572857D02*
X136852142Y-112372857D01*
X137137857Y-112372857D01*
X137309285Y-112430000D01*
X137423571Y-112544285D01*
X137480714Y-112658571D01*
X137537857Y-112887142D01*
X137537857Y-113058571D01*
X137480714Y-113287142D01*
X137423571Y-113401428D01*
X137309285Y-113515714D01*
X137137857Y-113572857D01*
X136852142Y-113572857D01*
X138280714Y-112372857D02*
X138509285Y-112372857D01*
X138623571Y-112430000D01*
X138737857Y-112544285D01*
X138795000Y-112772857D01*
X138795000Y-113172857D01*
X138737857Y-113401428D01*
X138623571Y-113515714D01*
X138509285Y-113572857D01*
X138280714Y-113572857D01*
X138166428Y-113515714D01*
X138052142Y-113401428D01*
X137995000Y-113172857D01*
X137995000Y-112772857D01*
X138052142Y-112544285D01*
X138166428Y-112430000D01*
X138280714Y-112372857D01*
X117802142Y-113572857D02*
X117802142Y-112372857D01*
X118087857Y-112372857D01*
X118259285Y-112430000D01*
X118373571Y-112544285D01*
X118430714Y-112658571D01*
X118487857Y-112887142D01*
X118487857Y-113058571D01*
X118430714Y-113287142D01*
X118373571Y-113401428D01*
X118259285Y-113515714D01*
X118087857Y-113572857D01*
X117802142Y-113572857D01*
X119230714Y-112372857D02*
X119459285Y-112372857D01*
X119573571Y-112430000D01*
X119687857Y-112544285D01*
X119745000Y-112772857D01*
X119745000Y-113172857D01*
X119687857Y-113401428D01*
X119573571Y-113515714D01*
X119459285Y-113572857D01*
X119230714Y-113572857D01*
X119116428Y-113515714D01*
X119002142Y-113401428D01*
X118945000Y-113172857D01*
X118945000Y-112772857D01*
X119002142Y-112544285D01*
X119116428Y-112430000D01*
X119230714Y-112372857D01*
X98752142Y-113572857D02*
X98752142Y-112372857D01*
X99037857Y-112372857D01*
X99209285Y-112430000D01*
X99323571Y-112544285D01*
X99380714Y-112658571D01*
X99437857Y-112887142D01*
X99437857Y-113058571D01*
X99380714Y-113287142D01*
X99323571Y-113401428D01*
X99209285Y-113515714D01*
X99037857Y-113572857D01*
X98752142Y-113572857D01*
X100180714Y-112372857D02*
X100409285Y-112372857D01*
X100523571Y-112430000D01*
X100637857Y-112544285D01*
X100695000Y-112772857D01*
X100695000Y-113172857D01*
X100637857Y-113401428D01*
X100523571Y-113515714D01*
X100409285Y-113572857D01*
X100180714Y-113572857D01*
X100066428Y-113515714D01*
X99952142Y-113401428D01*
X99895000Y-113172857D01*
X99895000Y-112772857D01*
X99952142Y-112544285D01*
X100066428Y-112430000D01*
X100180714Y-112372857D01*
X79702142Y-113572857D02*
X79702142Y-112372857D01*
X79987857Y-112372857D01*
X80159285Y-112430000D01*
X80273571Y-112544285D01*
X80330714Y-112658571D01*
X80387857Y-112887142D01*
X80387857Y-113058571D01*
X80330714Y-113287142D01*
X80273571Y-113401428D01*
X80159285Y-113515714D01*
X79987857Y-113572857D01*
X79702142Y-113572857D01*
X81130714Y-112372857D02*
X81359285Y-112372857D01*
X81473571Y-112430000D01*
X81587857Y-112544285D01*
X81645000Y-112772857D01*
X81645000Y-113172857D01*
X81587857Y-113401428D01*
X81473571Y-113515714D01*
X81359285Y-113572857D01*
X81130714Y-113572857D01*
X81016428Y-113515714D01*
X80902142Y-113401428D01*
X80845000Y-113172857D01*
X80845000Y-112772857D01*
X80902142Y-112544285D01*
X81016428Y-112430000D01*
X81130714Y-112372857D01*
X136852142Y-94522857D02*
X136852142Y-93322857D01*
X137137857Y-93322857D01*
X137309285Y-93380000D01*
X137423571Y-93494285D01*
X137480714Y-93608571D01*
X137537857Y-93837142D01*
X137537857Y-94008571D01*
X137480714Y-94237142D01*
X137423571Y-94351428D01*
X137309285Y-94465714D01*
X137137857Y-94522857D01*
X136852142Y-94522857D01*
X138280714Y-93322857D02*
X138509285Y-93322857D01*
X138623571Y-93380000D01*
X138737857Y-93494285D01*
X138795000Y-93722857D01*
X138795000Y-94122857D01*
X138737857Y-94351428D01*
X138623571Y-94465714D01*
X138509285Y-94522857D01*
X138280714Y-94522857D01*
X138166428Y-94465714D01*
X138052142Y-94351428D01*
X137995000Y-94122857D01*
X137995000Y-93722857D01*
X138052142Y-93494285D01*
X138166428Y-93380000D01*
X138280714Y-93322857D01*
X117802142Y-94522857D02*
X117802142Y-93322857D01*
X118087857Y-93322857D01*
X118259285Y-93380000D01*
X118373571Y-93494285D01*
X118430714Y-93608571D01*
X118487857Y-93837142D01*
X118487857Y-94008571D01*
X118430714Y-94237142D01*
X118373571Y-94351428D01*
X118259285Y-94465714D01*
X118087857Y-94522857D01*
X117802142Y-94522857D01*
X119230714Y-93322857D02*
X119459285Y-93322857D01*
X119573571Y-93380000D01*
X119687857Y-93494285D01*
X119745000Y-93722857D01*
X119745000Y-94122857D01*
X119687857Y-94351428D01*
X119573571Y-94465714D01*
X119459285Y-94522857D01*
X119230714Y-94522857D01*
X119116428Y-94465714D01*
X119002142Y-94351428D01*
X118945000Y-94122857D01*
X118945000Y-93722857D01*
X119002142Y-93494285D01*
X119116428Y-93380000D01*
X119230714Y-93322857D01*
X98752142Y-94522857D02*
X98752142Y-93322857D01*
X99037857Y-93322857D01*
X99209285Y-93380000D01*
X99323571Y-93494285D01*
X99380714Y-93608571D01*
X99437857Y-93837142D01*
X99437857Y-94008571D01*
X99380714Y-94237142D01*
X99323571Y-94351428D01*
X99209285Y-94465714D01*
X99037857Y-94522857D01*
X98752142Y-94522857D01*
X100180714Y-93322857D02*
X100409285Y-93322857D01*
X100523571Y-93380000D01*
X100637857Y-93494285D01*
X100695000Y-93722857D01*
X100695000Y-94122857D01*
X100637857Y-94351428D01*
X100523571Y-94465714D01*
X100409285Y-94522857D01*
X100180714Y-94522857D01*
X100066428Y-94465714D01*
X99952142Y-94351428D01*
X99895000Y-94122857D01*
X99895000Y-93722857D01*
X99952142Y-93494285D01*
X100066428Y-93380000D01*
X100180714Y-93322857D01*
X79702142Y-94522857D02*
X79702142Y-93322857D01*
X79987857Y-93322857D01*
X80159285Y-93380000D01*
X80273571Y-93494285D01*
X80330714Y-93608571D01*
X80387857Y-93837142D01*
X80387857Y-94008571D01*
X80330714Y-94237142D01*
X80273571Y-94351428D01*
X80159285Y-94465714D01*
X79987857Y-94522857D01*
X79702142Y-94522857D01*
X81130714Y-93322857D02*
X81359285Y-93322857D01*
X81473571Y-93380000D01*
X81587857Y-93494285D01*
X81645000Y-93722857D01*
X81645000Y-94122857D01*
X81587857Y-94351428D01*
X81473571Y-94465714D01*
X81359285Y-94522857D01*
X81130714Y-94522857D01*
X81016428Y-94465714D01*
X80902142Y-94351428D01*
X80845000Y-94122857D01*
X80845000Y-93722857D01*
X80902142Y-93494285D01*
X81016428Y-93380000D01*
X81130714Y-93322857D01*
X136852142Y-75472857D02*
X136852142Y-74272857D01*
X137137857Y-74272857D01*
X137309285Y-74330000D01*
X137423571Y-74444285D01*
X137480714Y-74558571D01*
X137537857Y-74787142D01*
X137537857Y-74958571D01*
X137480714Y-75187142D01*
X137423571Y-75301428D01*
X137309285Y-75415714D01*
X137137857Y-75472857D01*
X136852142Y-75472857D01*
X138280714Y-74272857D02*
X138509285Y-74272857D01*
X138623571Y-74330000D01*
X138737857Y-74444285D01*
X138795000Y-74672857D01*
X138795000Y-75072857D01*
X138737857Y-75301428D01*
X138623571Y-75415714D01*
X138509285Y-75472857D01*
X138280714Y-75472857D01*
X138166428Y-75415714D01*
X138052142Y-75301428D01*
X137995000Y-75072857D01*
X137995000Y-74672857D01*
X138052142Y-74444285D01*
X138166428Y-74330000D01*
X138280714Y-74272857D01*
X117802142Y-75472857D02*
X117802142Y-74272857D01*
X118087857Y-74272857D01*
X118259285Y-74330000D01*
X118373571Y-74444285D01*
X118430714Y-74558571D01*
X118487857Y-74787142D01*
X118487857Y-74958571D01*
X118430714Y-75187142D01*
X118373571Y-75301428D01*
X118259285Y-75415714D01*
X118087857Y-75472857D01*
X117802142Y-75472857D01*
X119230714Y-74272857D02*
X119459285Y-74272857D01*
X119573571Y-74330000D01*
X119687857Y-74444285D01*
X119745000Y-74672857D01*
X119745000Y-75072857D01*
X119687857Y-75301428D01*
X119573571Y-75415714D01*
X119459285Y-75472857D01*
X119230714Y-75472857D01*
X119116428Y-75415714D01*
X119002142Y-75301428D01*
X118945000Y-75072857D01*
X118945000Y-74672857D01*
X119002142Y-74444285D01*
X119116428Y-74330000D01*
X119230714Y-74272857D01*
X98752142Y-75472857D02*
X98752142Y-74272857D01*
X99037857Y-74272857D01*
X99209285Y-74330000D01*
X99323571Y-74444285D01*
X99380714Y-74558571D01*
X99437857Y-74787142D01*
X99437857Y-74958571D01*
X99380714Y-75187142D01*
X99323571Y-75301428D01*
X99209285Y-75415714D01*
X99037857Y-75472857D01*
X98752142Y-75472857D01*
X100180714Y-74272857D02*
X100409285Y-74272857D01*
X100523571Y-74330000D01*
X100637857Y-74444285D01*
X100695000Y-74672857D01*
X100695000Y-75072857D01*
X100637857Y-75301428D01*
X100523571Y-75415714D01*
X100409285Y-75472857D01*
X100180714Y-75472857D01*
X100066428Y-75415714D01*
X99952142Y-75301428D01*
X99895000Y-75072857D01*
X99895000Y-74672857D01*
X99952142Y-74444285D01*
X100066428Y-74330000D01*
X100180714Y-74272857D01*
X79702142Y-75472857D02*
X79702142Y-74272857D01*
X79987857Y-74272857D01*
X80159285Y-74330000D01*
X80273571Y-74444285D01*
X80330714Y-74558571D01*
X80387857Y-74787142D01*
X80387857Y-74958571D01*
X80330714Y-75187142D01*
X80273571Y-75301428D01*
X80159285Y-75415714D01*
X79987857Y-75472857D01*
X79702142Y-75472857D01*
X81130714Y-74272857D02*
X81359285Y-74272857D01*
X81473571Y-74330000D01*
X81587857Y-74444285D01*
X81645000Y-74672857D01*
X81645000Y-75072857D01*
X81587857Y-75301428D01*
X81473571Y-75415714D01*
X81359285Y-75472857D01*
X81130714Y-75472857D01*
X81016428Y-75415714D01*
X80902142Y-75301428D01*
X80845000Y-75072857D01*
X80845000Y-74672857D01*
X80902142Y-74444285D01*
X81016428Y-74330000D01*
X81130714Y-74272857D01*
X136852142Y-56422857D02*
X136852142Y-55222857D01*
X137137857Y-55222857D01*
X137309285Y-55280000D01*
X137423571Y-55394285D01*
X137480714Y-55508571D01*
X137537857Y-55737142D01*
X137537857Y-55908571D01*
X137480714Y-56137142D01*
X137423571Y-56251428D01*
X137309285Y-56365714D01*
X137137857Y-56422857D01*
X136852142Y-56422857D01*
X138280714Y-55222857D02*
X138509285Y-55222857D01*
X138623571Y-55280000D01*
X138737857Y-55394285D01*
X138795000Y-55622857D01*
X138795000Y-56022857D01*
X138737857Y-56251428D01*
X138623571Y-56365714D01*
X138509285Y-56422857D01*
X138280714Y-56422857D01*
X138166428Y-56365714D01*
X138052142Y-56251428D01*
X137995000Y-56022857D01*
X137995000Y-55622857D01*
X138052142Y-55394285D01*
X138166428Y-55280000D01*
X138280714Y-55222857D01*
X117802142Y-56422857D02*
X117802142Y-55222857D01*
X118087857Y-55222857D01*
X118259285Y-55280000D01*
X118373571Y-55394285D01*
X118430714Y-55508571D01*
X118487857Y-55737142D01*
X118487857Y-55908571D01*
X118430714Y-56137142D01*
X118373571Y-56251428D01*
X118259285Y-56365714D01*
X118087857Y-56422857D01*
X117802142Y-56422857D01*
X119230714Y-55222857D02*
X119459285Y-55222857D01*
X119573571Y-55280000D01*
X119687857Y-55394285D01*
X119745000Y-55622857D01*
X119745000Y-56022857D01*
X119687857Y-56251428D01*
X119573571Y-56365714D01*
X119459285Y-56422857D01*
X119230714Y-56422857D01*
X119116428Y-56365714D01*
X119002142Y-56251428D01*
X118945000Y-56022857D01*
X118945000Y-55622857D01*
X119002142Y-55394285D01*
X119116428Y-55280000D01*
X119230714Y-55222857D01*
X98752142Y-56422857D02*
X98752142Y-55222857D01*
X99037857Y-55222857D01*
X99209285Y-55280000D01*
X99323571Y-55394285D01*
X99380714Y-55508571D01*
X99437857Y-55737142D01*
X99437857Y-55908571D01*
X99380714Y-56137142D01*
X99323571Y-56251428D01*
X99209285Y-56365714D01*
X99037857Y-56422857D01*
X98752142Y-56422857D01*
X100180714Y-55222857D02*
X100409285Y-55222857D01*
X100523571Y-55280000D01*
X100637857Y-55394285D01*
X100695000Y-55622857D01*
X100695000Y-56022857D01*
X100637857Y-56251428D01*
X100523571Y-56365714D01*
X100409285Y-56422857D01*
X100180714Y-56422857D01*
X100066428Y-56365714D01*
X99952142Y-56251428D01*
X99895000Y-56022857D01*
X99895000Y-55622857D01*
X99952142Y-55394285D01*
X100066428Y-55280000D01*
X100180714Y-55222857D01*
X150672857Y-123910714D02*
X151587142Y-123910714D01*
X151130000Y-124367857D02*
X151130000Y-123453571D01*
X131622857Y-123910714D02*
X132537142Y-123910714D01*
X132080000Y-124367857D02*
X132080000Y-123453571D01*
X112572857Y-123910714D02*
X113487142Y-123910714D01*
X113030000Y-124367857D02*
X113030000Y-123453571D01*
X93522857Y-123910714D02*
X94437142Y-123910714D01*
X93980000Y-124367857D02*
X93980000Y-123453571D01*
X150672857Y-104860714D02*
X151587142Y-104860714D01*
X151130000Y-105317857D02*
X151130000Y-104403571D01*
X131622857Y-104860714D02*
X132537142Y-104860714D01*
X132080000Y-105317857D02*
X132080000Y-104403571D01*
X112572857Y-104860714D02*
X113487142Y-104860714D01*
X113030000Y-105317857D02*
X113030000Y-104403571D01*
X93522857Y-104860714D02*
X94437142Y-104860714D01*
X93980000Y-105317857D02*
X93980000Y-104403571D01*
X150672857Y-85810714D02*
X151587142Y-85810714D01*
X151130000Y-86267857D02*
X151130000Y-85353571D01*
X131622857Y-85810714D02*
X132537142Y-85810714D01*
X132080000Y-86267857D02*
X132080000Y-85353571D01*
X112572857Y-85810714D02*
X113487142Y-85810714D01*
X113030000Y-86267857D02*
X113030000Y-85353571D01*
X93522857Y-85810714D02*
X94437142Y-85810714D01*
X93980000Y-86267857D02*
X93980000Y-85353571D01*
X150672857Y-66760714D02*
X151587142Y-66760714D01*
X151130000Y-67217857D02*
X151130000Y-66303571D01*
X131622857Y-66760714D02*
X132537142Y-66760714D01*
X132080000Y-67217857D02*
X132080000Y-66303571D01*
X112572857Y-66760714D02*
X113487142Y-66760714D01*
X113030000Y-67217857D02*
X113030000Y-66303571D01*
X93522857Y-66760714D02*
X94437142Y-66760714D01*
X93980000Y-67217857D02*
X93980000Y-66303571D01*
X150672857Y-47710714D02*
X151587142Y-47710714D01*
X151130000Y-48167857D02*
X151130000Y-47253571D01*
X131622857Y-47710714D02*
X132537142Y-47710714D01*
X132080000Y-48167857D02*
X132080000Y-47253571D01*
X112572857Y-47710714D02*
X113487142Y-47710714D01*
X113030000Y-48167857D02*
X113030000Y-47253571D01*
X139242857Y-122640714D02*
X140157142Y-122640714D01*
X120192857Y-122640714D02*
X121107142Y-122640714D01*
X101142857Y-122640714D02*
X102057142Y-122640714D01*
X82092857Y-122640714D02*
X83007142Y-122640714D01*
X139242857Y-103590714D02*
X140157142Y-103590714D01*
X120192857Y-103590714D02*
X121107142Y-103590714D01*
X101142857Y-103590714D02*
X102057142Y-103590714D01*
X82092857Y-103590714D02*
X83007142Y-103590714D01*
X139242857Y-84540714D02*
X140157142Y-84540714D01*
X120192857Y-84540714D02*
X121107142Y-84540714D01*
X101142857Y-84540714D02*
X102057142Y-84540714D01*
X82092857Y-84540714D02*
X83007142Y-84540714D01*
X139242857Y-65490714D02*
X140157142Y-65490714D01*
X120192857Y-65490714D02*
X121107142Y-65490714D01*
X101142857Y-65490714D02*
X102057142Y-65490714D01*
X82092857Y-65490714D02*
X83007142Y-65490714D01*
X139242857Y-46440714D02*
X140157142Y-46440714D01*
X120192857Y-46440714D02*
X121107142Y-46440714D01*
X101142857Y-46440714D02*
X102057142Y-46440714D01*
X152577857Y-135975714D02*
X153492142Y-135975714D01*
X153035000Y-136432857D02*
X153035000Y-135518571D01*
X133527857Y-135975714D02*
X134442142Y-135975714D01*
X133985000Y-136432857D02*
X133985000Y-135518571D01*
X114477857Y-135975714D02*
X115392142Y-135975714D01*
X114935000Y-136432857D02*
X114935000Y-135518571D01*
X95427857Y-135975714D02*
X96342142Y-135975714D01*
X95885000Y-136432857D02*
X95885000Y-135518571D01*
X152577857Y-116925714D02*
X153492142Y-116925714D01*
X153035000Y-117382857D02*
X153035000Y-116468571D01*
X133527857Y-116925714D02*
X134442142Y-116925714D01*
X133985000Y-117382857D02*
X133985000Y-116468571D01*
X114477857Y-116925714D02*
X115392142Y-116925714D01*
X114935000Y-117382857D02*
X114935000Y-116468571D01*
X95427857Y-116925714D02*
X96342142Y-116925714D01*
X95885000Y-117382857D02*
X95885000Y-116468571D01*
X152577857Y-97875714D02*
X153492142Y-97875714D01*
X153035000Y-98332857D02*
X153035000Y-97418571D01*
X133527857Y-97875714D02*
X134442142Y-97875714D01*
X133985000Y-98332857D02*
X133985000Y-97418571D01*
X114477857Y-97875714D02*
X115392142Y-97875714D01*
X114935000Y-98332857D02*
X114935000Y-97418571D01*
X95427857Y-97875714D02*
X96342142Y-97875714D01*
X95885000Y-98332857D02*
X95885000Y-97418571D01*
X152577857Y-78825714D02*
X153492142Y-78825714D01*
X153035000Y-79282857D02*
X153035000Y-78368571D01*
X133527857Y-78825714D02*
X134442142Y-78825714D01*
X133985000Y-79282857D02*
X133985000Y-78368571D01*
X114477857Y-78825714D02*
X115392142Y-78825714D01*
X114935000Y-79282857D02*
X114935000Y-78368571D01*
X95427857Y-78825714D02*
X96342142Y-78825714D01*
X95885000Y-79282857D02*
X95885000Y-78368571D01*
X152577857Y-59775714D02*
X153492142Y-59775714D01*
X153035000Y-60232857D02*
X153035000Y-59318571D01*
X133527857Y-59775714D02*
X134442142Y-59775714D01*
X133985000Y-60232857D02*
X133985000Y-59318571D01*
X114477857Y-59775714D02*
X115392142Y-59775714D01*
X114935000Y-60232857D02*
X114935000Y-59318571D01*
X137195000Y-125002857D02*
X137195000Y-123802857D01*
X137480714Y-123802857D01*
X137652142Y-123860000D01*
X137766428Y-123974285D01*
X137823571Y-124088571D01*
X137880714Y-124317142D01*
X137880714Y-124488571D01*
X137823571Y-124717142D01*
X137766428Y-124831428D01*
X137652142Y-124945714D01*
X137480714Y-125002857D01*
X137195000Y-125002857D01*
X138395000Y-125002857D02*
X138395000Y-123802857D01*
X118145000Y-125002857D02*
X118145000Y-123802857D01*
X118430714Y-123802857D01*
X118602142Y-123860000D01*
X118716428Y-123974285D01*
X118773571Y-124088571D01*
X118830714Y-124317142D01*
X118830714Y-124488571D01*
X118773571Y-124717142D01*
X118716428Y-124831428D01*
X118602142Y-124945714D01*
X118430714Y-125002857D01*
X118145000Y-125002857D01*
X119345000Y-125002857D02*
X119345000Y-123802857D01*
X99095000Y-125002857D02*
X99095000Y-123802857D01*
X99380714Y-123802857D01*
X99552142Y-123860000D01*
X99666428Y-123974285D01*
X99723571Y-124088571D01*
X99780714Y-124317142D01*
X99780714Y-124488571D01*
X99723571Y-124717142D01*
X99666428Y-124831428D01*
X99552142Y-124945714D01*
X99380714Y-125002857D01*
X99095000Y-125002857D01*
X100295000Y-125002857D02*
X100295000Y-123802857D01*
X80045000Y-125002857D02*
X80045000Y-123802857D01*
X80330714Y-123802857D01*
X80502142Y-123860000D01*
X80616428Y-123974285D01*
X80673571Y-124088571D01*
X80730714Y-124317142D01*
X80730714Y-124488571D01*
X80673571Y-124717142D01*
X80616428Y-124831428D01*
X80502142Y-124945714D01*
X80330714Y-125002857D01*
X80045000Y-125002857D01*
X81245000Y-125002857D02*
X81245000Y-123802857D01*
X137195000Y-105952857D02*
X137195000Y-104752857D01*
X137480714Y-104752857D01*
X137652142Y-104810000D01*
X137766428Y-104924285D01*
X137823571Y-105038571D01*
X137880714Y-105267142D01*
X137880714Y-105438571D01*
X137823571Y-105667142D01*
X137766428Y-105781428D01*
X137652142Y-105895714D01*
X137480714Y-105952857D01*
X137195000Y-105952857D01*
X138395000Y-105952857D02*
X138395000Y-104752857D01*
X118145000Y-105952857D02*
X118145000Y-104752857D01*
X118430714Y-104752857D01*
X118602142Y-104810000D01*
X118716428Y-104924285D01*
X118773571Y-105038571D01*
X118830714Y-105267142D01*
X118830714Y-105438571D01*
X118773571Y-105667142D01*
X118716428Y-105781428D01*
X118602142Y-105895714D01*
X118430714Y-105952857D01*
X118145000Y-105952857D01*
X119345000Y-105952857D02*
X119345000Y-104752857D01*
X99095000Y-105952857D02*
X99095000Y-104752857D01*
X99380714Y-104752857D01*
X99552142Y-104810000D01*
X99666428Y-104924285D01*
X99723571Y-105038571D01*
X99780714Y-105267142D01*
X99780714Y-105438571D01*
X99723571Y-105667142D01*
X99666428Y-105781428D01*
X99552142Y-105895714D01*
X99380714Y-105952857D01*
X99095000Y-105952857D01*
X100295000Y-105952857D02*
X100295000Y-104752857D01*
X80045000Y-105952857D02*
X80045000Y-104752857D01*
X80330714Y-104752857D01*
X80502142Y-104810000D01*
X80616428Y-104924285D01*
X80673571Y-105038571D01*
X80730714Y-105267142D01*
X80730714Y-105438571D01*
X80673571Y-105667142D01*
X80616428Y-105781428D01*
X80502142Y-105895714D01*
X80330714Y-105952857D01*
X80045000Y-105952857D01*
X81245000Y-105952857D02*
X81245000Y-104752857D01*
X137195000Y-86902857D02*
X137195000Y-85702857D01*
X137480714Y-85702857D01*
X137652142Y-85760000D01*
X137766428Y-85874285D01*
X137823571Y-85988571D01*
X137880714Y-86217142D01*
X137880714Y-86388571D01*
X137823571Y-86617142D01*
X137766428Y-86731428D01*
X137652142Y-86845714D01*
X137480714Y-86902857D01*
X137195000Y-86902857D01*
X138395000Y-86902857D02*
X138395000Y-85702857D01*
X118145000Y-86902857D02*
X118145000Y-85702857D01*
X118430714Y-85702857D01*
X118602142Y-85760000D01*
X118716428Y-85874285D01*
X118773571Y-85988571D01*
X118830714Y-86217142D01*
X118830714Y-86388571D01*
X118773571Y-86617142D01*
X118716428Y-86731428D01*
X118602142Y-86845714D01*
X118430714Y-86902857D01*
X118145000Y-86902857D01*
X119345000Y-86902857D02*
X119345000Y-85702857D01*
X99095000Y-86902857D02*
X99095000Y-85702857D01*
X99380714Y-85702857D01*
X99552142Y-85760000D01*
X99666428Y-85874285D01*
X99723571Y-85988571D01*
X99780714Y-86217142D01*
X99780714Y-86388571D01*
X99723571Y-86617142D01*
X99666428Y-86731428D01*
X99552142Y-86845714D01*
X99380714Y-86902857D01*
X99095000Y-86902857D01*
X100295000Y-86902857D02*
X100295000Y-85702857D01*
X80045000Y-86902857D02*
X80045000Y-85702857D01*
X80330714Y-85702857D01*
X80502142Y-85760000D01*
X80616428Y-85874285D01*
X80673571Y-85988571D01*
X80730714Y-86217142D01*
X80730714Y-86388571D01*
X80673571Y-86617142D01*
X80616428Y-86731428D01*
X80502142Y-86845714D01*
X80330714Y-86902857D01*
X80045000Y-86902857D01*
X81245000Y-86902857D02*
X81245000Y-85702857D01*
X137195000Y-67852857D02*
X137195000Y-66652857D01*
X137480714Y-66652857D01*
X137652142Y-66710000D01*
X137766428Y-66824285D01*
X137823571Y-66938571D01*
X137880714Y-67167142D01*
X137880714Y-67338571D01*
X137823571Y-67567142D01*
X137766428Y-67681428D01*
X137652142Y-67795714D01*
X137480714Y-67852857D01*
X137195000Y-67852857D01*
X138395000Y-67852857D02*
X138395000Y-66652857D01*
X118145000Y-67852857D02*
X118145000Y-66652857D01*
X118430714Y-66652857D01*
X118602142Y-66710000D01*
X118716428Y-66824285D01*
X118773571Y-66938571D01*
X118830714Y-67167142D01*
X118830714Y-67338571D01*
X118773571Y-67567142D01*
X118716428Y-67681428D01*
X118602142Y-67795714D01*
X118430714Y-67852857D01*
X118145000Y-67852857D01*
X119345000Y-67852857D02*
X119345000Y-66652857D01*
X99095000Y-67852857D02*
X99095000Y-66652857D01*
X99380714Y-66652857D01*
X99552142Y-66710000D01*
X99666428Y-66824285D01*
X99723571Y-66938571D01*
X99780714Y-67167142D01*
X99780714Y-67338571D01*
X99723571Y-67567142D01*
X99666428Y-67681428D01*
X99552142Y-67795714D01*
X99380714Y-67852857D01*
X99095000Y-67852857D01*
X100295000Y-67852857D02*
X100295000Y-66652857D01*
X80045000Y-67852857D02*
X80045000Y-66652857D01*
X80330714Y-66652857D01*
X80502142Y-66710000D01*
X80616428Y-66824285D01*
X80673571Y-66938571D01*
X80730714Y-67167142D01*
X80730714Y-67338571D01*
X80673571Y-67567142D01*
X80616428Y-67681428D01*
X80502142Y-67795714D01*
X80330714Y-67852857D01*
X80045000Y-67852857D01*
X81245000Y-67852857D02*
X81245000Y-66652857D01*
X137195000Y-48802857D02*
X137195000Y-47602857D01*
X137480714Y-47602857D01*
X137652142Y-47660000D01*
X137766428Y-47774285D01*
X137823571Y-47888571D01*
X137880714Y-48117142D01*
X137880714Y-48288571D01*
X137823571Y-48517142D01*
X137766428Y-48631428D01*
X137652142Y-48745714D01*
X137480714Y-48802857D01*
X137195000Y-48802857D01*
X138395000Y-48802857D02*
X138395000Y-47602857D01*
X118145000Y-48802857D02*
X118145000Y-47602857D01*
X118430714Y-47602857D01*
X118602142Y-47660000D01*
X118716428Y-47774285D01*
X118773571Y-47888571D01*
X118830714Y-48117142D01*
X118830714Y-48288571D01*
X118773571Y-48517142D01*
X118716428Y-48631428D01*
X118602142Y-48745714D01*
X118430714Y-48802857D01*
X118145000Y-48802857D01*
X119345000Y-48802857D02*
X119345000Y-47602857D01*
X99095000Y-48802857D02*
X99095000Y-47602857D01*
X99380714Y-47602857D01*
X99552142Y-47660000D01*
X99666428Y-47774285D01*
X99723571Y-47888571D01*
X99780714Y-48117142D01*
X99780714Y-48288571D01*
X99723571Y-48517142D01*
X99666428Y-48631428D01*
X99552142Y-48745714D01*
X99380714Y-48802857D01*
X99095000Y-48802857D01*
X100295000Y-48802857D02*
X100295000Y-47602857D01*
X82092857Y-46440714D02*
X83007142Y-46440714D01*
X80045000Y-48802857D02*
X80045000Y-47602857D01*
X80330714Y-47602857D01*
X80502142Y-47660000D01*
X80616428Y-47774285D01*
X80673571Y-47888571D01*
X80730714Y-48117142D01*
X80730714Y-48288571D01*
X80673571Y-48517142D01*
X80616428Y-48631428D01*
X80502142Y-48745714D01*
X80330714Y-48802857D01*
X80045000Y-48802857D01*
X81245000Y-48802857D02*
X81245000Y-47602857D01*
X94942142Y-48802857D02*
X94942142Y-47602857D01*
X95227857Y-47602857D01*
X95399285Y-47660000D01*
X95513571Y-47774285D01*
X95570714Y-47888571D01*
X95627857Y-48117142D01*
X95627857Y-48288571D01*
X95570714Y-48517142D01*
X95513571Y-48631428D01*
X95399285Y-48745714D01*
X95227857Y-48802857D01*
X94942142Y-48802857D01*
X96370714Y-47602857D02*
X96599285Y-47602857D01*
X96713571Y-47660000D01*
X96827857Y-47774285D01*
X96885000Y-48002857D01*
X96885000Y-48402857D01*
X96827857Y-48631428D01*
X96713571Y-48745714D01*
X96599285Y-48802857D01*
X96370714Y-48802857D01*
X96256428Y-48745714D01*
X96142142Y-48631428D01*
X96085000Y-48402857D01*
X96085000Y-48002857D01*
X96142142Y-47774285D01*
X96256428Y-47660000D01*
X96370714Y-47602857D01*
X95427857Y-59775714D02*
X96342142Y-59775714D01*
X95885000Y-60232857D02*
X95885000Y-59318571D01*
X93522857Y-47710714D02*
X94437142Y-47710714D01*
X93980000Y-48167857D02*
X93980000Y-47253571D01*
X79702142Y-56422857D02*
X79702142Y-55222857D01*
X79987857Y-55222857D01*
X80159285Y-55280000D01*
X80273571Y-55394285D01*
X80330714Y-55508571D01*
X80387857Y-55737142D01*
X80387857Y-55908571D01*
X80330714Y-56137142D01*
X80273571Y-56251428D01*
X80159285Y-56365714D01*
X79987857Y-56422857D01*
X79702142Y-56422857D01*
X81130714Y-55222857D02*
X81359285Y-55222857D01*
X81473571Y-55280000D01*
X81587857Y-55394285D01*
X81645000Y-55622857D01*
X81645000Y-56022857D01*
X81587857Y-56251428D01*
X81473571Y-56365714D01*
X81359285Y-56422857D01*
X81130714Y-56422857D01*
X81016428Y-56365714D01*
X80902142Y-56251428D01*
X80845000Y-56022857D01*
X80845000Y-55622857D01*
X80902142Y-55394285D01*
X81016428Y-55280000D01*
X81130714Y-55222857D01*
X80187857Y-59775714D02*
X81102142Y-59775714D01*
X96256428Y-52612857D02*
X95856428Y-52041428D01*
X95570714Y-52612857D02*
X95570714Y-51412857D01*
X96027857Y-51412857D01*
X96142142Y-51470000D01*
X96199285Y-51527142D01*
X96256428Y-51641428D01*
X96256428Y-51812857D01*
X96199285Y-51927142D01*
X96142142Y-51984285D01*
X96027857Y-52041428D01*
X95570714Y-52041428D01*
X95285000Y-56422857D02*
X95285000Y-55222857D01*
X95570714Y-55222857D01*
X95742142Y-55280000D01*
X95856428Y-55394285D01*
X95913571Y-55508571D01*
X95970714Y-55737142D01*
X95970714Y-55908571D01*
X95913571Y-56137142D01*
X95856428Y-56251428D01*
X95742142Y-56365714D01*
X95570714Y-56422857D01*
X95285000Y-56422857D01*
X96485000Y-56422857D02*
X96485000Y-55222857D01*
X82921428Y-62023571D02*
X82864285Y-62080714D01*
X82692857Y-62137857D01*
X82578571Y-62137857D01*
X82407142Y-62080714D01*
X82292857Y-61966428D01*
X82235714Y-61852142D01*
X82178571Y-61623571D01*
X82178571Y-61452142D01*
X82235714Y-61223571D01*
X82292857Y-61109285D01*
X82407142Y-60995000D01*
X82578571Y-60937857D01*
X82692857Y-60937857D01*
X82864285Y-60995000D01*
X82921428Y-61052142D01*
X81016428Y-52612857D02*
X80616428Y-52041428D01*
X80330714Y-52612857D02*
X80330714Y-51412857D01*
X80787857Y-51412857D01*
X80902142Y-51470000D01*
X80959285Y-51527142D01*
X81016428Y-51641428D01*
X81016428Y-51812857D01*
X80959285Y-51927142D01*
X80902142Y-51984285D01*
X80787857Y-52041428D01*
X80330714Y-52041428D01*
X84826428Y-48688571D02*
X84769285Y-48745714D01*
X84597857Y-48802857D01*
X84483571Y-48802857D01*
X84312142Y-48745714D01*
X84197857Y-48631428D01*
X84140714Y-48517142D01*
X84083571Y-48288571D01*
X84083571Y-48117142D01*
X84140714Y-47888571D01*
X84197857Y-47774285D01*
X84312142Y-47660000D01*
X84483571Y-47602857D01*
X84597857Y-47602857D01*
X84769285Y-47660000D01*
X84826428Y-47717142D01*
D11*
G04 #@! TO.C,U1*
X166952000Y-117561000D02*
G75*
G03X166952000Y-117561000I-250000J0D01*
G01*
G04 #@! TO.C,SW1*
X157965000Y-104625000D02*
X170965000Y-104625000D01*
X170965000Y-104625000D02*
X170965000Y-117625000D01*
X170965000Y-117625000D02*
X157965000Y-117625000D01*
X157965000Y-117625000D02*
X157965000Y-104625000D01*
D10*
G04 #@! TO.C,D1*
X168094200Y-102705000D02*
X168094200Y-104305000D01*
X164594200Y-102705000D02*
X168094200Y-102705000D01*
X164594200Y-104305000D02*
X164594200Y-102705000D01*
X168094200Y-104305000D02*
X164594200Y-104305000D01*
X165094840Y-104305000D02*
X165094840Y-102705000D01*
X168094200Y-103505000D02*
X168494200Y-103505000D01*
X164594200Y-103505000D02*
X164194200Y-103505000D01*
D11*
G04 #@! TO.C,U1*
X166952000Y-98511000D02*
G75*
G03X166952000Y-98511000I-250000J0D01*
G01*
X166952000Y-60411000D02*
G75*
G03X166952000Y-60411000I-250000J0D01*
G01*
X166952000Y-79461000D02*
G75*
G03X166952000Y-79461000I-250000J0D01*
G01*
G04 #@! TO.C,SW1*
X157965000Y-47475000D02*
X170965000Y-47475000D01*
X170965000Y-47475000D02*
X170965000Y-60475000D01*
X170965000Y-60475000D02*
X157965000Y-60475000D01*
X157965000Y-60475000D02*
X157965000Y-47475000D01*
X157965000Y-66525000D02*
X170965000Y-66525000D01*
X170965000Y-66525000D02*
X170965000Y-79525000D01*
X170965000Y-79525000D02*
X157965000Y-79525000D01*
X157965000Y-79525000D02*
X157965000Y-66525000D01*
X157965000Y-85575000D02*
X170965000Y-85575000D01*
X170965000Y-85575000D02*
X170965000Y-98575000D01*
X170965000Y-98575000D02*
X157965000Y-98575000D01*
X157965000Y-98575000D02*
X157965000Y-85575000D01*
D10*
G04 #@! TO.C,D1*
X168094200Y-45555000D02*
X168094200Y-47155000D01*
X164594200Y-45555000D02*
X168094200Y-45555000D01*
X164594200Y-47155000D02*
X164594200Y-45555000D01*
X168094200Y-47155000D02*
X164594200Y-47155000D01*
X165094840Y-47155000D02*
X165094840Y-45555000D01*
X168094200Y-46355000D02*
X168494200Y-46355000D01*
X164594200Y-46355000D02*
X164194200Y-46355000D01*
X168094200Y-64605000D02*
X168094200Y-66205000D01*
X164594200Y-64605000D02*
X168094200Y-64605000D01*
X164594200Y-66205000D02*
X164594200Y-64605000D01*
X168094200Y-66205000D02*
X164594200Y-66205000D01*
X165094840Y-66205000D02*
X165094840Y-64605000D01*
X168094200Y-65405000D02*
X168494200Y-65405000D01*
X164594200Y-65405000D02*
X164194200Y-65405000D01*
X168094200Y-83655000D02*
X168094200Y-85255000D01*
X164594200Y-83655000D02*
X168094200Y-83655000D01*
X164594200Y-85255000D02*
X164594200Y-83655000D01*
X168094200Y-85255000D02*
X164594200Y-85255000D01*
X165094840Y-85255000D02*
X165094840Y-83655000D01*
X168094200Y-84455000D02*
X168494200Y-84455000D01*
X164594200Y-84455000D02*
X164194200Y-84455000D01*
D11*
G04 #@! TO.C,SW1*
X157965000Y-123675000D02*
X170965000Y-123675000D01*
X170965000Y-123675000D02*
X170965000Y-136675000D01*
X170965000Y-136675000D02*
X157965000Y-136675000D01*
X157965000Y-136675000D02*
X157965000Y-123675000D01*
G04 #@! TO.C,U1*
X166952000Y-136611000D02*
G75*
G03X166952000Y-136611000I-250000J0D01*
G01*
D10*
G04 #@! TO.C,D1*
X168094200Y-121755000D02*
X168094200Y-123355000D01*
X164594200Y-121755000D02*
X168094200Y-121755000D01*
X164594200Y-123355000D02*
X164594200Y-121755000D01*
X168094200Y-123355000D02*
X164594200Y-123355000D01*
X165094840Y-123355000D02*
X165094840Y-121755000D01*
X168094200Y-122555000D02*
X168494200Y-122555000D01*
X164594200Y-122555000D02*
X164194200Y-122555000D01*
D11*
G04 #@! TO.C,U1*
X147902000Y-136611000D02*
G75*
G03X147902000Y-136611000I-250000J0D01*
G01*
X128852000Y-136611000D02*
G75*
G03X128852000Y-136611000I-250000J0D01*
G01*
X109802000Y-136611000D02*
G75*
G03X109802000Y-136611000I-250000J0D01*
G01*
X90752000Y-136611000D02*
G75*
G03X90752000Y-136611000I-250000J0D01*
G01*
X147902000Y-117561000D02*
G75*
G03X147902000Y-117561000I-250000J0D01*
G01*
X128852000Y-117561000D02*
G75*
G03X128852000Y-117561000I-250000J0D01*
G01*
X109802000Y-117561000D02*
G75*
G03X109802000Y-117561000I-250000J0D01*
G01*
X90752000Y-117561000D02*
G75*
G03X90752000Y-117561000I-250000J0D01*
G01*
X147902000Y-98511000D02*
G75*
G03X147902000Y-98511000I-250000J0D01*
G01*
X128852000Y-98511000D02*
G75*
G03X128852000Y-98511000I-250000J0D01*
G01*
X109802000Y-98511000D02*
G75*
G03X109802000Y-98511000I-250000J0D01*
G01*
X90752000Y-98511000D02*
G75*
G03X90752000Y-98511000I-250000J0D01*
G01*
X147902000Y-79461000D02*
G75*
G03X147902000Y-79461000I-250000J0D01*
G01*
X128852000Y-79461000D02*
G75*
G03X128852000Y-79461000I-250000J0D01*
G01*
X109802000Y-79461000D02*
G75*
G03X109802000Y-79461000I-250000J0D01*
G01*
X90752000Y-79461000D02*
G75*
G03X90752000Y-79461000I-250000J0D01*
G01*
X147902000Y-60411000D02*
G75*
G03X147902000Y-60411000I-250000J0D01*
G01*
X128852000Y-60411000D02*
G75*
G03X128852000Y-60411000I-250000J0D01*
G01*
X109802000Y-60411000D02*
G75*
G03X109802000Y-60411000I-250000J0D01*
G01*
D10*
G04 #@! TO.C,D1*
X145544200Y-122555000D02*
X145144200Y-122555000D01*
X149044200Y-122555000D02*
X149444200Y-122555000D01*
X146044840Y-123355000D02*
X146044840Y-121755000D01*
X149044200Y-123355000D02*
X145544200Y-123355000D01*
X145544200Y-123355000D02*
X145544200Y-121755000D01*
X145544200Y-121755000D02*
X149044200Y-121755000D01*
X149044200Y-121755000D02*
X149044200Y-123355000D01*
X126494200Y-122555000D02*
X126094200Y-122555000D01*
X129994200Y-122555000D02*
X130394200Y-122555000D01*
X126994840Y-123355000D02*
X126994840Y-121755000D01*
X129994200Y-123355000D02*
X126494200Y-123355000D01*
X126494200Y-123355000D02*
X126494200Y-121755000D01*
X126494200Y-121755000D02*
X129994200Y-121755000D01*
X129994200Y-121755000D02*
X129994200Y-123355000D01*
X107444200Y-122555000D02*
X107044200Y-122555000D01*
X110944200Y-122555000D02*
X111344200Y-122555000D01*
X107944840Y-123355000D02*
X107944840Y-121755000D01*
X110944200Y-123355000D02*
X107444200Y-123355000D01*
X107444200Y-123355000D02*
X107444200Y-121755000D01*
X107444200Y-121755000D02*
X110944200Y-121755000D01*
X110944200Y-121755000D02*
X110944200Y-123355000D01*
X88394200Y-122555000D02*
X87994200Y-122555000D01*
X91894200Y-122555000D02*
X92294200Y-122555000D01*
X88894840Y-123355000D02*
X88894840Y-121755000D01*
X91894200Y-123355000D02*
X88394200Y-123355000D01*
X88394200Y-123355000D02*
X88394200Y-121755000D01*
X88394200Y-121755000D02*
X91894200Y-121755000D01*
X91894200Y-121755000D02*
X91894200Y-123355000D01*
X145544200Y-103505000D02*
X145144200Y-103505000D01*
X149044200Y-103505000D02*
X149444200Y-103505000D01*
X146044840Y-104305000D02*
X146044840Y-102705000D01*
X149044200Y-104305000D02*
X145544200Y-104305000D01*
X145544200Y-104305000D02*
X145544200Y-102705000D01*
X145544200Y-102705000D02*
X149044200Y-102705000D01*
X149044200Y-102705000D02*
X149044200Y-104305000D01*
X126494200Y-103505000D02*
X126094200Y-103505000D01*
X129994200Y-103505000D02*
X130394200Y-103505000D01*
X126994840Y-104305000D02*
X126994840Y-102705000D01*
X129994200Y-104305000D02*
X126494200Y-104305000D01*
X126494200Y-104305000D02*
X126494200Y-102705000D01*
X126494200Y-102705000D02*
X129994200Y-102705000D01*
X129994200Y-102705000D02*
X129994200Y-104305000D01*
X107444200Y-103505000D02*
X107044200Y-103505000D01*
X110944200Y-103505000D02*
X111344200Y-103505000D01*
X107944840Y-104305000D02*
X107944840Y-102705000D01*
X110944200Y-104305000D02*
X107444200Y-104305000D01*
X107444200Y-104305000D02*
X107444200Y-102705000D01*
X107444200Y-102705000D02*
X110944200Y-102705000D01*
X110944200Y-102705000D02*
X110944200Y-104305000D01*
X88394200Y-103505000D02*
X87994200Y-103505000D01*
X91894200Y-103505000D02*
X92294200Y-103505000D01*
X88894840Y-104305000D02*
X88894840Y-102705000D01*
X91894200Y-104305000D02*
X88394200Y-104305000D01*
X88394200Y-104305000D02*
X88394200Y-102705000D01*
X88394200Y-102705000D02*
X91894200Y-102705000D01*
X91894200Y-102705000D02*
X91894200Y-104305000D01*
X145544200Y-84455000D02*
X145144200Y-84455000D01*
X149044200Y-84455000D02*
X149444200Y-84455000D01*
X146044840Y-85255000D02*
X146044840Y-83655000D01*
X149044200Y-85255000D02*
X145544200Y-85255000D01*
X145544200Y-85255000D02*
X145544200Y-83655000D01*
X145544200Y-83655000D02*
X149044200Y-83655000D01*
X149044200Y-83655000D02*
X149044200Y-85255000D01*
X126494200Y-84455000D02*
X126094200Y-84455000D01*
X129994200Y-84455000D02*
X130394200Y-84455000D01*
X126994840Y-85255000D02*
X126994840Y-83655000D01*
X129994200Y-85255000D02*
X126494200Y-85255000D01*
X126494200Y-85255000D02*
X126494200Y-83655000D01*
X126494200Y-83655000D02*
X129994200Y-83655000D01*
X129994200Y-83655000D02*
X129994200Y-85255000D01*
X107444200Y-84455000D02*
X107044200Y-84455000D01*
X110944200Y-84455000D02*
X111344200Y-84455000D01*
X107944840Y-85255000D02*
X107944840Y-83655000D01*
X110944200Y-85255000D02*
X107444200Y-85255000D01*
X107444200Y-85255000D02*
X107444200Y-83655000D01*
X107444200Y-83655000D02*
X110944200Y-83655000D01*
X110944200Y-83655000D02*
X110944200Y-85255000D01*
X88394200Y-84455000D02*
X87994200Y-84455000D01*
X91894200Y-84455000D02*
X92294200Y-84455000D01*
X88894840Y-85255000D02*
X88894840Y-83655000D01*
X91894200Y-85255000D02*
X88394200Y-85255000D01*
X88394200Y-85255000D02*
X88394200Y-83655000D01*
X88394200Y-83655000D02*
X91894200Y-83655000D01*
X91894200Y-83655000D02*
X91894200Y-85255000D01*
X145544200Y-65405000D02*
X145144200Y-65405000D01*
X149044200Y-65405000D02*
X149444200Y-65405000D01*
X146044840Y-66205000D02*
X146044840Y-64605000D01*
X149044200Y-66205000D02*
X145544200Y-66205000D01*
X145544200Y-66205000D02*
X145544200Y-64605000D01*
X145544200Y-64605000D02*
X149044200Y-64605000D01*
X149044200Y-64605000D02*
X149044200Y-66205000D01*
X126494200Y-65405000D02*
X126094200Y-65405000D01*
X129994200Y-65405000D02*
X130394200Y-65405000D01*
X126994840Y-66205000D02*
X126994840Y-64605000D01*
X129994200Y-66205000D02*
X126494200Y-66205000D01*
X126494200Y-66205000D02*
X126494200Y-64605000D01*
X126494200Y-64605000D02*
X129994200Y-64605000D01*
X129994200Y-64605000D02*
X129994200Y-66205000D01*
X107444200Y-65405000D02*
X107044200Y-65405000D01*
X110944200Y-65405000D02*
X111344200Y-65405000D01*
X107944840Y-66205000D02*
X107944840Y-64605000D01*
X110944200Y-66205000D02*
X107444200Y-66205000D01*
X107444200Y-66205000D02*
X107444200Y-64605000D01*
X107444200Y-64605000D02*
X110944200Y-64605000D01*
X110944200Y-64605000D02*
X110944200Y-66205000D01*
X88394200Y-65405000D02*
X87994200Y-65405000D01*
X91894200Y-65405000D02*
X92294200Y-65405000D01*
X88894840Y-66205000D02*
X88894840Y-64605000D01*
X91894200Y-66205000D02*
X88394200Y-66205000D01*
X88394200Y-66205000D02*
X88394200Y-64605000D01*
X88394200Y-64605000D02*
X91894200Y-64605000D01*
X91894200Y-64605000D02*
X91894200Y-66205000D01*
X145544200Y-46355000D02*
X145144200Y-46355000D01*
X149044200Y-46355000D02*
X149444200Y-46355000D01*
X146044840Y-47155000D02*
X146044840Y-45555000D01*
X149044200Y-47155000D02*
X145544200Y-47155000D01*
X145544200Y-47155000D02*
X145544200Y-45555000D01*
X145544200Y-45555000D02*
X149044200Y-45555000D01*
X149044200Y-45555000D02*
X149044200Y-47155000D01*
X126494200Y-46355000D02*
X126094200Y-46355000D01*
X129994200Y-46355000D02*
X130394200Y-46355000D01*
X126994840Y-47155000D02*
X126994840Y-45555000D01*
X129994200Y-47155000D02*
X126494200Y-47155000D01*
X126494200Y-47155000D02*
X126494200Y-45555000D01*
X126494200Y-45555000D02*
X129994200Y-45555000D01*
X129994200Y-45555000D02*
X129994200Y-47155000D01*
X107444200Y-46355000D02*
X107044200Y-46355000D01*
X110944200Y-46355000D02*
X111344200Y-46355000D01*
X107944840Y-47155000D02*
X107944840Y-45555000D01*
X110944200Y-47155000D02*
X107444200Y-47155000D01*
X107444200Y-47155000D02*
X107444200Y-45555000D01*
X107444200Y-45555000D02*
X110944200Y-45555000D01*
X110944200Y-45555000D02*
X110944200Y-47155000D01*
D11*
G04 #@! TO.C,SW1*
X138915000Y-136675000D02*
X138915000Y-123675000D01*
X151915000Y-136675000D02*
X138915000Y-136675000D01*
X151915000Y-123675000D02*
X151915000Y-136675000D01*
X138915000Y-123675000D02*
X151915000Y-123675000D01*
X119865000Y-136675000D02*
X119865000Y-123675000D01*
X132865000Y-136675000D02*
X119865000Y-136675000D01*
X132865000Y-123675000D02*
X132865000Y-136675000D01*
X119865000Y-123675000D02*
X132865000Y-123675000D01*
X100815000Y-136675000D02*
X100815000Y-123675000D01*
X113815000Y-136675000D02*
X100815000Y-136675000D01*
X113815000Y-123675000D02*
X113815000Y-136675000D01*
X100815000Y-123675000D02*
X113815000Y-123675000D01*
X81765000Y-136675000D02*
X81765000Y-123675000D01*
X94765000Y-136675000D02*
X81765000Y-136675000D01*
X94765000Y-123675000D02*
X94765000Y-136675000D01*
X81765000Y-123675000D02*
X94765000Y-123675000D01*
X138915000Y-117625000D02*
X138915000Y-104625000D01*
X151915000Y-117625000D02*
X138915000Y-117625000D01*
X151915000Y-104625000D02*
X151915000Y-117625000D01*
X138915000Y-104625000D02*
X151915000Y-104625000D01*
X119865000Y-117625000D02*
X119865000Y-104625000D01*
X132865000Y-117625000D02*
X119865000Y-117625000D01*
X132865000Y-104625000D02*
X132865000Y-117625000D01*
X119865000Y-104625000D02*
X132865000Y-104625000D01*
X100815000Y-117625000D02*
X100815000Y-104625000D01*
X113815000Y-117625000D02*
X100815000Y-117625000D01*
X113815000Y-104625000D02*
X113815000Y-117625000D01*
X100815000Y-104625000D02*
X113815000Y-104625000D01*
X81765000Y-117625000D02*
X81765000Y-104625000D01*
X94765000Y-117625000D02*
X81765000Y-117625000D01*
X94765000Y-104625000D02*
X94765000Y-117625000D01*
X81765000Y-104625000D02*
X94765000Y-104625000D01*
X138915000Y-98575000D02*
X138915000Y-85575000D01*
X151915000Y-98575000D02*
X138915000Y-98575000D01*
X151915000Y-85575000D02*
X151915000Y-98575000D01*
X138915000Y-85575000D02*
X151915000Y-85575000D01*
X119865000Y-98575000D02*
X119865000Y-85575000D01*
X132865000Y-98575000D02*
X119865000Y-98575000D01*
X132865000Y-85575000D02*
X132865000Y-98575000D01*
X119865000Y-85575000D02*
X132865000Y-85575000D01*
X100815000Y-98575000D02*
X100815000Y-85575000D01*
X113815000Y-98575000D02*
X100815000Y-98575000D01*
X113815000Y-85575000D02*
X113815000Y-98575000D01*
X100815000Y-85575000D02*
X113815000Y-85575000D01*
X81765000Y-98575000D02*
X81765000Y-85575000D01*
X94765000Y-98575000D02*
X81765000Y-98575000D01*
X94765000Y-85575000D02*
X94765000Y-98575000D01*
X81765000Y-85575000D02*
X94765000Y-85575000D01*
X138915000Y-79525000D02*
X138915000Y-66525000D01*
X151915000Y-79525000D02*
X138915000Y-79525000D01*
X151915000Y-66525000D02*
X151915000Y-79525000D01*
X138915000Y-66525000D02*
X151915000Y-66525000D01*
X119865000Y-79525000D02*
X119865000Y-66525000D01*
X132865000Y-79525000D02*
X119865000Y-79525000D01*
X132865000Y-66525000D02*
X132865000Y-79525000D01*
X119865000Y-66525000D02*
X132865000Y-66525000D01*
X100815000Y-79525000D02*
X100815000Y-66525000D01*
X113815000Y-79525000D02*
X100815000Y-79525000D01*
X113815000Y-66525000D02*
X113815000Y-79525000D01*
X100815000Y-66525000D02*
X113815000Y-66525000D01*
X81765000Y-79525000D02*
X81765000Y-66525000D01*
X94765000Y-79525000D02*
X81765000Y-79525000D01*
X94765000Y-66525000D02*
X94765000Y-79525000D01*
X81765000Y-66525000D02*
X94765000Y-66525000D01*
X138915000Y-60475000D02*
X138915000Y-47475000D01*
X151915000Y-60475000D02*
X138915000Y-60475000D01*
X151915000Y-47475000D02*
X151915000Y-60475000D01*
X138915000Y-47475000D02*
X151915000Y-47475000D01*
X119865000Y-60475000D02*
X119865000Y-47475000D01*
X132865000Y-60475000D02*
X119865000Y-60475000D01*
X132865000Y-47475000D02*
X132865000Y-60475000D01*
X119865000Y-47475000D02*
X132865000Y-47475000D01*
X100815000Y-60475000D02*
X100815000Y-47475000D01*
X113815000Y-60475000D02*
X100815000Y-60475000D01*
X113815000Y-47475000D02*
X113815000Y-60475000D01*
X100815000Y-47475000D02*
X113815000Y-47475000D01*
G04 #@! TO.C,U1*
X90752000Y-60411000D02*
G75*
G03X90752000Y-60411000I-250000J0D01*
G01*
G04 #@! TO.C,SW1*
X81765000Y-47475000D02*
X94765000Y-47475000D01*
X94765000Y-47475000D02*
X94765000Y-60475000D01*
X94765000Y-60475000D02*
X81765000Y-60475000D01*
X81765000Y-60475000D02*
X81765000Y-47475000D01*
D10*
G04 #@! TO.C,D1*
X91894200Y-45555000D02*
X91894200Y-47155000D01*
X88394200Y-45555000D02*
X91894200Y-45555000D01*
X88394200Y-47155000D02*
X88394200Y-45555000D01*
X91894200Y-47155000D02*
X88394200Y-47155000D01*
X88894840Y-47155000D02*
X88894840Y-45555000D01*
X91894200Y-46355000D02*
X92294200Y-46355000D01*
X88394200Y-46355000D02*
X87994200Y-46355000D01*
G04 #@! TD*
M02*
