G04 #@! TF.GenerationSoftware,KiCad,Pcbnew,5.0.2-bee76a0~70~ubuntu18.04.1*
G04 #@! TF.CreationDate,2019-11-06T22:06:30+09:00*
G04 #@! TF.ProjectId,promicro-home_panel,70726f6d-6963-4726-9f2d-686f6d655f70,1*
G04 #@! TF.SameCoordinates,Original*
G04 #@! TF.FileFunction,Profile,NP*
%FSLAX46Y46*%
G04 Gerber Fmt 4.6, Leading zero omitted, Abs format (unit mm)*
G04 Created by KiCad (PCBNEW 5.0.2-bee76a0~70~ubuntu18.04.1) date 2019年11月06日 22時06分30秒*
%MOMM*%
%LPD*%
G01*
G04 APERTURE LIST*
%ADD10C,0.100000*%
G04 APERTURE END LIST*
D10*
X115570000Y-42545000D02*
X101600000Y-42545000D01*
X138430000Y-42545000D02*
X124460000Y-42545000D01*
X161290000Y-42545000D02*
X147320000Y-42545000D01*
X175895000Y-42545000D02*
X170180000Y-42545000D01*
X175895000Y-30480000D02*
X175895000Y-42545000D01*
X86995000Y-30480000D02*
X175895000Y-30480000D01*
X86995000Y-42545000D02*
X86995000Y-30480000D01*
X92710000Y-42545000D02*
X86995000Y-42545000D01*
X175895000Y-101600000D02*
X175895000Y-110490000D01*
X170180000Y-101600000D02*
X175895000Y-101600000D01*
X147320000Y-101600000D02*
X161290000Y-101600000D01*
X124460000Y-101600000D02*
X138430000Y-101600000D01*
X101600000Y-101600000D02*
X115570000Y-101600000D01*
X156845000Y-45085000D02*
X161290000Y-45085000D01*
X124460000Y-45085000D02*
X128905000Y-45085000D01*
X88265000Y-45085000D02*
X92710000Y-45085000D01*
X111125000Y-45085000D02*
X115570000Y-45085000D01*
X170180000Y-45085000D02*
X174625000Y-45085000D01*
X101600000Y-45085000D02*
X106045000Y-45085000D01*
X147320000Y-45085000D02*
X151765000Y-45085000D01*
X133985000Y-45085000D02*
X138430000Y-45085000D01*
X170180000Y-42545000D02*
X170180000Y-45085000D01*
X161290000Y-42545000D02*
X161290000Y-45085000D01*
X147320000Y-42545000D02*
X147320000Y-45085000D01*
X138430000Y-42545000D02*
X138430000Y-45085000D01*
X124460000Y-42545000D02*
X124460000Y-45085000D01*
X115570000Y-42545000D02*
X115570000Y-45085000D01*
X101600000Y-42545000D02*
X101600000Y-45085000D01*
X92710000Y-42545000D02*
X92710000Y-45085000D01*
X170180000Y-99060000D02*
X170180000Y-101600000D01*
X170180000Y-99060000D02*
X174625000Y-99060000D01*
X161290000Y-99060000D02*
X161290000Y-101600000D01*
X156845000Y-99060000D02*
X161290000Y-99060000D01*
X147320000Y-99060000D02*
X147320000Y-101600000D01*
X147320000Y-99060000D02*
X151765000Y-99060000D01*
X138430000Y-99060000D02*
X138430000Y-101600000D01*
X133985000Y-99060000D02*
X138430000Y-99060000D01*
X124460000Y-99060000D02*
X124460000Y-101600000D01*
X124460000Y-99060000D02*
X128905000Y-99060000D01*
X115570000Y-99060000D02*
X115570000Y-101600000D01*
X111125000Y-99060000D02*
X115570000Y-99060000D01*
X101600000Y-99060000D02*
X101600000Y-101600000D01*
X86995000Y-110490000D02*
X175895000Y-110490000D01*
X86995000Y-101600000D02*
X86995000Y-110490000D01*
X92710000Y-101600000D02*
X86995000Y-101600000D01*
X92710000Y-99060000D02*
X92710000Y-101600000D01*
X101600000Y-99060000D02*
X106045000Y-99060000D01*
X88265000Y-99060000D02*
X92710000Y-99060000D01*
X109855000Y-46355000D02*
X109855000Y-97790000D01*
X107315000Y-46355000D02*
X107315000Y-97790000D01*
X130175000Y-97790000D02*
X130175000Y-46355000D01*
X132715000Y-46355000D02*
X132715000Y-97790000D01*
X153035000Y-46355000D02*
X153035000Y-97790000D01*
X155575000Y-46355000D02*
X155575000Y-97790000D01*
X86995000Y-46355000D02*
X86995000Y-97790000D01*
X88265000Y-99060000D02*
G75*
G02X86995000Y-97790000I0J1270000D01*
G01*
X111125000Y-99060000D02*
G75*
G02X109855000Y-97790000I0J1270000D01*
G01*
X133985000Y-99060000D02*
G75*
G02X132715000Y-97790000I0J1270000D01*
G01*
X106045000Y-45085000D02*
G75*
G02X107315000Y-46355000I0J-1270000D01*
G01*
X128905000Y-45085000D02*
G75*
G02X130175000Y-46355000I0J-1270000D01*
G01*
X151765000Y-45085000D02*
G75*
G02X153035000Y-46355000I0J-1270000D01*
G01*
X86995000Y-46355000D02*
G75*
G02X88265000Y-45085000I1270000J0D01*
G01*
X109855000Y-46355000D02*
G75*
G02X111125000Y-45085000I1270000J0D01*
G01*
X132715000Y-46355000D02*
G75*
G02X133985000Y-45085000I1270000J0D01*
G01*
X107315000Y-97790000D02*
G75*
G02X106045000Y-99060000I-1270000J0D01*
G01*
X130175000Y-97790000D02*
G75*
G02X128905000Y-99060000I-1270000J0D01*
G01*
X153035000Y-97790000D02*
G75*
G02X151765000Y-99060000I-1270000J0D01*
G01*
X175895000Y-97790000D02*
G75*
G02X174625000Y-99060000I-1270000J0D01*
G01*
X155575000Y-46355000D02*
G75*
G02X156845000Y-45085000I1270000J0D01*
G01*
X174625000Y-45085000D02*
G75*
G02X175895000Y-46355000I0J-1270000D01*
G01*
X156845000Y-99060000D02*
G75*
G02X155575000Y-97790000I0J1270000D01*
G01*
X175895000Y-46355000D02*
X175895000Y-97790000D01*
M02*
