M48
;DRILL file {KiCad 5.0.2-bee76a0~70~ubuntu18.04.1} date 2019年11月06日 22時06分34秒
;FORMAT={-:-/ absolute / inch / decimal}
FMAT,2
INCH,TZ
T1C0.0157
T2C0.0320
T3C0.0394
T4C0.0512
T5C0.0866
T6C0.0472
%
G90
G05
T1
X3.92Y-3.53
X4.81Y-3.54
X5.72Y-3.53
X6.62Y-3.53
T2
X4.5Y-3.375
X5.7Y-1.925
X6.7Y-2.225
X3.65Y-2.325
X3.9Y-2.225
X4.4Y-3.3
X5.55Y-1.925
X5.7Y-2.525
X6.7Y-3.025
X4.8Y-2.925
X6.6Y-2.225
X5.3Y-3.3
X5.55Y-2.025
X4.65Y-1.925
X6.375Y-3.175
X6.475Y-3.175
X6.575Y-3.175
X6.675Y-3.175
X5.8Y-2.225
X4.8Y-2.025
X4.Y-2.225
X3.9Y-2.125
X4.65Y-2.525
X4.425Y-1.925
X4.425Y-2.025
X4.425Y-2.125
X4.425Y-2.225
X4.425Y-2.325
X4.425Y-2.425
X4.425Y-2.525
X4.425Y-2.625
X4.425Y-2.725
X4.425Y-2.825
X4.425Y-2.925
X4.425Y-3.025
X5.025Y-1.925
X5.025Y-2.025
X5.025Y-2.125
X5.025Y-2.225
X5.025Y-2.325
X5.025Y-2.425
X5.025Y-2.525
X5.025Y-2.625
X5.025Y-2.725
X5.025Y-2.825
X5.025Y-2.925
X5.025Y-3.025
X5.45Y-2.025
X5.7Y-2.225
X4.65Y-2.025
X5.55Y-2.325
X4.5Y-3.3
X4.9Y-2.425
X4.Y-2.425
X4.9Y-2.825
X5.8Y-2.125
X4.65Y-2.125
X5.45Y-2.125
X4.65Y-2.925
X6.45Y-2.725
X5.55Y-2.625
X4.Y-2.025
X4.9Y-2.325
X5.4Y-3.3
X4.95Y-3.3
X4.65Y-2.325
X4.525Y-3.675
X3.5Y-3.375
X6.7Y-1.925
X3.75Y-2.025
X6.7Y-2.925
X3.65Y-2.725
X4.55Y-2.825
X4.9Y-2.025
X6.35Y-1.925
X3.65Y-1.925
X6.35Y-2.825
X6.45Y-2.225
X6.2Y-3.675
X4.15Y-3.3
X3.75Y-2.225
X4.8Y-3.025
X5.025Y-3.5
X3.65Y-3.025
X4.8Y-2.725
X6.35Y-2.225
X3.625Y-3.675
X3.9Y-2.625
X5.45Y-2.825
X4.55Y-1.925
X4.05Y-3.3
X3.75Y-2.125
X4.65Y-2.225
X3.65Y-2.825
X4.65Y-2.825
X4.9Y-2.725
X5.45Y-2.225
X4.025Y-3.5
X4.9Y-2.225
X4.8Y-2.525
X4.8Y-2.625
X5.45Y-2.325
X4.05Y-3.375
X6.45Y-2.025
X4.55Y-2.125
X5.925Y-3.5
X6.75Y-3.375
X6.6Y-2.725
X3.65Y-2.925
X3.6Y-3.3
X4.Y-2.125
X6.75Y-3.3
X6.45Y-3.025
X6.7Y-2.525
X4.125Y-3.5
X5.8Y-2.625
X3.9Y-1.925
X6.35Y-2.325
X6.6Y-3.025
X6.45Y-2.525
X4.55Y-2.325
X4.575Y-3.175
X4.675Y-3.175
X4.775Y-3.175
X4.875Y-3.175
X4.15Y-3.375
X4.8Y-2.225
X4.65Y-3.025
X4.55Y-2.425
X5.7Y-2.725
X4.Y-3.025
X4.Y-2.325
X5.85Y-3.3
X6.45Y-2.425
X5.95Y-3.375
X4.9Y-2.625
X6.45Y-1.925
X5.3Y-3.675
X3.75Y-2.425
X6.7Y-2.625
X6.45Y-2.825
X6.2Y-3.3
X6.85Y-3.3
X6.225Y-1.925
X6.225Y-2.025
X6.225Y-2.125
X6.225Y-2.225
X6.225Y-2.325
X6.225Y-2.425
X6.225Y-2.525
X6.225Y-2.625
X6.225Y-2.725
X6.225Y-2.825
X6.225Y-2.925
X6.225Y-3.025
X6.825Y-1.925
X6.825Y-2.025
X6.825Y-2.125
X6.825Y-2.225
X6.825Y-2.325
X6.825Y-2.425
X6.825Y-2.525
X6.825Y-2.625
X6.825Y-2.725
X6.825Y-2.825
X6.825Y-2.925
X6.825Y-3.025
X6.725Y-3.5
X4.65Y-2.625
X4.Y-2.925
X4.8Y-1.925
X5.475Y-3.175
X5.575Y-3.175
X5.675Y-3.175
X5.775Y-3.175
X5.05Y-3.375
X6.7Y-2.725
X5.55Y-2.525
X5.45Y-1.925
X6.35Y-2.025
X3.75Y-2.925
X3.75Y-1.925
X5.55Y-2.825
X5.55Y-2.225
X5.825Y-3.5
X4.Y-2.825
X6.35Y-2.625
X6.7Y-2.125
X5.8Y-2.525
X5.8Y-1.925
X5.95Y-3.3
X3.65Y-2.125
X5.7Y-3.025
X6.825Y-3.5
X4.925Y-3.5
X4.Y-2.525
X6.35Y-3.025
X5.45Y-2.625
X3.525Y-1.925
X3.525Y-2.025
X3.525Y-2.125
X3.525Y-2.225
X3.525Y-2.325
X3.525Y-2.425
X3.525Y-2.525
X3.525Y-2.625
X3.525Y-2.725
X3.525Y-2.825
X3.525Y-2.925
X3.525Y-3.025
X4.125Y-1.925
X4.125Y-2.025
X4.125Y-2.125
X4.125Y-2.225
X4.125Y-2.325
X4.125Y-2.425
X4.125Y-2.525
X4.125Y-2.625
X4.125Y-2.725
X4.125Y-2.825
X4.125Y-2.925
X4.125Y-3.025
X3.9Y-2.425
X6.35Y-2.725
X6.325Y-3.675
X4.Y-2.725
X5.45Y-3.025
X4.55Y-2.625
X6.6Y-2.825
X3.9Y-2.325
X5.55Y-3.025
X5.8Y-3.025
X4.4Y-3.675
X4.4Y-3.375
X6.6Y-2.425
X6.3Y-3.3
X5.45Y-2.725
X4.9Y-2.125
X5.425Y-3.675
X5.55Y-2.425
X4.Y-2.625
X4.55Y-3.025
X6.6Y-2.025
X5.7Y-2.825
X3.65Y-2.425
X3.5Y-3.675
X4.55Y-2.525
X4.9Y-3.025
X5.8Y-2.725
X5.7Y-2.425
X4.55Y-2.725
X6.7Y-2.025
X4.65Y-2.425
X3.675Y-3.175
X3.775Y-3.175
X3.875Y-3.175
X3.975Y-3.175
X5.55Y-2.725
X4.9Y-1.925
X6.35Y-2.425
X6.35Y-2.925
X4.55Y-2.225
X4.8Y-2.425
X3.65Y-2.225
X6.6Y-2.625
X3.75Y-2.825
X3.9Y-2.725
X3.75Y-2.325
X4.65Y-2.725
X5.45Y-2.425
X5.55Y-2.125
X6.45Y-2.125
X6.35Y-2.125
X6.6Y-1.925
X4.9Y-2.525
X3.75Y-3.025
X3.9Y-2.525
X5.325Y-1.925
X5.325Y-2.025
X5.325Y-2.125
X5.325Y-2.225
X5.325Y-2.325
X5.325Y-2.425
X5.325Y-2.525
X5.325Y-2.625
X5.325Y-2.725
X5.325Y-2.825
X5.325Y-2.925
X5.325Y-3.025
X5.925Y-1.925
X5.925Y-2.025
X5.925Y-2.125
X5.925Y-2.225
X5.925Y-2.325
X5.925Y-2.425
X5.925Y-2.525
X5.925Y-2.625
X5.925Y-2.725
X5.925Y-2.825
X5.925Y-2.925
X5.925Y-3.025
X5.05Y-3.3
X3.9Y-2.025
X5.45Y-2.525
X6.7Y-2.425
X3.5Y-3.3
X5.8Y-2.825
X6.6Y-2.925
X6.6Y-2.325
X6.45Y-2.625
X3.65Y-2.525
X6.7Y-2.825
X4.55Y-2.025
X5.8Y-2.325
X5.7Y-2.925
X3.75Y-2.725
X3.9Y-2.825
X3.65Y-2.025
X6.2Y-3.375
X5.7Y-2.025
X5.45Y-2.925
X5.8Y-2.425
X3.6Y-3.375
X6.6Y-2.125
X6.35Y-2.525
X5.7Y-2.325
X5.7Y-2.625
X3.65Y-2.625
X5.3Y-3.375
X6.3Y-3.375
X4.Y-1.925
X6.45Y-2.925
X6.45Y-2.325
X3.75Y-2.625
X3.9Y-2.925
X4.55Y-2.925
X5.8Y-2.925
X6.7Y-2.325
X5.7Y-2.125
X4.8Y-2.325
X4.8Y-2.825
X5.85Y-3.375
X5.4Y-3.375
X5.55Y-2.925
X3.75Y-2.525
X3.9Y-3.025
X5.8Y-2.025
X4.9Y-2.925
X6.85Y-3.375
X4.8Y-2.125
X6.6Y-2.525
X4.95Y-3.375
T4
X3.7Y-3.325
X3.9559Y-3.325
X4.6Y-3.325
X4.8559Y-3.325
X6.4Y-3.325
X6.6559Y-3.325
X5.5Y-3.325
X5.7559Y-3.325
T5
X5.025Y-3.175
X5.925Y-3.175
X6.825Y-3.175
X4.125Y-3.825
X6.225Y-3.175
X4.425Y-3.825
X4.125Y-3.175
X3.525Y-3.175
X4.425Y-3.175
X5.925Y-3.825
X5.325Y-3.175
X5.025Y-3.825
X5.325Y-3.825
X3.525Y-3.825
X6.825Y-3.825
X6.225Y-3.825
T6
X4.79Y-3.6173
X5.066Y-3.6173
X6.59Y-3.6173
X6.866Y-3.6173
X5.69Y-3.6173
X5.966Y-3.6173
X3.89Y-3.6173
X4.166Y-3.6173
X4.386Y-3.5484
X4.662Y-3.5484
X6.186Y-3.5484
X6.462Y-3.5484
X3.486Y-3.5484
X3.762Y-3.5484
X5.286Y-3.5484
X5.562Y-3.5484
T3
X4.6703Y-3.5346G85X4.6506Y-3.5346
G05
X4.7293Y-3.7G85X4.7096Y-3.7
G05
X4.8868Y-3.7G85X4.8671Y-3.7
G05
X5.0049Y-3.7G85X4.9852Y-3.7
G05
X6.4703Y-3.5346G85X6.4506Y-3.5346
G05
X6.5293Y-3.7G85X6.5096Y-3.7
G05
X6.6868Y-3.7G85X6.6671Y-3.7
G05
X6.8049Y-3.7G85X6.7852Y-3.7
G05
X5.5703Y-3.5346G85X5.5506Y-3.5346
G05
X5.6293Y-3.7G85X5.6096Y-3.7
G05
X5.7868Y-3.7G85X5.7671Y-3.7
G05
X5.9049Y-3.7G85X5.8852Y-3.7
G05
X3.7703Y-3.5346G85X3.7506Y-3.5346
G05
X3.8293Y-3.7G85X3.8096Y-3.7
G05
X3.9868Y-3.7G85X3.9671Y-3.7
G05
X4.1049Y-3.7G85X4.0852Y-3.7
G05
X4.447Y-3.4657G85X4.4667Y-3.4657
G05
X4.5652Y-3.4657G85X4.5848Y-3.4657
G05
X4.7226Y-3.4657G85X4.7423Y-3.4657
G05
X4.7817Y-3.6311G85X4.8014Y-3.6311
G05
X6.247Y-3.4657G85X6.2667Y-3.4657
G05
X6.3652Y-3.4657G85X6.3848Y-3.4657
G05
X6.5226Y-3.4657G85X6.5423Y-3.4657
G05
X6.5817Y-3.6311G85X6.6014Y-3.6311
G05
X3.547Y-3.4657G85X3.5667Y-3.4657
G05
X3.6652Y-3.4657G85X3.6848Y-3.4657
G05
X3.8226Y-3.4657G85X3.8423Y-3.4657
G05
X3.8817Y-3.6311G85X3.9014Y-3.6311
G05
X5.347Y-3.4657G85X5.3667Y-3.4657
G05
X5.4652Y-3.4657G85X5.4848Y-3.4657
G05
X5.6226Y-3.4657G85X5.6423Y-3.4657
G05
X5.6817Y-3.6311G85X5.7014Y-3.6311
G05
T0
M30
