G04 #@! TF.GenerationSoftware,KiCad,Pcbnew,5.0.2-bee76a0~70~ubuntu18.04.1*
G04 #@! TF.CreationDate,2019-11-06T22:06:29+09:00*
G04 #@! TF.ProjectId,promicro-home_panel,70726f6d-6963-4726-9f2d-686f6d655f70,1*
G04 #@! TF.SameCoordinates,Original*
G04 #@! TF.FileFunction,Legend,Bot*
G04 #@! TF.FilePolarity,Positive*
%FSLAX46Y46*%
G04 Gerber Fmt 4.6, Leading zero omitted, Abs format (unit mm)*
G04 Created by KiCad (PCBNEW 5.0.2-bee76a0~70~ubuntu18.04.1) date 2019年11月06日 22時06分29秒*
%MOMM*%
%LPD*%
G01*
G04 APERTURE LIST*
%ADD10C,0.200000*%
%ADD11C,0.400000*%
%ADD12C,0.167500*%
%ADD13C,0.187500*%
%ADD14C,0.150000*%
G04 APERTURE END LIST*
D10*
X178232142Y-98802857D02*
X177317857Y-99145714D01*
X178232142Y-99488571D01*
X179546428Y-98402857D02*
X179946428Y-99602857D01*
X180346428Y-98402857D01*
X180746428Y-99145714D02*
X181660714Y-99145714D01*
X182917857Y-99488571D02*
X182860714Y-99545714D01*
X182689285Y-99602857D01*
X182575000Y-99602857D01*
X182403571Y-99545714D01*
X182289285Y-99431428D01*
X182232142Y-99317142D01*
X182175000Y-99088571D01*
X182175000Y-98917142D01*
X182232142Y-98688571D01*
X182289285Y-98574285D01*
X182403571Y-98460000D01*
X182575000Y-98402857D01*
X182689285Y-98402857D01*
X182860714Y-98460000D01*
X182917857Y-98517142D01*
X183946428Y-98802857D02*
X183946428Y-99602857D01*
X183432142Y-98802857D02*
X183432142Y-99431428D01*
X183489285Y-99545714D01*
X183603571Y-99602857D01*
X183775000Y-99602857D01*
X183889285Y-99545714D01*
X183946428Y-99488571D01*
X184346428Y-98802857D02*
X184803571Y-98802857D01*
X184517857Y-98402857D02*
X184517857Y-99431428D01*
X184575000Y-99545714D01*
X184689285Y-99602857D01*
X184803571Y-99602857D01*
D11*
X86995000Y-99060000D02*
X175895000Y-99060000D01*
D10*
X177597142Y-44827857D02*
X176682857Y-45170714D01*
X177597142Y-45513571D01*
X178911428Y-44427857D02*
X179311428Y-45627857D01*
X179711428Y-44427857D01*
X180111428Y-45170714D02*
X181025714Y-45170714D01*
X182282857Y-45513571D02*
X182225714Y-45570714D01*
X182054285Y-45627857D01*
X181940000Y-45627857D01*
X181768571Y-45570714D01*
X181654285Y-45456428D01*
X181597142Y-45342142D01*
X181540000Y-45113571D01*
X181540000Y-44942142D01*
X181597142Y-44713571D01*
X181654285Y-44599285D01*
X181768571Y-44485000D01*
X181940000Y-44427857D01*
X182054285Y-44427857D01*
X182225714Y-44485000D01*
X182282857Y-44542142D01*
X183311428Y-44827857D02*
X183311428Y-45627857D01*
X182797142Y-44827857D02*
X182797142Y-45456428D01*
X182854285Y-45570714D01*
X182968571Y-45627857D01*
X183140000Y-45627857D01*
X183254285Y-45570714D01*
X183311428Y-45513571D01*
X183711428Y-44827857D02*
X184168571Y-44827857D01*
X183882857Y-44427857D02*
X183882857Y-45456428D01*
X183940000Y-45570714D01*
X184054285Y-45627857D01*
X184168571Y-45627857D01*
D11*
X86995000Y-45085000D02*
X175895000Y-45085000D01*
D10*
X173177142Y-85810714D02*
X172262857Y-85810714D01*
X150317142Y-85810714D02*
X149402857Y-85810714D01*
X127457142Y-85810714D02*
X126542857Y-85810714D01*
X173177142Y-83905714D02*
X172262857Y-83905714D01*
X172720000Y-84362857D02*
X172720000Y-83448571D01*
X150317142Y-83905714D02*
X149402857Y-83905714D01*
X149860000Y-84362857D02*
X149860000Y-83448571D01*
X127457142Y-83905714D02*
X126542857Y-83905714D01*
X127000000Y-84362857D02*
X127000000Y-83448571D01*
X159207142Y-83905714D02*
X158292857Y-83905714D01*
X158750000Y-84362857D02*
X158750000Y-83448571D01*
X136347142Y-83905714D02*
X135432857Y-83905714D01*
X135890000Y-84362857D02*
X135890000Y-83448571D01*
X113487142Y-83905714D02*
X112572857Y-83905714D01*
X113030000Y-84362857D02*
X113030000Y-83448571D01*
X159207142Y-85810714D02*
X158292857Y-85810714D01*
X136347142Y-85810714D02*
X135432857Y-85810714D01*
X113487142Y-85810714D02*
X112572857Y-85810714D01*
X160480285Y-60491666D02*
X160004095Y-60491666D01*
X160575523Y-60777380D02*
X160242190Y-59777380D01*
X159908857Y-60777380D01*
X159623142Y-59872619D02*
X159575523Y-59825000D01*
X159480285Y-59777380D01*
X159242190Y-59777380D01*
X159146952Y-59825000D01*
X159099333Y-59872619D01*
X159051714Y-59967857D01*
X159051714Y-60063095D01*
X159099333Y-60205952D01*
X159670761Y-60777380D01*
X159051714Y-60777380D01*
X137620285Y-60491666D02*
X137144095Y-60491666D01*
X137715523Y-60777380D02*
X137382190Y-59777380D01*
X137048857Y-60777380D01*
X136763142Y-59872619D02*
X136715523Y-59825000D01*
X136620285Y-59777380D01*
X136382190Y-59777380D01*
X136286952Y-59825000D01*
X136239333Y-59872619D01*
X136191714Y-59967857D01*
X136191714Y-60063095D01*
X136239333Y-60205952D01*
X136810761Y-60777380D01*
X136191714Y-60777380D01*
X114760285Y-60491666D02*
X114284095Y-60491666D01*
X114855523Y-60777380D02*
X114522190Y-59777380D01*
X114188857Y-60777380D01*
X113903142Y-59872619D02*
X113855523Y-59825000D01*
X113760285Y-59777380D01*
X113522190Y-59777380D01*
X113426952Y-59825000D01*
X113379333Y-59872619D01*
X113331714Y-59967857D01*
X113331714Y-60063095D01*
X113379333Y-60205952D01*
X113950761Y-60777380D01*
X113331714Y-60777380D01*
D12*
X171880714Y-47928095D02*
X172199761Y-47928095D01*
X172199761Y-47258095D01*
X171657380Y-47577142D02*
X171434047Y-47577142D01*
X171338333Y-47928095D02*
X171657380Y-47928095D01*
X171657380Y-47258095D01*
X171338333Y-47258095D01*
X171051190Y-47928095D02*
X171051190Y-47258095D01*
X170891666Y-47258095D01*
X170795952Y-47290000D01*
X170732142Y-47353809D01*
X170700238Y-47417619D01*
X170668333Y-47545238D01*
X170668333Y-47640952D01*
X170700238Y-47768571D01*
X170732142Y-47832380D01*
X170795952Y-47896190D01*
X170891666Y-47928095D01*
X171051190Y-47928095D01*
X149020714Y-47928095D02*
X149339761Y-47928095D01*
X149339761Y-47258095D01*
X148797380Y-47577142D02*
X148574047Y-47577142D01*
X148478333Y-47928095D02*
X148797380Y-47928095D01*
X148797380Y-47258095D01*
X148478333Y-47258095D01*
X148191190Y-47928095D02*
X148191190Y-47258095D01*
X148031666Y-47258095D01*
X147935952Y-47290000D01*
X147872142Y-47353809D01*
X147840238Y-47417619D01*
X147808333Y-47545238D01*
X147808333Y-47640952D01*
X147840238Y-47768571D01*
X147872142Y-47832380D01*
X147935952Y-47896190D01*
X148031666Y-47928095D01*
X148191190Y-47928095D01*
X126160714Y-47928095D02*
X126479761Y-47928095D01*
X126479761Y-47258095D01*
X125937380Y-47577142D02*
X125714047Y-47577142D01*
X125618333Y-47928095D02*
X125937380Y-47928095D01*
X125937380Y-47258095D01*
X125618333Y-47258095D01*
X125331190Y-47928095D02*
X125331190Y-47258095D01*
X125171666Y-47258095D01*
X125075952Y-47290000D01*
X125012142Y-47353809D01*
X124980238Y-47417619D01*
X124948333Y-47545238D01*
X124948333Y-47640952D01*
X124980238Y-47768571D01*
X125012142Y-47832380D01*
X125075952Y-47896190D01*
X125171666Y-47928095D01*
X125331190Y-47928095D01*
D10*
X171640476Y-76144380D02*
X171450000Y-76144380D01*
X171354761Y-76096761D01*
X171307142Y-76049142D01*
X171211904Y-75906285D01*
X171164285Y-75715809D01*
X171164285Y-75334857D01*
X171211904Y-75239619D01*
X171259523Y-75192000D01*
X171354761Y-75144380D01*
X171545238Y-75144380D01*
X171640476Y-75192000D01*
X171688095Y-75239619D01*
X171735714Y-75334857D01*
X171735714Y-75572952D01*
X171688095Y-75668190D01*
X171640476Y-75715809D01*
X171545238Y-75763428D01*
X171354761Y-75763428D01*
X171259523Y-75715809D01*
X171211904Y-75668190D01*
X171164285Y-75572952D01*
X148780476Y-76144380D02*
X148590000Y-76144380D01*
X148494761Y-76096761D01*
X148447142Y-76049142D01*
X148351904Y-75906285D01*
X148304285Y-75715809D01*
X148304285Y-75334857D01*
X148351904Y-75239619D01*
X148399523Y-75192000D01*
X148494761Y-75144380D01*
X148685238Y-75144380D01*
X148780476Y-75192000D01*
X148828095Y-75239619D01*
X148875714Y-75334857D01*
X148875714Y-75572952D01*
X148828095Y-75668190D01*
X148780476Y-75715809D01*
X148685238Y-75763428D01*
X148494761Y-75763428D01*
X148399523Y-75715809D01*
X148351904Y-75668190D01*
X148304285Y-75572952D01*
X125920476Y-76144380D02*
X125730000Y-76144380D01*
X125634761Y-76096761D01*
X125587142Y-76049142D01*
X125491904Y-75906285D01*
X125444285Y-75715809D01*
X125444285Y-75334857D01*
X125491904Y-75239619D01*
X125539523Y-75192000D01*
X125634761Y-75144380D01*
X125825238Y-75144380D01*
X125920476Y-75192000D01*
X125968095Y-75239619D01*
X126015714Y-75334857D01*
X126015714Y-75572952D01*
X125968095Y-75668190D01*
X125920476Y-75715809D01*
X125825238Y-75763428D01*
X125634761Y-75763428D01*
X125539523Y-75715809D01*
X125491904Y-75668190D01*
X125444285Y-75572952D01*
X171545238Y-72905952D02*
X171640476Y-72858333D01*
X171688095Y-72810714D01*
X171735714Y-72715476D01*
X171735714Y-72667857D01*
X171688095Y-72572619D01*
X171640476Y-72525000D01*
X171545238Y-72477380D01*
X171354761Y-72477380D01*
X171259523Y-72525000D01*
X171211904Y-72572619D01*
X171164285Y-72667857D01*
X171164285Y-72715476D01*
X171211904Y-72810714D01*
X171259523Y-72858333D01*
X171354761Y-72905952D01*
X171545238Y-72905952D01*
X171640476Y-72953571D01*
X171688095Y-73001190D01*
X171735714Y-73096428D01*
X171735714Y-73286904D01*
X171688095Y-73382142D01*
X171640476Y-73429761D01*
X171545238Y-73477380D01*
X171354761Y-73477380D01*
X171259523Y-73429761D01*
X171211904Y-73382142D01*
X171164285Y-73286904D01*
X171164285Y-73096428D01*
X171211904Y-73001190D01*
X171259523Y-72953571D01*
X171354761Y-72905952D01*
X148685238Y-72905952D02*
X148780476Y-72858333D01*
X148828095Y-72810714D01*
X148875714Y-72715476D01*
X148875714Y-72667857D01*
X148828095Y-72572619D01*
X148780476Y-72525000D01*
X148685238Y-72477380D01*
X148494761Y-72477380D01*
X148399523Y-72525000D01*
X148351904Y-72572619D01*
X148304285Y-72667857D01*
X148304285Y-72715476D01*
X148351904Y-72810714D01*
X148399523Y-72858333D01*
X148494761Y-72905952D01*
X148685238Y-72905952D01*
X148780476Y-72953571D01*
X148828095Y-73001190D01*
X148875714Y-73096428D01*
X148875714Y-73286904D01*
X148828095Y-73382142D01*
X148780476Y-73429761D01*
X148685238Y-73477380D01*
X148494761Y-73477380D01*
X148399523Y-73429761D01*
X148351904Y-73382142D01*
X148304285Y-73286904D01*
X148304285Y-73096428D01*
X148351904Y-73001190D01*
X148399523Y-72953571D01*
X148494761Y-72905952D01*
X125825238Y-72905952D02*
X125920476Y-72858333D01*
X125968095Y-72810714D01*
X126015714Y-72715476D01*
X126015714Y-72667857D01*
X125968095Y-72572619D01*
X125920476Y-72525000D01*
X125825238Y-72477380D01*
X125634761Y-72477380D01*
X125539523Y-72525000D01*
X125491904Y-72572619D01*
X125444285Y-72667857D01*
X125444285Y-72715476D01*
X125491904Y-72810714D01*
X125539523Y-72858333D01*
X125634761Y-72905952D01*
X125825238Y-72905952D01*
X125920476Y-72953571D01*
X125968095Y-73001190D01*
X126015714Y-73096428D01*
X126015714Y-73286904D01*
X125968095Y-73382142D01*
X125920476Y-73429761D01*
X125825238Y-73477380D01*
X125634761Y-73477380D01*
X125539523Y-73429761D01*
X125491904Y-73382142D01*
X125444285Y-73286904D01*
X125444285Y-73096428D01*
X125491904Y-73001190D01*
X125539523Y-72953571D01*
X125634761Y-72905952D01*
X171259523Y-67397380D02*
X171450000Y-67397380D01*
X171545238Y-67445000D01*
X171592857Y-67492619D01*
X171688095Y-67635476D01*
X171735714Y-67825952D01*
X171735714Y-68206904D01*
X171688095Y-68302142D01*
X171640476Y-68349761D01*
X171545238Y-68397380D01*
X171354761Y-68397380D01*
X171259523Y-68349761D01*
X171211904Y-68302142D01*
X171164285Y-68206904D01*
X171164285Y-67968809D01*
X171211904Y-67873571D01*
X171259523Y-67825952D01*
X171354761Y-67778333D01*
X171545238Y-67778333D01*
X171640476Y-67825952D01*
X171688095Y-67873571D01*
X171735714Y-67968809D01*
X148399523Y-67397380D02*
X148590000Y-67397380D01*
X148685238Y-67445000D01*
X148732857Y-67492619D01*
X148828095Y-67635476D01*
X148875714Y-67825952D01*
X148875714Y-68206904D01*
X148828095Y-68302142D01*
X148780476Y-68349761D01*
X148685238Y-68397380D01*
X148494761Y-68397380D01*
X148399523Y-68349761D01*
X148351904Y-68302142D01*
X148304285Y-68206904D01*
X148304285Y-67968809D01*
X148351904Y-67873571D01*
X148399523Y-67825952D01*
X148494761Y-67778333D01*
X148685238Y-67778333D01*
X148780476Y-67825952D01*
X148828095Y-67873571D01*
X148875714Y-67968809D01*
X125539523Y-67397380D02*
X125730000Y-67397380D01*
X125825238Y-67445000D01*
X125872857Y-67492619D01*
X125968095Y-67635476D01*
X126015714Y-67825952D01*
X126015714Y-68206904D01*
X125968095Y-68302142D01*
X125920476Y-68349761D01*
X125825238Y-68397380D01*
X125634761Y-68397380D01*
X125539523Y-68349761D01*
X125491904Y-68302142D01*
X125444285Y-68206904D01*
X125444285Y-67968809D01*
X125491904Y-67873571D01*
X125539523Y-67825952D01*
X125634761Y-67778333D01*
X125825238Y-67778333D01*
X125920476Y-67825952D01*
X125968095Y-67873571D01*
X126015714Y-67968809D01*
X171783333Y-69937380D02*
X171116666Y-69937380D01*
X171545238Y-70937380D01*
X148923333Y-69937380D02*
X148256666Y-69937380D01*
X148685238Y-70937380D01*
X126063333Y-69937380D02*
X125396666Y-69937380D01*
X125825238Y-70937380D01*
D12*
X172263571Y-58056190D02*
X172167857Y-58088095D01*
X172008333Y-58088095D01*
X171944523Y-58056190D01*
X171912619Y-58024285D01*
X171880714Y-57960476D01*
X171880714Y-57896666D01*
X171912619Y-57832857D01*
X171944523Y-57800952D01*
X172008333Y-57769047D01*
X172135952Y-57737142D01*
X172199761Y-57705238D01*
X172231666Y-57673333D01*
X172263571Y-57609523D01*
X172263571Y-57545714D01*
X172231666Y-57481904D01*
X172199761Y-57450000D01*
X172135952Y-57418095D01*
X171976428Y-57418095D01*
X171880714Y-57450000D01*
X171593571Y-58088095D02*
X171593571Y-57418095D01*
X171434047Y-57418095D01*
X171338333Y-57450000D01*
X171274523Y-57513809D01*
X171242619Y-57577619D01*
X171210714Y-57705238D01*
X171210714Y-57800952D01*
X171242619Y-57928571D01*
X171274523Y-57992380D01*
X171338333Y-58056190D01*
X171434047Y-58088095D01*
X171593571Y-58088095D01*
X170955476Y-57896666D02*
X170636428Y-57896666D01*
X171019285Y-58088095D02*
X170795952Y-57418095D01*
X170572619Y-58088095D01*
X149403571Y-58056190D02*
X149307857Y-58088095D01*
X149148333Y-58088095D01*
X149084523Y-58056190D01*
X149052619Y-58024285D01*
X149020714Y-57960476D01*
X149020714Y-57896666D01*
X149052619Y-57832857D01*
X149084523Y-57800952D01*
X149148333Y-57769047D01*
X149275952Y-57737142D01*
X149339761Y-57705238D01*
X149371666Y-57673333D01*
X149403571Y-57609523D01*
X149403571Y-57545714D01*
X149371666Y-57481904D01*
X149339761Y-57450000D01*
X149275952Y-57418095D01*
X149116428Y-57418095D01*
X149020714Y-57450000D01*
X148733571Y-58088095D02*
X148733571Y-57418095D01*
X148574047Y-57418095D01*
X148478333Y-57450000D01*
X148414523Y-57513809D01*
X148382619Y-57577619D01*
X148350714Y-57705238D01*
X148350714Y-57800952D01*
X148382619Y-57928571D01*
X148414523Y-57992380D01*
X148478333Y-58056190D01*
X148574047Y-58088095D01*
X148733571Y-58088095D01*
X148095476Y-57896666D02*
X147776428Y-57896666D01*
X148159285Y-58088095D02*
X147935952Y-57418095D01*
X147712619Y-58088095D01*
X126543571Y-58056190D02*
X126447857Y-58088095D01*
X126288333Y-58088095D01*
X126224523Y-58056190D01*
X126192619Y-58024285D01*
X126160714Y-57960476D01*
X126160714Y-57896666D01*
X126192619Y-57832857D01*
X126224523Y-57800952D01*
X126288333Y-57769047D01*
X126415952Y-57737142D01*
X126479761Y-57705238D01*
X126511666Y-57673333D01*
X126543571Y-57609523D01*
X126543571Y-57545714D01*
X126511666Y-57481904D01*
X126479761Y-57450000D01*
X126415952Y-57418095D01*
X126256428Y-57418095D01*
X126160714Y-57450000D01*
X125873571Y-58088095D02*
X125873571Y-57418095D01*
X125714047Y-57418095D01*
X125618333Y-57450000D01*
X125554523Y-57513809D01*
X125522619Y-57577619D01*
X125490714Y-57705238D01*
X125490714Y-57800952D01*
X125522619Y-57928571D01*
X125554523Y-57992380D01*
X125618333Y-58056190D01*
X125714047Y-58088095D01*
X125873571Y-58088095D01*
X125235476Y-57896666D02*
X124916428Y-57896666D01*
X125299285Y-58088095D02*
X125075952Y-57418095D01*
X124852619Y-58088095D01*
D10*
X171830952Y-55316428D02*
X171069047Y-55316428D01*
X148970952Y-55316428D02*
X148209047Y-55316428D01*
X126110952Y-55316428D02*
X125349047Y-55316428D01*
X171259523Y-62650714D02*
X171259523Y-63317380D01*
X171497619Y-62269761D02*
X171735714Y-62984047D01*
X171116666Y-62984047D01*
X148399523Y-62650714D02*
X148399523Y-63317380D01*
X148637619Y-62269761D02*
X148875714Y-62984047D01*
X148256666Y-62984047D01*
X125539523Y-62650714D02*
X125539523Y-63317380D01*
X125777619Y-62269761D02*
X126015714Y-62984047D01*
X125396666Y-62984047D01*
D12*
X172247619Y-60596190D02*
X172151904Y-60628095D01*
X171992380Y-60628095D01*
X171928571Y-60596190D01*
X171896666Y-60564285D01*
X171864761Y-60500476D01*
X171864761Y-60436666D01*
X171896666Y-60372857D01*
X171928571Y-60340952D01*
X171992380Y-60309047D01*
X172120000Y-60277142D01*
X172183809Y-60245238D01*
X172215714Y-60213333D01*
X172247619Y-60149523D01*
X172247619Y-60085714D01*
X172215714Y-60021904D01*
X172183809Y-59990000D01*
X172120000Y-59958095D01*
X171960476Y-59958095D01*
X171864761Y-59990000D01*
X171194761Y-60564285D02*
X171226666Y-60596190D01*
X171322380Y-60628095D01*
X171386190Y-60628095D01*
X171481904Y-60596190D01*
X171545714Y-60532380D01*
X171577619Y-60468571D01*
X171609523Y-60340952D01*
X171609523Y-60245238D01*
X171577619Y-60117619D01*
X171545714Y-60053809D01*
X171481904Y-59990000D01*
X171386190Y-59958095D01*
X171322380Y-59958095D01*
X171226666Y-59990000D01*
X171194761Y-60021904D01*
X170588571Y-60628095D02*
X170907619Y-60628095D01*
X170907619Y-59958095D01*
X149387619Y-60596190D02*
X149291904Y-60628095D01*
X149132380Y-60628095D01*
X149068571Y-60596190D01*
X149036666Y-60564285D01*
X149004761Y-60500476D01*
X149004761Y-60436666D01*
X149036666Y-60372857D01*
X149068571Y-60340952D01*
X149132380Y-60309047D01*
X149260000Y-60277142D01*
X149323809Y-60245238D01*
X149355714Y-60213333D01*
X149387619Y-60149523D01*
X149387619Y-60085714D01*
X149355714Y-60021904D01*
X149323809Y-59990000D01*
X149260000Y-59958095D01*
X149100476Y-59958095D01*
X149004761Y-59990000D01*
X148334761Y-60564285D02*
X148366666Y-60596190D01*
X148462380Y-60628095D01*
X148526190Y-60628095D01*
X148621904Y-60596190D01*
X148685714Y-60532380D01*
X148717619Y-60468571D01*
X148749523Y-60340952D01*
X148749523Y-60245238D01*
X148717619Y-60117619D01*
X148685714Y-60053809D01*
X148621904Y-59990000D01*
X148526190Y-59958095D01*
X148462380Y-59958095D01*
X148366666Y-59990000D01*
X148334761Y-60021904D01*
X147728571Y-60628095D02*
X148047619Y-60628095D01*
X148047619Y-59958095D01*
X126527619Y-60596190D02*
X126431904Y-60628095D01*
X126272380Y-60628095D01*
X126208571Y-60596190D01*
X126176666Y-60564285D01*
X126144761Y-60500476D01*
X126144761Y-60436666D01*
X126176666Y-60372857D01*
X126208571Y-60340952D01*
X126272380Y-60309047D01*
X126400000Y-60277142D01*
X126463809Y-60245238D01*
X126495714Y-60213333D01*
X126527619Y-60149523D01*
X126527619Y-60085714D01*
X126495714Y-60021904D01*
X126463809Y-59990000D01*
X126400000Y-59958095D01*
X126240476Y-59958095D01*
X126144761Y-59990000D01*
X125474761Y-60564285D02*
X125506666Y-60596190D01*
X125602380Y-60628095D01*
X125666190Y-60628095D01*
X125761904Y-60596190D01*
X125825714Y-60532380D01*
X125857619Y-60468571D01*
X125889523Y-60340952D01*
X125889523Y-60245238D01*
X125857619Y-60117619D01*
X125825714Y-60053809D01*
X125761904Y-59990000D01*
X125666190Y-59958095D01*
X125602380Y-59958095D01*
X125506666Y-59990000D01*
X125474761Y-60021904D01*
X124868571Y-60628095D02*
X125187619Y-60628095D01*
X125187619Y-59958095D01*
D10*
X171211904Y-64857380D02*
X171688095Y-64857380D01*
X171735714Y-65333571D01*
X171688095Y-65285952D01*
X171592857Y-65238333D01*
X171354761Y-65238333D01*
X171259523Y-65285952D01*
X171211904Y-65333571D01*
X171164285Y-65428809D01*
X171164285Y-65666904D01*
X171211904Y-65762142D01*
X171259523Y-65809761D01*
X171354761Y-65857380D01*
X171592857Y-65857380D01*
X171688095Y-65809761D01*
X171735714Y-65762142D01*
X148351904Y-64857380D02*
X148828095Y-64857380D01*
X148875714Y-65333571D01*
X148828095Y-65285952D01*
X148732857Y-65238333D01*
X148494761Y-65238333D01*
X148399523Y-65285952D01*
X148351904Y-65333571D01*
X148304285Y-65428809D01*
X148304285Y-65666904D01*
X148351904Y-65762142D01*
X148399523Y-65809761D01*
X148494761Y-65857380D01*
X148732857Y-65857380D01*
X148828095Y-65809761D01*
X148875714Y-65762142D01*
X125491904Y-64857380D02*
X125968095Y-64857380D01*
X126015714Y-65333571D01*
X125968095Y-65285952D01*
X125872857Y-65238333D01*
X125634761Y-65238333D01*
X125539523Y-65285952D01*
X125491904Y-65333571D01*
X125444285Y-65428809D01*
X125444285Y-65666904D01*
X125491904Y-65762142D01*
X125539523Y-65809761D01*
X125634761Y-65857380D01*
X125872857Y-65857380D01*
X125968095Y-65809761D01*
X126015714Y-65762142D01*
X171830952Y-52776428D02*
X171069047Y-52776428D01*
X148970952Y-52776428D02*
X148209047Y-52776428D01*
X126110952Y-52776428D02*
X125349047Y-52776428D01*
X172092857Y-50617380D02*
X172092857Y-49617380D01*
X171854761Y-49617380D01*
X171711904Y-49665000D01*
X171616666Y-49760238D01*
X171569047Y-49855476D01*
X171521428Y-50045952D01*
X171521428Y-50188809D01*
X171569047Y-50379285D01*
X171616666Y-50474523D01*
X171711904Y-50569761D01*
X171854761Y-50617380D01*
X172092857Y-50617380D01*
X171235714Y-49617380D02*
X170664285Y-49617380D01*
X170950000Y-50617380D02*
X170950000Y-49617380D01*
X149232857Y-50617380D02*
X149232857Y-49617380D01*
X148994761Y-49617380D01*
X148851904Y-49665000D01*
X148756666Y-49760238D01*
X148709047Y-49855476D01*
X148661428Y-50045952D01*
X148661428Y-50188809D01*
X148709047Y-50379285D01*
X148756666Y-50474523D01*
X148851904Y-50569761D01*
X148994761Y-50617380D01*
X149232857Y-50617380D01*
X148375714Y-49617380D02*
X147804285Y-49617380D01*
X148090000Y-50617380D02*
X148090000Y-49617380D01*
X126372857Y-50617380D02*
X126372857Y-49617380D01*
X126134761Y-49617380D01*
X125991904Y-49665000D01*
X125896666Y-49760238D01*
X125849047Y-49855476D01*
X125801428Y-50045952D01*
X125801428Y-50188809D01*
X125849047Y-50379285D01*
X125896666Y-50474523D01*
X125991904Y-50569761D01*
X126134761Y-50617380D01*
X126372857Y-50617380D01*
X125515714Y-49617380D02*
X124944285Y-49617380D01*
X125230000Y-50617380D02*
X125230000Y-49617380D01*
X159956476Y-76017380D02*
X160527904Y-76017380D01*
X160242190Y-76017380D02*
X160242190Y-75017380D01*
X160337428Y-75160238D01*
X160432666Y-75255476D01*
X160527904Y-75303095D01*
X159337428Y-75017380D02*
X159242190Y-75017380D01*
X159146952Y-75065000D01*
X159099333Y-75112619D01*
X159051714Y-75207857D01*
X159004095Y-75398333D01*
X159004095Y-75636428D01*
X159051714Y-75826904D01*
X159099333Y-75922142D01*
X159146952Y-75969761D01*
X159242190Y-76017380D01*
X159337428Y-76017380D01*
X159432666Y-75969761D01*
X159480285Y-75922142D01*
X159527904Y-75826904D01*
X159575523Y-75636428D01*
X159575523Y-75398333D01*
X159527904Y-75207857D01*
X159480285Y-75112619D01*
X159432666Y-75065000D01*
X159337428Y-75017380D01*
X137096476Y-76017380D02*
X137667904Y-76017380D01*
X137382190Y-76017380D02*
X137382190Y-75017380D01*
X137477428Y-75160238D01*
X137572666Y-75255476D01*
X137667904Y-75303095D01*
X136477428Y-75017380D02*
X136382190Y-75017380D01*
X136286952Y-75065000D01*
X136239333Y-75112619D01*
X136191714Y-75207857D01*
X136144095Y-75398333D01*
X136144095Y-75636428D01*
X136191714Y-75826904D01*
X136239333Y-75922142D01*
X136286952Y-75969761D01*
X136382190Y-76017380D01*
X136477428Y-76017380D01*
X136572666Y-75969761D01*
X136620285Y-75922142D01*
X136667904Y-75826904D01*
X136715523Y-75636428D01*
X136715523Y-75398333D01*
X136667904Y-75207857D01*
X136620285Y-75112619D01*
X136572666Y-75065000D01*
X136477428Y-75017380D01*
X114236476Y-76017380D02*
X114807904Y-76017380D01*
X114522190Y-76017380D02*
X114522190Y-75017380D01*
X114617428Y-75160238D01*
X114712666Y-75255476D01*
X114807904Y-75303095D01*
X113617428Y-75017380D02*
X113522190Y-75017380D01*
X113426952Y-75065000D01*
X113379333Y-75112619D01*
X113331714Y-75207857D01*
X113284095Y-75398333D01*
X113284095Y-75636428D01*
X113331714Y-75826904D01*
X113379333Y-75922142D01*
X113426952Y-75969761D01*
X113522190Y-76017380D01*
X113617428Y-76017380D01*
X113712666Y-75969761D01*
X113760285Y-75922142D01*
X113807904Y-75826904D01*
X113855523Y-75636428D01*
X113855523Y-75398333D01*
X113807904Y-75207857D01*
X113760285Y-75112619D01*
X113712666Y-75065000D01*
X113617428Y-75017380D01*
X159956476Y-73477380D02*
X160527904Y-73477380D01*
X160242190Y-73477380D02*
X160242190Y-72477380D01*
X160337428Y-72620238D01*
X160432666Y-72715476D01*
X160527904Y-72763095D01*
X159099333Y-72477380D02*
X159289809Y-72477380D01*
X159385047Y-72525000D01*
X159432666Y-72572619D01*
X159527904Y-72715476D01*
X159575523Y-72905952D01*
X159575523Y-73286904D01*
X159527904Y-73382142D01*
X159480285Y-73429761D01*
X159385047Y-73477380D01*
X159194571Y-73477380D01*
X159099333Y-73429761D01*
X159051714Y-73382142D01*
X159004095Y-73286904D01*
X159004095Y-73048809D01*
X159051714Y-72953571D01*
X159099333Y-72905952D01*
X159194571Y-72858333D01*
X159385047Y-72858333D01*
X159480285Y-72905952D01*
X159527904Y-72953571D01*
X159575523Y-73048809D01*
X137096476Y-73477380D02*
X137667904Y-73477380D01*
X137382190Y-73477380D02*
X137382190Y-72477380D01*
X137477428Y-72620238D01*
X137572666Y-72715476D01*
X137667904Y-72763095D01*
X136239333Y-72477380D02*
X136429809Y-72477380D01*
X136525047Y-72525000D01*
X136572666Y-72572619D01*
X136667904Y-72715476D01*
X136715523Y-72905952D01*
X136715523Y-73286904D01*
X136667904Y-73382142D01*
X136620285Y-73429761D01*
X136525047Y-73477380D01*
X136334571Y-73477380D01*
X136239333Y-73429761D01*
X136191714Y-73382142D01*
X136144095Y-73286904D01*
X136144095Y-73048809D01*
X136191714Y-72953571D01*
X136239333Y-72905952D01*
X136334571Y-72858333D01*
X136525047Y-72858333D01*
X136620285Y-72905952D01*
X136667904Y-72953571D01*
X136715523Y-73048809D01*
X114236476Y-73477380D02*
X114807904Y-73477380D01*
X114522190Y-73477380D02*
X114522190Y-72477380D01*
X114617428Y-72620238D01*
X114712666Y-72715476D01*
X114807904Y-72763095D01*
X113379333Y-72477380D02*
X113569809Y-72477380D01*
X113665047Y-72525000D01*
X113712666Y-72572619D01*
X113807904Y-72715476D01*
X113855523Y-72905952D01*
X113855523Y-73286904D01*
X113807904Y-73382142D01*
X113760285Y-73429761D01*
X113665047Y-73477380D01*
X113474571Y-73477380D01*
X113379333Y-73429761D01*
X113331714Y-73382142D01*
X113284095Y-73286904D01*
X113284095Y-73048809D01*
X113331714Y-72953571D01*
X113379333Y-72905952D01*
X113474571Y-72858333D01*
X113665047Y-72858333D01*
X113760285Y-72905952D01*
X113807904Y-72953571D01*
X113855523Y-73048809D01*
X159956476Y-70937380D02*
X160527904Y-70937380D01*
X160242190Y-70937380D02*
X160242190Y-69937380D01*
X160337428Y-70080238D01*
X160432666Y-70175476D01*
X160527904Y-70223095D01*
X159099333Y-70270714D02*
X159099333Y-70937380D01*
X159337428Y-69889761D02*
X159575523Y-70604047D01*
X158956476Y-70604047D01*
X137096476Y-70937380D02*
X137667904Y-70937380D01*
X137382190Y-70937380D02*
X137382190Y-69937380D01*
X137477428Y-70080238D01*
X137572666Y-70175476D01*
X137667904Y-70223095D01*
X136239333Y-70270714D02*
X136239333Y-70937380D01*
X136477428Y-69889761D02*
X136715523Y-70604047D01*
X136096476Y-70604047D01*
X114236476Y-70937380D02*
X114807904Y-70937380D01*
X114522190Y-70937380D02*
X114522190Y-69937380D01*
X114617428Y-70080238D01*
X114712666Y-70175476D01*
X114807904Y-70223095D01*
X113379333Y-70270714D02*
X113379333Y-70937380D01*
X113617428Y-69889761D02*
X113855523Y-70604047D01*
X113236476Y-70604047D01*
X159956476Y-68397380D02*
X160527904Y-68397380D01*
X160242190Y-68397380D02*
X160242190Y-67397380D01*
X160337428Y-67540238D01*
X160432666Y-67635476D01*
X160527904Y-67683095D01*
X159051714Y-67397380D02*
X159527904Y-67397380D01*
X159575523Y-67873571D01*
X159527904Y-67825952D01*
X159432666Y-67778333D01*
X159194571Y-67778333D01*
X159099333Y-67825952D01*
X159051714Y-67873571D01*
X159004095Y-67968809D01*
X159004095Y-68206904D01*
X159051714Y-68302142D01*
X159099333Y-68349761D01*
X159194571Y-68397380D01*
X159432666Y-68397380D01*
X159527904Y-68349761D01*
X159575523Y-68302142D01*
X137096476Y-68397380D02*
X137667904Y-68397380D01*
X137382190Y-68397380D02*
X137382190Y-67397380D01*
X137477428Y-67540238D01*
X137572666Y-67635476D01*
X137667904Y-67683095D01*
X136191714Y-67397380D02*
X136667904Y-67397380D01*
X136715523Y-67873571D01*
X136667904Y-67825952D01*
X136572666Y-67778333D01*
X136334571Y-67778333D01*
X136239333Y-67825952D01*
X136191714Y-67873571D01*
X136144095Y-67968809D01*
X136144095Y-68206904D01*
X136191714Y-68302142D01*
X136239333Y-68349761D01*
X136334571Y-68397380D01*
X136572666Y-68397380D01*
X136667904Y-68349761D01*
X136715523Y-68302142D01*
X114236476Y-68397380D02*
X114807904Y-68397380D01*
X114522190Y-68397380D02*
X114522190Y-67397380D01*
X114617428Y-67540238D01*
X114712666Y-67635476D01*
X114807904Y-67683095D01*
X113331714Y-67397380D02*
X113807904Y-67397380D01*
X113855523Y-67873571D01*
X113807904Y-67825952D01*
X113712666Y-67778333D01*
X113474571Y-67778333D01*
X113379333Y-67825952D01*
X113331714Y-67873571D01*
X113284095Y-67968809D01*
X113284095Y-68206904D01*
X113331714Y-68302142D01*
X113379333Y-68349761D01*
X113474571Y-68397380D01*
X113712666Y-68397380D01*
X113807904Y-68349761D01*
X113855523Y-68302142D01*
X160480285Y-65571666D02*
X160004095Y-65571666D01*
X160575523Y-65857380D02*
X160242190Y-64857380D01*
X159908857Y-65857380D01*
X159385047Y-64857380D02*
X159289809Y-64857380D01*
X159194571Y-64905000D01*
X159146952Y-64952619D01*
X159099333Y-65047857D01*
X159051714Y-65238333D01*
X159051714Y-65476428D01*
X159099333Y-65666904D01*
X159146952Y-65762142D01*
X159194571Y-65809761D01*
X159289809Y-65857380D01*
X159385047Y-65857380D01*
X159480285Y-65809761D01*
X159527904Y-65762142D01*
X159575523Y-65666904D01*
X159623142Y-65476428D01*
X159623142Y-65238333D01*
X159575523Y-65047857D01*
X159527904Y-64952619D01*
X159480285Y-64905000D01*
X159385047Y-64857380D01*
X137620285Y-65571666D02*
X137144095Y-65571666D01*
X137715523Y-65857380D02*
X137382190Y-64857380D01*
X137048857Y-65857380D01*
X136525047Y-64857380D02*
X136429809Y-64857380D01*
X136334571Y-64905000D01*
X136286952Y-64952619D01*
X136239333Y-65047857D01*
X136191714Y-65238333D01*
X136191714Y-65476428D01*
X136239333Y-65666904D01*
X136286952Y-65762142D01*
X136334571Y-65809761D01*
X136429809Y-65857380D01*
X136525047Y-65857380D01*
X136620285Y-65809761D01*
X136667904Y-65762142D01*
X136715523Y-65666904D01*
X136763142Y-65476428D01*
X136763142Y-65238333D01*
X136715523Y-65047857D01*
X136667904Y-64952619D01*
X136620285Y-64905000D01*
X136525047Y-64857380D01*
X114760285Y-65571666D02*
X114284095Y-65571666D01*
X114855523Y-65857380D02*
X114522190Y-64857380D01*
X114188857Y-65857380D01*
X113665047Y-64857380D02*
X113569809Y-64857380D01*
X113474571Y-64905000D01*
X113426952Y-64952619D01*
X113379333Y-65047857D01*
X113331714Y-65238333D01*
X113331714Y-65476428D01*
X113379333Y-65666904D01*
X113426952Y-65762142D01*
X113474571Y-65809761D01*
X113569809Y-65857380D01*
X113665047Y-65857380D01*
X113760285Y-65809761D01*
X113807904Y-65762142D01*
X113855523Y-65666904D01*
X113903142Y-65476428D01*
X113903142Y-65238333D01*
X113855523Y-65047857D01*
X113807904Y-64952619D01*
X113760285Y-64905000D01*
X113665047Y-64857380D01*
X160480285Y-63031666D02*
X160004095Y-63031666D01*
X160575523Y-63317380D02*
X160242190Y-62317380D01*
X159908857Y-63317380D01*
X159051714Y-63317380D02*
X159623142Y-63317380D01*
X159337428Y-63317380D02*
X159337428Y-62317380D01*
X159432666Y-62460238D01*
X159527904Y-62555476D01*
X159623142Y-62603095D01*
X137620285Y-63031666D02*
X137144095Y-63031666D01*
X137715523Y-63317380D02*
X137382190Y-62317380D01*
X137048857Y-63317380D01*
X136191714Y-63317380D02*
X136763142Y-63317380D01*
X136477428Y-63317380D02*
X136477428Y-62317380D01*
X136572666Y-62460238D01*
X136667904Y-62555476D01*
X136763142Y-62603095D01*
X114760285Y-63031666D02*
X114284095Y-63031666D01*
X114855523Y-63317380D02*
X114522190Y-62317380D01*
X114188857Y-63317380D01*
X113331714Y-63317380D02*
X113903142Y-63317380D01*
X113617428Y-63317380D02*
X113617428Y-62317380D01*
X113712666Y-62460238D01*
X113807904Y-62555476D01*
X113903142Y-62603095D01*
X160480285Y-57951666D02*
X160004095Y-57951666D01*
X160575523Y-58237380D02*
X160242190Y-57237380D01*
X159908857Y-58237380D01*
X159670761Y-57237380D02*
X159051714Y-57237380D01*
X159385047Y-57618333D01*
X159242190Y-57618333D01*
X159146952Y-57665952D01*
X159099333Y-57713571D01*
X159051714Y-57808809D01*
X159051714Y-58046904D01*
X159099333Y-58142142D01*
X159146952Y-58189761D01*
X159242190Y-58237380D01*
X159527904Y-58237380D01*
X159623142Y-58189761D01*
X159670761Y-58142142D01*
X137620285Y-57951666D02*
X137144095Y-57951666D01*
X137715523Y-58237380D02*
X137382190Y-57237380D01*
X137048857Y-58237380D01*
X136810761Y-57237380D02*
X136191714Y-57237380D01*
X136525047Y-57618333D01*
X136382190Y-57618333D01*
X136286952Y-57665952D01*
X136239333Y-57713571D01*
X136191714Y-57808809D01*
X136191714Y-58046904D01*
X136239333Y-58142142D01*
X136286952Y-58189761D01*
X136382190Y-58237380D01*
X136667904Y-58237380D01*
X136763142Y-58189761D01*
X136810761Y-58142142D01*
X114760285Y-57951666D02*
X114284095Y-57951666D01*
X114855523Y-58237380D02*
X114522190Y-57237380D01*
X114188857Y-58237380D01*
X113950761Y-57237380D02*
X113331714Y-57237380D01*
X113665047Y-57618333D01*
X113522190Y-57618333D01*
X113426952Y-57665952D01*
X113379333Y-57713571D01*
X113331714Y-57808809D01*
X113331714Y-58046904D01*
X113379333Y-58142142D01*
X113426952Y-58189761D01*
X113522190Y-58237380D01*
X113807904Y-58237380D01*
X113903142Y-58189761D01*
X113950761Y-58142142D01*
X160146952Y-55316428D02*
X159385047Y-55316428D01*
X159766000Y-55697380D02*
X159766000Y-54935476D01*
X137286952Y-55316428D02*
X136525047Y-55316428D01*
X136906000Y-55697380D02*
X136906000Y-54935476D01*
X114426952Y-55316428D02*
X113665047Y-55316428D01*
X114046000Y-55697380D02*
X114046000Y-54935476D01*
D12*
X160132904Y-53008095D02*
X160356238Y-52689047D01*
X160515761Y-53008095D02*
X160515761Y-52338095D01*
X160260523Y-52338095D01*
X160196714Y-52370000D01*
X160164809Y-52401904D01*
X160132904Y-52465714D01*
X160132904Y-52561428D01*
X160164809Y-52625238D01*
X160196714Y-52657142D01*
X160260523Y-52689047D01*
X160515761Y-52689047D01*
X159877666Y-52976190D02*
X159781952Y-53008095D01*
X159622428Y-53008095D01*
X159558619Y-52976190D01*
X159526714Y-52944285D01*
X159494809Y-52880476D01*
X159494809Y-52816666D01*
X159526714Y-52752857D01*
X159558619Y-52720952D01*
X159622428Y-52689047D01*
X159750047Y-52657142D01*
X159813857Y-52625238D01*
X159845761Y-52593333D01*
X159877666Y-52529523D01*
X159877666Y-52465714D01*
X159845761Y-52401904D01*
X159813857Y-52370000D01*
X159750047Y-52338095D01*
X159590523Y-52338095D01*
X159494809Y-52370000D01*
X159303380Y-52338095D02*
X158920523Y-52338095D01*
X159111952Y-53008095D02*
X159111952Y-52338095D01*
X137272904Y-53008095D02*
X137496238Y-52689047D01*
X137655761Y-53008095D02*
X137655761Y-52338095D01*
X137400523Y-52338095D01*
X137336714Y-52370000D01*
X137304809Y-52401904D01*
X137272904Y-52465714D01*
X137272904Y-52561428D01*
X137304809Y-52625238D01*
X137336714Y-52657142D01*
X137400523Y-52689047D01*
X137655761Y-52689047D01*
X137017666Y-52976190D02*
X136921952Y-53008095D01*
X136762428Y-53008095D01*
X136698619Y-52976190D01*
X136666714Y-52944285D01*
X136634809Y-52880476D01*
X136634809Y-52816666D01*
X136666714Y-52752857D01*
X136698619Y-52720952D01*
X136762428Y-52689047D01*
X136890047Y-52657142D01*
X136953857Y-52625238D01*
X136985761Y-52593333D01*
X137017666Y-52529523D01*
X137017666Y-52465714D01*
X136985761Y-52401904D01*
X136953857Y-52370000D01*
X136890047Y-52338095D01*
X136730523Y-52338095D01*
X136634809Y-52370000D01*
X136443380Y-52338095D02*
X136060523Y-52338095D01*
X136251952Y-53008095D02*
X136251952Y-52338095D01*
X114412904Y-53008095D02*
X114636238Y-52689047D01*
X114795761Y-53008095D02*
X114795761Y-52338095D01*
X114540523Y-52338095D01*
X114476714Y-52370000D01*
X114444809Y-52401904D01*
X114412904Y-52465714D01*
X114412904Y-52561428D01*
X114444809Y-52625238D01*
X114476714Y-52657142D01*
X114540523Y-52689047D01*
X114795761Y-52689047D01*
X114157666Y-52976190D02*
X114061952Y-53008095D01*
X113902428Y-53008095D01*
X113838619Y-52976190D01*
X113806714Y-52944285D01*
X113774809Y-52880476D01*
X113774809Y-52816666D01*
X113806714Y-52752857D01*
X113838619Y-52720952D01*
X113902428Y-52689047D01*
X114030047Y-52657142D01*
X114093857Y-52625238D01*
X114125761Y-52593333D01*
X114157666Y-52529523D01*
X114157666Y-52465714D01*
X114125761Y-52401904D01*
X114093857Y-52370000D01*
X114030047Y-52338095D01*
X113870523Y-52338095D01*
X113774809Y-52370000D01*
X113583380Y-52338095D02*
X113200523Y-52338095D01*
X113391952Y-53008095D02*
X113391952Y-52338095D01*
D10*
X160146952Y-50236428D02*
X159385047Y-50236428D01*
X137286952Y-50236428D02*
X136525047Y-50236428D01*
X114426952Y-50236428D02*
X113665047Y-50236428D01*
X160146952Y-47696428D02*
X159385047Y-47696428D01*
X159766000Y-48077380D02*
X159766000Y-47315476D01*
X137286952Y-47696428D02*
X136525047Y-47696428D01*
X136906000Y-48077380D02*
X136906000Y-47315476D01*
X114426952Y-47696428D02*
X113665047Y-47696428D01*
X114046000Y-48077380D02*
X114046000Y-47315476D01*
X166896904Y-78936904D02*
X166744523Y-78936904D01*
X166668333Y-78975000D01*
X166592142Y-79051190D01*
X166554047Y-79203571D01*
X166554047Y-79470238D01*
X166592142Y-79622619D01*
X166668333Y-79698809D01*
X166744523Y-79736904D01*
X166896904Y-79736904D01*
X166973095Y-79698809D01*
X167049285Y-79622619D01*
X167087380Y-79470238D01*
X167087380Y-79203571D01*
X167049285Y-79051190D01*
X166973095Y-78975000D01*
X166896904Y-78936904D01*
X165830238Y-79736904D02*
X166211190Y-79736904D01*
X166211190Y-78936904D01*
X165563571Y-79317857D02*
X165296904Y-79317857D01*
X165182619Y-79736904D02*
X165563571Y-79736904D01*
X165563571Y-78936904D01*
X165182619Y-78936904D01*
X164839761Y-79736904D02*
X164839761Y-78936904D01*
X164649285Y-78936904D01*
X164535000Y-78975000D01*
X164458809Y-79051190D01*
X164420714Y-79127380D01*
X164382619Y-79279761D01*
X164382619Y-79394047D01*
X164420714Y-79546428D01*
X164458809Y-79622619D01*
X164535000Y-79698809D01*
X164649285Y-79736904D01*
X164839761Y-79736904D01*
X144036904Y-78936904D02*
X143884523Y-78936904D01*
X143808333Y-78975000D01*
X143732142Y-79051190D01*
X143694047Y-79203571D01*
X143694047Y-79470238D01*
X143732142Y-79622619D01*
X143808333Y-79698809D01*
X143884523Y-79736904D01*
X144036904Y-79736904D01*
X144113095Y-79698809D01*
X144189285Y-79622619D01*
X144227380Y-79470238D01*
X144227380Y-79203571D01*
X144189285Y-79051190D01*
X144113095Y-78975000D01*
X144036904Y-78936904D01*
X142970238Y-79736904D02*
X143351190Y-79736904D01*
X143351190Y-78936904D01*
X142703571Y-79317857D02*
X142436904Y-79317857D01*
X142322619Y-79736904D02*
X142703571Y-79736904D01*
X142703571Y-78936904D01*
X142322619Y-78936904D01*
X141979761Y-79736904D02*
X141979761Y-78936904D01*
X141789285Y-78936904D01*
X141675000Y-78975000D01*
X141598809Y-79051190D01*
X141560714Y-79127380D01*
X141522619Y-79279761D01*
X141522619Y-79394047D01*
X141560714Y-79546428D01*
X141598809Y-79622619D01*
X141675000Y-79698809D01*
X141789285Y-79736904D01*
X141979761Y-79736904D01*
X121176904Y-78936904D02*
X121024523Y-78936904D01*
X120948333Y-78975000D01*
X120872142Y-79051190D01*
X120834047Y-79203571D01*
X120834047Y-79470238D01*
X120872142Y-79622619D01*
X120948333Y-79698809D01*
X121024523Y-79736904D01*
X121176904Y-79736904D01*
X121253095Y-79698809D01*
X121329285Y-79622619D01*
X121367380Y-79470238D01*
X121367380Y-79203571D01*
X121329285Y-79051190D01*
X121253095Y-78975000D01*
X121176904Y-78936904D01*
X120110238Y-79736904D02*
X120491190Y-79736904D01*
X120491190Y-78936904D01*
X119843571Y-79317857D02*
X119576904Y-79317857D01*
X119462619Y-79736904D02*
X119843571Y-79736904D01*
X119843571Y-78936904D01*
X119462619Y-78936904D01*
X119119761Y-79736904D02*
X119119761Y-78936904D01*
X118929285Y-78936904D01*
X118815000Y-78975000D01*
X118738809Y-79051190D01*
X118700714Y-79127380D01*
X118662619Y-79279761D01*
X118662619Y-79394047D01*
X118700714Y-79546428D01*
X118738809Y-79622619D01*
X118815000Y-79698809D01*
X118929285Y-79736904D01*
X119119761Y-79736904D01*
X166896904Y-84816904D02*
X167163571Y-84435952D01*
X167354047Y-84816904D02*
X167354047Y-84016904D01*
X167049285Y-84016904D01*
X166973095Y-84055000D01*
X166935000Y-84093095D01*
X166896904Y-84169285D01*
X166896904Y-84283571D01*
X166935000Y-84359761D01*
X166973095Y-84397857D01*
X167049285Y-84435952D01*
X167354047Y-84435952D01*
X166554047Y-84397857D02*
X166287380Y-84397857D01*
X166173095Y-84816904D02*
X166554047Y-84816904D01*
X166554047Y-84016904D01*
X166173095Y-84016904D01*
X165868333Y-84778809D02*
X165754047Y-84816904D01*
X165563571Y-84816904D01*
X165487380Y-84778809D01*
X165449285Y-84740714D01*
X165411190Y-84664523D01*
X165411190Y-84588333D01*
X165449285Y-84512142D01*
X165487380Y-84474047D01*
X165563571Y-84435952D01*
X165715952Y-84397857D01*
X165792142Y-84359761D01*
X165830238Y-84321666D01*
X165868333Y-84245476D01*
X165868333Y-84169285D01*
X165830238Y-84093095D01*
X165792142Y-84055000D01*
X165715952Y-84016904D01*
X165525476Y-84016904D01*
X165411190Y-84055000D01*
X165068333Y-84397857D02*
X164801666Y-84397857D01*
X164687380Y-84816904D02*
X165068333Y-84816904D01*
X165068333Y-84016904D01*
X164687380Y-84016904D01*
X164458809Y-84016904D02*
X164001666Y-84016904D01*
X164230238Y-84816904D02*
X164230238Y-84016904D01*
X144036904Y-84816904D02*
X144303571Y-84435952D01*
X144494047Y-84816904D02*
X144494047Y-84016904D01*
X144189285Y-84016904D01*
X144113095Y-84055000D01*
X144075000Y-84093095D01*
X144036904Y-84169285D01*
X144036904Y-84283571D01*
X144075000Y-84359761D01*
X144113095Y-84397857D01*
X144189285Y-84435952D01*
X144494047Y-84435952D01*
X143694047Y-84397857D02*
X143427380Y-84397857D01*
X143313095Y-84816904D02*
X143694047Y-84816904D01*
X143694047Y-84016904D01*
X143313095Y-84016904D01*
X143008333Y-84778809D02*
X142894047Y-84816904D01*
X142703571Y-84816904D01*
X142627380Y-84778809D01*
X142589285Y-84740714D01*
X142551190Y-84664523D01*
X142551190Y-84588333D01*
X142589285Y-84512142D01*
X142627380Y-84474047D01*
X142703571Y-84435952D01*
X142855952Y-84397857D01*
X142932142Y-84359761D01*
X142970238Y-84321666D01*
X143008333Y-84245476D01*
X143008333Y-84169285D01*
X142970238Y-84093095D01*
X142932142Y-84055000D01*
X142855952Y-84016904D01*
X142665476Y-84016904D01*
X142551190Y-84055000D01*
X142208333Y-84397857D02*
X141941666Y-84397857D01*
X141827380Y-84816904D02*
X142208333Y-84816904D01*
X142208333Y-84016904D01*
X141827380Y-84016904D01*
X141598809Y-84016904D02*
X141141666Y-84016904D01*
X141370238Y-84816904D02*
X141370238Y-84016904D01*
X121176904Y-84816904D02*
X121443571Y-84435952D01*
X121634047Y-84816904D02*
X121634047Y-84016904D01*
X121329285Y-84016904D01*
X121253095Y-84055000D01*
X121215000Y-84093095D01*
X121176904Y-84169285D01*
X121176904Y-84283571D01*
X121215000Y-84359761D01*
X121253095Y-84397857D01*
X121329285Y-84435952D01*
X121634047Y-84435952D01*
X120834047Y-84397857D02*
X120567380Y-84397857D01*
X120453095Y-84816904D02*
X120834047Y-84816904D01*
X120834047Y-84016904D01*
X120453095Y-84016904D01*
X120148333Y-84778809D02*
X120034047Y-84816904D01*
X119843571Y-84816904D01*
X119767380Y-84778809D01*
X119729285Y-84740714D01*
X119691190Y-84664523D01*
X119691190Y-84588333D01*
X119729285Y-84512142D01*
X119767380Y-84474047D01*
X119843571Y-84435952D01*
X119995952Y-84397857D01*
X120072142Y-84359761D01*
X120110238Y-84321666D01*
X120148333Y-84245476D01*
X120148333Y-84169285D01*
X120110238Y-84093095D01*
X120072142Y-84055000D01*
X119995952Y-84016904D01*
X119805476Y-84016904D01*
X119691190Y-84055000D01*
X119348333Y-84397857D02*
X119081666Y-84397857D01*
X118967380Y-84816904D02*
X119348333Y-84816904D01*
X119348333Y-84016904D01*
X118967380Y-84016904D01*
X118738809Y-84016904D02*
X118281666Y-84016904D01*
X118510238Y-84816904D02*
X118510238Y-84016904D01*
D13*
X172135000Y-46897857D02*
X172135000Y-45697857D01*
X171735000Y-46555000D01*
X171335000Y-45697857D01*
X171335000Y-46897857D01*
X170592142Y-46897857D02*
X170706428Y-46840714D01*
X170763571Y-46783571D01*
X170820714Y-46669285D01*
X170820714Y-46326428D01*
X170763571Y-46212142D01*
X170706428Y-46155000D01*
X170592142Y-46097857D01*
X170420714Y-46097857D01*
X170306428Y-46155000D01*
X170249285Y-46212142D01*
X170192142Y-46326428D01*
X170192142Y-46669285D01*
X170249285Y-46783571D01*
X170306428Y-46840714D01*
X170420714Y-46897857D01*
X170592142Y-46897857D01*
X169163571Y-46097857D02*
X169163571Y-47069285D01*
X169220714Y-47183571D01*
X169277857Y-47240714D01*
X169392142Y-47297857D01*
X169563571Y-47297857D01*
X169677857Y-47240714D01*
X169163571Y-46840714D02*
X169277857Y-46897857D01*
X169506428Y-46897857D01*
X169620714Y-46840714D01*
X169677857Y-46783571D01*
X169735000Y-46669285D01*
X169735000Y-46326428D01*
X169677857Y-46212142D01*
X169620714Y-46155000D01*
X169506428Y-46097857D01*
X169277857Y-46097857D01*
X169163571Y-46155000D01*
X168135000Y-46840714D02*
X168249285Y-46897857D01*
X168477857Y-46897857D01*
X168592142Y-46840714D01*
X168649285Y-46726428D01*
X168649285Y-46269285D01*
X168592142Y-46155000D01*
X168477857Y-46097857D01*
X168249285Y-46097857D01*
X168135000Y-46155000D01*
X168077857Y-46269285D01*
X168077857Y-46383571D01*
X168649285Y-46497857D01*
X166649285Y-46897857D02*
X166649285Y-45697857D01*
X165963571Y-46897857D01*
X165963571Y-45697857D01*
X164877857Y-46897857D02*
X164877857Y-46269285D01*
X164935000Y-46155000D01*
X165049285Y-46097857D01*
X165277857Y-46097857D01*
X165392142Y-46155000D01*
X164877857Y-46840714D02*
X164992142Y-46897857D01*
X165277857Y-46897857D01*
X165392142Y-46840714D01*
X165449285Y-46726428D01*
X165449285Y-46612142D01*
X165392142Y-46497857D01*
X165277857Y-46440714D01*
X164992142Y-46440714D01*
X164877857Y-46383571D01*
X164306428Y-46897857D02*
X164306428Y-46097857D01*
X164306428Y-45697857D02*
X164363571Y-45755000D01*
X164306428Y-45812142D01*
X164249285Y-45755000D01*
X164306428Y-45697857D01*
X164306428Y-45812142D01*
X163220714Y-46897857D02*
X163220714Y-45697857D01*
X163220714Y-46840714D02*
X163335000Y-46897857D01*
X163563571Y-46897857D01*
X163677857Y-46840714D01*
X163735000Y-46783571D01*
X163792142Y-46669285D01*
X163792142Y-46326428D01*
X163735000Y-46212142D01*
X163677857Y-46155000D01*
X163563571Y-46097857D01*
X163335000Y-46097857D01*
X163220714Y-46155000D01*
X162192142Y-46840714D02*
X162306428Y-46897857D01*
X162535000Y-46897857D01*
X162649285Y-46840714D01*
X162706428Y-46726428D01*
X162706428Y-46269285D01*
X162649285Y-46155000D01*
X162535000Y-46097857D01*
X162306428Y-46097857D01*
X162192142Y-46155000D01*
X162135000Y-46269285D01*
X162135000Y-46383571D01*
X162706428Y-46497857D01*
X161620714Y-46783571D02*
X161563571Y-46840714D01*
X161620714Y-46897857D01*
X161677857Y-46840714D01*
X161620714Y-46783571D01*
X161620714Y-46897857D01*
X161049285Y-46783571D02*
X160992142Y-46840714D01*
X161049285Y-46897857D01*
X161106428Y-46840714D01*
X161049285Y-46783571D01*
X161049285Y-46897857D01*
X160477857Y-46783571D02*
X160420714Y-46840714D01*
X160477857Y-46897857D01*
X160535000Y-46840714D01*
X160477857Y-46783571D01*
X160477857Y-46897857D01*
X159906428Y-46783571D02*
X159849285Y-46840714D01*
X159906428Y-46897857D01*
X159963571Y-46840714D01*
X159906428Y-46783571D01*
X159906428Y-46897857D01*
X159906428Y-46440714D02*
X159963571Y-45755000D01*
X159906428Y-45697857D01*
X159849285Y-45755000D01*
X159906428Y-46440714D01*
X159906428Y-45697857D01*
X159335000Y-46783571D02*
X159277857Y-46840714D01*
X159335000Y-46897857D01*
X159392142Y-46840714D01*
X159335000Y-46783571D01*
X159335000Y-46897857D01*
X159335000Y-46440714D02*
X159392142Y-45755000D01*
X159335000Y-45697857D01*
X159277857Y-45755000D01*
X159335000Y-46440714D01*
X159335000Y-45697857D01*
X149275000Y-46897857D02*
X149275000Y-45697857D01*
X148875000Y-46555000D01*
X148475000Y-45697857D01*
X148475000Y-46897857D01*
X147732142Y-46897857D02*
X147846428Y-46840714D01*
X147903571Y-46783571D01*
X147960714Y-46669285D01*
X147960714Y-46326428D01*
X147903571Y-46212142D01*
X147846428Y-46155000D01*
X147732142Y-46097857D01*
X147560714Y-46097857D01*
X147446428Y-46155000D01*
X147389285Y-46212142D01*
X147332142Y-46326428D01*
X147332142Y-46669285D01*
X147389285Y-46783571D01*
X147446428Y-46840714D01*
X147560714Y-46897857D01*
X147732142Y-46897857D01*
X146303571Y-46097857D02*
X146303571Y-47069285D01*
X146360714Y-47183571D01*
X146417857Y-47240714D01*
X146532142Y-47297857D01*
X146703571Y-47297857D01*
X146817857Y-47240714D01*
X146303571Y-46840714D02*
X146417857Y-46897857D01*
X146646428Y-46897857D01*
X146760714Y-46840714D01*
X146817857Y-46783571D01*
X146875000Y-46669285D01*
X146875000Y-46326428D01*
X146817857Y-46212142D01*
X146760714Y-46155000D01*
X146646428Y-46097857D01*
X146417857Y-46097857D01*
X146303571Y-46155000D01*
X145275000Y-46840714D02*
X145389285Y-46897857D01*
X145617857Y-46897857D01*
X145732142Y-46840714D01*
X145789285Y-46726428D01*
X145789285Y-46269285D01*
X145732142Y-46155000D01*
X145617857Y-46097857D01*
X145389285Y-46097857D01*
X145275000Y-46155000D01*
X145217857Y-46269285D01*
X145217857Y-46383571D01*
X145789285Y-46497857D01*
X143789285Y-46897857D02*
X143789285Y-45697857D01*
X143103571Y-46897857D01*
X143103571Y-45697857D01*
X142017857Y-46897857D02*
X142017857Y-46269285D01*
X142075000Y-46155000D01*
X142189285Y-46097857D01*
X142417857Y-46097857D01*
X142532142Y-46155000D01*
X142017857Y-46840714D02*
X142132142Y-46897857D01*
X142417857Y-46897857D01*
X142532142Y-46840714D01*
X142589285Y-46726428D01*
X142589285Y-46612142D01*
X142532142Y-46497857D01*
X142417857Y-46440714D01*
X142132142Y-46440714D01*
X142017857Y-46383571D01*
X141446428Y-46897857D02*
X141446428Y-46097857D01*
X141446428Y-45697857D02*
X141503571Y-45755000D01*
X141446428Y-45812142D01*
X141389285Y-45755000D01*
X141446428Y-45697857D01*
X141446428Y-45812142D01*
X140360714Y-46897857D02*
X140360714Y-45697857D01*
X140360714Y-46840714D02*
X140475000Y-46897857D01*
X140703571Y-46897857D01*
X140817857Y-46840714D01*
X140875000Y-46783571D01*
X140932142Y-46669285D01*
X140932142Y-46326428D01*
X140875000Y-46212142D01*
X140817857Y-46155000D01*
X140703571Y-46097857D01*
X140475000Y-46097857D01*
X140360714Y-46155000D01*
X139332142Y-46840714D02*
X139446428Y-46897857D01*
X139675000Y-46897857D01*
X139789285Y-46840714D01*
X139846428Y-46726428D01*
X139846428Y-46269285D01*
X139789285Y-46155000D01*
X139675000Y-46097857D01*
X139446428Y-46097857D01*
X139332142Y-46155000D01*
X139275000Y-46269285D01*
X139275000Y-46383571D01*
X139846428Y-46497857D01*
X138760714Y-46783571D02*
X138703571Y-46840714D01*
X138760714Y-46897857D01*
X138817857Y-46840714D01*
X138760714Y-46783571D01*
X138760714Y-46897857D01*
X138189285Y-46783571D02*
X138132142Y-46840714D01*
X138189285Y-46897857D01*
X138246428Y-46840714D01*
X138189285Y-46783571D01*
X138189285Y-46897857D01*
X137617857Y-46783571D02*
X137560714Y-46840714D01*
X137617857Y-46897857D01*
X137675000Y-46840714D01*
X137617857Y-46783571D01*
X137617857Y-46897857D01*
X137046428Y-46783571D02*
X136989285Y-46840714D01*
X137046428Y-46897857D01*
X137103571Y-46840714D01*
X137046428Y-46783571D01*
X137046428Y-46897857D01*
X137046428Y-46440714D02*
X137103571Y-45755000D01*
X137046428Y-45697857D01*
X136989285Y-45755000D01*
X137046428Y-46440714D01*
X137046428Y-45697857D01*
X136475000Y-46783571D02*
X136417857Y-46840714D01*
X136475000Y-46897857D01*
X136532142Y-46840714D01*
X136475000Y-46783571D01*
X136475000Y-46897857D01*
X136475000Y-46440714D02*
X136532142Y-45755000D01*
X136475000Y-45697857D01*
X136417857Y-45755000D01*
X136475000Y-46440714D01*
X136475000Y-45697857D01*
X126415000Y-46897857D02*
X126415000Y-45697857D01*
X126015000Y-46555000D01*
X125615000Y-45697857D01*
X125615000Y-46897857D01*
X124872142Y-46897857D02*
X124986428Y-46840714D01*
X125043571Y-46783571D01*
X125100714Y-46669285D01*
X125100714Y-46326428D01*
X125043571Y-46212142D01*
X124986428Y-46155000D01*
X124872142Y-46097857D01*
X124700714Y-46097857D01*
X124586428Y-46155000D01*
X124529285Y-46212142D01*
X124472142Y-46326428D01*
X124472142Y-46669285D01*
X124529285Y-46783571D01*
X124586428Y-46840714D01*
X124700714Y-46897857D01*
X124872142Y-46897857D01*
X123443571Y-46097857D02*
X123443571Y-47069285D01*
X123500714Y-47183571D01*
X123557857Y-47240714D01*
X123672142Y-47297857D01*
X123843571Y-47297857D01*
X123957857Y-47240714D01*
X123443571Y-46840714D02*
X123557857Y-46897857D01*
X123786428Y-46897857D01*
X123900714Y-46840714D01*
X123957857Y-46783571D01*
X124015000Y-46669285D01*
X124015000Y-46326428D01*
X123957857Y-46212142D01*
X123900714Y-46155000D01*
X123786428Y-46097857D01*
X123557857Y-46097857D01*
X123443571Y-46155000D01*
X122415000Y-46840714D02*
X122529285Y-46897857D01*
X122757857Y-46897857D01*
X122872142Y-46840714D01*
X122929285Y-46726428D01*
X122929285Y-46269285D01*
X122872142Y-46155000D01*
X122757857Y-46097857D01*
X122529285Y-46097857D01*
X122415000Y-46155000D01*
X122357857Y-46269285D01*
X122357857Y-46383571D01*
X122929285Y-46497857D01*
X120929285Y-46897857D02*
X120929285Y-45697857D01*
X120243571Y-46897857D01*
X120243571Y-45697857D01*
X119157857Y-46897857D02*
X119157857Y-46269285D01*
X119215000Y-46155000D01*
X119329285Y-46097857D01*
X119557857Y-46097857D01*
X119672142Y-46155000D01*
X119157857Y-46840714D02*
X119272142Y-46897857D01*
X119557857Y-46897857D01*
X119672142Y-46840714D01*
X119729285Y-46726428D01*
X119729285Y-46612142D01*
X119672142Y-46497857D01*
X119557857Y-46440714D01*
X119272142Y-46440714D01*
X119157857Y-46383571D01*
X118586428Y-46897857D02*
X118586428Y-46097857D01*
X118586428Y-45697857D02*
X118643571Y-45755000D01*
X118586428Y-45812142D01*
X118529285Y-45755000D01*
X118586428Y-45697857D01*
X118586428Y-45812142D01*
X117500714Y-46897857D02*
X117500714Y-45697857D01*
X117500714Y-46840714D02*
X117615000Y-46897857D01*
X117843571Y-46897857D01*
X117957857Y-46840714D01*
X118015000Y-46783571D01*
X118072142Y-46669285D01*
X118072142Y-46326428D01*
X118015000Y-46212142D01*
X117957857Y-46155000D01*
X117843571Y-46097857D01*
X117615000Y-46097857D01*
X117500714Y-46155000D01*
X116472142Y-46840714D02*
X116586428Y-46897857D01*
X116815000Y-46897857D01*
X116929285Y-46840714D01*
X116986428Y-46726428D01*
X116986428Y-46269285D01*
X116929285Y-46155000D01*
X116815000Y-46097857D01*
X116586428Y-46097857D01*
X116472142Y-46155000D01*
X116415000Y-46269285D01*
X116415000Y-46383571D01*
X116986428Y-46497857D01*
X115900714Y-46783571D02*
X115843571Y-46840714D01*
X115900714Y-46897857D01*
X115957857Y-46840714D01*
X115900714Y-46783571D01*
X115900714Y-46897857D01*
X115329285Y-46783571D02*
X115272142Y-46840714D01*
X115329285Y-46897857D01*
X115386428Y-46840714D01*
X115329285Y-46783571D01*
X115329285Y-46897857D01*
X114757857Y-46783571D02*
X114700714Y-46840714D01*
X114757857Y-46897857D01*
X114815000Y-46840714D01*
X114757857Y-46783571D01*
X114757857Y-46897857D01*
X114186428Y-46783571D02*
X114129285Y-46840714D01*
X114186428Y-46897857D01*
X114243571Y-46840714D01*
X114186428Y-46783571D01*
X114186428Y-46897857D01*
X114186428Y-46440714D02*
X114243571Y-45755000D01*
X114186428Y-45697857D01*
X114129285Y-45755000D01*
X114186428Y-46440714D01*
X114186428Y-45697857D01*
X113615000Y-46783571D02*
X113557857Y-46840714D01*
X113615000Y-46897857D01*
X113672142Y-46840714D01*
X113615000Y-46783571D01*
X113615000Y-46897857D01*
X113615000Y-46440714D02*
X113672142Y-45755000D01*
X113615000Y-45697857D01*
X113557857Y-45755000D01*
X113615000Y-46440714D01*
X113615000Y-45697857D01*
X103555000Y-46897857D02*
X103555000Y-45697857D01*
X103155000Y-46555000D01*
X102755000Y-45697857D01*
X102755000Y-46897857D01*
X102012142Y-46897857D02*
X102126428Y-46840714D01*
X102183571Y-46783571D01*
X102240714Y-46669285D01*
X102240714Y-46326428D01*
X102183571Y-46212142D01*
X102126428Y-46155000D01*
X102012142Y-46097857D01*
X101840714Y-46097857D01*
X101726428Y-46155000D01*
X101669285Y-46212142D01*
X101612142Y-46326428D01*
X101612142Y-46669285D01*
X101669285Y-46783571D01*
X101726428Y-46840714D01*
X101840714Y-46897857D01*
X102012142Y-46897857D01*
X100583571Y-46097857D02*
X100583571Y-47069285D01*
X100640714Y-47183571D01*
X100697857Y-47240714D01*
X100812142Y-47297857D01*
X100983571Y-47297857D01*
X101097857Y-47240714D01*
X100583571Y-46840714D02*
X100697857Y-46897857D01*
X100926428Y-46897857D01*
X101040714Y-46840714D01*
X101097857Y-46783571D01*
X101155000Y-46669285D01*
X101155000Y-46326428D01*
X101097857Y-46212142D01*
X101040714Y-46155000D01*
X100926428Y-46097857D01*
X100697857Y-46097857D01*
X100583571Y-46155000D01*
X99555000Y-46840714D02*
X99669285Y-46897857D01*
X99897857Y-46897857D01*
X100012142Y-46840714D01*
X100069285Y-46726428D01*
X100069285Y-46269285D01*
X100012142Y-46155000D01*
X99897857Y-46097857D01*
X99669285Y-46097857D01*
X99555000Y-46155000D01*
X99497857Y-46269285D01*
X99497857Y-46383571D01*
X100069285Y-46497857D01*
X98069285Y-46897857D02*
X98069285Y-45697857D01*
X97383571Y-46897857D01*
X97383571Y-45697857D01*
X96297857Y-46897857D02*
X96297857Y-46269285D01*
X96355000Y-46155000D01*
X96469285Y-46097857D01*
X96697857Y-46097857D01*
X96812142Y-46155000D01*
X96297857Y-46840714D02*
X96412142Y-46897857D01*
X96697857Y-46897857D01*
X96812142Y-46840714D01*
X96869285Y-46726428D01*
X96869285Y-46612142D01*
X96812142Y-46497857D01*
X96697857Y-46440714D01*
X96412142Y-46440714D01*
X96297857Y-46383571D01*
X95726428Y-46897857D02*
X95726428Y-46097857D01*
X95726428Y-45697857D02*
X95783571Y-45755000D01*
X95726428Y-45812142D01*
X95669285Y-45755000D01*
X95726428Y-45697857D01*
X95726428Y-45812142D01*
X94640714Y-46897857D02*
X94640714Y-45697857D01*
X94640714Y-46840714D02*
X94755000Y-46897857D01*
X94983571Y-46897857D01*
X95097857Y-46840714D01*
X95155000Y-46783571D01*
X95212142Y-46669285D01*
X95212142Y-46326428D01*
X95155000Y-46212142D01*
X95097857Y-46155000D01*
X94983571Y-46097857D01*
X94755000Y-46097857D01*
X94640714Y-46155000D01*
X93612142Y-46840714D02*
X93726428Y-46897857D01*
X93955000Y-46897857D01*
X94069285Y-46840714D01*
X94126428Y-46726428D01*
X94126428Y-46269285D01*
X94069285Y-46155000D01*
X93955000Y-46097857D01*
X93726428Y-46097857D01*
X93612142Y-46155000D01*
X93555000Y-46269285D01*
X93555000Y-46383571D01*
X94126428Y-46497857D01*
X93040714Y-46783571D02*
X92983571Y-46840714D01*
X93040714Y-46897857D01*
X93097857Y-46840714D01*
X93040714Y-46783571D01*
X93040714Y-46897857D01*
X92469285Y-46783571D02*
X92412142Y-46840714D01*
X92469285Y-46897857D01*
X92526428Y-46840714D01*
X92469285Y-46783571D01*
X92469285Y-46897857D01*
X91897857Y-46783571D02*
X91840714Y-46840714D01*
X91897857Y-46897857D01*
X91955000Y-46840714D01*
X91897857Y-46783571D01*
X91897857Y-46897857D01*
X91326428Y-46783571D02*
X91269285Y-46840714D01*
X91326428Y-46897857D01*
X91383571Y-46840714D01*
X91326428Y-46783571D01*
X91326428Y-46897857D01*
X91326428Y-46440714D02*
X91383571Y-45755000D01*
X91326428Y-45697857D01*
X91269285Y-45755000D01*
X91326428Y-46440714D01*
X91326428Y-45697857D01*
X90755000Y-46783571D02*
X90697857Y-46840714D01*
X90755000Y-46897857D01*
X90812142Y-46840714D01*
X90755000Y-46783571D01*
X90755000Y-46897857D01*
X90755000Y-46440714D02*
X90812142Y-45755000D01*
X90755000Y-45697857D01*
X90697857Y-45755000D01*
X90755000Y-46440714D01*
X90755000Y-45697857D01*
D10*
X98316904Y-84816904D02*
X98583571Y-84435952D01*
X98774047Y-84816904D02*
X98774047Y-84016904D01*
X98469285Y-84016904D01*
X98393095Y-84055000D01*
X98355000Y-84093095D01*
X98316904Y-84169285D01*
X98316904Y-84283571D01*
X98355000Y-84359761D01*
X98393095Y-84397857D01*
X98469285Y-84435952D01*
X98774047Y-84435952D01*
X97974047Y-84397857D02*
X97707380Y-84397857D01*
X97593095Y-84816904D02*
X97974047Y-84816904D01*
X97974047Y-84016904D01*
X97593095Y-84016904D01*
X97288333Y-84778809D02*
X97174047Y-84816904D01*
X96983571Y-84816904D01*
X96907380Y-84778809D01*
X96869285Y-84740714D01*
X96831190Y-84664523D01*
X96831190Y-84588333D01*
X96869285Y-84512142D01*
X96907380Y-84474047D01*
X96983571Y-84435952D01*
X97135952Y-84397857D01*
X97212142Y-84359761D01*
X97250238Y-84321666D01*
X97288333Y-84245476D01*
X97288333Y-84169285D01*
X97250238Y-84093095D01*
X97212142Y-84055000D01*
X97135952Y-84016904D01*
X96945476Y-84016904D01*
X96831190Y-84055000D01*
X96488333Y-84397857D02*
X96221666Y-84397857D01*
X96107380Y-84816904D02*
X96488333Y-84816904D01*
X96488333Y-84016904D01*
X96107380Y-84016904D01*
X95878809Y-84016904D02*
X95421666Y-84016904D01*
X95650238Y-84816904D02*
X95650238Y-84016904D01*
X98316904Y-78936904D02*
X98164523Y-78936904D01*
X98088333Y-78975000D01*
X98012142Y-79051190D01*
X97974047Y-79203571D01*
X97974047Y-79470238D01*
X98012142Y-79622619D01*
X98088333Y-79698809D01*
X98164523Y-79736904D01*
X98316904Y-79736904D01*
X98393095Y-79698809D01*
X98469285Y-79622619D01*
X98507380Y-79470238D01*
X98507380Y-79203571D01*
X98469285Y-79051190D01*
X98393095Y-78975000D01*
X98316904Y-78936904D01*
X97250238Y-79736904D02*
X97631190Y-79736904D01*
X97631190Y-78936904D01*
X96983571Y-79317857D02*
X96716904Y-79317857D01*
X96602619Y-79736904D02*
X96983571Y-79736904D01*
X96983571Y-78936904D01*
X96602619Y-78936904D01*
X96259761Y-79736904D02*
X96259761Y-78936904D01*
X96069285Y-78936904D01*
X95955000Y-78975000D01*
X95878809Y-79051190D01*
X95840714Y-79127380D01*
X95802619Y-79279761D01*
X95802619Y-79394047D01*
X95840714Y-79546428D01*
X95878809Y-79622619D01*
X95955000Y-79698809D01*
X96069285Y-79736904D01*
X96259761Y-79736904D01*
X91566952Y-47696428D02*
X90805047Y-47696428D01*
X91186000Y-48077380D02*
X91186000Y-47315476D01*
X91566952Y-50236428D02*
X90805047Y-50236428D01*
D12*
X91552904Y-53008095D02*
X91776238Y-52689047D01*
X91935761Y-53008095D02*
X91935761Y-52338095D01*
X91680523Y-52338095D01*
X91616714Y-52370000D01*
X91584809Y-52401904D01*
X91552904Y-52465714D01*
X91552904Y-52561428D01*
X91584809Y-52625238D01*
X91616714Y-52657142D01*
X91680523Y-52689047D01*
X91935761Y-52689047D01*
X91297666Y-52976190D02*
X91201952Y-53008095D01*
X91042428Y-53008095D01*
X90978619Y-52976190D01*
X90946714Y-52944285D01*
X90914809Y-52880476D01*
X90914809Y-52816666D01*
X90946714Y-52752857D01*
X90978619Y-52720952D01*
X91042428Y-52689047D01*
X91170047Y-52657142D01*
X91233857Y-52625238D01*
X91265761Y-52593333D01*
X91297666Y-52529523D01*
X91297666Y-52465714D01*
X91265761Y-52401904D01*
X91233857Y-52370000D01*
X91170047Y-52338095D01*
X91010523Y-52338095D01*
X90914809Y-52370000D01*
X90723380Y-52338095D02*
X90340523Y-52338095D01*
X90531952Y-53008095D02*
X90531952Y-52338095D01*
D10*
X91566952Y-55316428D02*
X90805047Y-55316428D01*
X91186000Y-55697380D02*
X91186000Y-54935476D01*
X91900285Y-57951666D02*
X91424095Y-57951666D01*
X91995523Y-58237380D02*
X91662190Y-57237380D01*
X91328857Y-58237380D01*
X91090761Y-57237380D02*
X90471714Y-57237380D01*
X90805047Y-57618333D01*
X90662190Y-57618333D01*
X90566952Y-57665952D01*
X90519333Y-57713571D01*
X90471714Y-57808809D01*
X90471714Y-58046904D01*
X90519333Y-58142142D01*
X90566952Y-58189761D01*
X90662190Y-58237380D01*
X90947904Y-58237380D01*
X91043142Y-58189761D01*
X91090761Y-58142142D01*
X91900285Y-63031666D02*
X91424095Y-63031666D01*
X91995523Y-63317380D02*
X91662190Y-62317380D01*
X91328857Y-63317380D01*
X90471714Y-63317380D02*
X91043142Y-63317380D01*
X90757428Y-63317380D02*
X90757428Y-62317380D01*
X90852666Y-62460238D01*
X90947904Y-62555476D01*
X91043142Y-62603095D01*
X91900285Y-65571666D02*
X91424095Y-65571666D01*
X91995523Y-65857380D02*
X91662190Y-64857380D01*
X91328857Y-65857380D01*
X90805047Y-64857380D02*
X90709809Y-64857380D01*
X90614571Y-64905000D01*
X90566952Y-64952619D01*
X90519333Y-65047857D01*
X90471714Y-65238333D01*
X90471714Y-65476428D01*
X90519333Y-65666904D01*
X90566952Y-65762142D01*
X90614571Y-65809761D01*
X90709809Y-65857380D01*
X90805047Y-65857380D01*
X90900285Y-65809761D01*
X90947904Y-65762142D01*
X90995523Y-65666904D01*
X91043142Y-65476428D01*
X91043142Y-65238333D01*
X90995523Y-65047857D01*
X90947904Y-64952619D01*
X90900285Y-64905000D01*
X90805047Y-64857380D01*
X91376476Y-68397380D02*
X91947904Y-68397380D01*
X91662190Y-68397380D02*
X91662190Y-67397380D01*
X91757428Y-67540238D01*
X91852666Y-67635476D01*
X91947904Y-67683095D01*
X90471714Y-67397380D02*
X90947904Y-67397380D01*
X90995523Y-67873571D01*
X90947904Y-67825952D01*
X90852666Y-67778333D01*
X90614571Y-67778333D01*
X90519333Y-67825952D01*
X90471714Y-67873571D01*
X90424095Y-67968809D01*
X90424095Y-68206904D01*
X90471714Y-68302142D01*
X90519333Y-68349761D01*
X90614571Y-68397380D01*
X90852666Y-68397380D01*
X90947904Y-68349761D01*
X90995523Y-68302142D01*
X91376476Y-70937380D02*
X91947904Y-70937380D01*
X91662190Y-70937380D02*
X91662190Y-69937380D01*
X91757428Y-70080238D01*
X91852666Y-70175476D01*
X91947904Y-70223095D01*
X90519333Y-70270714D02*
X90519333Y-70937380D01*
X90757428Y-69889761D02*
X90995523Y-70604047D01*
X90376476Y-70604047D01*
X91376476Y-73477380D02*
X91947904Y-73477380D01*
X91662190Y-73477380D02*
X91662190Y-72477380D01*
X91757428Y-72620238D01*
X91852666Y-72715476D01*
X91947904Y-72763095D01*
X90519333Y-72477380D02*
X90709809Y-72477380D01*
X90805047Y-72525000D01*
X90852666Y-72572619D01*
X90947904Y-72715476D01*
X90995523Y-72905952D01*
X90995523Y-73286904D01*
X90947904Y-73382142D01*
X90900285Y-73429761D01*
X90805047Y-73477380D01*
X90614571Y-73477380D01*
X90519333Y-73429761D01*
X90471714Y-73382142D01*
X90424095Y-73286904D01*
X90424095Y-73048809D01*
X90471714Y-72953571D01*
X90519333Y-72905952D01*
X90614571Y-72858333D01*
X90805047Y-72858333D01*
X90900285Y-72905952D01*
X90947904Y-72953571D01*
X90995523Y-73048809D01*
X91376476Y-76017380D02*
X91947904Y-76017380D01*
X91662190Y-76017380D02*
X91662190Y-75017380D01*
X91757428Y-75160238D01*
X91852666Y-75255476D01*
X91947904Y-75303095D01*
X90757428Y-75017380D02*
X90662190Y-75017380D01*
X90566952Y-75065000D01*
X90519333Y-75112619D01*
X90471714Y-75207857D01*
X90424095Y-75398333D01*
X90424095Y-75636428D01*
X90471714Y-75826904D01*
X90519333Y-75922142D01*
X90566952Y-75969761D01*
X90662190Y-76017380D01*
X90757428Y-76017380D01*
X90852666Y-75969761D01*
X90900285Y-75922142D01*
X90947904Y-75826904D01*
X90995523Y-75636428D01*
X90995523Y-75398333D01*
X90947904Y-75207857D01*
X90900285Y-75112619D01*
X90852666Y-75065000D01*
X90757428Y-75017380D01*
X103512857Y-50617380D02*
X103512857Y-49617380D01*
X103274761Y-49617380D01*
X103131904Y-49665000D01*
X103036666Y-49760238D01*
X102989047Y-49855476D01*
X102941428Y-50045952D01*
X102941428Y-50188809D01*
X102989047Y-50379285D01*
X103036666Y-50474523D01*
X103131904Y-50569761D01*
X103274761Y-50617380D01*
X103512857Y-50617380D01*
X102655714Y-49617380D02*
X102084285Y-49617380D01*
X102370000Y-50617380D02*
X102370000Y-49617380D01*
X103250952Y-52776428D02*
X102489047Y-52776428D01*
X102631904Y-64857380D02*
X103108095Y-64857380D01*
X103155714Y-65333571D01*
X103108095Y-65285952D01*
X103012857Y-65238333D01*
X102774761Y-65238333D01*
X102679523Y-65285952D01*
X102631904Y-65333571D01*
X102584285Y-65428809D01*
X102584285Y-65666904D01*
X102631904Y-65762142D01*
X102679523Y-65809761D01*
X102774761Y-65857380D01*
X103012857Y-65857380D01*
X103108095Y-65809761D01*
X103155714Y-65762142D01*
D12*
X103667619Y-60596190D02*
X103571904Y-60628095D01*
X103412380Y-60628095D01*
X103348571Y-60596190D01*
X103316666Y-60564285D01*
X103284761Y-60500476D01*
X103284761Y-60436666D01*
X103316666Y-60372857D01*
X103348571Y-60340952D01*
X103412380Y-60309047D01*
X103540000Y-60277142D01*
X103603809Y-60245238D01*
X103635714Y-60213333D01*
X103667619Y-60149523D01*
X103667619Y-60085714D01*
X103635714Y-60021904D01*
X103603809Y-59990000D01*
X103540000Y-59958095D01*
X103380476Y-59958095D01*
X103284761Y-59990000D01*
X102614761Y-60564285D02*
X102646666Y-60596190D01*
X102742380Y-60628095D01*
X102806190Y-60628095D01*
X102901904Y-60596190D01*
X102965714Y-60532380D01*
X102997619Y-60468571D01*
X103029523Y-60340952D01*
X103029523Y-60245238D01*
X102997619Y-60117619D01*
X102965714Y-60053809D01*
X102901904Y-59990000D01*
X102806190Y-59958095D01*
X102742380Y-59958095D01*
X102646666Y-59990000D01*
X102614761Y-60021904D01*
X102008571Y-60628095D02*
X102327619Y-60628095D01*
X102327619Y-59958095D01*
D10*
X102679523Y-62650714D02*
X102679523Y-63317380D01*
X102917619Y-62269761D02*
X103155714Y-62984047D01*
X102536666Y-62984047D01*
X103250952Y-55316428D02*
X102489047Y-55316428D01*
D12*
X103683571Y-58056190D02*
X103587857Y-58088095D01*
X103428333Y-58088095D01*
X103364523Y-58056190D01*
X103332619Y-58024285D01*
X103300714Y-57960476D01*
X103300714Y-57896666D01*
X103332619Y-57832857D01*
X103364523Y-57800952D01*
X103428333Y-57769047D01*
X103555952Y-57737142D01*
X103619761Y-57705238D01*
X103651666Y-57673333D01*
X103683571Y-57609523D01*
X103683571Y-57545714D01*
X103651666Y-57481904D01*
X103619761Y-57450000D01*
X103555952Y-57418095D01*
X103396428Y-57418095D01*
X103300714Y-57450000D01*
X103013571Y-58088095D02*
X103013571Y-57418095D01*
X102854047Y-57418095D01*
X102758333Y-57450000D01*
X102694523Y-57513809D01*
X102662619Y-57577619D01*
X102630714Y-57705238D01*
X102630714Y-57800952D01*
X102662619Y-57928571D01*
X102694523Y-57992380D01*
X102758333Y-58056190D01*
X102854047Y-58088095D01*
X103013571Y-58088095D01*
X102375476Y-57896666D02*
X102056428Y-57896666D01*
X102439285Y-58088095D02*
X102215952Y-57418095D01*
X101992619Y-58088095D01*
D10*
X103203333Y-69937380D02*
X102536666Y-69937380D01*
X102965238Y-70937380D01*
X102679523Y-67397380D02*
X102870000Y-67397380D01*
X102965238Y-67445000D01*
X103012857Y-67492619D01*
X103108095Y-67635476D01*
X103155714Y-67825952D01*
X103155714Y-68206904D01*
X103108095Y-68302142D01*
X103060476Y-68349761D01*
X102965238Y-68397380D01*
X102774761Y-68397380D01*
X102679523Y-68349761D01*
X102631904Y-68302142D01*
X102584285Y-68206904D01*
X102584285Y-67968809D01*
X102631904Y-67873571D01*
X102679523Y-67825952D01*
X102774761Y-67778333D01*
X102965238Y-67778333D01*
X103060476Y-67825952D01*
X103108095Y-67873571D01*
X103155714Y-67968809D01*
X102965238Y-72905952D02*
X103060476Y-72858333D01*
X103108095Y-72810714D01*
X103155714Y-72715476D01*
X103155714Y-72667857D01*
X103108095Y-72572619D01*
X103060476Y-72525000D01*
X102965238Y-72477380D01*
X102774761Y-72477380D01*
X102679523Y-72525000D01*
X102631904Y-72572619D01*
X102584285Y-72667857D01*
X102584285Y-72715476D01*
X102631904Y-72810714D01*
X102679523Y-72858333D01*
X102774761Y-72905952D01*
X102965238Y-72905952D01*
X103060476Y-72953571D01*
X103108095Y-73001190D01*
X103155714Y-73096428D01*
X103155714Y-73286904D01*
X103108095Y-73382142D01*
X103060476Y-73429761D01*
X102965238Y-73477380D01*
X102774761Y-73477380D01*
X102679523Y-73429761D01*
X102631904Y-73382142D01*
X102584285Y-73286904D01*
X102584285Y-73096428D01*
X102631904Y-73001190D01*
X102679523Y-72953571D01*
X102774761Y-72905952D01*
X103060476Y-76144380D02*
X102870000Y-76144380D01*
X102774761Y-76096761D01*
X102727142Y-76049142D01*
X102631904Y-75906285D01*
X102584285Y-75715809D01*
X102584285Y-75334857D01*
X102631904Y-75239619D01*
X102679523Y-75192000D01*
X102774761Y-75144380D01*
X102965238Y-75144380D01*
X103060476Y-75192000D01*
X103108095Y-75239619D01*
X103155714Y-75334857D01*
X103155714Y-75572952D01*
X103108095Y-75668190D01*
X103060476Y-75715809D01*
X102965238Y-75763428D01*
X102774761Y-75763428D01*
X102679523Y-75715809D01*
X102631904Y-75668190D01*
X102584285Y-75572952D01*
D12*
X103300714Y-47928095D02*
X103619761Y-47928095D01*
X103619761Y-47258095D01*
X103077380Y-47577142D02*
X102854047Y-47577142D01*
X102758333Y-47928095D02*
X103077380Y-47928095D01*
X103077380Y-47258095D01*
X102758333Y-47258095D01*
X102471190Y-47928095D02*
X102471190Y-47258095D01*
X102311666Y-47258095D01*
X102215952Y-47290000D01*
X102152142Y-47353809D01*
X102120238Y-47417619D01*
X102088333Y-47545238D01*
X102088333Y-47640952D01*
X102120238Y-47768571D01*
X102152142Y-47832380D01*
X102215952Y-47896190D01*
X102311666Y-47928095D01*
X102471190Y-47928095D01*
D10*
X91900285Y-60491666D02*
X91424095Y-60491666D01*
X91995523Y-60777380D02*
X91662190Y-59777380D01*
X91328857Y-60777380D01*
X91043142Y-59872619D02*
X90995523Y-59825000D01*
X90900285Y-59777380D01*
X90662190Y-59777380D01*
X90566952Y-59825000D01*
X90519333Y-59872619D01*
X90471714Y-59967857D01*
X90471714Y-60063095D01*
X90519333Y-60205952D01*
X91090761Y-60777380D01*
X90471714Y-60777380D01*
X90627142Y-85810714D02*
X89712857Y-85810714D01*
X90627142Y-83905714D02*
X89712857Y-83905714D01*
X90170000Y-84362857D02*
X90170000Y-83448571D01*
X104597142Y-83905714D02*
X103682857Y-83905714D01*
X104140000Y-84362857D02*
X104140000Y-83448571D01*
X104597142Y-85810714D02*
X103682857Y-85810714D01*
D14*
G04 #@! TO.C,RESET1*
X168810000Y-85955000D02*
X168810000Y-86205000D01*
X168810000Y-86205000D02*
X162810000Y-86205000D01*
X162810000Y-86205000D02*
X162810000Y-85955000D01*
X162810000Y-82955000D02*
X162810000Y-82705000D01*
X162810000Y-82705000D02*
X168810000Y-82705000D01*
X168810000Y-82705000D02*
X168810000Y-82955000D01*
X145950000Y-85955000D02*
X145950000Y-86205000D01*
X145950000Y-86205000D02*
X139950000Y-86205000D01*
X139950000Y-86205000D02*
X139950000Y-85955000D01*
X139950000Y-82955000D02*
X139950000Y-82705000D01*
X139950000Y-82705000D02*
X145950000Y-82705000D01*
X145950000Y-82705000D02*
X145950000Y-82955000D01*
X123090000Y-85955000D02*
X123090000Y-86205000D01*
X123090000Y-86205000D02*
X117090000Y-86205000D01*
X117090000Y-86205000D02*
X117090000Y-85955000D01*
X117090000Y-82955000D02*
X117090000Y-82705000D01*
X117090000Y-82705000D02*
X123090000Y-82705000D01*
X123090000Y-82705000D02*
X123090000Y-82955000D01*
G04 #@! TO.C,OLED*
X160655000Y-79375000D02*
X170815000Y-79375000D01*
X170815000Y-79375000D02*
X170815000Y-81915000D01*
X170815000Y-81915000D02*
X160655000Y-81915000D01*
X160655000Y-81915000D02*
X160655000Y-79375000D01*
X137795000Y-79375000D02*
X147955000Y-79375000D01*
X147955000Y-79375000D02*
X147955000Y-81915000D01*
X147955000Y-81915000D02*
X137795000Y-81915000D01*
X137795000Y-81915000D02*
X137795000Y-79375000D01*
X114935000Y-79375000D02*
X125095000Y-79375000D01*
X125095000Y-79375000D02*
X125095000Y-81915000D01*
X125095000Y-81915000D02*
X114935000Y-81915000D01*
X114935000Y-81915000D02*
X114935000Y-79375000D01*
G04 #@! TO.C,RESET1*
X100230000Y-82705000D02*
X100230000Y-82955000D01*
X94230000Y-82705000D02*
X100230000Y-82705000D01*
X94230000Y-82955000D02*
X94230000Y-82705000D01*
X94230000Y-86205000D02*
X94230000Y-85955000D01*
X100230000Y-86205000D02*
X94230000Y-86205000D01*
X100230000Y-85955000D02*
X100230000Y-86205000D01*
G04 #@! TO.C,OLED*
X92075000Y-81915000D02*
X92075000Y-79375000D01*
X102235000Y-81915000D02*
X92075000Y-81915000D01*
X102235000Y-79375000D02*
X102235000Y-81915000D01*
X92075000Y-79375000D02*
X102235000Y-79375000D01*
G04 #@! TO.C,DATA*
X173135000Y-91121666D02*
X173135000Y-90421666D01*
X172968333Y-90421666D01*
X172868333Y-90455000D01*
X172801666Y-90521666D01*
X172768333Y-90588333D01*
X172735000Y-90721666D01*
X172735000Y-90821666D01*
X172768333Y-90955000D01*
X172801666Y-91021666D01*
X172868333Y-91088333D01*
X172968333Y-91121666D01*
X173135000Y-91121666D01*
X172468333Y-90921666D02*
X172135000Y-90921666D01*
X172535000Y-91121666D02*
X172301666Y-90421666D01*
X172068333Y-91121666D01*
X171935000Y-90421666D02*
X171535000Y-90421666D01*
X171735000Y-91121666D02*
X171735000Y-90421666D01*
X171335000Y-90921666D02*
X171001666Y-90921666D01*
X171401666Y-91121666D02*
X171168333Y-90421666D01*
X170935000Y-91121666D01*
X150275000Y-91121666D02*
X150275000Y-90421666D01*
X150108333Y-90421666D01*
X150008333Y-90455000D01*
X149941666Y-90521666D01*
X149908333Y-90588333D01*
X149875000Y-90721666D01*
X149875000Y-90821666D01*
X149908333Y-90955000D01*
X149941666Y-91021666D01*
X150008333Y-91088333D01*
X150108333Y-91121666D01*
X150275000Y-91121666D01*
X149608333Y-90921666D02*
X149275000Y-90921666D01*
X149675000Y-91121666D02*
X149441666Y-90421666D01*
X149208333Y-91121666D01*
X149075000Y-90421666D02*
X148675000Y-90421666D01*
X148875000Y-91121666D02*
X148875000Y-90421666D01*
X148475000Y-90921666D02*
X148141666Y-90921666D01*
X148541666Y-91121666D02*
X148308333Y-90421666D01*
X148075000Y-91121666D01*
X127415000Y-91121666D02*
X127415000Y-90421666D01*
X127248333Y-90421666D01*
X127148333Y-90455000D01*
X127081666Y-90521666D01*
X127048333Y-90588333D01*
X127015000Y-90721666D01*
X127015000Y-90821666D01*
X127048333Y-90955000D01*
X127081666Y-91021666D01*
X127148333Y-91088333D01*
X127248333Y-91121666D01*
X127415000Y-91121666D01*
X126748333Y-90921666D02*
X126415000Y-90921666D01*
X126815000Y-91121666D02*
X126581666Y-90421666D01*
X126348333Y-91121666D01*
X126215000Y-90421666D02*
X125815000Y-90421666D01*
X126015000Y-91121666D02*
X126015000Y-90421666D01*
X125615000Y-90921666D02*
X125281666Y-90921666D01*
X125681666Y-91121666D02*
X125448333Y-90421666D01*
X125215000Y-91121666D01*
G04 #@! TO.C,A*
X169711666Y-90286666D02*
X169378333Y-90286666D01*
X169778333Y-90486666D02*
X169545000Y-89786666D01*
X169311666Y-90486666D01*
X146851666Y-90286666D02*
X146518333Y-90286666D01*
X146918333Y-90486666D02*
X146685000Y-89786666D01*
X146451666Y-90486666D01*
X123991666Y-90286666D02*
X123658333Y-90286666D01*
X124058333Y-90486666D02*
X123825000Y-89786666D01*
X123591666Y-90486666D01*
X162091666Y-92191666D02*
X161758333Y-92191666D01*
X162158333Y-92391666D02*
X161925000Y-91691666D01*
X161691666Y-92391666D01*
X139231666Y-92191666D02*
X138898333Y-92191666D01*
X139298333Y-92391666D02*
X139065000Y-91691666D01*
X138831666Y-92391666D01*
X116371666Y-92191666D02*
X116038333Y-92191666D01*
X116438333Y-92391666D02*
X116205000Y-91691666D01*
X115971666Y-92391666D01*
G04 #@! TO.C,DATA*
X160435000Y-91756666D02*
X160435000Y-91056666D01*
X160268333Y-91056666D01*
X160168333Y-91090000D01*
X160101666Y-91156666D01*
X160068333Y-91223333D01*
X160035000Y-91356666D01*
X160035000Y-91456666D01*
X160068333Y-91590000D01*
X160101666Y-91656666D01*
X160168333Y-91723333D01*
X160268333Y-91756666D01*
X160435000Y-91756666D01*
X159768333Y-91556666D02*
X159435000Y-91556666D01*
X159835000Y-91756666D02*
X159601666Y-91056666D01*
X159368333Y-91756666D01*
X159235000Y-91056666D02*
X158835000Y-91056666D01*
X159035000Y-91756666D02*
X159035000Y-91056666D01*
X158635000Y-91556666D02*
X158301666Y-91556666D01*
X158701666Y-91756666D02*
X158468333Y-91056666D01*
X158235000Y-91756666D01*
X137575000Y-91756666D02*
X137575000Y-91056666D01*
X137408333Y-91056666D01*
X137308333Y-91090000D01*
X137241666Y-91156666D01*
X137208333Y-91223333D01*
X137175000Y-91356666D01*
X137175000Y-91456666D01*
X137208333Y-91590000D01*
X137241666Y-91656666D01*
X137308333Y-91723333D01*
X137408333Y-91756666D01*
X137575000Y-91756666D01*
X136908333Y-91556666D02*
X136575000Y-91556666D01*
X136975000Y-91756666D02*
X136741666Y-91056666D01*
X136508333Y-91756666D01*
X136375000Y-91056666D02*
X135975000Y-91056666D01*
X136175000Y-91756666D02*
X136175000Y-91056666D01*
X135775000Y-91556666D02*
X135441666Y-91556666D01*
X135841666Y-91756666D02*
X135608333Y-91056666D01*
X135375000Y-91756666D01*
X114715000Y-91756666D02*
X114715000Y-91056666D01*
X114548333Y-91056666D01*
X114448333Y-91090000D01*
X114381666Y-91156666D01*
X114348333Y-91223333D01*
X114315000Y-91356666D01*
X114315000Y-91456666D01*
X114348333Y-91590000D01*
X114381666Y-91656666D01*
X114448333Y-91723333D01*
X114548333Y-91756666D01*
X114715000Y-91756666D01*
X114048333Y-91556666D02*
X113715000Y-91556666D01*
X114115000Y-91756666D02*
X113881666Y-91056666D01*
X113648333Y-91756666D01*
X113515000Y-91056666D02*
X113115000Y-91056666D01*
X113315000Y-91756666D02*
X113315000Y-91056666D01*
X112915000Y-91556666D02*
X112581666Y-91556666D01*
X112981666Y-91756666D02*
X112748333Y-91056666D01*
X112515000Y-91756666D01*
X91855000Y-91756666D02*
X91855000Y-91056666D01*
X91688333Y-91056666D01*
X91588333Y-91090000D01*
X91521666Y-91156666D01*
X91488333Y-91223333D01*
X91455000Y-91356666D01*
X91455000Y-91456666D01*
X91488333Y-91590000D01*
X91521666Y-91656666D01*
X91588333Y-91723333D01*
X91688333Y-91756666D01*
X91855000Y-91756666D01*
X91188333Y-91556666D02*
X90855000Y-91556666D01*
X91255000Y-91756666D02*
X91021666Y-91056666D01*
X90788333Y-91756666D01*
X90655000Y-91056666D02*
X90255000Y-91056666D01*
X90455000Y-91756666D02*
X90455000Y-91056666D01*
X90055000Y-91556666D02*
X89721666Y-91556666D01*
X90121666Y-91756666D02*
X89888333Y-91056666D01*
X89655000Y-91756666D01*
G04 #@! TO.C,A*
X93511666Y-92191666D02*
X93178333Y-92191666D01*
X93578333Y-92391666D02*
X93345000Y-91691666D01*
X93111666Y-92391666D01*
X101131666Y-90286666D02*
X100798333Y-90286666D01*
X101198333Y-90486666D02*
X100965000Y-89786666D01*
X100731666Y-90486666D01*
G04 #@! TO.C,DATA*
X104555000Y-91121666D02*
X104555000Y-90421666D01*
X104388333Y-90421666D01*
X104288333Y-90455000D01*
X104221666Y-90521666D01*
X104188333Y-90588333D01*
X104155000Y-90721666D01*
X104155000Y-90821666D01*
X104188333Y-90955000D01*
X104221666Y-91021666D01*
X104288333Y-91088333D01*
X104388333Y-91121666D01*
X104555000Y-91121666D01*
X103888333Y-90921666D02*
X103555000Y-90921666D01*
X103955000Y-91121666D02*
X103721666Y-90421666D01*
X103488333Y-91121666D01*
X103355000Y-90421666D02*
X102955000Y-90421666D01*
X103155000Y-91121666D02*
X103155000Y-90421666D01*
X102755000Y-90921666D02*
X102421666Y-90921666D01*
X102821666Y-91121666D02*
X102588333Y-90421666D01*
X102355000Y-91121666D01*
G04 #@! TD*
M02*
