G04 #@! TF.GenerationSoftware,KiCad,Pcbnew,5.0.2-bee76a0~70~ubuntu18.04.1*
G04 #@! TF.CreationDate,2019-11-06T22:06:29+09:00*
G04 #@! TF.ProjectId,promicro-home_panel,70726f6d-6963-4726-9f2d-686f6d655f70,1*
G04 #@! TF.SameCoordinates,Original*
G04 #@! TF.FileFunction,Legend,Top*
G04 #@! TF.FilePolarity,Positive*
%FSLAX46Y46*%
G04 Gerber Fmt 4.6, Leading zero omitted, Abs format (unit mm)*
G04 Created by KiCad (PCBNEW 5.0.2-bee76a0~70~ubuntu18.04.1) date 2019年11月06日 22時06分29秒*
%MOMM*%
%LPD*%
G01*
G04 APERTURE LIST*
%ADD10C,0.187500*%
%ADD11C,0.200000*%
%ADD12C,0.150000*%
G04 APERTURE END LIST*
D10*
X159335000Y-46897857D02*
X159335000Y-45697857D01*
X159735000Y-46555000D01*
X160135000Y-45697857D01*
X160135000Y-46897857D01*
X160877857Y-46897857D02*
X160763571Y-46840714D01*
X160706428Y-46783571D01*
X160649285Y-46669285D01*
X160649285Y-46326428D01*
X160706428Y-46212142D01*
X160763571Y-46155000D01*
X160877857Y-46097857D01*
X161049285Y-46097857D01*
X161163571Y-46155000D01*
X161220714Y-46212142D01*
X161277857Y-46326428D01*
X161277857Y-46669285D01*
X161220714Y-46783571D01*
X161163571Y-46840714D01*
X161049285Y-46897857D01*
X160877857Y-46897857D01*
X162306428Y-46097857D02*
X162306428Y-47069285D01*
X162249285Y-47183571D01*
X162192142Y-47240714D01*
X162077857Y-47297857D01*
X161906428Y-47297857D01*
X161792142Y-47240714D01*
X162306428Y-46840714D02*
X162192142Y-46897857D01*
X161963571Y-46897857D01*
X161849285Y-46840714D01*
X161792142Y-46783571D01*
X161735000Y-46669285D01*
X161735000Y-46326428D01*
X161792142Y-46212142D01*
X161849285Y-46155000D01*
X161963571Y-46097857D01*
X162192142Y-46097857D01*
X162306428Y-46155000D01*
X163335000Y-46840714D02*
X163220714Y-46897857D01*
X162992142Y-46897857D01*
X162877857Y-46840714D01*
X162820714Y-46726428D01*
X162820714Y-46269285D01*
X162877857Y-46155000D01*
X162992142Y-46097857D01*
X163220714Y-46097857D01*
X163335000Y-46155000D01*
X163392142Y-46269285D01*
X163392142Y-46383571D01*
X162820714Y-46497857D01*
X164820714Y-46897857D02*
X164820714Y-45697857D01*
X165506428Y-46897857D01*
X165506428Y-45697857D01*
X166592142Y-46897857D02*
X166592142Y-46269285D01*
X166535000Y-46155000D01*
X166420714Y-46097857D01*
X166192142Y-46097857D01*
X166077857Y-46155000D01*
X166592142Y-46840714D02*
X166477857Y-46897857D01*
X166192142Y-46897857D01*
X166077857Y-46840714D01*
X166020714Y-46726428D01*
X166020714Y-46612142D01*
X166077857Y-46497857D01*
X166192142Y-46440714D01*
X166477857Y-46440714D01*
X166592142Y-46383571D01*
X167163571Y-46897857D02*
X167163571Y-46097857D01*
X167163571Y-45697857D02*
X167106428Y-45755000D01*
X167163571Y-45812142D01*
X167220714Y-45755000D01*
X167163571Y-45697857D01*
X167163571Y-45812142D01*
X168249285Y-46897857D02*
X168249285Y-45697857D01*
X168249285Y-46840714D02*
X168135000Y-46897857D01*
X167906428Y-46897857D01*
X167792142Y-46840714D01*
X167735000Y-46783571D01*
X167677857Y-46669285D01*
X167677857Y-46326428D01*
X167735000Y-46212142D01*
X167792142Y-46155000D01*
X167906428Y-46097857D01*
X168135000Y-46097857D01*
X168249285Y-46155000D01*
X169277857Y-46840714D02*
X169163571Y-46897857D01*
X168935000Y-46897857D01*
X168820714Y-46840714D01*
X168763571Y-46726428D01*
X168763571Y-46269285D01*
X168820714Y-46155000D01*
X168935000Y-46097857D01*
X169163571Y-46097857D01*
X169277857Y-46155000D01*
X169335000Y-46269285D01*
X169335000Y-46383571D01*
X168763571Y-46497857D01*
X169849285Y-46783571D02*
X169906428Y-46840714D01*
X169849285Y-46897857D01*
X169792142Y-46840714D01*
X169849285Y-46783571D01*
X169849285Y-46897857D01*
X170420714Y-46783571D02*
X170477857Y-46840714D01*
X170420714Y-46897857D01*
X170363571Y-46840714D01*
X170420714Y-46783571D01*
X170420714Y-46897857D01*
X170992142Y-46783571D02*
X171049285Y-46840714D01*
X170992142Y-46897857D01*
X170935000Y-46840714D01*
X170992142Y-46783571D01*
X170992142Y-46897857D01*
X171563571Y-46783571D02*
X171620714Y-46840714D01*
X171563571Y-46897857D01*
X171506428Y-46840714D01*
X171563571Y-46783571D01*
X171563571Y-46897857D01*
X171563571Y-46440714D02*
X171506428Y-45755000D01*
X171563571Y-45697857D01*
X171620714Y-45755000D01*
X171563571Y-46440714D01*
X171563571Y-45697857D01*
X172135000Y-46783571D02*
X172192142Y-46840714D01*
X172135000Y-46897857D01*
X172077857Y-46840714D01*
X172135000Y-46783571D01*
X172135000Y-46897857D01*
X172135000Y-46440714D02*
X172077857Y-45755000D01*
X172135000Y-45697857D01*
X172192142Y-45755000D01*
X172135000Y-46440714D01*
X172135000Y-45697857D01*
X136475000Y-46897857D02*
X136475000Y-45697857D01*
X136875000Y-46555000D01*
X137275000Y-45697857D01*
X137275000Y-46897857D01*
X138017857Y-46897857D02*
X137903571Y-46840714D01*
X137846428Y-46783571D01*
X137789285Y-46669285D01*
X137789285Y-46326428D01*
X137846428Y-46212142D01*
X137903571Y-46155000D01*
X138017857Y-46097857D01*
X138189285Y-46097857D01*
X138303571Y-46155000D01*
X138360714Y-46212142D01*
X138417857Y-46326428D01*
X138417857Y-46669285D01*
X138360714Y-46783571D01*
X138303571Y-46840714D01*
X138189285Y-46897857D01*
X138017857Y-46897857D01*
X139446428Y-46097857D02*
X139446428Y-47069285D01*
X139389285Y-47183571D01*
X139332142Y-47240714D01*
X139217857Y-47297857D01*
X139046428Y-47297857D01*
X138932142Y-47240714D01*
X139446428Y-46840714D02*
X139332142Y-46897857D01*
X139103571Y-46897857D01*
X138989285Y-46840714D01*
X138932142Y-46783571D01*
X138875000Y-46669285D01*
X138875000Y-46326428D01*
X138932142Y-46212142D01*
X138989285Y-46155000D01*
X139103571Y-46097857D01*
X139332142Y-46097857D01*
X139446428Y-46155000D01*
X140475000Y-46840714D02*
X140360714Y-46897857D01*
X140132142Y-46897857D01*
X140017857Y-46840714D01*
X139960714Y-46726428D01*
X139960714Y-46269285D01*
X140017857Y-46155000D01*
X140132142Y-46097857D01*
X140360714Y-46097857D01*
X140475000Y-46155000D01*
X140532142Y-46269285D01*
X140532142Y-46383571D01*
X139960714Y-46497857D01*
X141960714Y-46897857D02*
X141960714Y-45697857D01*
X142646428Y-46897857D01*
X142646428Y-45697857D01*
X143732142Y-46897857D02*
X143732142Y-46269285D01*
X143675000Y-46155000D01*
X143560714Y-46097857D01*
X143332142Y-46097857D01*
X143217857Y-46155000D01*
X143732142Y-46840714D02*
X143617857Y-46897857D01*
X143332142Y-46897857D01*
X143217857Y-46840714D01*
X143160714Y-46726428D01*
X143160714Y-46612142D01*
X143217857Y-46497857D01*
X143332142Y-46440714D01*
X143617857Y-46440714D01*
X143732142Y-46383571D01*
X144303571Y-46897857D02*
X144303571Y-46097857D01*
X144303571Y-45697857D02*
X144246428Y-45755000D01*
X144303571Y-45812142D01*
X144360714Y-45755000D01*
X144303571Y-45697857D01*
X144303571Y-45812142D01*
X145389285Y-46897857D02*
X145389285Y-45697857D01*
X145389285Y-46840714D02*
X145275000Y-46897857D01*
X145046428Y-46897857D01*
X144932142Y-46840714D01*
X144875000Y-46783571D01*
X144817857Y-46669285D01*
X144817857Y-46326428D01*
X144875000Y-46212142D01*
X144932142Y-46155000D01*
X145046428Y-46097857D01*
X145275000Y-46097857D01*
X145389285Y-46155000D01*
X146417857Y-46840714D02*
X146303571Y-46897857D01*
X146075000Y-46897857D01*
X145960714Y-46840714D01*
X145903571Y-46726428D01*
X145903571Y-46269285D01*
X145960714Y-46155000D01*
X146075000Y-46097857D01*
X146303571Y-46097857D01*
X146417857Y-46155000D01*
X146475000Y-46269285D01*
X146475000Y-46383571D01*
X145903571Y-46497857D01*
X146989285Y-46783571D02*
X147046428Y-46840714D01*
X146989285Y-46897857D01*
X146932142Y-46840714D01*
X146989285Y-46783571D01*
X146989285Y-46897857D01*
X147560714Y-46783571D02*
X147617857Y-46840714D01*
X147560714Y-46897857D01*
X147503571Y-46840714D01*
X147560714Y-46783571D01*
X147560714Y-46897857D01*
X148132142Y-46783571D02*
X148189285Y-46840714D01*
X148132142Y-46897857D01*
X148075000Y-46840714D01*
X148132142Y-46783571D01*
X148132142Y-46897857D01*
X148703571Y-46783571D02*
X148760714Y-46840714D01*
X148703571Y-46897857D01*
X148646428Y-46840714D01*
X148703571Y-46783571D01*
X148703571Y-46897857D01*
X148703571Y-46440714D02*
X148646428Y-45755000D01*
X148703571Y-45697857D01*
X148760714Y-45755000D01*
X148703571Y-46440714D01*
X148703571Y-45697857D01*
X149275000Y-46783571D02*
X149332142Y-46840714D01*
X149275000Y-46897857D01*
X149217857Y-46840714D01*
X149275000Y-46783571D01*
X149275000Y-46897857D01*
X149275000Y-46440714D02*
X149217857Y-45755000D01*
X149275000Y-45697857D01*
X149332142Y-45755000D01*
X149275000Y-46440714D01*
X149275000Y-45697857D01*
X113615000Y-46897857D02*
X113615000Y-45697857D01*
X114015000Y-46555000D01*
X114415000Y-45697857D01*
X114415000Y-46897857D01*
X115157857Y-46897857D02*
X115043571Y-46840714D01*
X114986428Y-46783571D01*
X114929285Y-46669285D01*
X114929285Y-46326428D01*
X114986428Y-46212142D01*
X115043571Y-46155000D01*
X115157857Y-46097857D01*
X115329285Y-46097857D01*
X115443571Y-46155000D01*
X115500714Y-46212142D01*
X115557857Y-46326428D01*
X115557857Y-46669285D01*
X115500714Y-46783571D01*
X115443571Y-46840714D01*
X115329285Y-46897857D01*
X115157857Y-46897857D01*
X116586428Y-46097857D02*
X116586428Y-47069285D01*
X116529285Y-47183571D01*
X116472142Y-47240714D01*
X116357857Y-47297857D01*
X116186428Y-47297857D01*
X116072142Y-47240714D01*
X116586428Y-46840714D02*
X116472142Y-46897857D01*
X116243571Y-46897857D01*
X116129285Y-46840714D01*
X116072142Y-46783571D01*
X116015000Y-46669285D01*
X116015000Y-46326428D01*
X116072142Y-46212142D01*
X116129285Y-46155000D01*
X116243571Y-46097857D01*
X116472142Y-46097857D01*
X116586428Y-46155000D01*
X117615000Y-46840714D02*
X117500714Y-46897857D01*
X117272142Y-46897857D01*
X117157857Y-46840714D01*
X117100714Y-46726428D01*
X117100714Y-46269285D01*
X117157857Y-46155000D01*
X117272142Y-46097857D01*
X117500714Y-46097857D01*
X117615000Y-46155000D01*
X117672142Y-46269285D01*
X117672142Y-46383571D01*
X117100714Y-46497857D01*
X119100714Y-46897857D02*
X119100714Y-45697857D01*
X119786428Y-46897857D01*
X119786428Y-45697857D01*
X120872142Y-46897857D02*
X120872142Y-46269285D01*
X120815000Y-46155000D01*
X120700714Y-46097857D01*
X120472142Y-46097857D01*
X120357857Y-46155000D01*
X120872142Y-46840714D02*
X120757857Y-46897857D01*
X120472142Y-46897857D01*
X120357857Y-46840714D01*
X120300714Y-46726428D01*
X120300714Y-46612142D01*
X120357857Y-46497857D01*
X120472142Y-46440714D01*
X120757857Y-46440714D01*
X120872142Y-46383571D01*
X121443571Y-46897857D02*
X121443571Y-46097857D01*
X121443571Y-45697857D02*
X121386428Y-45755000D01*
X121443571Y-45812142D01*
X121500714Y-45755000D01*
X121443571Y-45697857D01*
X121443571Y-45812142D01*
X122529285Y-46897857D02*
X122529285Y-45697857D01*
X122529285Y-46840714D02*
X122415000Y-46897857D01*
X122186428Y-46897857D01*
X122072142Y-46840714D01*
X122015000Y-46783571D01*
X121957857Y-46669285D01*
X121957857Y-46326428D01*
X122015000Y-46212142D01*
X122072142Y-46155000D01*
X122186428Y-46097857D01*
X122415000Y-46097857D01*
X122529285Y-46155000D01*
X123557857Y-46840714D02*
X123443571Y-46897857D01*
X123215000Y-46897857D01*
X123100714Y-46840714D01*
X123043571Y-46726428D01*
X123043571Y-46269285D01*
X123100714Y-46155000D01*
X123215000Y-46097857D01*
X123443571Y-46097857D01*
X123557857Y-46155000D01*
X123615000Y-46269285D01*
X123615000Y-46383571D01*
X123043571Y-46497857D01*
X124129285Y-46783571D02*
X124186428Y-46840714D01*
X124129285Y-46897857D01*
X124072142Y-46840714D01*
X124129285Y-46783571D01*
X124129285Y-46897857D01*
X124700714Y-46783571D02*
X124757857Y-46840714D01*
X124700714Y-46897857D01*
X124643571Y-46840714D01*
X124700714Y-46783571D01*
X124700714Y-46897857D01*
X125272142Y-46783571D02*
X125329285Y-46840714D01*
X125272142Y-46897857D01*
X125215000Y-46840714D01*
X125272142Y-46783571D01*
X125272142Y-46897857D01*
X125843571Y-46783571D02*
X125900714Y-46840714D01*
X125843571Y-46897857D01*
X125786428Y-46840714D01*
X125843571Y-46783571D01*
X125843571Y-46897857D01*
X125843571Y-46440714D02*
X125786428Y-45755000D01*
X125843571Y-45697857D01*
X125900714Y-45755000D01*
X125843571Y-46440714D01*
X125843571Y-45697857D01*
X126415000Y-46783571D02*
X126472142Y-46840714D01*
X126415000Y-46897857D01*
X126357857Y-46840714D01*
X126415000Y-46783571D01*
X126415000Y-46897857D01*
X126415000Y-46440714D02*
X126357857Y-45755000D01*
X126415000Y-45697857D01*
X126472142Y-45755000D01*
X126415000Y-46440714D01*
X126415000Y-45697857D01*
D11*
X170815000Y-79375000D02*
X160655000Y-79375000D01*
X147955000Y-79375000D02*
X137795000Y-79375000D01*
X125095000Y-79375000D02*
X114935000Y-79375000D01*
X170815000Y-81915000D02*
X170815000Y-79375000D01*
X147955000Y-81915000D02*
X147955000Y-79375000D01*
X125095000Y-81915000D02*
X125095000Y-79375000D01*
X160655000Y-81915000D02*
X170815000Y-81915000D01*
X137795000Y-81915000D02*
X147955000Y-81915000D01*
X114935000Y-81915000D02*
X125095000Y-81915000D01*
X160655000Y-79375000D02*
X160655000Y-81915000D01*
X137795000Y-79375000D02*
X137795000Y-81915000D01*
X114935000Y-79375000D02*
X114935000Y-81915000D01*
X92075000Y-79375000D02*
X92075000Y-81915000D01*
X92075000Y-81915000D02*
X102235000Y-81915000D01*
X102235000Y-81915000D02*
X102235000Y-79375000D01*
X102235000Y-79375000D02*
X92075000Y-79375000D01*
D10*
X90755000Y-46897857D02*
X90755000Y-45697857D01*
X91155000Y-46555000D01*
X91555000Y-45697857D01*
X91555000Y-46897857D01*
X92297857Y-46897857D02*
X92183571Y-46840714D01*
X92126428Y-46783571D01*
X92069285Y-46669285D01*
X92069285Y-46326428D01*
X92126428Y-46212142D01*
X92183571Y-46155000D01*
X92297857Y-46097857D01*
X92469285Y-46097857D01*
X92583571Y-46155000D01*
X92640714Y-46212142D01*
X92697857Y-46326428D01*
X92697857Y-46669285D01*
X92640714Y-46783571D01*
X92583571Y-46840714D01*
X92469285Y-46897857D01*
X92297857Y-46897857D01*
X93726428Y-46097857D02*
X93726428Y-47069285D01*
X93669285Y-47183571D01*
X93612142Y-47240714D01*
X93497857Y-47297857D01*
X93326428Y-47297857D01*
X93212142Y-47240714D01*
X93726428Y-46840714D02*
X93612142Y-46897857D01*
X93383571Y-46897857D01*
X93269285Y-46840714D01*
X93212142Y-46783571D01*
X93155000Y-46669285D01*
X93155000Y-46326428D01*
X93212142Y-46212142D01*
X93269285Y-46155000D01*
X93383571Y-46097857D01*
X93612142Y-46097857D01*
X93726428Y-46155000D01*
X94755000Y-46840714D02*
X94640714Y-46897857D01*
X94412142Y-46897857D01*
X94297857Y-46840714D01*
X94240714Y-46726428D01*
X94240714Y-46269285D01*
X94297857Y-46155000D01*
X94412142Y-46097857D01*
X94640714Y-46097857D01*
X94755000Y-46155000D01*
X94812142Y-46269285D01*
X94812142Y-46383571D01*
X94240714Y-46497857D01*
X96240714Y-46897857D02*
X96240714Y-45697857D01*
X96926428Y-46897857D01*
X96926428Y-45697857D01*
X98012142Y-46897857D02*
X98012142Y-46269285D01*
X97955000Y-46155000D01*
X97840714Y-46097857D01*
X97612142Y-46097857D01*
X97497857Y-46155000D01*
X98012142Y-46840714D02*
X97897857Y-46897857D01*
X97612142Y-46897857D01*
X97497857Y-46840714D01*
X97440714Y-46726428D01*
X97440714Y-46612142D01*
X97497857Y-46497857D01*
X97612142Y-46440714D01*
X97897857Y-46440714D01*
X98012142Y-46383571D01*
X98583571Y-46897857D02*
X98583571Y-46097857D01*
X98583571Y-45697857D02*
X98526428Y-45755000D01*
X98583571Y-45812142D01*
X98640714Y-45755000D01*
X98583571Y-45697857D01*
X98583571Y-45812142D01*
X99669285Y-46897857D02*
X99669285Y-45697857D01*
X99669285Y-46840714D02*
X99555000Y-46897857D01*
X99326428Y-46897857D01*
X99212142Y-46840714D01*
X99155000Y-46783571D01*
X99097857Y-46669285D01*
X99097857Y-46326428D01*
X99155000Y-46212142D01*
X99212142Y-46155000D01*
X99326428Y-46097857D01*
X99555000Y-46097857D01*
X99669285Y-46155000D01*
X100697857Y-46840714D02*
X100583571Y-46897857D01*
X100355000Y-46897857D01*
X100240714Y-46840714D01*
X100183571Y-46726428D01*
X100183571Y-46269285D01*
X100240714Y-46155000D01*
X100355000Y-46097857D01*
X100583571Y-46097857D01*
X100697857Y-46155000D01*
X100755000Y-46269285D01*
X100755000Y-46383571D01*
X100183571Y-46497857D01*
X101269285Y-46783571D02*
X101326428Y-46840714D01*
X101269285Y-46897857D01*
X101212142Y-46840714D01*
X101269285Y-46783571D01*
X101269285Y-46897857D01*
X101840714Y-46783571D02*
X101897857Y-46840714D01*
X101840714Y-46897857D01*
X101783571Y-46840714D01*
X101840714Y-46783571D01*
X101840714Y-46897857D01*
X102412142Y-46783571D02*
X102469285Y-46840714D01*
X102412142Y-46897857D01*
X102355000Y-46840714D01*
X102412142Y-46783571D01*
X102412142Y-46897857D01*
X102983571Y-46783571D02*
X103040714Y-46840714D01*
X102983571Y-46897857D01*
X102926428Y-46840714D01*
X102983571Y-46783571D01*
X102983571Y-46897857D01*
X102983571Y-46440714D02*
X102926428Y-45755000D01*
X102983571Y-45697857D01*
X103040714Y-45755000D01*
X102983571Y-46440714D01*
X102983571Y-45697857D01*
X103555000Y-46783571D02*
X103612142Y-46840714D01*
X103555000Y-46897857D01*
X103497857Y-46840714D01*
X103555000Y-46783571D01*
X103555000Y-46897857D01*
X103555000Y-46440714D02*
X103497857Y-45755000D01*
X103555000Y-45697857D01*
X103612142Y-45755000D01*
X103555000Y-46440714D01*
X103555000Y-45697857D01*
D12*
G04 #@! TO.C,RESET1*
X162810000Y-86205000D02*
X168810000Y-86205000D01*
X168810000Y-86205000D02*
X168810000Y-85955000D01*
X162810000Y-86205000D02*
X162810000Y-85955000D01*
X162810000Y-82705000D02*
X162810000Y-82955000D01*
X162810000Y-82705000D02*
X168810000Y-82705000D01*
X168810000Y-82705000D02*
X168810000Y-82955000D01*
X139950000Y-86205000D02*
X145950000Y-86205000D01*
X145950000Y-86205000D02*
X145950000Y-85955000D01*
X139950000Y-86205000D02*
X139950000Y-85955000D01*
X139950000Y-82705000D02*
X139950000Y-82955000D01*
X139950000Y-82705000D02*
X145950000Y-82705000D01*
X145950000Y-82705000D02*
X145950000Y-82955000D01*
X117090000Y-86205000D02*
X123090000Y-86205000D01*
X123090000Y-86205000D02*
X123090000Y-85955000D01*
X117090000Y-86205000D02*
X117090000Y-85955000D01*
X117090000Y-82705000D02*
X117090000Y-82955000D01*
X117090000Y-82705000D02*
X123090000Y-82705000D01*
X123090000Y-82705000D02*
X123090000Y-82955000D01*
G04 #@! TO.C,JACK*
X167625000Y-93130000D02*
X155625000Y-93130000D01*
X167625000Y-87130000D02*
X167625000Y-93130000D01*
X155625000Y-87130000D02*
X167625000Y-87130000D01*
X155625000Y-93130000D02*
X155625000Y-87130000D01*
X144765000Y-93130000D02*
X132765000Y-93130000D01*
X144765000Y-87130000D02*
X144765000Y-93130000D01*
X132765000Y-87130000D02*
X144765000Y-87130000D01*
X132765000Y-93130000D02*
X132765000Y-87130000D01*
X121905000Y-93130000D02*
X109905000Y-93130000D01*
X121905000Y-87130000D02*
X121905000Y-93130000D01*
X109905000Y-87130000D02*
X121905000Y-87130000D01*
X109905000Y-93130000D02*
X109905000Y-87130000D01*
X175895000Y-88880000D02*
X175895000Y-94880000D01*
X175895000Y-94880000D02*
X163895000Y-94880000D01*
X163895000Y-94880000D02*
X163895000Y-88880000D01*
X163895000Y-88880000D02*
X175895000Y-88880000D01*
X153035000Y-88880000D02*
X153035000Y-94880000D01*
X153035000Y-94880000D02*
X141035000Y-94880000D01*
X141035000Y-94880000D02*
X141035000Y-88880000D01*
X141035000Y-88880000D02*
X153035000Y-88880000D01*
X130175000Y-88880000D02*
X130175000Y-94880000D01*
X130175000Y-94880000D02*
X118175000Y-94880000D01*
X118175000Y-94880000D02*
X118175000Y-88880000D01*
X118175000Y-88880000D02*
X130175000Y-88880000D01*
G04 #@! TO.C,OLED*
X160655000Y-81915000D02*
X170815000Y-81915000D01*
X160655000Y-79375000D02*
X170815000Y-79375000D01*
X170815000Y-79375000D02*
X170815000Y-81915000D01*
X160655000Y-81915000D02*
X160655000Y-79375000D01*
X137795000Y-81915000D02*
X147955000Y-81915000D01*
X137795000Y-79375000D02*
X147955000Y-79375000D01*
X147955000Y-79375000D02*
X147955000Y-81915000D01*
X137795000Y-81915000D02*
X137795000Y-79375000D01*
X114935000Y-81915000D02*
X125095000Y-81915000D01*
X114935000Y-79375000D02*
X125095000Y-79375000D01*
X125095000Y-79375000D02*
X125095000Y-81915000D01*
X114935000Y-81915000D02*
X114935000Y-79375000D01*
G04 #@! TO.C,U2*
X159385000Y-47625000D02*
X156845000Y-47625000D01*
X156845000Y-47625000D02*
X156845000Y-78105000D01*
X156845000Y-78105000D02*
X159385000Y-78105000D01*
X159385000Y-78105000D02*
X159385000Y-47625000D01*
X174625000Y-47625000D02*
X172085000Y-47625000D01*
X172085000Y-47625000D02*
X172085000Y-78105000D01*
X172085000Y-78105000D02*
X174625000Y-78105000D01*
X174625000Y-78105000D02*
X174625000Y-47625000D01*
X136525000Y-47625000D02*
X133985000Y-47625000D01*
X133985000Y-47625000D02*
X133985000Y-78105000D01*
X133985000Y-78105000D02*
X136525000Y-78105000D01*
X136525000Y-78105000D02*
X136525000Y-47625000D01*
X151765000Y-47625000D02*
X149225000Y-47625000D01*
X149225000Y-47625000D02*
X149225000Y-78105000D01*
X149225000Y-78105000D02*
X151765000Y-78105000D01*
X151765000Y-78105000D02*
X151765000Y-47625000D01*
X113665000Y-47625000D02*
X111125000Y-47625000D01*
X111125000Y-47625000D02*
X111125000Y-78105000D01*
X111125000Y-78105000D02*
X113665000Y-78105000D01*
X113665000Y-78105000D02*
X113665000Y-47625000D01*
X128905000Y-47625000D02*
X126365000Y-47625000D01*
X126365000Y-47625000D02*
X126365000Y-78105000D01*
X126365000Y-78105000D02*
X128905000Y-78105000D01*
X128905000Y-78105000D02*
X128905000Y-47625000D01*
G04 #@! TO.C,JACK*
X95315000Y-88880000D02*
X107315000Y-88880000D01*
X95315000Y-94880000D02*
X95315000Y-88880000D01*
X107315000Y-94880000D02*
X95315000Y-94880000D01*
X107315000Y-88880000D02*
X107315000Y-94880000D01*
X87045000Y-93130000D02*
X87045000Y-87130000D01*
X87045000Y-87130000D02*
X99045000Y-87130000D01*
X99045000Y-87130000D02*
X99045000Y-93130000D01*
X99045000Y-93130000D02*
X87045000Y-93130000D01*
G04 #@! TO.C,RESET1*
X100230000Y-82705000D02*
X100230000Y-82955000D01*
X94230000Y-82705000D02*
X100230000Y-82705000D01*
X94230000Y-82705000D02*
X94230000Y-82955000D01*
X94230000Y-86205000D02*
X94230000Y-85955000D01*
X100230000Y-86205000D02*
X100230000Y-85955000D01*
X94230000Y-86205000D02*
X100230000Y-86205000D01*
G04 #@! TO.C,U2*
X106045000Y-78105000D02*
X106045000Y-47625000D01*
X103505000Y-78105000D02*
X106045000Y-78105000D01*
X103505000Y-47625000D02*
X103505000Y-78105000D01*
X106045000Y-47625000D02*
X103505000Y-47625000D01*
X90805000Y-78105000D02*
X90805000Y-47625000D01*
X88265000Y-78105000D02*
X90805000Y-78105000D01*
X88265000Y-47625000D02*
X88265000Y-78105000D01*
X90805000Y-47625000D02*
X88265000Y-47625000D01*
G04 #@! TO.C,OLED*
X92075000Y-81915000D02*
X92075000Y-79375000D01*
X102235000Y-79375000D02*
X102235000Y-81915000D01*
X92075000Y-79375000D02*
X102235000Y-79375000D01*
X92075000Y-81915000D02*
X102235000Y-81915000D01*
G04 #@! TO.C,RESET1*
X164554504Y-84822695D02*
X164283571Y-84435647D01*
X164090047Y-84822695D02*
X164090047Y-84009895D01*
X164399685Y-84009895D01*
X164477095Y-84048600D01*
X164515800Y-84087304D01*
X164554504Y-84164714D01*
X164554504Y-84280828D01*
X164515800Y-84358238D01*
X164477095Y-84396942D01*
X164399685Y-84435647D01*
X164090047Y-84435647D01*
X164902847Y-84396942D02*
X165173780Y-84396942D01*
X165289895Y-84822695D02*
X164902847Y-84822695D01*
X164902847Y-84009895D01*
X165289895Y-84009895D01*
X165599533Y-84783990D02*
X165715647Y-84822695D01*
X165909171Y-84822695D01*
X165986580Y-84783990D01*
X166025285Y-84745285D01*
X166063990Y-84667876D01*
X166063990Y-84590466D01*
X166025285Y-84513057D01*
X165986580Y-84474352D01*
X165909171Y-84435647D01*
X165754352Y-84396942D01*
X165676942Y-84358238D01*
X165638238Y-84319533D01*
X165599533Y-84242123D01*
X165599533Y-84164714D01*
X165638238Y-84087304D01*
X165676942Y-84048600D01*
X165754352Y-84009895D01*
X165947876Y-84009895D01*
X166063990Y-84048600D01*
X166412333Y-84396942D02*
X166683266Y-84396942D01*
X166799380Y-84822695D02*
X166412333Y-84822695D01*
X166412333Y-84009895D01*
X166799380Y-84009895D01*
X167031609Y-84009895D02*
X167496066Y-84009895D01*
X167263838Y-84822695D02*
X167263838Y-84009895D01*
X141694504Y-84822695D02*
X141423571Y-84435647D01*
X141230047Y-84822695D02*
X141230047Y-84009895D01*
X141539685Y-84009895D01*
X141617095Y-84048600D01*
X141655800Y-84087304D01*
X141694504Y-84164714D01*
X141694504Y-84280828D01*
X141655800Y-84358238D01*
X141617095Y-84396942D01*
X141539685Y-84435647D01*
X141230047Y-84435647D01*
X142042847Y-84396942D02*
X142313780Y-84396942D01*
X142429895Y-84822695D02*
X142042847Y-84822695D01*
X142042847Y-84009895D01*
X142429895Y-84009895D01*
X142739533Y-84783990D02*
X142855647Y-84822695D01*
X143049171Y-84822695D01*
X143126580Y-84783990D01*
X143165285Y-84745285D01*
X143203990Y-84667876D01*
X143203990Y-84590466D01*
X143165285Y-84513057D01*
X143126580Y-84474352D01*
X143049171Y-84435647D01*
X142894352Y-84396942D01*
X142816942Y-84358238D01*
X142778238Y-84319533D01*
X142739533Y-84242123D01*
X142739533Y-84164714D01*
X142778238Y-84087304D01*
X142816942Y-84048600D01*
X142894352Y-84009895D01*
X143087876Y-84009895D01*
X143203990Y-84048600D01*
X143552333Y-84396942D02*
X143823266Y-84396942D01*
X143939380Y-84822695D02*
X143552333Y-84822695D01*
X143552333Y-84009895D01*
X143939380Y-84009895D01*
X144171609Y-84009895D02*
X144636066Y-84009895D01*
X144403838Y-84822695D02*
X144403838Y-84009895D01*
X118834504Y-84822695D02*
X118563571Y-84435647D01*
X118370047Y-84822695D02*
X118370047Y-84009895D01*
X118679685Y-84009895D01*
X118757095Y-84048600D01*
X118795800Y-84087304D01*
X118834504Y-84164714D01*
X118834504Y-84280828D01*
X118795800Y-84358238D01*
X118757095Y-84396942D01*
X118679685Y-84435647D01*
X118370047Y-84435647D01*
X119182847Y-84396942D02*
X119453780Y-84396942D01*
X119569895Y-84822695D02*
X119182847Y-84822695D01*
X119182847Y-84009895D01*
X119569895Y-84009895D01*
X119879533Y-84783990D02*
X119995647Y-84822695D01*
X120189171Y-84822695D01*
X120266580Y-84783990D01*
X120305285Y-84745285D01*
X120343990Y-84667876D01*
X120343990Y-84590466D01*
X120305285Y-84513057D01*
X120266580Y-84474352D01*
X120189171Y-84435647D01*
X120034352Y-84396942D01*
X119956942Y-84358238D01*
X119918238Y-84319533D01*
X119879533Y-84242123D01*
X119879533Y-84164714D01*
X119918238Y-84087304D01*
X119956942Y-84048600D01*
X120034352Y-84009895D01*
X120227876Y-84009895D01*
X120343990Y-84048600D01*
X120692333Y-84396942D02*
X120963266Y-84396942D01*
X121079380Y-84822695D02*
X120692333Y-84822695D01*
X120692333Y-84009895D01*
X121079380Y-84009895D01*
X121311609Y-84009895D02*
X121776066Y-84009895D01*
X121543838Y-84822695D02*
X121543838Y-84009895D01*
G04 #@! TO.C,JACK*
X158099285Y-90257380D02*
X158099285Y-90971666D01*
X158051666Y-91114523D01*
X157956428Y-91209761D01*
X157813571Y-91257380D01*
X157718333Y-91257380D01*
X158527857Y-90971666D02*
X159004047Y-90971666D01*
X158432619Y-91257380D02*
X158765952Y-90257380D01*
X159099285Y-91257380D01*
X160004047Y-91162142D02*
X159956428Y-91209761D01*
X159813571Y-91257380D01*
X159718333Y-91257380D01*
X159575476Y-91209761D01*
X159480238Y-91114523D01*
X159432619Y-91019285D01*
X159385000Y-90828809D01*
X159385000Y-90685952D01*
X159432619Y-90495476D01*
X159480238Y-90400238D01*
X159575476Y-90305000D01*
X159718333Y-90257380D01*
X159813571Y-90257380D01*
X159956428Y-90305000D01*
X160004047Y-90352619D01*
X160432619Y-91257380D02*
X160432619Y-90257380D01*
X161004047Y-91257380D02*
X160575476Y-90685952D01*
X161004047Y-90257380D02*
X160432619Y-90828809D01*
X135239285Y-90257380D02*
X135239285Y-90971666D01*
X135191666Y-91114523D01*
X135096428Y-91209761D01*
X134953571Y-91257380D01*
X134858333Y-91257380D01*
X135667857Y-90971666D02*
X136144047Y-90971666D01*
X135572619Y-91257380D02*
X135905952Y-90257380D01*
X136239285Y-91257380D01*
X137144047Y-91162142D02*
X137096428Y-91209761D01*
X136953571Y-91257380D01*
X136858333Y-91257380D01*
X136715476Y-91209761D01*
X136620238Y-91114523D01*
X136572619Y-91019285D01*
X136525000Y-90828809D01*
X136525000Y-90685952D01*
X136572619Y-90495476D01*
X136620238Y-90400238D01*
X136715476Y-90305000D01*
X136858333Y-90257380D01*
X136953571Y-90257380D01*
X137096428Y-90305000D01*
X137144047Y-90352619D01*
X137572619Y-91257380D02*
X137572619Y-90257380D01*
X138144047Y-91257380D02*
X137715476Y-90685952D01*
X138144047Y-90257380D02*
X137572619Y-90828809D01*
X112379285Y-90257380D02*
X112379285Y-90971666D01*
X112331666Y-91114523D01*
X112236428Y-91209761D01*
X112093571Y-91257380D01*
X111998333Y-91257380D01*
X112807857Y-90971666D02*
X113284047Y-90971666D01*
X112712619Y-91257380D02*
X113045952Y-90257380D01*
X113379285Y-91257380D01*
X114284047Y-91162142D02*
X114236428Y-91209761D01*
X114093571Y-91257380D01*
X113998333Y-91257380D01*
X113855476Y-91209761D01*
X113760238Y-91114523D01*
X113712619Y-91019285D01*
X113665000Y-90828809D01*
X113665000Y-90685952D01*
X113712619Y-90495476D01*
X113760238Y-90400238D01*
X113855476Y-90305000D01*
X113998333Y-90257380D01*
X114093571Y-90257380D01*
X114236428Y-90305000D01*
X114284047Y-90352619D01*
X114712619Y-91257380D02*
X114712619Y-90257380D01*
X115284047Y-91257380D02*
X114855476Y-90685952D01*
X115284047Y-90257380D02*
X114712619Y-90828809D01*
X170849285Y-90657380D02*
X170849285Y-91371666D01*
X170801666Y-91514523D01*
X170706428Y-91609761D01*
X170563571Y-91657380D01*
X170468333Y-91657380D01*
X171277857Y-91371666D02*
X171754047Y-91371666D01*
X171182619Y-91657380D02*
X171515952Y-90657380D01*
X171849285Y-91657380D01*
X172754047Y-91562142D02*
X172706428Y-91609761D01*
X172563571Y-91657380D01*
X172468333Y-91657380D01*
X172325476Y-91609761D01*
X172230238Y-91514523D01*
X172182619Y-91419285D01*
X172135000Y-91228809D01*
X172135000Y-91085952D01*
X172182619Y-90895476D01*
X172230238Y-90800238D01*
X172325476Y-90705000D01*
X172468333Y-90657380D01*
X172563571Y-90657380D01*
X172706428Y-90705000D01*
X172754047Y-90752619D01*
X173182619Y-91657380D02*
X173182619Y-90657380D01*
X173754047Y-91657380D02*
X173325476Y-91085952D01*
X173754047Y-90657380D02*
X173182619Y-91228809D01*
X147989285Y-90657380D02*
X147989285Y-91371666D01*
X147941666Y-91514523D01*
X147846428Y-91609761D01*
X147703571Y-91657380D01*
X147608333Y-91657380D01*
X148417857Y-91371666D02*
X148894047Y-91371666D01*
X148322619Y-91657380D02*
X148655952Y-90657380D01*
X148989285Y-91657380D01*
X149894047Y-91562142D02*
X149846428Y-91609761D01*
X149703571Y-91657380D01*
X149608333Y-91657380D01*
X149465476Y-91609761D01*
X149370238Y-91514523D01*
X149322619Y-91419285D01*
X149275000Y-91228809D01*
X149275000Y-91085952D01*
X149322619Y-90895476D01*
X149370238Y-90800238D01*
X149465476Y-90705000D01*
X149608333Y-90657380D01*
X149703571Y-90657380D01*
X149846428Y-90705000D01*
X149894047Y-90752619D01*
X150322619Y-91657380D02*
X150322619Y-90657380D01*
X150894047Y-91657380D02*
X150465476Y-91085952D01*
X150894047Y-90657380D02*
X150322619Y-91228809D01*
X125129285Y-90657380D02*
X125129285Y-91371666D01*
X125081666Y-91514523D01*
X124986428Y-91609761D01*
X124843571Y-91657380D01*
X124748333Y-91657380D01*
X125557857Y-91371666D02*
X126034047Y-91371666D01*
X125462619Y-91657380D02*
X125795952Y-90657380D01*
X126129285Y-91657380D01*
X127034047Y-91562142D02*
X126986428Y-91609761D01*
X126843571Y-91657380D01*
X126748333Y-91657380D01*
X126605476Y-91609761D01*
X126510238Y-91514523D01*
X126462619Y-91419285D01*
X126415000Y-91228809D01*
X126415000Y-91085952D01*
X126462619Y-90895476D01*
X126510238Y-90800238D01*
X126605476Y-90705000D01*
X126748333Y-90657380D01*
X126843571Y-90657380D01*
X126986428Y-90705000D01*
X127034047Y-90752619D01*
X127462619Y-91657380D02*
X127462619Y-90657380D01*
X128034047Y-91657380D02*
X127605476Y-91085952D01*
X128034047Y-90657380D02*
X127462619Y-91228809D01*
G04 #@! TO.C,OLED*
X164554504Y-78929895D02*
X164709323Y-78929895D01*
X164786733Y-78968600D01*
X164864142Y-79046009D01*
X164902847Y-79200828D01*
X164902847Y-79471761D01*
X164864142Y-79626580D01*
X164786733Y-79703990D01*
X164709323Y-79742695D01*
X164554504Y-79742695D01*
X164477095Y-79703990D01*
X164399685Y-79626580D01*
X164360980Y-79471761D01*
X164360980Y-79200828D01*
X164399685Y-79046009D01*
X164477095Y-78968600D01*
X164554504Y-78929895D01*
X165638238Y-79742695D02*
X165251190Y-79742695D01*
X165251190Y-78929895D01*
X165909171Y-79316942D02*
X166180104Y-79316942D01*
X166296219Y-79742695D02*
X165909171Y-79742695D01*
X165909171Y-78929895D01*
X166296219Y-78929895D01*
X166644561Y-79742695D02*
X166644561Y-78929895D01*
X166838085Y-78929895D01*
X166954200Y-78968600D01*
X167031609Y-79046009D01*
X167070314Y-79123419D01*
X167109019Y-79278238D01*
X167109019Y-79394352D01*
X167070314Y-79549171D01*
X167031609Y-79626580D01*
X166954200Y-79703990D01*
X166838085Y-79742695D01*
X166644561Y-79742695D01*
X141694504Y-78929895D02*
X141849323Y-78929895D01*
X141926733Y-78968600D01*
X142004142Y-79046009D01*
X142042847Y-79200828D01*
X142042847Y-79471761D01*
X142004142Y-79626580D01*
X141926733Y-79703990D01*
X141849323Y-79742695D01*
X141694504Y-79742695D01*
X141617095Y-79703990D01*
X141539685Y-79626580D01*
X141500980Y-79471761D01*
X141500980Y-79200828D01*
X141539685Y-79046009D01*
X141617095Y-78968600D01*
X141694504Y-78929895D01*
X142778238Y-79742695D02*
X142391190Y-79742695D01*
X142391190Y-78929895D01*
X143049171Y-79316942D02*
X143320104Y-79316942D01*
X143436219Y-79742695D02*
X143049171Y-79742695D01*
X143049171Y-78929895D01*
X143436219Y-78929895D01*
X143784561Y-79742695D02*
X143784561Y-78929895D01*
X143978085Y-78929895D01*
X144094200Y-78968600D01*
X144171609Y-79046009D01*
X144210314Y-79123419D01*
X144249019Y-79278238D01*
X144249019Y-79394352D01*
X144210314Y-79549171D01*
X144171609Y-79626580D01*
X144094200Y-79703990D01*
X143978085Y-79742695D01*
X143784561Y-79742695D01*
X118834504Y-78929895D02*
X118989323Y-78929895D01*
X119066733Y-78968600D01*
X119144142Y-79046009D01*
X119182847Y-79200828D01*
X119182847Y-79471761D01*
X119144142Y-79626580D01*
X119066733Y-79703990D01*
X118989323Y-79742695D01*
X118834504Y-79742695D01*
X118757095Y-79703990D01*
X118679685Y-79626580D01*
X118640980Y-79471761D01*
X118640980Y-79200828D01*
X118679685Y-79046009D01*
X118757095Y-78968600D01*
X118834504Y-78929895D01*
X119918238Y-79742695D02*
X119531190Y-79742695D01*
X119531190Y-78929895D01*
X120189171Y-79316942D02*
X120460104Y-79316942D01*
X120576219Y-79742695D02*
X120189171Y-79742695D01*
X120189171Y-78929895D01*
X120576219Y-78929895D01*
X120924561Y-79742695D02*
X120924561Y-78929895D01*
X121118085Y-78929895D01*
X121234200Y-78968600D01*
X121311609Y-79046009D01*
X121350314Y-79123419D01*
X121389019Y-79278238D01*
X121389019Y-79394352D01*
X121350314Y-79549171D01*
X121311609Y-79626580D01*
X121234200Y-79703990D01*
X121118085Y-79742695D01*
X120924561Y-79742695D01*
G04 #@! TO.C,JACK*
X102269285Y-90657380D02*
X102269285Y-91371666D01*
X102221666Y-91514523D01*
X102126428Y-91609761D01*
X101983571Y-91657380D01*
X101888333Y-91657380D01*
X102697857Y-91371666D02*
X103174047Y-91371666D01*
X102602619Y-91657380D02*
X102935952Y-90657380D01*
X103269285Y-91657380D01*
X104174047Y-91562142D02*
X104126428Y-91609761D01*
X103983571Y-91657380D01*
X103888333Y-91657380D01*
X103745476Y-91609761D01*
X103650238Y-91514523D01*
X103602619Y-91419285D01*
X103555000Y-91228809D01*
X103555000Y-91085952D01*
X103602619Y-90895476D01*
X103650238Y-90800238D01*
X103745476Y-90705000D01*
X103888333Y-90657380D01*
X103983571Y-90657380D01*
X104126428Y-90705000D01*
X104174047Y-90752619D01*
X104602619Y-91657380D02*
X104602619Y-90657380D01*
X105174047Y-91657380D02*
X104745476Y-91085952D01*
X105174047Y-90657380D02*
X104602619Y-91228809D01*
X89519285Y-90257380D02*
X89519285Y-90971666D01*
X89471666Y-91114523D01*
X89376428Y-91209761D01*
X89233571Y-91257380D01*
X89138333Y-91257380D01*
X89947857Y-90971666D02*
X90424047Y-90971666D01*
X89852619Y-91257380D02*
X90185952Y-90257380D01*
X90519285Y-91257380D01*
X91424047Y-91162142D02*
X91376428Y-91209761D01*
X91233571Y-91257380D01*
X91138333Y-91257380D01*
X90995476Y-91209761D01*
X90900238Y-91114523D01*
X90852619Y-91019285D01*
X90805000Y-90828809D01*
X90805000Y-90685952D01*
X90852619Y-90495476D01*
X90900238Y-90400238D01*
X90995476Y-90305000D01*
X91138333Y-90257380D01*
X91233571Y-90257380D01*
X91376428Y-90305000D01*
X91424047Y-90352619D01*
X91852619Y-91257380D02*
X91852619Y-90257380D01*
X92424047Y-91257380D02*
X91995476Y-90685952D01*
X92424047Y-90257380D02*
X91852619Y-90828809D01*
G04 #@! TO.C,RESET1*
X95974504Y-84822695D02*
X95703571Y-84435647D01*
X95510047Y-84822695D02*
X95510047Y-84009895D01*
X95819685Y-84009895D01*
X95897095Y-84048600D01*
X95935800Y-84087304D01*
X95974504Y-84164714D01*
X95974504Y-84280828D01*
X95935800Y-84358238D01*
X95897095Y-84396942D01*
X95819685Y-84435647D01*
X95510047Y-84435647D01*
X96322847Y-84396942D02*
X96593780Y-84396942D01*
X96709895Y-84822695D02*
X96322847Y-84822695D01*
X96322847Y-84009895D01*
X96709895Y-84009895D01*
X97019533Y-84783990D02*
X97135647Y-84822695D01*
X97329171Y-84822695D01*
X97406580Y-84783990D01*
X97445285Y-84745285D01*
X97483990Y-84667876D01*
X97483990Y-84590466D01*
X97445285Y-84513057D01*
X97406580Y-84474352D01*
X97329171Y-84435647D01*
X97174352Y-84396942D01*
X97096942Y-84358238D01*
X97058238Y-84319533D01*
X97019533Y-84242123D01*
X97019533Y-84164714D01*
X97058238Y-84087304D01*
X97096942Y-84048600D01*
X97174352Y-84009895D01*
X97367876Y-84009895D01*
X97483990Y-84048600D01*
X97832333Y-84396942D02*
X98103266Y-84396942D01*
X98219380Y-84822695D02*
X97832333Y-84822695D01*
X97832333Y-84009895D01*
X98219380Y-84009895D01*
X98451609Y-84009895D02*
X98916066Y-84009895D01*
X98683838Y-84822695D02*
X98683838Y-84009895D01*
G04 #@! TO.C,OLED*
X95974504Y-78929895D02*
X96129323Y-78929895D01*
X96206733Y-78968600D01*
X96284142Y-79046009D01*
X96322847Y-79200828D01*
X96322847Y-79471761D01*
X96284142Y-79626580D01*
X96206733Y-79703990D01*
X96129323Y-79742695D01*
X95974504Y-79742695D01*
X95897095Y-79703990D01*
X95819685Y-79626580D01*
X95780980Y-79471761D01*
X95780980Y-79200828D01*
X95819685Y-79046009D01*
X95897095Y-78968600D01*
X95974504Y-78929895D01*
X97058238Y-79742695D02*
X96671190Y-79742695D01*
X96671190Y-78929895D01*
X97329171Y-79316942D02*
X97600104Y-79316942D01*
X97716219Y-79742695D02*
X97329171Y-79742695D01*
X97329171Y-78929895D01*
X97716219Y-78929895D01*
X98064561Y-79742695D02*
X98064561Y-78929895D01*
X98258085Y-78929895D01*
X98374200Y-78968600D01*
X98451609Y-79046009D01*
X98490314Y-79123419D01*
X98529019Y-79278238D01*
X98529019Y-79394352D01*
X98490314Y-79549171D01*
X98451609Y-79626580D01*
X98374200Y-79703990D01*
X98258085Y-79742695D01*
X98064561Y-79742695D01*
G04 #@! TD*
M02*
