G04 #@! TF.FileFunction,Soldermask,Top*
%FSLAX46Y46*%
G04 Gerber Fmt 4.6, Leading zero omitted, Abs format (unit mm)*
G04 Created by KiCad (PCBNEW 4.0.2-stable) date 2016/07/17 14:51:38*
%MOMM*%
G01*
G04 APERTURE LIST*
%ADD10C,0.100000*%
%ADD11C,1.710000*%
%ADD12C,2.500000*%
%ADD13C,4.000000*%
%ADD14C,0.800000*%
%ADD15O,1.600000X1.800000*%
%ADD16O,1.800000X1.600000*%
%ADD17C,1.400000*%
%ADD18R,1.400000X1.400000*%
G04 APERTURE END LIST*
D10*
D11*
X113665000Y-144399000D03*
D12*
X111125000Y-139319000D03*
D13*
X108585000Y-144399000D03*
D12*
X104775000Y-141859000D03*
D11*
X103505000Y-144399000D03*
D14*
X109855000Y-149479000D03*
X107315000Y-149479000D03*
D15*
X101400000Y-146939000D03*
X101400000Y-141859000D03*
X115770000Y-141859000D03*
X115770000Y-146939000D03*
D16*
X111125000Y-151584000D03*
X115570000Y-151584000D03*
X101600000Y-151584000D03*
X106045000Y-151584000D03*
X101600000Y-137214000D03*
X106045000Y-137214000D03*
D17*
X115570000Y-136779000D03*
D18*
X109220000Y-136779000D03*
D17*
X135636000Y-136779000D03*
D18*
X129286000Y-136779000D03*
D16*
X126111000Y-137214000D03*
X121666000Y-137214000D03*
X126111000Y-151584000D03*
X121666000Y-151584000D03*
X135636000Y-151584000D03*
X131191000Y-151584000D03*
D15*
X135836000Y-146939000D03*
X135836000Y-141859000D03*
X121466000Y-141859000D03*
X121466000Y-146939000D03*
D11*
X133731000Y-144399000D03*
D12*
X131191000Y-139319000D03*
D13*
X128651000Y-144399000D03*
D12*
X124841000Y-141859000D03*
D11*
X123571000Y-144399000D03*
D14*
X129921000Y-149479000D03*
X127381000Y-149479000D03*
D11*
X173863000Y-144399000D03*
D12*
X171323000Y-139319000D03*
D13*
X168783000Y-144399000D03*
D12*
X164973000Y-141859000D03*
D11*
X163703000Y-144399000D03*
D14*
X170053000Y-149479000D03*
X167513000Y-149479000D03*
D15*
X161598000Y-146939000D03*
X161598000Y-141859000D03*
X175968000Y-141859000D03*
X175968000Y-146939000D03*
D16*
X171323000Y-151584000D03*
X175768000Y-151584000D03*
X161798000Y-151584000D03*
X166243000Y-151584000D03*
X161798000Y-137214000D03*
X166243000Y-137214000D03*
D17*
X175768000Y-136779000D03*
D18*
X169418000Y-136779000D03*
D17*
X155702000Y-136779000D03*
D18*
X149352000Y-136779000D03*
D16*
X146177000Y-137214000D03*
X141732000Y-137214000D03*
X146177000Y-151584000D03*
X141732000Y-151584000D03*
X155702000Y-151584000D03*
X151257000Y-151584000D03*
D15*
X155902000Y-146939000D03*
X155902000Y-141859000D03*
X141532000Y-141859000D03*
X141532000Y-146939000D03*
D11*
X153797000Y-144399000D03*
D12*
X151257000Y-139319000D03*
D13*
X148717000Y-144399000D03*
D12*
X144907000Y-141859000D03*
D11*
X143637000Y-144399000D03*
D14*
X149987000Y-149479000D03*
X147447000Y-149479000D03*
D17*
X195834000Y-136779000D03*
D18*
X189484000Y-136779000D03*
D16*
X186309000Y-137214000D03*
X181864000Y-137214000D03*
X186309000Y-151584000D03*
X181864000Y-151584000D03*
X195834000Y-151584000D03*
X191389000Y-151584000D03*
D15*
X196034000Y-146939000D03*
X196034000Y-141859000D03*
X181664000Y-141859000D03*
X181664000Y-146939000D03*
D11*
X193929000Y-144399000D03*
D12*
X191389000Y-139319000D03*
D13*
X188849000Y-144399000D03*
D12*
X185039000Y-141859000D03*
D11*
X183769000Y-144399000D03*
D14*
X190119000Y-149479000D03*
X187579000Y-149479000D03*
D11*
X113665000Y-104267000D03*
D12*
X111125000Y-99187000D03*
D13*
X108585000Y-104267000D03*
D12*
X104775000Y-101727000D03*
D11*
X103505000Y-104267000D03*
D14*
X109855000Y-109347000D03*
X107315000Y-109347000D03*
D15*
X101400000Y-106807000D03*
X101400000Y-101727000D03*
X115770000Y-101727000D03*
X115770000Y-106807000D03*
D16*
X111125000Y-111452000D03*
X115570000Y-111452000D03*
X101600000Y-111452000D03*
X106045000Y-111452000D03*
X101600000Y-97082000D03*
X106045000Y-97082000D03*
D17*
X115570000Y-96647000D03*
D18*
X109220000Y-96647000D03*
D17*
X135636000Y-96647000D03*
D18*
X129286000Y-96647000D03*
D16*
X126111000Y-97082000D03*
X121666000Y-97082000D03*
X126111000Y-111452000D03*
X121666000Y-111452000D03*
X135636000Y-111452000D03*
X131191000Y-111452000D03*
D15*
X135836000Y-106807000D03*
X135836000Y-101727000D03*
X121466000Y-101727000D03*
X121466000Y-106807000D03*
D11*
X133731000Y-104267000D03*
D12*
X131191000Y-99187000D03*
D13*
X128651000Y-104267000D03*
D12*
X124841000Y-101727000D03*
D11*
X123571000Y-104267000D03*
D14*
X129921000Y-109347000D03*
X127381000Y-109347000D03*
D11*
X173863000Y-104267000D03*
D12*
X171323000Y-99187000D03*
D13*
X168783000Y-104267000D03*
D12*
X164973000Y-101727000D03*
D11*
X163703000Y-104267000D03*
D14*
X170053000Y-109347000D03*
X167513000Y-109347000D03*
D15*
X161598000Y-106807000D03*
X161598000Y-101727000D03*
X175968000Y-101727000D03*
X175968000Y-106807000D03*
D16*
X171323000Y-111452000D03*
X175768000Y-111452000D03*
X161798000Y-111452000D03*
X166243000Y-111452000D03*
X161798000Y-97082000D03*
X166243000Y-97082000D03*
D17*
X175768000Y-96647000D03*
D18*
X169418000Y-96647000D03*
D17*
X155702000Y-96647000D03*
D18*
X149352000Y-96647000D03*
D16*
X146177000Y-97082000D03*
X141732000Y-97082000D03*
X146177000Y-111452000D03*
X141732000Y-111452000D03*
X155702000Y-111452000D03*
X151257000Y-111452000D03*
D15*
X155902000Y-106807000D03*
X155902000Y-101727000D03*
X141532000Y-101727000D03*
X141532000Y-106807000D03*
D11*
X153797000Y-104267000D03*
D12*
X151257000Y-99187000D03*
D13*
X148717000Y-104267000D03*
D12*
X144907000Y-101727000D03*
D11*
X143637000Y-104267000D03*
D14*
X149987000Y-109347000D03*
X147447000Y-109347000D03*
D17*
X195834000Y-96647000D03*
D18*
X189484000Y-96647000D03*
D16*
X186309000Y-97082000D03*
X181864000Y-97082000D03*
X186309000Y-111452000D03*
X181864000Y-111452000D03*
X195834000Y-111452000D03*
X191389000Y-111452000D03*
D15*
X196034000Y-106807000D03*
X196034000Y-101727000D03*
X181664000Y-101727000D03*
X181664000Y-106807000D03*
D11*
X193929000Y-104267000D03*
D12*
X191389000Y-99187000D03*
D13*
X188849000Y-104267000D03*
D12*
X185039000Y-101727000D03*
D11*
X183769000Y-104267000D03*
D14*
X190119000Y-109347000D03*
X187579000Y-109347000D03*
D11*
X193929000Y-124333000D03*
D12*
X191389000Y-119253000D03*
D13*
X188849000Y-124333000D03*
D12*
X185039000Y-121793000D03*
D11*
X183769000Y-124333000D03*
D14*
X190119000Y-129413000D03*
X187579000Y-129413000D03*
D15*
X181664000Y-126873000D03*
X181664000Y-121793000D03*
X196034000Y-121793000D03*
X196034000Y-126873000D03*
D16*
X191389000Y-131518000D03*
X195834000Y-131518000D03*
X181864000Y-131518000D03*
X186309000Y-131518000D03*
X181864000Y-117148000D03*
X186309000Y-117148000D03*
D17*
X195834000Y-116713000D03*
D18*
X189484000Y-116713000D03*
D11*
X153797000Y-124333000D03*
D12*
X151257000Y-119253000D03*
D13*
X148717000Y-124333000D03*
D12*
X144907000Y-121793000D03*
D11*
X143637000Y-124333000D03*
D14*
X149987000Y-129413000D03*
X147447000Y-129413000D03*
D15*
X141532000Y-126873000D03*
X141532000Y-121793000D03*
X155902000Y-121793000D03*
X155902000Y-126873000D03*
D16*
X151257000Y-131518000D03*
X155702000Y-131518000D03*
X141732000Y-131518000D03*
X146177000Y-131518000D03*
X141732000Y-117148000D03*
X146177000Y-117148000D03*
D17*
X155702000Y-116713000D03*
D18*
X149352000Y-116713000D03*
D17*
X175768000Y-116713000D03*
D18*
X169418000Y-116713000D03*
D16*
X166243000Y-117148000D03*
X161798000Y-117148000D03*
X166243000Y-131518000D03*
X161798000Y-131518000D03*
X175768000Y-131518000D03*
X171323000Y-131518000D03*
D15*
X175968000Y-126873000D03*
X175968000Y-121793000D03*
X161598000Y-121793000D03*
X161598000Y-126873000D03*
D11*
X173863000Y-124333000D03*
D12*
X171323000Y-119253000D03*
D13*
X168783000Y-124333000D03*
D12*
X164973000Y-121793000D03*
D11*
X163703000Y-124333000D03*
D14*
X170053000Y-129413000D03*
X167513000Y-129413000D03*
D11*
X133731000Y-124333000D03*
D12*
X131191000Y-119253000D03*
D13*
X128651000Y-124333000D03*
D12*
X124841000Y-121793000D03*
D11*
X123571000Y-124333000D03*
D14*
X129921000Y-129413000D03*
X127381000Y-129413000D03*
D15*
X121466000Y-126873000D03*
X121466000Y-121793000D03*
X135836000Y-121793000D03*
X135836000Y-126873000D03*
D16*
X131191000Y-131518000D03*
X135636000Y-131518000D03*
X121666000Y-131518000D03*
X126111000Y-131518000D03*
X121666000Y-117148000D03*
X126111000Y-117148000D03*
D17*
X135636000Y-116713000D03*
D18*
X129286000Y-116713000D03*
D17*
X115570000Y-116713000D03*
D18*
X109220000Y-116713000D03*
D16*
X106045000Y-117148000D03*
X101600000Y-117148000D03*
X106045000Y-131518000D03*
X101600000Y-131518000D03*
X115570000Y-131518000D03*
X111125000Y-131518000D03*
D15*
X115770000Y-126873000D03*
X115770000Y-121793000D03*
X101400000Y-121793000D03*
X101400000Y-126873000D03*
D11*
X113665000Y-124333000D03*
D12*
X111125000Y-119253000D03*
D13*
X108585000Y-124333000D03*
D12*
X104775000Y-121793000D03*
D11*
X103505000Y-124333000D03*
D14*
X109855000Y-129413000D03*
X107315000Y-129413000D03*
D11*
X113665000Y-84201000D03*
D12*
X111125000Y-79121000D03*
D13*
X108585000Y-84201000D03*
D12*
X104775000Y-81661000D03*
D11*
X103505000Y-84201000D03*
D14*
X109855000Y-89281000D03*
X107315000Y-89281000D03*
D15*
X101400000Y-86741000D03*
X101400000Y-81661000D03*
X115770000Y-81661000D03*
X115770000Y-86741000D03*
D16*
X111125000Y-91386000D03*
X115570000Y-91386000D03*
X101600000Y-91386000D03*
X106045000Y-91386000D03*
X101600000Y-77016000D03*
X106045000Y-77016000D03*
D17*
X115570000Y-76581000D03*
D18*
X109220000Y-76581000D03*
D17*
X135636000Y-76581000D03*
D18*
X129286000Y-76581000D03*
D16*
X126111000Y-77016000D03*
X121666000Y-77016000D03*
X126111000Y-91386000D03*
X121666000Y-91386000D03*
X135636000Y-91386000D03*
X131191000Y-91386000D03*
D15*
X135836000Y-86741000D03*
X135836000Y-81661000D03*
X121466000Y-81661000D03*
X121466000Y-86741000D03*
D11*
X133731000Y-84201000D03*
D12*
X131191000Y-79121000D03*
D13*
X128651000Y-84201000D03*
D12*
X124841000Y-81661000D03*
D11*
X123571000Y-84201000D03*
D14*
X129921000Y-89281000D03*
X127381000Y-89281000D03*
D11*
X173863000Y-84201000D03*
D12*
X171323000Y-79121000D03*
D13*
X168783000Y-84201000D03*
D12*
X164973000Y-81661000D03*
D11*
X163703000Y-84201000D03*
D14*
X170053000Y-89281000D03*
X167513000Y-89281000D03*
D15*
X161598000Y-86741000D03*
X161598000Y-81661000D03*
X175968000Y-81661000D03*
X175968000Y-86741000D03*
D16*
X171323000Y-91386000D03*
X175768000Y-91386000D03*
X161798000Y-91386000D03*
X166243000Y-91386000D03*
X161798000Y-77016000D03*
X166243000Y-77016000D03*
D17*
X175768000Y-76581000D03*
D18*
X169418000Y-76581000D03*
D17*
X155702000Y-76581000D03*
D18*
X149352000Y-76581000D03*
D16*
X146177000Y-77016000D03*
X141732000Y-77016000D03*
X146177000Y-91386000D03*
X141732000Y-91386000D03*
X155702000Y-91386000D03*
X151257000Y-91386000D03*
D15*
X155902000Y-86741000D03*
X155902000Y-81661000D03*
X141532000Y-81661000D03*
X141532000Y-86741000D03*
D11*
X153797000Y-84201000D03*
D12*
X151257000Y-79121000D03*
D13*
X148717000Y-84201000D03*
D12*
X144907000Y-81661000D03*
D11*
X143637000Y-84201000D03*
D14*
X149987000Y-89281000D03*
X147447000Y-89281000D03*
D17*
X195834000Y-76581000D03*
D18*
X189484000Y-76581000D03*
D16*
X186309000Y-77016000D03*
X181864000Y-77016000D03*
X186309000Y-91386000D03*
X181864000Y-91386000D03*
X195834000Y-91386000D03*
X191389000Y-91386000D03*
D15*
X196034000Y-86741000D03*
X196034000Y-81661000D03*
X181664000Y-81661000D03*
X181664000Y-86741000D03*
D11*
X193929000Y-84201000D03*
D12*
X191389000Y-79121000D03*
D13*
X188849000Y-84201000D03*
D12*
X185039000Y-81661000D03*
D11*
X183769000Y-84201000D03*
D14*
X190119000Y-89281000D03*
X187579000Y-89281000D03*
D11*
X193929000Y-64135000D03*
D12*
X191389000Y-59055000D03*
D13*
X188849000Y-64135000D03*
D12*
X185039000Y-61595000D03*
D11*
X183769000Y-64135000D03*
D14*
X190119000Y-69215000D03*
X187579000Y-69215000D03*
D15*
X181664000Y-66675000D03*
X181664000Y-61595000D03*
X196034000Y-61595000D03*
X196034000Y-66675000D03*
D16*
X191389000Y-71320000D03*
X195834000Y-71320000D03*
X181864000Y-71320000D03*
X186309000Y-71320000D03*
X181864000Y-56950000D03*
X186309000Y-56950000D03*
D17*
X195834000Y-56515000D03*
D18*
X189484000Y-56515000D03*
D11*
X153797000Y-64135000D03*
D12*
X151257000Y-59055000D03*
D13*
X148717000Y-64135000D03*
D12*
X144907000Y-61595000D03*
D11*
X143637000Y-64135000D03*
D14*
X149987000Y-69215000D03*
X147447000Y-69215000D03*
D15*
X141532000Y-66675000D03*
X141532000Y-61595000D03*
X155902000Y-61595000D03*
X155902000Y-66675000D03*
D16*
X151257000Y-71320000D03*
X155702000Y-71320000D03*
X141732000Y-71320000D03*
X146177000Y-71320000D03*
X141732000Y-56950000D03*
X146177000Y-56950000D03*
D17*
X155702000Y-56515000D03*
D18*
X149352000Y-56515000D03*
D17*
X175768000Y-56515000D03*
D18*
X169418000Y-56515000D03*
D16*
X166243000Y-56950000D03*
X161798000Y-56950000D03*
X166243000Y-71320000D03*
X161798000Y-71320000D03*
X175768000Y-71320000D03*
X171323000Y-71320000D03*
D15*
X175968000Y-66675000D03*
X175968000Y-61595000D03*
X161598000Y-61595000D03*
X161598000Y-66675000D03*
D11*
X173863000Y-64135000D03*
D12*
X171323000Y-59055000D03*
D13*
X168783000Y-64135000D03*
D12*
X164973000Y-61595000D03*
D11*
X163703000Y-64135000D03*
D14*
X170053000Y-69215000D03*
X167513000Y-69215000D03*
D11*
X133731000Y-64135000D03*
D12*
X131191000Y-59055000D03*
D13*
X128651000Y-64135000D03*
D12*
X124841000Y-61595000D03*
D11*
X123571000Y-64135000D03*
D14*
X129921000Y-69215000D03*
X127381000Y-69215000D03*
D15*
X121466000Y-66675000D03*
X121466000Y-61595000D03*
X135836000Y-61595000D03*
X135836000Y-66675000D03*
D16*
X131191000Y-71320000D03*
X135636000Y-71320000D03*
X121666000Y-71320000D03*
X126111000Y-71320000D03*
X121666000Y-56950000D03*
X126111000Y-56950000D03*
D17*
X135636000Y-56515000D03*
D18*
X129286000Y-56515000D03*
D17*
X115570000Y-56515000D03*
D18*
X109220000Y-56515000D03*
D16*
X106045000Y-56950000D03*
X101600000Y-56950000D03*
X106045000Y-71320000D03*
X101600000Y-71320000D03*
X115570000Y-71320000D03*
X111125000Y-71320000D03*
D15*
X115770000Y-66675000D03*
X115770000Y-61595000D03*
X101400000Y-61595000D03*
X101400000Y-66675000D03*
D11*
X113665000Y-64135000D03*
D12*
X111125000Y-59055000D03*
D13*
X108585000Y-64135000D03*
D12*
X104775000Y-61595000D03*
D11*
X103505000Y-64135000D03*
D14*
X109855000Y-69215000D03*
X107315000Y-69215000D03*
M02*
