M48
;DRILL file {KiCad 4.0.2-stable} date 2016/07/17 14:51:45
;FORMAT={-:-/ absolute / metric / decimal}
FMAT,2
METRIC,TZ
T1C0.800
T2C1.500
T3C0.800
T4C1.710
T5C4.000
%
G90
G05
M71
T1
X101.6Y-57.15
X101.6Y-61.595
X101.6Y-66.675
X101.6Y-71.12
X101.6Y-77.216
X101.6Y-81.661
X101.6Y-86.741
X101.6Y-91.186
X101.6Y-97.282
X101.6Y-101.727
X101.6Y-106.807
X101.6Y-111.252
X101.6Y-117.348
X101.6Y-121.793
X101.6Y-126.873
X101.6Y-131.318
X101.6Y-137.414
X101.6Y-141.859
X101.6Y-146.939
X101.6Y-151.384
X106.045Y-57.15
X106.045Y-71.12
X106.045Y-77.216
X106.045Y-91.186
X106.045Y-97.282
X106.045Y-111.252
X106.045Y-117.348
X106.045Y-131.318
X106.045Y-137.414
X106.045Y-151.384
X109.22Y-56.515
X109.22Y-76.581
X109.22Y-96.647
X109.22Y-116.713
X109.22Y-136.779
X111.125Y-71.12
X111.125Y-91.186
X111.125Y-111.252
X111.125Y-131.318
X111.125Y-151.384
X115.57Y-56.515
X115.57Y-61.595
X115.57Y-66.675
X115.57Y-71.12
X115.57Y-76.581
X115.57Y-81.661
X115.57Y-86.741
X115.57Y-91.186
X115.57Y-96.647
X115.57Y-101.727
X115.57Y-106.807
X115.57Y-111.252
X115.57Y-116.713
X115.57Y-121.793
X115.57Y-126.873
X115.57Y-131.318
X115.57Y-136.779
X115.57Y-141.859
X115.57Y-146.939
X115.57Y-151.384
X121.666Y-57.15
X121.666Y-61.595
X121.666Y-66.675
X121.666Y-71.12
X121.666Y-77.216
X121.666Y-81.661
X121.666Y-86.741
X121.666Y-91.186
X121.666Y-97.282
X121.666Y-101.727
X121.666Y-106.807
X121.666Y-111.252
X121.666Y-117.348
X121.666Y-121.793
X121.666Y-126.873
X121.666Y-131.318
X121.666Y-137.414
X121.666Y-141.859
X121.666Y-146.939
X121.666Y-151.384
X126.111Y-57.15
X126.111Y-71.12
X126.111Y-77.216
X126.111Y-91.186
X126.111Y-97.282
X126.111Y-111.252
X126.111Y-117.348
X126.111Y-131.318
X126.111Y-137.414
X126.111Y-151.384
X129.286Y-56.515
X129.286Y-76.581
X129.286Y-96.647
X129.286Y-116.713
X129.286Y-136.779
X131.191Y-71.12
X131.191Y-91.186
X131.191Y-111.252
X131.191Y-131.318
X131.191Y-151.384
X135.636Y-56.515
X135.636Y-61.595
X135.636Y-66.675
X135.636Y-71.12
X135.636Y-76.581
X135.636Y-81.661
X135.636Y-86.741
X135.636Y-91.186
X135.636Y-96.647
X135.636Y-101.727
X135.636Y-106.807
X135.636Y-111.252
X135.636Y-116.713
X135.636Y-121.793
X135.636Y-126.873
X135.636Y-131.318
X135.636Y-136.779
X135.636Y-141.859
X135.636Y-146.939
X135.636Y-151.384
X141.732Y-57.15
X141.732Y-61.595
X141.732Y-66.675
X141.732Y-71.12
X141.732Y-77.216
X141.732Y-81.661
X141.732Y-86.741
X141.732Y-91.186
X141.732Y-97.282
X141.732Y-101.727
X141.732Y-106.807
X141.732Y-111.252
X141.732Y-117.348
X141.732Y-121.793
X141.732Y-126.873
X141.732Y-131.318
X141.732Y-137.414
X141.732Y-141.859
X141.732Y-146.939
X141.732Y-151.384
X146.177Y-57.15
X146.177Y-71.12
X146.177Y-77.216
X146.177Y-91.186
X146.177Y-97.282
X146.177Y-111.252
X146.177Y-117.348
X146.177Y-131.318
X146.177Y-137.414
X146.177Y-151.384
X149.352Y-56.515
X149.352Y-76.581
X149.352Y-96.647
X149.352Y-116.713
X149.352Y-136.779
X151.257Y-71.12
X151.257Y-91.186
X151.257Y-111.252
X151.257Y-131.318
X151.257Y-151.384
X155.702Y-56.515
X155.702Y-61.595
X155.702Y-66.675
X155.702Y-71.12
X155.702Y-76.581
X155.702Y-81.661
X155.702Y-86.741
X155.702Y-91.186
X155.702Y-96.647
X155.702Y-101.727
X155.702Y-106.807
X155.702Y-111.252
X155.702Y-116.713
X155.702Y-121.793
X155.702Y-126.873
X155.702Y-131.318
X155.702Y-136.779
X155.702Y-141.859
X155.702Y-146.939
X155.702Y-151.384
X161.798Y-57.15
X161.798Y-61.595
X161.798Y-66.675
X161.798Y-71.12
X161.798Y-77.216
X161.798Y-81.661
X161.798Y-86.741
X161.798Y-91.186
X161.798Y-97.282
X161.798Y-101.727
X161.798Y-106.807
X161.798Y-111.252
X161.798Y-117.348
X161.798Y-121.793
X161.798Y-126.873
X161.798Y-131.318
X161.798Y-137.414
X161.798Y-141.859
X161.798Y-146.939
X161.798Y-151.384
X166.243Y-57.15
X166.243Y-71.12
X166.243Y-77.216
X166.243Y-91.186
X166.243Y-97.282
X166.243Y-111.252
X166.243Y-117.348
X166.243Y-131.318
X166.243Y-137.414
X166.243Y-151.384
X169.418Y-56.515
X169.418Y-76.581
X169.418Y-96.647
X169.418Y-116.713
X169.418Y-136.779
X171.323Y-71.12
X171.323Y-91.186
X171.323Y-111.252
X171.323Y-131.318
X171.323Y-151.384
X175.768Y-56.515
X175.768Y-61.595
X175.768Y-66.675
X175.768Y-71.12
X175.768Y-76.581
X175.768Y-81.661
X175.768Y-86.741
X175.768Y-91.186
X175.768Y-96.647
X175.768Y-101.727
X175.768Y-106.807
X175.768Y-111.252
X175.768Y-116.713
X175.768Y-121.793
X175.768Y-126.873
X175.768Y-131.318
X175.768Y-136.779
X175.768Y-141.859
X175.768Y-146.939
X175.768Y-151.384
X181.864Y-57.15
X181.864Y-61.595
X181.864Y-66.675
X181.864Y-71.12
X181.864Y-77.216
X181.864Y-81.661
X181.864Y-86.741
X181.864Y-91.186
X181.864Y-97.282
X181.864Y-101.727
X181.864Y-106.807
X181.864Y-111.252
X181.864Y-117.348
X181.864Y-121.793
X181.864Y-126.873
X181.864Y-131.318
X181.864Y-137.414
X181.864Y-141.859
X181.864Y-146.939
X181.864Y-151.384
X186.309Y-57.15
X186.309Y-71.12
X186.309Y-77.216
X186.309Y-91.186
X186.309Y-97.282
X186.309Y-111.252
X186.309Y-117.348
X186.309Y-131.318
X186.309Y-137.414
X186.309Y-151.384
X189.484Y-56.515
X189.484Y-76.581
X189.484Y-96.647
X189.484Y-116.713
X189.484Y-136.779
X191.389Y-71.12
X191.389Y-91.186
X191.389Y-111.252
X191.389Y-131.318
X191.389Y-151.384
X195.834Y-56.515
X195.834Y-61.595
X195.834Y-66.675
X195.834Y-71.12
X195.834Y-76.581
X195.834Y-81.661
X195.834Y-86.741
X195.834Y-91.186
X195.834Y-96.647
X195.834Y-101.727
X195.834Y-106.807
X195.834Y-111.252
X195.834Y-116.713
X195.834Y-121.793
X195.834Y-126.873
X195.834Y-131.318
X195.834Y-136.779
X195.834Y-141.859
X195.834Y-146.939
X195.834Y-151.384
T2
X104.775Y-61.595
X104.775Y-81.661
X104.775Y-101.727
X104.775Y-121.793
X104.775Y-141.859
X111.125Y-59.055
X111.125Y-79.121
X111.125Y-99.187
X111.125Y-119.253
X111.125Y-139.319
X124.841Y-61.595
X124.841Y-81.661
X124.841Y-101.727
X124.841Y-121.793
X124.841Y-141.859
X131.191Y-59.055
X131.191Y-79.121
X131.191Y-99.187
X131.191Y-119.253
X131.191Y-139.319
X144.907Y-61.595
X144.907Y-81.661
X144.907Y-101.727
X144.907Y-121.793
X144.907Y-141.859
X151.257Y-59.055
X151.257Y-79.121
X151.257Y-99.187
X151.257Y-119.253
X151.257Y-139.319
X164.973Y-61.595
X164.973Y-81.661
X164.973Y-101.727
X164.973Y-121.793
X164.973Y-141.859
X171.323Y-59.055
X171.323Y-79.121
X171.323Y-99.187
X171.323Y-119.253
X171.323Y-139.319
X185.039Y-61.595
X185.039Y-81.661
X185.039Y-101.727
X185.039Y-121.793
X185.039Y-141.859
X191.389Y-59.055
X191.389Y-79.121
X191.389Y-99.187
X191.389Y-119.253
X191.389Y-139.319
T3
X107.315Y-69.215
X107.315Y-89.281
X107.315Y-109.347
X107.315Y-129.413
X107.315Y-149.479
X109.855Y-69.215
X109.855Y-89.281
X109.855Y-109.347
X109.855Y-129.413
X109.855Y-149.479
X127.381Y-69.215
X127.381Y-89.281
X127.381Y-109.347
X127.381Y-129.413
X127.381Y-149.479
X129.921Y-69.215
X129.921Y-89.281
X129.921Y-109.347
X129.921Y-129.413
X129.921Y-149.479
X147.447Y-69.215
X147.447Y-89.281
X147.447Y-109.347
X147.447Y-129.413
X147.447Y-149.479
X149.987Y-69.215
X149.987Y-89.281
X149.987Y-109.347
X149.987Y-129.413
X149.987Y-149.479
X167.513Y-69.215
X167.513Y-89.281
X167.513Y-109.347
X167.513Y-129.413
X167.513Y-149.479
X170.053Y-69.215
X170.053Y-89.281
X170.053Y-109.347
X170.053Y-129.413
X170.053Y-149.479
X187.579Y-69.215
X187.579Y-89.281
X187.579Y-109.347
X187.579Y-129.413
X187.579Y-149.479
X190.119Y-69.215
X190.119Y-89.281
X190.119Y-109.347
X190.119Y-129.413
X190.119Y-149.479
T4
X103.505Y-64.135
X103.505Y-84.201
X103.505Y-104.267
X103.505Y-124.333
X103.505Y-144.399
X113.665Y-64.135
X113.665Y-84.201
X113.665Y-104.267
X113.665Y-124.333
X113.665Y-144.399
X123.571Y-64.135
X123.571Y-84.201
X123.571Y-104.267
X123.571Y-124.333
X123.571Y-144.399
X133.731Y-64.135
X133.731Y-84.201
X133.731Y-104.267
X133.731Y-124.333
X133.731Y-144.399
X143.637Y-64.135
X143.637Y-84.201
X143.637Y-104.267
X143.637Y-124.333
X143.637Y-144.399
X153.797Y-64.135
X153.797Y-84.201
X153.797Y-104.267
X153.797Y-124.333
X153.797Y-144.399
X163.703Y-64.135
X163.703Y-84.201
X163.703Y-104.267
X163.703Y-124.333
X163.703Y-144.399
X173.863Y-64.135
X173.863Y-84.201
X173.863Y-104.267
X173.863Y-124.333
X173.863Y-144.399
X183.769Y-64.135
X183.769Y-84.201
X183.769Y-104.267
X183.769Y-124.333
X183.769Y-144.399
X193.929Y-64.135
X193.929Y-84.201
X193.929Y-104.267
X193.929Y-124.333
X193.929Y-144.399
T5
X108.585Y-64.135
X108.585Y-84.201
X108.585Y-104.267
X108.585Y-124.333
X108.585Y-144.399
X128.651Y-64.135
X128.651Y-84.201
X128.651Y-104.267
X128.651Y-124.333
X128.651Y-144.399
X148.717Y-64.135
X148.717Y-84.201
X148.717Y-104.267
X148.717Y-124.333
X148.717Y-144.399
X168.783Y-64.135
X168.783Y-84.201
X168.783Y-104.267
X168.783Y-124.333
X168.783Y-144.399
X188.849Y-64.135
X188.849Y-84.201
X188.849Y-104.267
X188.849Y-124.333
X188.849Y-144.399
T0
M30
