M48
;DRILL file {KiCad 5.0.2-bee76a0~70~ubuntu18.04.1} date 2020年03月10日 01時08分58秒
;FORMAT={-:-/ absolute / inch / decimal}
FMAT,2
INCH,TZ
T1C0.0157
T2C0.0315
T3C0.0472
T4C0.0394
T5C0.0748
T6C0.1575
%
G90
G05
T1
X2.7965Y-1.3404
X2.7965Y-1.4389
X2.7965Y-2.0097
X2.7965Y-2.1081
X2.7965Y-2.679
X2.7965Y-2.7774
X2.7965Y-3.3483
X2.7965Y-3.4467
X2.7965Y-4.0176
X2.7965Y-4.116
X2.8316Y-1.191
X2.8316Y-1.8603
X2.8316Y-2.5296
X2.8316Y-3.1989
X2.8316Y-3.8682
X2.8595Y-1.565
X2.8595Y-2.2343
X2.8595Y-2.9036
X2.8595Y-3.5729
X2.8595Y-4.2422
X3.0284Y-1.2501
X3.0284Y-1.9194
X3.0284Y-2.5887
X3.0284Y-3.258
X3.0284Y-3.9272
X3.0288Y-1.1908
X3.0288Y-1.8601
X3.0288Y-2.5294
X3.0288Y-3.1987
X3.0288Y-3.868
X3.0495Y-1.335
X3.0495Y-2.0043
X3.0495Y-2.6736
X3.0495Y-3.3429
X3.0495Y-4.0122
X3.5052Y-1.3404
X3.5052Y-1.4389
X3.5052Y-2.0097
X3.5052Y-2.1081
X3.5052Y-2.679
X3.5052Y-2.7774
X3.5052Y-3.3483
X3.5052Y-3.4467
X3.5052Y-4.0176
X3.5052Y-4.116
X3.5402Y-1.191
X3.5402Y-1.8603
X3.5402Y-2.5296
X3.5402Y-3.1989
X3.5402Y-3.8682
X3.5682Y-1.565
X3.5682Y-2.2343
X3.5682Y-2.9036
X3.5682Y-3.5729
X3.5682Y-4.2422
X3.7371Y-1.2501
X3.7371Y-1.9194
X3.7371Y-2.5887
X3.7371Y-3.258
X3.7371Y-3.9272
X3.7375Y-1.1908
X3.7375Y-1.8601
X3.7375Y-2.5294
X3.7375Y-3.1987
X3.7375Y-3.868
X3.7582Y-1.335
X3.7582Y-2.0043
X3.7582Y-2.6736
X3.7582Y-3.3429
X3.7582Y-4.0122
X4.2139Y-1.3404
X4.2139Y-1.4389
X4.2139Y-2.0097
X4.2139Y-2.1081
X4.2139Y-2.679
X4.2139Y-2.7774
X4.2139Y-3.3483
X4.2139Y-3.4467
X4.2139Y-4.0176
X4.2139Y-4.116
X4.2489Y-1.191
X4.2489Y-1.8603
X4.2489Y-2.5296
X4.2489Y-3.1989
X4.2489Y-3.8682
X4.2769Y-1.565
X4.2769Y-2.2343
X4.2769Y-2.9036
X4.2769Y-3.5729
X4.2769Y-4.2422
X4.4457Y-1.2501
X4.4457Y-1.9194
X4.4457Y-2.5887
X4.4457Y-3.258
X4.4457Y-3.9272
X4.4461Y-1.1908
X4.4461Y-1.8601
X4.4461Y-2.5294
X4.4461Y-3.1987
X4.4461Y-3.868
X4.4669Y-1.335
X4.4669Y-2.0043
X4.4669Y-2.6736
X4.4669Y-3.3429
X4.4669Y-4.0122
X4.9225Y-1.3404
X4.9225Y-1.4389
X4.9225Y-2.0097
X4.9225Y-2.1081
X4.9225Y-2.679
X4.9225Y-2.7774
X4.9225Y-3.3483
X4.9225Y-3.4467
X4.9225Y-4.0176
X4.9225Y-4.116
X4.9576Y-1.191
X4.9576Y-1.8603
X4.9576Y-2.5296
X4.9576Y-3.1989
X4.9576Y-3.8682
X4.9855Y-1.565
X4.9855Y-2.2343
X4.9855Y-2.9036
X4.9855Y-3.5729
X4.9855Y-4.2422
X5.1544Y-1.2501
X5.1544Y-1.9194
X5.1544Y-2.5887
X5.1544Y-3.258
X5.1544Y-3.9272
X5.1548Y-1.1908
X5.1548Y-1.8601
X5.1548Y-2.5294
X5.1548Y-3.1987
X5.1548Y-3.868
X5.1755Y-1.335
X5.1755Y-2.0043
X5.1755Y-2.6736
X5.1755Y-3.3429
X5.1755Y-4.0122
X5.6312Y-1.3404
X5.6312Y-1.4389
X5.6312Y-2.0097
X5.6312Y-2.1081
X5.6312Y-2.679
X5.6312Y-2.7774
X5.6312Y-3.3483
X5.6312Y-3.4467
X5.6312Y-4.0176
X5.6312Y-4.116
X5.6662Y-1.191
X5.6662Y-1.8603
X5.6662Y-2.5296
X5.6662Y-3.1989
X5.6662Y-3.8682
X5.6942Y-1.565
X5.6942Y-2.2343
X5.6942Y-2.9036
X5.6942Y-3.5729
X5.6942Y-4.2422
X5.8631Y-1.2501
X5.8631Y-1.9194
X5.8631Y-2.5887
X5.8631Y-3.258
X5.8631Y-3.9272
X5.8635Y-1.1908
X5.8635Y-1.8601
X5.8635Y-2.5294
X5.8635Y-3.1987
X5.8635Y-3.868
X5.8842Y-1.335
X5.8842Y-2.0043
X5.8842Y-2.6736
X5.8842Y-3.3429
X5.8842Y-4.0122
T2
X4.6272Y-3.7912
X5.4934Y-1.7833
X5.3359Y-1.3109
X5.4934Y-1.9802
X3.5288Y-1.7932
X4.7847Y-1.7833
X2.6587Y-3.8896
X4.6272Y-1.3109
X2.8202Y-1.1239
X4.0761Y-1.7833
X5.4934Y-3.2204
X3.9186Y-1.3109
X3.9186Y-3.1219
X3.2099Y-1.1141
X4.2335Y-4.3129
X3.5249Y-3.6436
X4.7847Y-3.2204
X6.0446Y-3.8896
X5.3359Y-3.1219
X3.2099Y-1.6357
X4.0761Y-3.2204
X5.3359Y-3.8896
X4.9461Y-3.1318
X2.6587Y-1.6357
X3.3674Y-3.2204
X4.6272Y-3.8896
X4.6272Y-3.1219
X4.2375Y-3.1318
X5.3359Y-1.6357
X2.6587Y-3.2204
X6.0446Y-3.9881
X3.9186Y-3.8896
X4.0761Y-1.9802
X5.6548Y-2.4625
X3.2099Y-3.8896
X4.0761Y-1.3109
X3.3674Y-1.9802
X3.3674Y-2.6495
X4.9461Y-2.4625
X4.7847Y-1.8818
X6.0446Y-3.2204
X3.9186Y-2.305
X4.9461Y-1.7932
X2.6587Y-2.6495
X4.2375Y-2.4625
X3.5288Y-2.4625
X4.0761Y-1.8818
X5.3359Y-3.2204
X3.2099Y-2.305
X4.2375Y-3.8011
X2.8202Y-2.4625
X3.3674Y-1.8818
X5.3359Y-1.2125
X4.6272Y-2.5511
X6.0446Y-1.6357
X4.9422Y-4.3129
X2.6587Y-1.8818
X4.6272Y-1.2125
X5.3359Y-3.9881
X3.9186Y-2.5511
X5.4934Y-1.2125
X6.0446Y-2.1377
X3.9186Y-1.2125
X4.6272Y-3.9881
X4.9461Y-1.1239
X4.7847Y-1.2125
X4.0761Y-1.4684
X5.3359Y-2.1377
X2.6587Y-3.6436
X3.9186Y-3.9881
X4.2375Y-1.1239
X4.0761Y-1.2125
X3.3674Y-1.4684
X4.6272Y-2.1377
X5.4934Y-2.9743
X3.2099Y-2.4526
X3.5288Y-1.1239
X6.0446Y-4.1456
X3.9186Y-2.1377
X4.7847Y-2.9743
X6.0446Y-1.1141
X6.0446Y-1.7833
X4.7847Y-1.9802
X4.0761Y-4.1456
X5.3359Y-4.1456
X3.2099Y-2.1377
X3.3674Y-1.7833
X4.0761Y-2.9743
X5.3359Y-1.7833
X2.8162Y-3.6436
X3.3674Y-4.1456
X4.6272Y-4.1456
X6.0446Y-1.4684
X4.7847Y-3.7912
X2.6587Y-1.7833
X3.3674Y-2.9743
X3.2099Y-3.7912
X5.6548Y-3.8011
X5.6509Y-2.9743
X2.6587Y-4.1456
X3.9186Y-4.1456
X5.3359Y-1.4684
X4.0761Y-3.7912
X5.4934Y-1.1141
X2.6587Y-2.9743
X6.0446Y-3.1219
X5.4934Y-3.4763
X3.2099Y-4.1456
X3.3674Y-3.7912
X4.7847Y-1.1141
X5.4934Y-2.305
X4.7847Y-2.6495
X2.6587Y-3.9881
X4.7847Y-3.4763
X6.0446Y-3.4763
X2.6587Y-3.7912
X4.0761Y-1.1141
X4.7847Y-2.305
X5.4934Y-2.5511
X4.0761Y-2.6495
X5.4934Y-3.3188
X3.2099Y-2.9743
X4.0761Y-3.4763
X5.4934Y-3.1219
X3.3674Y-1.1141
X4.0761Y-2.305
X4.7847Y-2.5511
X6.0446Y-2.305
X2.8162Y-1.6357
X3.3674Y-3.4763
X3.3674Y-2.807
X4.7847Y-3.1219
X5.4934Y-4.3129
X3.3674Y-2.305
X3.9186Y-4.3129
X2.6587Y-3.4763
X2.6587Y-2.807
X5.3359Y-2.4526
X4.0761Y-3.1219
X4.7847Y-4.3129
X2.6587Y-2.305
X4.6272Y-3.2204
X5.3359Y-2.305
X3.5288Y-3.8011
X5.4934Y-2.807
X5.4934Y-2.1377
X4.6272Y-2.4526
X3.3674Y-3.1219
X4.0761Y-4.3129
X5.4934Y-1.6357
X3.9186Y-3.2204
X4.6272Y-2.305
X4.7847Y-2.807
X4.7847Y-2.1377
X3.9186Y-2.4526
X2.6587Y-3.1219
X4.7847Y-1.6357
X3.2099Y-3.2204
X3.2099Y-2.5511
X3.5288Y-3.1318
X5.4934Y-2.4526
X4.0761Y-1.6357
X2.8202Y-3.1318
X2.6587Y-1.4684
X4.7847Y-2.4526
X3.3674Y-1.6357
X3.2099Y-3.9881
X4.6272Y-1.7833
X5.3359Y-4.3129
X2.6587Y-1.9802
X2.6587Y-1.2125
X4.0761Y-2.4526
X6.0446Y-3.3188
X5.3359Y-3.6436
X3.9186Y-1.7833
X3.9186Y-3.7912
X5.4934Y-1.3109
X3.2099Y-1.4684
X3.5249Y-4.3129
X3.3674Y-2.4526
X5.3359Y-3.3188
X4.6272Y-3.6436
X4.7847Y-1.3109
X2.8162Y-4.3129
X2.6587Y-2.4526
X4.6272Y-3.3188
X4.6272Y-2.9743
X5.6509Y-3.6436
X3.9186Y-3.3188
X2.6587Y-1.1141
X4.9422Y-2.9743
X4.6272Y-1.4684
X3.2099Y-3.3188
X5.6548Y-1.7932
X4.2335Y-2.9743
X6.0446Y-2.6495
X3.9186Y-3.6436
X3.5249Y-2.9743
X5.3359Y-3.4763
X5.3359Y-2.6495
X3.2099Y-3.6436
X2.8162Y-2.9743
X4.6272Y-3.4763
X4.0761Y-2.5511
X4.6272Y-2.6495
X3.2099Y-3.1219
X6.0446Y-2.9743
X5.6509Y-2.305
X3.3674Y-2.5511
X3.9186Y-2.6495
X6.0446Y-2.4526
X5.4934Y-3.9881
X4.7847Y-3.3188
X4.9422Y-2.305
X2.6587Y-2.5511
X3.2099Y-2.6495
X4.7847Y-3.9881
X4.0761Y-3.3188
X4.2335Y-2.305
X3.3674Y-4.3129
X6.0446Y-1.9802
X4.0761Y-3.9881
X3.3674Y-3.3188
X3.5249Y-2.305
X4.0761Y-2.807
X4.0761Y-2.1377
X4.6272Y-1.6357
X2.6587Y-4.3129
X5.3359Y-1.9802
X6.0446Y-2.5511
X6.0446Y-1.8818
X2.8162Y-2.305
X3.3674Y-2.1377
X3.9186Y-1.6357
X5.4934Y-3.6436
X4.6272Y-1.9802
X5.3359Y-1.8818
X3.3674Y-1.3109
X3.3674Y-1.2125
X5.6509Y-1.6357
X4.7847Y-3.6436
X5.4934Y-3.8896
X4.6272Y-1.8818
X6.0446Y-4.3129
X4.6272Y-4.3129
X5.6509Y-4.3129
X4.9422Y-1.6357
X4.7847Y-3.8896
X3.9186Y-1.8818
X3.2099Y-1.7833
X3.2099Y-1.2125
X4.2335Y-1.6357
X4.0761Y-3.8896
X3.2099Y-1.8818
X2.6587Y-3.3188
X3.3674Y-3.9881
X3.2099Y-1.3109
X4.9461Y-3.8011
X3.5249Y-1.6357
X3.3674Y-3.8896
X5.4934Y-2.6495
X2.6587Y-1.3109
X4.9422Y-3.6436
X5.4934Y-4.1456
X4.2335Y-3.6436
X4.7847Y-4.1456
X3.9186Y-1.4684
X3.9186Y-1.1141
X5.4934Y-3.7912
X5.3359Y-1.1141
X2.8202Y-3.8011
X3.9186Y-3.4763
X4.6272Y-1.1141
X5.6548Y-3.1318
X2.8202Y-1.7932
X3.2099Y-3.4763
X5.6548Y-1.1239
X3.9186Y-2.9743
X5.4934Y-1.8818
X6.0446Y-2.807
X5.3359Y-2.807
X4.6272Y-2.807
X6.0446Y-1.2125
X5.3359Y-2.5511
X2.6587Y-2.1377
X3.9186Y-2.807
X3.9186Y-1.9802
X5.3359Y-2.9743
X5.4934Y-1.4684
X3.2099Y-2.807
X6.0446Y-3.7912
X4.0761Y-3.6436
X3.2099Y-1.9802
X3.2099Y-4.3129
X4.7847Y-1.4684
X5.3359Y-3.7912
X3.3674Y-3.6436
X6.0446Y-1.3109
X6.0446Y-3.6436
X4.2375Y-1.7932
T3
X5.5682Y-2.2125
X5.769Y-2.2912
X3.4422Y-1.5432
X3.643Y-1.6219
X2.7335Y-4.2204
X2.9343Y-4.2991
X2.7335Y-3.5511
X2.9343Y-3.6298
X4.8595Y-4.2204
X5.0603Y-4.2991
X4.1509Y-3.5511
X4.3517Y-3.6298
X3.4422Y-3.5511
X3.643Y-3.6298
X4.1509Y-2.8818
X4.3517Y-2.9605
X2.7335Y-1.5432
X2.9343Y-1.6219
X4.8595Y-3.5511
X5.0603Y-3.6298
X5.5682Y-2.8818
X5.769Y-2.9605
X5.5682Y-3.5511
X5.769Y-3.6298
X3.4422Y-2.8818
X3.643Y-2.9605
X4.1509Y-2.2125
X4.3517Y-2.2912
X3.4422Y-4.2204
X3.643Y-4.2991
X4.8595Y-2.2125
X5.0603Y-2.2912
X5.5682Y-4.2204
X5.769Y-4.2991
X2.7335Y-2.8818
X2.9343Y-2.9605
X3.4422Y-2.2125
X3.643Y-2.2912
X4.8595Y-1.5432
X5.0603Y-1.6219
X4.1509Y-4.2204
X4.3517Y-4.2991
X5.5682Y-1.5432
X5.769Y-1.6219
X4.8595Y-2.8818
X5.0603Y-2.9605
X2.7335Y-2.2125
X2.9343Y-2.2912
X4.1509Y-1.5432
X4.3517Y-1.6219
T4
X5.9745Y-1.8936
X3.8485Y-1.2243
X3.1398Y-3.9015
X3.1398Y-3.2322
X5.2658Y-3.9015
X4.5572Y-3.2322
X3.8485Y-3.2322
X4.5572Y-2.5629
X3.1398Y-1.2243
X5.2658Y-3.2322
X5.9745Y-2.5629
X5.9745Y-3.2322
X3.8485Y-2.5629
X4.5572Y-1.8936
X3.8485Y-3.9015
X5.2658Y-1.8936
X5.9745Y-3.9015
X3.1398Y-2.5629
X3.8485Y-1.8936
X5.2658Y-1.2243
X4.5572Y-3.9015
X5.9745Y-1.2243
X5.2658Y-2.5629
X3.1398Y-1.8936
X4.5572Y-1.2243
T5
X5.5524Y-4.0668
X5.9855Y-4.0668
X2.7178Y-2.7282
X3.1509Y-2.7282
X3.4265Y-2.0589
X3.8595Y-2.0589
X4.8438Y-1.3896
X5.2769Y-1.3896
X4.1351Y-4.0668
X4.5682Y-4.0668
X5.5524Y-1.3896
X5.9855Y-1.3896
X4.8438Y-2.7282
X5.2769Y-2.7282
X2.7178Y-2.0589
X3.1509Y-2.0589
X4.1351Y-1.3896
X4.5682Y-1.3896
X5.5524Y-2.0589
X5.9855Y-2.0589
X3.4265Y-1.3896
X3.8595Y-1.3896
X2.7178Y-4.0668
X3.1509Y-4.0668
X2.7178Y-3.3975
X3.1509Y-3.3975
X4.8438Y-4.0668
X5.2769Y-4.0668
X4.1351Y-3.3975
X4.5682Y-3.3975
X3.4265Y-3.3975
X3.8595Y-3.3975
X4.1351Y-2.7282
X4.5682Y-2.7282
X2.7178Y-1.3896
X3.1509Y-1.3896
X4.8438Y-3.3975
X5.2769Y-3.3975
X5.5524Y-2.7282
X5.9855Y-2.7282
X5.5524Y-3.3975
X5.9855Y-3.3975
X3.4265Y-2.7282
X3.8595Y-2.7282
X4.1351Y-2.0589
X4.5682Y-2.0589
X3.4265Y-4.0668
X3.8595Y-4.0668
X4.8438Y-2.0589
X5.2769Y-2.0589
T6
X5.769Y-4.0668
X2.9343Y-2.7282
X3.643Y-2.0589
X5.0603Y-1.3896
X4.3517Y-4.0668
X5.769Y-1.3896
X5.0603Y-2.7282
X2.9343Y-2.0589
X4.3517Y-1.3896
X5.769Y-2.0589
X3.643Y-1.3896
X2.9343Y-4.0668
X2.9343Y-3.3975
X5.0603Y-4.0668
X4.3517Y-3.3975
X3.643Y-3.3975
X4.3517Y-2.7282
X2.9343Y-1.3896
X5.0603Y-3.3975
X5.769Y-2.7282
X5.769Y-3.3975
X3.643Y-2.7282
X4.3517Y-2.0589
X3.643Y-4.0668
X5.0603Y-2.0589
T0
M30
