G04 #@! TF.GenerationSoftware,KiCad,Pcbnew,5.0.2-bee76a0~70~ubuntu18.04.1*
G04 #@! TF.CreationDate,2020-02-01T05:09:22+09:00*
G04 #@! TF.ProjectId,choc,63686f63-2e6b-4696-9361-645f70636258,rev?*
G04 #@! TF.SameCoordinates,Original*
G04 #@! TF.FileFunction,Legend,Bot*
G04 #@! TF.FilePolarity,Positive*
%FSLAX46Y46*%
G04 Gerber Fmt 4.6, Leading zero omitted, Abs format (unit mm)*
G04 Created by KiCad (PCBNEW 5.0.2-bee76a0~70~ubuntu18.04.1) date 2020年02月01日 05時09分22秒*
%MOMM*%
%LPD*%
G01*
G04 APERTURE LIST*
%ADD10C,0.200000*%
%ADD11C,0.150000*%
%ADD12R,1.402000X1.052000*%
%ADD13C,2.302000*%
%ADD14C,4.102000*%
%ADD15C,2.002000*%
%ADD16C,1.102000*%
%ADD17R,1.902000X0.922000*%
%ADD18C,1.902000*%
G04 APERTURE END LIST*
D10*
X145160571Y-96725571D02*
X145217714Y-96782714D01*
X145389142Y-96839857D01*
X145503428Y-96839857D01*
X145674857Y-96782714D01*
X145789142Y-96668428D01*
X145846285Y-96554142D01*
X145903428Y-96325571D01*
X145903428Y-96154142D01*
X145846285Y-95925571D01*
X145789142Y-95811285D01*
X145674857Y-95697000D01*
X145503428Y-95639857D01*
X145389142Y-95639857D01*
X145217714Y-95697000D01*
X145160571Y-95754142D01*
X127160571Y-96725571D02*
X127217714Y-96782714D01*
X127389142Y-96839857D01*
X127503428Y-96839857D01*
X127674857Y-96782714D01*
X127789142Y-96668428D01*
X127846285Y-96554142D01*
X127903428Y-96325571D01*
X127903428Y-96154142D01*
X127846285Y-95925571D01*
X127789142Y-95811285D01*
X127674857Y-95697000D01*
X127503428Y-95639857D01*
X127389142Y-95639857D01*
X127217714Y-95697000D01*
X127160571Y-95754142D01*
X109160571Y-96725571D02*
X109217714Y-96782714D01*
X109389142Y-96839857D01*
X109503428Y-96839857D01*
X109674857Y-96782714D01*
X109789142Y-96668428D01*
X109846285Y-96554142D01*
X109903428Y-96325571D01*
X109903428Y-96154142D01*
X109846285Y-95925571D01*
X109789142Y-95811285D01*
X109674857Y-95697000D01*
X109503428Y-95639857D01*
X109389142Y-95639857D01*
X109217714Y-95697000D01*
X109160571Y-95754142D01*
X91160571Y-96725571D02*
X91217714Y-96782714D01*
X91389142Y-96839857D01*
X91503428Y-96839857D01*
X91674857Y-96782714D01*
X91789142Y-96668428D01*
X91846285Y-96554142D01*
X91903428Y-96325571D01*
X91903428Y-96154142D01*
X91846285Y-95925571D01*
X91789142Y-95811285D01*
X91674857Y-95697000D01*
X91503428Y-95639857D01*
X91389142Y-95639857D01*
X91217714Y-95697000D01*
X91160571Y-95754142D01*
X73160571Y-96725571D02*
X73217714Y-96782714D01*
X73389142Y-96839857D01*
X73503428Y-96839857D01*
X73674857Y-96782714D01*
X73789142Y-96668428D01*
X73846285Y-96554142D01*
X73903428Y-96325571D01*
X73903428Y-96154142D01*
X73846285Y-95925571D01*
X73789142Y-95811285D01*
X73674857Y-95697000D01*
X73503428Y-95639857D01*
X73389142Y-95639857D01*
X73217714Y-95697000D01*
X73160571Y-95754142D01*
X145160571Y-79725571D02*
X145217714Y-79782714D01*
X145389142Y-79839857D01*
X145503428Y-79839857D01*
X145674857Y-79782714D01*
X145789142Y-79668428D01*
X145846285Y-79554142D01*
X145903428Y-79325571D01*
X145903428Y-79154142D01*
X145846285Y-78925571D01*
X145789142Y-78811285D01*
X145674857Y-78697000D01*
X145503428Y-78639857D01*
X145389142Y-78639857D01*
X145217714Y-78697000D01*
X145160571Y-78754142D01*
X127160571Y-79725571D02*
X127217714Y-79782714D01*
X127389142Y-79839857D01*
X127503428Y-79839857D01*
X127674857Y-79782714D01*
X127789142Y-79668428D01*
X127846285Y-79554142D01*
X127903428Y-79325571D01*
X127903428Y-79154142D01*
X127846285Y-78925571D01*
X127789142Y-78811285D01*
X127674857Y-78697000D01*
X127503428Y-78639857D01*
X127389142Y-78639857D01*
X127217714Y-78697000D01*
X127160571Y-78754142D01*
X109160571Y-79725571D02*
X109217714Y-79782714D01*
X109389142Y-79839857D01*
X109503428Y-79839857D01*
X109674857Y-79782714D01*
X109789142Y-79668428D01*
X109846285Y-79554142D01*
X109903428Y-79325571D01*
X109903428Y-79154142D01*
X109846285Y-78925571D01*
X109789142Y-78811285D01*
X109674857Y-78697000D01*
X109503428Y-78639857D01*
X109389142Y-78639857D01*
X109217714Y-78697000D01*
X109160571Y-78754142D01*
X91160571Y-79725571D02*
X91217714Y-79782714D01*
X91389142Y-79839857D01*
X91503428Y-79839857D01*
X91674857Y-79782714D01*
X91789142Y-79668428D01*
X91846285Y-79554142D01*
X91903428Y-79325571D01*
X91903428Y-79154142D01*
X91846285Y-78925571D01*
X91789142Y-78811285D01*
X91674857Y-78697000D01*
X91503428Y-78639857D01*
X91389142Y-78639857D01*
X91217714Y-78697000D01*
X91160571Y-78754142D01*
X73160571Y-79725571D02*
X73217714Y-79782714D01*
X73389142Y-79839857D01*
X73503428Y-79839857D01*
X73674857Y-79782714D01*
X73789142Y-79668428D01*
X73846285Y-79554142D01*
X73903428Y-79325571D01*
X73903428Y-79154142D01*
X73846285Y-78925571D01*
X73789142Y-78811285D01*
X73674857Y-78697000D01*
X73503428Y-78639857D01*
X73389142Y-78639857D01*
X73217714Y-78697000D01*
X73160571Y-78754142D01*
X145160571Y-62725571D02*
X145217714Y-62782714D01*
X145389142Y-62839857D01*
X145503428Y-62839857D01*
X145674857Y-62782714D01*
X145789142Y-62668428D01*
X145846285Y-62554142D01*
X145903428Y-62325571D01*
X145903428Y-62154142D01*
X145846285Y-61925571D01*
X145789142Y-61811285D01*
X145674857Y-61697000D01*
X145503428Y-61639857D01*
X145389142Y-61639857D01*
X145217714Y-61697000D01*
X145160571Y-61754142D01*
X127160571Y-62725571D02*
X127217714Y-62782714D01*
X127389142Y-62839857D01*
X127503428Y-62839857D01*
X127674857Y-62782714D01*
X127789142Y-62668428D01*
X127846285Y-62554142D01*
X127903428Y-62325571D01*
X127903428Y-62154142D01*
X127846285Y-61925571D01*
X127789142Y-61811285D01*
X127674857Y-61697000D01*
X127503428Y-61639857D01*
X127389142Y-61639857D01*
X127217714Y-61697000D01*
X127160571Y-61754142D01*
X109160571Y-62725571D02*
X109217714Y-62782714D01*
X109389142Y-62839857D01*
X109503428Y-62839857D01*
X109674857Y-62782714D01*
X109789142Y-62668428D01*
X109846285Y-62554142D01*
X109903428Y-62325571D01*
X109903428Y-62154142D01*
X109846285Y-61925571D01*
X109789142Y-61811285D01*
X109674857Y-61697000D01*
X109503428Y-61639857D01*
X109389142Y-61639857D01*
X109217714Y-61697000D01*
X109160571Y-61754142D01*
X91160571Y-62725571D02*
X91217714Y-62782714D01*
X91389142Y-62839857D01*
X91503428Y-62839857D01*
X91674857Y-62782714D01*
X91789142Y-62668428D01*
X91846285Y-62554142D01*
X91903428Y-62325571D01*
X91903428Y-62154142D01*
X91846285Y-61925571D01*
X91789142Y-61811285D01*
X91674857Y-61697000D01*
X91503428Y-61639857D01*
X91389142Y-61639857D01*
X91217714Y-61697000D01*
X91160571Y-61754142D01*
X73160571Y-62725571D02*
X73217714Y-62782714D01*
X73389142Y-62839857D01*
X73503428Y-62839857D01*
X73674857Y-62782714D01*
X73789142Y-62668428D01*
X73846285Y-62554142D01*
X73903428Y-62325571D01*
X73903428Y-62154142D01*
X73846285Y-61925571D01*
X73789142Y-61811285D01*
X73674857Y-61697000D01*
X73503428Y-61639857D01*
X73389142Y-61639857D01*
X73217714Y-61697000D01*
X73160571Y-61754142D01*
X145160571Y-45725571D02*
X145217714Y-45782714D01*
X145389142Y-45839857D01*
X145503428Y-45839857D01*
X145674857Y-45782714D01*
X145789142Y-45668428D01*
X145846285Y-45554142D01*
X145903428Y-45325571D01*
X145903428Y-45154142D01*
X145846285Y-44925571D01*
X145789142Y-44811285D01*
X145674857Y-44697000D01*
X145503428Y-44639857D01*
X145389142Y-44639857D01*
X145217714Y-44697000D01*
X145160571Y-44754142D01*
X127160571Y-45725571D02*
X127217714Y-45782714D01*
X127389142Y-45839857D01*
X127503428Y-45839857D01*
X127674857Y-45782714D01*
X127789142Y-45668428D01*
X127846285Y-45554142D01*
X127903428Y-45325571D01*
X127903428Y-45154142D01*
X127846285Y-44925571D01*
X127789142Y-44811285D01*
X127674857Y-44697000D01*
X127503428Y-44639857D01*
X127389142Y-44639857D01*
X127217714Y-44697000D01*
X127160571Y-44754142D01*
X109160571Y-45725571D02*
X109217714Y-45782714D01*
X109389142Y-45839857D01*
X109503428Y-45839857D01*
X109674857Y-45782714D01*
X109789142Y-45668428D01*
X109846285Y-45554142D01*
X109903428Y-45325571D01*
X109903428Y-45154142D01*
X109846285Y-44925571D01*
X109789142Y-44811285D01*
X109674857Y-44697000D01*
X109503428Y-44639857D01*
X109389142Y-44639857D01*
X109217714Y-44697000D01*
X109160571Y-44754142D01*
X91160571Y-45725571D02*
X91217714Y-45782714D01*
X91389142Y-45839857D01*
X91503428Y-45839857D01*
X91674857Y-45782714D01*
X91789142Y-45668428D01*
X91846285Y-45554142D01*
X91903428Y-45325571D01*
X91903428Y-45154142D01*
X91846285Y-44925571D01*
X91789142Y-44811285D01*
X91674857Y-44697000D01*
X91503428Y-44639857D01*
X91389142Y-44639857D01*
X91217714Y-44697000D01*
X91160571Y-44754142D01*
X73160571Y-45725571D02*
X73217714Y-45782714D01*
X73389142Y-45839857D01*
X73503428Y-45839857D01*
X73674857Y-45782714D01*
X73789142Y-45668428D01*
X73846285Y-45554142D01*
X73903428Y-45325571D01*
X73903428Y-45154142D01*
X73846285Y-44925571D01*
X73789142Y-44811285D01*
X73674857Y-44697000D01*
X73503428Y-44639857D01*
X73389142Y-44639857D01*
X73217714Y-44697000D01*
X73160571Y-44754142D01*
X145160571Y-28725571D02*
X145217714Y-28782714D01*
X145389142Y-28839857D01*
X145503428Y-28839857D01*
X145674857Y-28782714D01*
X145789142Y-28668428D01*
X145846285Y-28554142D01*
X145903428Y-28325571D01*
X145903428Y-28154142D01*
X145846285Y-27925571D01*
X145789142Y-27811285D01*
X145674857Y-27697000D01*
X145503428Y-27639857D01*
X145389142Y-27639857D01*
X145217714Y-27697000D01*
X145160571Y-27754142D01*
X127160571Y-28725571D02*
X127217714Y-28782714D01*
X127389142Y-28839857D01*
X127503428Y-28839857D01*
X127674857Y-28782714D01*
X127789142Y-28668428D01*
X127846285Y-28554142D01*
X127903428Y-28325571D01*
X127903428Y-28154142D01*
X127846285Y-27925571D01*
X127789142Y-27811285D01*
X127674857Y-27697000D01*
X127503428Y-27639857D01*
X127389142Y-27639857D01*
X127217714Y-27697000D01*
X127160571Y-27754142D01*
X109160571Y-28725571D02*
X109217714Y-28782714D01*
X109389142Y-28839857D01*
X109503428Y-28839857D01*
X109674857Y-28782714D01*
X109789142Y-28668428D01*
X109846285Y-28554142D01*
X109903428Y-28325571D01*
X109903428Y-28154142D01*
X109846285Y-27925571D01*
X109789142Y-27811285D01*
X109674857Y-27697000D01*
X109503428Y-27639857D01*
X109389142Y-27639857D01*
X109217714Y-27697000D01*
X109160571Y-27754142D01*
X91160571Y-28725571D02*
X91217714Y-28782714D01*
X91389142Y-28839857D01*
X91503428Y-28839857D01*
X91674857Y-28782714D01*
X91789142Y-28668428D01*
X91846285Y-28554142D01*
X91903428Y-28325571D01*
X91903428Y-28154142D01*
X91846285Y-27925571D01*
X91789142Y-27811285D01*
X91674857Y-27697000D01*
X91503428Y-27639857D01*
X91389142Y-27639857D01*
X91217714Y-27697000D01*
X91160571Y-27754142D01*
X152132000Y-105839857D02*
X152132000Y-104639857D01*
X151846285Y-104639857D01*
X151674857Y-104697000D01*
X151560571Y-104811285D01*
X151503428Y-104925571D01*
X151446285Y-105154142D01*
X151446285Y-105325571D01*
X151503428Y-105554142D01*
X151560571Y-105668428D01*
X151674857Y-105782714D01*
X151846285Y-105839857D01*
X152132000Y-105839857D01*
X150932000Y-105839857D02*
X150932000Y-104639857D01*
X134132000Y-105839857D02*
X134132000Y-104639857D01*
X133846285Y-104639857D01*
X133674857Y-104697000D01*
X133560571Y-104811285D01*
X133503428Y-104925571D01*
X133446285Y-105154142D01*
X133446285Y-105325571D01*
X133503428Y-105554142D01*
X133560571Y-105668428D01*
X133674857Y-105782714D01*
X133846285Y-105839857D01*
X134132000Y-105839857D01*
X132932000Y-105839857D02*
X132932000Y-104639857D01*
X116132000Y-105839857D02*
X116132000Y-104639857D01*
X115846285Y-104639857D01*
X115674857Y-104697000D01*
X115560571Y-104811285D01*
X115503428Y-104925571D01*
X115446285Y-105154142D01*
X115446285Y-105325571D01*
X115503428Y-105554142D01*
X115560571Y-105668428D01*
X115674857Y-105782714D01*
X115846285Y-105839857D01*
X116132000Y-105839857D01*
X114932000Y-105839857D02*
X114932000Y-104639857D01*
X98132000Y-105839857D02*
X98132000Y-104639857D01*
X97846285Y-104639857D01*
X97674857Y-104697000D01*
X97560571Y-104811285D01*
X97503428Y-104925571D01*
X97446285Y-105154142D01*
X97446285Y-105325571D01*
X97503428Y-105554142D01*
X97560571Y-105668428D01*
X97674857Y-105782714D01*
X97846285Y-105839857D01*
X98132000Y-105839857D01*
X96932000Y-105839857D02*
X96932000Y-104639857D01*
X80132000Y-105839857D02*
X80132000Y-104639857D01*
X79846285Y-104639857D01*
X79674857Y-104697000D01*
X79560571Y-104811285D01*
X79503428Y-104925571D01*
X79446285Y-105154142D01*
X79446285Y-105325571D01*
X79503428Y-105554142D01*
X79560571Y-105668428D01*
X79674857Y-105782714D01*
X79846285Y-105839857D01*
X80132000Y-105839857D01*
X78932000Y-105839857D02*
X78932000Y-104639857D01*
X152132000Y-88839857D02*
X152132000Y-87639857D01*
X151846285Y-87639857D01*
X151674857Y-87697000D01*
X151560571Y-87811285D01*
X151503428Y-87925571D01*
X151446285Y-88154142D01*
X151446285Y-88325571D01*
X151503428Y-88554142D01*
X151560571Y-88668428D01*
X151674857Y-88782714D01*
X151846285Y-88839857D01*
X152132000Y-88839857D01*
X150932000Y-88839857D02*
X150932000Y-87639857D01*
X134132000Y-88839857D02*
X134132000Y-87639857D01*
X133846285Y-87639857D01*
X133674857Y-87697000D01*
X133560571Y-87811285D01*
X133503428Y-87925571D01*
X133446285Y-88154142D01*
X133446285Y-88325571D01*
X133503428Y-88554142D01*
X133560571Y-88668428D01*
X133674857Y-88782714D01*
X133846285Y-88839857D01*
X134132000Y-88839857D01*
X132932000Y-88839857D02*
X132932000Y-87639857D01*
X116132000Y-88839857D02*
X116132000Y-87639857D01*
X115846285Y-87639857D01*
X115674857Y-87697000D01*
X115560571Y-87811285D01*
X115503428Y-87925571D01*
X115446285Y-88154142D01*
X115446285Y-88325571D01*
X115503428Y-88554142D01*
X115560571Y-88668428D01*
X115674857Y-88782714D01*
X115846285Y-88839857D01*
X116132000Y-88839857D01*
X114932000Y-88839857D02*
X114932000Y-87639857D01*
X98132000Y-88839857D02*
X98132000Y-87639857D01*
X97846285Y-87639857D01*
X97674857Y-87697000D01*
X97560571Y-87811285D01*
X97503428Y-87925571D01*
X97446285Y-88154142D01*
X97446285Y-88325571D01*
X97503428Y-88554142D01*
X97560571Y-88668428D01*
X97674857Y-88782714D01*
X97846285Y-88839857D01*
X98132000Y-88839857D01*
X96932000Y-88839857D02*
X96932000Y-87639857D01*
X80132000Y-88839857D02*
X80132000Y-87639857D01*
X79846285Y-87639857D01*
X79674857Y-87697000D01*
X79560571Y-87811285D01*
X79503428Y-87925571D01*
X79446285Y-88154142D01*
X79446285Y-88325571D01*
X79503428Y-88554142D01*
X79560571Y-88668428D01*
X79674857Y-88782714D01*
X79846285Y-88839857D01*
X80132000Y-88839857D01*
X78932000Y-88839857D02*
X78932000Y-87639857D01*
X152132000Y-71839857D02*
X152132000Y-70639857D01*
X151846285Y-70639857D01*
X151674857Y-70697000D01*
X151560571Y-70811285D01*
X151503428Y-70925571D01*
X151446285Y-71154142D01*
X151446285Y-71325571D01*
X151503428Y-71554142D01*
X151560571Y-71668428D01*
X151674857Y-71782714D01*
X151846285Y-71839857D01*
X152132000Y-71839857D01*
X150932000Y-71839857D02*
X150932000Y-70639857D01*
X134132000Y-71839857D02*
X134132000Y-70639857D01*
X133846285Y-70639857D01*
X133674857Y-70697000D01*
X133560571Y-70811285D01*
X133503428Y-70925571D01*
X133446285Y-71154142D01*
X133446285Y-71325571D01*
X133503428Y-71554142D01*
X133560571Y-71668428D01*
X133674857Y-71782714D01*
X133846285Y-71839857D01*
X134132000Y-71839857D01*
X132932000Y-71839857D02*
X132932000Y-70639857D01*
X116132000Y-71839857D02*
X116132000Y-70639857D01*
X115846285Y-70639857D01*
X115674857Y-70697000D01*
X115560571Y-70811285D01*
X115503428Y-70925571D01*
X115446285Y-71154142D01*
X115446285Y-71325571D01*
X115503428Y-71554142D01*
X115560571Y-71668428D01*
X115674857Y-71782714D01*
X115846285Y-71839857D01*
X116132000Y-71839857D01*
X114932000Y-71839857D02*
X114932000Y-70639857D01*
X98132000Y-71839857D02*
X98132000Y-70639857D01*
X97846285Y-70639857D01*
X97674857Y-70697000D01*
X97560571Y-70811285D01*
X97503428Y-70925571D01*
X97446285Y-71154142D01*
X97446285Y-71325571D01*
X97503428Y-71554142D01*
X97560571Y-71668428D01*
X97674857Y-71782714D01*
X97846285Y-71839857D01*
X98132000Y-71839857D01*
X96932000Y-71839857D02*
X96932000Y-70639857D01*
X80132000Y-71839857D02*
X80132000Y-70639857D01*
X79846285Y-70639857D01*
X79674857Y-70697000D01*
X79560571Y-70811285D01*
X79503428Y-70925571D01*
X79446285Y-71154142D01*
X79446285Y-71325571D01*
X79503428Y-71554142D01*
X79560571Y-71668428D01*
X79674857Y-71782714D01*
X79846285Y-71839857D01*
X80132000Y-71839857D01*
X78932000Y-71839857D02*
X78932000Y-70639857D01*
X152132000Y-54839857D02*
X152132000Y-53639857D01*
X151846285Y-53639857D01*
X151674857Y-53697000D01*
X151560571Y-53811285D01*
X151503428Y-53925571D01*
X151446285Y-54154142D01*
X151446285Y-54325571D01*
X151503428Y-54554142D01*
X151560571Y-54668428D01*
X151674857Y-54782714D01*
X151846285Y-54839857D01*
X152132000Y-54839857D01*
X150932000Y-54839857D02*
X150932000Y-53639857D01*
X134132000Y-54839857D02*
X134132000Y-53639857D01*
X133846285Y-53639857D01*
X133674857Y-53697000D01*
X133560571Y-53811285D01*
X133503428Y-53925571D01*
X133446285Y-54154142D01*
X133446285Y-54325571D01*
X133503428Y-54554142D01*
X133560571Y-54668428D01*
X133674857Y-54782714D01*
X133846285Y-54839857D01*
X134132000Y-54839857D01*
X132932000Y-54839857D02*
X132932000Y-53639857D01*
X116132000Y-54839857D02*
X116132000Y-53639857D01*
X115846285Y-53639857D01*
X115674857Y-53697000D01*
X115560571Y-53811285D01*
X115503428Y-53925571D01*
X115446285Y-54154142D01*
X115446285Y-54325571D01*
X115503428Y-54554142D01*
X115560571Y-54668428D01*
X115674857Y-54782714D01*
X115846285Y-54839857D01*
X116132000Y-54839857D01*
X114932000Y-54839857D02*
X114932000Y-53639857D01*
X98132000Y-54839857D02*
X98132000Y-53639857D01*
X97846285Y-53639857D01*
X97674857Y-53697000D01*
X97560571Y-53811285D01*
X97503428Y-53925571D01*
X97446285Y-54154142D01*
X97446285Y-54325571D01*
X97503428Y-54554142D01*
X97560571Y-54668428D01*
X97674857Y-54782714D01*
X97846285Y-54839857D01*
X98132000Y-54839857D01*
X96932000Y-54839857D02*
X96932000Y-53639857D01*
X80132000Y-54839857D02*
X80132000Y-53639857D01*
X79846285Y-53639857D01*
X79674857Y-53697000D01*
X79560571Y-53811285D01*
X79503428Y-53925571D01*
X79446285Y-54154142D01*
X79446285Y-54325571D01*
X79503428Y-54554142D01*
X79560571Y-54668428D01*
X79674857Y-54782714D01*
X79846285Y-54839857D01*
X80132000Y-54839857D01*
X78932000Y-54839857D02*
X78932000Y-53639857D01*
X152132000Y-37839857D02*
X152132000Y-36639857D01*
X151846285Y-36639857D01*
X151674857Y-36697000D01*
X151560571Y-36811285D01*
X151503428Y-36925571D01*
X151446285Y-37154142D01*
X151446285Y-37325571D01*
X151503428Y-37554142D01*
X151560571Y-37668428D01*
X151674857Y-37782714D01*
X151846285Y-37839857D01*
X152132000Y-37839857D01*
X150932000Y-37839857D02*
X150932000Y-36639857D01*
X134132000Y-37839857D02*
X134132000Y-36639857D01*
X133846285Y-36639857D01*
X133674857Y-36697000D01*
X133560571Y-36811285D01*
X133503428Y-36925571D01*
X133446285Y-37154142D01*
X133446285Y-37325571D01*
X133503428Y-37554142D01*
X133560571Y-37668428D01*
X133674857Y-37782714D01*
X133846285Y-37839857D01*
X134132000Y-37839857D01*
X132932000Y-37839857D02*
X132932000Y-36639857D01*
X116132000Y-37839857D02*
X116132000Y-36639857D01*
X115846285Y-36639857D01*
X115674857Y-36697000D01*
X115560571Y-36811285D01*
X115503428Y-36925571D01*
X115446285Y-37154142D01*
X115446285Y-37325571D01*
X115503428Y-37554142D01*
X115560571Y-37668428D01*
X115674857Y-37782714D01*
X115846285Y-37839857D01*
X116132000Y-37839857D01*
X114932000Y-37839857D02*
X114932000Y-36639857D01*
X98132000Y-37839857D02*
X98132000Y-36639857D01*
X97846285Y-36639857D01*
X97674857Y-36697000D01*
X97560571Y-36811285D01*
X97503428Y-36925571D01*
X97446285Y-37154142D01*
X97446285Y-37325571D01*
X97503428Y-37554142D01*
X97560571Y-37668428D01*
X97674857Y-37782714D01*
X97846285Y-37839857D01*
X98132000Y-37839857D01*
X96932000Y-37839857D02*
X96932000Y-36639857D01*
X142132000Y-99339857D02*
X142132000Y-98139857D01*
X141846285Y-98139857D01*
X141674857Y-98197000D01*
X141560571Y-98311285D01*
X141503428Y-98425571D01*
X141446285Y-98654142D01*
X141446285Y-98825571D01*
X141503428Y-99054142D01*
X141560571Y-99168428D01*
X141674857Y-99282714D01*
X141846285Y-99339857D01*
X142132000Y-99339857D01*
X140932000Y-99339857D02*
X140932000Y-98139857D01*
X124132000Y-99339857D02*
X124132000Y-98139857D01*
X123846285Y-98139857D01*
X123674857Y-98197000D01*
X123560571Y-98311285D01*
X123503428Y-98425571D01*
X123446285Y-98654142D01*
X123446285Y-98825571D01*
X123503428Y-99054142D01*
X123560571Y-99168428D01*
X123674857Y-99282714D01*
X123846285Y-99339857D01*
X124132000Y-99339857D01*
X122932000Y-99339857D02*
X122932000Y-98139857D01*
X106132000Y-99339857D02*
X106132000Y-98139857D01*
X105846285Y-98139857D01*
X105674857Y-98197000D01*
X105560571Y-98311285D01*
X105503428Y-98425571D01*
X105446285Y-98654142D01*
X105446285Y-98825571D01*
X105503428Y-99054142D01*
X105560571Y-99168428D01*
X105674857Y-99282714D01*
X105846285Y-99339857D01*
X106132000Y-99339857D01*
X104932000Y-99339857D02*
X104932000Y-98139857D01*
X88132000Y-99339857D02*
X88132000Y-98139857D01*
X87846285Y-98139857D01*
X87674857Y-98197000D01*
X87560571Y-98311285D01*
X87503428Y-98425571D01*
X87446285Y-98654142D01*
X87446285Y-98825571D01*
X87503428Y-99054142D01*
X87560571Y-99168428D01*
X87674857Y-99282714D01*
X87846285Y-99339857D01*
X88132000Y-99339857D01*
X86932000Y-99339857D02*
X86932000Y-98139857D01*
X70132000Y-99339857D02*
X70132000Y-98139857D01*
X69846285Y-98139857D01*
X69674857Y-98197000D01*
X69560571Y-98311285D01*
X69503428Y-98425571D01*
X69446285Y-98654142D01*
X69446285Y-98825571D01*
X69503428Y-99054142D01*
X69560571Y-99168428D01*
X69674857Y-99282714D01*
X69846285Y-99339857D01*
X70132000Y-99339857D01*
X68932000Y-99339857D02*
X68932000Y-98139857D01*
X142132000Y-82339857D02*
X142132000Y-81139857D01*
X141846285Y-81139857D01*
X141674857Y-81197000D01*
X141560571Y-81311285D01*
X141503428Y-81425571D01*
X141446285Y-81654142D01*
X141446285Y-81825571D01*
X141503428Y-82054142D01*
X141560571Y-82168428D01*
X141674857Y-82282714D01*
X141846285Y-82339857D01*
X142132000Y-82339857D01*
X140932000Y-82339857D02*
X140932000Y-81139857D01*
X124132000Y-82339857D02*
X124132000Y-81139857D01*
X123846285Y-81139857D01*
X123674857Y-81197000D01*
X123560571Y-81311285D01*
X123503428Y-81425571D01*
X123446285Y-81654142D01*
X123446285Y-81825571D01*
X123503428Y-82054142D01*
X123560571Y-82168428D01*
X123674857Y-82282714D01*
X123846285Y-82339857D01*
X124132000Y-82339857D01*
X122932000Y-82339857D02*
X122932000Y-81139857D01*
X106132000Y-82339857D02*
X106132000Y-81139857D01*
X105846285Y-81139857D01*
X105674857Y-81197000D01*
X105560571Y-81311285D01*
X105503428Y-81425571D01*
X105446285Y-81654142D01*
X105446285Y-81825571D01*
X105503428Y-82054142D01*
X105560571Y-82168428D01*
X105674857Y-82282714D01*
X105846285Y-82339857D01*
X106132000Y-82339857D01*
X104932000Y-82339857D02*
X104932000Y-81139857D01*
X88132000Y-82339857D02*
X88132000Y-81139857D01*
X87846285Y-81139857D01*
X87674857Y-81197000D01*
X87560571Y-81311285D01*
X87503428Y-81425571D01*
X87446285Y-81654142D01*
X87446285Y-81825571D01*
X87503428Y-82054142D01*
X87560571Y-82168428D01*
X87674857Y-82282714D01*
X87846285Y-82339857D01*
X88132000Y-82339857D01*
X86932000Y-82339857D02*
X86932000Y-81139857D01*
X70132000Y-82339857D02*
X70132000Y-81139857D01*
X69846285Y-81139857D01*
X69674857Y-81197000D01*
X69560571Y-81311285D01*
X69503428Y-81425571D01*
X69446285Y-81654142D01*
X69446285Y-81825571D01*
X69503428Y-82054142D01*
X69560571Y-82168428D01*
X69674857Y-82282714D01*
X69846285Y-82339857D01*
X70132000Y-82339857D01*
X68932000Y-82339857D02*
X68932000Y-81139857D01*
X142132000Y-65339857D02*
X142132000Y-64139857D01*
X141846285Y-64139857D01*
X141674857Y-64197000D01*
X141560571Y-64311285D01*
X141503428Y-64425571D01*
X141446285Y-64654142D01*
X141446285Y-64825571D01*
X141503428Y-65054142D01*
X141560571Y-65168428D01*
X141674857Y-65282714D01*
X141846285Y-65339857D01*
X142132000Y-65339857D01*
X140932000Y-65339857D02*
X140932000Y-64139857D01*
X124132000Y-65339857D02*
X124132000Y-64139857D01*
X123846285Y-64139857D01*
X123674857Y-64197000D01*
X123560571Y-64311285D01*
X123503428Y-64425571D01*
X123446285Y-64654142D01*
X123446285Y-64825571D01*
X123503428Y-65054142D01*
X123560571Y-65168428D01*
X123674857Y-65282714D01*
X123846285Y-65339857D01*
X124132000Y-65339857D01*
X122932000Y-65339857D02*
X122932000Y-64139857D01*
X106132000Y-65339857D02*
X106132000Y-64139857D01*
X105846285Y-64139857D01*
X105674857Y-64197000D01*
X105560571Y-64311285D01*
X105503428Y-64425571D01*
X105446285Y-64654142D01*
X105446285Y-64825571D01*
X105503428Y-65054142D01*
X105560571Y-65168428D01*
X105674857Y-65282714D01*
X105846285Y-65339857D01*
X106132000Y-65339857D01*
X104932000Y-65339857D02*
X104932000Y-64139857D01*
X88132000Y-65339857D02*
X88132000Y-64139857D01*
X87846285Y-64139857D01*
X87674857Y-64197000D01*
X87560571Y-64311285D01*
X87503428Y-64425571D01*
X87446285Y-64654142D01*
X87446285Y-64825571D01*
X87503428Y-65054142D01*
X87560571Y-65168428D01*
X87674857Y-65282714D01*
X87846285Y-65339857D01*
X88132000Y-65339857D01*
X86932000Y-65339857D02*
X86932000Y-64139857D01*
X70132000Y-65339857D02*
X70132000Y-64139857D01*
X69846285Y-64139857D01*
X69674857Y-64197000D01*
X69560571Y-64311285D01*
X69503428Y-64425571D01*
X69446285Y-64654142D01*
X69446285Y-64825571D01*
X69503428Y-65054142D01*
X69560571Y-65168428D01*
X69674857Y-65282714D01*
X69846285Y-65339857D01*
X70132000Y-65339857D01*
X68932000Y-65339857D02*
X68932000Y-64139857D01*
X142132000Y-48339857D02*
X142132000Y-47139857D01*
X141846285Y-47139857D01*
X141674857Y-47197000D01*
X141560571Y-47311285D01*
X141503428Y-47425571D01*
X141446285Y-47654142D01*
X141446285Y-47825571D01*
X141503428Y-48054142D01*
X141560571Y-48168428D01*
X141674857Y-48282714D01*
X141846285Y-48339857D01*
X142132000Y-48339857D01*
X140932000Y-48339857D02*
X140932000Y-47139857D01*
X124132000Y-48339857D02*
X124132000Y-47139857D01*
X123846285Y-47139857D01*
X123674857Y-47197000D01*
X123560571Y-47311285D01*
X123503428Y-47425571D01*
X123446285Y-47654142D01*
X123446285Y-47825571D01*
X123503428Y-48054142D01*
X123560571Y-48168428D01*
X123674857Y-48282714D01*
X123846285Y-48339857D01*
X124132000Y-48339857D01*
X122932000Y-48339857D02*
X122932000Y-47139857D01*
X106132000Y-48339857D02*
X106132000Y-47139857D01*
X105846285Y-47139857D01*
X105674857Y-47197000D01*
X105560571Y-47311285D01*
X105503428Y-47425571D01*
X105446285Y-47654142D01*
X105446285Y-47825571D01*
X105503428Y-48054142D01*
X105560571Y-48168428D01*
X105674857Y-48282714D01*
X105846285Y-48339857D01*
X106132000Y-48339857D01*
X104932000Y-48339857D02*
X104932000Y-47139857D01*
X88132000Y-48339857D02*
X88132000Y-47139857D01*
X87846285Y-47139857D01*
X87674857Y-47197000D01*
X87560571Y-47311285D01*
X87503428Y-47425571D01*
X87446285Y-47654142D01*
X87446285Y-47825571D01*
X87503428Y-48054142D01*
X87560571Y-48168428D01*
X87674857Y-48282714D01*
X87846285Y-48339857D01*
X88132000Y-48339857D01*
X86932000Y-48339857D02*
X86932000Y-47139857D01*
X70132000Y-48339857D02*
X70132000Y-47139857D01*
X69846285Y-47139857D01*
X69674857Y-47197000D01*
X69560571Y-47311285D01*
X69503428Y-47425571D01*
X69446285Y-47654142D01*
X69446285Y-47825571D01*
X69503428Y-48054142D01*
X69560571Y-48168428D01*
X69674857Y-48282714D01*
X69846285Y-48339857D01*
X70132000Y-48339857D01*
X68932000Y-48339857D02*
X68932000Y-47139857D01*
X142132000Y-31339857D02*
X142132000Y-30139857D01*
X141846285Y-30139857D01*
X141674857Y-30197000D01*
X141560571Y-30311285D01*
X141503428Y-30425571D01*
X141446285Y-30654142D01*
X141446285Y-30825571D01*
X141503428Y-31054142D01*
X141560571Y-31168428D01*
X141674857Y-31282714D01*
X141846285Y-31339857D01*
X142132000Y-31339857D01*
X140932000Y-31339857D02*
X140932000Y-30139857D01*
X124132000Y-31339857D02*
X124132000Y-30139857D01*
X123846285Y-30139857D01*
X123674857Y-30197000D01*
X123560571Y-30311285D01*
X123503428Y-30425571D01*
X123446285Y-30654142D01*
X123446285Y-30825571D01*
X123503428Y-31054142D01*
X123560571Y-31168428D01*
X123674857Y-31282714D01*
X123846285Y-31339857D01*
X124132000Y-31339857D01*
X122932000Y-31339857D02*
X122932000Y-30139857D01*
X106132000Y-31339857D02*
X106132000Y-30139857D01*
X105846285Y-30139857D01*
X105674857Y-30197000D01*
X105560571Y-30311285D01*
X105503428Y-30425571D01*
X105446285Y-30654142D01*
X105446285Y-30825571D01*
X105503428Y-31054142D01*
X105560571Y-31168428D01*
X105674857Y-31282714D01*
X105846285Y-31339857D01*
X106132000Y-31339857D01*
X104932000Y-31339857D02*
X104932000Y-30139857D01*
X88132000Y-31339857D02*
X88132000Y-30139857D01*
X87846285Y-30139857D01*
X87674857Y-30197000D01*
X87560571Y-30311285D01*
X87503428Y-30425571D01*
X87446285Y-30654142D01*
X87446285Y-30825571D01*
X87503428Y-31054142D01*
X87560571Y-31168428D01*
X87674857Y-31282714D01*
X87846285Y-31339857D01*
X88132000Y-31339857D01*
X86932000Y-31339857D02*
X86932000Y-30139857D01*
X151975142Y-95890714D02*
X151060857Y-95890714D01*
X133975142Y-95890714D02*
X133060857Y-95890714D01*
X115975142Y-95890714D02*
X115060857Y-95890714D01*
X97975142Y-95890714D02*
X97060857Y-95890714D01*
X79975142Y-95890714D02*
X79060857Y-95890714D01*
X151975142Y-78890714D02*
X151060857Y-78890714D01*
X133975142Y-78890714D02*
X133060857Y-78890714D01*
X115975142Y-78890714D02*
X115060857Y-78890714D01*
X97975142Y-78890714D02*
X97060857Y-78890714D01*
X79975142Y-78890714D02*
X79060857Y-78890714D01*
X151975142Y-61890714D02*
X151060857Y-61890714D01*
X133975142Y-61890714D02*
X133060857Y-61890714D01*
X115975142Y-61890714D02*
X115060857Y-61890714D01*
X97975142Y-61890714D02*
X97060857Y-61890714D01*
X79975142Y-61890714D02*
X79060857Y-61890714D01*
X151975142Y-44890714D02*
X151060857Y-44890714D01*
X133975142Y-44890714D02*
X133060857Y-44890714D01*
X115975142Y-44890714D02*
X115060857Y-44890714D01*
X97975142Y-44890714D02*
X97060857Y-44890714D01*
X79975142Y-44890714D02*
X79060857Y-44890714D01*
X151975142Y-27890714D02*
X151060857Y-27890714D01*
X133975142Y-27890714D02*
X133060857Y-27890714D01*
X115975142Y-27890714D02*
X115060857Y-27890714D01*
X97975142Y-27890714D02*
X97060857Y-27890714D01*
X152474857Y-98589857D02*
X152474857Y-97389857D01*
X152189142Y-97389857D01*
X152017714Y-97447000D01*
X151903428Y-97561285D01*
X151846285Y-97675571D01*
X151789142Y-97904142D01*
X151789142Y-98075571D01*
X151846285Y-98304142D01*
X151903428Y-98418428D01*
X152017714Y-98532714D01*
X152189142Y-98589857D01*
X152474857Y-98589857D01*
X151046285Y-97389857D02*
X150817714Y-97389857D01*
X150703428Y-97447000D01*
X150589142Y-97561285D01*
X150532000Y-97789857D01*
X150532000Y-98189857D01*
X150589142Y-98418428D01*
X150703428Y-98532714D01*
X150817714Y-98589857D01*
X151046285Y-98589857D01*
X151160571Y-98532714D01*
X151274857Y-98418428D01*
X151332000Y-98189857D01*
X151332000Y-97789857D01*
X151274857Y-97561285D01*
X151160571Y-97447000D01*
X151046285Y-97389857D01*
X134474857Y-98589857D02*
X134474857Y-97389857D01*
X134189142Y-97389857D01*
X134017714Y-97447000D01*
X133903428Y-97561285D01*
X133846285Y-97675571D01*
X133789142Y-97904142D01*
X133789142Y-98075571D01*
X133846285Y-98304142D01*
X133903428Y-98418428D01*
X134017714Y-98532714D01*
X134189142Y-98589857D01*
X134474857Y-98589857D01*
X133046285Y-97389857D02*
X132817714Y-97389857D01*
X132703428Y-97447000D01*
X132589142Y-97561285D01*
X132532000Y-97789857D01*
X132532000Y-98189857D01*
X132589142Y-98418428D01*
X132703428Y-98532714D01*
X132817714Y-98589857D01*
X133046285Y-98589857D01*
X133160571Y-98532714D01*
X133274857Y-98418428D01*
X133332000Y-98189857D01*
X133332000Y-97789857D01*
X133274857Y-97561285D01*
X133160571Y-97447000D01*
X133046285Y-97389857D01*
X116474857Y-98589857D02*
X116474857Y-97389857D01*
X116189142Y-97389857D01*
X116017714Y-97447000D01*
X115903428Y-97561285D01*
X115846285Y-97675571D01*
X115789142Y-97904142D01*
X115789142Y-98075571D01*
X115846285Y-98304142D01*
X115903428Y-98418428D01*
X116017714Y-98532714D01*
X116189142Y-98589857D01*
X116474857Y-98589857D01*
X115046285Y-97389857D02*
X114817714Y-97389857D01*
X114703428Y-97447000D01*
X114589142Y-97561285D01*
X114532000Y-97789857D01*
X114532000Y-98189857D01*
X114589142Y-98418428D01*
X114703428Y-98532714D01*
X114817714Y-98589857D01*
X115046285Y-98589857D01*
X115160571Y-98532714D01*
X115274857Y-98418428D01*
X115332000Y-98189857D01*
X115332000Y-97789857D01*
X115274857Y-97561285D01*
X115160571Y-97447000D01*
X115046285Y-97389857D01*
X98474857Y-98589857D02*
X98474857Y-97389857D01*
X98189142Y-97389857D01*
X98017714Y-97447000D01*
X97903428Y-97561285D01*
X97846285Y-97675571D01*
X97789142Y-97904142D01*
X97789142Y-98075571D01*
X97846285Y-98304142D01*
X97903428Y-98418428D01*
X98017714Y-98532714D01*
X98189142Y-98589857D01*
X98474857Y-98589857D01*
X97046285Y-97389857D02*
X96817714Y-97389857D01*
X96703428Y-97447000D01*
X96589142Y-97561285D01*
X96532000Y-97789857D01*
X96532000Y-98189857D01*
X96589142Y-98418428D01*
X96703428Y-98532714D01*
X96817714Y-98589857D01*
X97046285Y-98589857D01*
X97160571Y-98532714D01*
X97274857Y-98418428D01*
X97332000Y-98189857D01*
X97332000Y-97789857D01*
X97274857Y-97561285D01*
X97160571Y-97447000D01*
X97046285Y-97389857D01*
X80474857Y-98589857D02*
X80474857Y-97389857D01*
X80189142Y-97389857D01*
X80017714Y-97447000D01*
X79903428Y-97561285D01*
X79846285Y-97675571D01*
X79789142Y-97904142D01*
X79789142Y-98075571D01*
X79846285Y-98304142D01*
X79903428Y-98418428D01*
X80017714Y-98532714D01*
X80189142Y-98589857D01*
X80474857Y-98589857D01*
X79046285Y-97389857D02*
X78817714Y-97389857D01*
X78703428Y-97447000D01*
X78589142Y-97561285D01*
X78532000Y-97789857D01*
X78532000Y-98189857D01*
X78589142Y-98418428D01*
X78703428Y-98532714D01*
X78817714Y-98589857D01*
X79046285Y-98589857D01*
X79160571Y-98532714D01*
X79274857Y-98418428D01*
X79332000Y-98189857D01*
X79332000Y-97789857D01*
X79274857Y-97561285D01*
X79160571Y-97447000D01*
X79046285Y-97389857D01*
X152474857Y-81589857D02*
X152474857Y-80389857D01*
X152189142Y-80389857D01*
X152017714Y-80447000D01*
X151903428Y-80561285D01*
X151846285Y-80675571D01*
X151789142Y-80904142D01*
X151789142Y-81075571D01*
X151846285Y-81304142D01*
X151903428Y-81418428D01*
X152017714Y-81532714D01*
X152189142Y-81589857D01*
X152474857Y-81589857D01*
X151046285Y-80389857D02*
X150817714Y-80389857D01*
X150703428Y-80447000D01*
X150589142Y-80561285D01*
X150532000Y-80789857D01*
X150532000Y-81189857D01*
X150589142Y-81418428D01*
X150703428Y-81532714D01*
X150817714Y-81589857D01*
X151046285Y-81589857D01*
X151160571Y-81532714D01*
X151274857Y-81418428D01*
X151332000Y-81189857D01*
X151332000Y-80789857D01*
X151274857Y-80561285D01*
X151160571Y-80447000D01*
X151046285Y-80389857D01*
X134474857Y-81589857D02*
X134474857Y-80389857D01*
X134189142Y-80389857D01*
X134017714Y-80447000D01*
X133903428Y-80561285D01*
X133846285Y-80675571D01*
X133789142Y-80904142D01*
X133789142Y-81075571D01*
X133846285Y-81304142D01*
X133903428Y-81418428D01*
X134017714Y-81532714D01*
X134189142Y-81589857D01*
X134474857Y-81589857D01*
X133046285Y-80389857D02*
X132817714Y-80389857D01*
X132703428Y-80447000D01*
X132589142Y-80561285D01*
X132532000Y-80789857D01*
X132532000Y-81189857D01*
X132589142Y-81418428D01*
X132703428Y-81532714D01*
X132817714Y-81589857D01*
X133046285Y-81589857D01*
X133160571Y-81532714D01*
X133274857Y-81418428D01*
X133332000Y-81189857D01*
X133332000Y-80789857D01*
X133274857Y-80561285D01*
X133160571Y-80447000D01*
X133046285Y-80389857D01*
X116474857Y-81589857D02*
X116474857Y-80389857D01*
X116189142Y-80389857D01*
X116017714Y-80447000D01*
X115903428Y-80561285D01*
X115846285Y-80675571D01*
X115789142Y-80904142D01*
X115789142Y-81075571D01*
X115846285Y-81304142D01*
X115903428Y-81418428D01*
X116017714Y-81532714D01*
X116189142Y-81589857D01*
X116474857Y-81589857D01*
X115046285Y-80389857D02*
X114817714Y-80389857D01*
X114703428Y-80447000D01*
X114589142Y-80561285D01*
X114532000Y-80789857D01*
X114532000Y-81189857D01*
X114589142Y-81418428D01*
X114703428Y-81532714D01*
X114817714Y-81589857D01*
X115046285Y-81589857D01*
X115160571Y-81532714D01*
X115274857Y-81418428D01*
X115332000Y-81189857D01*
X115332000Y-80789857D01*
X115274857Y-80561285D01*
X115160571Y-80447000D01*
X115046285Y-80389857D01*
X98474857Y-81589857D02*
X98474857Y-80389857D01*
X98189142Y-80389857D01*
X98017714Y-80447000D01*
X97903428Y-80561285D01*
X97846285Y-80675571D01*
X97789142Y-80904142D01*
X97789142Y-81075571D01*
X97846285Y-81304142D01*
X97903428Y-81418428D01*
X98017714Y-81532714D01*
X98189142Y-81589857D01*
X98474857Y-81589857D01*
X97046285Y-80389857D02*
X96817714Y-80389857D01*
X96703428Y-80447000D01*
X96589142Y-80561285D01*
X96532000Y-80789857D01*
X96532000Y-81189857D01*
X96589142Y-81418428D01*
X96703428Y-81532714D01*
X96817714Y-81589857D01*
X97046285Y-81589857D01*
X97160571Y-81532714D01*
X97274857Y-81418428D01*
X97332000Y-81189857D01*
X97332000Y-80789857D01*
X97274857Y-80561285D01*
X97160571Y-80447000D01*
X97046285Y-80389857D01*
X80474857Y-81589857D02*
X80474857Y-80389857D01*
X80189142Y-80389857D01*
X80017714Y-80447000D01*
X79903428Y-80561285D01*
X79846285Y-80675571D01*
X79789142Y-80904142D01*
X79789142Y-81075571D01*
X79846285Y-81304142D01*
X79903428Y-81418428D01*
X80017714Y-81532714D01*
X80189142Y-81589857D01*
X80474857Y-81589857D01*
X79046285Y-80389857D02*
X78817714Y-80389857D01*
X78703428Y-80447000D01*
X78589142Y-80561285D01*
X78532000Y-80789857D01*
X78532000Y-81189857D01*
X78589142Y-81418428D01*
X78703428Y-81532714D01*
X78817714Y-81589857D01*
X79046285Y-81589857D01*
X79160571Y-81532714D01*
X79274857Y-81418428D01*
X79332000Y-81189857D01*
X79332000Y-80789857D01*
X79274857Y-80561285D01*
X79160571Y-80447000D01*
X79046285Y-80389857D01*
X152474857Y-64589857D02*
X152474857Y-63389857D01*
X152189142Y-63389857D01*
X152017714Y-63447000D01*
X151903428Y-63561285D01*
X151846285Y-63675571D01*
X151789142Y-63904142D01*
X151789142Y-64075571D01*
X151846285Y-64304142D01*
X151903428Y-64418428D01*
X152017714Y-64532714D01*
X152189142Y-64589857D01*
X152474857Y-64589857D01*
X151046285Y-63389857D02*
X150817714Y-63389857D01*
X150703428Y-63447000D01*
X150589142Y-63561285D01*
X150532000Y-63789857D01*
X150532000Y-64189857D01*
X150589142Y-64418428D01*
X150703428Y-64532714D01*
X150817714Y-64589857D01*
X151046285Y-64589857D01*
X151160571Y-64532714D01*
X151274857Y-64418428D01*
X151332000Y-64189857D01*
X151332000Y-63789857D01*
X151274857Y-63561285D01*
X151160571Y-63447000D01*
X151046285Y-63389857D01*
X134474857Y-64589857D02*
X134474857Y-63389857D01*
X134189142Y-63389857D01*
X134017714Y-63447000D01*
X133903428Y-63561285D01*
X133846285Y-63675571D01*
X133789142Y-63904142D01*
X133789142Y-64075571D01*
X133846285Y-64304142D01*
X133903428Y-64418428D01*
X134017714Y-64532714D01*
X134189142Y-64589857D01*
X134474857Y-64589857D01*
X133046285Y-63389857D02*
X132817714Y-63389857D01*
X132703428Y-63447000D01*
X132589142Y-63561285D01*
X132532000Y-63789857D01*
X132532000Y-64189857D01*
X132589142Y-64418428D01*
X132703428Y-64532714D01*
X132817714Y-64589857D01*
X133046285Y-64589857D01*
X133160571Y-64532714D01*
X133274857Y-64418428D01*
X133332000Y-64189857D01*
X133332000Y-63789857D01*
X133274857Y-63561285D01*
X133160571Y-63447000D01*
X133046285Y-63389857D01*
X116474857Y-64589857D02*
X116474857Y-63389857D01*
X116189142Y-63389857D01*
X116017714Y-63447000D01*
X115903428Y-63561285D01*
X115846285Y-63675571D01*
X115789142Y-63904142D01*
X115789142Y-64075571D01*
X115846285Y-64304142D01*
X115903428Y-64418428D01*
X116017714Y-64532714D01*
X116189142Y-64589857D01*
X116474857Y-64589857D01*
X115046285Y-63389857D02*
X114817714Y-63389857D01*
X114703428Y-63447000D01*
X114589142Y-63561285D01*
X114532000Y-63789857D01*
X114532000Y-64189857D01*
X114589142Y-64418428D01*
X114703428Y-64532714D01*
X114817714Y-64589857D01*
X115046285Y-64589857D01*
X115160571Y-64532714D01*
X115274857Y-64418428D01*
X115332000Y-64189857D01*
X115332000Y-63789857D01*
X115274857Y-63561285D01*
X115160571Y-63447000D01*
X115046285Y-63389857D01*
X98474857Y-64589857D02*
X98474857Y-63389857D01*
X98189142Y-63389857D01*
X98017714Y-63447000D01*
X97903428Y-63561285D01*
X97846285Y-63675571D01*
X97789142Y-63904142D01*
X97789142Y-64075571D01*
X97846285Y-64304142D01*
X97903428Y-64418428D01*
X98017714Y-64532714D01*
X98189142Y-64589857D01*
X98474857Y-64589857D01*
X97046285Y-63389857D02*
X96817714Y-63389857D01*
X96703428Y-63447000D01*
X96589142Y-63561285D01*
X96532000Y-63789857D01*
X96532000Y-64189857D01*
X96589142Y-64418428D01*
X96703428Y-64532714D01*
X96817714Y-64589857D01*
X97046285Y-64589857D01*
X97160571Y-64532714D01*
X97274857Y-64418428D01*
X97332000Y-64189857D01*
X97332000Y-63789857D01*
X97274857Y-63561285D01*
X97160571Y-63447000D01*
X97046285Y-63389857D01*
X80474857Y-64589857D02*
X80474857Y-63389857D01*
X80189142Y-63389857D01*
X80017714Y-63447000D01*
X79903428Y-63561285D01*
X79846285Y-63675571D01*
X79789142Y-63904142D01*
X79789142Y-64075571D01*
X79846285Y-64304142D01*
X79903428Y-64418428D01*
X80017714Y-64532714D01*
X80189142Y-64589857D01*
X80474857Y-64589857D01*
X79046285Y-63389857D02*
X78817714Y-63389857D01*
X78703428Y-63447000D01*
X78589142Y-63561285D01*
X78532000Y-63789857D01*
X78532000Y-64189857D01*
X78589142Y-64418428D01*
X78703428Y-64532714D01*
X78817714Y-64589857D01*
X79046285Y-64589857D01*
X79160571Y-64532714D01*
X79274857Y-64418428D01*
X79332000Y-64189857D01*
X79332000Y-63789857D01*
X79274857Y-63561285D01*
X79160571Y-63447000D01*
X79046285Y-63389857D01*
X152474857Y-47589857D02*
X152474857Y-46389857D01*
X152189142Y-46389857D01*
X152017714Y-46447000D01*
X151903428Y-46561285D01*
X151846285Y-46675571D01*
X151789142Y-46904142D01*
X151789142Y-47075571D01*
X151846285Y-47304142D01*
X151903428Y-47418428D01*
X152017714Y-47532714D01*
X152189142Y-47589857D01*
X152474857Y-47589857D01*
X151046285Y-46389857D02*
X150817714Y-46389857D01*
X150703428Y-46447000D01*
X150589142Y-46561285D01*
X150532000Y-46789857D01*
X150532000Y-47189857D01*
X150589142Y-47418428D01*
X150703428Y-47532714D01*
X150817714Y-47589857D01*
X151046285Y-47589857D01*
X151160571Y-47532714D01*
X151274857Y-47418428D01*
X151332000Y-47189857D01*
X151332000Y-46789857D01*
X151274857Y-46561285D01*
X151160571Y-46447000D01*
X151046285Y-46389857D01*
X134474857Y-47589857D02*
X134474857Y-46389857D01*
X134189142Y-46389857D01*
X134017714Y-46447000D01*
X133903428Y-46561285D01*
X133846285Y-46675571D01*
X133789142Y-46904142D01*
X133789142Y-47075571D01*
X133846285Y-47304142D01*
X133903428Y-47418428D01*
X134017714Y-47532714D01*
X134189142Y-47589857D01*
X134474857Y-47589857D01*
X133046285Y-46389857D02*
X132817714Y-46389857D01*
X132703428Y-46447000D01*
X132589142Y-46561285D01*
X132532000Y-46789857D01*
X132532000Y-47189857D01*
X132589142Y-47418428D01*
X132703428Y-47532714D01*
X132817714Y-47589857D01*
X133046285Y-47589857D01*
X133160571Y-47532714D01*
X133274857Y-47418428D01*
X133332000Y-47189857D01*
X133332000Y-46789857D01*
X133274857Y-46561285D01*
X133160571Y-46447000D01*
X133046285Y-46389857D01*
X116474857Y-47589857D02*
X116474857Y-46389857D01*
X116189142Y-46389857D01*
X116017714Y-46447000D01*
X115903428Y-46561285D01*
X115846285Y-46675571D01*
X115789142Y-46904142D01*
X115789142Y-47075571D01*
X115846285Y-47304142D01*
X115903428Y-47418428D01*
X116017714Y-47532714D01*
X116189142Y-47589857D01*
X116474857Y-47589857D01*
X115046285Y-46389857D02*
X114817714Y-46389857D01*
X114703428Y-46447000D01*
X114589142Y-46561285D01*
X114532000Y-46789857D01*
X114532000Y-47189857D01*
X114589142Y-47418428D01*
X114703428Y-47532714D01*
X114817714Y-47589857D01*
X115046285Y-47589857D01*
X115160571Y-47532714D01*
X115274857Y-47418428D01*
X115332000Y-47189857D01*
X115332000Y-46789857D01*
X115274857Y-46561285D01*
X115160571Y-46447000D01*
X115046285Y-46389857D01*
X98474857Y-47589857D02*
X98474857Y-46389857D01*
X98189142Y-46389857D01*
X98017714Y-46447000D01*
X97903428Y-46561285D01*
X97846285Y-46675571D01*
X97789142Y-46904142D01*
X97789142Y-47075571D01*
X97846285Y-47304142D01*
X97903428Y-47418428D01*
X98017714Y-47532714D01*
X98189142Y-47589857D01*
X98474857Y-47589857D01*
X97046285Y-46389857D02*
X96817714Y-46389857D01*
X96703428Y-46447000D01*
X96589142Y-46561285D01*
X96532000Y-46789857D01*
X96532000Y-47189857D01*
X96589142Y-47418428D01*
X96703428Y-47532714D01*
X96817714Y-47589857D01*
X97046285Y-47589857D01*
X97160571Y-47532714D01*
X97274857Y-47418428D01*
X97332000Y-47189857D01*
X97332000Y-46789857D01*
X97274857Y-46561285D01*
X97160571Y-46447000D01*
X97046285Y-46389857D01*
X80474857Y-47589857D02*
X80474857Y-46389857D01*
X80189142Y-46389857D01*
X80017714Y-46447000D01*
X79903428Y-46561285D01*
X79846285Y-46675571D01*
X79789142Y-46904142D01*
X79789142Y-47075571D01*
X79846285Y-47304142D01*
X79903428Y-47418428D01*
X80017714Y-47532714D01*
X80189142Y-47589857D01*
X80474857Y-47589857D01*
X79046285Y-46389857D02*
X78817714Y-46389857D01*
X78703428Y-46447000D01*
X78589142Y-46561285D01*
X78532000Y-46789857D01*
X78532000Y-47189857D01*
X78589142Y-47418428D01*
X78703428Y-47532714D01*
X78817714Y-47589857D01*
X79046285Y-47589857D01*
X79160571Y-47532714D01*
X79274857Y-47418428D01*
X79332000Y-47189857D01*
X79332000Y-46789857D01*
X79274857Y-46561285D01*
X79160571Y-46447000D01*
X79046285Y-46389857D01*
X152474857Y-30589857D02*
X152474857Y-29389857D01*
X152189142Y-29389857D01*
X152017714Y-29447000D01*
X151903428Y-29561285D01*
X151846285Y-29675571D01*
X151789142Y-29904142D01*
X151789142Y-30075571D01*
X151846285Y-30304142D01*
X151903428Y-30418428D01*
X152017714Y-30532714D01*
X152189142Y-30589857D01*
X152474857Y-30589857D01*
X151046285Y-29389857D02*
X150817714Y-29389857D01*
X150703428Y-29447000D01*
X150589142Y-29561285D01*
X150532000Y-29789857D01*
X150532000Y-30189857D01*
X150589142Y-30418428D01*
X150703428Y-30532714D01*
X150817714Y-30589857D01*
X151046285Y-30589857D01*
X151160571Y-30532714D01*
X151274857Y-30418428D01*
X151332000Y-30189857D01*
X151332000Y-29789857D01*
X151274857Y-29561285D01*
X151160571Y-29447000D01*
X151046285Y-29389857D01*
X134474857Y-30589857D02*
X134474857Y-29389857D01*
X134189142Y-29389857D01*
X134017714Y-29447000D01*
X133903428Y-29561285D01*
X133846285Y-29675571D01*
X133789142Y-29904142D01*
X133789142Y-30075571D01*
X133846285Y-30304142D01*
X133903428Y-30418428D01*
X134017714Y-30532714D01*
X134189142Y-30589857D01*
X134474857Y-30589857D01*
X133046285Y-29389857D02*
X132817714Y-29389857D01*
X132703428Y-29447000D01*
X132589142Y-29561285D01*
X132532000Y-29789857D01*
X132532000Y-30189857D01*
X132589142Y-30418428D01*
X132703428Y-30532714D01*
X132817714Y-30589857D01*
X133046285Y-30589857D01*
X133160571Y-30532714D01*
X133274857Y-30418428D01*
X133332000Y-30189857D01*
X133332000Y-29789857D01*
X133274857Y-29561285D01*
X133160571Y-29447000D01*
X133046285Y-29389857D01*
X116474857Y-30589857D02*
X116474857Y-29389857D01*
X116189142Y-29389857D01*
X116017714Y-29447000D01*
X115903428Y-29561285D01*
X115846285Y-29675571D01*
X115789142Y-29904142D01*
X115789142Y-30075571D01*
X115846285Y-30304142D01*
X115903428Y-30418428D01*
X116017714Y-30532714D01*
X116189142Y-30589857D01*
X116474857Y-30589857D01*
X115046285Y-29389857D02*
X114817714Y-29389857D01*
X114703428Y-29447000D01*
X114589142Y-29561285D01*
X114532000Y-29789857D01*
X114532000Y-30189857D01*
X114589142Y-30418428D01*
X114703428Y-30532714D01*
X114817714Y-30589857D01*
X115046285Y-30589857D01*
X115160571Y-30532714D01*
X115274857Y-30418428D01*
X115332000Y-30189857D01*
X115332000Y-29789857D01*
X115274857Y-29561285D01*
X115160571Y-29447000D01*
X115046285Y-29389857D01*
X98474857Y-30589857D02*
X98474857Y-29389857D01*
X98189142Y-29389857D01*
X98017714Y-29447000D01*
X97903428Y-29561285D01*
X97846285Y-29675571D01*
X97789142Y-29904142D01*
X97789142Y-30075571D01*
X97846285Y-30304142D01*
X97903428Y-30418428D01*
X98017714Y-30532714D01*
X98189142Y-30589857D01*
X98474857Y-30589857D01*
X97046285Y-29389857D02*
X96817714Y-29389857D01*
X96703428Y-29447000D01*
X96589142Y-29561285D01*
X96532000Y-29789857D01*
X96532000Y-30189857D01*
X96589142Y-30418428D01*
X96703428Y-30532714D01*
X96817714Y-30589857D01*
X97046285Y-30589857D01*
X97160571Y-30532714D01*
X97274857Y-30418428D01*
X97332000Y-30189857D01*
X97332000Y-29789857D01*
X97274857Y-29561285D01*
X97160571Y-29447000D01*
X97046285Y-29389857D01*
X143160571Y-108225571D02*
X143217714Y-108282714D01*
X143389142Y-108339857D01*
X143503428Y-108339857D01*
X143674857Y-108282714D01*
X143789142Y-108168428D01*
X143846285Y-108054142D01*
X143903428Y-107825571D01*
X143903428Y-107654142D01*
X143846285Y-107425571D01*
X143789142Y-107311285D01*
X143674857Y-107197000D01*
X143503428Y-107139857D01*
X143389142Y-107139857D01*
X143217714Y-107197000D01*
X143160571Y-107254142D01*
X125160571Y-108225571D02*
X125217714Y-108282714D01*
X125389142Y-108339857D01*
X125503428Y-108339857D01*
X125674857Y-108282714D01*
X125789142Y-108168428D01*
X125846285Y-108054142D01*
X125903428Y-107825571D01*
X125903428Y-107654142D01*
X125846285Y-107425571D01*
X125789142Y-107311285D01*
X125674857Y-107197000D01*
X125503428Y-107139857D01*
X125389142Y-107139857D01*
X125217714Y-107197000D01*
X125160571Y-107254142D01*
X107160571Y-108225571D02*
X107217714Y-108282714D01*
X107389142Y-108339857D01*
X107503428Y-108339857D01*
X107674857Y-108282714D01*
X107789142Y-108168428D01*
X107846285Y-108054142D01*
X107903428Y-107825571D01*
X107903428Y-107654142D01*
X107846285Y-107425571D01*
X107789142Y-107311285D01*
X107674857Y-107197000D01*
X107503428Y-107139857D01*
X107389142Y-107139857D01*
X107217714Y-107197000D01*
X107160571Y-107254142D01*
X89160571Y-108225571D02*
X89217714Y-108282714D01*
X89389142Y-108339857D01*
X89503428Y-108339857D01*
X89674857Y-108282714D01*
X89789142Y-108168428D01*
X89846285Y-108054142D01*
X89903428Y-107825571D01*
X89903428Y-107654142D01*
X89846285Y-107425571D01*
X89789142Y-107311285D01*
X89674857Y-107197000D01*
X89503428Y-107139857D01*
X89389142Y-107139857D01*
X89217714Y-107197000D01*
X89160571Y-107254142D01*
X71160571Y-108225571D02*
X71217714Y-108282714D01*
X71389142Y-108339857D01*
X71503428Y-108339857D01*
X71674857Y-108282714D01*
X71789142Y-108168428D01*
X71846285Y-108054142D01*
X71903428Y-107825571D01*
X71903428Y-107654142D01*
X71846285Y-107425571D01*
X71789142Y-107311285D01*
X71674857Y-107197000D01*
X71503428Y-107139857D01*
X71389142Y-107139857D01*
X71217714Y-107197000D01*
X71160571Y-107254142D01*
X143160571Y-91225571D02*
X143217714Y-91282714D01*
X143389142Y-91339857D01*
X143503428Y-91339857D01*
X143674857Y-91282714D01*
X143789142Y-91168428D01*
X143846285Y-91054142D01*
X143903428Y-90825571D01*
X143903428Y-90654142D01*
X143846285Y-90425571D01*
X143789142Y-90311285D01*
X143674857Y-90197000D01*
X143503428Y-90139857D01*
X143389142Y-90139857D01*
X143217714Y-90197000D01*
X143160571Y-90254142D01*
X125160571Y-91225571D02*
X125217714Y-91282714D01*
X125389142Y-91339857D01*
X125503428Y-91339857D01*
X125674857Y-91282714D01*
X125789142Y-91168428D01*
X125846285Y-91054142D01*
X125903428Y-90825571D01*
X125903428Y-90654142D01*
X125846285Y-90425571D01*
X125789142Y-90311285D01*
X125674857Y-90197000D01*
X125503428Y-90139857D01*
X125389142Y-90139857D01*
X125217714Y-90197000D01*
X125160571Y-90254142D01*
X107160571Y-91225571D02*
X107217714Y-91282714D01*
X107389142Y-91339857D01*
X107503428Y-91339857D01*
X107674857Y-91282714D01*
X107789142Y-91168428D01*
X107846285Y-91054142D01*
X107903428Y-90825571D01*
X107903428Y-90654142D01*
X107846285Y-90425571D01*
X107789142Y-90311285D01*
X107674857Y-90197000D01*
X107503428Y-90139857D01*
X107389142Y-90139857D01*
X107217714Y-90197000D01*
X107160571Y-90254142D01*
X89160571Y-91225571D02*
X89217714Y-91282714D01*
X89389142Y-91339857D01*
X89503428Y-91339857D01*
X89674857Y-91282714D01*
X89789142Y-91168428D01*
X89846285Y-91054142D01*
X89903428Y-90825571D01*
X89903428Y-90654142D01*
X89846285Y-90425571D01*
X89789142Y-90311285D01*
X89674857Y-90197000D01*
X89503428Y-90139857D01*
X89389142Y-90139857D01*
X89217714Y-90197000D01*
X89160571Y-90254142D01*
X71160571Y-91225571D02*
X71217714Y-91282714D01*
X71389142Y-91339857D01*
X71503428Y-91339857D01*
X71674857Y-91282714D01*
X71789142Y-91168428D01*
X71846285Y-91054142D01*
X71903428Y-90825571D01*
X71903428Y-90654142D01*
X71846285Y-90425571D01*
X71789142Y-90311285D01*
X71674857Y-90197000D01*
X71503428Y-90139857D01*
X71389142Y-90139857D01*
X71217714Y-90197000D01*
X71160571Y-90254142D01*
X143160571Y-74225571D02*
X143217714Y-74282714D01*
X143389142Y-74339857D01*
X143503428Y-74339857D01*
X143674857Y-74282714D01*
X143789142Y-74168428D01*
X143846285Y-74054142D01*
X143903428Y-73825571D01*
X143903428Y-73654142D01*
X143846285Y-73425571D01*
X143789142Y-73311285D01*
X143674857Y-73197000D01*
X143503428Y-73139857D01*
X143389142Y-73139857D01*
X143217714Y-73197000D01*
X143160571Y-73254142D01*
X125160571Y-74225571D02*
X125217714Y-74282714D01*
X125389142Y-74339857D01*
X125503428Y-74339857D01*
X125674857Y-74282714D01*
X125789142Y-74168428D01*
X125846285Y-74054142D01*
X125903428Y-73825571D01*
X125903428Y-73654142D01*
X125846285Y-73425571D01*
X125789142Y-73311285D01*
X125674857Y-73197000D01*
X125503428Y-73139857D01*
X125389142Y-73139857D01*
X125217714Y-73197000D01*
X125160571Y-73254142D01*
X107160571Y-74225571D02*
X107217714Y-74282714D01*
X107389142Y-74339857D01*
X107503428Y-74339857D01*
X107674857Y-74282714D01*
X107789142Y-74168428D01*
X107846285Y-74054142D01*
X107903428Y-73825571D01*
X107903428Y-73654142D01*
X107846285Y-73425571D01*
X107789142Y-73311285D01*
X107674857Y-73197000D01*
X107503428Y-73139857D01*
X107389142Y-73139857D01*
X107217714Y-73197000D01*
X107160571Y-73254142D01*
X89160571Y-74225571D02*
X89217714Y-74282714D01*
X89389142Y-74339857D01*
X89503428Y-74339857D01*
X89674857Y-74282714D01*
X89789142Y-74168428D01*
X89846285Y-74054142D01*
X89903428Y-73825571D01*
X89903428Y-73654142D01*
X89846285Y-73425571D01*
X89789142Y-73311285D01*
X89674857Y-73197000D01*
X89503428Y-73139857D01*
X89389142Y-73139857D01*
X89217714Y-73197000D01*
X89160571Y-73254142D01*
X71160571Y-74225571D02*
X71217714Y-74282714D01*
X71389142Y-74339857D01*
X71503428Y-74339857D01*
X71674857Y-74282714D01*
X71789142Y-74168428D01*
X71846285Y-74054142D01*
X71903428Y-73825571D01*
X71903428Y-73654142D01*
X71846285Y-73425571D01*
X71789142Y-73311285D01*
X71674857Y-73197000D01*
X71503428Y-73139857D01*
X71389142Y-73139857D01*
X71217714Y-73197000D01*
X71160571Y-73254142D01*
X143160571Y-57225571D02*
X143217714Y-57282714D01*
X143389142Y-57339857D01*
X143503428Y-57339857D01*
X143674857Y-57282714D01*
X143789142Y-57168428D01*
X143846285Y-57054142D01*
X143903428Y-56825571D01*
X143903428Y-56654142D01*
X143846285Y-56425571D01*
X143789142Y-56311285D01*
X143674857Y-56197000D01*
X143503428Y-56139857D01*
X143389142Y-56139857D01*
X143217714Y-56197000D01*
X143160571Y-56254142D01*
X125160571Y-57225571D02*
X125217714Y-57282714D01*
X125389142Y-57339857D01*
X125503428Y-57339857D01*
X125674857Y-57282714D01*
X125789142Y-57168428D01*
X125846285Y-57054142D01*
X125903428Y-56825571D01*
X125903428Y-56654142D01*
X125846285Y-56425571D01*
X125789142Y-56311285D01*
X125674857Y-56197000D01*
X125503428Y-56139857D01*
X125389142Y-56139857D01*
X125217714Y-56197000D01*
X125160571Y-56254142D01*
X107160571Y-57225571D02*
X107217714Y-57282714D01*
X107389142Y-57339857D01*
X107503428Y-57339857D01*
X107674857Y-57282714D01*
X107789142Y-57168428D01*
X107846285Y-57054142D01*
X107903428Y-56825571D01*
X107903428Y-56654142D01*
X107846285Y-56425571D01*
X107789142Y-56311285D01*
X107674857Y-56197000D01*
X107503428Y-56139857D01*
X107389142Y-56139857D01*
X107217714Y-56197000D01*
X107160571Y-56254142D01*
X89160571Y-57225571D02*
X89217714Y-57282714D01*
X89389142Y-57339857D01*
X89503428Y-57339857D01*
X89674857Y-57282714D01*
X89789142Y-57168428D01*
X89846285Y-57054142D01*
X89903428Y-56825571D01*
X89903428Y-56654142D01*
X89846285Y-56425571D01*
X89789142Y-56311285D01*
X89674857Y-56197000D01*
X89503428Y-56139857D01*
X89389142Y-56139857D01*
X89217714Y-56197000D01*
X89160571Y-56254142D01*
X71160571Y-57225571D02*
X71217714Y-57282714D01*
X71389142Y-57339857D01*
X71503428Y-57339857D01*
X71674857Y-57282714D01*
X71789142Y-57168428D01*
X71846285Y-57054142D01*
X71903428Y-56825571D01*
X71903428Y-56654142D01*
X71846285Y-56425571D01*
X71789142Y-56311285D01*
X71674857Y-56197000D01*
X71503428Y-56139857D01*
X71389142Y-56139857D01*
X71217714Y-56197000D01*
X71160571Y-56254142D01*
X143160571Y-40225571D02*
X143217714Y-40282714D01*
X143389142Y-40339857D01*
X143503428Y-40339857D01*
X143674857Y-40282714D01*
X143789142Y-40168428D01*
X143846285Y-40054142D01*
X143903428Y-39825571D01*
X143903428Y-39654142D01*
X143846285Y-39425571D01*
X143789142Y-39311285D01*
X143674857Y-39197000D01*
X143503428Y-39139857D01*
X143389142Y-39139857D01*
X143217714Y-39197000D01*
X143160571Y-39254142D01*
X125160571Y-40225571D02*
X125217714Y-40282714D01*
X125389142Y-40339857D01*
X125503428Y-40339857D01*
X125674857Y-40282714D01*
X125789142Y-40168428D01*
X125846285Y-40054142D01*
X125903428Y-39825571D01*
X125903428Y-39654142D01*
X125846285Y-39425571D01*
X125789142Y-39311285D01*
X125674857Y-39197000D01*
X125503428Y-39139857D01*
X125389142Y-39139857D01*
X125217714Y-39197000D01*
X125160571Y-39254142D01*
X107160571Y-40225571D02*
X107217714Y-40282714D01*
X107389142Y-40339857D01*
X107503428Y-40339857D01*
X107674857Y-40282714D01*
X107789142Y-40168428D01*
X107846285Y-40054142D01*
X107903428Y-39825571D01*
X107903428Y-39654142D01*
X107846285Y-39425571D01*
X107789142Y-39311285D01*
X107674857Y-39197000D01*
X107503428Y-39139857D01*
X107389142Y-39139857D01*
X107217714Y-39197000D01*
X107160571Y-39254142D01*
X89160571Y-40225571D02*
X89217714Y-40282714D01*
X89389142Y-40339857D01*
X89503428Y-40339857D01*
X89674857Y-40282714D01*
X89789142Y-40168428D01*
X89846285Y-40054142D01*
X89903428Y-39825571D01*
X89903428Y-39654142D01*
X89846285Y-39425571D01*
X89789142Y-39311285D01*
X89674857Y-39197000D01*
X89503428Y-39139857D01*
X89389142Y-39139857D01*
X89217714Y-39197000D01*
X89160571Y-39254142D01*
X141489142Y-96382714D02*
X140574857Y-96382714D01*
X141032000Y-96839857D02*
X141032000Y-95925571D01*
X123489142Y-96382714D02*
X122574857Y-96382714D01*
X123032000Y-96839857D02*
X123032000Y-95925571D01*
X105489142Y-96382714D02*
X104574857Y-96382714D01*
X105032000Y-96839857D02*
X105032000Y-95925571D01*
X87489142Y-96382714D02*
X86574857Y-96382714D01*
X87032000Y-96839857D02*
X87032000Y-95925571D01*
X69489142Y-96382714D02*
X68574857Y-96382714D01*
X69032000Y-96839857D02*
X69032000Y-95925571D01*
X141489142Y-79382714D02*
X140574857Y-79382714D01*
X141032000Y-79839857D02*
X141032000Y-78925571D01*
X123489142Y-79382714D02*
X122574857Y-79382714D01*
X123032000Y-79839857D02*
X123032000Y-78925571D01*
X105489142Y-79382714D02*
X104574857Y-79382714D01*
X105032000Y-79839857D02*
X105032000Y-78925571D01*
X87489142Y-79382714D02*
X86574857Y-79382714D01*
X87032000Y-79839857D02*
X87032000Y-78925571D01*
X69489142Y-79382714D02*
X68574857Y-79382714D01*
X69032000Y-79839857D02*
X69032000Y-78925571D01*
X141489142Y-62382714D02*
X140574857Y-62382714D01*
X141032000Y-62839857D02*
X141032000Y-61925571D01*
X123489142Y-62382714D02*
X122574857Y-62382714D01*
X123032000Y-62839857D02*
X123032000Y-61925571D01*
X105489142Y-62382714D02*
X104574857Y-62382714D01*
X105032000Y-62839857D02*
X105032000Y-61925571D01*
X87489142Y-62382714D02*
X86574857Y-62382714D01*
X87032000Y-62839857D02*
X87032000Y-61925571D01*
X69489142Y-62382714D02*
X68574857Y-62382714D01*
X69032000Y-62839857D02*
X69032000Y-61925571D01*
X141489142Y-45382714D02*
X140574857Y-45382714D01*
X141032000Y-45839857D02*
X141032000Y-44925571D01*
X123489142Y-45382714D02*
X122574857Y-45382714D01*
X123032000Y-45839857D02*
X123032000Y-44925571D01*
X105489142Y-45382714D02*
X104574857Y-45382714D01*
X105032000Y-45839857D02*
X105032000Y-44925571D01*
X87489142Y-45382714D02*
X86574857Y-45382714D01*
X87032000Y-45839857D02*
X87032000Y-44925571D01*
X69489142Y-45382714D02*
X68574857Y-45382714D01*
X69032000Y-45839857D02*
X69032000Y-44925571D01*
X141489142Y-28382714D02*
X140574857Y-28382714D01*
X141032000Y-28839857D02*
X141032000Y-27925571D01*
X123489142Y-28382714D02*
X122574857Y-28382714D01*
X123032000Y-28839857D02*
X123032000Y-27925571D01*
X105489142Y-28382714D02*
X104574857Y-28382714D01*
X105032000Y-28839857D02*
X105032000Y-27925571D01*
X87489142Y-28382714D02*
X86574857Y-28382714D01*
X87032000Y-28839857D02*
X87032000Y-27925571D01*
X141160571Y-101839857D02*
X141560571Y-101268428D01*
X141846285Y-101839857D02*
X141846285Y-100639857D01*
X141389142Y-100639857D01*
X141274857Y-100697000D01*
X141217714Y-100754142D01*
X141160571Y-100868428D01*
X141160571Y-101039857D01*
X141217714Y-101154142D01*
X141274857Y-101211285D01*
X141389142Y-101268428D01*
X141846285Y-101268428D01*
X123160571Y-101839857D02*
X123560571Y-101268428D01*
X123846285Y-101839857D02*
X123846285Y-100639857D01*
X123389142Y-100639857D01*
X123274857Y-100697000D01*
X123217714Y-100754142D01*
X123160571Y-100868428D01*
X123160571Y-101039857D01*
X123217714Y-101154142D01*
X123274857Y-101211285D01*
X123389142Y-101268428D01*
X123846285Y-101268428D01*
X105160571Y-101839857D02*
X105560571Y-101268428D01*
X105846285Y-101839857D02*
X105846285Y-100639857D01*
X105389142Y-100639857D01*
X105274857Y-100697000D01*
X105217714Y-100754142D01*
X105160571Y-100868428D01*
X105160571Y-101039857D01*
X105217714Y-101154142D01*
X105274857Y-101211285D01*
X105389142Y-101268428D01*
X105846285Y-101268428D01*
X87160571Y-101839857D02*
X87560571Y-101268428D01*
X87846285Y-101839857D02*
X87846285Y-100639857D01*
X87389142Y-100639857D01*
X87274857Y-100697000D01*
X87217714Y-100754142D01*
X87160571Y-100868428D01*
X87160571Y-101039857D01*
X87217714Y-101154142D01*
X87274857Y-101211285D01*
X87389142Y-101268428D01*
X87846285Y-101268428D01*
X69160571Y-101839857D02*
X69560571Y-101268428D01*
X69846285Y-101839857D02*
X69846285Y-100639857D01*
X69389142Y-100639857D01*
X69274857Y-100697000D01*
X69217714Y-100754142D01*
X69160571Y-100868428D01*
X69160571Y-101039857D01*
X69217714Y-101154142D01*
X69274857Y-101211285D01*
X69389142Y-101268428D01*
X69846285Y-101268428D01*
X141160571Y-84839857D02*
X141560571Y-84268428D01*
X141846285Y-84839857D02*
X141846285Y-83639857D01*
X141389142Y-83639857D01*
X141274857Y-83697000D01*
X141217714Y-83754142D01*
X141160571Y-83868428D01*
X141160571Y-84039857D01*
X141217714Y-84154142D01*
X141274857Y-84211285D01*
X141389142Y-84268428D01*
X141846285Y-84268428D01*
X123160571Y-84839857D02*
X123560571Y-84268428D01*
X123846285Y-84839857D02*
X123846285Y-83639857D01*
X123389142Y-83639857D01*
X123274857Y-83697000D01*
X123217714Y-83754142D01*
X123160571Y-83868428D01*
X123160571Y-84039857D01*
X123217714Y-84154142D01*
X123274857Y-84211285D01*
X123389142Y-84268428D01*
X123846285Y-84268428D01*
X105160571Y-84839857D02*
X105560571Y-84268428D01*
X105846285Y-84839857D02*
X105846285Y-83639857D01*
X105389142Y-83639857D01*
X105274857Y-83697000D01*
X105217714Y-83754142D01*
X105160571Y-83868428D01*
X105160571Y-84039857D01*
X105217714Y-84154142D01*
X105274857Y-84211285D01*
X105389142Y-84268428D01*
X105846285Y-84268428D01*
X87160571Y-84839857D02*
X87560571Y-84268428D01*
X87846285Y-84839857D02*
X87846285Y-83639857D01*
X87389142Y-83639857D01*
X87274857Y-83697000D01*
X87217714Y-83754142D01*
X87160571Y-83868428D01*
X87160571Y-84039857D01*
X87217714Y-84154142D01*
X87274857Y-84211285D01*
X87389142Y-84268428D01*
X87846285Y-84268428D01*
X69160571Y-84839857D02*
X69560571Y-84268428D01*
X69846285Y-84839857D02*
X69846285Y-83639857D01*
X69389142Y-83639857D01*
X69274857Y-83697000D01*
X69217714Y-83754142D01*
X69160571Y-83868428D01*
X69160571Y-84039857D01*
X69217714Y-84154142D01*
X69274857Y-84211285D01*
X69389142Y-84268428D01*
X69846285Y-84268428D01*
X141160571Y-67839857D02*
X141560571Y-67268428D01*
X141846285Y-67839857D02*
X141846285Y-66639857D01*
X141389142Y-66639857D01*
X141274857Y-66697000D01*
X141217714Y-66754142D01*
X141160571Y-66868428D01*
X141160571Y-67039857D01*
X141217714Y-67154142D01*
X141274857Y-67211285D01*
X141389142Y-67268428D01*
X141846285Y-67268428D01*
X123160571Y-67839857D02*
X123560571Y-67268428D01*
X123846285Y-67839857D02*
X123846285Y-66639857D01*
X123389142Y-66639857D01*
X123274857Y-66697000D01*
X123217714Y-66754142D01*
X123160571Y-66868428D01*
X123160571Y-67039857D01*
X123217714Y-67154142D01*
X123274857Y-67211285D01*
X123389142Y-67268428D01*
X123846285Y-67268428D01*
X105160571Y-67839857D02*
X105560571Y-67268428D01*
X105846285Y-67839857D02*
X105846285Y-66639857D01*
X105389142Y-66639857D01*
X105274857Y-66697000D01*
X105217714Y-66754142D01*
X105160571Y-66868428D01*
X105160571Y-67039857D01*
X105217714Y-67154142D01*
X105274857Y-67211285D01*
X105389142Y-67268428D01*
X105846285Y-67268428D01*
X87160571Y-67839857D02*
X87560571Y-67268428D01*
X87846285Y-67839857D02*
X87846285Y-66639857D01*
X87389142Y-66639857D01*
X87274857Y-66697000D01*
X87217714Y-66754142D01*
X87160571Y-66868428D01*
X87160571Y-67039857D01*
X87217714Y-67154142D01*
X87274857Y-67211285D01*
X87389142Y-67268428D01*
X87846285Y-67268428D01*
X69160571Y-67839857D02*
X69560571Y-67268428D01*
X69846285Y-67839857D02*
X69846285Y-66639857D01*
X69389142Y-66639857D01*
X69274857Y-66697000D01*
X69217714Y-66754142D01*
X69160571Y-66868428D01*
X69160571Y-67039857D01*
X69217714Y-67154142D01*
X69274857Y-67211285D01*
X69389142Y-67268428D01*
X69846285Y-67268428D01*
X141160571Y-50839857D02*
X141560571Y-50268428D01*
X141846285Y-50839857D02*
X141846285Y-49639857D01*
X141389142Y-49639857D01*
X141274857Y-49697000D01*
X141217714Y-49754142D01*
X141160571Y-49868428D01*
X141160571Y-50039857D01*
X141217714Y-50154142D01*
X141274857Y-50211285D01*
X141389142Y-50268428D01*
X141846285Y-50268428D01*
X123160571Y-50839857D02*
X123560571Y-50268428D01*
X123846285Y-50839857D02*
X123846285Y-49639857D01*
X123389142Y-49639857D01*
X123274857Y-49697000D01*
X123217714Y-49754142D01*
X123160571Y-49868428D01*
X123160571Y-50039857D01*
X123217714Y-50154142D01*
X123274857Y-50211285D01*
X123389142Y-50268428D01*
X123846285Y-50268428D01*
X105160571Y-50839857D02*
X105560571Y-50268428D01*
X105846285Y-50839857D02*
X105846285Y-49639857D01*
X105389142Y-49639857D01*
X105274857Y-49697000D01*
X105217714Y-49754142D01*
X105160571Y-49868428D01*
X105160571Y-50039857D01*
X105217714Y-50154142D01*
X105274857Y-50211285D01*
X105389142Y-50268428D01*
X105846285Y-50268428D01*
X87160571Y-50839857D02*
X87560571Y-50268428D01*
X87846285Y-50839857D02*
X87846285Y-49639857D01*
X87389142Y-49639857D01*
X87274857Y-49697000D01*
X87217714Y-49754142D01*
X87160571Y-49868428D01*
X87160571Y-50039857D01*
X87217714Y-50154142D01*
X87274857Y-50211285D01*
X87389142Y-50268428D01*
X87846285Y-50268428D01*
X69160571Y-50839857D02*
X69560571Y-50268428D01*
X69846285Y-50839857D02*
X69846285Y-49639857D01*
X69389142Y-49639857D01*
X69274857Y-49697000D01*
X69217714Y-49754142D01*
X69160571Y-49868428D01*
X69160571Y-50039857D01*
X69217714Y-50154142D01*
X69274857Y-50211285D01*
X69389142Y-50268428D01*
X69846285Y-50268428D01*
X141160571Y-33839857D02*
X141560571Y-33268428D01*
X141846285Y-33839857D02*
X141846285Y-32639857D01*
X141389142Y-32639857D01*
X141274857Y-32697000D01*
X141217714Y-32754142D01*
X141160571Y-32868428D01*
X141160571Y-33039857D01*
X141217714Y-33154142D01*
X141274857Y-33211285D01*
X141389142Y-33268428D01*
X141846285Y-33268428D01*
X123160571Y-33839857D02*
X123560571Y-33268428D01*
X123846285Y-33839857D02*
X123846285Y-32639857D01*
X123389142Y-32639857D01*
X123274857Y-32697000D01*
X123217714Y-32754142D01*
X123160571Y-32868428D01*
X123160571Y-33039857D01*
X123217714Y-33154142D01*
X123274857Y-33211285D01*
X123389142Y-33268428D01*
X123846285Y-33268428D01*
X105160571Y-33839857D02*
X105560571Y-33268428D01*
X105846285Y-33839857D02*
X105846285Y-32639857D01*
X105389142Y-32639857D01*
X105274857Y-32697000D01*
X105217714Y-32754142D01*
X105160571Y-32868428D01*
X105160571Y-33039857D01*
X105217714Y-33154142D01*
X105274857Y-33211285D01*
X105389142Y-33268428D01*
X105846285Y-33268428D01*
X87160571Y-33839857D02*
X87560571Y-33268428D01*
X87846285Y-33839857D02*
X87846285Y-32639857D01*
X87389142Y-32639857D01*
X87274857Y-32697000D01*
X87217714Y-32754142D01*
X87160571Y-32868428D01*
X87160571Y-33039857D01*
X87217714Y-33154142D01*
X87274857Y-33211285D01*
X87389142Y-33268428D01*
X87846285Y-33268428D01*
X151160571Y-101839857D02*
X151560571Y-101268428D01*
X151846285Y-101839857D02*
X151846285Y-100639857D01*
X151389142Y-100639857D01*
X151274857Y-100697000D01*
X151217714Y-100754142D01*
X151160571Y-100868428D01*
X151160571Y-101039857D01*
X151217714Y-101154142D01*
X151274857Y-101211285D01*
X151389142Y-101268428D01*
X151846285Y-101268428D01*
X133160571Y-101839857D02*
X133560571Y-101268428D01*
X133846285Y-101839857D02*
X133846285Y-100639857D01*
X133389142Y-100639857D01*
X133274857Y-100697000D01*
X133217714Y-100754142D01*
X133160571Y-100868428D01*
X133160571Y-101039857D01*
X133217714Y-101154142D01*
X133274857Y-101211285D01*
X133389142Y-101268428D01*
X133846285Y-101268428D01*
X115160571Y-101839857D02*
X115560571Y-101268428D01*
X115846285Y-101839857D02*
X115846285Y-100639857D01*
X115389142Y-100639857D01*
X115274857Y-100697000D01*
X115217714Y-100754142D01*
X115160571Y-100868428D01*
X115160571Y-101039857D01*
X115217714Y-101154142D01*
X115274857Y-101211285D01*
X115389142Y-101268428D01*
X115846285Y-101268428D01*
X97160571Y-101839857D02*
X97560571Y-101268428D01*
X97846285Y-101839857D02*
X97846285Y-100639857D01*
X97389142Y-100639857D01*
X97274857Y-100697000D01*
X97217714Y-100754142D01*
X97160571Y-100868428D01*
X97160571Y-101039857D01*
X97217714Y-101154142D01*
X97274857Y-101211285D01*
X97389142Y-101268428D01*
X97846285Y-101268428D01*
X79160571Y-101839857D02*
X79560571Y-101268428D01*
X79846285Y-101839857D02*
X79846285Y-100639857D01*
X79389142Y-100639857D01*
X79274857Y-100697000D01*
X79217714Y-100754142D01*
X79160571Y-100868428D01*
X79160571Y-101039857D01*
X79217714Y-101154142D01*
X79274857Y-101211285D01*
X79389142Y-101268428D01*
X79846285Y-101268428D01*
X151160571Y-84839857D02*
X151560571Y-84268428D01*
X151846285Y-84839857D02*
X151846285Y-83639857D01*
X151389142Y-83639857D01*
X151274857Y-83697000D01*
X151217714Y-83754142D01*
X151160571Y-83868428D01*
X151160571Y-84039857D01*
X151217714Y-84154142D01*
X151274857Y-84211285D01*
X151389142Y-84268428D01*
X151846285Y-84268428D01*
X133160571Y-84839857D02*
X133560571Y-84268428D01*
X133846285Y-84839857D02*
X133846285Y-83639857D01*
X133389142Y-83639857D01*
X133274857Y-83697000D01*
X133217714Y-83754142D01*
X133160571Y-83868428D01*
X133160571Y-84039857D01*
X133217714Y-84154142D01*
X133274857Y-84211285D01*
X133389142Y-84268428D01*
X133846285Y-84268428D01*
X115160571Y-84839857D02*
X115560571Y-84268428D01*
X115846285Y-84839857D02*
X115846285Y-83639857D01*
X115389142Y-83639857D01*
X115274857Y-83697000D01*
X115217714Y-83754142D01*
X115160571Y-83868428D01*
X115160571Y-84039857D01*
X115217714Y-84154142D01*
X115274857Y-84211285D01*
X115389142Y-84268428D01*
X115846285Y-84268428D01*
X97160571Y-84839857D02*
X97560571Y-84268428D01*
X97846285Y-84839857D02*
X97846285Y-83639857D01*
X97389142Y-83639857D01*
X97274857Y-83697000D01*
X97217714Y-83754142D01*
X97160571Y-83868428D01*
X97160571Y-84039857D01*
X97217714Y-84154142D01*
X97274857Y-84211285D01*
X97389142Y-84268428D01*
X97846285Y-84268428D01*
X79160571Y-84839857D02*
X79560571Y-84268428D01*
X79846285Y-84839857D02*
X79846285Y-83639857D01*
X79389142Y-83639857D01*
X79274857Y-83697000D01*
X79217714Y-83754142D01*
X79160571Y-83868428D01*
X79160571Y-84039857D01*
X79217714Y-84154142D01*
X79274857Y-84211285D01*
X79389142Y-84268428D01*
X79846285Y-84268428D01*
X151160571Y-67839857D02*
X151560571Y-67268428D01*
X151846285Y-67839857D02*
X151846285Y-66639857D01*
X151389142Y-66639857D01*
X151274857Y-66697000D01*
X151217714Y-66754142D01*
X151160571Y-66868428D01*
X151160571Y-67039857D01*
X151217714Y-67154142D01*
X151274857Y-67211285D01*
X151389142Y-67268428D01*
X151846285Y-67268428D01*
X133160571Y-67839857D02*
X133560571Y-67268428D01*
X133846285Y-67839857D02*
X133846285Y-66639857D01*
X133389142Y-66639857D01*
X133274857Y-66697000D01*
X133217714Y-66754142D01*
X133160571Y-66868428D01*
X133160571Y-67039857D01*
X133217714Y-67154142D01*
X133274857Y-67211285D01*
X133389142Y-67268428D01*
X133846285Y-67268428D01*
X115160571Y-67839857D02*
X115560571Y-67268428D01*
X115846285Y-67839857D02*
X115846285Y-66639857D01*
X115389142Y-66639857D01*
X115274857Y-66697000D01*
X115217714Y-66754142D01*
X115160571Y-66868428D01*
X115160571Y-67039857D01*
X115217714Y-67154142D01*
X115274857Y-67211285D01*
X115389142Y-67268428D01*
X115846285Y-67268428D01*
X97160571Y-67839857D02*
X97560571Y-67268428D01*
X97846285Y-67839857D02*
X97846285Y-66639857D01*
X97389142Y-66639857D01*
X97274857Y-66697000D01*
X97217714Y-66754142D01*
X97160571Y-66868428D01*
X97160571Y-67039857D01*
X97217714Y-67154142D01*
X97274857Y-67211285D01*
X97389142Y-67268428D01*
X97846285Y-67268428D01*
X79160571Y-67839857D02*
X79560571Y-67268428D01*
X79846285Y-67839857D02*
X79846285Y-66639857D01*
X79389142Y-66639857D01*
X79274857Y-66697000D01*
X79217714Y-66754142D01*
X79160571Y-66868428D01*
X79160571Y-67039857D01*
X79217714Y-67154142D01*
X79274857Y-67211285D01*
X79389142Y-67268428D01*
X79846285Y-67268428D01*
X151160571Y-50839857D02*
X151560571Y-50268428D01*
X151846285Y-50839857D02*
X151846285Y-49639857D01*
X151389142Y-49639857D01*
X151274857Y-49697000D01*
X151217714Y-49754142D01*
X151160571Y-49868428D01*
X151160571Y-50039857D01*
X151217714Y-50154142D01*
X151274857Y-50211285D01*
X151389142Y-50268428D01*
X151846285Y-50268428D01*
X133160571Y-50839857D02*
X133560571Y-50268428D01*
X133846285Y-50839857D02*
X133846285Y-49639857D01*
X133389142Y-49639857D01*
X133274857Y-49697000D01*
X133217714Y-49754142D01*
X133160571Y-49868428D01*
X133160571Y-50039857D01*
X133217714Y-50154142D01*
X133274857Y-50211285D01*
X133389142Y-50268428D01*
X133846285Y-50268428D01*
X115160571Y-50839857D02*
X115560571Y-50268428D01*
X115846285Y-50839857D02*
X115846285Y-49639857D01*
X115389142Y-49639857D01*
X115274857Y-49697000D01*
X115217714Y-49754142D01*
X115160571Y-49868428D01*
X115160571Y-50039857D01*
X115217714Y-50154142D01*
X115274857Y-50211285D01*
X115389142Y-50268428D01*
X115846285Y-50268428D01*
X97160571Y-50839857D02*
X97560571Y-50268428D01*
X97846285Y-50839857D02*
X97846285Y-49639857D01*
X97389142Y-49639857D01*
X97274857Y-49697000D01*
X97217714Y-49754142D01*
X97160571Y-49868428D01*
X97160571Y-50039857D01*
X97217714Y-50154142D01*
X97274857Y-50211285D01*
X97389142Y-50268428D01*
X97846285Y-50268428D01*
X79160571Y-50839857D02*
X79560571Y-50268428D01*
X79846285Y-50839857D02*
X79846285Y-49639857D01*
X79389142Y-49639857D01*
X79274857Y-49697000D01*
X79217714Y-49754142D01*
X79160571Y-49868428D01*
X79160571Y-50039857D01*
X79217714Y-50154142D01*
X79274857Y-50211285D01*
X79389142Y-50268428D01*
X79846285Y-50268428D01*
X151160571Y-33839857D02*
X151560571Y-33268428D01*
X151846285Y-33839857D02*
X151846285Y-32639857D01*
X151389142Y-32639857D01*
X151274857Y-32697000D01*
X151217714Y-32754142D01*
X151160571Y-32868428D01*
X151160571Y-33039857D01*
X151217714Y-33154142D01*
X151274857Y-33211285D01*
X151389142Y-33268428D01*
X151846285Y-33268428D01*
X133160571Y-33839857D02*
X133560571Y-33268428D01*
X133846285Y-33839857D02*
X133846285Y-32639857D01*
X133389142Y-32639857D01*
X133274857Y-32697000D01*
X133217714Y-32754142D01*
X133160571Y-32868428D01*
X133160571Y-33039857D01*
X133217714Y-33154142D01*
X133274857Y-33211285D01*
X133389142Y-33268428D01*
X133846285Y-33268428D01*
X115160571Y-33839857D02*
X115560571Y-33268428D01*
X115846285Y-33839857D02*
X115846285Y-32639857D01*
X115389142Y-32639857D01*
X115274857Y-32697000D01*
X115217714Y-32754142D01*
X115160571Y-32868428D01*
X115160571Y-33039857D01*
X115217714Y-33154142D01*
X115274857Y-33211285D01*
X115389142Y-33268428D01*
X115846285Y-33268428D01*
X97160571Y-33839857D02*
X97560571Y-33268428D01*
X97846285Y-33839857D02*
X97846285Y-32639857D01*
X97389142Y-32639857D01*
X97274857Y-32697000D01*
X97217714Y-32754142D01*
X97160571Y-32868428D01*
X97160571Y-33039857D01*
X97217714Y-33154142D01*
X97274857Y-33211285D01*
X97389142Y-33268428D01*
X97846285Y-33268428D01*
X152739142Y-108632714D02*
X151824857Y-108632714D01*
X134739142Y-108632714D02*
X133824857Y-108632714D01*
X116739142Y-108632714D02*
X115824857Y-108632714D01*
X98739142Y-108632714D02*
X97824857Y-108632714D01*
X80739142Y-108632714D02*
X79824857Y-108632714D01*
X152739142Y-91632714D02*
X151824857Y-91632714D01*
X134739142Y-91632714D02*
X133824857Y-91632714D01*
X116739142Y-91632714D02*
X115824857Y-91632714D01*
X98739142Y-91632714D02*
X97824857Y-91632714D01*
X80739142Y-91632714D02*
X79824857Y-91632714D01*
X152739142Y-74632714D02*
X151824857Y-74632714D01*
X134739142Y-74632714D02*
X133824857Y-74632714D01*
X116739142Y-74632714D02*
X115824857Y-74632714D01*
X98739142Y-74632714D02*
X97824857Y-74632714D01*
X80739142Y-74632714D02*
X79824857Y-74632714D01*
X152739142Y-57632714D02*
X151824857Y-57632714D01*
X134739142Y-57632714D02*
X133824857Y-57632714D01*
X116739142Y-57632714D02*
X115824857Y-57632714D01*
X98739142Y-57632714D02*
X97824857Y-57632714D01*
X80739142Y-57632714D02*
X79824857Y-57632714D01*
X152739142Y-40632714D02*
X151824857Y-40632714D01*
X134739142Y-40632714D02*
X133824857Y-40632714D01*
X116739142Y-40632714D02*
X115824857Y-40632714D01*
X98739142Y-40632714D02*
X97824857Y-40632714D01*
X141739142Y-109382714D02*
X140824857Y-109382714D01*
X141282000Y-109839857D02*
X141282000Y-108925571D01*
X123739142Y-109382714D02*
X122824857Y-109382714D01*
X123282000Y-109839857D02*
X123282000Y-108925571D01*
X105739142Y-109382714D02*
X104824857Y-109382714D01*
X105282000Y-109839857D02*
X105282000Y-108925571D01*
X87739142Y-109382714D02*
X86824857Y-109382714D01*
X87282000Y-109839857D02*
X87282000Y-108925571D01*
X69739142Y-109382714D02*
X68824857Y-109382714D01*
X69282000Y-109839857D02*
X69282000Y-108925571D01*
X141739142Y-92382714D02*
X140824857Y-92382714D01*
X141282000Y-92839857D02*
X141282000Y-91925571D01*
X123739142Y-92382714D02*
X122824857Y-92382714D01*
X123282000Y-92839857D02*
X123282000Y-91925571D01*
X105739142Y-92382714D02*
X104824857Y-92382714D01*
X105282000Y-92839857D02*
X105282000Y-91925571D01*
X87739142Y-92382714D02*
X86824857Y-92382714D01*
X87282000Y-92839857D02*
X87282000Y-91925571D01*
X69739142Y-92382714D02*
X68824857Y-92382714D01*
X69282000Y-92839857D02*
X69282000Y-91925571D01*
X141739142Y-75382714D02*
X140824857Y-75382714D01*
X141282000Y-75839857D02*
X141282000Y-74925571D01*
X123739142Y-75382714D02*
X122824857Y-75382714D01*
X123282000Y-75839857D02*
X123282000Y-74925571D01*
X105739142Y-75382714D02*
X104824857Y-75382714D01*
X105282000Y-75839857D02*
X105282000Y-74925571D01*
X87739142Y-75382714D02*
X86824857Y-75382714D01*
X87282000Y-75839857D02*
X87282000Y-74925571D01*
X69739142Y-75382714D02*
X68824857Y-75382714D01*
X69282000Y-75839857D02*
X69282000Y-74925571D01*
X141739142Y-58382714D02*
X140824857Y-58382714D01*
X141282000Y-58839857D02*
X141282000Y-57925571D01*
X123739142Y-58382714D02*
X122824857Y-58382714D01*
X123282000Y-58839857D02*
X123282000Y-57925571D01*
X105739142Y-58382714D02*
X104824857Y-58382714D01*
X105282000Y-58839857D02*
X105282000Y-57925571D01*
X87739142Y-58382714D02*
X86824857Y-58382714D01*
X87282000Y-58839857D02*
X87282000Y-57925571D01*
X69739142Y-58382714D02*
X68824857Y-58382714D01*
X69282000Y-58839857D02*
X69282000Y-57925571D01*
X141739142Y-41382714D02*
X140824857Y-41382714D01*
X141282000Y-41839857D02*
X141282000Y-40925571D01*
X123739142Y-41382714D02*
X122824857Y-41382714D01*
X123282000Y-41839857D02*
X123282000Y-40925571D01*
X105739142Y-41382714D02*
X104824857Y-41382714D01*
X105282000Y-41839857D02*
X105282000Y-40925571D01*
X87739142Y-41382714D02*
X86824857Y-41382714D01*
X87282000Y-41839857D02*
X87282000Y-40925571D01*
X142974857Y-105839857D02*
X142974857Y-104639857D01*
X142689142Y-104639857D01*
X142517714Y-104697000D01*
X142403428Y-104811285D01*
X142346285Y-104925571D01*
X142289142Y-105154142D01*
X142289142Y-105325571D01*
X142346285Y-105554142D01*
X142403428Y-105668428D01*
X142517714Y-105782714D01*
X142689142Y-105839857D01*
X142974857Y-105839857D01*
X141546285Y-104639857D02*
X141317714Y-104639857D01*
X141203428Y-104697000D01*
X141089142Y-104811285D01*
X141032000Y-105039857D01*
X141032000Y-105439857D01*
X141089142Y-105668428D01*
X141203428Y-105782714D01*
X141317714Y-105839857D01*
X141546285Y-105839857D01*
X141660571Y-105782714D01*
X141774857Y-105668428D01*
X141832000Y-105439857D01*
X141832000Y-105039857D01*
X141774857Y-104811285D01*
X141660571Y-104697000D01*
X141546285Y-104639857D01*
X124974857Y-105839857D02*
X124974857Y-104639857D01*
X124689142Y-104639857D01*
X124517714Y-104697000D01*
X124403428Y-104811285D01*
X124346285Y-104925571D01*
X124289142Y-105154142D01*
X124289142Y-105325571D01*
X124346285Y-105554142D01*
X124403428Y-105668428D01*
X124517714Y-105782714D01*
X124689142Y-105839857D01*
X124974857Y-105839857D01*
X123546285Y-104639857D02*
X123317714Y-104639857D01*
X123203428Y-104697000D01*
X123089142Y-104811285D01*
X123032000Y-105039857D01*
X123032000Y-105439857D01*
X123089142Y-105668428D01*
X123203428Y-105782714D01*
X123317714Y-105839857D01*
X123546285Y-105839857D01*
X123660571Y-105782714D01*
X123774857Y-105668428D01*
X123832000Y-105439857D01*
X123832000Y-105039857D01*
X123774857Y-104811285D01*
X123660571Y-104697000D01*
X123546285Y-104639857D01*
X106974857Y-105839857D02*
X106974857Y-104639857D01*
X106689142Y-104639857D01*
X106517714Y-104697000D01*
X106403428Y-104811285D01*
X106346285Y-104925571D01*
X106289142Y-105154142D01*
X106289142Y-105325571D01*
X106346285Y-105554142D01*
X106403428Y-105668428D01*
X106517714Y-105782714D01*
X106689142Y-105839857D01*
X106974857Y-105839857D01*
X105546285Y-104639857D02*
X105317714Y-104639857D01*
X105203428Y-104697000D01*
X105089142Y-104811285D01*
X105032000Y-105039857D01*
X105032000Y-105439857D01*
X105089142Y-105668428D01*
X105203428Y-105782714D01*
X105317714Y-105839857D01*
X105546285Y-105839857D01*
X105660571Y-105782714D01*
X105774857Y-105668428D01*
X105832000Y-105439857D01*
X105832000Y-105039857D01*
X105774857Y-104811285D01*
X105660571Y-104697000D01*
X105546285Y-104639857D01*
X88974857Y-105839857D02*
X88974857Y-104639857D01*
X88689142Y-104639857D01*
X88517714Y-104697000D01*
X88403428Y-104811285D01*
X88346285Y-104925571D01*
X88289142Y-105154142D01*
X88289142Y-105325571D01*
X88346285Y-105554142D01*
X88403428Y-105668428D01*
X88517714Y-105782714D01*
X88689142Y-105839857D01*
X88974857Y-105839857D01*
X87546285Y-104639857D02*
X87317714Y-104639857D01*
X87203428Y-104697000D01*
X87089142Y-104811285D01*
X87032000Y-105039857D01*
X87032000Y-105439857D01*
X87089142Y-105668428D01*
X87203428Y-105782714D01*
X87317714Y-105839857D01*
X87546285Y-105839857D01*
X87660571Y-105782714D01*
X87774857Y-105668428D01*
X87832000Y-105439857D01*
X87832000Y-105039857D01*
X87774857Y-104811285D01*
X87660571Y-104697000D01*
X87546285Y-104639857D01*
X70974857Y-105839857D02*
X70974857Y-104639857D01*
X70689142Y-104639857D01*
X70517714Y-104697000D01*
X70403428Y-104811285D01*
X70346285Y-104925571D01*
X70289142Y-105154142D01*
X70289142Y-105325571D01*
X70346285Y-105554142D01*
X70403428Y-105668428D01*
X70517714Y-105782714D01*
X70689142Y-105839857D01*
X70974857Y-105839857D01*
X69546285Y-104639857D02*
X69317714Y-104639857D01*
X69203428Y-104697000D01*
X69089142Y-104811285D01*
X69032000Y-105039857D01*
X69032000Y-105439857D01*
X69089142Y-105668428D01*
X69203428Y-105782714D01*
X69317714Y-105839857D01*
X69546285Y-105839857D01*
X69660571Y-105782714D01*
X69774857Y-105668428D01*
X69832000Y-105439857D01*
X69832000Y-105039857D01*
X69774857Y-104811285D01*
X69660571Y-104697000D01*
X69546285Y-104639857D01*
X142974857Y-88839857D02*
X142974857Y-87639857D01*
X142689142Y-87639857D01*
X142517714Y-87697000D01*
X142403428Y-87811285D01*
X142346285Y-87925571D01*
X142289142Y-88154142D01*
X142289142Y-88325571D01*
X142346285Y-88554142D01*
X142403428Y-88668428D01*
X142517714Y-88782714D01*
X142689142Y-88839857D01*
X142974857Y-88839857D01*
X141546285Y-87639857D02*
X141317714Y-87639857D01*
X141203428Y-87697000D01*
X141089142Y-87811285D01*
X141032000Y-88039857D01*
X141032000Y-88439857D01*
X141089142Y-88668428D01*
X141203428Y-88782714D01*
X141317714Y-88839857D01*
X141546285Y-88839857D01*
X141660571Y-88782714D01*
X141774857Y-88668428D01*
X141832000Y-88439857D01*
X141832000Y-88039857D01*
X141774857Y-87811285D01*
X141660571Y-87697000D01*
X141546285Y-87639857D01*
X124974857Y-88839857D02*
X124974857Y-87639857D01*
X124689142Y-87639857D01*
X124517714Y-87697000D01*
X124403428Y-87811285D01*
X124346285Y-87925571D01*
X124289142Y-88154142D01*
X124289142Y-88325571D01*
X124346285Y-88554142D01*
X124403428Y-88668428D01*
X124517714Y-88782714D01*
X124689142Y-88839857D01*
X124974857Y-88839857D01*
X123546285Y-87639857D02*
X123317714Y-87639857D01*
X123203428Y-87697000D01*
X123089142Y-87811285D01*
X123032000Y-88039857D01*
X123032000Y-88439857D01*
X123089142Y-88668428D01*
X123203428Y-88782714D01*
X123317714Y-88839857D01*
X123546285Y-88839857D01*
X123660571Y-88782714D01*
X123774857Y-88668428D01*
X123832000Y-88439857D01*
X123832000Y-88039857D01*
X123774857Y-87811285D01*
X123660571Y-87697000D01*
X123546285Y-87639857D01*
X106974857Y-88839857D02*
X106974857Y-87639857D01*
X106689142Y-87639857D01*
X106517714Y-87697000D01*
X106403428Y-87811285D01*
X106346285Y-87925571D01*
X106289142Y-88154142D01*
X106289142Y-88325571D01*
X106346285Y-88554142D01*
X106403428Y-88668428D01*
X106517714Y-88782714D01*
X106689142Y-88839857D01*
X106974857Y-88839857D01*
X105546285Y-87639857D02*
X105317714Y-87639857D01*
X105203428Y-87697000D01*
X105089142Y-87811285D01*
X105032000Y-88039857D01*
X105032000Y-88439857D01*
X105089142Y-88668428D01*
X105203428Y-88782714D01*
X105317714Y-88839857D01*
X105546285Y-88839857D01*
X105660571Y-88782714D01*
X105774857Y-88668428D01*
X105832000Y-88439857D01*
X105832000Y-88039857D01*
X105774857Y-87811285D01*
X105660571Y-87697000D01*
X105546285Y-87639857D01*
X88974857Y-88839857D02*
X88974857Y-87639857D01*
X88689142Y-87639857D01*
X88517714Y-87697000D01*
X88403428Y-87811285D01*
X88346285Y-87925571D01*
X88289142Y-88154142D01*
X88289142Y-88325571D01*
X88346285Y-88554142D01*
X88403428Y-88668428D01*
X88517714Y-88782714D01*
X88689142Y-88839857D01*
X88974857Y-88839857D01*
X87546285Y-87639857D02*
X87317714Y-87639857D01*
X87203428Y-87697000D01*
X87089142Y-87811285D01*
X87032000Y-88039857D01*
X87032000Y-88439857D01*
X87089142Y-88668428D01*
X87203428Y-88782714D01*
X87317714Y-88839857D01*
X87546285Y-88839857D01*
X87660571Y-88782714D01*
X87774857Y-88668428D01*
X87832000Y-88439857D01*
X87832000Y-88039857D01*
X87774857Y-87811285D01*
X87660571Y-87697000D01*
X87546285Y-87639857D01*
X70974857Y-88839857D02*
X70974857Y-87639857D01*
X70689142Y-87639857D01*
X70517714Y-87697000D01*
X70403428Y-87811285D01*
X70346285Y-87925571D01*
X70289142Y-88154142D01*
X70289142Y-88325571D01*
X70346285Y-88554142D01*
X70403428Y-88668428D01*
X70517714Y-88782714D01*
X70689142Y-88839857D01*
X70974857Y-88839857D01*
X69546285Y-87639857D02*
X69317714Y-87639857D01*
X69203428Y-87697000D01*
X69089142Y-87811285D01*
X69032000Y-88039857D01*
X69032000Y-88439857D01*
X69089142Y-88668428D01*
X69203428Y-88782714D01*
X69317714Y-88839857D01*
X69546285Y-88839857D01*
X69660571Y-88782714D01*
X69774857Y-88668428D01*
X69832000Y-88439857D01*
X69832000Y-88039857D01*
X69774857Y-87811285D01*
X69660571Y-87697000D01*
X69546285Y-87639857D01*
X142974857Y-71839857D02*
X142974857Y-70639857D01*
X142689142Y-70639857D01*
X142517714Y-70697000D01*
X142403428Y-70811285D01*
X142346285Y-70925571D01*
X142289142Y-71154142D01*
X142289142Y-71325571D01*
X142346285Y-71554142D01*
X142403428Y-71668428D01*
X142517714Y-71782714D01*
X142689142Y-71839857D01*
X142974857Y-71839857D01*
X141546285Y-70639857D02*
X141317714Y-70639857D01*
X141203428Y-70697000D01*
X141089142Y-70811285D01*
X141032000Y-71039857D01*
X141032000Y-71439857D01*
X141089142Y-71668428D01*
X141203428Y-71782714D01*
X141317714Y-71839857D01*
X141546285Y-71839857D01*
X141660571Y-71782714D01*
X141774857Y-71668428D01*
X141832000Y-71439857D01*
X141832000Y-71039857D01*
X141774857Y-70811285D01*
X141660571Y-70697000D01*
X141546285Y-70639857D01*
X124974857Y-71839857D02*
X124974857Y-70639857D01*
X124689142Y-70639857D01*
X124517714Y-70697000D01*
X124403428Y-70811285D01*
X124346285Y-70925571D01*
X124289142Y-71154142D01*
X124289142Y-71325571D01*
X124346285Y-71554142D01*
X124403428Y-71668428D01*
X124517714Y-71782714D01*
X124689142Y-71839857D01*
X124974857Y-71839857D01*
X123546285Y-70639857D02*
X123317714Y-70639857D01*
X123203428Y-70697000D01*
X123089142Y-70811285D01*
X123032000Y-71039857D01*
X123032000Y-71439857D01*
X123089142Y-71668428D01*
X123203428Y-71782714D01*
X123317714Y-71839857D01*
X123546285Y-71839857D01*
X123660571Y-71782714D01*
X123774857Y-71668428D01*
X123832000Y-71439857D01*
X123832000Y-71039857D01*
X123774857Y-70811285D01*
X123660571Y-70697000D01*
X123546285Y-70639857D01*
X106974857Y-71839857D02*
X106974857Y-70639857D01*
X106689142Y-70639857D01*
X106517714Y-70697000D01*
X106403428Y-70811285D01*
X106346285Y-70925571D01*
X106289142Y-71154142D01*
X106289142Y-71325571D01*
X106346285Y-71554142D01*
X106403428Y-71668428D01*
X106517714Y-71782714D01*
X106689142Y-71839857D01*
X106974857Y-71839857D01*
X105546285Y-70639857D02*
X105317714Y-70639857D01*
X105203428Y-70697000D01*
X105089142Y-70811285D01*
X105032000Y-71039857D01*
X105032000Y-71439857D01*
X105089142Y-71668428D01*
X105203428Y-71782714D01*
X105317714Y-71839857D01*
X105546285Y-71839857D01*
X105660571Y-71782714D01*
X105774857Y-71668428D01*
X105832000Y-71439857D01*
X105832000Y-71039857D01*
X105774857Y-70811285D01*
X105660571Y-70697000D01*
X105546285Y-70639857D01*
X88974857Y-71839857D02*
X88974857Y-70639857D01*
X88689142Y-70639857D01*
X88517714Y-70697000D01*
X88403428Y-70811285D01*
X88346285Y-70925571D01*
X88289142Y-71154142D01*
X88289142Y-71325571D01*
X88346285Y-71554142D01*
X88403428Y-71668428D01*
X88517714Y-71782714D01*
X88689142Y-71839857D01*
X88974857Y-71839857D01*
X87546285Y-70639857D02*
X87317714Y-70639857D01*
X87203428Y-70697000D01*
X87089142Y-70811285D01*
X87032000Y-71039857D01*
X87032000Y-71439857D01*
X87089142Y-71668428D01*
X87203428Y-71782714D01*
X87317714Y-71839857D01*
X87546285Y-71839857D01*
X87660571Y-71782714D01*
X87774857Y-71668428D01*
X87832000Y-71439857D01*
X87832000Y-71039857D01*
X87774857Y-70811285D01*
X87660571Y-70697000D01*
X87546285Y-70639857D01*
X70974857Y-71839857D02*
X70974857Y-70639857D01*
X70689142Y-70639857D01*
X70517714Y-70697000D01*
X70403428Y-70811285D01*
X70346285Y-70925571D01*
X70289142Y-71154142D01*
X70289142Y-71325571D01*
X70346285Y-71554142D01*
X70403428Y-71668428D01*
X70517714Y-71782714D01*
X70689142Y-71839857D01*
X70974857Y-71839857D01*
X69546285Y-70639857D02*
X69317714Y-70639857D01*
X69203428Y-70697000D01*
X69089142Y-70811285D01*
X69032000Y-71039857D01*
X69032000Y-71439857D01*
X69089142Y-71668428D01*
X69203428Y-71782714D01*
X69317714Y-71839857D01*
X69546285Y-71839857D01*
X69660571Y-71782714D01*
X69774857Y-71668428D01*
X69832000Y-71439857D01*
X69832000Y-71039857D01*
X69774857Y-70811285D01*
X69660571Y-70697000D01*
X69546285Y-70639857D01*
X142974857Y-54839857D02*
X142974857Y-53639857D01*
X142689142Y-53639857D01*
X142517714Y-53697000D01*
X142403428Y-53811285D01*
X142346285Y-53925571D01*
X142289142Y-54154142D01*
X142289142Y-54325571D01*
X142346285Y-54554142D01*
X142403428Y-54668428D01*
X142517714Y-54782714D01*
X142689142Y-54839857D01*
X142974857Y-54839857D01*
X141546285Y-53639857D02*
X141317714Y-53639857D01*
X141203428Y-53697000D01*
X141089142Y-53811285D01*
X141032000Y-54039857D01*
X141032000Y-54439857D01*
X141089142Y-54668428D01*
X141203428Y-54782714D01*
X141317714Y-54839857D01*
X141546285Y-54839857D01*
X141660571Y-54782714D01*
X141774857Y-54668428D01*
X141832000Y-54439857D01*
X141832000Y-54039857D01*
X141774857Y-53811285D01*
X141660571Y-53697000D01*
X141546285Y-53639857D01*
X124974857Y-54839857D02*
X124974857Y-53639857D01*
X124689142Y-53639857D01*
X124517714Y-53697000D01*
X124403428Y-53811285D01*
X124346285Y-53925571D01*
X124289142Y-54154142D01*
X124289142Y-54325571D01*
X124346285Y-54554142D01*
X124403428Y-54668428D01*
X124517714Y-54782714D01*
X124689142Y-54839857D01*
X124974857Y-54839857D01*
X123546285Y-53639857D02*
X123317714Y-53639857D01*
X123203428Y-53697000D01*
X123089142Y-53811285D01*
X123032000Y-54039857D01*
X123032000Y-54439857D01*
X123089142Y-54668428D01*
X123203428Y-54782714D01*
X123317714Y-54839857D01*
X123546285Y-54839857D01*
X123660571Y-54782714D01*
X123774857Y-54668428D01*
X123832000Y-54439857D01*
X123832000Y-54039857D01*
X123774857Y-53811285D01*
X123660571Y-53697000D01*
X123546285Y-53639857D01*
X106974857Y-54839857D02*
X106974857Y-53639857D01*
X106689142Y-53639857D01*
X106517714Y-53697000D01*
X106403428Y-53811285D01*
X106346285Y-53925571D01*
X106289142Y-54154142D01*
X106289142Y-54325571D01*
X106346285Y-54554142D01*
X106403428Y-54668428D01*
X106517714Y-54782714D01*
X106689142Y-54839857D01*
X106974857Y-54839857D01*
X105546285Y-53639857D02*
X105317714Y-53639857D01*
X105203428Y-53697000D01*
X105089142Y-53811285D01*
X105032000Y-54039857D01*
X105032000Y-54439857D01*
X105089142Y-54668428D01*
X105203428Y-54782714D01*
X105317714Y-54839857D01*
X105546285Y-54839857D01*
X105660571Y-54782714D01*
X105774857Y-54668428D01*
X105832000Y-54439857D01*
X105832000Y-54039857D01*
X105774857Y-53811285D01*
X105660571Y-53697000D01*
X105546285Y-53639857D01*
X88974857Y-54839857D02*
X88974857Y-53639857D01*
X88689142Y-53639857D01*
X88517714Y-53697000D01*
X88403428Y-53811285D01*
X88346285Y-53925571D01*
X88289142Y-54154142D01*
X88289142Y-54325571D01*
X88346285Y-54554142D01*
X88403428Y-54668428D01*
X88517714Y-54782714D01*
X88689142Y-54839857D01*
X88974857Y-54839857D01*
X87546285Y-53639857D02*
X87317714Y-53639857D01*
X87203428Y-53697000D01*
X87089142Y-53811285D01*
X87032000Y-54039857D01*
X87032000Y-54439857D01*
X87089142Y-54668428D01*
X87203428Y-54782714D01*
X87317714Y-54839857D01*
X87546285Y-54839857D01*
X87660571Y-54782714D01*
X87774857Y-54668428D01*
X87832000Y-54439857D01*
X87832000Y-54039857D01*
X87774857Y-53811285D01*
X87660571Y-53697000D01*
X87546285Y-53639857D01*
X70974857Y-54839857D02*
X70974857Y-53639857D01*
X70689142Y-53639857D01*
X70517714Y-53697000D01*
X70403428Y-53811285D01*
X70346285Y-53925571D01*
X70289142Y-54154142D01*
X70289142Y-54325571D01*
X70346285Y-54554142D01*
X70403428Y-54668428D01*
X70517714Y-54782714D01*
X70689142Y-54839857D01*
X70974857Y-54839857D01*
X69546285Y-53639857D02*
X69317714Y-53639857D01*
X69203428Y-53697000D01*
X69089142Y-53811285D01*
X69032000Y-54039857D01*
X69032000Y-54439857D01*
X69089142Y-54668428D01*
X69203428Y-54782714D01*
X69317714Y-54839857D01*
X69546285Y-54839857D01*
X69660571Y-54782714D01*
X69774857Y-54668428D01*
X69832000Y-54439857D01*
X69832000Y-54039857D01*
X69774857Y-53811285D01*
X69660571Y-53697000D01*
X69546285Y-53639857D01*
X142974857Y-37839857D02*
X142974857Y-36639857D01*
X142689142Y-36639857D01*
X142517714Y-36697000D01*
X142403428Y-36811285D01*
X142346285Y-36925571D01*
X142289142Y-37154142D01*
X142289142Y-37325571D01*
X142346285Y-37554142D01*
X142403428Y-37668428D01*
X142517714Y-37782714D01*
X142689142Y-37839857D01*
X142974857Y-37839857D01*
X141546285Y-36639857D02*
X141317714Y-36639857D01*
X141203428Y-36697000D01*
X141089142Y-36811285D01*
X141032000Y-37039857D01*
X141032000Y-37439857D01*
X141089142Y-37668428D01*
X141203428Y-37782714D01*
X141317714Y-37839857D01*
X141546285Y-37839857D01*
X141660571Y-37782714D01*
X141774857Y-37668428D01*
X141832000Y-37439857D01*
X141832000Y-37039857D01*
X141774857Y-36811285D01*
X141660571Y-36697000D01*
X141546285Y-36639857D01*
X124974857Y-37839857D02*
X124974857Y-36639857D01*
X124689142Y-36639857D01*
X124517714Y-36697000D01*
X124403428Y-36811285D01*
X124346285Y-36925571D01*
X124289142Y-37154142D01*
X124289142Y-37325571D01*
X124346285Y-37554142D01*
X124403428Y-37668428D01*
X124517714Y-37782714D01*
X124689142Y-37839857D01*
X124974857Y-37839857D01*
X123546285Y-36639857D02*
X123317714Y-36639857D01*
X123203428Y-36697000D01*
X123089142Y-36811285D01*
X123032000Y-37039857D01*
X123032000Y-37439857D01*
X123089142Y-37668428D01*
X123203428Y-37782714D01*
X123317714Y-37839857D01*
X123546285Y-37839857D01*
X123660571Y-37782714D01*
X123774857Y-37668428D01*
X123832000Y-37439857D01*
X123832000Y-37039857D01*
X123774857Y-36811285D01*
X123660571Y-36697000D01*
X123546285Y-36639857D01*
X106974857Y-37839857D02*
X106974857Y-36639857D01*
X106689142Y-36639857D01*
X106517714Y-36697000D01*
X106403428Y-36811285D01*
X106346285Y-36925571D01*
X106289142Y-37154142D01*
X106289142Y-37325571D01*
X106346285Y-37554142D01*
X106403428Y-37668428D01*
X106517714Y-37782714D01*
X106689142Y-37839857D01*
X106974857Y-37839857D01*
X105546285Y-36639857D02*
X105317714Y-36639857D01*
X105203428Y-36697000D01*
X105089142Y-36811285D01*
X105032000Y-37039857D01*
X105032000Y-37439857D01*
X105089142Y-37668428D01*
X105203428Y-37782714D01*
X105317714Y-37839857D01*
X105546285Y-37839857D01*
X105660571Y-37782714D01*
X105774857Y-37668428D01*
X105832000Y-37439857D01*
X105832000Y-37039857D01*
X105774857Y-36811285D01*
X105660571Y-36697000D01*
X105546285Y-36639857D01*
X88974857Y-37839857D02*
X88974857Y-36639857D01*
X88689142Y-36639857D01*
X88517714Y-36697000D01*
X88403428Y-36811285D01*
X88346285Y-36925571D01*
X88289142Y-37154142D01*
X88289142Y-37325571D01*
X88346285Y-37554142D01*
X88403428Y-37668428D01*
X88517714Y-37782714D01*
X88689142Y-37839857D01*
X88974857Y-37839857D01*
X87546285Y-36639857D02*
X87317714Y-36639857D01*
X87203428Y-36697000D01*
X87089142Y-36811285D01*
X87032000Y-37039857D01*
X87032000Y-37439857D01*
X87089142Y-37668428D01*
X87203428Y-37782714D01*
X87317714Y-37839857D01*
X87546285Y-37839857D01*
X87660571Y-37782714D01*
X87774857Y-37668428D01*
X87832000Y-37439857D01*
X87832000Y-37039857D01*
X87774857Y-36811285D01*
X87660571Y-36697000D01*
X87546285Y-36639857D01*
X69739142Y-41382714D02*
X68824857Y-41382714D01*
X69282000Y-41839857D02*
X69282000Y-40925571D01*
X70974857Y-37839857D02*
X70974857Y-36639857D01*
X70689142Y-36639857D01*
X70517714Y-36697000D01*
X70403428Y-36811285D01*
X70346285Y-36925571D01*
X70289142Y-37154142D01*
X70289142Y-37325571D01*
X70346285Y-37554142D01*
X70403428Y-37668428D01*
X70517714Y-37782714D01*
X70689142Y-37839857D01*
X70974857Y-37839857D01*
X69546285Y-36639857D02*
X69317714Y-36639857D01*
X69203428Y-36697000D01*
X69089142Y-36811285D01*
X69032000Y-37039857D01*
X69032000Y-37439857D01*
X69089142Y-37668428D01*
X69203428Y-37782714D01*
X69317714Y-37839857D01*
X69546285Y-37839857D01*
X69660571Y-37782714D01*
X69774857Y-37668428D01*
X69832000Y-37439857D01*
X69832000Y-37039857D01*
X69774857Y-36811285D01*
X69660571Y-36697000D01*
X69546285Y-36639857D01*
X80739142Y-40632714D02*
X79824857Y-40632714D01*
X79160571Y-33839857D02*
X79560571Y-33268428D01*
X79846285Y-33839857D02*
X79846285Y-32639857D01*
X79389142Y-32639857D01*
X79274857Y-32697000D01*
X79217714Y-32754142D01*
X79160571Y-32868428D01*
X79160571Y-33039857D01*
X79217714Y-33154142D01*
X79274857Y-33211285D01*
X79389142Y-33268428D01*
X79846285Y-33268428D01*
X69160571Y-33839857D02*
X69560571Y-33268428D01*
X69846285Y-33839857D02*
X69846285Y-32639857D01*
X69389142Y-32639857D01*
X69274857Y-32697000D01*
X69217714Y-32754142D01*
X69160571Y-32868428D01*
X69160571Y-33039857D01*
X69217714Y-33154142D01*
X69274857Y-33211285D01*
X69389142Y-33268428D01*
X69846285Y-33268428D01*
X69489142Y-28382714D02*
X68574857Y-28382714D01*
X69032000Y-28839857D02*
X69032000Y-27925571D01*
X71160571Y-40225571D02*
X71217714Y-40282714D01*
X71389142Y-40339857D01*
X71503428Y-40339857D01*
X71674857Y-40282714D01*
X71789142Y-40168428D01*
X71846285Y-40054142D01*
X71903428Y-39825571D01*
X71903428Y-39654142D01*
X71846285Y-39425571D01*
X71789142Y-39311285D01*
X71674857Y-39197000D01*
X71503428Y-39139857D01*
X71389142Y-39139857D01*
X71217714Y-39197000D01*
X71160571Y-39254142D01*
X80474857Y-30589857D02*
X80474857Y-29389857D01*
X80189142Y-29389857D01*
X80017714Y-29447000D01*
X79903428Y-29561285D01*
X79846285Y-29675571D01*
X79789142Y-29904142D01*
X79789142Y-30075571D01*
X79846285Y-30304142D01*
X79903428Y-30418428D01*
X80017714Y-30532714D01*
X80189142Y-30589857D01*
X80474857Y-30589857D01*
X79046285Y-29389857D02*
X78817714Y-29389857D01*
X78703428Y-29447000D01*
X78589142Y-29561285D01*
X78532000Y-29789857D01*
X78532000Y-30189857D01*
X78589142Y-30418428D01*
X78703428Y-30532714D01*
X78817714Y-30589857D01*
X79046285Y-30589857D01*
X79160571Y-30532714D01*
X79274857Y-30418428D01*
X79332000Y-30189857D01*
X79332000Y-29789857D01*
X79274857Y-29561285D01*
X79160571Y-29447000D01*
X79046285Y-29389857D01*
X79975142Y-27890714D02*
X79060857Y-27890714D01*
X70132000Y-31339857D02*
X70132000Y-30139857D01*
X69846285Y-30139857D01*
X69674857Y-30197000D01*
X69560571Y-30311285D01*
X69503428Y-30425571D01*
X69446285Y-30654142D01*
X69446285Y-30825571D01*
X69503428Y-31054142D01*
X69560571Y-31168428D01*
X69674857Y-31282714D01*
X69846285Y-31339857D01*
X70132000Y-31339857D01*
X68932000Y-31339857D02*
X68932000Y-30139857D01*
X80132000Y-37839857D02*
X80132000Y-36639857D01*
X79846285Y-36639857D01*
X79674857Y-36697000D01*
X79560571Y-36811285D01*
X79503428Y-36925571D01*
X79446285Y-37154142D01*
X79446285Y-37325571D01*
X79503428Y-37554142D01*
X79560571Y-37668428D01*
X79674857Y-37782714D01*
X79846285Y-37839857D01*
X80132000Y-37839857D01*
X78932000Y-37839857D02*
X78932000Y-36639857D01*
X73160571Y-28725571D02*
X73217714Y-28782714D01*
X73389142Y-28839857D01*
X73503428Y-28839857D01*
X73674857Y-28782714D01*
X73789142Y-28668428D01*
X73846285Y-28554142D01*
X73903428Y-28325571D01*
X73903428Y-28154142D01*
X73846285Y-27925571D01*
X73789142Y-27811285D01*
X73674857Y-27697000D01*
X73503428Y-27639857D01*
X73389142Y-27639857D01*
X73217714Y-27697000D01*
X73160571Y-27754142D01*
D11*
G04 #@! TO.C,D*
X145582000Y-105797000D02*
X150982000Y-105797000D01*
X150982000Y-107297000D02*
X145582000Y-107297000D01*
X145582000Y-107297000D02*
X145582000Y-105797000D01*
X150982000Y-107297000D02*
X150982000Y-105797000D01*
X148782000Y-107047000D02*
X148782000Y-106047000D01*
X148782000Y-106047000D02*
X147882000Y-106547000D01*
X147882000Y-106547000D02*
X148782000Y-107047000D01*
X147782000Y-107047000D02*
X147782000Y-106047000D01*
X127582000Y-105797000D02*
X132982000Y-105797000D01*
X132982000Y-107297000D02*
X127582000Y-107297000D01*
X127582000Y-107297000D02*
X127582000Y-105797000D01*
X132982000Y-107297000D02*
X132982000Y-105797000D01*
X130782000Y-107047000D02*
X130782000Y-106047000D01*
X130782000Y-106047000D02*
X129882000Y-106547000D01*
X129882000Y-106547000D02*
X130782000Y-107047000D01*
X129782000Y-107047000D02*
X129782000Y-106047000D01*
X109582000Y-105797000D02*
X114982000Y-105797000D01*
X114982000Y-107297000D02*
X109582000Y-107297000D01*
X109582000Y-107297000D02*
X109582000Y-105797000D01*
X114982000Y-107297000D02*
X114982000Y-105797000D01*
X112782000Y-107047000D02*
X112782000Y-106047000D01*
X112782000Y-106047000D02*
X111882000Y-106547000D01*
X111882000Y-106547000D02*
X112782000Y-107047000D01*
X111782000Y-107047000D02*
X111782000Y-106047000D01*
X91582000Y-105797000D02*
X96982000Y-105797000D01*
X96982000Y-107297000D02*
X91582000Y-107297000D01*
X91582000Y-107297000D02*
X91582000Y-105797000D01*
X96982000Y-107297000D02*
X96982000Y-105797000D01*
X94782000Y-107047000D02*
X94782000Y-106047000D01*
X94782000Y-106047000D02*
X93882000Y-106547000D01*
X93882000Y-106547000D02*
X94782000Y-107047000D01*
X93782000Y-107047000D02*
X93782000Y-106047000D01*
X73582000Y-105797000D02*
X78982000Y-105797000D01*
X78982000Y-107297000D02*
X73582000Y-107297000D01*
X73582000Y-107297000D02*
X73582000Y-105797000D01*
X78982000Y-107297000D02*
X78982000Y-105797000D01*
X76782000Y-107047000D02*
X76782000Y-106047000D01*
X76782000Y-106047000D02*
X75882000Y-106547000D01*
X75882000Y-106547000D02*
X76782000Y-107047000D01*
X75782000Y-107047000D02*
X75782000Y-106047000D01*
X145582000Y-88797000D02*
X150982000Y-88797000D01*
X150982000Y-90297000D02*
X145582000Y-90297000D01*
X145582000Y-90297000D02*
X145582000Y-88797000D01*
X150982000Y-90297000D02*
X150982000Y-88797000D01*
X148782000Y-90047000D02*
X148782000Y-89047000D01*
X148782000Y-89047000D02*
X147882000Y-89547000D01*
X147882000Y-89547000D02*
X148782000Y-90047000D01*
X147782000Y-90047000D02*
X147782000Y-89047000D01*
X127582000Y-88797000D02*
X132982000Y-88797000D01*
X132982000Y-90297000D02*
X127582000Y-90297000D01*
X127582000Y-90297000D02*
X127582000Y-88797000D01*
X132982000Y-90297000D02*
X132982000Y-88797000D01*
X130782000Y-90047000D02*
X130782000Y-89047000D01*
X130782000Y-89047000D02*
X129882000Y-89547000D01*
X129882000Y-89547000D02*
X130782000Y-90047000D01*
X129782000Y-90047000D02*
X129782000Y-89047000D01*
X109582000Y-88797000D02*
X114982000Y-88797000D01*
X114982000Y-90297000D02*
X109582000Y-90297000D01*
X109582000Y-90297000D02*
X109582000Y-88797000D01*
X114982000Y-90297000D02*
X114982000Y-88797000D01*
X112782000Y-90047000D02*
X112782000Y-89047000D01*
X112782000Y-89047000D02*
X111882000Y-89547000D01*
X111882000Y-89547000D02*
X112782000Y-90047000D01*
X111782000Y-90047000D02*
X111782000Y-89047000D01*
X91582000Y-88797000D02*
X96982000Y-88797000D01*
X96982000Y-90297000D02*
X91582000Y-90297000D01*
X91582000Y-90297000D02*
X91582000Y-88797000D01*
X96982000Y-90297000D02*
X96982000Y-88797000D01*
X94782000Y-90047000D02*
X94782000Y-89047000D01*
X94782000Y-89047000D02*
X93882000Y-89547000D01*
X93882000Y-89547000D02*
X94782000Y-90047000D01*
X93782000Y-90047000D02*
X93782000Y-89047000D01*
X73582000Y-88797000D02*
X78982000Y-88797000D01*
X78982000Y-90297000D02*
X73582000Y-90297000D01*
X73582000Y-90297000D02*
X73582000Y-88797000D01*
X78982000Y-90297000D02*
X78982000Y-88797000D01*
X76782000Y-90047000D02*
X76782000Y-89047000D01*
X76782000Y-89047000D02*
X75882000Y-89547000D01*
X75882000Y-89547000D02*
X76782000Y-90047000D01*
X75782000Y-90047000D02*
X75782000Y-89047000D01*
X145582000Y-71797000D02*
X150982000Y-71797000D01*
X150982000Y-73297000D02*
X145582000Y-73297000D01*
X145582000Y-73297000D02*
X145582000Y-71797000D01*
X150982000Y-73297000D02*
X150982000Y-71797000D01*
X148782000Y-73047000D02*
X148782000Y-72047000D01*
X148782000Y-72047000D02*
X147882000Y-72547000D01*
X147882000Y-72547000D02*
X148782000Y-73047000D01*
X147782000Y-73047000D02*
X147782000Y-72047000D01*
X127582000Y-71797000D02*
X132982000Y-71797000D01*
X132982000Y-73297000D02*
X127582000Y-73297000D01*
X127582000Y-73297000D02*
X127582000Y-71797000D01*
X132982000Y-73297000D02*
X132982000Y-71797000D01*
X130782000Y-73047000D02*
X130782000Y-72047000D01*
X130782000Y-72047000D02*
X129882000Y-72547000D01*
X129882000Y-72547000D02*
X130782000Y-73047000D01*
X129782000Y-73047000D02*
X129782000Y-72047000D01*
X109582000Y-71797000D02*
X114982000Y-71797000D01*
X114982000Y-73297000D02*
X109582000Y-73297000D01*
X109582000Y-73297000D02*
X109582000Y-71797000D01*
X114982000Y-73297000D02*
X114982000Y-71797000D01*
X112782000Y-73047000D02*
X112782000Y-72047000D01*
X112782000Y-72047000D02*
X111882000Y-72547000D01*
X111882000Y-72547000D02*
X112782000Y-73047000D01*
X111782000Y-73047000D02*
X111782000Y-72047000D01*
X91582000Y-71797000D02*
X96982000Y-71797000D01*
X96982000Y-73297000D02*
X91582000Y-73297000D01*
X91582000Y-73297000D02*
X91582000Y-71797000D01*
X96982000Y-73297000D02*
X96982000Y-71797000D01*
X94782000Y-73047000D02*
X94782000Y-72047000D01*
X94782000Y-72047000D02*
X93882000Y-72547000D01*
X93882000Y-72547000D02*
X94782000Y-73047000D01*
X93782000Y-73047000D02*
X93782000Y-72047000D01*
X73582000Y-71797000D02*
X78982000Y-71797000D01*
X78982000Y-73297000D02*
X73582000Y-73297000D01*
X73582000Y-73297000D02*
X73582000Y-71797000D01*
X78982000Y-73297000D02*
X78982000Y-71797000D01*
X76782000Y-73047000D02*
X76782000Y-72047000D01*
X76782000Y-72047000D02*
X75882000Y-72547000D01*
X75882000Y-72547000D02*
X76782000Y-73047000D01*
X75782000Y-73047000D02*
X75782000Y-72047000D01*
X145582000Y-54797000D02*
X150982000Y-54797000D01*
X150982000Y-56297000D02*
X145582000Y-56297000D01*
X145582000Y-56297000D02*
X145582000Y-54797000D01*
X150982000Y-56297000D02*
X150982000Y-54797000D01*
X148782000Y-56047000D02*
X148782000Y-55047000D01*
X148782000Y-55047000D02*
X147882000Y-55547000D01*
X147882000Y-55547000D02*
X148782000Y-56047000D01*
X147782000Y-56047000D02*
X147782000Y-55047000D01*
X127582000Y-54797000D02*
X132982000Y-54797000D01*
X132982000Y-56297000D02*
X127582000Y-56297000D01*
X127582000Y-56297000D02*
X127582000Y-54797000D01*
X132982000Y-56297000D02*
X132982000Y-54797000D01*
X130782000Y-56047000D02*
X130782000Y-55047000D01*
X130782000Y-55047000D02*
X129882000Y-55547000D01*
X129882000Y-55547000D02*
X130782000Y-56047000D01*
X129782000Y-56047000D02*
X129782000Y-55047000D01*
X109582000Y-54797000D02*
X114982000Y-54797000D01*
X114982000Y-56297000D02*
X109582000Y-56297000D01*
X109582000Y-56297000D02*
X109582000Y-54797000D01*
X114982000Y-56297000D02*
X114982000Y-54797000D01*
X112782000Y-56047000D02*
X112782000Y-55047000D01*
X112782000Y-55047000D02*
X111882000Y-55547000D01*
X111882000Y-55547000D02*
X112782000Y-56047000D01*
X111782000Y-56047000D02*
X111782000Y-55047000D01*
X91582000Y-54797000D02*
X96982000Y-54797000D01*
X96982000Y-56297000D02*
X91582000Y-56297000D01*
X91582000Y-56297000D02*
X91582000Y-54797000D01*
X96982000Y-56297000D02*
X96982000Y-54797000D01*
X94782000Y-56047000D02*
X94782000Y-55047000D01*
X94782000Y-55047000D02*
X93882000Y-55547000D01*
X93882000Y-55547000D02*
X94782000Y-56047000D01*
X93782000Y-56047000D02*
X93782000Y-55047000D01*
X73582000Y-54797000D02*
X78982000Y-54797000D01*
X78982000Y-56297000D02*
X73582000Y-56297000D01*
X73582000Y-56297000D02*
X73582000Y-54797000D01*
X78982000Y-56297000D02*
X78982000Y-54797000D01*
X76782000Y-56047000D02*
X76782000Y-55047000D01*
X76782000Y-55047000D02*
X75882000Y-55547000D01*
X75882000Y-55547000D02*
X76782000Y-56047000D01*
X75782000Y-56047000D02*
X75782000Y-55047000D01*
X145582000Y-37797000D02*
X150982000Y-37797000D01*
X150982000Y-39297000D02*
X145582000Y-39297000D01*
X145582000Y-39297000D02*
X145582000Y-37797000D01*
X150982000Y-39297000D02*
X150982000Y-37797000D01*
X148782000Y-39047000D02*
X148782000Y-38047000D01*
X148782000Y-38047000D02*
X147882000Y-38547000D01*
X147882000Y-38547000D02*
X148782000Y-39047000D01*
X147782000Y-39047000D02*
X147782000Y-38047000D01*
X127582000Y-37797000D02*
X132982000Y-37797000D01*
X132982000Y-39297000D02*
X127582000Y-39297000D01*
X127582000Y-39297000D02*
X127582000Y-37797000D01*
X132982000Y-39297000D02*
X132982000Y-37797000D01*
X130782000Y-39047000D02*
X130782000Y-38047000D01*
X130782000Y-38047000D02*
X129882000Y-38547000D01*
X129882000Y-38547000D02*
X130782000Y-39047000D01*
X129782000Y-39047000D02*
X129782000Y-38047000D01*
X109582000Y-37797000D02*
X114982000Y-37797000D01*
X114982000Y-39297000D02*
X109582000Y-39297000D01*
X109582000Y-39297000D02*
X109582000Y-37797000D01*
X114982000Y-39297000D02*
X114982000Y-37797000D01*
X112782000Y-39047000D02*
X112782000Y-38047000D01*
X112782000Y-38047000D02*
X111882000Y-38547000D01*
X111882000Y-38547000D02*
X112782000Y-39047000D01*
X111782000Y-39047000D02*
X111782000Y-38047000D01*
X91582000Y-37797000D02*
X96982000Y-37797000D01*
X96982000Y-39297000D02*
X91582000Y-39297000D01*
X91582000Y-39297000D02*
X91582000Y-37797000D01*
X96982000Y-39297000D02*
X96982000Y-37797000D01*
X94782000Y-39047000D02*
X94782000Y-38047000D01*
X94782000Y-38047000D02*
X93882000Y-38547000D01*
X93882000Y-38547000D02*
X94782000Y-39047000D01*
X93782000Y-39047000D02*
X93782000Y-38047000D01*
X73582000Y-37797000D02*
X78982000Y-37797000D01*
X78982000Y-39297000D02*
X73582000Y-39297000D01*
X73582000Y-39297000D02*
X73582000Y-37797000D01*
X78982000Y-39297000D02*
X78982000Y-37797000D01*
X76782000Y-39047000D02*
X76782000Y-38047000D01*
X76782000Y-38047000D02*
X75882000Y-38547000D01*
X75882000Y-38547000D02*
X76782000Y-39047000D01*
X75782000Y-39047000D02*
X75782000Y-38047000D01*
G04 #@! TO.C,L1*
X77572000Y-83502000D02*
X77922000Y-83502000D01*
X77922000Y-83152000D02*
X77572000Y-83502000D01*
X77922000Y-83502000D02*
X77922000Y-83152000D01*
X149572000Y-100502000D02*
X149922000Y-100502000D01*
X149922000Y-100152000D02*
X149572000Y-100502000D01*
X149922000Y-100502000D02*
X149922000Y-100152000D01*
X131572000Y-100502000D02*
X131922000Y-100502000D01*
X131922000Y-100152000D02*
X131572000Y-100502000D01*
X131922000Y-100502000D02*
X131922000Y-100152000D01*
X113572000Y-100502000D02*
X113922000Y-100502000D01*
X113922000Y-100152000D02*
X113572000Y-100502000D01*
X113922000Y-100502000D02*
X113922000Y-100152000D01*
X95572000Y-100502000D02*
X95922000Y-100502000D01*
X95922000Y-100152000D02*
X95572000Y-100502000D01*
X95922000Y-100502000D02*
X95922000Y-100152000D01*
X77572000Y-100502000D02*
X77922000Y-100502000D01*
X77922000Y-100152000D02*
X77572000Y-100502000D01*
X77922000Y-100502000D02*
X77922000Y-100152000D01*
X149572000Y-83502000D02*
X149922000Y-83502000D01*
X149922000Y-83152000D02*
X149572000Y-83502000D01*
X149922000Y-83502000D02*
X149922000Y-83152000D01*
X131572000Y-83502000D02*
X131922000Y-83502000D01*
X131922000Y-83152000D02*
X131572000Y-83502000D01*
X131922000Y-83502000D02*
X131922000Y-83152000D01*
X113572000Y-83502000D02*
X113922000Y-83502000D01*
X113922000Y-83152000D02*
X113572000Y-83502000D01*
X113922000Y-83502000D02*
X113922000Y-83152000D01*
X95572000Y-83502000D02*
X95922000Y-83502000D01*
X95922000Y-83152000D02*
X95572000Y-83502000D01*
X95922000Y-83502000D02*
X95922000Y-83152000D01*
X149572000Y-66502000D02*
X149922000Y-66502000D01*
X149922000Y-66152000D02*
X149572000Y-66502000D01*
X149922000Y-66502000D02*
X149922000Y-66152000D01*
X131572000Y-66502000D02*
X131922000Y-66502000D01*
X131922000Y-66152000D02*
X131572000Y-66502000D01*
X131922000Y-66502000D02*
X131922000Y-66152000D01*
X113572000Y-66502000D02*
X113922000Y-66502000D01*
X113922000Y-66152000D02*
X113572000Y-66502000D01*
X113922000Y-66502000D02*
X113922000Y-66152000D01*
X95572000Y-66502000D02*
X95922000Y-66502000D01*
X95922000Y-66152000D02*
X95572000Y-66502000D01*
X95922000Y-66502000D02*
X95922000Y-66152000D01*
X77572000Y-66502000D02*
X77922000Y-66502000D01*
X77922000Y-66152000D02*
X77572000Y-66502000D01*
X77922000Y-66502000D02*
X77922000Y-66152000D01*
X149572000Y-49502000D02*
X149922000Y-49502000D01*
X149922000Y-49152000D02*
X149572000Y-49502000D01*
X149922000Y-49502000D02*
X149922000Y-49152000D01*
X131572000Y-49502000D02*
X131922000Y-49502000D01*
X131922000Y-49152000D02*
X131572000Y-49502000D01*
X131922000Y-49502000D02*
X131922000Y-49152000D01*
X113572000Y-49502000D02*
X113922000Y-49502000D01*
X113922000Y-49152000D02*
X113572000Y-49502000D01*
X113922000Y-49502000D02*
X113922000Y-49152000D01*
X95572000Y-49502000D02*
X95922000Y-49502000D01*
X95922000Y-49152000D02*
X95572000Y-49502000D01*
X95922000Y-49502000D02*
X95922000Y-49152000D01*
X77572000Y-49502000D02*
X77922000Y-49502000D01*
X77922000Y-49152000D02*
X77572000Y-49502000D01*
X77922000Y-49502000D02*
X77922000Y-49152000D01*
X149572000Y-32502000D02*
X149922000Y-32502000D01*
X149922000Y-32152000D02*
X149572000Y-32502000D01*
X149922000Y-32502000D02*
X149922000Y-32152000D01*
X131572000Y-32502000D02*
X131922000Y-32502000D01*
X131922000Y-32152000D02*
X131572000Y-32502000D01*
X131922000Y-32502000D02*
X131922000Y-32152000D01*
X113572000Y-32502000D02*
X113922000Y-32502000D01*
X113922000Y-32152000D02*
X113572000Y-32502000D01*
X113922000Y-32502000D02*
X113922000Y-32152000D01*
X95572000Y-32502000D02*
X95922000Y-32502000D01*
X95922000Y-32152000D02*
X95572000Y-32502000D01*
X95922000Y-32502000D02*
X95922000Y-32152000D01*
X77922000Y-32502000D02*
X77922000Y-32152000D01*
X77922000Y-32152000D02*
X77572000Y-32502000D01*
X77572000Y-32502000D02*
X77922000Y-32502000D01*
X74588666Y-86504380D02*
X75064857Y-86504380D01*
X75064857Y-85504380D01*
X73731523Y-86504380D02*
X74302952Y-86504380D01*
X74017238Y-86504380D02*
X74017238Y-85504380D01*
X74112476Y-85647238D01*
X74207714Y-85742476D01*
X74302952Y-85790095D01*
X146588666Y-103504380D02*
X147064857Y-103504380D01*
X147064857Y-102504380D01*
X145731523Y-103504380D02*
X146302952Y-103504380D01*
X146017238Y-103504380D02*
X146017238Y-102504380D01*
X146112476Y-102647238D01*
X146207714Y-102742476D01*
X146302952Y-102790095D01*
X128588666Y-103504380D02*
X129064857Y-103504380D01*
X129064857Y-102504380D01*
X127731523Y-103504380D02*
X128302952Y-103504380D01*
X128017238Y-103504380D02*
X128017238Y-102504380D01*
X128112476Y-102647238D01*
X128207714Y-102742476D01*
X128302952Y-102790095D01*
X110588666Y-103504380D02*
X111064857Y-103504380D01*
X111064857Y-102504380D01*
X109731523Y-103504380D02*
X110302952Y-103504380D01*
X110017238Y-103504380D02*
X110017238Y-102504380D01*
X110112476Y-102647238D01*
X110207714Y-102742476D01*
X110302952Y-102790095D01*
X92588666Y-103504380D02*
X93064857Y-103504380D01*
X93064857Y-102504380D01*
X91731523Y-103504380D02*
X92302952Y-103504380D01*
X92017238Y-103504380D02*
X92017238Y-102504380D01*
X92112476Y-102647238D01*
X92207714Y-102742476D01*
X92302952Y-102790095D01*
X74588666Y-103504380D02*
X75064857Y-103504380D01*
X75064857Y-102504380D01*
X73731523Y-103504380D02*
X74302952Y-103504380D01*
X74017238Y-103504380D02*
X74017238Y-102504380D01*
X74112476Y-102647238D01*
X74207714Y-102742476D01*
X74302952Y-102790095D01*
X146588666Y-86504380D02*
X147064857Y-86504380D01*
X147064857Y-85504380D01*
X145731523Y-86504380D02*
X146302952Y-86504380D01*
X146017238Y-86504380D02*
X146017238Y-85504380D01*
X146112476Y-85647238D01*
X146207714Y-85742476D01*
X146302952Y-85790095D01*
X128588666Y-86504380D02*
X129064857Y-86504380D01*
X129064857Y-85504380D01*
X127731523Y-86504380D02*
X128302952Y-86504380D01*
X128017238Y-86504380D02*
X128017238Y-85504380D01*
X128112476Y-85647238D01*
X128207714Y-85742476D01*
X128302952Y-85790095D01*
X110588666Y-86504380D02*
X111064857Y-86504380D01*
X111064857Y-85504380D01*
X109731523Y-86504380D02*
X110302952Y-86504380D01*
X110017238Y-86504380D02*
X110017238Y-85504380D01*
X110112476Y-85647238D01*
X110207714Y-85742476D01*
X110302952Y-85790095D01*
X92588666Y-86504380D02*
X93064857Y-86504380D01*
X93064857Y-85504380D01*
X91731523Y-86504380D02*
X92302952Y-86504380D01*
X92017238Y-86504380D02*
X92017238Y-85504380D01*
X92112476Y-85647238D01*
X92207714Y-85742476D01*
X92302952Y-85790095D01*
X146588666Y-69504380D02*
X147064857Y-69504380D01*
X147064857Y-68504380D01*
X145731523Y-69504380D02*
X146302952Y-69504380D01*
X146017238Y-69504380D02*
X146017238Y-68504380D01*
X146112476Y-68647238D01*
X146207714Y-68742476D01*
X146302952Y-68790095D01*
X128588666Y-69504380D02*
X129064857Y-69504380D01*
X129064857Y-68504380D01*
X127731523Y-69504380D02*
X128302952Y-69504380D01*
X128017238Y-69504380D02*
X128017238Y-68504380D01*
X128112476Y-68647238D01*
X128207714Y-68742476D01*
X128302952Y-68790095D01*
X110588666Y-69504380D02*
X111064857Y-69504380D01*
X111064857Y-68504380D01*
X109731523Y-69504380D02*
X110302952Y-69504380D01*
X110017238Y-69504380D02*
X110017238Y-68504380D01*
X110112476Y-68647238D01*
X110207714Y-68742476D01*
X110302952Y-68790095D01*
X92588666Y-69504380D02*
X93064857Y-69504380D01*
X93064857Y-68504380D01*
X91731523Y-69504380D02*
X92302952Y-69504380D01*
X92017238Y-69504380D02*
X92017238Y-68504380D01*
X92112476Y-68647238D01*
X92207714Y-68742476D01*
X92302952Y-68790095D01*
X74588666Y-69504380D02*
X75064857Y-69504380D01*
X75064857Y-68504380D01*
X73731523Y-69504380D02*
X74302952Y-69504380D01*
X74017238Y-69504380D02*
X74017238Y-68504380D01*
X74112476Y-68647238D01*
X74207714Y-68742476D01*
X74302952Y-68790095D01*
X146588666Y-52504380D02*
X147064857Y-52504380D01*
X147064857Y-51504380D01*
X145731523Y-52504380D02*
X146302952Y-52504380D01*
X146017238Y-52504380D02*
X146017238Y-51504380D01*
X146112476Y-51647238D01*
X146207714Y-51742476D01*
X146302952Y-51790095D01*
X128588666Y-52504380D02*
X129064857Y-52504380D01*
X129064857Y-51504380D01*
X127731523Y-52504380D02*
X128302952Y-52504380D01*
X128017238Y-52504380D02*
X128017238Y-51504380D01*
X128112476Y-51647238D01*
X128207714Y-51742476D01*
X128302952Y-51790095D01*
X110588666Y-52504380D02*
X111064857Y-52504380D01*
X111064857Y-51504380D01*
X109731523Y-52504380D02*
X110302952Y-52504380D01*
X110017238Y-52504380D02*
X110017238Y-51504380D01*
X110112476Y-51647238D01*
X110207714Y-51742476D01*
X110302952Y-51790095D01*
X92588666Y-52504380D02*
X93064857Y-52504380D01*
X93064857Y-51504380D01*
X91731523Y-52504380D02*
X92302952Y-52504380D01*
X92017238Y-52504380D02*
X92017238Y-51504380D01*
X92112476Y-51647238D01*
X92207714Y-51742476D01*
X92302952Y-51790095D01*
X74588666Y-52504380D02*
X75064857Y-52504380D01*
X75064857Y-51504380D01*
X73731523Y-52504380D02*
X74302952Y-52504380D01*
X74017238Y-52504380D02*
X74017238Y-51504380D01*
X74112476Y-51647238D01*
X74207714Y-51742476D01*
X74302952Y-51790095D01*
X146588666Y-35504380D02*
X147064857Y-35504380D01*
X147064857Y-34504380D01*
X145731523Y-35504380D02*
X146302952Y-35504380D01*
X146017238Y-35504380D02*
X146017238Y-34504380D01*
X146112476Y-34647238D01*
X146207714Y-34742476D01*
X146302952Y-34790095D01*
X128588666Y-35504380D02*
X129064857Y-35504380D01*
X129064857Y-34504380D01*
X127731523Y-35504380D02*
X128302952Y-35504380D01*
X128017238Y-35504380D02*
X128017238Y-34504380D01*
X128112476Y-34647238D01*
X128207714Y-34742476D01*
X128302952Y-34790095D01*
X110588666Y-35504380D02*
X111064857Y-35504380D01*
X111064857Y-34504380D01*
X109731523Y-35504380D02*
X110302952Y-35504380D01*
X110017238Y-35504380D02*
X110017238Y-34504380D01*
X110112476Y-34647238D01*
X110207714Y-34742476D01*
X110302952Y-34790095D01*
X92588666Y-35504380D02*
X93064857Y-35504380D01*
X93064857Y-34504380D01*
X91731523Y-35504380D02*
X92302952Y-35504380D01*
X92017238Y-35504380D02*
X92017238Y-34504380D01*
X92112476Y-34647238D01*
X92207714Y-34742476D01*
X92302952Y-34790095D01*
X74588666Y-35504380D02*
X75064857Y-35504380D01*
X75064857Y-34504380D01*
X73731523Y-35504380D02*
X74302952Y-35504380D01*
X74017238Y-35504380D02*
X74017238Y-34504380D01*
X74112476Y-34647238D01*
X74207714Y-34742476D01*
X74302952Y-34790095D01*
G04 #@! TD*
%LPC*%
D12*
G04 #@! TO.C,D*
X150057000Y-106547000D03*
X146507000Y-106547000D03*
G04 #@! TD*
G04 #@! TO.C,D*
X132057000Y-106547000D03*
X128507000Y-106547000D03*
G04 #@! TD*
G04 #@! TO.C,D*
X114057000Y-106547000D03*
X110507000Y-106547000D03*
G04 #@! TD*
G04 #@! TO.C,D*
X96057000Y-106547000D03*
X92507000Y-106547000D03*
G04 #@! TD*
G04 #@! TO.C,D*
X78057000Y-106547000D03*
X74507000Y-106547000D03*
G04 #@! TD*
G04 #@! TO.C,D*
X150057000Y-89547000D03*
X146507000Y-89547000D03*
G04 #@! TD*
G04 #@! TO.C,D*
X132057000Y-89547000D03*
X128507000Y-89547000D03*
G04 #@! TD*
G04 #@! TO.C,D*
X114057000Y-89547000D03*
X110507000Y-89547000D03*
G04 #@! TD*
G04 #@! TO.C,D*
X96057000Y-89547000D03*
X92507000Y-89547000D03*
G04 #@! TD*
G04 #@! TO.C,D*
X78057000Y-89547000D03*
X74507000Y-89547000D03*
G04 #@! TD*
G04 #@! TO.C,D*
X150057000Y-72547000D03*
X146507000Y-72547000D03*
G04 #@! TD*
G04 #@! TO.C,D*
X132057000Y-72547000D03*
X128507000Y-72547000D03*
G04 #@! TD*
G04 #@! TO.C,D*
X114057000Y-72547000D03*
X110507000Y-72547000D03*
G04 #@! TD*
G04 #@! TO.C,D*
X96057000Y-72547000D03*
X92507000Y-72547000D03*
G04 #@! TD*
G04 #@! TO.C,D*
X78057000Y-72547000D03*
X74507000Y-72547000D03*
G04 #@! TD*
G04 #@! TO.C,D*
X150057000Y-55547000D03*
X146507000Y-55547000D03*
G04 #@! TD*
G04 #@! TO.C,D*
X132057000Y-55547000D03*
X128507000Y-55547000D03*
G04 #@! TD*
G04 #@! TO.C,D*
X114057000Y-55547000D03*
X110507000Y-55547000D03*
G04 #@! TD*
G04 #@! TO.C,D*
X96057000Y-55547000D03*
X92507000Y-55547000D03*
G04 #@! TD*
G04 #@! TO.C,D*
X78057000Y-55547000D03*
X74507000Y-55547000D03*
G04 #@! TD*
G04 #@! TO.C,D*
X150057000Y-38547000D03*
X146507000Y-38547000D03*
G04 #@! TD*
G04 #@! TO.C,D*
X132057000Y-38547000D03*
X128507000Y-38547000D03*
G04 #@! TD*
G04 #@! TO.C,D*
X114057000Y-38547000D03*
X110507000Y-38547000D03*
G04 #@! TD*
G04 #@! TO.C,D*
X96057000Y-38547000D03*
X92507000Y-38547000D03*
G04 #@! TD*
G04 #@! TO.C,D*
X78057000Y-38547000D03*
X74507000Y-38547000D03*
G04 #@! TD*
D13*
G04 #@! TO.C,SW1*
X123432000Y-107197000D03*
D14*
X128532000Y-103297000D03*
D15*
X134032000Y-103297000D03*
X123032000Y-103297000D03*
D13*
X128532000Y-109197000D03*
D16*
X133752000Y-99097000D03*
G04 #@! TD*
D13*
G04 #@! TO.C,SW1*
X105432000Y-107197000D03*
D14*
X110532000Y-103297000D03*
D15*
X116032000Y-103297000D03*
X105032000Y-103297000D03*
D13*
X110532000Y-109197000D03*
D16*
X115752000Y-99097000D03*
G04 #@! TD*
D13*
G04 #@! TO.C,SW1*
X87432000Y-107197000D03*
D14*
X92532000Y-103297000D03*
D15*
X98032000Y-103297000D03*
X87032000Y-103297000D03*
D13*
X92532000Y-109197000D03*
D16*
X97752000Y-99097000D03*
G04 #@! TD*
D13*
G04 #@! TO.C,SW1*
X69432000Y-107197000D03*
D14*
X74532000Y-103297000D03*
D15*
X80032000Y-103297000D03*
X69032000Y-103297000D03*
D13*
X74532000Y-109197000D03*
D16*
X79752000Y-99097000D03*
G04 #@! TD*
G04 #@! TO.C,SW1*
X79752000Y-31097000D03*
D13*
X74532000Y-41197000D03*
D15*
X69032000Y-35297000D03*
X80032000Y-35297000D03*
D14*
X74532000Y-35297000D03*
D13*
X69432000Y-39197000D03*
G04 #@! TD*
D17*
G04 #@! TO.C,L1*
X71922000Y-81252000D03*
X71922000Y-82752000D03*
X76922000Y-82752000D03*
X76922000Y-81252000D03*
G04 #@! TD*
D13*
G04 #@! TO.C,SW1*
X141432000Y-90197000D03*
D14*
X146532000Y-86297000D03*
D15*
X152032000Y-86297000D03*
X141032000Y-86297000D03*
D13*
X146532000Y-92197000D03*
D16*
X151752000Y-82097000D03*
G04 #@! TD*
D18*
G04 #@! TO.C,REF\002A\002A*
X143632000Y-96547000D03*
G04 #@! TD*
G04 #@! TO.C,REF\002A\002A*
X125632000Y-96547000D03*
G04 #@! TD*
G04 #@! TO.C,REF\002A\002A*
X107632000Y-96547000D03*
G04 #@! TD*
G04 #@! TO.C,REF\002A\002A*
X89632000Y-96547000D03*
G04 #@! TD*
G04 #@! TO.C,REF\002A\002A*
X71632000Y-96547000D03*
G04 #@! TD*
G04 #@! TO.C,REF\002A\002A*
X143632000Y-79547000D03*
G04 #@! TD*
G04 #@! TO.C,REF\002A\002A*
X125632000Y-79547000D03*
G04 #@! TD*
G04 #@! TO.C,REF\002A\002A*
X107632000Y-79547000D03*
G04 #@! TD*
G04 #@! TO.C,REF\002A\002A*
X89632000Y-79547000D03*
G04 #@! TD*
G04 #@! TO.C,REF\002A\002A*
X71632000Y-79547000D03*
G04 #@! TD*
G04 #@! TO.C,REF\002A\002A*
X143632000Y-62547000D03*
G04 #@! TD*
G04 #@! TO.C,REF\002A\002A*
X125632000Y-62547000D03*
G04 #@! TD*
G04 #@! TO.C,REF\002A\002A*
X107632000Y-62547000D03*
G04 #@! TD*
G04 #@! TO.C,REF\002A\002A*
X89632000Y-62547000D03*
G04 #@! TD*
G04 #@! TO.C,REF\002A\002A*
X71632000Y-62547000D03*
G04 #@! TD*
G04 #@! TO.C,REF\002A\002A*
X143632000Y-45547000D03*
G04 #@! TD*
G04 #@! TO.C,REF\002A\002A*
X125632000Y-45547000D03*
G04 #@! TD*
G04 #@! TO.C,REF\002A\002A*
X107632000Y-45547000D03*
G04 #@! TD*
G04 #@! TO.C,REF\002A\002A*
X89632000Y-45547000D03*
G04 #@! TD*
G04 #@! TO.C,REF\002A\002A*
X71632000Y-45547000D03*
G04 #@! TD*
G04 #@! TO.C,REF\002A\002A*
X143632000Y-28547000D03*
G04 #@! TD*
G04 #@! TO.C,REF\002A\002A*
X125632000Y-28547000D03*
G04 #@! TD*
G04 #@! TO.C,REF\002A\002A*
X107632000Y-28547000D03*
G04 #@! TD*
G04 #@! TO.C,REF\002A\002A*
X89632000Y-28547000D03*
G04 #@! TD*
G04 #@! TO.C,REF\002A\002A*
X139532000Y-101297000D03*
G04 #@! TD*
G04 #@! TO.C,REF\002A\002A*
X121532000Y-101297000D03*
G04 #@! TD*
G04 #@! TO.C,REF\002A\002A*
X103532000Y-101297000D03*
G04 #@! TD*
G04 #@! TO.C,REF\002A\002A*
X85532000Y-101297000D03*
G04 #@! TD*
G04 #@! TO.C,REF\002A\002A*
X67532000Y-101297000D03*
G04 #@! TD*
G04 #@! TO.C,REF\002A\002A*
X139532000Y-84297000D03*
G04 #@! TD*
G04 #@! TO.C,REF\002A\002A*
X121532000Y-84297000D03*
G04 #@! TD*
G04 #@! TO.C,REF\002A\002A*
X103532000Y-84297000D03*
G04 #@! TD*
G04 #@! TO.C,REF\002A\002A*
X85532000Y-84297000D03*
G04 #@! TD*
G04 #@! TO.C,REF\002A\002A*
X67532000Y-84297000D03*
G04 #@! TD*
G04 #@! TO.C,REF\002A\002A*
X139532000Y-67297000D03*
G04 #@! TD*
G04 #@! TO.C,REF\002A\002A*
X121532000Y-67297000D03*
G04 #@! TD*
G04 #@! TO.C,REF\002A\002A*
X103532000Y-67297000D03*
G04 #@! TD*
G04 #@! TO.C,REF\002A\002A*
X85532000Y-67297000D03*
G04 #@! TD*
G04 #@! TO.C,REF\002A\002A*
X67532000Y-67297000D03*
G04 #@! TD*
G04 #@! TO.C,REF\002A\002A*
X139532000Y-50297000D03*
G04 #@! TD*
G04 #@! TO.C,REF\002A\002A*
X121532000Y-50297000D03*
G04 #@! TD*
G04 #@! TO.C,REF\002A\002A*
X103532000Y-50297000D03*
G04 #@! TD*
G04 #@! TO.C,REF\002A\002A*
X85532000Y-50297000D03*
G04 #@! TD*
G04 #@! TO.C,REF\002A\002A*
X67532000Y-50297000D03*
G04 #@! TD*
G04 #@! TO.C,REF\002A\002A*
X139532000Y-33297000D03*
G04 #@! TD*
G04 #@! TO.C,REF\002A\002A*
X121532000Y-33297000D03*
G04 #@! TD*
G04 #@! TO.C,REF\002A\002A*
X103532000Y-33297000D03*
G04 #@! TD*
G04 #@! TO.C,REF\002A\002A*
X85532000Y-33297000D03*
G04 #@! TD*
G04 #@! TO.C,REF\002A\002A*
X153532000Y-109547000D03*
G04 #@! TD*
G04 #@! TO.C,REF\002A\002A*
X135532000Y-109547000D03*
G04 #@! TD*
G04 #@! TO.C,REF\002A\002A*
X117532000Y-109547000D03*
G04 #@! TD*
G04 #@! TO.C,REF\002A\002A*
X99532000Y-109547000D03*
G04 #@! TD*
G04 #@! TO.C,REF\002A\002A*
X81532000Y-109547000D03*
G04 #@! TD*
G04 #@! TO.C,REF\002A\002A*
X153532000Y-92547000D03*
G04 #@! TD*
G04 #@! TO.C,REF\002A\002A*
X135532000Y-92547000D03*
G04 #@! TD*
G04 #@! TO.C,REF\002A\002A*
X117532000Y-92547000D03*
G04 #@! TD*
G04 #@! TO.C,REF\002A\002A*
X99532000Y-92547000D03*
G04 #@! TD*
G04 #@! TO.C,REF\002A\002A*
X81532000Y-92547000D03*
G04 #@! TD*
G04 #@! TO.C,REF\002A\002A*
X153532000Y-75547000D03*
G04 #@! TD*
G04 #@! TO.C,REF\002A\002A*
X135532000Y-75547000D03*
G04 #@! TD*
G04 #@! TO.C,REF\002A\002A*
X117532000Y-75547000D03*
G04 #@! TD*
G04 #@! TO.C,REF\002A\002A*
X99532000Y-75547000D03*
G04 #@! TD*
G04 #@! TO.C,REF\002A\002A*
X81532000Y-75547000D03*
G04 #@! TD*
G04 #@! TO.C,REF\002A\002A*
X153532000Y-58547000D03*
G04 #@! TD*
G04 #@! TO.C,REF\002A\002A*
X135532000Y-58547000D03*
G04 #@! TD*
G04 #@! TO.C,REF\002A\002A*
X117532000Y-58547000D03*
G04 #@! TD*
G04 #@! TO.C,REF\002A\002A*
X99532000Y-58547000D03*
G04 #@! TD*
G04 #@! TO.C,REF\002A\002A*
X81532000Y-58547000D03*
G04 #@! TD*
G04 #@! TO.C,REF\002A\002A*
X153532000Y-41547000D03*
G04 #@! TD*
G04 #@! TO.C,REF\002A\002A*
X135532000Y-41547000D03*
G04 #@! TD*
G04 #@! TO.C,REF\002A\002A*
X117532000Y-41547000D03*
G04 #@! TD*
G04 #@! TO.C,REF\002A\002A*
X99532000Y-41547000D03*
G04 #@! TD*
G04 #@! TO.C,REF\002A\002A*
X153532000Y-96297000D03*
G04 #@! TD*
G04 #@! TO.C,REF\002A\002A*
X135532000Y-96297000D03*
G04 #@! TD*
G04 #@! TO.C,REF\002A\002A*
X117532000Y-96297000D03*
G04 #@! TD*
G04 #@! TO.C,REF\002A\002A*
X99532000Y-96297000D03*
G04 #@! TD*
G04 #@! TO.C,REF\002A\002A*
X81532000Y-96297000D03*
G04 #@! TD*
G04 #@! TO.C,REF\002A\002A*
X153532000Y-79297000D03*
G04 #@! TD*
G04 #@! TO.C,REF\002A\002A*
X135532000Y-79297000D03*
G04 #@! TD*
G04 #@! TO.C,REF\002A\002A*
X117532000Y-79297000D03*
G04 #@! TD*
G04 #@! TO.C,REF\002A\002A*
X99532000Y-79297000D03*
G04 #@! TD*
G04 #@! TO.C,REF\002A\002A*
X81532000Y-79297000D03*
G04 #@! TD*
G04 #@! TO.C,REF\002A\002A*
X153532000Y-62297000D03*
G04 #@! TD*
G04 #@! TO.C,REF\002A\002A*
X135532000Y-62297000D03*
G04 #@! TD*
G04 #@! TO.C,REF\002A\002A*
X117532000Y-62297000D03*
G04 #@! TD*
G04 #@! TO.C,REF\002A\002A*
X99532000Y-62297000D03*
G04 #@! TD*
G04 #@! TO.C,REF\002A\002A*
X81532000Y-62297000D03*
G04 #@! TD*
G04 #@! TO.C,REF\002A\002A*
X153532000Y-45297000D03*
G04 #@! TD*
G04 #@! TO.C,REF\002A\002A*
X135532000Y-45297000D03*
G04 #@! TD*
G04 #@! TO.C,REF\002A\002A*
X117532000Y-45297000D03*
G04 #@! TD*
G04 #@! TO.C,REF\002A\002A*
X99532000Y-45297000D03*
G04 #@! TD*
G04 #@! TO.C,REF\002A\002A*
X81532000Y-45297000D03*
G04 #@! TD*
G04 #@! TO.C,REF\002A\002A*
X153532000Y-28297000D03*
G04 #@! TD*
G04 #@! TO.C,REF\002A\002A*
X135532000Y-28297000D03*
G04 #@! TD*
G04 #@! TO.C,REF\002A\002A*
X117532000Y-28297000D03*
G04 #@! TD*
G04 #@! TO.C,REF\002A\002A*
X99532000Y-28297000D03*
G04 #@! TD*
D17*
G04 #@! TO.C,L1*
X143922000Y-98252000D03*
X143922000Y-99752000D03*
X148922000Y-99752000D03*
X148922000Y-98252000D03*
G04 #@! TD*
G04 #@! TO.C,L1*
X125922000Y-98252000D03*
X125922000Y-99752000D03*
X130922000Y-99752000D03*
X130922000Y-98252000D03*
G04 #@! TD*
G04 #@! TO.C,L1*
X107922000Y-98252000D03*
X107922000Y-99752000D03*
X112922000Y-99752000D03*
X112922000Y-98252000D03*
G04 #@! TD*
G04 #@! TO.C,L1*
X89922000Y-98252000D03*
X89922000Y-99752000D03*
X94922000Y-99752000D03*
X94922000Y-98252000D03*
G04 #@! TD*
G04 #@! TO.C,L1*
X71922000Y-98252000D03*
X71922000Y-99752000D03*
X76922000Y-99752000D03*
X76922000Y-98252000D03*
G04 #@! TD*
G04 #@! TO.C,L1*
X143922000Y-81252000D03*
X143922000Y-82752000D03*
X148922000Y-82752000D03*
X148922000Y-81252000D03*
G04 #@! TD*
G04 #@! TO.C,L1*
X125922000Y-81252000D03*
X125922000Y-82752000D03*
X130922000Y-82752000D03*
X130922000Y-81252000D03*
G04 #@! TD*
G04 #@! TO.C,L1*
X107922000Y-81252000D03*
X107922000Y-82752000D03*
X112922000Y-82752000D03*
X112922000Y-81252000D03*
G04 #@! TD*
G04 #@! TO.C,L1*
X89922000Y-81252000D03*
X89922000Y-82752000D03*
X94922000Y-82752000D03*
X94922000Y-81252000D03*
G04 #@! TD*
G04 #@! TO.C,L1*
X143922000Y-64252000D03*
X143922000Y-65752000D03*
X148922000Y-65752000D03*
X148922000Y-64252000D03*
G04 #@! TD*
G04 #@! TO.C,L1*
X125922000Y-64252000D03*
X125922000Y-65752000D03*
X130922000Y-65752000D03*
X130922000Y-64252000D03*
G04 #@! TD*
G04 #@! TO.C,L1*
X107922000Y-64252000D03*
X107922000Y-65752000D03*
X112922000Y-65752000D03*
X112922000Y-64252000D03*
G04 #@! TD*
G04 #@! TO.C,L1*
X89922000Y-64252000D03*
X89922000Y-65752000D03*
X94922000Y-65752000D03*
X94922000Y-64252000D03*
G04 #@! TD*
G04 #@! TO.C,L1*
X71922000Y-64252000D03*
X71922000Y-65752000D03*
X76922000Y-65752000D03*
X76922000Y-64252000D03*
G04 #@! TD*
G04 #@! TO.C,L1*
X143922000Y-47252000D03*
X143922000Y-48752000D03*
X148922000Y-48752000D03*
X148922000Y-47252000D03*
G04 #@! TD*
G04 #@! TO.C,L1*
X125922000Y-47252000D03*
X125922000Y-48752000D03*
X130922000Y-48752000D03*
X130922000Y-47252000D03*
G04 #@! TD*
G04 #@! TO.C,L1*
X107922000Y-47252000D03*
X107922000Y-48752000D03*
X112922000Y-48752000D03*
X112922000Y-47252000D03*
G04 #@! TD*
G04 #@! TO.C,L1*
X89922000Y-47252000D03*
X89922000Y-48752000D03*
X94922000Y-48752000D03*
X94922000Y-47252000D03*
G04 #@! TD*
G04 #@! TO.C,L1*
X71922000Y-47252000D03*
X71922000Y-48752000D03*
X76922000Y-48752000D03*
X76922000Y-47252000D03*
G04 #@! TD*
G04 #@! TO.C,L1*
X143922000Y-30252000D03*
X143922000Y-31752000D03*
X148922000Y-31752000D03*
X148922000Y-30252000D03*
G04 #@! TD*
G04 #@! TO.C,L1*
X125922000Y-30252000D03*
X125922000Y-31752000D03*
X130922000Y-31752000D03*
X130922000Y-30252000D03*
G04 #@! TD*
G04 #@! TO.C,L1*
X107922000Y-30252000D03*
X107922000Y-31752000D03*
X112922000Y-31752000D03*
X112922000Y-30252000D03*
G04 #@! TD*
G04 #@! TO.C,L1*
X89922000Y-30252000D03*
X89922000Y-31752000D03*
X94922000Y-31752000D03*
X94922000Y-30252000D03*
G04 #@! TD*
D18*
G04 #@! TO.C,REF\002A\002A*
X153532000Y-101297000D03*
G04 #@! TD*
G04 #@! TO.C,REF\002A\002A*
X135532000Y-101297000D03*
G04 #@! TD*
G04 #@! TO.C,REF\002A\002A*
X117532000Y-101297000D03*
G04 #@! TD*
G04 #@! TO.C,REF\002A\002A*
X99532000Y-101297000D03*
G04 #@! TD*
G04 #@! TO.C,REF\002A\002A*
X81532000Y-101297000D03*
G04 #@! TD*
G04 #@! TO.C,REF\002A\002A*
X153532000Y-84297000D03*
G04 #@! TD*
G04 #@! TO.C,REF\002A\002A*
X135532000Y-84297000D03*
G04 #@! TD*
G04 #@! TO.C,REF\002A\002A*
X117532000Y-84297000D03*
G04 #@! TD*
G04 #@! TO.C,REF\002A\002A*
X99532000Y-84297000D03*
G04 #@! TD*
G04 #@! TO.C,REF\002A\002A*
X81532000Y-84297000D03*
G04 #@! TD*
G04 #@! TO.C,REF\002A\002A*
X153532000Y-67297000D03*
G04 #@! TD*
G04 #@! TO.C,REF\002A\002A*
X135532000Y-67297000D03*
G04 #@! TD*
G04 #@! TO.C,REF\002A\002A*
X117532000Y-67297000D03*
G04 #@! TD*
G04 #@! TO.C,REF\002A\002A*
X99532000Y-67297000D03*
G04 #@! TD*
G04 #@! TO.C,REF\002A\002A*
X81532000Y-67297000D03*
G04 #@! TD*
G04 #@! TO.C,REF\002A\002A*
X153532000Y-50297000D03*
G04 #@! TD*
G04 #@! TO.C,REF\002A\002A*
X135532000Y-50297000D03*
G04 #@! TD*
G04 #@! TO.C,REF\002A\002A*
X117532000Y-50297000D03*
G04 #@! TD*
G04 #@! TO.C,REF\002A\002A*
X99532000Y-50297000D03*
G04 #@! TD*
G04 #@! TO.C,REF\002A\002A*
X81532000Y-50297000D03*
G04 #@! TD*
G04 #@! TO.C,REF\002A\002A*
X153532000Y-33297000D03*
G04 #@! TD*
G04 #@! TO.C,REF\002A\002A*
X135532000Y-33297000D03*
G04 #@! TD*
G04 #@! TO.C,REF\002A\002A*
X117532000Y-33297000D03*
G04 #@! TD*
G04 #@! TO.C,REF\002A\002A*
X99532000Y-33297000D03*
G04 #@! TD*
G04 #@! TO.C,REF\002A\002A*
X153532000Y-98797000D03*
G04 #@! TD*
G04 #@! TO.C,REF\002A\002A*
X135532000Y-98797000D03*
G04 #@! TD*
G04 #@! TO.C,REF\002A\002A*
X117532000Y-98797000D03*
G04 #@! TD*
G04 #@! TO.C,REF\002A\002A*
X99532000Y-98797000D03*
G04 #@! TD*
G04 #@! TO.C,REF\002A\002A*
X81532000Y-98797000D03*
G04 #@! TD*
G04 #@! TO.C,REF\002A\002A*
X153532000Y-81797000D03*
G04 #@! TD*
G04 #@! TO.C,REF\002A\002A*
X135532000Y-81797000D03*
G04 #@! TD*
G04 #@! TO.C,REF\002A\002A*
X117532000Y-81797000D03*
G04 #@! TD*
G04 #@! TO.C,REF\002A\002A*
X99532000Y-81797000D03*
G04 #@! TD*
G04 #@! TO.C,REF\002A\002A*
X81532000Y-81797000D03*
G04 #@! TD*
G04 #@! TO.C,REF\002A\002A*
X153532000Y-64797000D03*
G04 #@! TD*
G04 #@! TO.C,REF\002A\002A*
X135532000Y-64797000D03*
G04 #@! TD*
G04 #@! TO.C,REF\002A\002A*
X117532000Y-64797000D03*
G04 #@! TD*
G04 #@! TO.C,REF\002A\002A*
X99532000Y-64797000D03*
G04 #@! TD*
G04 #@! TO.C,REF\002A\002A*
X81532000Y-64797000D03*
G04 #@! TD*
G04 #@! TO.C,REF\002A\002A*
X153532000Y-47797000D03*
G04 #@! TD*
G04 #@! TO.C,REF\002A\002A*
X135532000Y-47797000D03*
G04 #@! TD*
G04 #@! TO.C,REF\002A\002A*
X117532000Y-47797000D03*
G04 #@! TD*
G04 #@! TO.C,REF\002A\002A*
X99532000Y-47797000D03*
G04 #@! TD*
G04 #@! TO.C,REF\002A\002A*
X81532000Y-47797000D03*
G04 #@! TD*
G04 #@! TO.C,REF\002A\002A*
X153532000Y-30797000D03*
G04 #@! TD*
G04 #@! TO.C,REF\002A\002A*
X135532000Y-30797000D03*
G04 #@! TD*
G04 #@! TO.C,REF\002A\002A*
X117532000Y-30797000D03*
G04 #@! TD*
G04 #@! TO.C,REF\002A\002A*
X99532000Y-30797000D03*
G04 #@! TD*
D13*
G04 #@! TO.C,SW1*
X141432000Y-107197000D03*
D14*
X146532000Y-103297000D03*
D15*
X152032000Y-103297000D03*
X141032000Y-103297000D03*
D13*
X146532000Y-109197000D03*
D16*
X151752000Y-99097000D03*
G04 #@! TD*
D13*
G04 #@! TO.C,SW1*
X123432000Y-90197000D03*
D14*
X128532000Y-86297000D03*
D15*
X134032000Y-86297000D03*
X123032000Y-86297000D03*
D13*
X128532000Y-92197000D03*
D16*
X133752000Y-82097000D03*
G04 #@! TD*
D13*
G04 #@! TO.C,SW1*
X105432000Y-90197000D03*
D14*
X110532000Y-86297000D03*
D15*
X116032000Y-86297000D03*
X105032000Y-86297000D03*
D13*
X110532000Y-92197000D03*
D16*
X115752000Y-82097000D03*
G04 #@! TD*
D13*
G04 #@! TO.C,SW1*
X87432000Y-90197000D03*
D14*
X92532000Y-86297000D03*
D15*
X98032000Y-86297000D03*
X87032000Y-86297000D03*
D13*
X92532000Y-92197000D03*
D16*
X97752000Y-82097000D03*
G04 #@! TD*
D13*
G04 #@! TO.C,SW1*
X69432000Y-90197000D03*
D14*
X74532000Y-86297000D03*
D15*
X80032000Y-86297000D03*
X69032000Y-86297000D03*
D13*
X74532000Y-92197000D03*
D16*
X79752000Y-82097000D03*
G04 #@! TD*
D13*
G04 #@! TO.C,SW1*
X141432000Y-73197000D03*
D14*
X146532000Y-69297000D03*
D15*
X152032000Y-69297000D03*
X141032000Y-69297000D03*
D13*
X146532000Y-75197000D03*
D16*
X151752000Y-65097000D03*
G04 #@! TD*
D13*
G04 #@! TO.C,SW1*
X123432000Y-73197000D03*
D14*
X128532000Y-69297000D03*
D15*
X134032000Y-69297000D03*
X123032000Y-69297000D03*
D13*
X128532000Y-75197000D03*
D16*
X133752000Y-65097000D03*
G04 #@! TD*
D13*
G04 #@! TO.C,SW1*
X105432000Y-73197000D03*
D14*
X110532000Y-69297000D03*
D15*
X116032000Y-69297000D03*
X105032000Y-69297000D03*
D13*
X110532000Y-75197000D03*
D16*
X115752000Y-65097000D03*
G04 #@! TD*
D13*
G04 #@! TO.C,SW1*
X87432000Y-73197000D03*
D14*
X92532000Y-69297000D03*
D15*
X98032000Y-69297000D03*
X87032000Y-69297000D03*
D13*
X92532000Y-75197000D03*
D16*
X97752000Y-65097000D03*
G04 #@! TD*
D13*
G04 #@! TO.C,SW1*
X69432000Y-73197000D03*
D14*
X74532000Y-69297000D03*
D15*
X80032000Y-69297000D03*
X69032000Y-69297000D03*
D13*
X74532000Y-75197000D03*
D16*
X79752000Y-65097000D03*
G04 #@! TD*
D13*
G04 #@! TO.C,SW1*
X141432000Y-56197000D03*
D14*
X146532000Y-52297000D03*
D15*
X152032000Y-52297000D03*
X141032000Y-52297000D03*
D13*
X146532000Y-58197000D03*
D16*
X151752000Y-48097000D03*
G04 #@! TD*
D13*
G04 #@! TO.C,SW1*
X123432000Y-56197000D03*
D14*
X128532000Y-52297000D03*
D15*
X134032000Y-52297000D03*
X123032000Y-52297000D03*
D13*
X128532000Y-58197000D03*
D16*
X133752000Y-48097000D03*
G04 #@! TD*
D13*
G04 #@! TO.C,SW1*
X105432000Y-56197000D03*
D14*
X110532000Y-52297000D03*
D15*
X116032000Y-52297000D03*
X105032000Y-52297000D03*
D13*
X110532000Y-58197000D03*
D16*
X115752000Y-48097000D03*
G04 #@! TD*
D13*
G04 #@! TO.C,SW1*
X87432000Y-56197000D03*
D14*
X92532000Y-52297000D03*
D15*
X98032000Y-52297000D03*
X87032000Y-52297000D03*
D13*
X92532000Y-58197000D03*
D16*
X97752000Y-48097000D03*
G04 #@! TD*
D13*
G04 #@! TO.C,SW1*
X69432000Y-56197000D03*
D14*
X74532000Y-52297000D03*
D15*
X80032000Y-52297000D03*
X69032000Y-52297000D03*
D13*
X74532000Y-58197000D03*
D16*
X79752000Y-48097000D03*
G04 #@! TD*
D13*
G04 #@! TO.C,SW1*
X141432000Y-39197000D03*
D14*
X146532000Y-35297000D03*
D15*
X152032000Y-35297000D03*
X141032000Y-35297000D03*
D13*
X146532000Y-41197000D03*
D16*
X151752000Y-31097000D03*
G04 #@! TD*
D13*
G04 #@! TO.C,SW1*
X123432000Y-39197000D03*
D14*
X128532000Y-35297000D03*
D15*
X134032000Y-35297000D03*
X123032000Y-35297000D03*
D13*
X128532000Y-41197000D03*
D16*
X133752000Y-31097000D03*
G04 #@! TD*
D13*
G04 #@! TO.C,SW1*
X105432000Y-39197000D03*
D14*
X110532000Y-35297000D03*
D15*
X116032000Y-35297000D03*
X105032000Y-35297000D03*
D13*
X110532000Y-41197000D03*
D16*
X115752000Y-31097000D03*
G04 #@! TD*
D13*
G04 #@! TO.C,SW1*
X87432000Y-39197000D03*
D14*
X92532000Y-35297000D03*
D15*
X98032000Y-35297000D03*
X87032000Y-35297000D03*
D13*
X92532000Y-41197000D03*
D16*
X97752000Y-31097000D03*
G04 #@! TD*
D18*
G04 #@! TO.C,REF\002A\002A*
X139532000Y-96297000D03*
G04 #@! TD*
G04 #@! TO.C,REF\002A\002A*
X121532000Y-96297000D03*
G04 #@! TD*
G04 #@! TO.C,REF\002A\002A*
X103532000Y-96297000D03*
G04 #@! TD*
G04 #@! TO.C,REF\002A\002A*
X85532000Y-96297000D03*
G04 #@! TD*
G04 #@! TO.C,REF\002A\002A*
X67532000Y-96297000D03*
G04 #@! TD*
G04 #@! TO.C,REF\002A\002A*
X139532000Y-79297000D03*
G04 #@! TD*
G04 #@! TO.C,REF\002A\002A*
X121532000Y-79297000D03*
G04 #@! TD*
G04 #@! TO.C,REF\002A\002A*
X103532000Y-79297000D03*
G04 #@! TD*
G04 #@! TO.C,REF\002A\002A*
X85532000Y-79297000D03*
G04 #@! TD*
G04 #@! TO.C,REF\002A\002A*
X67532000Y-79297000D03*
G04 #@! TD*
G04 #@! TO.C,REF\002A\002A*
X139532000Y-62297000D03*
G04 #@! TD*
G04 #@! TO.C,REF\002A\002A*
X121532000Y-62297000D03*
G04 #@! TD*
G04 #@! TO.C,REF\002A\002A*
X103532000Y-62297000D03*
G04 #@! TD*
G04 #@! TO.C,REF\002A\002A*
X85532000Y-62297000D03*
G04 #@! TD*
G04 #@! TO.C,REF\002A\002A*
X67532000Y-62297000D03*
G04 #@! TD*
G04 #@! TO.C,REF\002A\002A*
X139532000Y-45297000D03*
G04 #@! TD*
G04 #@! TO.C,REF\002A\002A*
X121532000Y-45297000D03*
G04 #@! TD*
G04 #@! TO.C,REF\002A\002A*
X103532000Y-45297000D03*
G04 #@! TD*
G04 #@! TO.C,REF\002A\002A*
X85532000Y-45297000D03*
G04 #@! TD*
G04 #@! TO.C,REF\002A\002A*
X67532000Y-45297000D03*
G04 #@! TD*
G04 #@! TO.C,REF\002A\002A*
X139532000Y-28297000D03*
G04 #@! TD*
G04 #@! TO.C,REF\002A\002A*
X121532000Y-28297000D03*
G04 #@! TD*
G04 #@! TO.C,REF\002A\002A*
X103532000Y-28297000D03*
G04 #@! TD*
G04 #@! TO.C,REF\002A\002A*
X85532000Y-28297000D03*
G04 #@! TD*
G04 #@! TO.C,REF\002A\002A*
X139532000Y-109547000D03*
G04 #@! TD*
G04 #@! TO.C,REF\002A\002A*
X121532000Y-109547000D03*
G04 #@! TD*
G04 #@! TO.C,REF\002A\002A*
X103532000Y-109547000D03*
G04 #@! TD*
G04 #@! TO.C,REF\002A\002A*
X85532000Y-109547000D03*
G04 #@! TD*
G04 #@! TO.C,REF\002A\002A*
X67532000Y-109547000D03*
G04 #@! TD*
G04 #@! TO.C,REF\002A\002A*
X139532000Y-92547000D03*
G04 #@! TD*
G04 #@! TO.C,REF\002A\002A*
X121532000Y-92547000D03*
G04 #@! TD*
G04 #@! TO.C,REF\002A\002A*
X103532000Y-92547000D03*
G04 #@! TD*
G04 #@! TO.C,REF\002A\002A*
X85532000Y-92547000D03*
G04 #@! TD*
G04 #@! TO.C,REF\002A\002A*
X67532000Y-92547000D03*
G04 #@! TD*
G04 #@! TO.C,REF\002A\002A*
X139532000Y-75547000D03*
G04 #@! TD*
G04 #@! TO.C,REF\002A\002A*
X121532000Y-75547000D03*
G04 #@! TD*
G04 #@! TO.C,REF\002A\002A*
X103532000Y-75547000D03*
G04 #@! TD*
G04 #@! TO.C,REF\002A\002A*
X85532000Y-75547000D03*
G04 #@! TD*
G04 #@! TO.C,REF\002A\002A*
X67532000Y-75547000D03*
G04 #@! TD*
G04 #@! TO.C,REF\002A\002A*
X139532000Y-58547000D03*
G04 #@! TD*
G04 #@! TO.C,REF\002A\002A*
X121532000Y-58547000D03*
G04 #@! TD*
G04 #@! TO.C,REF\002A\002A*
X103532000Y-58547000D03*
G04 #@! TD*
G04 #@! TO.C,REF\002A\002A*
X85532000Y-58547000D03*
G04 #@! TD*
G04 #@! TO.C,REF\002A\002A*
X67532000Y-58547000D03*
G04 #@! TD*
G04 #@! TO.C,REF\002A\002A*
X139532000Y-41547000D03*
G04 #@! TD*
G04 #@! TO.C,REF\002A\002A*
X121532000Y-41547000D03*
G04 #@! TD*
G04 #@! TO.C,REF\002A\002A*
X103532000Y-41547000D03*
G04 #@! TD*
G04 #@! TO.C,REF\002A\002A*
X85532000Y-41547000D03*
G04 #@! TD*
G04 #@! TO.C,REF\002A\002A*
X139532000Y-98797000D03*
G04 #@! TD*
G04 #@! TO.C,REF\002A\002A*
X121532000Y-98797000D03*
G04 #@! TD*
G04 #@! TO.C,REF\002A\002A*
X103532000Y-98797000D03*
G04 #@! TD*
G04 #@! TO.C,REF\002A\002A*
X85532000Y-98797000D03*
G04 #@! TD*
G04 #@! TO.C,REF\002A\002A*
X67532000Y-98797000D03*
G04 #@! TD*
G04 #@! TO.C,REF\002A\002A*
X139532000Y-81797000D03*
G04 #@! TD*
G04 #@! TO.C,REF\002A\002A*
X121532000Y-81797000D03*
G04 #@! TD*
G04 #@! TO.C,REF\002A\002A*
X103532000Y-81797000D03*
G04 #@! TD*
G04 #@! TO.C,REF\002A\002A*
X85532000Y-81797000D03*
G04 #@! TD*
G04 #@! TO.C,REF\002A\002A*
X67532000Y-81797000D03*
G04 #@! TD*
G04 #@! TO.C,REF\002A\002A*
X139532000Y-64797000D03*
G04 #@! TD*
G04 #@! TO.C,REF\002A\002A*
X121532000Y-64797000D03*
G04 #@! TD*
G04 #@! TO.C,REF\002A\002A*
X103532000Y-64797000D03*
G04 #@! TD*
G04 #@! TO.C,REF\002A\002A*
X85532000Y-64797000D03*
G04 #@! TD*
G04 #@! TO.C,REF\002A\002A*
X67532000Y-64797000D03*
G04 #@! TD*
G04 #@! TO.C,REF\002A\002A*
X139532000Y-47797000D03*
G04 #@! TD*
G04 #@! TO.C,REF\002A\002A*
X121532000Y-47797000D03*
G04 #@! TD*
G04 #@! TO.C,REF\002A\002A*
X103532000Y-47797000D03*
G04 #@! TD*
G04 #@! TO.C,REF\002A\002A*
X85532000Y-47797000D03*
G04 #@! TD*
G04 #@! TO.C,REF\002A\002A*
X67532000Y-47797000D03*
G04 #@! TD*
G04 #@! TO.C,REF\002A\002A*
X139532000Y-30797000D03*
G04 #@! TD*
G04 #@! TO.C,REF\002A\002A*
X121532000Y-30797000D03*
G04 #@! TD*
G04 #@! TO.C,REF\002A\002A*
X103532000Y-30797000D03*
G04 #@! TD*
G04 #@! TO.C,REF\002A\002A*
X85532000Y-30797000D03*
G04 #@! TD*
G04 #@! TO.C,REF\002A\002A*
X143532000Y-109547000D03*
G04 #@! TD*
G04 #@! TO.C,REF\002A\002A*
X125532000Y-109547000D03*
G04 #@! TD*
G04 #@! TO.C,REF\002A\002A*
X107532000Y-109547000D03*
G04 #@! TD*
G04 #@! TO.C,REF\002A\002A*
X89532000Y-109547000D03*
G04 #@! TD*
G04 #@! TO.C,REF\002A\002A*
X71532000Y-109547000D03*
G04 #@! TD*
G04 #@! TO.C,REF\002A\002A*
X143532000Y-92547000D03*
G04 #@! TD*
G04 #@! TO.C,REF\002A\002A*
X125532000Y-92547000D03*
G04 #@! TD*
G04 #@! TO.C,REF\002A\002A*
X107532000Y-92547000D03*
G04 #@! TD*
G04 #@! TO.C,REF\002A\002A*
X89532000Y-92547000D03*
G04 #@! TD*
G04 #@! TO.C,REF\002A\002A*
X71532000Y-92547000D03*
G04 #@! TD*
G04 #@! TO.C,REF\002A\002A*
X143532000Y-75547000D03*
G04 #@! TD*
G04 #@! TO.C,REF\002A\002A*
X125532000Y-75547000D03*
G04 #@! TD*
G04 #@! TO.C,REF\002A\002A*
X107532000Y-75547000D03*
G04 #@! TD*
G04 #@! TO.C,REF\002A\002A*
X89532000Y-75547000D03*
G04 #@! TD*
G04 #@! TO.C,REF\002A\002A*
X71532000Y-75547000D03*
G04 #@! TD*
G04 #@! TO.C,REF\002A\002A*
X143532000Y-58547000D03*
G04 #@! TD*
G04 #@! TO.C,REF\002A\002A*
X125532000Y-58547000D03*
G04 #@! TD*
G04 #@! TO.C,REF\002A\002A*
X107532000Y-58547000D03*
G04 #@! TD*
G04 #@! TO.C,REF\002A\002A*
X89532000Y-58547000D03*
G04 #@! TD*
G04 #@! TO.C,REF\002A\002A*
X71532000Y-58547000D03*
G04 #@! TD*
G04 #@! TO.C,REF\002A\002A*
X143532000Y-41547000D03*
G04 #@! TD*
G04 #@! TO.C,REF\002A\002A*
X125532000Y-41547000D03*
G04 #@! TD*
G04 #@! TO.C,REF\002A\002A*
X107532000Y-41547000D03*
G04 #@! TD*
G04 #@! TO.C,REF\002A\002A*
X89532000Y-41547000D03*
G04 #@! TD*
G04 #@! TO.C,REF\002A\002A*
X139532000Y-105297000D03*
G04 #@! TD*
G04 #@! TO.C,REF\002A\002A*
X121532000Y-105297000D03*
G04 #@! TD*
G04 #@! TO.C,REF\002A\002A*
X103532000Y-105297000D03*
G04 #@! TD*
G04 #@! TO.C,REF\002A\002A*
X85532000Y-105297000D03*
G04 #@! TD*
G04 #@! TO.C,REF\002A\002A*
X67532000Y-105297000D03*
G04 #@! TD*
G04 #@! TO.C,REF\002A\002A*
X139532000Y-88297000D03*
G04 #@! TD*
G04 #@! TO.C,REF\002A\002A*
X121532000Y-88297000D03*
G04 #@! TD*
G04 #@! TO.C,REF\002A\002A*
X103532000Y-88297000D03*
G04 #@! TD*
G04 #@! TO.C,REF\002A\002A*
X85532000Y-88297000D03*
G04 #@! TD*
G04 #@! TO.C,REF\002A\002A*
X67532000Y-88297000D03*
G04 #@! TD*
G04 #@! TO.C,REF\002A\002A*
X139532000Y-71297000D03*
G04 #@! TD*
G04 #@! TO.C,REF\002A\002A*
X121532000Y-71297000D03*
G04 #@! TD*
G04 #@! TO.C,REF\002A\002A*
X103532000Y-71297000D03*
G04 #@! TD*
G04 #@! TO.C,REF\002A\002A*
X85532000Y-71297000D03*
G04 #@! TD*
G04 #@! TO.C,REF\002A\002A*
X67532000Y-71297000D03*
G04 #@! TD*
G04 #@! TO.C,REF\002A\002A*
X139532000Y-54297000D03*
G04 #@! TD*
G04 #@! TO.C,REF\002A\002A*
X121532000Y-54297000D03*
G04 #@! TD*
G04 #@! TO.C,REF\002A\002A*
X103532000Y-54297000D03*
G04 #@! TD*
G04 #@! TO.C,REF\002A\002A*
X85532000Y-54297000D03*
G04 #@! TD*
G04 #@! TO.C,REF\002A\002A*
X67532000Y-54297000D03*
G04 #@! TD*
G04 #@! TO.C,REF\002A\002A*
X139532000Y-37297000D03*
G04 #@! TD*
G04 #@! TO.C,REF\002A\002A*
X121532000Y-37297000D03*
G04 #@! TD*
G04 #@! TO.C,REF\002A\002A*
X103532000Y-37297000D03*
G04 #@! TD*
G04 #@! TO.C,REF\002A\002A*
X85532000Y-37297000D03*
G04 #@! TD*
G04 #@! TO.C,REF\002A\002A*
X153532000Y-105297000D03*
G04 #@! TD*
G04 #@! TO.C,REF\002A\002A*
X135532000Y-105297000D03*
G04 #@! TD*
G04 #@! TO.C,REF\002A\002A*
X117532000Y-105297000D03*
G04 #@! TD*
G04 #@! TO.C,REF\002A\002A*
X99532000Y-105297000D03*
G04 #@! TD*
G04 #@! TO.C,REF\002A\002A*
X81532000Y-105297000D03*
G04 #@! TD*
G04 #@! TO.C,REF\002A\002A*
X153532000Y-88297000D03*
G04 #@! TD*
G04 #@! TO.C,REF\002A\002A*
X135532000Y-88297000D03*
G04 #@! TD*
G04 #@! TO.C,REF\002A\002A*
X117532000Y-88297000D03*
G04 #@! TD*
G04 #@! TO.C,REF\002A\002A*
X99532000Y-88297000D03*
G04 #@! TD*
G04 #@! TO.C,REF\002A\002A*
X81532000Y-88297000D03*
G04 #@! TD*
G04 #@! TO.C,REF\002A\002A*
X153532000Y-71297000D03*
G04 #@! TD*
G04 #@! TO.C,REF\002A\002A*
X135532000Y-71297000D03*
G04 #@! TD*
G04 #@! TO.C,REF\002A\002A*
X117532000Y-71297000D03*
G04 #@! TD*
G04 #@! TO.C,REF\002A\002A*
X99532000Y-71297000D03*
G04 #@! TD*
G04 #@! TO.C,REF\002A\002A*
X81532000Y-71297000D03*
G04 #@! TD*
G04 #@! TO.C,REF\002A\002A*
X153532000Y-54297000D03*
G04 #@! TD*
G04 #@! TO.C,REF\002A\002A*
X135532000Y-54297000D03*
G04 #@! TD*
G04 #@! TO.C,REF\002A\002A*
X117532000Y-54297000D03*
G04 #@! TD*
G04 #@! TO.C,REF\002A\002A*
X99532000Y-54297000D03*
G04 #@! TD*
G04 #@! TO.C,REF\002A\002A*
X81532000Y-54297000D03*
G04 #@! TD*
G04 #@! TO.C,REF\002A\002A*
X153532000Y-37297000D03*
G04 #@! TD*
G04 #@! TO.C,REF\002A\002A*
X135532000Y-37297000D03*
G04 #@! TD*
G04 #@! TO.C,REF\002A\002A*
X117532000Y-37297000D03*
G04 #@! TD*
G04 #@! TO.C,REF\002A\002A*
X99532000Y-37297000D03*
G04 #@! TD*
D17*
G04 #@! TO.C,L1*
X76922000Y-30252000D03*
X76922000Y-31752000D03*
X71922000Y-31752000D03*
X71922000Y-30252000D03*
G04 #@! TD*
D18*
G04 #@! TO.C,REF\002A\002A*
X71532000Y-41547000D03*
G04 #@! TD*
G04 #@! TO.C,REF\002A\002A*
X67532000Y-37297000D03*
G04 #@! TD*
G04 #@! TO.C,REF\002A\002A*
X67532000Y-30797000D03*
G04 #@! TD*
G04 #@! TO.C,REF\002A\002A*
X81532000Y-37297000D03*
G04 #@! TD*
G04 #@! TO.C,REF\002A\002A*
X81532000Y-30797000D03*
G04 #@! TD*
G04 #@! TO.C,REF\002A\002A*
X81532000Y-33297000D03*
G04 #@! TD*
G04 #@! TO.C,REF\002A\002A*
X67532000Y-33297000D03*
G04 #@! TD*
G04 #@! TO.C,REF\002A\002A*
X71632000Y-28547000D03*
G04 #@! TD*
G04 #@! TO.C,REF\002A\002A*
X81532000Y-28297000D03*
G04 #@! TD*
G04 #@! TO.C,REF\002A\002A*
X81532000Y-41547000D03*
G04 #@! TD*
G04 #@! TO.C,REF\002A\002A*
X67532000Y-41547000D03*
G04 #@! TD*
G04 #@! TO.C,REF\002A\002A*
X67532000Y-28297000D03*
G04 #@! TD*
M02*
