M48
;DRILL file {KiCad 5.0.0-fee4fd1~66~ubuntu18.04.1} date Mon Sep 17 00:42:58 2018
;FORMAT={3:3/ absolute / metric / suppress leading zeros}
FMAT,2
METRIC,TZ
T1C0.813
T2C1.000
T3C1.300
T4C1.200
T5C2.200
%
G90
G05
M71
T1
X170180Y-71755
X118110Y-69215
X146050Y-61595
X96520Y-76835
X160020Y-83820
X105410Y-76835
X118110Y-48895
X102870Y-69215
X171450Y-83820
X149860Y-85725
X99060Y-66675
X118110Y-71755
X105410Y-71755
X152400Y-83820
X170180Y-48895
X149860Y-83820
X161290Y-74295
X173355Y-88900
X142240Y-71755
X130810Y-85725
X114300Y-93345
X96520Y-74295
X139700Y-53975
X163830Y-61595
X148590Y-71755
X146050Y-76835
X118110Y-64135
X124460Y-69215
X118110Y-61595
X163830Y-66675
X105410Y-61595
X142240Y-59055
X149225Y-88900
X148590Y-64135
X170180Y-53975
X142240Y-66675
X139700Y-61595
X124460Y-48895
X105410Y-64135
X96520Y-61595
X161290Y-61595
X127000Y-51435
X118110Y-74295
X142240Y-61595
X127000Y-48895
X124460Y-59055
X163830Y-71755
X170180Y-64135
X102870Y-59055
X105410Y-74295
X167640Y-51435
X167640Y-76835
X167640Y-66675
X148590Y-69215
X127000Y-69215
X148590Y-56515
X127000Y-56515
X161290Y-66675
X142240Y-76835
X102870Y-66675
X118110Y-66675
X99060Y-51435
X124460Y-74295
X105410Y-53975
X124460Y-51435
X102870Y-48895
X99060Y-59055
X114300Y-83820
X127000Y-64135
X146050Y-74295
X163830Y-48895
X161290Y-53975
X170180Y-66675
X95250Y-83820
X99060Y-48895
X96520Y-51435
X142240Y-56515
X95250Y-85725
X99060Y-61595
X148590Y-74295
X139700Y-74295
X167640Y-53975
X157480Y-85725
X127000Y-74295
X120650Y-48895
X146050Y-59055
X120650Y-53975
X106680Y-83820
X109220Y-85725
X99060Y-56515
X118110Y-76835
X117475Y-93345
X99060Y-64135
X163830Y-56515
X161290Y-48895
X167640Y-74295
X139700Y-56515
X139700Y-59055
X161290Y-59055
X148590Y-76835
X170815Y-88900
X146050Y-66675
X142240Y-64135
X105410Y-69215
X99060Y-76835
X105410Y-56515
X116840Y-83820
X138430Y-83820
X118110Y-56515
X151765Y-88900
X105410Y-48895
X102870Y-76835
X148590Y-53975
X170180Y-74295
X127635Y-88900
X92710Y-83820
X139700Y-71755
X161925Y-80645
X164465Y-80645
X167005Y-80645
X169545Y-80645
X142240Y-51435
X142240Y-74295
X127000Y-71755
X120650Y-69215
X93345Y-48895
X93345Y-51435
X93345Y-53975
X93345Y-56515
X93345Y-59055
X93345Y-61595
X93345Y-64135
X93345Y-66675
X93345Y-69215
X93345Y-71755
X93345Y-74295
X93345Y-76835
X108585Y-48895
X108585Y-51435
X108585Y-53975
X108585Y-56515
X108585Y-59055
X108585Y-61595
X108585Y-64135
X108585Y-66675
X108585Y-69215
X108585Y-71755
X108585Y-74295
X108585Y-76835
X167640Y-71755
X173990Y-83820
X96520Y-64135
X120650Y-64135
X146050Y-48895
X120650Y-61595
X160655Y-93345
X120650Y-66675
X105410Y-66675
X138430Y-85725
X161290Y-71755
X146050Y-53975
X118110Y-51435
X146050Y-71755
X124460Y-56515
X148590Y-48895
X96520Y-53975
X170180Y-56515
X173990Y-85725
X157480Y-83820
X102870Y-64135
X95885Y-93345
X163830Y-69215
X171450Y-85725
X167640Y-59055
X92710Y-93345
X120650Y-74295
X99060Y-53975
X97155Y-80645
X99695Y-80645
X102235Y-80645
X104775Y-80645
X127000Y-76835
X139700Y-66675
X106045Y-88900
X170180Y-51435
X127000Y-53975
X120650Y-56515
X167640Y-61595
X170180Y-61595
X170180Y-76835
X158115Y-48895
X158115Y-51435
X158115Y-53975
X158115Y-56515
X158115Y-59055
X158115Y-61595
X158115Y-64135
X158115Y-66675
X158115Y-69215
X158115Y-71755
X158115Y-74295
X158115Y-76835
X173355Y-48895
X173355Y-51435
X173355Y-53975
X173355Y-56515
X173355Y-59055
X173355Y-61595
X173355Y-64135
X173355Y-66675
X173355Y-69215
X173355Y-71755
X173355Y-74295
X173355Y-76835
X118110Y-59055
X109220Y-83820
X167640Y-48895
X118110Y-53975
X124460Y-66675
X139700Y-76835
X146050Y-64135
X163830Y-74295
X148590Y-61595
X102870Y-53975
X120650Y-71755
X163830Y-64135
X96520Y-56515
X170180Y-59055
X96520Y-69215
X105410Y-51435
X102870Y-61595
X124460Y-71755
X161290Y-64135
X99060Y-74295
X120650Y-76835
X96520Y-59055
X106680Y-85725
X148590Y-51435
X142240Y-53975
X140335Y-80645
X142875Y-80645
X145415Y-80645
X147955Y-80645
X163830Y-53975
X163830Y-76835
X170180Y-69215
X130175Y-88900
X102870Y-51435
X146050Y-69215
X167640Y-56515
X167640Y-69215
X160020Y-85725
X135890Y-85725
X114300Y-85725
X139700Y-64135
X139700Y-48895
X135890Y-93345
X102870Y-74295
X96520Y-71755
X120650Y-59055
X118745Y-80645
X121285Y-80645
X123825Y-80645
X126365Y-80645
X161290Y-69215
X108585Y-88900
X163830Y-51435
X146050Y-56515
X148590Y-66675
X99060Y-69215
X102870Y-71755
X128270Y-83820
X163830Y-59055
X161290Y-56515
X102870Y-56515
X139700Y-69215
X136525Y-48895
X136525Y-51435
X136525Y-53975
X136525Y-56515
X136525Y-59055
X136525Y-61595
X136525Y-64135
X136525Y-66675
X136525Y-69215
X136525Y-71755
X136525Y-74295
X136525Y-76835
X151765Y-48895
X151765Y-51435
X151765Y-53975
X151765Y-56515
X151765Y-59055
X151765Y-61595
X151765Y-64135
X151765Y-66675
X151765Y-69215
X151765Y-71755
X151765Y-74295
X151765Y-76835
X152400Y-85725
X96520Y-48895
X96520Y-66675
X124460Y-53975
X142240Y-69215
X124460Y-76835
X114935Y-48895
X114935Y-51435
X114935Y-53975
X114935Y-56515
X114935Y-59055
X114935Y-61595
X114935Y-64135
X114935Y-66675
X114935Y-69215
X114935Y-71755
X114935Y-74295
X114935Y-76835
X130175Y-48895
X130175Y-51435
X130175Y-53975
X130175Y-56515
X130175Y-59055
X130175Y-61595
X130175Y-64135
X130175Y-66675
X130175Y-69215
X130175Y-71755
X130175Y-74295
X130175Y-76835
X120650Y-51435
X124460Y-64135
X161290Y-51435
X92710Y-85725
X139065Y-93345
X142240Y-48895
X148590Y-59055
X116840Y-85725
X127000Y-59055
X130810Y-83820
X127000Y-61595
X167640Y-64135
X157480Y-93345
X139700Y-51435
X128270Y-85725
X99060Y-71755
X161290Y-76835
X105410Y-59055
X135890Y-83820
X146050Y-51435
X127000Y-66675
X124460Y-61595
T3
X140970Y-84455
X147470Y-84455
X119380Y-84455
X125880Y-84455
X162560Y-84455
X169060Y-84455
X97790Y-84455
X104290Y-84455
T4
X145755Y-90130
X152755Y-90130
X135535Y-91880
X142535Y-91880
X167345Y-90130
X174345Y-90130
X157125Y-91880
X164125Y-91880
X124165Y-90130
X131165Y-90130
X92355Y-91880
X99355Y-91880
X113945Y-91880
X120945Y-91880
X102575Y-90130
X109575Y-90130
T5
X130175Y-97155
X151765Y-80645
X151765Y-97155
X173355Y-97155
X108585Y-97155
X114935Y-97155
X130175Y-80645
X136525Y-97155
X108585Y-80645
X136525Y-80645
X173355Y-80645
X158115Y-97155
X93345Y-97155
X93345Y-80645
X114935Y-80645
X158115Y-80645
T2
X115495Y-88030G85X115995Y-88030
G05
X118495Y-88030G85X118995Y-88030
G05
X122495Y-88030G85X122995Y-88030
G05
X123995Y-92230G85X124495Y-92230
G05
X99525Y-89780G85X99025Y-89780
G05
X101025Y-93980G85X100525Y-93980
G05
X105025Y-93980G85X104525Y-93980
G05
X108025Y-93980G85X107525Y-93980
G05
X142705Y-89780G85X142205Y-89780
G05
X144205Y-93980G85X143705Y-93980
G05
X148205Y-93980G85X147705Y-93980
G05
X151205Y-93980G85X150705Y-93980
G05
X137085Y-88030G85X137585Y-88030
G05
X140085Y-88030G85X140585Y-88030
G05
X144085Y-88030G85X144585Y-88030
G05
X145585Y-92230G85X146085Y-92230
G05
X164295Y-89780G85X163795Y-89780
G05
X165795Y-93980G85X165295Y-93980
G05
X169795Y-93980G85X169295Y-93980
G05
X172795Y-93980G85X172295Y-93980
G05
X158675Y-88030G85X159175Y-88030
G05
X161675Y-88030G85X162175Y-88030
G05
X165675Y-88030G85X166175Y-88030
G05
X167175Y-92230G85X167675Y-92230
G05
X121115Y-89780G85X120615Y-89780
G05
X122615Y-93980G85X122115Y-93980
G05
X126615Y-93980G85X126115Y-93980
G05
X129615Y-93980G85X129115Y-93980
G05
X93905Y-88030G85X94405Y-88030
G05
X96905Y-88030G85X97405Y-88030
G05
X100905Y-88030G85X101405Y-88030
G05
X102405Y-92230G85X102905Y-92230
G05
T0
M30
