G04 #@! TF.FileFunction,Legend,Top*
%FSLAX46Y46*%
G04 Gerber Fmt 4.6, Leading zero omitted, Abs format (unit mm)*
G04 Created by KiCad (PCBNEW 4.0.7-e2-6376~61~ubuntu18.04.1) date Sat Jul 28 03:14:20 2018*
%MOMM*%
%LPD*%
G01*
G04 APERTURE LIST*
%ADD10C,0.150000*%
%ADD11C,0.200000*%
G04 APERTURE END LIST*
D10*
D11*
X160414286Y-97005714D02*
X160585715Y-97062857D01*
X160871429Y-97062857D01*
X160985715Y-97005714D01*
X161042858Y-96948571D01*
X161100001Y-96834286D01*
X161100001Y-96720000D01*
X161042858Y-96605714D01*
X160985715Y-96548571D01*
X160871429Y-96491429D01*
X160642858Y-96434286D01*
X160528572Y-96377143D01*
X160471429Y-96320000D01*
X160414286Y-96205714D01*
X160414286Y-96091429D01*
X160471429Y-95977143D01*
X160528572Y-95920000D01*
X160642858Y-95862857D01*
X160928572Y-95862857D01*
X161100001Y-95920000D01*
X161500001Y-96262857D02*
X161728572Y-97062857D01*
X161957143Y-96491429D01*
X162185715Y-97062857D01*
X162414286Y-96262857D01*
X163385715Y-97062857D02*
X163385715Y-96434286D01*
X163328572Y-96320000D01*
X163214286Y-96262857D01*
X162985715Y-96262857D01*
X162871429Y-96320000D01*
X163385715Y-97005714D02*
X163271429Y-97062857D01*
X162985715Y-97062857D01*
X162871429Y-97005714D01*
X162814286Y-96891429D01*
X162814286Y-96777143D01*
X162871429Y-96662857D01*
X162985715Y-96605714D01*
X163271429Y-96605714D01*
X163385715Y-96548571D01*
X163957143Y-96262857D02*
X163957143Y-97062857D01*
X163957143Y-96377143D02*
X164014286Y-96320000D01*
X164128572Y-96262857D01*
X164300000Y-96262857D01*
X164414286Y-96320000D01*
X164471429Y-96434286D01*
X164471429Y-97062857D01*
X165042857Y-97062857D02*
X165042857Y-95862857D01*
X165442857Y-96720000D01*
X165842857Y-95862857D01*
X165842857Y-97062857D01*
X166928572Y-97062857D02*
X166928572Y-96434286D01*
X166871429Y-96320000D01*
X166757143Y-96262857D01*
X166528572Y-96262857D01*
X166414286Y-96320000D01*
X166928572Y-97005714D02*
X166814286Y-97062857D01*
X166528572Y-97062857D01*
X166414286Y-97005714D01*
X166357143Y-96891429D01*
X166357143Y-96777143D01*
X166414286Y-96662857D01*
X166528572Y-96605714D01*
X166814286Y-96605714D01*
X166928572Y-96548571D01*
X167328572Y-96262857D02*
X167785715Y-96262857D01*
X167500000Y-95862857D02*
X167500000Y-96891429D01*
X167557143Y-97005714D01*
X167671429Y-97062857D01*
X167785715Y-97062857D01*
X168700000Y-97005714D02*
X168585714Y-97062857D01*
X168357143Y-97062857D01*
X168242857Y-97005714D01*
X168185714Y-96948571D01*
X168128571Y-96834286D01*
X168128571Y-96491429D01*
X168185714Y-96377143D01*
X168242857Y-96320000D01*
X168357143Y-96262857D01*
X168585714Y-96262857D01*
X168700000Y-96320000D01*
X169214285Y-97062857D02*
X169214285Y-95862857D01*
X169728571Y-97062857D02*
X169728571Y-96434286D01*
X169671428Y-96320000D01*
X169557142Y-96262857D01*
X169385714Y-96262857D01*
X169271428Y-96320000D01*
X169214285Y-96377143D01*
X170815000Y-78740000D02*
X160655000Y-78740000D01*
X170815000Y-81280000D02*
X170815000Y-78740000D01*
X160655000Y-81280000D02*
X170815000Y-81280000D01*
X160655000Y-78740000D02*
X160655000Y-81280000D01*
X169999200Y-119215000D02*
X169999200Y-120815000D01*
X166499200Y-119215000D02*
X169999200Y-119215000D01*
X166499200Y-120815000D02*
X166499200Y-119215000D01*
X169999200Y-120815000D02*
X166499200Y-120815000D01*
X166999840Y-120815000D02*
X166999840Y-119215000D01*
X169999200Y-120015000D02*
X170399200Y-120015000D01*
X166499200Y-120015000D02*
X166099200Y-120015000D01*
X169999200Y-100800000D02*
X169999200Y-102400000D01*
X166499200Y-100800000D02*
X169999200Y-100800000D01*
X166499200Y-102400000D02*
X166499200Y-100800000D01*
X169999200Y-102400000D02*
X166499200Y-102400000D01*
X166999840Y-102400000D02*
X166999840Y-100800000D01*
X169999200Y-101600000D02*
X170399200Y-101600000D01*
X166499200Y-101600000D02*
X166099200Y-101600000D01*
D10*
X167105000Y-115592500D02*
G75*
G03X167105000Y-115592500I-250000J0D01*
G01*
X157965000Y-102720000D02*
X170965000Y-102720000D01*
X170965000Y-102720000D02*
X170965000Y-115720000D01*
X170965000Y-115720000D02*
X157965000Y-115720000D01*
X157965000Y-115720000D02*
X157965000Y-102720000D01*
X167105000Y-134007500D02*
G75*
G03X167105000Y-134007500I-250000J0D01*
G01*
X157965000Y-121135000D02*
X170965000Y-121135000D01*
X170965000Y-121135000D02*
X170965000Y-134135000D01*
X170965000Y-134135000D02*
X157965000Y-134135000D01*
X157965000Y-134135000D02*
X157965000Y-121135000D01*
D11*
X151584200Y-119215000D02*
X151584200Y-120815000D01*
X148084200Y-119215000D02*
X151584200Y-119215000D01*
X148084200Y-120815000D02*
X148084200Y-119215000D01*
X151584200Y-120815000D02*
X148084200Y-120815000D01*
X148584840Y-120815000D02*
X148584840Y-119215000D01*
X151584200Y-120015000D02*
X151984200Y-120015000D01*
X148084200Y-120015000D02*
X147684200Y-120015000D01*
X133169200Y-119215000D02*
X133169200Y-120815000D01*
X129669200Y-119215000D02*
X133169200Y-119215000D01*
X129669200Y-120815000D02*
X129669200Y-119215000D01*
X133169200Y-120815000D02*
X129669200Y-120815000D01*
X130169840Y-120815000D02*
X130169840Y-119215000D01*
X133169200Y-120015000D02*
X133569200Y-120015000D01*
X129669200Y-120015000D02*
X129269200Y-120015000D01*
X114754200Y-119215000D02*
X114754200Y-120815000D01*
X111254200Y-119215000D02*
X114754200Y-119215000D01*
X111254200Y-120815000D02*
X111254200Y-119215000D01*
X114754200Y-120815000D02*
X111254200Y-120815000D01*
X111754840Y-120815000D02*
X111754840Y-119215000D01*
X114754200Y-120015000D02*
X115154200Y-120015000D01*
X111254200Y-120015000D02*
X110854200Y-120015000D01*
X96339200Y-119215000D02*
X96339200Y-120815000D01*
X92839200Y-119215000D02*
X96339200Y-119215000D01*
X92839200Y-120815000D02*
X92839200Y-119215000D01*
X96339200Y-120815000D02*
X92839200Y-120815000D01*
X93339840Y-120815000D02*
X93339840Y-119215000D01*
X96339200Y-120015000D02*
X96739200Y-120015000D01*
X92839200Y-120015000D02*
X92439200Y-120015000D01*
X151584200Y-100800000D02*
X151584200Y-102400000D01*
X148084200Y-100800000D02*
X151584200Y-100800000D01*
X148084200Y-102400000D02*
X148084200Y-100800000D01*
X151584200Y-102400000D02*
X148084200Y-102400000D01*
X148584840Y-102400000D02*
X148584840Y-100800000D01*
X151584200Y-101600000D02*
X151984200Y-101600000D01*
X148084200Y-101600000D02*
X147684200Y-101600000D01*
X133169200Y-100800000D02*
X133169200Y-102400000D01*
X129669200Y-100800000D02*
X133169200Y-100800000D01*
X129669200Y-102400000D02*
X129669200Y-100800000D01*
X133169200Y-102400000D02*
X129669200Y-102400000D01*
X130169840Y-102400000D02*
X130169840Y-100800000D01*
X133169200Y-101600000D02*
X133569200Y-101600000D01*
X129669200Y-101600000D02*
X129269200Y-101600000D01*
X114754200Y-100800000D02*
X114754200Y-102400000D01*
X111254200Y-100800000D02*
X114754200Y-100800000D01*
X111254200Y-102400000D02*
X111254200Y-100800000D01*
X114754200Y-102400000D02*
X111254200Y-102400000D01*
X111754840Y-102400000D02*
X111754840Y-100800000D01*
X114754200Y-101600000D02*
X115154200Y-101600000D01*
X111254200Y-101600000D02*
X110854200Y-101600000D01*
X96339200Y-100800000D02*
X96339200Y-102400000D01*
X92839200Y-100800000D02*
X96339200Y-100800000D01*
X92839200Y-102400000D02*
X92839200Y-100800000D01*
X96339200Y-102400000D02*
X92839200Y-102400000D01*
X93339840Y-102400000D02*
X93339840Y-100800000D01*
X96339200Y-101600000D02*
X96739200Y-101600000D01*
X92839200Y-101600000D02*
X92439200Y-101600000D01*
X151584200Y-82385000D02*
X151584200Y-83985000D01*
X148084200Y-82385000D02*
X151584200Y-82385000D01*
X148084200Y-83985000D02*
X148084200Y-82385000D01*
X151584200Y-83985000D02*
X148084200Y-83985000D01*
X148584840Y-83985000D02*
X148584840Y-82385000D01*
X151584200Y-83185000D02*
X151984200Y-83185000D01*
X148084200Y-83185000D02*
X147684200Y-83185000D01*
X133169200Y-82385000D02*
X133169200Y-83985000D01*
X129669200Y-82385000D02*
X133169200Y-82385000D01*
X129669200Y-83985000D02*
X129669200Y-82385000D01*
X133169200Y-83985000D02*
X129669200Y-83985000D01*
X130169840Y-83985000D02*
X130169840Y-82385000D01*
X133169200Y-83185000D02*
X133569200Y-83185000D01*
X129669200Y-83185000D02*
X129269200Y-83185000D01*
X114754200Y-82385000D02*
X114754200Y-83985000D01*
X111254200Y-82385000D02*
X114754200Y-82385000D01*
X111254200Y-83985000D02*
X111254200Y-82385000D01*
X114754200Y-83985000D02*
X111254200Y-83985000D01*
X111754840Y-83985000D02*
X111754840Y-82385000D01*
X114754200Y-83185000D02*
X115154200Y-83185000D01*
X111254200Y-83185000D02*
X110854200Y-83185000D01*
X96339200Y-82385000D02*
X96339200Y-83985000D01*
X92839200Y-82385000D02*
X96339200Y-82385000D01*
X92839200Y-83985000D02*
X92839200Y-82385000D01*
X96339200Y-83985000D02*
X92839200Y-83985000D01*
X93339840Y-83985000D02*
X93339840Y-82385000D01*
X96339200Y-83185000D02*
X96739200Y-83185000D01*
X92839200Y-83185000D02*
X92439200Y-83185000D01*
X151584200Y-63970000D02*
X151584200Y-65570000D01*
X148084200Y-63970000D02*
X151584200Y-63970000D01*
X148084200Y-65570000D02*
X148084200Y-63970000D01*
X151584200Y-65570000D02*
X148084200Y-65570000D01*
X148584840Y-65570000D02*
X148584840Y-63970000D01*
X151584200Y-64770000D02*
X151984200Y-64770000D01*
X148084200Y-64770000D02*
X147684200Y-64770000D01*
X133169200Y-63970000D02*
X133169200Y-65570000D01*
X129669200Y-63970000D02*
X133169200Y-63970000D01*
X129669200Y-65570000D02*
X129669200Y-63970000D01*
X133169200Y-65570000D02*
X129669200Y-65570000D01*
X130169840Y-65570000D02*
X130169840Y-63970000D01*
X133169200Y-64770000D02*
X133569200Y-64770000D01*
X129669200Y-64770000D02*
X129269200Y-64770000D01*
X114754200Y-63970000D02*
X114754200Y-65570000D01*
X111254200Y-63970000D02*
X114754200Y-63970000D01*
X111254200Y-65570000D02*
X111254200Y-63970000D01*
X114754200Y-65570000D02*
X111254200Y-65570000D01*
X111754840Y-65570000D02*
X111754840Y-63970000D01*
X114754200Y-64770000D02*
X115154200Y-64770000D01*
X111254200Y-64770000D02*
X110854200Y-64770000D01*
X96339200Y-63970000D02*
X96339200Y-65570000D01*
X92839200Y-63970000D02*
X96339200Y-63970000D01*
X92839200Y-65570000D02*
X92839200Y-63970000D01*
X96339200Y-65570000D02*
X92839200Y-65570000D01*
X93339840Y-65570000D02*
X93339840Y-63970000D01*
X96339200Y-64770000D02*
X96739200Y-64770000D01*
X92839200Y-64770000D02*
X92439200Y-64770000D01*
X151584200Y-45555000D02*
X151584200Y-47155000D01*
X148084200Y-45555000D02*
X151584200Y-45555000D01*
X148084200Y-47155000D02*
X148084200Y-45555000D01*
X151584200Y-47155000D02*
X148084200Y-47155000D01*
X148584840Y-47155000D02*
X148584840Y-45555000D01*
X151584200Y-46355000D02*
X151984200Y-46355000D01*
X148084200Y-46355000D02*
X147684200Y-46355000D01*
X133169200Y-45555000D02*
X133169200Y-47155000D01*
X129669200Y-45555000D02*
X133169200Y-45555000D01*
X129669200Y-47155000D02*
X129669200Y-45555000D01*
X133169200Y-47155000D02*
X129669200Y-47155000D01*
X130169840Y-47155000D02*
X130169840Y-45555000D01*
X133169200Y-46355000D02*
X133569200Y-46355000D01*
X129669200Y-46355000D02*
X129269200Y-46355000D01*
X114754200Y-45555000D02*
X114754200Y-47155000D01*
X111254200Y-45555000D02*
X114754200Y-45555000D01*
X111254200Y-47155000D02*
X111254200Y-45555000D01*
X114754200Y-47155000D02*
X111254200Y-47155000D01*
X111754840Y-47155000D02*
X111754840Y-45555000D01*
X114754200Y-46355000D02*
X115154200Y-46355000D01*
X111254200Y-46355000D02*
X110854200Y-46355000D01*
D10*
X148690000Y-134007500D02*
G75*
G03X148690000Y-134007500I-250000J0D01*
G01*
X130275000Y-134007500D02*
G75*
G03X130275000Y-134007500I-250000J0D01*
G01*
X111860000Y-134007500D02*
G75*
G03X111860000Y-134007500I-250000J0D01*
G01*
X93445000Y-134007500D02*
G75*
G03X93445000Y-134007500I-250000J0D01*
G01*
X148690000Y-115592500D02*
G75*
G03X148690000Y-115592500I-250000J0D01*
G01*
X130275000Y-115592500D02*
G75*
G03X130275000Y-115592500I-250000J0D01*
G01*
X111860000Y-115592500D02*
G75*
G03X111860000Y-115592500I-250000J0D01*
G01*
X93445000Y-115592500D02*
G75*
G03X93445000Y-115592500I-250000J0D01*
G01*
X148690000Y-97177500D02*
G75*
G03X148690000Y-97177500I-250000J0D01*
G01*
X130275000Y-97177500D02*
G75*
G03X130275000Y-97177500I-250000J0D01*
G01*
X111860000Y-97177500D02*
G75*
G03X111860000Y-97177500I-250000J0D01*
G01*
X93445000Y-97177500D02*
G75*
G03X93445000Y-97177500I-250000J0D01*
G01*
X148690000Y-78762500D02*
G75*
G03X148690000Y-78762500I-250000J0D01*
G01*
X130275000Y-78762500D02*
G75*
G03X130275000Y-78762500I-250000J0D01*
G01*
X111860000Y-78762500D02*
G75*
G03X111860000Y-78762500I-250000J0D01*
G01*
X93445000Y-78762500D02*
G75*
G03X93445000Y-78762500I-250000J0D01*
G01*
X148690000Y-60347500D02*
G75*
G03X148690000Y-60347500I-250000J0D01*
G01*
X130275000Y-60347500D02*
G75*
G03X130275000Y-60347500I-250000J0D01*
G01*
X111860000Y-60347500D02*
G75*
G03X111860000Y-60347500I-250000J0D01*
G01*
X139550000Y-121135000D02*
X152550000Y-121135000D01*
X152550000Y-121135000D02*
X152550000Y-134135000D01*
X152550000Y-134135000D02*
X139550000Y-134135000D01*
X139550000Y-134135000D02*
X139550000Y-121135000D01*
X121135000Y-121135000D02*
X134135000Y-121135000D01*
X134135000Y-121135000D02*
X134135000Y-134135000D01*
X134135000Y-134135000D02*
X121135000Y-134135000D01*
X121135000Y-134135000D02*
X121135000Y-121135000D01*
X102720000Y-121135000D02*
X115720000Y-121135000D01*
X115720000Y-121135000D02*
X115720000Y-134135000D01*
X115720000Y-134135000D02*
X102720000Y-134135000D01*
X102720000Y-134135000D02*
X102720000Y-121135000D01*
X84305000Y-121135000D02*
X97305000Y-121135000D01*
X97305000Y-121135000D02*
X97305000Y-134135000D01*
X97305000Y-134135000D02*
X84305000Y-134135000D01*
X84305000Y-134135000D02*
X84305000Y-121135000D01*
X139550000Y-102720000D02*
X152550000Y-102720000D01*
X152550000Y-102720000D02*
X152550000Y-115720000D01*
X152550000Y-115720000D02*
X139550000Y-115720000D01*
X139550000Y-115720000D02*
X139550000Y-102720000D01*
X121135000Y-102720000D02*
X134135000Y-102720000D01*
X134135000Y-102720000D02*
X134135000Y-115720000D01*
X134135000Y-115720000D02*
X121135000Y-115720000D01*
X121135000Y-115720000D02*
X121135000Y-102720000D01*
X102720000Y-102720000D02*
X115720000Y-102720000D01*
X115720000Y-102720000D02*
X115720000Y-115720000D01*
X115720000Y-115720000D02*
X102720000Y-115720000D01*
X102720000Y-115720000D02*
X102720000Y-102720000D01*
X84305000Y-102720000D02*
X97305000Y-102720000D01*
X97305000Y-102720000D02*
X97305000Y-115720000D01*
X97305000Y-115720000D02*
X84305000Y-115720000D01*
X84305000Y-115720000D02*
X84305000Y-102720000D01*
X139550000Y-84305000D02*
X152550000Y-84305000D01*
X152550000Y-84305000D02*
X152550000Y-97305000D01*
X152550000Y-97305000D02*
X139550000Y-97305000D01*
X139550000Y-97305000D02*
X139550000Y-84305000D01*
X121135000Y-84305000D02*
X134135000Y-84305000D01*
X134135000Y-84305000D02*
X134135000Y-97305000D01*
X134135000Y-97305000D02*
X121135000Y-97305000D01*
X121135000Y-97305000D02*
X121135000Y-84305000D01*
X102720000Y-84305000D02*
X115720000Y-84305000D01*
X115720000Y-84305000D02*
X115720000Y-97305000D01*
X115720000Y-97305000D02*
X102720000Y-97305000D01*
X102720000Y-97305000D02*
X102720000Y-84305000D01*
X84305000Y-84305000D02*
X97305000Y-84305000D01*
X97305000Y-84305000D02*
X97305000Y-97305000D01*
X97305000Y-97305000D02*
X84305000Y-97305000D01*
X84305000Y-97305000D02*
X84305000Y-84305000D01*
X139550000Y-65890000D02*
X152550000Y-65890000D01*
X152550000Y-65890000D02*
X152550000Y-78890000D01*
X152550000Y-78890000D02*
X139550000Y-78890000D01*
X139550000Y-78890000D02*
X139550000Y-65890000D01*
X121135000Y-65890000D02*
X134135000Y-65890000D01*
X134135000Y-65890000D02*
X134135000Y-78890000D01*
X134135000Y-78890000D02*
X121135000Y-78890000D01*
X121135000Y-78890000D02*
X121135000Y-65890000D01*
X102720000Y-65890000D02*
X115720000Y-65890000D01*
X115720000Y-65890000D02*
X115720000Y-78890000D01*
X115720000Y-78890000D02*
X102720000Y-78890000D01*
X102720000Y-78890000D02*
X102720000Y-65890000D01*
X84305000Y-65890000D02*
X97305000Y-65890000D01*
X97305000Y-65890000D02*
X97305000Y-78890000D01*
X97305000Y-78890000D02*
X84305000Y-78890000D01*
X84305000Y-78890000D02*
X84305000Y-65890000D01*
X139550000Y-47475000D02*
X152550000Y-47475000D01*
X152550000Y-47475000D02*
X152550000Y-60475000D01*
X152550000Y-60475000D02*
X139550000Y-60475000D01*
X139550000Y-60475000D02*
X139550000Y-47475000D01*
X121135000Y-47475000D02*
X134135000Y-47475000D01*
X134135000Y-47475000D02*
X134135000Y-60475000D01*
X134135000Y-60475000D02*
X121135000Y-60475000D01*
X121135000Y-60475000D02*
X121135000Y-47475000D01*
X102720000Y-47475000D02*
X115720000Y-47475000D01*
X115720000Y-47475000D02*
X115720000Y-60475000D01*
X115720000Y-60475000D02*
X102720000Y-60475000D01*
X102720000Y-60475000D02*
X102720000Y-47475000D01*
X155625000Y-92495000D02*
X155625000Y-86495000D01*
X155625000Y-86495000D02*
X167625000Y-86495000D01*
X167625000Y-86495000D02*
X167625000Y-92495000D01*
X167625000Y-92495000D02*
X155625000Y-92495000D01*
X160655000Y-81280000D02*
X170815000Y-81280000D01*
X160655000Y-78740000D02*
X170815000Y-78740000D01*
X170815000Y-78740000D02*
X170815000Y-81280000D01*
X160655000Y-81280000D02*
X160655000Y-78740000D01*
X159385000Y-47625000D02*
X156845000Y-47625000D01*
X156845000Y-47625000D02*
X156845000Y-78105000D01*
X156845000Y-78105000D02*
X159385000Y-78105000D01*
X159385000Y-78105000D02*
X159385000Y-47625000D01*
X174625000Y-47625000D02*
X172085000Y-47625000D01*
X172085000Y-47625000D02*
X172085000Y-78105000D01*
X172085000Y-78105000D02*
X174625000Y-78105000D01*
X174625000Y-78105000D02*
X174625000Y-47625000D01*
X175845000Y-88245000D02*
X175845000Y-94245000D01*
X175845000Y-94245000D02*
X163845000Y-94245000D01*
X163845000Y-94245000D02*
X163845000Y-88245000D01*
X163845000Y-88245000D02*
X175845000Y-88245000D01*
X162810000Y-85570000D02*
X168810000Y-85570000D01*
X168810000Y-85570000D02*
X168810000Y-85320000D01*
X162810000Y-85570000D02*
X162810000Y-85320000D01*
X162810000Y-82070000D02*
X162810000Y-82320000D01*
X162810000Y-82070000D02*
X168810000Y-82070000D01*
X168810000Y-82070000D02*
X168810000Y-82320000D01*
X84305000Y-47475000D02*
X97305000Y-47475000D01*
X97305000Y-47475000D02*
X97305000Y-60475000D01*
X97305000Y-60475000D02*
X84305000Y-60475000D01*
X84305000Y-60475000D02*
X84305000Y-47475000D01*
D11*
X96339200Y-45555000D02*
X96339200Y-47155000D01*
X92839200Y-45555000D02*
X96339200Y-45555000D01*
X92839200Y-47155000D02*
X92839200Y-45555000D01*
X96339200Y-47155000D02*
X92839200Y-47155000D01*
X93339840Y-47155000D02*
X93339840Y-45555000D01*
X96339200Y-46355000D02*
X96739200Y-46355000D01*
X92839200Y-46355000D02*
X92439200Y-46355000D01*
D10*
X93445000Y-60347500D02*
G75*
G03X93445000Y-60347500I-250000J0D01*
G01*
D11*
X161798333Y-110982024D02*
X162084048Y-111077262D01*
X162560238Y-111077262D01*
X162750714Y-110982024D01*
X162845952Y-110886786D01*
X162941191Y-110696310D01*
X162941191Y-110505833D01*
X162845952Y-110315357D01*
X162750714Y-110220119D01*
X162560238Y-110124881D01*
X162179286Y-110029643D01*
X161988810Y-109934405D01*
X161893571Y-109839167D01*
X161798333Y-109648690D01*
X161798333Y-109458214D01*
X161893571Y-109267738D01*
X161988810Y-109172500D01*
X162179286Y-109077262D01*
X162655476Y-109077262D01*
X162941191Y-109172500D01*
X163607857Y-109077262D02*
X164084048Y-111077262D01*
X164465000Y-109648690D01*
X164845953Y-111077262D01*
X165322143Y-109077262D01*
X167131667Y-111077262D02*
X165988809Y-111077262D01*
X166560238Y-111077262D02*
X166560238Y-109077262D01*
X166369762Y-109362976D01*
X166179286Y-109553452D01*
X165988809Y-109648690D01*
X161798333Y-129397024D02*
X162084048Y-129492262D01*
X162560238Y-129492262D01*
X162750714Y-129397024D01*
X162845952Y-129301786D01*
X162941191Y-129111310D01*
X162941191Y-128920833D01*
X162845952Y-128730357D01*
X162750714Y-128635119D01*
X162560238Y-128539881D01*
X162179286Y-128444643D01*
X161988810Y-128349405D01*
X161893571Y-128254167D01*
X161798333Y-128063690D01*
X161798333Y-127873214D01*
X161893571Y-127682738D01*
X161988810Y-127587500D01*
X162179286Y-127492262D01*
X162655476Y-127492262D01*
X162941191Y-127587500D01*
X163607857Y-127492262D02*
X164084048Y-129492262D01*
X164465000Y-128063690D01*
X164845953Y-129492262D01*
X165322143Y-127492262D01*
X167131667Y-129492262D02*
X165988809Y-129492262D01*
X166560238Y-129492262D02*
X166560238Y-127492262D01*
X166369762Y-127777976D01*
X166179286Y-127968452D01*
X165988809Y-128063690D01*
X143383333Y-129397024D02*
X143669048Y-129492262D01*
X144145238Y-129492262D01*
X144335714Y-129397024D01*
X144430952Y-129301786D01*
X144526191Y-129111310D01*
X144526191Y-128920833D01*
X144430952Y-128730357D01*
X144335714Y-128635119D01*
X144145238Y-128539881D01*
X143764286Y-128444643D01*
X143573810Y-128349405D01*
X143478571Y-128254167D01*
X143383333Y-128063690D01*
X143383333Y-127873214D01*
X143478571Y-127682738D01*
X143573810Y-127587500D01*
X143764286Y-127492262D01*
X144240476Y-127492262D01*
X144526191Y-127587500D01*
X145192857Y-127492262D02*
X145669048Y-129492262D01*
X146050000Y-128063690D01*
X146430953Y-129492262D01*
X146907143Y-127492262D01*
X148716667Y-129492262D02*
X147573809Y-129492262D01*
X148145238Y-129492262D02*
X148145238Y-127492262D01*
X147954762Y-127777976D01*
X147764286Y-127968452D01*
X147573809Y-128063690D01*
X124968333Y-129397024D02*
X125254048Y-129492262D01*
X125730238Y-129492262D01*
X125920714Y-129397024D01*
X126015952Y-129301786D01*
X126111191Y-129111310D01*
X126111191Y-128920833D01*
X126015952Y-128730357D01*
X125920714Y-128635119D01*
X125730238Y-128539881D01*
X125349286Y-128444643D01*
X125158810Y-128349405D01*
X125063571Y-128254167D01*
X124968333Y-128063690D01*
X124968333Y-127873214D01*
X125063571Y-127682738D01*
X125158810Y-127587500D01*
X125349286Y-127492262D01*
X125825476Y-127492262D01*
X126111191Y-127587500D01*
X126777857Y-127492262D02*
X127254048Y-129492262D01*
X127635000Y-128063690D01*
X128015953Y-129492262D01*
X128492143Y-127492262D01*
X130301667Y-129492262D02*
X129158809Y-129492262D01*
X129730238Y-129492262D02*
X129730238Y-127492262D01*
X129539762Y-127777976D01*
X129349286Y-127968452D01*
X129158809Y-128063690D01*
X106553333Y-129397024D02*
X106839048Y-129492262D01*
X107315238Y-129492262D01*
X107505714Y-129397024D01*
X107600952Y-129301786D01*
X107696191Y-129111310D01*
X107696191Y-128920833D01*
X107600952Y-128730357D01*
X107505714Y-128635119D01*
X107315238Y-128539881D01*
X106934286Y-128444643D01*
X106743810Y-128349405D01*
X106648571Y-128254167D01*
X106553333Y-128063690D01*
X106553333Y-127873214D01*
X106648571Y-127682738D01*
X106743810Y-127587500D01*
X106934286Y-127492262D01*
X107410476Y-127492262D01*
X107696191Y-127587500D01*
X108362857Y-127492262D02*
X108839048Y-129492262D01*
X109220000Y-128063690D01*
X109600953Y-129492262D01*
X110077143Y-127492262D01*
X111886667Y-129492262D02*
X110743809Y-129492262D01*
X111315238Y-129492262D02*
X111315238Y-127492262D01*
X111124762Y-127777976D01*
X110934286Y-127968452D01*
X110743809Y-128063690D01*
X88138333Y-129397024D02*
X88424048Y-129492262D01*
X88900238Y-129492262D01*
X89090714Y-129397024D01*
X89185952Y-129301786D01*
X89281191Y-129111310D01*
X89281191Y-128920833D01*
X89185952Y-128730357D01*
X89090714Y-128635119D01*
X88900238Y-128539881D01*
X88519286Y-128444643D01*
X88328810Y-128349405D01*
X88233571Y-128254167D01*
X88138333Y-128063690D01*
X88138333Y-127873214D01*
X88233571Y-127682738D01*
X88328810Y-127587500D01*
X88519286Y-127492262D01*
X88995476Y-127492262D01*
X89281191Y-127587500D01*
X89947857Y-127492262D02*
X90424048Y-129492262D01*
X90805000Y-128063690D01*
X91185953Y-129492262D01*
X91662143Y-127492262D01*
X93471667Y-129492262D02*
X92328809Y-129492262D01*
X92900238Y-129492262D02*
X92900238Y-127492262D01*
X92709762Y-127777976D01*
X92519286Y-127968452D01*
X92328809Y-128063690D01*
X143383333Y-110982024D02*
X143669048Y-111077262D01*
X144145238Y-111077262D01*
X144335714Y-110982024D01*
X144430952Y-110886786D01*
X144526191Y-110696310D01*
X144526191Y-110505833D01*
X144430952Y-110315357D01*
X144335714Y-110220119D01*
X144145238Y-110124881D01*
X143764286Y-110029643D01*
X143573810Y-109934405D01*
X143478571Y-109839167D01*
X143383333Y-109648690D01*
X143383333Y-109458214D01*
X143478571Y-109267738D01*
X143573810Y-109172500D01*
X143764286Y-109077262D01*
X144240476Y-109077262D01*
X144526191Y-109172500D01*
X145192857Y-109077262D02*
X145669048Y-111077262D01*
X146050000Y-109648690D01*
X146430953Y-111077262D01*
X146907143Y-109077262D01*
X148716667Y-111077262D02*
X147573809Y-111077262D01*
X148145238Y-111077262D02*
X148145238Y-109077262D01*
X147954762Y-109362976D01*
X147764286Y-109553452D01*
X147573809Y-109648690D01*
X124968333Y-110982024D02*
X125254048Y-111077262D01*
X125730238Y-111077262D01*
X125920714Y-110982024D01*
X126015952Y-110886786D01*
X126111191Y-110696310D01*
X126111191Y-110505833D01*
X126015952Y-110315357D01*
X125920714Y-110220119D01*
X125730238Y-110124881D01*
X125349286Y-110029643D01*
X125158810Y-109934405D01*
X125063571Y-109839167D01*
X124968333Y-109648690D01*
X124968333Y-109458214D01*
X125063571Y-109267738D01*
X125158810Y-109172500D01*
X125349286Y-109077262D01*
X125825476Y-109077262D01*
X126111191Y-109172500D01*
X126777857Y-109077262D02*
X127254048Y-111077262D01*
X127635000Y-109648690D01*
X128015953Y-111077262D01*
X128492143Y-109077262D01*
X130301667Y-111077262D02*
X129158809Y-111077262D01*
X129730238Y-111077262D02*
X129730238Y-109077262D01*
X129539762Y-109362976D01*
X129349286Y-109553452D01*
X129158809Y-109648690D01*
X106553333Y-110982024D02*
X106839048Y-111077262D01*
X107315238Y-111077262D01*
X107505714Y-110982024D01*
X107600952Y-110886786D01*
X107696191Y-110696310D01*
X107696191Y-110505833D01*
X107600952Y-110315357D01*
X107505714Y-110220119D01*
X107315238Y-110124881D01*
X106934286Y-110029643D01*
X106743810Y-109934405D01*
X106648571Y-109839167D01*
X106553333Y-109648690D01*
X106553333Y-109458214D01*
X106648571Y-109267738D01*
X106743810Y-109172500D01*
X106934286Y-109077262D01*
X107410476Y-109077262D01*
X107696191Y-109172500D01*
X108362857Y-109077262D02*
X108839048Y-111077262D01*
X109220000Y-109648690D01*
X109600953Y-111077262D01*
X110077143Y-109077262D01*
X111886667Y-111077262D02*
X110743809Y-111077262D01*
X111315238Y-111077262D02*
X111315238Y-109077262D01*
X111124762Y-109362976D01*
X110934286Y-109553452D01*
X110743809Y-109648690D01*
X88138333Y-110982024D02*
X88424048Y-111077262D01*
X88900238Y-111077262D01*
X89090714Y-110982024D01*
X89185952Y-110886786D01*
X89281191Y-110696310D01*
X89281191Y-110505833D01*
X89185952Y-110315357D01*
X89090714Y-110220119D01*
X88900238Y-110124881D01*
X88519286Y-110029643D01*
X88328810Y-109934405D01*
X88233571Y-109839167D01*
X88138333Y-109648690D01*
X88138333Y-109458214D01*
X88233571Y-109267738D01*
X88328810Y-109172500D01*
X88519286Y-109077262D01*
X88995476Y-109077262D01*
X89281191Y-109172500D01*
X89947857Y-109077262D02*
X90424048Y-111077262D01*
X90805000Y-109648690D01*
X91185953Y-111077262D01*
X91662143Y-109077262D01*
X93471667Y-111077262D02*
X92328809Y-111077262D01*
X92900238Y-111077262D02*
X92900238Y-109077262D01*
X92709762Y-109362976D01*
X92519286Y-109553452D01*
X92328809Y-109648690D01*
X143383333Y-92567024D02*
X143669048Y-92662262D01*
X144145238Y-92662262D01*
X144335714Y-92567024D01*
X144430952Y-92471786D01*
X144526191Y-92281310D01*
X144526191Y-92090833D01*
X144430952Y-91900357D01*
X144335714Y-91805119D01*
X144145238Y-91709881D01*
X143764286Y-91614643D01*
X143573810Y-91519405D01*
X143478571Y-91424167D01*
X143383333Y-91233690D01*
X143383333Y-91043214D01*
X143478571Y-90852738D01*
X143573810Y-90757500D01*
X143764286Y-90662262D01*
X144240476Y-90662262D01*
X144526191Y-90757500D01*
X145192857Y-90662262D02*
X145669048Y-92662262D01*
X146050000Y-91233690D01*
X146430953Y-92662262D01*
X146907143Y-90662262D01*
X148716667Y-92662262D02*
X147573809Y-92662262D01*
X148145238Y-92662262D02*
X148145238Y-90662262D01*
X147954762Y-90947976D01*
X147764286Y-91138452D01*
X147573809Y-91233690D01*
X124968333Y-92567024D02*
X125254048Y-92662262D01*
X125730238Y-92662262D01*
X125920714Y-92567024D01*
X126015952Y-92471786D01*
X126111191Y-92281310D01*
X126111191Y-92090833D01*
X126015952Y-91900357D01*
X125920714Y-91805119D01*
X125730238Y-91709881D01*
X125349286Y-91614643D01*
X125158810Y-91519405D01*
X125063571Y-91424167D01*
X124968333Y-91233690D01*
X124968333Y-91043214D01*
X125063571Y-90852738D01*
X125158810Y-90757500D01*
X125349286Y-90662262D01*
X125825476Y-90662262D01*
X126111191Y-90757500D01*
X126777857Y-90662262D02*
X127254048Y-92662262D01*
X127635000Y-91233690D01*
X128015953Y-92662262D01*
X128492143Y-90662262D01*
X130301667Y-92662262D02*
X129158809Y-92662262D01*
X129730238Y-92662262D02*
X129730238Y-90662262D01*
X129539762Y-90947976D01*
X129349286Y-91138452D01*
X129158809Y-91233690D01*
X106553333Y-92567024D02*
X106839048Y-92662262D01*
X107315238Y-92662262D01*
X107505714Y-92567024D01*
X107600952Y-92471786D01*
X107696191Y-92281310D01*
X107696191Y-92090833D01*
X107600952Y-91900357D01*
X107505714Y-91805119D01*
X107315238Y-91709881D01*
X106934286Y-91614643D01*
X106743810Y-91519405D01*
X106648571Y-91424167D01*
X106553333Y-91233690D01*
X106553333Y-91043214D01*
X106648571Y-90852738D01*
X106743810Y-90757500D01*
X106934286Y-90662262D01*
X107410476Y-90662262D01*
X107696191Y-90757500D01*
X108362857Y-90662262D02*
X108839048Y-92662262D01*
X109220000Y-91233690D01*
X109600953Y-92662262D01*
X110077143Y-90662262D01*
X111886667Y-92662262D02*
X110743809Y-92662262D01*
X111315238Y-92662262D02*
X111315238Y-90662262D01*
X111124762Y-90947976D01*
X110934286Y-91138452D01*
X110743809Y-91233690D01*
X88138333Y-92567024D02*
X88424048Y-92662262D01*
X88900238Y-92662262D01*
X89090714Y-92567024D01*
X89185952Y-92471786D01*
X89281191Y-92281310D01*
X89281191Y-92090833D01*
X89185952Y-91900357D01*
X89090714Y-91805119D01*
X88900238Y-91709881D01*
X88519286Y-91614643D01*
X88328810Y-91519405D01*
X88233571Y-91424167D01*
X88138333Y-91233690D01*
X88138333Y-91043214D01*
X88233571Y-90852738D01*
X88328810Y-90757500D01*
X88519286Y-90662262D01*
X88995476Y-90662262D01*
X89281191Y-90757500D01*
X89947857Y-90662262D02*
X90424048Y-92662262D01*
X90805000Y-91233690D01*
X91185953Y-92662262D01*
X91662143Y-90662262D01*
X93471667Y-92662262D02*
X92328809Y-92662262D01*
X92900238Y-92662262D02*
X92900238Y-90662262D01*
X92709762Y-90947976D01*
X92519286Y-91138452D01*
X92328809Y-91233690D01*
X143383333Y-74152024D02*
X143669048Y-74247262D01*
X144145238Y-74247262D01*
X144335714Y-74152024D01*
X144430952Y-74056786D01*
X144526191Y-73866310D01*
X144526191Y-73675833D01*
X144430952Y-73485357D01*
X144335714Y-73390119D01*
X144145238Y-73294881D01*
X143764286Y-73199643D01*
X143573810Y-73104405D01*
X143478571Y-73009167D01*
X143383333Y-72818690D01*
X143383333Y-72628214D01*
X143478571Y-72437738D01*
X143573810Y-72342500D01*
X143764286Y-72247262D01*
X144240476Y-72247262D01*
X144526191Y-72342500D01*
X145192857Y-72247262D02*
X145669048Y-74247262D01*
X146050000Y-72818690D01*
X146430953Y-74247262D01*
X146907143Y-72247262D01*
X148716667Y-74247262D02*
X147573809Y-74247262D01*
X148145238Y-74247262D02*
X148145238Y-72247262D01*
X147954762Y-72532976D01*
X147764286Y-72723452D01*
X147573809Y-72818690D01*
X124968333Y-74152024D02*
X125254048Y-74247262D01*
X125730238Y-74247262D01*
X125920714Y-74152024D01*
X126015952Y-74056786D01*
X126111191Y-73866310D01*
X126111191Y-73675833D01*
X126015952Y-73485357D01*
X125920714Y-73390119D01*
X125730238Y-73294881D01*
X125349286Y-73199643D01*
X125158810Y-73104405D01*
X125063571Y-73009167D01*
X124968333Y-72818690D01*
X124968333Y-72628214D01*
X125063571Y-72437738D01*
X125158810Y-72342500D01*
X125349286Y-72247262D01*
X125825476Y-72247262D01*
X126111191Y-72342500D01*
X126777857Y-72247262D02*
X127254048Y-74247262D01*
X127635000Y-72818690D01*
X128015953Y-74247262D01*
X128492143Y-72247262D01*
X130301667Y-74247262D02*
X129158809Y-74247262D01*
X129730238Y-74247262D02*
X129730238Y-72247262D01*
X129539762Y-72532976D01*
X129349286Y-72723452D01*
X129158809Y-72818690D01*
X106553333Y-74152024D02*
X106839048Y-74247262D01*
X107315238Y-74247262D01*
X107505714Y-74152024D01*
X107600952Y-74056786D01*
X107696191Y-73866310D01*
X107696191Y-73675833D01*
X107600952Y-73485357D01*
X107505714Y-73390119D01*
X107315238Y-73294881D01*
X106934286Y-73199643D01*
X106743810Y-73104405D01*
X106648571Y-73009167D01*
X106553333Y-72818690D01*
X106553333Y-72628214D01*
X106648571Y-72437738D01*
X106743810Y-72342500D01*
X106934286Y-72247262D01*
X107410476Y-72247262D01*
X107696191Y-72342500D01*
X108362857Y-72247262D02*
X108839048Y-74247262D01*
X109220000Y-72818690D01*
X109600953Y-74247262D01*
X110077143Y-72247262D01*
X111886667Y-74247262D02*
X110743809Y-74247262D01*
X111315238Y-74247262D02*
X111315238Y-72247262D01*
X111124762Y-72532976D01*
X110934286Y-72723452D01*
X110743809Y-72818690D01*
X88138333Y-74152024D02*
X88424048Y-74247262D01*
X88900238Y-74247262D01*
X89090714Y-74152024D01*
X89185952Y-74056786D01*
X89281191Y-73866310D01*
X89281191Y-73675833D01*
X89185952Y-73485357D01*
X89090714Y-73390119D01*
X88900238Y-73294881D01*
X88519286Y-73199643D01*
X88328810Y-73104405D01*
X88233571Y-73009167D01*
X88138333Y-72818690D01*
X88138333Y-72628214D01*
X88233571Y-72437738D01*
X88328810Y-72342500D01*
X88519286Y-72247262D01*
X88995476Y-72247262D01*
X89281191Y-72342500D01*
X89947857Y-72247262D02*
X90424048Y-74247262D01*
X90805000Y-72818690D01*
X91185953Y-74247262D01*
X91662143Y-72247262D01*
X93471667Y-74247262D02*
X92328809Y-74247262D01*
X92900238Y-74247262D02*
X92900238Y-72247262D01*
X92709762Y-72532976D01*
X92519286Y-72723452D01*
X92328809Y-72818690D01*
X143383333Y-55737024D02*
X143669048Y-55832262D01*
X144145238Y-55832262D01*
X144335714Y-55737024D01*
X144430952Y-55641786D01*
X144526191Y-55451310D01*
X144526191Y-55260833D01*
X144430952Y-55070357D01*
X144335714Y-54975119D01*
X144145238Y-54879881D01*
X143764286Y-54784643D01*
X143573810Y-54689405D01*
X143478571Y-54594167D01*
X143383333Y-54403690D01*
X143383333Y-54213214D01*
X143478571Y-54022738D01*
X143573810Y-53927500D01*
X143764286Y-53832262D01*
X144240476Y-53832262D01*
X144526191Y-53927500D01*
X145192857Y-53832262D02*
X145669048Y-55832262D01*
X146050000Y-54403690D01*
X146430953Y-55832262D01*
X146907143Y-53832262D01*
X148716667Y-55832262D02*
X147573809Y-55832262D01*
X148145238Y-55832262D02*
X148145238Y-53832262D01*
X147954762Y-54117976D01*
X147764286Y-54308452D01*
X147573809Y-54403690D01*
X124968333Y-55737024D02*
X125254048Y-55832262D01*
X125730238Y-55832262D01*
X125920714Y-55737024D01*
X126015952Y-55641786D01*
X126111191Y-55451310D01*
X126111191Y-55260833D01*
X126015952Y-55070357D01*
X125920714Y-54975119D01*
X125730238Y-54879881D01*
X125349286Y-54784643D01*
X125158810Y-54689405D01*
X125063571Y-54594167D01*
X124968333Y-54403690D01*
X124968333Y-54213214D01*
X125063571Y-54022738D01*
X125158810Y-53927500D01*
X125349286Y-53832262D01*
X125825476Y-53832262D01*
X126111191Y-53927500D01*
X126777857Y-53832262D02*
X127254048Y-55832262D01*
X127635000Y-54403690D01*
X128015953Y-55832262D01*
X128492143Y-53832262D01*
X130301667Y-55832262D02*
X129158809Y-55832262D01*
X129730238Y-55832262D02*
X129730238Y-53832262D01*
X129539762Y-54117976D01*
X129349286Y-54308452D01*
X129158809Y-54403690D01*
X106553333Y-55737024D02*
X106839048Y-55832262D01*
X107315238Y-55832262D01*
X107505714Y-55737024D01*
X107600952Y-55641786D01*
X107696191Y-55451310D01*
X107696191Y-55260833D01*
X107600952Y-55070357D01*
X107505714Y-54975119D01*
X107315238Y-54879881D01*
X106934286Y-54784643D01*
X106743810Y-54689405D01*
X106648571Y-54594167D01*
X106553333Y-54403690D01*
X106553333Y-54213214D01*
X106648571Y-54022738D01*
X106743810Y-53927500D01*
X106934286Y-53832262D01*
X107410476Y-53832262D01*
X107696191Y-53927500D01*
X108362857Y-53832262D02*
X108839048Y-55832262D01*
X109220000Y-54403690D01*
X109600953Y-55832262D01*
X110077143Y-53832262D01*
X111886667Y-55832262D02*
X110743809Y-55832262D01*
X111315238Y-55832262D02*
X111315238Y-53832262D01*
X111124762Y-54117976D01*
X110934286Y-54308452D01*
X110743809Y-54403690D01*
D10*
X159596429Y-89056905D02*
X159596429Y-89628333D01*
X159558333Y-89742619D01*
X159482143Y-89818810D01*
X159367857Y-89856905D01*
X159291667Y-89856905D01*
X159939286Y-89628333D02*
X160320238Y-89628333D01*
X159863095Y-89856905D02*
X160129762Y-89056905D01*
X160396429Y-89856905D01*
X161120238Y-89780714D02*
X161082143Y-89818810D01*
X160967857Y-89856905D01*
X160891667Y-89856905D01*
X160777381Y-89818810D01*
X160701190Y-89742619D01*
X160663095Y-89666429D01*
X160625000Y-89514048D01*
X160625000Y-89399762D01*
X160663095Y-89247381D01*
X160701190Y-89171190D01*
X160777381Y-89095000D01*
X160891667Y-89056905D01*
X160967857Y-89056905D01*
X161082143Y-89095000D01*
X161120238Y-89133095D01*
X161463095Y-89856905D02*
X161463095Y-89056905D01*
X161920238Y-89856905D02*
X161577381Y-89399762D01*
X161920238Y-89056905D02*
X161463095Y-89514048D01*
X164554505Y-78294895D02*
X164709324Y-78294895D01*
X164786733Y-78333600D01*
X164864143Y-78411010D01*
X164902848Y-78565829D01*
X164902848Y-78836762D01*
X164864143Y-78991581D01*
X164786733Y-79068990D01*
X164709324Y-79107695D01*
X164554505Y-79107695D01*
X164477095Y-79068990D01*
X164399686Y-78991581D01*
X164360981Y-78836762D01*
X164360981Y-78565829D01*
X164399686Y-78411010D01*
X164477095Y-78333600D01*
X164554505Y-78294895D01*
X165638238Y-79107695D02*
X165251191Y-79107695D01*
X165251191Y-78294895D01*
X165909172Y-78681943D02*
X166180105Y-78681943D01*
X166296219Y-79107695D02*
X165909172Y-79107695D01*
X165909172Y-78294895D01*
X166296219Y-78294895D01*
X166644562Y-79107695D02*
X166644562Y-78294895D01*
X166838086Y-78294895D01*
X166954200Y-78333600D01*
X167031609Y-78411010D01*
X167070314Y-78488419D01*
X167109019Y-78643238D01*
X167109019Y-78759352D01*
X167070314Y-78914171D01*
X167031609Y-78991581D01*
X166954200Y-79068990D01*
X166838086Y-79107695D01*
X166644562Y-79107695D01*
X169816429Y-90806905D02*
X169816429Y-91378333D01*
X169778333Y-91492619D01*
X169702143Y-91568810D01*
X169587857Y-91606905D01*
X169511667Y-91606905D01*
X170159286Y-91378333D02*
X170540238Y-91378333D01*
X170083095Y-91606905D02*
X170349762Y-90806905D01*
X170616429Y-91606905D01*
X171340238Y-91530714D02*
X171302143Y-91568810D01*
X171187857Y-91606905D01*
X171111667Y-91606905D01*
X170997381Y-91568810D01*
X170921190Y-91492619D01*
X170883095Y-91416429D01*
X170845000Y-91264048D01*
X170845000Y-91149762D01*
X170883095Y-90997381D01*
X170921190Y-90921190D01*
X170997381Y-90845000D01*
X171111667Y-90806905D01*
X171187857Y-90806905D01*
X171302143Y-90845000D01*
X171340238Y-90883095D01*
X171683095Y-91606905D02*
X171683095Y-90806905D01*
X172140238Y-91606905D02*
X171797381Y-91149762D01*
X172140238Y-90806905D02*
X171683095Y-91264048D01*
X164640506Y-84155695D02*
X164369573Y-83768648D01*
X164176049Y-84155695D02*
X164176049Y-83342895D01*
X164485687Y-83342895D01*
X164563096Y-83381600D01*
X164601801Y-83420305D01*
X164640506Y-83497714D01*
X164640506Y-83613829D01*
X164601801Y-83691238D01*
X164563096Y-83729943D01*
X164485687Y-83768648D01*
X164176049Y-83768648D01*
X164988849Y-83729943D02*
X165259782Y-83729943D01*
X165375896Y-84155695D02*
X164988849Y-84155695D01*
X164988849Y-83342895D01*
X165375896Y-83342895D01*
X165685534Y-84116990D02*
X165801648Y-84155695D01*
X165995172Y-84155695D01*
X166072582Y-84116990D01*
X166111286Y-84078286D01*
X166149991Y-84000876D01*
X166149991Y-83923467D01*
X166111286Y-83846057D01*
X166072582Y-83807352D01*
X165995172Y-83768648D01*
X165840353Y-83729943D01*
X165762944Y-83691238D01*
X165724239Y-83652533D01*
X165685534Y-83575124D01*
X165685534Y-83497714D01*
X165724239Y-83420305D01*
X165762944Y-83381600D01*
X165840353Y-83342895D01*
X166033877Y-83342895D01*
X166149991Y-83381600D01*
X166498334Y-83729943D02*
X166769267Y-83729943D01*
X166885381Y-84155695D02*
X166498334Y-84155695D01*
X166498334Y-83342895D01*
X166885381Y-83342895D01*
X167117610Y-83342895D02*
X167582067Y-83342895D01*
X167349838Y-84155695D02*
X167349838Y-83342895D01*
D11*
X88138333Y-55737024D02*
X88424048Y-55832262D01*
X88900238Y-55832262D01*
X89090714Y-55737024D01*
X89185952Y-55641786D01*
X89281191Y-55451310D01*
X89281191Y-55260833D01*
X89185952Y-55070357D01*
X89090714Y-54975119D01*
X88900238Y-54879881D01*
X88519286Y-54784643D01*
X88328810Y-54689405D01*
X88233571Y-54594167D01*
X88138333Y-54403690D01*
X88138333Y-54213214D01*
X88233571Y-54022738D01*
X88328810Y-53927500D01*
X88519286Y-53832262D01*
X88995476Y-53832262D01*
X89281191Y-53927500D01*
X89947857Y-53832262D02*
X90424048Y-55832262D01*
X90805000Y-54403690D01*
X91185953Y-55832262D01*
X91662143Y-53832262D01*
X93471667Y-55832262D02*
X92328809Y-55832262D01*
X92900238Y-55832262D02*
X92900238Y-53832262D01*
X92709762Y-54117976D01*
X92519286Y-54308452D01*
X92328809Y-54403690D01*
M02*
