G04 #@! TF.FileFunction,Profile,NP*
%FSLAX46Y46*%
G04 Gerber Fmt 4.6, Leading zero omitted, Abs format (unit mm)*
G04 Created by KiCad (PCBNEW 4.0.7-e2-6376~61~ubuntu18.04.1) date Sat Jul 28 03:14:20 2018*
%MOMM*%
%LPD*%
G01*
G04 APERTURE LIST*
%ADD10C,0.150000*%
%ADD11C,0.100000*%
G04 APERTURE END LIST*
D10*
D11*
X81915000Y-62865000D02*
X81915000Y-45085000D01*
X81915000Y-63500000D02*
X81915000Y-81280000D01*
X81915000Y-99695000D02*
X81915000Y-81915000D01*
X81915000Y-118110000D02*
X81915000Y-100330000D01*
X81915000Y-118745000D02*
X81915000Y-136525000D01*
X99695000Y-136525000D02*
X81915000Y-136525000D01*
X118110000Y-136525000D02*
X100330000Y-136525000D01*
X136525000Y-136525000D02*
X118745000Y-136525000D01*
X137160000Y-136525000D02*
X137160000Y-119380000D01*
X154940000Y-136525000D02*
X137160000Y-136525000D01*
X173355000Y-136525000D02*
X155575000Y-136525000D01*
X175895000Y-136525000D02*
X173990000Y-136525000D01*
X155575000Y-136525000D02*
X155575000Y-119380000D01*
X137160000Y-119380000D02*
X136525000Y-119380000D01*
X118745000Y-119380000D02*
X118110000Y-119380000D01*
X118110000Y-119380000D02*
X118110000Y-136525000D01*
X136525000Y-119380000D02*
X136525000Y-136525000D01*
X100330000Y-119380000D02*
X99695000Y-119380000D01*
X99695000Y-119380000D02*
X99695000Y-136525000D01*
X173990000Y-99060000D02*
X175260000Y-99060000D01*
X154940000Y-45720000D02*
X155575000Y-45720000D01*
X173990000Y-136525000D02*
X173990000Y-99060000D01*
X173355000Y-100330000D02*
X173355000Y-136525000D01*
X155575000Y-119380000D02*
X154940000Y-119380000D01*
X154940000Y-119380000D02*
X154940000Y-136525000D01*
X118745000Y-136525000D02*
X118745000Y-119380000D01*
X100330000Y-136525000D02*
X100330000Y-119380000D01*
X99060000Y-118110000D02*
X81915000Y-118110000D01*
X99060000Y-118745000D02*
X99060000Y-118110000D01*
X81915000Y-118745000D02*
X99060000Y-118745000D01*
X99695000Y-118745000D02*
X99695000Y-100965000D01*
X117475000Y-118745000D02*
X99695000Y-118745000D01*
X117475000Y-118110000D02*
X117475000Y-118745000D01*
X100330000Y-118110000D02*
X117475000Y-118110000D01*
X100330000Y-100965000D02*
X100330000Y-118110000D01*
X99695000Y-100965000D02*
X100330000Y-100965000D01*
X99060000Y-100330000D02*
X99060000Y-99695000D01*
X81915000Y-100330000D02*
X99060000Y-100330000D01*
X99060000Y-99695000D02*
X81915000Y-99695000D01*
X100330000Y-99695000D02*
X117475000Y-99695000D01*
X100330000Y-82550000D02*
X100330000Y-99695000D01*
X99695000Y-82550000D02*
X100330000Y-82550000D01*
X99695000Y-100330000D02*
X99695000Y-82550000D01*
X117475000Y-100330000D02*
X99695000Y-100330000D01*
X117475000Y-99695000D02*
X117475000Y-100330000D01*
X118110000Y-118745000D02*
X118110000Y-100965000D01*
X135890000Y-118745000D02*
X118110000Y-118745000D01*
X135890000Y-118110000D02*
X135890000Y-118745000D01*
X118745000Y-118110000D02*
X135890000Y-118110000D01*
X118745000Y-100965000D02*
X118745000Y-118110000D01*
X118110000Y-100965000D02*
X118745000Y-100965000D01*
X172720000Y-118745000D02*
X154940000Y-118745000D01*
X172720000Y-118110000D02*
X172720000Y-118745000D01*
X136525000Y-118745000D02*
X136525000Y-100965000D01*
X154305000Y-118745000D02*
X136525000Y-118745000D01*
X154305000Y-118110000D02*
X154305000Y-118745000D01*
X137160000Y-118110000D02*
X154305000Y-118110000D01*
X137160000Y-100965000D02*
X137160000Y-118110000D01*
X136525000Y-100965000D02*
X137160000Y-100965000D01*
X154940000Y-118745000D02*
X154940000Y-100965000D01*
X155575000Y-118110000D02*
X172720000Y-118110000D01*
X155575000Y-100965000D02*
X155575000Y-118110000D01*
X154940000Y-100965000D02*
X155575000Y-100965000D01*
X118110000Y-100330000D02*
X118110000Y-82550000D01*
X135890000Y-100330000D02*
X118110000Y-100330000D01*
X135890000Y-99695000D02*
X135890000Y-100330000D01*
X118745000Y-99695000D02*
X135890000Y-99695000D01*
X118745000Y-82550000D02*
X118745000Y-99695000D01*
X118110000Y-82550000D02*
X118745000Y-82550000D01*
X136525000Y-100330000D02*
X136525000Y-82550000D01*
X154305000Y-100330000D02*
X136525000Y-100330000D01*
X154305000Y-99695000D02*
X154305000Y-100330000D01*
X137160000Y-99695000D02*
X154305000Y-99695000D01*
X137160000Y-82550000D02*
X137160000Y-99695000D01*
X136525000Y-82550000D02*
X137160000Y-82550000D01*
X99060000Y-81915000D02*
X81915000Y-81915000D01*
X99060000Y-81280000D02*
X99060000Y-81915000D01*
X81915000Y-81280000D02*
X99060000Y-81280000D01*
X99695000Y-81915000D02*
X99695000Y-64135000D01*
X117475000Y-81915000D02*
X99695000Y-81915000D01*
X117475000Y-81280000D02*
X117475000Y-81915000D01*
X100330000Y-81280000D02*
X117475000Y-81280000D01*
X100330000Y-64135000D02*
X100330000Y-81280000D01*
X99695000Y-64135000D02*
X100330000Y-64135000D01*
X118110000Y-81915000D02*
X118110000Y-64135000D01*
X135890000Y-81915000D02*
X118110000Y-81915000D01*
X135890000Y-81280000D02*
X135890000Y-81915000D01*
X118745000Y-81280000D02*
X135890000Y-81280000D01*
X118745000Y-64135000D02*
X118745000Y-81280000D01*
X118110000Y-64135000D02*
X118745000Y-64135000D01*
X136525000Y-81915000D02*
X136525000Y-64135000D01*
X154305000Y-81915000D02*
X136525000Y-81915000D01*
X154305000Y-81280000D02*
X154305000Y-81915000D01*
X137160000Y-81280000D02*
X154305000Y-81280000D01*
X137160000Y-64135000D02*
X137160000Y-81280000D01*
X136525000Y-64135000D02*
X137160000Y-64135000D01*
X99060000Y-63500000D02*
X99060000Y-62865000D01*
X81915000Y-63500000D02*
X99060000Y-63500000D01*
X99060000Y-62865000D02*
X81915000Y-62865000D01*
X99695000Y-63500000D02*
X99695000Y-45720000D01*
X117475000Y-63500000D02*
X99695000Y-63500000D01*
X117475000Y-62865000D02*
X117475000Y-63500000D01*
X100330000Y-62865000D02*
X117475000Y-62865000D01*
X100330000Y-45720000D02*
X100330000Y-62865000D01*
X99695000Y-45720000D02*
X100330000Y-45720000D01*
X118110000Y-63500000D02*
X118110000Y-45720000D01*
X135890000Y-63500000D02*
X118110000Y-63500000D01*
X135890000Y-62865000D02*
X135890000Y-63500000D01*
X118745000Y-62865000D02*
X135890000Y-62865000D01*
X118745000Y-45720000D02*
X118745000Y-62865000D01*
X118110000Y-45720000D02*
X118745000Y-45720000D01*
X154940000Y-100330000D02*
X154940000Y-45720000D01*
X173355000Y-100330000D02*
X154940000Y-100330000D01*
X175260000Y-99060000D02*
X175260000Y-98425000D01*
X155575000Y-98425000D02*
X175260000Y-98425000D01*
X155575000Y-45720000D02*
X155575000Y-98425000D01*
X136525000Y-63500000D02*
X136525000Y-45720000D01*
X154305000Y-63500000D02*
X136525000Y-63500000D01*
X154305000Y-62865000D02*
X154305000Y-63500000D01*
X137160000Y-62865000D02*
X154305000Y-62865000D01*
X137160000Y-45720000D02*
X137160000Y-62865000D01*
X136525000Y-45720000D02*
X137160000Y-45720000D01*
X175895000Y-45085000D02*
X175895000Y-136525000D01*
X81915000Y-45085000D02*
X175895000Y-45085000D01*
X166370000Y-134143750D02*
X166370000Y-130333750D01*
X147955000Y-134143750D02*
X147955000Y-130333750D01*
X129540000Y-134143750D02*
X129540000Y-130333750D01*
X111125000Y-134143750D02*
X111125000Y-130333750D01*
X92710000Y-134143750D02*
X92710000Y-130333750D01*
X166370000Y-115728750D02*
X166370000Y-111918750D01*
X147955000Y-115728750D02*
X147955000Y-111918750D01*
X129540000Y-115728750D02*
X129540000Y-111918750D01*
X111125000Y-115728750D02*
X111125000Y-111918750D01*
X92710000Y-115728750D02*
X92710000Y-111918750D01*
X147955000Y-97313750D02*
X147955000Y-93503750D01*
X129540000Y-97313750D02*
X129540000Y-93503750D01*
X111125000Y-97313750D02*
X111125000Y-93503750D01*
X92710000Y-97313750D02*
X92710000Y-93503750D01*
X147955000Y-78898750D02*
X147955000Y-75088750D01*
X129540000Y-78898750D02*
X129540000Y-75088750D01*
X111125000Y-78898750D02*
X111125000Y-75088750D01*
X92710000Y-78898750D02*
X92710000Y-75088750D01*
X147955000Y-60483750D02*
X147955000Y-56673750D01*
X129540000Y-60483750D02*
X129540000Y-56673750D01*
X111125000Y-60483750D02*
X111125000Y-56673750D01*
X162877500Y-130333750D02*
X166370000Y-130333750D01*
X144462500Y-130333750D02*
X147955000Y-130333750D01*
X126047500Y-130333750D02*
X129540000Y-130333750D01*
X107632500Y-130333750D02*
X111125000Y-130333750D01*
X89217500Y-130333750D02*
X92710000Y-130333750D01*
X162877500Y-111918750D02*
X166370000Y-111918750D01*
X144462500Y-111918750D02*
X147955000Y-111918750D01*
X126047500Y-111918750D02*
X129540000Y-111918750D01*
X107632500Y-111918750D02*
X111125000Y-111918750D01*
X89217500Y-111918750D02*
X92710000Y-111918750D01*
X144462500Y-93503750D02*
X147955000Y-93503750D01*
X126047500Y-93503750D02*
X129540000Y-93503750D01*
X107632500Y-93503750D02*
X111125000Y-93503750D01*
X89217500Y-93503750D02*
X92710000Y-93503750D01*
X144462500Y-75088750D02*
X147955000Y-75088750D01*
X126047500Y-75088750D02*
X129540000Y-75088750D01*
X107632500Y-75088750D02*
X111125000Y-75088750D01*
X89217500Y-75088750D02*
X92710000Y-75088750D01*
X144462500Y-56673750D02*
X147955000Y-56673750D01*
X126047500Y-56673750D02*
X129540000Y-56673750D01*
X107632500Y-56673750D02*
X111125000Y-56673750D01*
X162877500Y-134143750D02*
X166370000Y-134143750D01*
X144462500Y-134143750D02*
X147955000Y-134143750D01*
X126047500Y-134143750D02*
X129540000Y-134143750D01*
X107632500Y-134143750D02*
X111125000Y-134143750D01*
X89217500Y-134143750D02*
X92710000Y-134143750D01*
X162877500Y-115728750D02*
X166370000Y-115728750D01*
X144462500Y-115728750D02*
X147955000Y-115728750D01*
X126047500Y-115728750D02*
X129540000Y-115728750D01*
X107632500Y-115728750D02*
X111125000Y-115728750D01*
X89217500Y-115728750D02*
X92710000Y-115728750D01*
X144462500Y-97313750D02*
X147955000Y-97313750D01*
X126047500Y-97313750D02*
X129540000Y-97313750D01*
X107632500Y-97313750D02*
X111125000Y-97313750D01*
X89217500Y-97313750D02*
X92710000Y-97313750D01*
X144462500Y-78898750D02*
X147955000Y-78898750D01*
X126047500Y-78898750D02*
X129540000Y-78898750D01*
X107632500Y-78898750D02*
X111125000Y-78898750D01*
X89217500Y-78898750D02*
X92710000Y-78898750D01*
X144462500Y-60483750D02*
X147955000Y-60483750D01*
X126047500Y-60483750D02*
X129540000Y-60483750D01*
X107632500Y-60483750D02*
X111125000Y-60483750D01*
X162877500Y-134143750D02*
X162877500Y-130333750D01*
X144462500Y-134143750D02*
X144462500Y-130333750D01*
X126047500Y-134143750D02*
X126047500Y-130333750D01*
X107632500Y-134143750D02*
X107632500Y-130333750D01*
X89217500Y-134143750D02*
X89217500Y-130333750D01*
X162877500Y-115728750D02*
X162877500Y-111918750D01*
X144462500Y-115728750D02*
X144462500Y-111918750D01*
X126047500Y-115728750D02*
X126047500Y-111918750D01*
X107632500Y-115728750D02*
X107632500Y-111918750D01*
X89217500Y-115728750D02*
X89217500Y-111918750D01*
X144462500Y-97313750D02*
X144462500Y-93503750D01*
X126047500Y-97313750D02*
X126047500Y-93503750D01*
X107632500Y-97313750D02*
X107632500Y-93503750D01*
X89217500Y-97313750D02*
X89217500Y-93503750D01*
X144462500Y-78898750D02*
X144462500Y-75088750D01*
X126047500Y-78898750D02*
X126047500Y-75088750D01*
X107632500Y-78898750D02*
X107632500Y-75088750D01*
X89217500Y-78898750D02*
X89217500Y-75088750D01*
X144462500Y-60483750D02*
X144462500Y-56673750D01*
X126047500Y-60483750D02*
X126047500Y-56673750D01*
X107632500Y-60483750D02*
X107632500Y-56673750D01*
X92710000Y-60483750D02*
X92710000Y-56673750D01*
X89217500Y-60483750D02*
X92710000Y-60483750D01*
X89217500Y-56673750D02*
X92710000Y-56673750D01*
X89217500Y-60483750D02*
X89217500Y-56673750D01*
M02*
