M48
;DRILL file {KiCad 4.0.7-e2-6376~61~ubuntu18.04.1} date Sat Jul 28 14:40:56 2018
;FORMAT={3:3/ absolute / metric / suppress leading zeros}
FMAT,2
METRIC,TZ
T1C0.800
T2C0.813
T3C1.000
T4C1.300
T5C1.500
T6C1.710
T7C2.200
T8C4.000
%
G90
G05
M71
T1
X83185Y-46355
X83185Y-51435
X83185Y-56515
X83185Y-61595
X83185Y-64770
X83185Y-69850
X83185Y-74930
X83185Y-80010
X83185Y-83185
X83185Y-88265
X83185Y-93345
X83185Y-98425
X83185Y-101600
X83185Y-106680
X83185Y-111760
X83185Y-116840
X83185Y-120015
X83185Y-125095
X83185Y-130175
X83185Y-135255
X88265Y-46355
X88265Y-61595
X88265Y-64770
X88265Y-80010
X88265Y-83185
X88265Y-98425
X88265Y-101600
X88265Y-116840
X88265Y-120015
X88265Y-135255
X91440Y-46355
X91440Y-64770
X91440Y-83185
X91440Y-101600
X91440Y-120015
X93345Y-61595
X93345Y-80010
X93345Y-98425
X93345Y-116840
X93345Y-135255
X97790Y-46355
X97790Y-64770
X97790Y-83185
X97790Y-101600
X97790Y-120015
X98425Y-51435
X98425Y-56515
X98425Y-61595
X98425Y-69850
X98425Y-74930
X98425Y-80010
X98425Y-88265
X98425Y-93345
X98425Y-98425
X98425Y-106680
X98425Y-111760
X98425Y-116840
X98425Y-125095
X98425Y-130175
X98425Y-135255
X101600Y-46355
X101600Y-51435
X101600Y-56515
X101600Y-61595
X101600Y-64770
X101600Y-69850
X101600Y-74930
X101600Y-80010
X101600Y-83185
X101600Y-88265
X101600Y-93345
X101600Y-98425
X101600Y-101600
X101600Y-106680
X101600Y-111760
X101600Y-116840
X101600Y-120015
X101600Y-125095
X101600Y-130175
X101600Y-135255
X106680Y-46355
X106680Y-61595
X106680Y-64770
X106680Y-80010
X106680Y-83185
X106680Y-98425
X106680Y-101600
X106680Y-116840
X106680Y-120015
X106680Y-135255
X109855Y-46355
X109855Y-64770
X109855Y-83185
X109855Y-101600
X109855Y-120015
X111760Y-61595
X111760Y-80010
X111760Y-98425
X111760Y-116840
X111760Y-135255
X116205Y-46355
X116205Y-64770
X116205Y-83185
X116205Y-101600
X116205Y-120015
X116840Y-51435
X116840Y-56515
X116840Y-61595
X116840Y-69850
X116840Y-74930
X116840Y-80010
X116840Y-88265
X116840Y-93345
X116840Y-98425
X116840Y-106680
X116840Y-111760
X116840Y-116840
X116840Y-125095
X116840Y-130175
X116840Y-135255
X120015Y-46355
X120015Y-51435
X120015Y-56515
X120015Y-61595
X120015Y-64770
X120015Y-69850
X120015Y-74930
X120015Y-80010
X120015Y-83185
X120015Y-88265
X120015Y-93345
X120015Y-98425
X120015Y-101600
X120015Y-106680
X120015Y-111760
X120015Y-116840
X120015Y-120015
X120015Y-125095
X120015Y-130175
X120015Y-135255
X125095Y-46355
X125095Y-61595
X125095Y-64770
X125095Y-80010
X125095Y-83185
X125095Y-98425
X125095Y-101600
X125095Y-116840
X125095Y-120015
X125095Y-135255
X128270Y-46355
X128270Y-64770
X128270Y-83185
X128270Y-101600
X128270Y-120015
X130175Y-61595
X130175Y-80010
X130175Y-98425
X130175Y-116840
X130175Y-135255
X134620Y-46355
X134620Y-64770
X134620Y-83185
X134620Y-101600
X134620Y-120015
X135255Y-51435
X135255Y-56515
X135255Y-61595
X135255Y-69850
X135255Y-74930
X135255Y-80010
X135255Y-88265
X135255Y-93345
X135255Y-98425
X135255Y-106680
X135255Y-111760
X135255Y-116840
X135255Y-125095
X135255Y-130175
X135255Y-135255
X138430Y-46355
X138430Y-51435
X138430Y-56515
X138430Y-61595
X138430Y-64770
X138430Y-69850
X138430Y-74930
X138430Y-80010
X138430Y-83185
X138430Y-88265
X138430Y-93345
X138430Y-98425
X138430Y-101600
X138430Y-106680
X138430Y-111760
X138430Y-116840
X138430Y-120015
X138430Y-125095
X138430Y-130175
X138430Y-135255
X143510Y-46355
X143510Y-61595
X143510Y-64770
X143510Y-80010
X143510Y-83185
X143510Y-98425
X143510Y-101600
X143510Y-116840
X143510Y-120015
X143510Y-135255
X146685Y-46355
X146685Y-64770
X146685Y-83185
X146685Y-101600
X146685Y-120015
X148590Y-61595
X148590Y-80010
X148590Y-98425
X148590Y-116840
X148590Y-135255
X153035Y-46355
X153035Y-64770
X153035Y-83185
X153035Y-101600
X153035Y-120015
X153670Y-51435
X153670Y-56515
X153670Y-61595
X153670Y-69850
X153670Y-74930
X153670Y-80010
X153670Y-88265
X153670Y-93345
X153670Y-98425
X153670Y-106680
X153670Y-111760
X153670Y-116840
X153670Y-125095
X153670Y-130175
X153670Y-135255
X156845Y-101600
X156845Y-106680
X156845Y-111760
X156845Y-116840
X156845Y-120015
X156845Y-125095
X156845Y-130175
X156845Y-135255
X161925Y-101600
X161925Y-116840
X161925Y-120015
X161925Y-135255
X165100Y-101600
X165100Y-120015
X167005Y-116840
X167005Y-135255
X171450Y-101600
X171450Y-120015
X172085Y-106680
X172085Y-111760
X172085Y-116840
X172085Y-125095
X172085Y-130175
X172085Y-135255
T2
X157480Y-92710
X158115Y-48895
X158115Y-51435
X158115Y-53975
X158115Y-56515
X158115Y-59055
X158115Y-61595
X158115Y-64135
X158115Y-66675
X158115Y-69215
X158115Y-71755
X158115Y-74295
X158115Y-76835
X158115Y-82550
X158115Y-85090
X160655Y-82550
X160655Y-85090
X160655Y-92710
X161290Y-48895
X161290Y-51435
X161290Y-53975
X161290Y-56515
X161290Y-59055
X161290Y-61595
X161290Y-64135
X161290Y-66675
X161290Y-69215
X161290Y-71755
X161290Y-74295
X161290Y-76835
X161925Y-80010
X163830Y-48895
X163830Y-51435
X163830Y-53975
X163830Y-56515
X163830Y-59055
X163830Y-61595
X163830Y-64135
X163830Y-66675
X163830Y-69215
X163830Y-71755
X163830Y-74295
X163830Y-76835
X164465Y-80010
X167005Y-80010
X167640Y-48895
X167640Y-51435
X167640Y-53975
X167640Y-56515
X167640Y-59055
X167640Y-61595
X167640Y-64135
X167640Y-66675
X167640Y-69215
X167640Y-71755
X167640Y-74295
X167640Y-76835
X169545Y-80010
X170180Y-48895
X170180Y-51435
X170180Y-53975
X170180Y-56515
X170180Y-59055
X170180Y-61595
X170180Y-64135
X170180Y-66675
X170180Y-69215
X170180Y-71755
X170180Y-74295
X170180Y-76835
X170815Y-82550
X170815Y-85090
X170815Y-88265
X173355Y-48895
X173355Y-51435
X173355Y-53975
X173355Y-56515
X173355Y-59055
X173355Y-61595
X173355Y-64135
X173355Y-66675
X173355Y-69215
X173355Y-71755
X173355Y-74295
X173355Y-76835
X173355Y-82550
X173355Y-85090
X173355Y-88265
T4
X162560Y-83820
X169060Y-83820
T5
X86995Y-51435
X86995Y-69850
X86995Y-88265
X86995Y-106680
X86995Y-125095
X93345Y-48895
X93345Y-67310
X93345Y-85725
X93345Y-104140
X93345Y-122555
X105410Y-51435
X105410Y-69850
X105410Y-88265
X105410Y-106680
X105410Y-125095
X111760Y-48895
X111760Y-67310
X111760Y-85725
X111760Y-104140
X111760Y-122555
X123825Y-51435
X123825Y-69850
X123825Y-88265
X123825Y-106680
X123825Y-125095
X130175Y-48895
X130175Y-67310
X130175Y-85725
X130175Y-104140
X130175Y-122555
X142240Y-51435
X142240Y-69850
X142240Y-88265
X142240Y-106680
X142240Y-125095
X148590Y-48895
X148590Y-67310
X148590Y-85725
X148590Y-104140
X148590Y-122555
X160655Y-106680
X160655Y-125095
X167005Y-104140
X167005Y-122555
T6
X85725Y-53975
X85725Y-72390
X85725Y-90805
X85725Y-109220
X85725Y-127635
X95885Y-53975
X95885Y-72390
X95885Y-90805
X95885Y-109220
X95885Y-127635
X104140Y-53975
X104140Y-72390
X104140Y-90805
X104140Y-109220
X104140Y-127635
X114300Y-53975
X114300Y-72390
X114300Y-90805
X114300Y-109220
X114300Y-127635
X122555Y-53975
X122555Y-72390
X122555Y-90805
X122555Y-109220
X122555Y-127635
X132715Y-53975
X132715Y-72390
X132715Y-90805
X132715Y-109220
X132715Y-127635
X140970Y-53975
X140970Y-72390
X140970Y-90805
X140970Y-109220
X140970Y-127635
X151130Y-53975
X151130Y-72390
X151130Y-90805
X151130Y-109220
X151130Y-127635
X159385Y-109220
X159385Y-127635
X169545Y-109220
X169545Y-127635
T7
X157480Y-96520
X158750Y-80010
X172720Y-80010
X173355Y-96520
T8
X90805Y-53975
X90805Y-72390
X90805Y-90805
X90805Y-109220
X90805Y-127635
X109220Y-53975
X109220Y-72390
X109220Y-90805
X109220Y-109220
X109220Y-127635
X127635Y-53975
X127635Y-72390
X127635Y-90805
X127635Y-109220
X127635Y-127635
X146050Y-53975
X146050Y-72390
X146050Y-90805
X146050Y-109220
X146050Y-127635
X164465Y-109220
X164465Y-127635
T3
X158675Y-87395G85X159175Y-87395
G05
X161675Y-87395G85X162175Y-87395
G05
X164295Y-89145G85X163795Y-89145
G05
X165795Y-93345G85X165295Y-93345
G05
X165675Y-87395G85X166175Y-87395
G05
X167175Y-91595G85X167675Y-91595
G05
X169795Y-93345G85X169295Y-93345
G05
X172795Y-93345G85X172295Y-93345
G05
T0
M30
