G04 #@! TF.FileFunction,Legend,Bot*
%FSLAX46Y46*%
G04 Gerber Fmt 4.6, Leading zero omitted, Abs format (unit mm)*
G04 Created by KiCad (PCBNEW 4.0.7-e2-6376~61~ubuntu18.04.1) date Sat Jul 28 03:14:20 2018*
%MOMM*%
%LPD*%
G01*
G04 APERTURE LIST*
%ADD10C,0.150000*%
%ADD11C,0.200000*%
%ADD12C,0.167500*%
G04 APERTURE END LIST*
D10*
D11*
X170535001Y-97005714D02*
X170363572Y-97062857D01*
X170077858Y-97062857D01*
X169963572Y-97005714D01*
X169906429Y-96948571D01*
X169849286Y-96834286D01*
X169849286Y-96720000D01*
X169906429Y-96605714D01*
X169963572Y-96548571D01*
X170077858Y-96491429D01*
X170306429Y-96434286D01*
X170420715Y-96377143D01*
X170477858Y-96320000D01*
X170535001Y-96205714D01*
X170535001Y-96091429D01*
X170477858Y-95977143D01*
X170420715Y-95920000D01*
X170306429Y-95862857D01*
X170020715Y-95862857D01*
X169849286Y-95920000D01*
X169335001Y-97062857D02*
X169335001Y-95862857D01*
X169335001Y-96434286D02*
X168649286Y-96434286D01*
X168649286Y-97062857D02*
X168649286Y-95862857D01*
X168077858Y-97062857D02*
X168077858Y-95862857D01*
X166820714Y-97062857D02*
X167220714Y-96491429D01*
X167506429Y-97062857D02*
X167506429Y-95862857D01*
X167049286Y-95862857D01*
X166935000Y-95920000D01*
X166877857Y-95977143D01*
X166820714Y-96091429D01*
X166820714Y-96262857D01*
X166877857Y-96377143D01*
X166935000Y-96434286D01*
X167049286Y-96491429D01*
X167506429Y-96491429D01*
X166077857Y-95862857D02*
X165849286Y-95862857D01*
X165735000Y-95920000D01*
X165620714Y-96034286D01*
X165563572Y-96262857D01*
X165563572Y-96662857D01*
X165620714Y-96891429D01*
X165735000Y-97005714D01*
X165849286Y-97062857D01*
X166077857Y-97062857D01*
X166192143Y-97005714D01*
X166306429Y-96891429D01*
X166363572Y-96662857D01*
X166363572Y-96262857D01*
X166306429Y-96034286D01*
X166192143Y-95920000D01*
X166077857Y-95862857D01*
X165220714Y-95862857D02*
X164535000Y-95862857D01*
X164877857Y-97062857D02*
X164877857Y-95862857D01*
X163449285Y-97062857D02*
X163849285Y-96491429D01*
X164135000Y-97062857D02*
X164135000Y-95862857D01*
X163677857Y-95862857D01*
X163563571Y-95920000D01*
X163506428Y-95977143D01*
X163449285Y-96091429D01*
X163449285Y-96262857D01*
X163506428Y-96377143D01*
X163563571Y-96434286D01*
X163677857Y-96491429D01*
X164135000Y-96491429D01*
X162706428Y-95862857D02*
X162477857Y-95862857D01*
X162363571Y-95920000D01*
X162249285Y-96034286D01*
X162192143Y-96262857D01*
X162192143Y-96662857D01*
X162249285Y-96891429D01*
X162363571Y-97005714D01*
X162477857Y-97062857D01*
X162706428Y-97062857D01*
X162820714Y-97005714D01*
X162935000Y-96891429D01*
X162992143Y-96662857D01*
X162992143Y-96262857D01*
X162935000Y-96034286D01*
X162820714Y-95920000D01*
X162706428Y-95862857D01*
X161677857Y-97062857D02*
X161677857Y-95862857D01*
X160992142Y-97062857D01*
X160992142Y-95862857D01*
X157302143Y-104225714D02*
X156387857Y-104225714D01*
X156845000Y-104682857D02*
X156845000Y-103768571D01*
X159902571Y-102142857D02*
X160302571Y-101571429D01*
X160588286Y-102142857D02*
X160588286Y-100942857D01*
X160131143Y-100942857D01*
X160016857Y-101000000D01*
X159959714Y-101057143D01*
X159902571Y-101171429D01*
X159902571Y-101342857D01*
X159959714Y-101457143D01*
X160016857Y-101514286D01*
X160131143Y-101571429D01*
X160588286Y-101571429D01*
X157787857Y-110397857D02*
X157787857Y-109197857D01*
X157502142Y-109197857D01*
X157330714Y-109255000D01*
X157216428Y-109369286D01*
X157159285Y-109483571D01*
X157102142Y-109712143D01*
X157102142Y-109883571D01*
X157159285Y-110112143D01*
X157216428Y-110226429D01*
X157330714Y-110340714D01*
X157502142Y-110397857D01*
X157787857Y-110397857D01*
X156359285Y-109197857D02*
X156130714Y-109197857D01*
X156016428Y-109255000D01*
X155902142Y-109369286D01*
X155845000Y-109597857D01*
X155845000Y-109997857D01*
X155902142Y-110226429D01*
X156016428Y-110340714D01*
X156130714Y-110397857D01*
X156359285Y-110397857D01*
X156473571Y-110340714D01*
X156587857Y-110226429D01*
X156645000Y-109997857D01*
X156645000Y-109597857D01*
X156587857Y-109369286D01*
X156473571Y-109255000D01*
X156359285Y-109197857D01*
X157743571Y-102028571D02*
X157800714Y-102085714D01*
X157972143Y-102142857D01*
X158086429Y-102142857D01*
X158257857Y-102085714D01*
X158372143Y-101971429D01*
X158429286Y-101857143D01*
X158486429Y-101628571D01*
X158486429Y-101457143D01*
X158429286Y-101228571D01*
X158372143Y-101114286D01*
X158257857Y-101000000D01*
X158086429Y-100942857D01*
X157972143Y-100942857D01*
X157800714Y-101000000D01*
X157743571Y-101057143D01*
X172542143Y-109940714D02*
X171627857Y-109940714D01*
X172085000Y-110397857D02*
X172085000Y-109483571D01*
X171713571Y-105203571D02*
X171770714Y-105260714D01*
X171942143Y-105317857D01*
X172056429Y-105317857D01*
X172227857Y-105260714D01*
X172342143Y-105146429D01*
X172399286Y-105032143D01*
X172456429Y-104803571D01*
X172456429Y-104632143D01*
X172399286Y-104403571D01*
X172342143Y-104289286D01*
X172227857Y-104175000D01*
X172056429Y-104117857D01*
X171942143Y-104117857D01*
X171770714Y-104175000D01*
X171713571Y-104232143D01*
X157302143Y-115655714D02*
X156387857Y-115655714D01*
X172542143Y-128355714D02*
X171627857Y-128355714D01*
X172085000Y-128812857D02*
X172085000Y-127898571D01*
X172685000Y-133892857D02*
X172685000Y-132692857D01*
X172399285Y-132692857D01*
X172227857Y-132750000D01*
X172113571Y-132864286D01*
X172056428Y-132978571D01*
X171999285Y-133207143D01*
X171999285Y-133378571D01*
X172056428Y-133607143D01*
X172113571Y-133721429D01*
X172227857Y-133835714D01*
X172399285Y-133892857D01*
X172685000Y-133892857D01*
X171485000Y-133892857D02*
X171485000Y-132692857D01*
X169367143Y-135340714D02*
X168452857Y-135340714D01*
X171713571Y-123618571D02*
X171770714Y-123675714D01*
X171942143Y-123732857D01*
X172056429Y-123732857D01*
X172227857Y-123675714D01*
X172342143Y-123561429D01*
X172399286Y-123447143D01*
X172456429Y-123218571D01*
X172456429Y-123047143D01*
X172399286Y-122818571D01*
X172342143Y-122704286D01*
X172227857Y-122590000D01*
X172056429Y-122532857D01*
X171942143Y-122532857D01*
X171770714Y-122590000D01*
X171713571Y-122647143D01*
X157302143Y-134070714D02*
X156387857Y-134070714D01*
X159648571Y-135797857D02*
X160048571Y-135226429D01*
X160334286Y-135797857D02*
X160334286Y-134597857D01*
X159877143Y-134597857D01*
X159762857Y-134655000D01*
X159705714Y-134712143D01*
X159648571Y-134826429D01*
X159648571Y-134997857D01*
X159705714Y-135112143D01*
X159762857Y-135169286D01*
X159877143Y-135226429D01*
X160334286Y-135226429D01*
X157787857Y-128812857D02*
X157787857Y-127612857D01*
X157502142Y-127612857D01*
X157330714Y-127670000D01*
X157216428Y-127784286D01*
X157159285Y-127898571D01*
X157102142Y-128127143D01*
X157102142Y-128298571D01*
X157159285Y-128527143D01*
X157216428Y-128641429D01*
X157330714Y-128755714D01*
X157502142Y-128812857D01*
X157787857Y-128812857D01*
X156359285Y-127612857D02*
X156130714Y-127612857D01*
X156016428Y-127670000D01*
X155902142Y-127784286D01*
X155845000Y-128012857D01*
X155845000Y-128412857D01*
X155902142Y-128641429D01*
X156016428Y-128755714D01*
X156130714Y-128812857D01*
X156359285Y-128812857D01*
X156473571Y-128755714D01*
X156587857Y-128641429D01*
X156645000Y-128412857D01*
X156645000Y-128012857D01*
X156587857Y-127784286D01*
X156473571Y-127670000D01*
X156359285Y-127612857D01*
X159648571Y-117382857D02*
X160048571Y-116811429D01*
X160334286Y-117382857D02*
X160334286Y-116182857D01*
X159877143Y-116182857D01*
X159762857Y-116240000D01*
X159705714Y-116297143D01*
X159648571Y-116411429D01*
X159648571Y-116582857D01*
X159705714Y-116697143D01*
X159762857Y-116754286D01*
X159877143Y-116811429D01*
X160334286Y-116811429D01*
X159902571Y-120557857D02*
X160302571Y-119986429D01*
X160588286Y-120557857D02*
X160588286Y-119357857D01*
X160131143Y-119357857D01*
X160016857Y-119415000D01*
X159959714Y-119472143D01*
X159902571Y-119586429D01*
X159902571Y-119757857D01*
X159959714Y-119872143D01*
X160016857Y-119929286D01*
X160131143Y-119986429D01*
X160588286Y-119986429D01*
X172685000Y-115477857D02*
X172685000Y-114277857D01*
X172399285Y-114277857D01*
X172227857Y-114335000D01*
X172113571Y-114449286D01*
X172056428Y-114563571D01*
X171999285Y-114792143D01*
X171999285Y-114963571D01*
X172056428Y-115192143D01*
X172113571Y-115306429D01*
X172227857Y-115420714D01*
X172399285Y-115477857D01*
X172685000Y-115477857D01*
X171485000Y-115477857D02*
X171485000Y-114277857D01*
X169367143Y-116925714D02*
X168452857Y-116925714D01*
X157302143Y-122640714D02*
X156387857Y-122640714D01*
X156845000Y-123097857D02*
X156845000Y-122183571D01*
X157743571Y-120443571D02*
X157800714Y-120500714D01*
X157972143Y-120557857D01*
X158086429Y-120557857D01*
X158257857Y-120500714D01*
X158372143Y-120386429D01*
X158429286Y-120272143D01*
X158486429Y-120043571D01*
X158486429Y-119872143D01*
X158429286Y-119643571D01*
X158372143Y-119529286D01*
X158257857Y-119415000D01*
X158086429Y-119357857D01*
X157972143Y-119357857D01*
X157800714Y-119415000D01*
X157743571Y-119472143D01*
X138887143Y-134070714D02*
X137972857Y-134070714D01*
X120472143Y-134070714D02*
X119557857Y-134070714D01*
X102057143Y-134070714D02*
X101142857Y-134070714D01*
X83642143Y-134070714D02*
X82727857Y-134070714D01*
X138887143Y-115655714D02*
X137972857Y-115655714D01*
X120472143Y-115655714D02*
X119557857Y-115655714D01*
X102057143Y-115655714D02*
X101142857Y-115655714D01*
X83642143Y-115655714D02*
X82727857Y-115655714D01*
X138887143Y-97240714D02*
X137972857Y-97240714D01*
X120472143Y-97240714D02*
X119557857Y-97240714D01*
X102057143Y-97240714D02*
X101142857Y-97240714D01*
X83642143Y-97240714D02*
X82727857Y-97240714D01*
X138887143Y-78825714D02*
X137972857Y-78825714D01*
X120472143Y-78825714D02*
X119557857Y-78825714D01*
X102057143Y-78825714D02*
X101142857Y-78825714D01*
X83642143Y-78825714D02*
X82727857Y-78825714D01*
X138887143Y-60410714D02*
X137972857Y-60410714D01*
X120472143Y-60410714D02*
X119557857Y-60410714D01*
X102057143Y-60410714D02*
X101142857Y-60410714D01*
X141233571Y-135797857D02*
X141633571Y-135226429D01*
X141919286Y-135797857D02*
X141919286Y-134597857D01*
X141462143Y-134597857D01*
X141347857Y-134655000D01*
X141290714Y-134712143D01*
X141233571Y-134826429D01*
X141233571Y-134997857D01*
X141290714Y-135112143D01*
X141347857Y-135169286D01*
X141462143Y-135226429D01*
X141919286Y-135226429D01*
X122818571Y-135797857D02*
X123218571Y-135226429D01*
X123504286Y-135797857D02*
X123504286Y-134597857D01*
X123047143Y-134597857D01*
X122932857Y-134655000D01*
X122875714Y-134712143D01*
X122818571Y-134826429D01*
X122818571Y-134997857D01*
X122875714Y-135112143D01*
X122932857Y-135169286D01*
X123047143Y-135226429D01*
X123504286Y-135226429D01*
X104403571Y-135797857D02*
X104803571Y-135226429D01*
X105089286Y-135797857D02*
X105089286Y-134597857D01*
X104632143Y-134597857D01*
X104517857Y-134655000D01*
X104460714Y-134712143D01*
X104403571Y-134826429D01*
X104403571Y-134997857D01*
X104460714Y-135112143D01*
X104517857Y-135169286D01*
X104632143Y-135226429D01*
X105089286Y-135226429D01*
X85988571Y-135797857D02*
X86388571Y-135226429D01*
X86674286Y-135797857D02*
X86674286Y-134597857D01*
X86217143Y-134597857D01*
X86102857Y-134655000D01*
X86045714Y-134712143D01*
X85988571Y-134826429D01*
X85988571Y-134997857D01*
X86045714Y-135112143D01*
X86102857Y-135169286D01*
X86217143Y-135226429D01*
X86674286Y-135226429D01*
X141233571Y-117382857D02*
X141633571Y-116811429D01*
X141919286Y-117382857D02*
X141919286Y-116182857D01*
X141462143Y-116182857D01*
X141347857Y-116240000D01*
X141290714Y-116297143D01*
X141233571Y-116411429D01*
X141233571Y-116582857D01*
X141290714Y-116697143D01*
X141347857Y-116754286D01*
X141462143Y-116811429D01*
X141919286Y-116811429D01*
X122818571Y-117382857D02*
X123218571Y-116811429D01*
X123504286Y-117382857D02*
X123504286Y-116182857D01*
X123047143Y-116182857D01*
X122932857Y-116240000D01*
X122875714Y-116297143D01*
X122818571Y-116411429D01*
X122818571Y-116582857D01*
X122875714Y-116697143D01*
X122932857Y-116754286D01*
X123047143Y-116811429D01*
X123504286Y-116811429D01*
X104403571Y-117382857D02*
X104803571Y-116811429D01*
X105089286Y-117382857D02*
X105089286Y-116182857D01*
X104632143Y-116182857D01*
X104517857Y-116240000D01*
X104460714Y-116297143D01*
X104403571Y-116411429D01*
X104403571Y-116582857D01*
X104460714Y-116697143D01*
X104517857Y-116754286D01*
X104632143Y-116811429D01*
X105089286Y-116811429D01*
X85988571Y-117382857D02*
X86388571Y-116811429D01*
X86674286Y-117382857D02*
X86674286Y-116182857D01*
X86217143Y-116182857D01*
X86102857Y-116240000D01*
X86045714Y-116297143D01*
X85988571Y-116411429D01*
X85988571Y-116582857D01*
X86045714Y-116697143D01*
X86102857Y-116754286D01*
X86217143Y-116811429D01*
X86674286Y-116811429D01*
X141233571Y-98967857D02*
X141633571Y-98396429D01*
X141919286Y-98967857D02*
X141919286Y-97767857D01*
X141462143Y-97767857D01*
X141347857Y-97825000D01*
X141290714Y-97882143D01*
X141233571Y-97996429D01*
X141233571Y-98167857D01*
X141290714Y-98282143D01*
X141347857Y-98339286D01*
X141462143Y-98396429D01*
X141919286Y-98396429D01*
X122818571Y-98967857D02*
X123218571Y-98396429D01*
X123504286Y-98967857D02*
X123504286Y-97767857D01*
X123047143Y-97767857D01*
X122932857Y-97825000D01*
X122875714Y-97882143D01*
X122818571Y-97996429D01*
X122818571Y-98167857D01*
X122875714Y-98282143D01*
X122932857Y-98339286D01*
X123047143Y-98396429D01*
X123504286Y-98396429D01*
X104403571Y-98967857D02*
X104803571Y-98396429D01*
X105089286Y-98967857D02*
X105089286Y-97767857D01*
X104632143Y-97767857D01*
X104517857Y-97825000D01*
X104460714Y-97882143D01*
X104403571Y-97996429D01*
X104403571Y-98167857D01*
X104460714Y-98282143D01*
X104517857Y-98339286D01*
X104632143Y-98396429D01*
X105089286Y-98396429D01*
X85988571Y-98967857D02*
X86388571Y-98396429D01*
X86674286Y-98967857D02*
X86674286Y-97767857D01*
X86217143Y-97767857D01*
X86102857Y-97825000D01*
X86045714Y-97882143D01*
X85988571Y-97996429D01*
X85988571Y-98167857D01*
X86045714Y-98282143D01*
X86102857Y-98339286D01*
X86217143Y-98396429D01*
X86674286Y-98396429D01*
X141233571Y-80552857D02*
X141633571Y-79981429D01*
X141919286Y-80552857D02*
X141919286Y-79352857D01*
X141462143Y-79352857D01*
X141347857Y-79410000D01*
X141290714Y-79467143D01*
X141233571Y-79581429D01*
X141233571Y-79752857D01*
X141290714Y-79867143D01*
X141347857Y-79924286D01*
X141462143Y-79981429D01*
X141919286Y-79981429D01*
X122818571Y-80552857D02*
X123218571Y-79981429D01*
X123504286Y-80552857D02*
X123504286Y-79352857D01*
X123047143Y-79352857D01*
X122932857Y-79410000D01*
X122875714Y-79467143D01*
X122818571Y-79581429D01*
X122818571Y-79752857D01*
X122875714Y-79867143D01*
X122932857Y-79924286D01*
X123047143Y-79981429D01*
X123504286Y-79981429D01*
X104403571Y-80552857D02*
X104803571Y-79981429D01*
X105089286Y-80552857D02*
X105089286Y-79352857D01*
X104632143Y-79352857D01*
X104517857Y-79410000D01*
X104460714Y-79467143D01*
X104403571Y-79581429D01*
X104403571Y-79752857D01*
X104460714Y-79867143D01*
X104517857Y-79924286D01*
X104632143Y-79981429D01*
X105089286Y-79981429D01*
X85988571Y-80552857D02*
X86388571Y-79981429D01*
X86674286Y-80552857D02*
X86674286Y-79352857D01*
X86217143Y-79352857D01*
X86102857Y-79410000D01*
X86045714Y-79467143D01*
X85988571Y-79581429D01*
X85988571Y-79752857D01*
X86045714Y-79867143D01*
X86102857Y-79924286D01*
X86217143Y-79981429D01*
X86674286Y-79981429D01*
X141233571Y-62137857D02*
X141633571Y-61566429D01*
X141919286Y-62137857D02*
X141919286Y-60937857D01*
X141462143Y-60937857D01*
X141347857Y-60995000D01*
X141290714Y-61052143D01*
X141233571Y-61166429D01*
X141233571Y-61337857D01*
X141290714Y-61452143D01*
X141347857Y-61509286D01*
X141462143Y-61566429D01*
X141919286Y-61566429D01*
X122818571Y-62137857D02*
X123218571Y-61566429D01*
X123504286Y-62137857D02*
X123504286Y-60937857D01*
X123047143Y-60937857D01*
X122932857Y-60995000D01*
X122875714Y-61052143D01*
X122818571Y-61166429D01*
X122818571Y-61337857D01*
X122875714Y-61452143D01*
X122932857Y-61509286D01*
X123047143Y-61566429D01*
X123504286Y-61566429D01*
X104403571Y-62137857D02*
X104803571Y-61566429D01*
X105089286Y-62137857D02*
X105089286Y-60937857D01*
X104632143Y-60937857D01*
X104517857Y-60995000D01*
X104460714Y-61052143D01*
X104403571Y-61166429D01*
X104403571Y-61337857D01*
X104460714Y-61452143D01*
X104517857Y-61509286D01*
X104632143Y-61566429D01*
X105089286Y-61566429D01*
X138887143Y-122640714D02*
X137972857Y-122640714D01*
X138430000Y-123097857D02*
X138430000Y-122183571D01*
X120472143Y-122640714D02*
X119557857Y-122640714D01*
X120015000Y-123097857D02*
X120015000Y-122183571D01*
X102057143Y-122640714D02*
X101142857Y-122640714D01*
X101600000Y-123097857D02*
X101600000Y-122183571D01*
X83642143Y-122640714D02*
X82727857Y-122640714D01*
X83185000Y-123097857D02*
X83185000Y-122183571D01*
X138887143Y-104225714D02*
X137972857Y-104225714D01*
X138430000Y-104682857D02*
X138430000Y-103768571D01*
X120472143Y-104225714D02*
X119557857Y-104225714D01*
X120015000Y-104682857D02*
X120015000Y-103768571D01*
X102057143Y-104225714D02*
X101142857Y-104225714D01*
X101600000Y-104682857D02*
X101600000Y-103768571D01*
X83642143Y-104225714D02*
X82727857Y-104225714D01*
X83185000Y-104682857D02*
X83185000Y-103768571D01*
X138887143Y-85810714D02*
X137972857Y-85810714D01*
X138430000Y-86267857D02*
X138430000Y-85353571D01*
X120472143Y-85810714D02*
X119557857Y-85810714D01*
X120015000Y-86267857D02*
X120015000Y-85353571D01*
X102057143Y-85810714D02*
X101142857Y-85810714D01*
X101600000Y-86267857D02*
X101600000Y-85353571D01*
X83642143Y-85810714D02*
X82727857Y-85810714D01*
X83185000Y-86267857D02*
X83185000Y-85353571D01*
X138887143Y-67395714D02*
X137972857Y-67395714D01*
X138430000Y-67852857D02*
X138430000Y-66938571D01*
X120472143Y-67395714D02*
X119557857Y-67395714D01*
X120015000Y-67852857D02*
X120015000Y-66938571D01*
X102057143Y-67395714D02*
X101142857Y-67395714D01*
X101600000Y-67852857D02*
X101600000Y-66938571D01*
X83642143Y-67395714D02*
X82727857Y-67395714D01*
X83185000Y-67852857D02*
X83185000Y-66938571D01*
X138887143Y-48980714D02*
X137972857Y-48980714D01*
X138430000Y-49437857D02*
X138430000Y-48523571D01*
X120472143Y-48980714D02*
X119557857Y-48980714D01*
X120015000Y-49437857D02*
X120015000Y-48523571D01*
X102057143Y-48980714D02*
X101142857Y-48980714D01*
X101600000Y-49437857D02*
X101600000Y-48523571D01*
X139328571Y-120443571D02*
X139385714Y-120500714D01*
X139557143Y-120557857D01*
X139671429Y-120557857D01*
X139842857Y-120500714D01*
X139957143Y-120386429D01*
X140014286Y-120272143D01*
X140071429Y-120043571D01*
X140071429Y-119872143D01*
X140014286Y-119643571D01*
X139957143Y-119529286D01*
X139842857Y-119415000D01*
X139671429Y-119357857D01*
X139557143Y-119357857D01*
X139385714Y-119415000D01*
X139328571Y-119472143D01*
X120913571Y-120443571D02*
X120970714Y-120500714D01*
X121142143Y-120557857D01*
X121256429Y-120557857D01*
X121427857Y-120500714D01*
X121542143Y-120386429D01*
X121599286Y-120272143D01*
X121656429Y-120043571D01*
X121656429Y-119872143D01*
X121599286Y-119643571D01*
X121542143Y-119529286D01*
X121427857Y-119415000D01*
X121256429Y-119357857D01*
X121142143Y-119357857D01*
X120970714Y-119415000D01*
X120913571Y-119472143D01*
X102498571Y-120443571D02*
X102555714Y-120500714D01*
X102727143Y-120557857D01*
X102841429Y-120557857D01*
X103012857Y-120500714D01*
X103127143Y-120386429D01*
X103184286Y-120272143D01*
X103241429Y-120043571D01*
X103241429Y-119872143D01*
X103184286Y-119643571D01*
X103127143Y-119529286D01*
X103012857Y-119415000D01*
X102841429Y-119357857D01*
X102727143Y-119357857D01*
X102555714Y-119415000D01*
X102498571Y-119472143D01*
X84083571Y-120443571D02*
X84140714Y-120500714D01*
X84312143Y-120557857D01*
X84426429Y-120557857D01*
X84597857Y-120500714D01*
X84712143Y-120386429D01*
X84769286Y-120272143D01*
X84826429Y-120043571D01*
X84826429Y-119872143D01*
X84769286Y-119643571D01*
X84712143Y-119529286D01*
X84597857Y-119415000D01*
X84426429Y-119357857D01*
X84312143Y-119357857D01*
X84140714Y-119415000D01*
X84083571Y-119472143D01*
X139328571Y-102028571D02*
X139385714Y-102085714D01*
X139557143Y-102142857D01*
X139671429Y-102142857D01*
X139842857Y-102085714D01*
X139957143Y-101971429D01*
X140014286Y-101857143D01*
X140071429Y-101628571D01*
X140071429Y-101457143D01*
X140014286Y-101228571D01*
X139957143Y-101114286D01*
X139842857Y-101000000D01*
X139671429Y-100942857D01*
X139557143Y-100942857D01*
X139385714Y-101000000D01*
X139328571Y-101057143D01*
X120913571Y-102028571D02*
X120970714Y-102085714D01*
X121142143Y-102142857D01*
X121256429Y-102142857D01*
X121427857Y-102085714D01*
X121542143Y-101971429D01*
X121599286Y-101857143D01*
X121656429Y-101628571D01*
X121656429Y-101457143D01*
X121599286Y-101228571D01*
X121542143Y-101114286D01*
X121427857Y-101000000D01*
X121256429Y-100942857D01*
X121142143Y-100942857D01*
X120970714Y-101000000D01*
X120913571Y-101057143D01*
X102498571Y-102028571D02*
X102555714Y-102085714D01*
X102727143Y-102142857D01*
X102841429Y-102142857D01*
X103012857Y-102085714D01*
X103127143Y-101971429D01*
X103184286Y-101857143D01*
X103241429Y-101628571D01*
X103241429Y-101457143D01*
X103184286Y-101228571D01*
X103127143Y-101114286D01*
X103012857Y-101000000D01*
X102841429Y-100942857D01*
X102727143Y-100942857D01*
X102555714Y-101000000D01*
X102498571Y-101057143D01*
X84083571Y-102028571D02*
X84140714Y-102085714D01*
X84312143Y-102142857D01*
X84426429Y-102142857D01*
X84597857Y-102085714D01*
X84712143Y-101971429D01*
X84769286Y-101857143D01*
X84826429Y-101628571D01*
X84826429Y-101457143D01*
X84769286Y-101228571D01*
X84712143Y-101114286D01*
X84597857Y-101000000D01*
X84426429Y-100942857D01*
X84312143Y-100942857D01*
X84140714Y-101000000D01*
X84083571Y-101057143D01*
X139328571Y-83613571D02*
X139385714Y-83670714D01*
X139557143Y-83727857D01*
X139671429Y-83727857D01*
X139842857Y-83670714D01*
X139957143Y-83556429D01*
X140014286Y-83442143D01*
X140071429Y-83213571D01*
X140071429Y-83042143D01*
X140014286Y-82813571D01*
X139957143Y-82699286D01*
X139842857Y-82585000D01*
X139671429Y-82527857D01*
X139557143Y-82527857D01*
X139385714Y-82585000D01*
X139328571Y-82642143D01*
X120913571Y-83613571D02*
X120970714Y-83670714D01*
X121142143Y-83727857D01*
X121256429Y-83727857D01*
X121427857Y-83670714D01*
X121542143Y-83556429D01*
X121599286Y-83442143D01*
X121656429Y-83213571D01*
X121656429Y-83042143D01*
X121599286Y-82813571D01*
X121542143Y-82699286D01*
X121427857Y-82585000D01*
X121256429Y-82527857D01*
X121142143Y-82527857D01*
X120970714Y-82585000D01*
X120913571Y-82642143D01*
X102498571Y-83613571D02*
X102555714Y-83670714D01*
X102727143Y-83727857D01*
X102841429Y-83727857D01*
X103012857Y-83670714D01*
X103127143Y-83556429D01*
X103184286Y-83442143D01*
X103241429Y-83213571D01*
X103241429Y-83042143D01*
X103184286Y-82813571D01*
X103127143Y-82699286D01*
X103012857Y-82585000D01*
X102841429Y-82527857D01*
X102727143Y-82527857D01*
X102555714Y-82585000D01*
X102498571Y-82642143D01*
X84083571Y-83613571D02*
X84140714Y-83670714D01*
X84312143Y-83727857D01*
X84426429Y-83727857D01*
X84597857Y-83670714D01*
X84712143Y-83556429D01*
X84769286Y-83442143D01*
X84826429Y-83213571D01*
X84826429Y-83042143D01*
X84769286Y-82813571D01*
X84712143Y-82699286D01*
X84597857Y-82585000D01*
X84426429Y-82527857D01*
X84312143Y-82527857D01*
X84140714Y-82585000D01*
X84083571Y-82642143D01*
X139328571Y-65198571D02*
X139385714Y-65255714D01*
X139557143Y-65312857D01*
X139671429Y-65312857D01*
X139842857Y-65255714D01*
X139957143Y-65141429D01*
X140014286Y-65027143D01*
X140071429Y-64798571D01*
X140071429Y-64627143D01*
X140014286Y-64398571D01*
X139957143Y-64284286D01*
X139842857Y-64170000D01*
X139671429Y-64112857D01*
X139557143Y-64112857D01*
X139385714Y-64170000D01*
X139328571Y-64227143D01*
X120913571Y-65198571D02*
X120970714Y-65255714D01*
X121142143Y-65312857D01*
X121256429Y-65312857D01*
X121427857Y-65255714D01*
X121542143Y-65141429D01*
X121599286Y-65027143D01*
X121656429Y-64798571D01*
X121656429Y-64627143D01*
X121599286Y-64398571D01*
X121542143Y-64284286D01*
X121427857Y-64170000D01*
X121256429Y-64112857D01*
X121142143Y-64112857D01*
X120970714Y-64170000D01*
X120913571Y-64227143D01*
X102498571Y-65198571D02*
X102555714Y-65255714D01*
X102727143Y-65312857D01*
X102841429Y-65312857D01*
X103012857Y-65255714D01*
X103127143Y-65141429D01*
X103184286Y-65027143D01*
X103241429Y-64798571D01*
X103241429Y-64627143D01*
X103184286Y-64398571D01*
X103127143Y-64284286D01*
X103012857Y-64170000D01*
X102841429Y-64112857D01*
X102727143Y-64112857D01*
X102555714Y-64170000D01*
X102498571Y-64227143D01*
X84083571Y-65198571D02*
X84140714Y-65255714D01*
X84312143Y-65312857D01*
X84426429Y-65312857D01*
X84597857Y-65255714D01*
X84712143Y-65141429D01*
X84769286Y-65027143D01*
X84826429Y-64798571D01*
X84826429Y-64627143D01*
X84769286Y-64398571D01*
X84712143Y-64284286D01*
X84597857Y-64170000D01*
X84426429Y-64112857D01*
X84312143Y-64112857D01*
X84140714Y-64170000D01*
X84083571Y-64227143D01*
X139328571Y-46783571D02*
X139385714Y-46840714D01*
X139557143Y-46897857D01*
X139671429Y-46897857D01*
X139842857Y-46840714D01*
X139957143Y-46726429D01*
X140014286Y-46612143D01*
X140071429Y-46383571D01*
X140071429Y-46212143D01*
X140014286Y-45983571D01*
X139957143Y-45869286D01*
X139842857Y-45755000D01*
X139671429Y-45697857D01*
X139557143Y-45697857D01*
X139385714Y-45755000D01*
X139328571Y-45812143D01*
X120913571Y-46783571D02*
X120970714Y-46840714D01*
X121142143Y-46897857D01*
X121256429Y-46897857D01*
X121427857Y-46840714D01*
X121542143Y-46726429D01*
X121599286Y-46612143D01*
X121656429Y-46383571D01*
X121656429Y-46212143D01*
X121599286Y-45983571D01*
X121542143Y-45869286D01*
X121427857Y-45755000D01*
X121256429Y-45697857D01*
X121142143Y-45697857D01*
X120970714Y-45755000D01*
X120913571Y-45812143D01*
X102498571Y-46783571D02*
X102555714Y-46840714D01*
X102727143Y-46897857D01*
X102841429Y-46897857D01*
X103012857Y-46840714D01*
X103127143Y-46726429D01*
X103184286Y-46612143D01*
X103241429Y-46383571D01*
X103241429Y-46212143D01*
X103184286Y-45983571D01*
X103127143Y-45869286D01*
X103012857Y-45755000D01*
X102841429Y-45697857D01*
X102727143Y-45697857D01*
X102555714Y-45755000D01*
X102498571Y-45812143D01*
X141487571Y-120557857D02*
X141887571Y-119986429D01*
X142173286Y-120557857D02*
X142173286Y-119357857D01*
X141716143Y-119357857D01*
X141601857Y-119415000D01*
X141544714Y-119472143D01*
X141487571Y-119586429D01*
X141487571Y-119757857D01*
X141544714Y-119872143D01*
X141601857Y-119929286D01*
X141716143Y-119986429D01*
X142173286Y-119986429D01*
X123072571Y-120557857D02*
X123472571Y-119986429D01*
X123758286Y-120557857D02*
X123758286Y-119357857D01*
X123301143Y-119357857D01*
X123186857Y-119415000D01*
X123129714Y-119472143D01*
X123072571Y-119586429D01*
X123072571Y-119757857D01*
X123129714Y-119872143D01*
X123186857Y-119929286D01*
X123301143Y-119986429D01*
X123758286Y-119986429D01*
X104657571Y-120557857D02*
X105057571Y-119986429D01*
X105343286Y-120557857D02*
X105343286Y-119357857D01*
X104886143Y-119357857D01*
X104771857Y-119415000D01*
X104714714Y-119472143D01*
X104657571Y-119586429D01*
X104657571Y-119757857D01*
X104714714Y-119872143D01*
X104771857Y-119929286D01*
X104886143Y-119986429D01*
X105343286Y-119986429D01*
X86242571Y-120557857D02*
X86642571Y-119986429D01*
X86928286Y-120557857D02*
X86928286Y-119357857D01*
X86471143Y-119357857D01*
X86356857Y-119415000D01*
X86299714Y-119472143D01*
X86242571Y-119586429D01*
X86242571Y-119757857D01*
X86299714Y-119872143D01*
X86356857Y-119929286D01*
X86471143Y-119986429D01*
X86928286Y-119986429D01*
X141487571Y-102142857D02*
X141887571Y-101571429D01*
X142173286Y-102142857D02*
X142173286Y-100942857D01*
X141716143Y-100942857D01*
X141601857Y-101000000D01*
X141544714Y-101057143D01*
X141487571Y-101171429D01*
X141487571Y-101342857D01*
X141544714Y-101457143D01*
X141601857Y-101514286D01*
X141716143Y-101571429D01*
X142173286Y-101571429D01*
X123072571Y-102142857D02*
X123472571Y-101571429D01*
X123758286Y-102142857D02*
X123758286Y-100942857D01*
X123301143Y-100942857D01*
X123186857Y-101000000D01*
X123129714Y-101057143D01*
X123072571Y-101171429D01*
X123072571Y-101342857D01*
X123129714Y-101457143D01*
X123186857Y-101514286D01*
X123301143Y-101571429D01*
X123758286Y-101571429D01*
X104657571Y-102142857D02*
X105057571Y-101571429D01*
X105343286Y-102142857D02*
X105343286Y-100942857D01*
X104886143Y-100942857D01*
X104771857Y-101000000D01*
X104714714Y-101057143D01*
X104657571Y-101171429D01*
X104657571Y-101342857D01*
X104714714Y-101457143D01*
X104771857Y-101514286D01*
X104886143Y-101571429D01*
X105343286Y-101571429D01*
X86242571Y-102142857D02*
X86642571Y-101571429D01*
X86928286Y-102142857D02*
X86928286Y-100942857D01*
X86471143Y-100942857D01*
X86356857Y-101000000D01*
X86299714Y-101057143D01*
X86242571Y-101171429D01*
X86242571Y-101342857D01*
X86299714Y-101457143D01*
X86356857Y-101514286D01*
X86471143Y-101571429D01*
X86928286Y-101571429D01*
X141487571Y-83727857D02*
X141887571Y-83156429D01*
X142173286Y-83727857D02*
X142173286Y-82527857D01*
X141716143Y-82527857D01*
X141601857Y-82585000D01*
X141544714Y-82642143D01*
X141487571Y-82756429D01*
X141487571Y-82927857D01*
X141544714Y-83042143D01*
X141601857Y-83099286D01*
X141716143Y-83156429D01*
X142173286Y-83156429D01*
X123072571Y-83727857D02*
X123472571Y-83156429D01*
X123758286Y-83727857D02*
X123758286Y-82527857D01*
X123301143Y-82527857D01*
X123186857Y-82585000D01*
X123129714Y-82642143D01*
X123072571Y-82756429D01*
X123072571Y-82927857D01*
X123129714Y-83042143D01*
X123186857Y-83099286D01*
X123301143Y-83156429D01*
X123758286Y-83156429D01*
X104657571Y-83727857D02*
X105057571Y-83156429D01*
X105343286Y-83727857D02*
X105343286Y-82527857D01*
X104886143Y-82527857D01*
X104771857Y-82585000D01*
X104714714Y-82642143D01*
X104657571Y-82756429D01*
X104657571Y-82927857D01*
X104714714Y-83042143D01*
X104771857Y-83099286D01*
X104886143Y-83156429D01*
X105343286Y-83156429D01*
X86242571Y-83727857D02*
X86642571Y-83156429D01*
X86928286Y-83727857D02*
X86928286Y-82527857D01*
X86471143Y-82527857D01*
X86356857Y-82585000D01*
X86299714Y-82642143D01*
X86242571Y-82756429D01*
X86242571Y-82927857D01*
X86299714Y-83042143D01*
X86356857Y-83099286D01*
X86471143Y-83156429D01*
X86928286Y-83156429D01*
X141487571Y-65312857D02*
X141887571Y-64741429D01*
X142173286Y-65312857D02*
X142173286Y-64112857D01*
X141716143Y-64112857D01*
X141601857Y-64170000D01*
X141544714Y-64227143D01*
X141487571Y-64341429D01*
X141487571Y-64512857D01*
X141544714Y-64627143D01*
X141601857Y-64684286D01*
X141716143Y-64741429D01*
X142173286Y-64741429D01*
X123072571Y-65312857D02*
X123472571Y-64741429D01*
X123758286Y-65312857D02*
X123758286Y-64112857D01*
X123301143Y-64112857D01*
X123186857Y-64170000D01*
X123129714Y-64227143D01*
X123072571Y-64341429D01*
X123072571Y-64512857D01*
X123129714Y-64627143D01*
X123186857Y-64684286D01*
X123301143Y-64741429D01*
X123758286Y-64741429D01*
X104657571Y-65312857D02*
X105057571Y-64741429D01*
X105343286Y-65312857D02*
X105343286Y-64112857D01*
X104886143Y-64112857D01*
X104771857Y-64170000D01*
X104714714Y-64227143D01*
X104657571Y-64341429D01*
X104657571Y-64512857D01*
X104714714Y-64627143D01*
X104771857Y-64684286D01*
X104886143Y-64741429D01*
X105343286Y-64741429D01*
X86242571Y-65312857D02*
X86642571Y-64741429D01*
X86928286Y-65312857D02*
X86928286Y-64112857D01*
X86471143Y-64112857D01*
X86356857Y-64170000D01*
X86299714Y-64227143D01*
X86242571Y-64341429D01*
X86242571Y-64512857D01*
X86299714Y-64627143D01*
X86356857Y-64684286D01*
X86471143Y-64741429D01*
X86928286Y-64741429D01*
X141487571Y-46897857D02*
X141887571Y-46326429D01*
X142173286Y-46897857D02*
X142173286Y-45697857D01*
X141716143Y-45697857D01*
X141601857Y-45755000D01*
X141544714Y-45812143D01*
X141487571Y-45926429D01*
X141487571Y-46097857D01*
X141544714Y-46212143D01*
X141601857Y-46269286D01*
X141716143Y-46326429D01*
X142173286Y-46326429D01*
X123072571Y-46897857D02*
X123472571Y-46326429D01*
X123758286Y-46897857D02*
X123758286Y-45697857D01*
X123301143Y-45697857D01*
X123186857Y-45755000D01*
X123129714Y-45812143D01*
X123072571Y-45926429D01*
X123072571Y-46097857D01*
X123129714Y-46212143D01*
X123186857Y-46269286D01*
X123301143Y-46326429D01*
X123758286Y-46326429D01*
X104657571Y-46897857D02*
X105057571Y-46326429D01*
X105343286Y-46897857D02*
X105343286Y-45697857D01*
X104886143Y-45697857D01*
X104771857Y-45755000D01*
X104714714Y-45812143D01*
X104657571Y-45926429D01*
X104657571Y-46097857D01*
X104714714Y-46212143D01*
X104771857Y-46269286D01*
X104886143Y-46326429D01*
X105343286Y-46326429D01*
X139372857Y-128812857D02*
X139372857Y-127612857D01*
X139087142Y-127612857D01*
X138915714Y-127670000D01*
X138801428Y-127784286D01*
X138744285Y-127898571D01*
X138687142Y-128127143D01*
X138687142Y-128298571D01*
X138744285Y-128527143D01*
X138801428Y-128641429D01*
X138915714Y-128755714D01*
X139087142Y-128812857D01*
X139372857Y-128812857D01*
X137944285Y-127612857D02*
X137715714Y-127612857D01*
X137601428Y-127670000D01*
X137487142Y-127784286D01*
X137430000Y-128012857D01*
X137430000Y-128412857D01*
X137487142Y-128641429D01*
X137601428Y-128755714D01*
X137715714Y-128812857D01*
X137944285Y-128812857D01*
X138058571Y-128755714D01*
X138172857Y-128641429D01*
X138230000Y-128412857D01*
X138230000Y-128012857D01*
X138172857Y-127784286D01*
X138058571Y-127670000D01*
X137944285Y-127612857D01*
X120957857Y-128812857D02*
X120957857Y-127612857D01*
X120672142Y-127612857D01*
X120500714Y-127670000D01*
X120386428Y-127784286D01*
X120329285Y-127898571D01*
X120272142Y-128127143D01*
X120272142Y-128298571D01*
X120329285Y-128527143D01*
X120386428Y-128641429D01*
X120500714Y-128755714D01*
X120672142Y-128812857D01*
X120957857Y-128812857D01*
X119529285Y-127612857D02*
X119300714Y-127612857D01*
X119186428Y-127670000D01*
X119072142Y-127784286D01*
X119015000Y-128012857D01*
X119015000Y-128412857D01*
X119072142Y-128641429D01*
X119186428Y-128755714D01*
X119300714Y-128812857D01*
X119529285Y-128812857D01*
X119643571Y-128755714D01*
X119757857Y-128641429D01*
X119815000Y-128412857D01*
X119815000Y-128012857D01*
X119757857Y-127784286D01*
X119643571Y-127670000D01*
X119529285Y-127612857D01*
X102542857Y-128812857D02*
X102542857Y-127612857D01*
X102257142Y-127612857D01*
X102085714Y-127670000D01*
X101971428Y-127784286D01*
X101914285Y-127898571D01*
X101857142Y-128127143D01*
X101857142Y-128298571D01*
X101914285Y-128527143D01*
X101971428Y-128641429D01*
X102085714Y-128755714D01*
X102257142Y-128812857D01*
X102542857Y-128812857D01*
X101114285Y-127612857D02*
X100885714Y-127612857D01*
X100771428Y-127670000D01*
X100657142Y-127784286D01*
X100600000Y-128012857D01*
X100600000Y-128412857D01*
X100657142Y-128641429D01*
X100771428Y-128755714D01*
X100885714Y-128812857D01*
X101114285Y-128812857D01*
X101228571Y-128755714D01*
X101342857Y-128641429D01*
X101400000Y-128412857D01*
X101400000Y-128012857D01*
X101342857Y-127784286D01*
X101228571Y-127670000D01*
X101114285Y-127612857D01*
X84127857Y-128812857D02*
X84127857Y-127612857D01*
X83842142Y-127612857D01*
X83670714Y-127670000D01*
X83556428Y-127784286D01*
X83499285Y-127898571D01*
X83442142Y-128127143D01*
X83442142Y-128298571D01*
X83499285Y-128527143D01*
X83556428Y-128641429D01*
X83670714Y-128755714D01*
X83842142Y-128812857D01*
X84127857Y-128812857D01*
X82699285Y-127612857D02*
X82470714Y-127612857D01*
X82356428Y-127670000D01*
X82242142Y-127784286D01*
X82185000Y-128012857D01*
X82185000Y-128412857D01*
X82242142Y-128641429D01*
X82356428Y-128755714D01*
X82470714Y-128812857D01*
X82699285Y-128812857D01*
X82813571Y-128755714D01*
X82927857Y-128641429D01*
X82985000Y-128412857D01*
X82985000Y-128012857D01*
X82927857Y-127784286D01*
X82813571Y-127670000D01*
X82699285Y-127612857D01*
X139372857Y-110397857D02*
X139372857Y-109197857D01*
X139087142Y-109197857D01*
X138915714Y-109255000D01*
X138801428Y-109369286D01*
X138744285Y-109483571D01*
X138687142Y-109712143D01*
X138687142Y-109883571D01*
X138744285Y-110112143D01*
X138801428Y-110226429D01*
X138915714Y-110340714D01*
X139087142Y-110397857D01*
X139372857Y-110397857D01*
X137944285Y-109197857D02*
X137715714Y-109197857D01*
X137601428Y-109255000D01*
X137487142Y-109369286D01*
X137430000Y-109597857D01*
X137430000Y-109997857D01*
X137487142Y-110226429D01*
X137601428Y-110340714D01*
X137715714Y-110397857D01*
X137944285Y-110397857D01*
X138058571Y-110340714D01*
X138172857Y-110226429D01*
X138230000Y-109997857D01*
X138230000Y-109597857D01*
X138172857Y-109369286D01*
X138058571Y-109255000D01*
X137944285Y-109197857D01*
X120957857Y-110397857D02*
X120957857Y-109197857D01*
X120672142Y-109197857D01*
X120500714Y-109255000D01*
X120386428Y-109369286D01*
X120329285Y-109483571D01*
X120272142Y-109712143D01*
X120272142Y-109883571D01*
X120329285Y-110112143D01*
X120386428Y-110226429D01*
X120500714Y-110340714D01*
X120672142Y-110397857D01*
X120957857Y-110397857D01*
X119529285Y-109197857D02*
X119300714Y-109197857D01*
X119186428Y-109255000D01*
X119072142Y-109369286D01*
X119015000Y-109597857D01*
X119015000Y-109997857D01*
X119072142Y-110226429D01*
X119186428Y-110340714D01*
X119300714Y-110397857D01*
X119529285Y-110397857D01*
X119643571Y-110340714D01*
X119757857Y-110226429D01*
X119815000Y-109997857D01*
X119815000Y-109597857D01*
X119757857Y-109369286D01*
X119643571Y-109255000D01*
X119529285Y-109197857D01*
X102542857Y-110397857D02*
X102542857Y-109197857D01*
X102257142Y-109197857D01*
X102085714Y-109255000D01*
X101971428Y-109369286D01*
X101914285Y-109483571D01*
X101857142Y-109712143D01*
X101857142Y-109883571D01*
X101914285Y-110112143D01*
X101971428Y-110226429D01*
X102085714Y-110340714D01*
X102257142Y-110397857D01*
X102542857Y-110397857D01*
X101114285Y-109197857D02*
X100885714Y-109197857D01*
X100771428Y-109255000D01*
X100657142Y-109369286D01*
X100600000Y-109597857D01*
X100600000Y-109997857D01*
X100657142Y-110226429D01*
X100771428Y-110340714D01*
X100885714Y-110397857D01*
X101114285Y-110397857D01*
X101228571Y-110340714D01*
X101342857Y-110226429D01*
X101400000Y-109997857D01*
X101400000Y-109597857D01*
X101342857Y-109369286D01*
X101228571Y-109255000D01*
X101114285Y-109197857D01*
X84127857Y-110397857D02*
X84127857Y-109197857D01*
X83842142Y-109197857D01*
X83670714Y-109255000D01*
X83556428Y-109369286D01*
X83499285Y-109483571D01*
X83442142Y-109712143D01*
X83442142Y-109883571D01*
X83499285Y-110112143D01*
X83556428Y-110226429D01*
X83670714Y-110340714D01*
X83842142Y-110397857D01*
X84127857Y-110397857D01*
X82699285Y-109197857D02*
X82470714Y-109197857D01*
X82356428Y-109255000D01*
X82242142Y-109369286D01*
X82185000Y-109597857D01*
X82185000Y-109997857D01*
X82242142Y-110226429D01*
X82356428Y-110340714D01*
X82470714Y-110397857D01*
X82699285Y-110397857D01*
X82813571Y-110340714D01*
X82927857Y-110226429D01*
X82985000Y-109997857D01*
X82985000Y-109597857D01*
X82927857Y-109369286D01*
X82813571Y-109255000D01*
X82699285Y-109197857D01*
X139372857Y-91982857D02*
X139372857Y-90782857D01*
X139087142Y-90782857D01*
X138915714Y-90840000D01*
X138801428Y-90954286D01*
X138744285Y-91068571D01*
X138687142Y-91297143D01*
X138687142Y-91468571D01*
X138744285Y-91697143D01*
X138801428Y-91811429D01*
X138915714Y-91925714D01*
X139087142Y-91982857D01*
X139372857Y-91982857D01*
X137944285Y-90782857D02*
X137715714Y-90782857D01*
X137601428Y-90840000D01*
X137487142Y-90954286D01*
X137430000Y-91182857D01*
X137430000Y-91582857D01*
X137487142Y-91811429D01*
X137601428Y-91925714D01*
X137715714Y-91982857D01*
X137944285Y-91982857D01*
X138058571Y-91925714D01*
X138172857Y-91811429D01*
X138230000Y-91582857D01*
X138230000Y-91182857D01*
X138172857Y-90954286D01*
X138058571Y-90840000D01*
X137944285Y-90782857D01*
X120957857Y-91982857D02*
X120957857Y-90782857D01*
X120672142Y-90782857D01*
X120500714Y-90840000D01*
X120386428Y-90954286D01*
X120329285Y-91068571D01*
X120272142Y-91297143D01*
X120272142Y-91468571D01*
X120329285Y-91697143D01*
X120386428Y-91811429D01*
X120500714Y-91925714D01*
X120672142Y-91982857D01*
X120957857Y-91982857D01*
X119529285Y-90782857D02*
X119300714Y-90782857D01*
X119186428Y-90840000D01*
X119072142Y-90954286D01*
X119015000Y-91182857D01*
X119015000Y-91582857D01*
X119072142Y-91811429D01*
X119186428Y-91925714D01*
X119300714Y-91982857D01*
X119529285Y-91982857D01*
X119643571Y-91925714D01*
X119757857Y-91811429D01*
X119815000Y-91582857D01*
X119815000Y-91182857D01*
X119757857Y-90954286D01*
X119643571Y-90840000D01*
X119529285Y-90782857D01*
X102542857Y-91982857D02*
X102542857Y-90782857D01*
X102257142Y-90782857D01*
X102085714Y-90840000D01*
X101971428Y-90954286D01*
X101914285Y-91068571D01*
X101857142Y-91297143D01*
X101857142Y-91468571D01*
X101914285Y-91697143D01*
X101971428Y-91811429D01*
X102085714Y-91925714D01*
X102257142Y-91982857D01*
X102542857Y-91982857D01*
X101114285Y-90782857D02*
X100885714Y-90782857D01*
X100771428Y-90840000D01*
X100657142Y-90954286D01*
X100600000Y-91182857D01*
X100600000Y-91582857D01*
X100657142Y-91811429D01*
X100771428Y-91925714D01*
X100885714Y-91982857D01*
X101114285Y-91982857D01*
X101228571Y-91925714D01*
X101342857Y-91811429D01*
X101400000Y-91582857D01*
X101400000Y-91182857D01*
X101342857Y-90954286D01*
X101228571Y-90840000D01*
X101114285Y-90782857D01*
X84127857Y-91982857D02*
X84127857Y-90782857D01*
X83842142Y-90782857D01*
X83670714Y-90840000D01*
X83556428Y-90954286D01*
X83499285Y-91068571D01*
X83442142Y-91297143D01*
X83442142Y-91468571D01*
X83499285Y-91697143D01*
X83556428Y-91811429D01*
X83670714Y-91925714D01*
X83842142Y-91982857D01*
X84127857Y-91982857D01*
X82699285Y-90782857D02*
X82470714Y-90782857D01*
X82356428Y-90840000D01*
X82242142Y-90954286D01*
X82185000Y-91182857D01*
X82185000Y-91582857D01*
X82242142Y-91811429D01*
X82356428Y-91925714D01*
X82470714Y-91982857D01*
X82699285Y-91982857D01*
X82813571Y-91925714D01*
X82927857Y-91811429D01*
X82985000Y-91582857D01*
X82985000Y-91182857D01*
X82927857Y-90954286D01*
X82813571Y-90840000D01*
X82699285Y-90782857D01*
X139372857Y-73567857D02*
X139372857Y-72367857D01*
X139087142Y-72367857D01*
X138915714Y-72425000D01*
X138801428Y-72539286D01*
X138744285Y-72653571D01*
X138687142Y-72882143D01*
X138687142Y-73053571D01*
X138744285Y-73282143D01*
X138801428Y-73396429D01*
X138915714Y-73510714D01*
X139087142Y-73567857D01*
X139372857Y-73567857D01*
X137944285Y-72367857D02*
X137715714Y-72367857D01*
X137601428Y-72425000D01*
X137487142Y-72539286D01*
X137430000Y-72767857D01*
X137430000Y-73167857D01*
X137487142Y-73396429D01*
X137601428Y-73510714D01*
X137715714Y-73567857D01*
X137944285Y-73567857D01*
X138058571Y-73510714D01*
X138172857Y-73396429D01*
X138230000Y-73167857D01*
X138230000Y-72767857D01*
X138172857Y-72539286D01*
X138058571Y-72425000D01*
X137944285Y-72367857D01*
X120957857Y-73567857D02*
X120957857Y-72367857D01*
X120672142Y-72367857D01*
X120500714Y-72425000D01*
X120386428Y-72539286D01*
X120329285Y-72653571D01*
X120272142Y-72882143D01*
X120272142Y-73053571D01*
X120329285Y-73282143D01*
X120386428Y-73396429D01*
X120500714Y-73510714D01*
X120672142Y-73567857D01*
X120957857Y-73567857D01*
X119529285Y-72367857D02*
X119300714Y-72367857D01*
X119186428Y-72425000D01*
X119072142Y-72539286D01*
X119015000Y-72767857D01*
X119015000Y-73167857D01*
X119072142Y-73396429D01*
X119186428Y-73510714D01*
X119300714Y-73567857D01*
X119529285Y-73567857D01*
X119643571Y-73510714D01*
X119757857Y-73396429D01*
X119815000Y-73167857D01*
X119815000Y-72767857D01*
X119757857Y-72539286D01*
X119643571Y-72425000D01*
X119529285Y-72367857D01*
X102542857Y-73567857D02*
X102542857Y-72367857D01*
X102257142Y-72367857D01*
X102085714Y-72425000D01*
X101971428Y-72539286D01*
X101914285Y-72653571D01*
X101857142Y-72882143D01*
X101857142Y-73053571D01*
X101914285Y-73282143D01*
X101971428Y-73396429D01*
X102085714Y-73510714D01*
X102257142Y-73567857D01*
X102542857Y-73567857D01*
X101114285Y-72367857D02*
X100885714Y-72367857D01*
X100771428Y-72425000D01*
X100657142Y-72539286D01*
X100600000Y-72767857D01*
X100600000Y-73167857D01*
X100657142Y-73396429D01*
X100771428Y-73510714D01*
X100885714Y-73567857D01*
X101114285Y-73567857D01*
X101228571Y-73510714D01*
X101342857Y-73396429D01*
X101400000Y-73167857D01*
X101400000Y-72767857D01*
X101342857Y-72539286D01*
X101228571Y-72425000D01*
X101114285Y-72367857D01*
X84127857Y-73567857D02*
X84127857Y-72367857D01*
X83842142Y-72367857D01*
X83670714Y-72425000D01*
X83556428Y-72539286D01*
X83499285Y-72653571D01*
X83442142Y-72882143D01*
X83442142Y-73053571D01*
X83499285Y-73282143D01*
X83556428Y-73396429D01*
X83670714Y-73510714D01*
X83842142Y-73567857D01*
X84127857Y-73567857D01*
X82699285Y-72367857D02*
X82470714Y-72367857D01*
X82356428Y-72425000D01*
X82242142Y-72539286D01*
X82185000Y-72767857D01*
X82185000Y-73167857D01*
X82242142Y-73396429D01*
X82356428Y-73510714D01*
X82470714Y-73567857D01*
X82699285Y-73567857D01*
X82813571Y-73510714D01*
X82927857Y-73396429D01*
X82985000Y-73167857D01*
X82985000Y-72767857D01*
X82927857Y-72539286D01*
X82813571Y-72425000D01*
X82699285Y-72367857D01*
X139372857Y-55152857D02*
X139372857Y-53952857D01*
X139087142Y-53952857D01*
X138915714Y-54010000D01*
X138801428Y-54124286D01*
X138744285Y-54238571D01*
X138687142Y-54467143D01*
X138687142Y-54638571D01*
X138744285Y-54867143D01*
X138801428Y-54981429D01*
X138915714Y-55095714D01*
X139087142Y-55152857D01*
X139372857Y-55152857D01*
X137944285Y-53952857D02*
X137715714Y-53952857D01*
X137601428Y-54010000D01*
X137487142Y-54124286D01*
X137430000Y-54352857D01*
X137430000Y-54752857D01*
X137487142Y-54981429D01*
X137601428Y-55095714D01*
X137715714Y-55152857D01*
X137944285Y-55152857D01*
X138058571Y-55095714D01*
X138172857Y-54981429D01*
X138230000Y-54752857D01*
X138230000Y-54352857D01*
X138172857Y-54124286D01*
X138058571Y-54010000D01*
X137944285Y-53952857D01*
X120957857Y-55152857D02*
X120957857Y-53952857D01*
X120672142Y-53952857D01*
X120500714Y-54010000D01*
X120386428Y-54124286D01*
X120329285Y-54238571D01*
X120272142Y-54467143D01*
X120272142Y-54638571D01*
X120329285Y-54867143D01*
X120386428Y-54981429D01*
X120500714Y-55095714D01*
X120672142Y-55152857D01*
X120957857Y-55152857D01*
X119529285Y-53952857D02*
X119300714Y-53952857D01*
X119186428Y-54010000D01*
X119072142Y-54124286D01*
X119015000Y-54352857D01*
X119015000Y-54752857D01*
X119072142Y-54981429D01*
X119186428Y-55095714D01*
X119300714Y-55152857D01*
X119529285Y-55152857D01*
X119643571Y-55095714D01*
X119757857Y-54981429D01*
X119815000Y-54752857D01*
X119815000Y-54352857D01*
X119757857Y-54124286D01*
X119643571Y-54010000D01*
X119529285Y-53952857D01*
X102542857Y-55152857D02*
X102542857Y-53952857D01*
X102257142Y-53952857D01*
X102085714Y-54010000D01*
X101971428Y-54124286D01*
X101914285Y-54238571D01*
X101857142Y-54467143D01*
X101857142Y-54638571D01*
X101914285Y-54867143D01*
X101971428Y-54981429D01*
X102085714Y-55095714D01*
X102257142Y-55152857D01*
X102542857Y-55152857D01*
X101114285Y-53952857D02*
X100885714Y-53952857D01*
X100771428Y-54010000D01*
X100657142Y-54124286D01*
X100600000Y-54352857D01*
X100600000Y-54752857D01*
X100657142Y-54981429D01*
X100771428Y-55095714D01*
X100885714Y-55152857D01*
X101114285Y-55152857D01*
X101228571Y-55095714D01*
X101342857Y-54981429D01*
X101400000Y-54752857D01*
X101400000Y-54352857D01*
X101342857Y-54124286D01*
X101228571Y-54010000D01*
X101114285Y-53952857D01*
X154127143Y-128355714D02*
X153212857Y-128355714D01*
X153670000Y-128812857D02*
X153670000Y-127898571D01*
X135712143Y-128355714D02*
X134797857Y-128355714D01*
X135255000Y-128812857D02*
X135255000Y-127898571D01*
X117297143Y-128355714D02*
X116382857Y-128355714D01*
X116840000Y-128812857D02*
X116840000Y-127898571D01*
X98882143Y-128355714D02*
X97967857Y-128355714D01*
X98425000Y-128812857D02*
X98425000Y-127898571D01*
X154127143Y-109940714D02*
X153212857Y-109940714D01*
X153670000Y-110397857D02*
X153670000Y-109483571D01*
X135712143Y-109940714D02*
X134797857Y-109940714D01*
X135255000Y-110397857D02*
X135255000Y-109483571D01*
X117297143Y-109940714D02*
X116382857Y-109940714D01*
X116840000Y-110397857D02*
X116840000Y-109483571D01*
X98882143Y-109940714D02*
X97967857Y-109940714D01*
X98425000Y-110397857D02*
X98425000Y-109483571D01*
X154127143Y-91525714D02*
X153212857Y-91525714D01*
X153670000Y-91982857D02*
X153670000Y-91068571D01*
X135712143Y-91525714D02*
X134797857Y-91525714D01*
X135255000Y-91982857D02*
X135255000Y-91068571D01*
X117297143Y-91525714D02*
X116382857Y-91525714D01*
X116840000Y-91982857D02*
X116840000Y-91068571D01*
X98882143Y-91525714D02*
X97967857Y-91525714D01*
X98425000Y-91982857D02*
X98425000Y-91068571D01*
X154127143Y-73110714D02*
X153212857Y-73110714D01*
X153670000Y-73567857D02*
X153670000Y-72653571D01*
X135712143Y-73110714D02*
X134797857Y-73110714D01*
X135255000Y-73567857D02*
X135255000Y-72653571D01*
X117297143Y-73110714D02*
X116382857Y-73110714D01*
X116840000Y-73567857D02*
X116840000Y-72653571D01*
X98882143Y-73110714D02*
X97967857Y-73110714D01*
X98425000Y-73567857D02*
X98425000Y-72653571D01*
X154127143Y-54695714D02*
X153212857Y-54695714D01*
X153670000Y-55152857D02*
X153670000Y-54238571D01*
X135712143Y-54695714D02*
X134797857Y-54695714D01*
X135255000Y-55152857D02*
X135255000Y-54238571D01*
X117297143Y-54695714D02*
X116382857Y-54695714D01*
X116840000Y-55152857D02*
X116840000Y-54238571D01*
X153298571Y-123618571D02*
X153355714Y-123675714D01*
X153527143Y-123732857D01*
X153641429Y-123732857D01*
X153812857Y-123675714D01*
X153927143Y-123561429D01*
X153984286Y-123447143D01*
X154041429Y-123218571D01*
X154041429Y-123047143D01*
X153984286Y-122818571D01*
X153927143Y-122704286D01*
X153812857Y-122590000D01*
X153641429Y-122532857D01*
X153527143Y-122532857D01*
X153355714Y-122590000D01*
X153298571Y-122647143D01*
X134883571Y-123618571D02*
X134940714Y-123675714D01*
X135112143Y-123732857D01*
X135226429Y-123732857D01*
X135397857Y-123675714D01*
X135512143Y-123561429D01*
X135569286Y-123447143D01*
X135626429Y-123218571D01*
X135626429Y-123047143D01*
X135569286Y-122818571D01*
X135512143Y-122704286D01*
X135397857Y-122590000D01*
X135226429Y-122532857D01*
X135112143Y-122532857D01*
X134940714Y-122590000D01*
X134883571Y-122647143D01*
X116468571Y-123618571D02*
X116525714Y-123675714D01*
X116697143Y-123732857D01*
X116811429Y-123732857D01*
X116982857Y-123675714D01*
X117097143Y-123561429D01*
X117154286Y-123447143D01*
X117211429Y-123218571D01*
X117211429Y-123047143D01*
X117154286Y-122818571D01*
X117097143Y-122704286D01*
X116982857Y-122590000D01*
X116811429Y-122532857D01*
X116697143Y-122532857D01*
X116525714Y-122590000D01*
X116468571Y-122647143D01*
X98053571Y-123618571D02*
X98110714Y-123675714D01*
X98282143Y-123732857D01*
X98396429Y-123732857D01*
X98567857Y-123675714D01*
X98682143Y-123561429D01*
X98739286Y-123447143D01*
X98796429Y-123218571D01*
X98796429Y-123047143D01*
X98739286Y-122818571D01*
X98682143Y-122704286D01*
X98567857Y-122590000D01*
X98396429Y-122532857D01*
X98282143Y-122532857D01*
X98110714Y-122590000D01*
X98053571Y-122647143D01*
X153298571Y-105203571D02*
X153355714Y-105260714D01*
X153527143Y-105317857D01*
X153641429Y-105317857D01*
X153812857Y-105260714D01*
X153927143Y-105146429D01*
X153984286Y-105032143D01*
X154041429Y-104803571D01*
X154041429Y-104632143D01*
X153984286Y-104403571D01*
X153927143Y-104289286D01*
X153812857Y-104175000D01*
X153641429Y-104117857D01*
X153527143Y-104117857D01*
X153355714Y-104175000D01*
X153298571Y-104232143D01*
X134883571Y-105203571D02*
X134940714Y-105260714D01*
X135112143Y-105317857D01*
X135226429Y-105317857D01*
X135397857Y-105260714D01*
X135512143Y-105146429D01*
X135569286Y-105032143D01*
X135626429Y-104803571D01*
X135626429Y-104632143D01*
X135569286Y-104403571D01*
X135512143Y-104289286D01*
X135397857Y-104175000D01*
X135226429Y-104117857D01*
X135112143Y-104117857D01*
X134940714Y-104175000D01*
X134883571Y-104232143D01*
X116468571Y-105203571D02*
X116525714Y-105260714D01*
X116697143Y-105317857D01*
X116811429Y-105317857D01*
X116982857Y-105260714D01*
X117097143Y-105146429D01*
X117154286Y-105032143D01*
X117211429Y-104803571D01*
X117211429Y-104632143D01*
X117154286Y-104403571D01*
X117097143Y-104289286D01*
X116982857Y-104175000D01*
X116811429Y-104117857D01*
X116697143Y-104117857D01*
X116525714Y-104175000D01*
X116468571Y-104232143D01*
X98053571Y-105203571D02*
X98110714Y-105260714D01*
X98282143Y-105317857D01*
X98396429Y-105317857D01*
X98567857Y-105260714D01*
X98682143Y-105146429D01*
X98739286Y-105032143D01*
X98796429Y-104803571D01*
X98796429Y-104632143D01*
X98739286Y-104403571D01*
X98682143Y-104289286D01*
X98567857Y-104175000D01*
X98396429Y-104117857D01*
X98282143Y-104117857D01*
X98110714Y-104175000D01*
X98053571Y-104232143D01*
X153298571Y-86788571D02*
X153355714Y-86845714D01*
X153527143Y-86902857D01*
X153641429Y-86902857D01*
X153812857Y-86845714D01*
X153927143Y-86731429D01*
X153984286Y-86617143D01*
X154041429Y-86388571D01*
X154041429Y-86217143D01*
X153984286Y-85988571D01*
X153927143Y-85874286D01*
X153812857Y-85760000D01*
X153641429Y-85702857D01*
X153527143Y-85702857D01*
X153355714Y-85760000D01*
X153298571Y-85817143D01*
X134883571Y-86788571D02*
X134940714Y-86845714D01*
X135112143Y-86902857D01*
X135226429Y-86902857D01*
X135397857Y-86845714D01*
X135512143Y-86731429D01*
X135569286Y-86617143D01*
X135626429Y-86388571D01*
X135626429Y-86217143D01*
X135569286Y-85988571D01*
X135512143Y-85874286D01*
X135397857Y-85760000D01*
X135226429Y-85702857D01*
X135112143Y-85702857D01*
X134940714Y-85760000D01*
X134883571Y-85817143D01*
X116468571Y-86788571D02*
X116525714Y-86845714D01*
X116697143Y-86902857D01*
X116811429Y-86902857D01*
X116982857Y-86845714D01*
X117097143Y-86731429D01*
X117154286Y-86617143D01*
X117211429Y-86388571D01*
X117211429Y-86217143D01*
X117154286Y-85988571D01*
X117097143Y-85874286D01*
X116982857Y-85760000D01*
X116811429Y-85702857D01*
X116697143Y-85702857D01*
X116525714Y-85760000D01*
X116468571Y-85817143D01*
X98053571Y-86788571D02*
X98110714Y-86845714D01*
X98282143Y-86902857D01*
X98396429Y-86902857D01*
X98567857Y-86845714D01*
X98682143Y-86731429D01*
X98739286Y-86617143D01*
X98796429Y-86388571D01*
X98796429Y-86217143D01*
X98739286Y-85988571D01*
X98682143Y-85874286D01*
X98567857Y-85760000D01*
X98396429Y-85702857D01*
X98282143Y-85702857D01*
X98110714Y-85760000D01*
X98053571Y-85817143D01*
X153298571Y-68373571D02*
X153355714Y-68430714D01*
X153527143Y-68487857D01*
X153641429Y-68487857D01*
X153812857Y-68430714D01*
X153927143Y-68316429D01*
X153984286Y-68202143D01*
X154041429Y-67973571D01*
X154041429Y-67802143D01*
X153984286Y-67573571D01*
X153927143Y-67459286D01*
X153812857Y-67345000D01*
X153641429Y-67287857D01*
X153527143Y-67287857D01*
X153355714Y-67345000D01*
X153298571Y-67402143D01*
X134883571Y-68373571D02*
X134940714Y-68430714D01*
X135112143Y-68487857D01*
X135226429Y-68487857D01*
X135397857Y-68430714D01*
X135512143Y-68316429D01*
X135569286Y-68202143D01*
X135626429Y-67973571D01*
X135626429Y-67802143D01*
X135569286Y-67573571D01*
X135512143Y-67459286D01*
X135397857Y-67345000D01*
X135226429Y-67287857D01*
X135112143Y-67287857D01*
X134940714Y-67345000D01*
X134883571Y-67402143D01*
X116468571Y-68373571D02*
X116525714Y-68430714D01*
X116697143Y-68487857D01*
X116811429Y-68487857D01*
X116982857Y-68430714D01*
X117097143Y-68316429D01*
X117154286Y-68202143D01*
X117211429Y-67973571D01*
X117211429Y-67802143D01*
X117154286Y-67573571D01*
X117097143Y-67459286D01*
X116982857Y-67345000D01*
X116811429Y-67287857D01*
X116697143Y-67287857D01*
X116525714Y-67345000D01*
X116468571Y-67402143D01*
X98053571Y-68373571D02*
X98110714Y-68430714D01*
X98282143Y-68487857D01*
X98396429Y-68487857D01*
X98567857Y-68430714D01*
X98682143Y-68316429D01*
X98739286Y-68202143D01*
X98796429Y-67973571D01*
X98796429Y-67802143D01*
X98739286Y-67573571D01*
X98682143Y-67459286D01*
X98567857Y-67345000D01*
X98396429Y-67287857D01*
X98282143Y-67287857D01*
X98110714Y-67345000D01*
X98053571Y-67402143D01*
X153298571Y-49958571D02*
X153355714Y-50015714D01*
X153527143Y-50072857D01*
X153641429Y-50072857D01*
X153812857Y-50015714D01*
X153927143Y-49901429D01*
X153984286Y-49787143D01*
X154041429Y-49558571D01*
X154041429Y-49387143D01*
X153984286Y-49158571D01*
X153927143Y-49044286D01*
X153812857Y-48930000D01*
X153641429Y-48872857D01*
X153527143Y-48872857D01*
X153355714Y-48930000D01*
X153298571Y-48987143D01*
X134883571Y-49958571D02*
X134940714Y-50015714D01*
X135112143Y-50072857D01*
X135226429Y-50072857D01*
X135397857Y-50015714D01*
X135512143Y-49901429D01*
X135569286Y-49787143D01*
X135626429Y-49558571D01*
X135626429Y-49387143D01*
X135569286Y-49158571D01*
X135512143Y-49044286D01*
X135397857Y-48930000D01*
X135226429Y-48872857D01*
X135112143Y-48872857D01*
X134940714Y-48930000D01*
X134883571Y-48987143D01*
X116468571Y-49958571D02*
X116525714Y-50015714D01*
X116697143Y-50072857D01*
X116811429Y-50072857D01*
X116982857Y-50015714D01*
X117097143Y-49901429D01*
X117154286Y-49787143D01*
X117211429Y-49558571D01*
X117211429Y-49387143D01*
X117154286Y-49158571D01*
X117097143Y-49044286D01*
X116982857Y-48930000D01*
X116811429Y-48872857D01*
X116697143Y-48872857D01*
X116525714Y-48930000D01*
X116468571Y-48987143D01*
X154270000Y-133892857D02*
X154270000Y-132692857D01*
X153984285Y-132692857D01*
X153812857Y-132750000D01*
X153698571Y-132864286D01*
X153641428Y-132978571D01*
X153584285Y-133207143D01*
X153584285Y-133378571D01*
X153641428Y-133607143D01*
X153698571Y-133721429D01*
X153812857Y-133835714D01*
X153984285Y-133892857D01*
X154270000Y-133892857D01*
X153070000Y-133892857D02*
X153070000Y-132692857D01*
X135855000Y-133892857D02*
X135855000Y-132692857D01*
X135569285Y-132692857D01*
X135397857Y-132750000D01*
X135283571Y-132864286D01*
X135226428Y-132978571D01*
X135169285Y-133207143D01*
X135169285Y-133378571D01*
X135226428Y-133607143D01*
X135283571Y-133721429D01*
X135397857Y-133835714D01*
X135569285Y-133892857D01*
X135855000Y-133892857D01*
X134655000Y-133892857D02*
X134655000Y-132692857D01*
X117440000Y-133892857D02*
X117440000Y-132692857D01*
X117154285Y-132692857D01*
X116982857Y-132750000D01*
X116868571Y-132864286D01*
X116811428Y-132978571D01*
X116754285Y-133207143D01*
X116754285Y-133378571D01*
X116811428Y-133607143D01*
X116868571Y-133721429D01*
X116982857Y-133835714D01*
X117154285Y-133892857D01*
X117440000Y-133892857D01*
X116240000Y-133892857D02*
X116240000Y-132692857D01*
X99025000Y-133892857D02*
X99025000Y-132692857D01*
X98739285Y-132692857D01*
X98567857Y-132750000D01*
X98453571Y-132864286D01*
X98396428Y-132978571D01*
X98339285Y-133207143D01*
X98339285Y-133378571D01*
X98396428Y-133607143D01*
X98453571Y-133721429D01*
X98567857Y-133835714D01*
X98739285Y-133892857D01*
X99025000Y-133892857D01*
X97825000Y-133892857D02*
X97825000Y-132692857D01*
X154270000Y-115477857D02*
X154270000Y-114277857D01*
X153984285Y-114277857D01*
X153812857Y-114335000D01*
X153698571Y-114449286D01*
X153641428Y-114563571D01*
X153584285Y-114792143D01*
X153584285Y-114963571D01*
X153641428Y-115192143D01*
X153698571Y-115306429D01*
X153812857Y-115420714D01*
X153984285Y-115477857D01*
X154270000Y-115477857D01*
X153070000Y-115477857D02*
X153070000Y-114277857D01*
X135855000Y-115477857D02*
X135855000Y-114277857D01*
X135569285Y-114277857D01*
X135397857Y-114335000D01*
X135283571Y-114449286D01*
X135226428Y-114563571D01*
X135169285Y-114792143D01*
X135169285Y-114963571D01*
X135226428Y-115192143D01*
X135283571Y-115306429D01*
X135397857Y-115420714D01*
X135569285Y-115477857D01*
X135855000Y-115477857D01*
X134655000Y-115477857D02*
X134655000Y-114277857D01*
X117440000Y-115477857D02*
X117440000Y-114277857D01*
X117154285Y-114277857D01*
X116982857Y-114335000D01*
X116868571Y-114449286D01*
X116811428Y-114563571D01*
X116754285Y-114792143D01*
X116754285Y-114963571D01*
X116811428Y-115192143D01*
X116868571Y-115306429D01*
X116982857Y-115420714D01*
X117154285Y-115477857D01*
X117440000Y-115477857D01*
X116240000Y-115477857D02*
X116240000Y-114277857D01*
X99025000Y-115477857D02*
X99025000Y-114277857D01*
X98739285Y-114277857D01*
X98567857Y-114335000D01*
X98453571Y-114449286D01*
X98396428Y-114563571D01*
X98339285Y-114792143D01*
X98339285Y-114963571D01*
X98396428Y-115192143D01*
X98453571Y-115306429D01*
X98567857Y-115420714D01*
X98739285Y-115477857D01*
X99025000Y-115477857D01*
X97825000Y-115477857D02*
X97825000Y-114277857D01*
X154270000Y-97062857D02*
X154270000Y-95862857D01*
X153984285Y-95862857D01*
X153812857Y-95920000D01*
X153698571Y-96034286D01*
X153641428Y-96148571D01*
X153584285Y-96377143D01*
X153584285Y-96548571D01*
X153641428Y-96777143D01*
X153698571Y-96891429D01*
X153812857Y-97005714D01*
X153984285Y-97062857D01*
X154270000Y-97062857D01*
X153070000Y-97062857D02*
X153070000Y-95862857D01*
X135855000Y-97062857D02*
X135855000Y-95862857D01*
X135569285Y-95862857D01*
X135397857Y-95920000D01*
X135283571Y-96034286D01*
X135226428Y-96148571D01*
X135169285Y-96377143D01*
X135169285Y-96548571D01*
X135226428Y-96777143D01*
X135283571Y-96891429D01*
X135397857Y-97005714D01*
X135569285Y-97062857D01*
X135855000Y-97062857D01*
X134655000Y-97062857D02*
X134655000Y-95862857D01*
X117440000Y-97062857D02*
X117440000Y-95862857D01*
X117154285Y-95862857D01*
X116982857Y-95920000D01*
X116868571Y-96034286D01*
X116811428Y-96148571D01*
X116754285Y-96377143D01*
X116754285Y-96548571D01*
X116811428Y-96777143D01*
X116868571Y-96891429D01*
X116982857Y-97005714D01*
X117154285Y-97062857D01*
X117440000Y-97062857D01*
X116240000Y-97062857D02*
X116240000Y-95862857D01*
X99025000Y-97062857D02*
X99025000Y-95862857D01*
X98739285Y-95862857D01*
X98567857Y-95920000D01*
X98453571Y-96034286D01*
X98396428Y-96148571D01*
X98339285Y-96377143D01*
X98339285Y-96548571D01*
X98396428Y-96777143D01*
X98453571Y-96891429D01*
X98567857Y-97005714D01*
X98739285Y-97062857D01*
X99025000Y-97062857D01*
X97825000Y-97062857D02*
X97825000Y-95862857D01*
X154270000Y-78647857D02*
X154270000Y-77447857D01*
X153984285Y-77447857D01*
X153812857Y-77505000D01*
X153698571Y-77619286D01*
X153641428Y-77733571D01*
X153584285Y-77962143D01*
X153584285Y-78133571D01*
X153641428Y-78362143D01*
X153698571Y-78476429D01*
X153812857Y-78590714D01*
X153984285Y-78647857D01*
X154270000Y-78647857D01*
X153070000Y-78647857D02*
X153070000Y-77447857D01*
X135855000Y-78647857D02*
X135855000Y-77447857D01*
X135569285Y-77447857D01*
X135397857Y-77505000D01*
X135283571Y-77619286D01*
X135226428Y-77733571D01*
X135169285Y-77962143D01*
X135169285Y-78133571D01*
X135226428Y-78362143D01*
X135283571Y-78476429D01*
X135397857Y-78590714D01*
X135569285Y-78647857D01*
X135855000Y-78647857D01*
X134655000Y-78647857D02*
X134655000Y-77447857D01*
X117440000Y-78647857D02*
X117440000Y-77447857D01*
X117154285Y-77447857D01*
X116982857Y-77505000D01*
X116868571Y-77619286D01*
X116811428Y-77733571D01*
X116754285Y-77962143D01*
X116754285Y-78133571D01*
X116811428Y-78362143D01*
X116868571Y-78476429D01*
X116982857Y-78590714D01*
X117154285Y-78647857D01*
X117440000Y-78647857D01*
X116240000Y-78647857D02*
X116240000Y-77447857D01*
X99025000Y-78647857D02*
X99025000Y-77447857D01*
X98739285Y-77447857D01*
X98567857Y-77505000D01*
X98453571Y-77619286D01*
X98396428Y-77733571D01*
X98339285Y-77962143D01*
X98339285Y-78133571D01*
X98396428Y-78362143D01*
X98453571Y-78476429D01*
X98567857Y-78590714D01*
X98739285Y-78647857D01*
X99025000Y-78647857D01*
X97825000Y-78647857D02*
X97825000Y-77447857D01*
X154270000Y-60232857D02*
X154270000Y-59032857D01*
X153984285Y-59032857D01*
X153812857Y-59090000D01*
X153698571Y-59204286D01*
X153641428Y-59318571D01*
X153584285Y-59547143D01*
X153584285Y-59718571D01*
X153641428Y-59947143D01*
X153698571Y-60061429D01*
X153812857Y-60175714D01*
X153984285Y-60232857D01*
X154270000Y-60232857D01*
X153070000Y-60232857D02*
X153070000Y-59032857D01*
X135855000Y-60232857D02*
X135855000Y-59032857D01*
X135569285Y-59032857D01*
X135397857Y-59090000D01*
X135283571Y-59204286D01*
X135226428Y-59318571D01*
X135169285Y-59547143D01*
X135169285Y-59718571D01*
X135226428Y-59947143D01*
X135283571Y-60061429D01*
X135397857Y-60175714D01*
X135569285Y-60232857D01*
X135855000Y-60232857D01*
X134655000Y-60232857D02*
X134655000Y-59032857D01*
X117440000Y-60232857D02*
X117440000Y-59032857D01*
X117154285Y-59032857D01*
X116982857Y-59090000D01*
X116868571Y-59204286D01*
X116811428Y-59318571D01*
X116754285Y-59547143D01*
X116754285Y-59718571D01*
X116811428Y-59947143D01*
X116868571Y-60061429D01*
X116982857Y-60175714D01*
X117154285Y-60232857D01*
X117440000Y-60232857D01*
X116240000Y-60232857D02*
X116240000Y-59032857D01*
X150952143Y-135340714D02*
X150037857Y-135340714D01*
X132537143Y-135340714D02*
X131622857Y-135340714D01*
X114122143Y-135340714D02*
X113207857Y-135340714D01*
X95707143Y-135340714D02*
X94792857Y-135340714D01*
X150952143Y-116925714D02*
X150037857Y-116925714D01*
X132537143Y-116925714D02*
X131622857Y-116925714D01*
X114122143Y-116925714D02*
X113207857Y-116925714D01*
X95707143Y-116925714D02*
X94792857Y-116925714D01*
X150952143Y-98510714D02*
X150037857Y-98510714D01*
X132537143Y-98510714D02*
X131622857Y-98510714D01*
X114122143Y-98510714D02*
X113207857Y-98510714D01*
X95707143Y-98510714D02*
X94792857Y-98510714D01*
X150952143Y-80095714D02*
X150037857Y-80095714D01*
X132537143Y-80095714D02*
X131622857Y-80095714D01*
X114122143Y-80095714D02*
X113207857Y-80095714D01*
X95707143Y-80095714D02*
X94792857Y-80095714D01*
X150952143Y-61680714D02*
X150037857Y-61680714D01*
X132537143Y-61680714D02*
X131622857Y-61680714D01*
X114122143Y-61680714D02*
X113207857Y-61680714D01*
X175082143Y-85175714D02*
X174167857Y-85175714D01*
X175082143Y-82635714D02*
X174167857Y-82635714D01*
X174625000Y-83092857D02*
X174625000Y-82178571D01*
X157302143Y-82635714D02*
X156387857Y-82635714D01*
X156845000Y-83092857D02*
X156845000Y-82178571D01*
X157302143Y-85175714D02*
X156387857Y-85175714D01*
X160480286Y-60491667D02*
X160004095Y-60491667D01*
X160575524Y-60777381D02*
X160242191Y-59777381D01*
X159908857Y-60777381D01*
X159623143Y-59872619D02*
X159575524Y-59825000D01*
X159480286Y-59777381D01*
X159242190Y-59777381D01*
X159146952Y-59825000D01*
X159099333Y-59872619D01*
X159051714Y-59967857D01*
X159051714Y-60063095D01*
X159099333Y-60205952D01*
X159670762Y-60777381D01*
X159051714Y-60777381D01*
D12*
X171880714Y-47928095D02*
X172199761Y-47928095D01*
X172199761Y-47258095D01*
X171657380Y-47577143D02*
X171434047Y-47577143D01*
X171338333Y-47928095D02*
X171657380Y-47928095D01*
X171657380Y-47258095D01*
X171338333Y-47258095D01*
X171051190Y-47928095D02*
X171051190Y-47258095D01*
X170891666Y-47258095D01*
X170795952Y-47290000D01*
X170732143Y-47353810D01*
X170700238Y-47417619D01*
X170668333Y-47545238D01*
X170668333Y-47640952D01*
X170700238Y-47768571D01*
X170732143Y-47832381D01*
X170795952Y-47896190D01*
X170891666Y-47928095D01*
X171051190Y-47928095D01*
D11*
X171640476Y-76144381D02*
X171450000Y-76144381D01*
X171354761Y-76096762D01*
X171307142Y-76049143D01*
X171211904Y-75906286D01*
X171164285Y-75715810D01*
X171164285Y-75334857D01*
X171211904Y-75239619D01*
X171259523Y-75192000D01*
X171354761Y-75144381D01*
X171545238Y-75144381D01*
X171640476Y-75192000D01*
X171688095Y-75239619D01*
X171735714Y-75334857D01*
X171735714Y-75572952D01*
X171688095Y-75668190D01*
X171640476Y-75715810D01*
X171545238Y-75763429D01*
X171354761Y-75763429D01*
X171259523Y-75715810D01*
X171211904Y-75668190D01*
X171164285Y-75572952D01*
X171545238Y-72905952D02*
X171640476Y-72858333D01*
X171688095Y-72810714D01*
X171735714Y-72715476D01*
X171735714Y-72667857D01*
X171688095Y-72572619D01*
X171640476Y-72525000D01*
X171545238Y-72477381D01*
X171354761Y-72477381D01*
X171259523Y-72525000D01*
X171211904Y-72572619D01*
X171164285Y-72667857D01*
X171164285Y-72715476D01*
X171211904Y-72810714D01*
X171259523Y-72858333D01*
X171354761Y-72905952D01*
X171545238Y-72905952D01*
X171640476Y-72953571D01*
X171688095Y-73001190D01*
X171735714Y-73096429D01*
X171735714Y-73286905D01*
X171688095Y-73382143D01*
X171640476Y-73429762D01*
X171545238Y-73477381D01*
X171354761Y-73477381D01*
X171259523Y-73429762D01*
X171211904Y-73382143D01*
X171164285Y-73286905D01*
X171164285Y-73096429D01*
X171211904Y-73001190D01*
X171259523Y-72953571D01*
X171354761Y-72905952D01*
X171259523Y-67397381D02*
X171450000Y-67397381D01*
X171545238Y-67445000D01*
X171592857Y-67492619D01*
X171688095Y-67635476D01*
X171735714Y-67825952D01*
X171735714Y-68206905D01*
X171688095Y-68302143D01*
X171640476Y-68349762D01*
X171545238Y-68397381D01*
X171354761Y-68397381D01*
X171259523Y-68349762D01*
X171211904Y-68302143D01*
X171164285Y-68206905D01*
X171164285Y-67968810D01*
X171211904Y-67873571D01*
X171259523Y-67825952D01*
X171354761Y-67778333D01*
X171545238Y-67778333D01*
X171640476Y-67825952D01*
X171688095Y-67873571D01*
X171735714Y-67968810D01*
X171783333Y-69937381D02*
X171116666Y-69937381D01*
X171545238Y-70937381D01*
D12*
X172263571Y-58056190D02*
X172167857Y-58088095D01*
X172008333Y-58088095D01*
X171944523Y-58056190D01*
X171912619Y-58024286D01*
X171880714Y-57960476D01*
X171880714Y-57896667D01*
X171912619Y-57832857D01*
X171944523Y-57800952D01*
X172008333Y-57769048D01*
X172135952Y-57737143D01*
X172199761Y-57705238D01*
X172231666Y-57673333D01*
X172263571Y-57609524D01*
X172263571Y-57545714D01*
X172231666Y-57481905D01*
X172199761Y-57450000D01*
X172135952Y-57418095D01*
X171976428Y-57418095D01*
X171880714Y-57450000D01*
X171593571Y-58088095D02*
X171593571Y-57418095D01*
X171434047Y-57418095D01*
X171338333Y-57450000D01*
X171274524Y-57513810D01*
X171242619Y-57577619D01*
X171210714Y-57705238D01*
X171210714Y-57800952D01*
X171242619Y-57928571D01*
X171274524Y-57992381D01*
X171338333Y-58056190D01*
X171434047Y-58088095D01*
X171593571Y-58088095D01*
X170955476Y-57896667D02*
X170636428Y-57896667D01*
X171019285Y-58088095D02*
X170795952Y-57418095D01*
X170572619Y-58088095D01*
D11*
X171830952Y-55316429D02*
X171069047Y-55316429D01*
X171259523Y-62650714D02*
X171259523Y-63317381D01*
X171497619Y-62269762D02*
X171735714Y-62984048D01*
X171116666Y-62984048D01*
D12*
X172247619Y-60596190D02*
X172151905Y-60628095D01*
X171992381Y-60628095D01*
X171928571Y-60596190D01*
X171896667Y-60564286D01*
X171864762Y-60500476D01*
X171864762Y-60436667D01*
X171896667Y-60372857D01*
X171928571Y-60340952D01*
X171992381Y-60309048D01*
X172120000Y-60277143D01*
X172183809Y-60245238D01*
X172215714Y-60213333D01*
X172247619Y-60149524D01*
X172247619Y-60085714D01*
X172215714Y-60021905D01*
X172183809Y-59990000D01*
X172120000Y-59958095D01*
X171960476Y-59958095D01*
X171864762Y-59990000D01*
X171194762Y-60564286D02*
X171226667Y-60596190D01*
X171322381Y-60628095D01*
X171386191Y-60628095D01*
X171481905Y-60596190D01*
X171545714Y-60532381D01*
X171577619Y-60468571D01*
X171609524Y-60340952D01*
X171609524Y-60245238D01*
X171577619Y-60117619D01*
X171545714Y-60053810D01*
X171481905Y-59990000D01*
X171386191Y-59958095D01*
X171322381Y-59958095D01*
X171226667Y-59990000D01*
X171194762Y-60021905D01*
X170588572Y-60628095D02*
X170907619Y-60628095D01*
X170907619Y-59958095D01*
D11*
X171211904Y-64857381D02*
X171688095Y-64857381D01*
X171735714Y-65333571D01*
X171688095Y-65285952D01*
X171592857Y-65238333D01*
X171354761Y-65238333D01*
X171259523Y-65285952D01*
X171211904Y-65333571D01*
X171164285Y-65428810D01*
X171164285Y-65666905D01*
X171211904Y-65762143D01*
X171259523Y-65809762D01*
X171354761Y-65857381D01*
X171592857Y-65857381D01*
X171688095Y-65809762D01*
X171735714Y-65762143D01*
X171830952Y-52776429D02*
X171069047Y-52776429D01*
X172092857Y-50617381D02*
X172092857Y-49617381D01*
X171854762Y-49617381D01*
X171711904Y-49665000D01*
X171616666Y-49760238D01*
X171569047Y-49855476D01*
X171521428Y-50045952D01*
X171521428Y-50188810D01*
X171569047Y-50379286D01*
X171616666Y-50474524D01*
X171711904Y-50569762D01*
X171854762Y-50617381D01*
X172092857Y-50617381D01*
X171235714Y-49617381D02*
X170664285Y-49617381D01*
X170950000Y-50617381D02*
X170950000Y-49617381D01*
X159956476Y-76017381D02*
X160527905Y-76017381D01*
X160242191Y-76017381D02*
X160242191Y-75017381D01*
X160337429Y-75160238D01*
X160432667Y-75255476D01*
X160527905Y-75303095D01*
X159337429Y-75017381D02*
X159242190Y-75017381D01*
X159146952Y-75065000D01*
X159099333Y-75112619D01*
X159051714Y-75207857D01*
X159004095Y-75398333D01*
X159004095Y-75636429D01*
X159051714Y-75826905D01*
X159099333Y-75922143D01*
X159146952Y-75969762D01*
X159242190Y-76017381D01*
X159337429Y-76017381D01*
X159432667Y-75969762D01*
X159480286Y-75922143D01*
X159527905Y-75826905D01*
X159575524Y-75636429D01*
X159575524Y-75398333D01*
X159527905Y-75207857D01*
X159480286Y-75112619D01*
X159432667Y-75065000D01*
X159337429Y-75017381D01*
X159956476Y-73477381D02*
X160527905Y-73477381D01*
X160242191Y-73477381D02*
X160242191Y-72477381D01*
X160337429Y-72620238D01*
X160432667Y-72715476D01*
X160527905Y-72763095D01*
X159099333Y-72477381D02*
X159289810Y-72477381D01*
X159385048Y-72525000D01*
X159432667Y-72572619D01*
X159527905Y-72715476D01*
X159575524Y-72905952D01*
X159575524Y-73286905D01*
X159527905Y-73382143D01*
X159480286Y-73429762D01*
X159385048Y-73477381D01*
X159194571Y-73477381D01*
X159099333Y-73429762D01*
X159051714Y-73382143D01*
X159004095Y-73286905D01*
X159004095Y-73048810D01*
X159051714Y-72953571D01*
X159099333Y-72905952D01*
X159194571Y-72858333D01*
X159385048Y-72858333D01*
X159480286Y-72905952D01*
X159527905Y-72953571D01*
X159575524Y-73048810D01*
X159956476Y-70937381D02*
X160527905Y-70937381D01*
X160242191Y-70937381D02*
X160242191Y-69937381D01*
X160337429Y-70080238D01*
X160432667Y-70175476D01*
X160527905Y-70223095D01*
X159099333Y-70270714D02*
X159099333Y-70937381D01*
X159337429Y-69889762D02*
X159575524Y-70604048D01*
X158956476Y-70604048D01*
X159956476Y-68397381D02*
X160527905Y-68397381D01*
X160242191Y-68397381D02*
X160242191Y-67397381D01*
X160337429Y-67540238D01*
X160432667Y-67635476D01*
X160527905Y-67683095D01*
X159051714Y-67397381D02*
X159527905Y-67397381D01*
X159575524Y-67873571D01*
X159527905Y-67825952D01*
X159432667Y-67778333D01*
X159194571Y-67778333D01*
X159099333Y-67825952D01*
X159051714Y-67873571D01*
X159004095Y-67968810D01*
X159004095Y-68206905D01*
X159051714Y-68302143D01*
X159099333Y-68349762D01*
X159194571Y-68397381D01*
X159432667Y-68397381D01*
X159527905Y-68349762D01*
X159575524Y-68302143D01*
X160480286Y-65571667D02*
X160004095Y-65571667D01*
X160575524Y-65857381D02*
X160242191Y-64857381D01*
X159908857Y-65857381D01*
X159385048Y-64857381D02*
X159289809Y-64857381D01*
X159194571Y-64905000D01*
X159146952Y-64952619D01*
X159099333Y-65047857D01*
X159051714Y-65238333D01*
X159051714Y-65476429D01*
X159099333Y-65666905D01*
X159146952Y-65762143D01*
X159194571Y-65809762D01*
X159289809Y-65857381D01*
X159385048Y-65857381D01*
X159480286Y-65809762D01*
X159527905Y-65762143D01*
X159575524Y-65666905D01*
X159623143Y-65476429D01*
X159623143Y-65238333D01*
X159575524Y-65047857D01*
X159527905Y-64952619D01*
X159480286Y-64905000D01*
X159385048Y-64857381D01*
X160480286Y-63031667D02*
X160004095Y-63031667D01*
X160575524Y-63317381D02*
X160242191Y-62317381D01*
X159908857Y-63317381D01*
X159051714Y-63317381D02*
X159623143Y-63317381D01*
X159337429Y-63317381D02*
X159337429Y-62317381D01*
X159432667Y-62460238D01*
X159527905Y-62555476D01*
X159623143Y-62603095D01*
X160480286Y-57951667D02*
X160004095Y-57951667D01*
X160575524Y-58237381D02*
X160242191Y-57237381D01*
X159908857Y-58237381D01*
X159670762Y-57237381D02*
X159051714Y-57237381D01*
X159385048Y-57618333D01*
X159242190Y-57618333D01*
X159146952Y-57665952D01*
X159099333Y-57713571D01*
X159051714Y-57808810D01*
X159051714Y-58046905D01*
X159099333Y-58142143D01*
X159146952Y-58189762D01*
X159242190Y-58237381D01*
X159527905Y-58237381D01*
X159623143Y-58189762D01*
X159670762Y-58142143D01*
X160146952Y-55316429D02*
X159385047Y-55316429D01*
X159765999Y-55697381D02*
X159765999Y-54935476D01*
D12*
X160132904Y-53008095D02*
X160356237Y-52689048D01*
X160515761Y-53008095D02*
X160515761Y-52338095D01*
X160260523Y-52338095D01*
X160196714Y-52370000D01*
X160164809Y-52401905D01*
X160132904Y-52465714D01*
X160132904Y-52561429D01*
X160164809Y-52625238D01*
X160196714Y-52657143D01*
X160260523Y-52689048D01*
X160515761Y-52689048D01*
X159877666Y-52976190D02*
X159781952Y-53008095D01*
X159622428Y-53008095D01*
X159558618Y-52976190D01*
X159526714Y-52944286D01*
X159494809Y-52880476D01*
X159494809Y-52816667D01*
X159526714Y-52752857D01*
X159558618Y-52720952D01*
X159622428Y-52689048D01*
X159750047Y-52657143D01*
X159813856Y-52625238D01*
X159845761Y-52593333D01*
X159877666Y-52529524D01*
X159877666Y-52465714D01*
X159845761Y-52401905D01*
X159813856Y-52370000D01*
X159750047Y-52338095D01*
X159590523Y-52338095D01*
X159494809Y-52370000D01*
X159303380Y-52338095D02*
X158920523Y-52338095D01*
X159111952Y-53008095D02*
X159111952Y-52338095D01*
D11*
X160146952Y-50236429D02*
X159385047Y-50236429D01*
X160146952Y-47696429D02*
X159385047Y-47696429D01*
X159765999Y-48077381D02*
X159765999Y-47315476D01*
X83642143Y-48980714D02*
X82727857Y-48980714D01*
X83185000Y-49437857D02*
X83185000Y-48523571D01*
X83642143Y-60410714D02*
X82727857Y-60410714D01*
X84127857Y-55152857D02*
X84127857Y-53952857D01*
X83842142Y-53952857D01*
X83670714Y-54010000D01*
X83556428Y-54124286D01*
X83499285Y-54238571D01*
X83442142Y-54467143D01*
X83442142Y-54638571D01*
X83499285Y-54867143D01*
X83556428Y-54981429D01*
X83670714Y-55095714D01*
X83842142Y-55152857D01*
X84127857Y-55152857D01*
X82699285Y-53952857D02*
X82470714Y-53952857D01*
X82356428Y-54010000D01*
X82242142Y-54124286D01*
X82185000Y-54352857D01*
X82185000Y-54752857D01*
X82242142Y-54981429D01*
X82356428Y-55095714D01*
X82470714Y-55152857D01*
X82699285Y-55152857D01*
X82813571Y-55095714D01*
X82927857Y-54981429D01*
X82985000Y-54752857D01*
X82985000Y-54352857D01*
X82927857Y-54124286D01*
X82813571Y-54010000D01*
X82699285Y-53952857D01*
X95707143Y-61680714D02*
X94792857Y-61680714D01*
X99025000Y-60232857D02*
X99025000Y-59032857D01*
X98739285Y-59032857D01*
X98567857Y-59090000D01*
X98453571Y-59204286D01*
X98396428Y-59318571D01*
X98339285Y-59547143D01*
X98339285Y-59718571D01*
X98396428Y-59947143D01*
X98453571Y-60061429D01*
X98567857Y-60175714D01*
X98739285Y-60232857D01*
X99025000Y-60232857D01*
X97825000Y-60232857D02*
X97825000Y-59032857D01*
X98882143Y-54695714D02*
X97967857Y-54695714D01*
X98425000Y-55152857D02*
X98425000Y-54238571D01*
X85988571Y-62137857D02*
X86388571Y-61566429D01*
X86674286Y-62137857D02*
X86674286Y-60937857D01*
X86217143Y-60937857D01*
X86102857Y-60995000D01*
X86045714Y-61052143D01*
X85988571Y-61166429D01*
X85988571Y-61337857D01*
X86045714Y-61452143D01*
X86102857Y-61509286D01*
X86217143Y-61566429D01*
X86674286Y-61566429D01*
X84083571Y-46783571D02*
X84140714Y-46840714D01*
X84312143Y-46897857D01*
X84426429Y-46897857D01*
X84597857Y-46840714D01*
X84712143Y-46726429D01*
X84769286Y-46612143D01*
X84826429Y-46383571D01*
X84826429Y-46212143D01*
X84769286Y-45983571D01*
X84712143Y-45869286D01*
X84597857Y-45755000D01*
X84426429Y-45697857D01*
X84312143Y-45697857D01*
X84140714Y-45755000D01*
X84083571Y-45812143D01*
X98053571Y-49958571D02*
X98110714Y-50015714D01*
X98282143Y-50072857D01*
X98396429Y-50072857D01*
X98567857Y-50015714D01*
X98682143Y-49901429D01*
X98739286Y-49787143D01*
X98796429Y-49558571D01*
X98796429Y-49387143D01*
X98739286Y-49158571D01*
X98682143Y-49044286D01*
X98567857Y-48930000D01*
X98396429Y-48872857D01*
X98282143Y-48872857D01*
X98110714Y-48930000D01*
X98053571Y-48987143D01*
X86242571Y-46897857D02*
X86642571Y-46326429D01*
X86928286Y-46897857D02*
X86928286Y-45697857D01*
X86471143Y-45697857D01*
X86356857Y-45755000D01*
X86299714Y-45812143D01*
X86242571Y-45926429D01*
X86242571Y-46097857D01*
X86299714Y-46212143D01*
X86356857Y-46269286D01*
X86471143Y-46326429D01*
X86928286Y-46326429D01*
X170000000Y-120015000D02*
X170400000Y-120015000D01*
X166500000Y-120015000D02*
X166100000Y-120015000D01*
X167000000Y-120815000D02*
X167000000Y-119215000D01*
X166500000Y-120815000D02*
X170000000Y-120815000D01*
X170000000Y-120815000D02*
X170000000Y-119215000D01*
X170000000Y-119215000D02*
X166500000Y-119215000D01*
X166500000Y-119215000D02*
X166500000Y-120815000D01*
X170000000Y-101600000D02*
X170400000Y-101600000D01*
X166500000Y-101600000D02*
X166100000Y-101600000D01*
X167000000Y-102400000D02*
X167000000Y-100800000D01*
X166500000Y-102400000D02*
X170000000Y-102400000D01*
X170000000Y-102400000D02*
X170000000Y-100800000D01*
X170000000Y-100800000D02*
X166500000Y-100800000D01*
X166500000Y-100800000D02*
X166500000Y-102400000D01*
D10*
X167105000Y-111892500D02*
G75*
G03X167105000Y-111892500I-250000J0D01*
G01*
X167105000Y-130307500D02*
G75*
G03X167105000Y-130307500I-250000J0D01*
G01*
D11*
X151585000Y-120015000D02*
X151985000Y-120015000D01*
X148085000Y-120015000D02*
X147685000Y-120015000D01*
X148585000Y-120815000D02*
X148585000Y-119215000D01*
X148085000Y-120815000D02*
X151585000Y-120815000D01*
X151585000Y-120815000D02*
X151585000Y-119215000D01*
X151585000Y-119215000D02*
X148085000Y-119215000D01*
X148085000Y-119215000D02*
X148085000Y-120815000D01*
X133170000Y-120015000D02*
X133570000Y-120015000D01*
X129670000Y-120015000D02*
X129270000Y-120015000D01*
X130170000Y-120815000D02*
X130170000Y-119215000D01*
X129670000Y-120815000D02*
X133170000Y-120815000D01*
X133170000Y-120815000D02*
X133170000Y-119215000D01*
X133170000Y-119215000D02*
X129670000Y-119215000D01*
X129670000Y-119215000D02*
X129670000Y-120815000D01*
X114755000Y-120015000D02*
X115155000Y-120015000D01*
X111255000Y-120015000D02*
X110855000Y-120015000D01*
X111755000Y-120815000D02*
X111755000Y-119215000D01*
X111255000Y-120815000D02*
X114755000Y-120815000D01*
X114755000Y-120815000D02*
X114755000Y-119215000D01*
X114755000Y-119215000D02*
X111255000Y-119215000D01*
X111255000Y-119215000D02*
X111255000Y-120815000D01*
X96340000Y-120015000D02*
X96740000Y-120015000D01*
X92840000Y-120015000D02*
X92440000Y-120015000D01*
X93340000Y-120815000D02*
X93340000Y-119215000D01*
X92840000Y-120815000D02*
X96340000Y-120815000D01*
X96340000Y-120815000D02*
X96340000Y-119215000D01*
X96340000Y-119215000D02*
X92840000Y-119215000D01*
X92840000Y-119215000D02*
X92840000Y-120815000D01*
X151585000Y-101600000D02*
X151985000Y-101600000D01*
X148085000Y-101600000D02*
X147685000Y-101600000D01*
X148585000Y-102400000D02*
X148585000Y-100800000D01*
X148085000Y-102400000D02*
X151585000Y-102400000D01*
X151585000Y-102400000D02*
X151585000Y-100800000D01*
X151585000Y-100800000D02*
X148085000Y-100800000D01*
X148085000Y-100800000D02*
X148085000Y-102400000D01*
X133170000Y-101600000D02*
X133570000Y-101600000D01*
X129670000Y-101600000D02*
X129270000Y-101600000D01*
X130170000Y-102400000D02*
X130170000Y-100800000D01*
X129670000Y-102400000D02*
X133170000Y-102400000D01*
X133170000Y-102400000D02*
X133170000Y-100800000D01*
X133170000Y-100800000D02*
X129670000Y-100800000D01*
X129670000Y-100800000D02*
X129670000Y-102400000D01*
X114755000Y-101600000D02*
X115155000Y-101600000D01*
X111255000Y-101600000D02*
X110855000Y-101600000D01*
X111755000Y-102400000D02*
X111755000Y-100800000D01*
X111255000Y-102400000D02*
X114755000Y-102400000D01*
X114755000Y-102400000D02*
X114755000Y-100800000D01*
X114755000Y-100800000D02*
X111255000Y-100800000D01*
X111255000Y-100800000D02*
X111255000Y-102400000D01*
X96340000Y-101600000D02*
X96740000Y-101600000D01*
X92840000Y-101600000D02*
X92440000Y-101600000D01*
X93340000Y-102400000D02*
X93340000Y-100800000D01*
X92840000Y-102400000D02*
X96340000Y-102400000D01*
X96340000Y-102400000D02*
X96340000Y-100800000D01*
X96340000Y-100800000D02*
X92840000Y-100800000D01*
X92840000Y-100800000D02*
X92840000Y-102400000D01*
X151585000Y-83185000D02*
X151985000Y-83185000D01*
X148085000Y-83185000D02*
X147685000Y-83185000D01*
X148585000Y-83985000D02*
X148585000Y-82385000D01*
X148085000Y-83985000D02*
X151585000Y-83985000D01*
X151585000Y-83985000D02*
X151585000Y-82385000D01*
X151585000Y-82385000D02*
X148085000Y-82385000D01*
X148085000Y-82385000D02*
X148085000Y-83985000D01*
X133170000Y-83185000D02*
X133570000Y-83185000D01*
X129670000Y-83185000D02*
X129270000Y-83185000D01*
X130170000Y-83985000D02*
X130170000Y-82385000D01*
X129670000Y-83985000D02*
X133170000Y-83985000D01*
X133170000Y-83985000D02*
X133170000Y-82385000D01*
X133170000Y-82385000D02*
X129670000Y-82385000D01*
X129670000Y-82385000D02*
X129670000Y-83985000D01*
X114755000Y-83185000D02*
X115155000Y-83185000D01*
X111255000Y-83185000D02*
X110855000Y-83185000D01*
X111755000Y-83985000D02*
X111755000Y-82385000D01*
X111255000Y-83985000D02*
X114755000Y-83985000D01*
X114755000Y-83985000D02*
X114755000Y-82385000D01*
X114755000Y-82385000D02*
X111255000Y-82385000D01*
X111255000Y-82385000D02*
X111255000Y-83985000D01*
X96340000Y-83185000D02*
X96740000Y-83185000D01*
X92840000Y-83185000D02*
X92440000Y-83185000D01*
X93340000Y-83985000D02*
X93340000Y-82385000D01*
X92840000Y-83985000D02*
X96340000Y-83985000D01*
X96340000Y-83985000D02*
X96340000Y-82385000D01*
X96340000Y-82385000D02*
X92840000Y-82385000D01*
X92840000Y-82385000D02*
X92840000Y-83985000D01*
X151585000Y-64770000D02*
X151985000Y-64770000D01*
X148085000Y-64770000D02*
X147685000Y-64770000D01*
X148585000Y-65570000D02*
X148585000Y-63970000D01*
X148085000Y-65570000D02*
X151585000Y-65570000D01*
X151585000Y-65570000D02*
X151585000Y-63970000D01*
X151585000Y-63970000D02*
X148085000Y-63970000D01*
X148085000Y-63970000D02*
X148085000Y-65570000D01*
X133170000Y-64770000D02*
X133570000Y-64770000D01*
X129670000Y-64770000D02*
X129270000Y-64770000D01*
X130170000Y-65570000D02*
X130170000Y-63970000D01*
X129670000Y-65570000D02*
X133170000Y-65570000D01*
X133170000Y-65570000D02*
X133170000Y-63970000D01*
X133170000Y-63970000D02*
X129670000Y-63970000D01*
X129670000Y-63970000D02*
X129670000Y-65570000D01*
X114755000Y-64770000D02*
X115155000Y-64770000D01*
X111255000Y-64770000D02*
X110855000Y-64770000D01*
X111755000Y-65570000D02*
X111755000Y-63970000D01*
X111255000Y-65570000D02*
X114755000Y-65570000D01*
X114755000Y-65570000D02*
X114755000Y-63970000D01*
X114755000Y-63970000D02*
X111255000Y-63970000D01*
X111255000Y-63970000D02*
X111255000Y-65570000D01*
X96340000Y-64770000D02*
X96740000Y-64770000D01*
X92840000Y-64770000D02*
X92440000Y-64770000D01*
X93340000Y-65570000D02*
X93340000Y-63970000D01*
X92840000Y-65570000D02*
X96340000Y-65570000D01*
X96340000Y-65570000D02*
X96340000Y-63970000D01*
X96340000Y-63970000D02*
X92840000Y-63970000D01*
X92840000Y-63970000D02*
X92840000Y-65570000D01*
X151585000Y-46355000D02*
X151985000Y-46355000D01*
X148085000Y-46355000D02*
X147685000Y-46355000D01*
X148585000Y-47155000D02*
X148585000Y-45555000D01*
X148085000Y-47155000D02*
X151585000Y-47155000D01*
X151585000Y-47155000D02*
X151585000Y-45555000D01*
X151585000Y-45555000D02*
X148085000Y-45555000D01*
X148085000Y-45555000D02*
X148085000Y-47155000D01*
X133170000Y-46355000D02*
X133570000Y-46355000D01*
X129670000Y-46355000D02*
X129270000Y-46355000D01*
X130170000Y-47155000D02*
X130170000Y-45555000D01*
X129670000Y-47155000D02*
X133170000Y-47155000D01*
X133170000Y-47155000D02*
X133170000Y-45555000D01*
X133170000Y-45555000D02*
X129670000Y-45555000D01*
X129670000Y-45555000D02*
X129670000Y-47155000D01*
X114755000Y-46355000D02*
X115155000Y-46355000D01*
X111255000Y-46355000D02*
X110855000Y-46355000D01*
X111755000Y-47155000D02*
X111755000Y-45555000D01*
X111255000Y-47155000D02*
X114755000Y-47155000D01*
X114755000Y-47155000D02*
X114755000Y-45555000D01*
X114755000Y-45555000D02*
X111255000Y-45555000D01*
X111255000Y-45555000D02*
X111255000Y-47155000D01*
D10*
X148690000Y-130307500D02*
G75*
G03X148690000Y-130307500I-250000J0D01*
G01*
X130275000Y-130307500D02*
G75*
G03X130275000Y-130307500I-250000J0D01*
G01*
X111860000Y-130307500D02*
G75*
G03X111860000Y-130307500I-250000J0D01*
G01*
X93445000Y-130307500D02*
G75*
G03X93445000Y-130307500I-250000J0D01*
G01*
X148690000Y-111892500D02*
G75*
G03X148690000Y-111892500I-250000J0D01*
G01*
X130275000Y-111892500D02*
G75*
G03X130275000Y-111892500I-250000J0D01*
G01*
X111860000Y-111892500D02*
G75*
G03X111860000Y-111892500I-250000J0D01*
G01*
X93445000Y-111892500D02*
G75*
G03X93445000Y-111892500I-250000J0D01*
G01*
X148690000Y-93477500D02*
G75*
G03X148690000Y-93477500I-250000J0D01*
G01*
X130275000Y-93477500D02*
G75*
G03X130275000Y-93477500I-250000J0D01*
G01*
X111860000Y-93477500D02*
G75*
G03X111860000Y-93477500I-250000J0D01*
G01*
X93445000Y-93477500D02*
G75*
G03X93445000Y-93477500I-250000J0D01*
G01*
X148690000Y-75062500D02*
G75*
G03X148690000Y-75062500I-250000J0D01*
G01*
X130275000Y-75062500D02*
G75*
G03X130275000Y-75062500I-250000J0D01*
G01*
X111860000Y-75062500D02*
G75*
G03X111860000Y-75062500I-250000J0D01*
G01*
X93445000Y-75062500D02*
G75*
G03X93445000Y-75062500I-250000J0D01*
G01*
X148690000Y-56647500D02*
G75*
G03X148690000Y-56647500I-250000J0D01*
G01*
X130275000Y-56647500D02*
G75*
G03X130275000Y-56647500I-250000J0D01*
G01*
X111860000Y-56647500D02*
G75*
G03X111860000Y-56647500I-250000J0D01*
G01*
X167625000Y-94245000D02*
X155625000Y-94245000D01*
X167625000Y-88245000D02*
X167625000Y-94245000D01*
X155625000Y-88245000D02*
X167625000Y-88245000D01*
X155625000Y-94245000D02*
X155625000Y-88245000D01*
X160655000Y-78740000D02*
X170815000Y-78740000D01*
X170815000Y-78740000D02*
X170815000Y-81280000D01*
X170815000Y-81280000D02*
X160655000Y-81280000D01*
X160655000Y-81280000D02*
X160655000Y-78740000D01*
X163845000Y-86495000D02*
X175845000Y-86495000D01*
X163845000Y-92495000D02*
X163845000Y-86495000D01*
X175845000Y-92495000D02*
X163845000Y-92495000D01*
X175845000Y-86495000D02*
X175845000Y-92495000D01*
X168810000Y-85320000D02*
X168810000Y-85570000D01*
X168810000Y-85570000D02*
X162810000Y-85570000D01*
X162810000Y-85570000D02*
X162810000Y-85320000D01*
X162810000Y-82320000D02*
X162810000Y-82070000D01*
X162810000Y-82070000D02*
X168810000Y-82070000D01*
X168810000Y-82070000D02*
X168810000Y-82320000D01*
D11*
X96340000Y-46355000D02*
X96740000Y-46355000D01*
X92840000Y-46355000D02*
X92440000Y-46355000D01*
X93340000Y-47155000D02*
X93340000Y-45555000D01*
X92840000Y-47155000D02*
X96340000Y-47155000D01*
X96340000Y-47155000D02*
X96340000Y-45555000D01*
X96340000Y-45555000D02*
X92840000Y-45555000D01*
X92840000Y-45555000D02*
X92840000Y-47155000D01*
D10*
X93445000Y-56647500D02*
G75*
G03X93445000Y-56647500I-250000J0D01*
G01*
D11*
X169140095Y-120467381D02*
X169140095Y-119467381D01*
X168902000Y-119467381D01*
X168759142Y-119515000D01*
X168663904Y-119610238D01*
X168616285Y-119705476D01*
X168568666Y-119895952D01*
X168568666Y-120038810D01*
X168616285Y-120229286D01*
X168663904Y-120324524D01*
X168759142Y-120419762D01*
X168902000Y-120467381D01*
X169140095Y-120467381D01*
X167616285Y-120467381D02*
X168187714Y-120467381D01*
X167902000Y-120467381D02*
X167902000Y-119467381D01*
X167997238Y-119610238D01*
X168092476Y-119705476D01*
X168187714Y-119753095D01*
X169140095Y-102052381D02*
X169140095Y-101052381D01*
X168902000Y-101052381D01*
X168759142Y-101100000D01*
X168663904Y-101195238D01*
X168616285Y-101290476D01*
X168568666Y-101480952D01*
X168568666Y-101623810D01*
X168616285Y-101814286D01*
X168663904Y-101909524D01*
X168759142Y-102004762D01*
X168902000Y-102052381D01*
X169140095Y-102052381D01*
X167616285Y-102052381D02*
X168187714Y-102052381D01*
X167902000Y-102052381D02*
X167902000Y-101052381D01*
X167997238Y-101195238D01*
X168092476Y-101290476D01*
X168187714Y-101338095D01*
X150725095Y-120467381D02*
X150725095Y-119467381D01*
X150487000Y-119467381D01*
X150344142Y-119515000D01*
X150248904Y-119610238D01*
X150201285Y-119705476D01*
X150153666Y-119895952D01*
X150153666Y-120038810D01*
X150201285Y-120229286D01*
X150248904Y-120324524D01*
X150344142Y-120419762D01*
X150487000Y-120467381D01*
X150725095Y-120467381D01*
X149201285Y-120467381D02*
X149772714Y-120467381D01*
X149487000Y-120467381D02*
X149487000Y-119467381D01*
X149582238Y-119610238D01*
X149677476Y-119705476D01*
X149772714Y-119753095D01*
X132310095Y-120467381D02*
X132310095Y-119467381D01*
X132072000Y-119467381D01*
X131929142Y-119515000D01*
X131833904Y-119610238D01*
X131786285Y-119705476D01*
X131738666Y-119895952D01*
X131738666Y-120038810D01*
X131786285Y-120229286D01*
X131833904Y-120324524D01*
X131929142Y-120419762D01*
X132072000Y-120467381D01*
X132310095Y-120467381D01*
X130786285Y-120467381D02*
X131357714Y-120467381D01*
X131072000Y-120467381D02*
X131072000Y-119467381D01*
X131167238Y-119610238D01*
X131262476Y-119705476D01*
X131357714Y-119753095D01*
X113895095Y-120467381D02*
X113895095Y-119467381D01*
X113657000Y-119467381D01*
X113514142Y-119515000D01*
X113418904Y-119610238D01*
X113371285Y-119705476D01*
X113323666Y-119895952D01*
X113323666Y-120038810D01*
X113371285Y-120229286D01*
X113418904Y-120324524D01*
X113514142Y-120419762D01*
X113657000Y-120467381D01*
X113895095Y-120467381D01*
X112371285Y-120467381D02*
X112942714Y-120467381D01*
X112657000Y-120467381D02*
X112657000Y-119467381D01*
X112752238Y-119610238D01*
X112847476Y-119705476D01*
X112942714Y-119753095D01*
X95480095Y-120467381D02*
X95480095Y-119467381D01*
X95242000Y-119467381D01*
X95099142Y-119515000D01*
X95003904Y-119610238D01*
X94956285Y-119705476D01*
X94908666Y-119895952D01*
X94908666Y-120038810D01*
X94956285Y-120229286D01*
X95003904Y-120324524D01*
X95099142Y-120419762D01*
X95242000Y-120467381D01*
X95480095Y-120467381D01*
X93956285Y-120467381D02*
X94527714Y-120467381D01*
X94242000Y-120467381D02*
X94242000Y-119467381D01*
X94337238Y-119610238D01*
X94432476Y-119705476D01*
X94527714Y-119753095D01*
X150725095Y-102052381D02*
X150725095Y-101052381D01*
X150487000Y-101052381D01*
X150344142Y-101100000D01*
X150248904Y-101195238D01*
X150201285Y-101290476D01*
X150153666Y-101480952D01*
X150153666Y-101623810D01*
X150201285Y-101814286D01*
X150248904Y-101909524D01*
X150344142Y-102004762D01*
X150487000Y-102052381D01*
X150725095Y-102052381D01*
X149201285Y-102052381D02*
X149772714Y-102052381D01*
X149487000Y-102052381D02*
X149487000Y-101052381D01*
X149582238Y-101195238D01*
X149677476Y-101290476D01*
X149772714Y-101338095D01*
X132310095Y-102052381D02*
X132310095Y-101052381D01*
X132072000Y-101052381D01*
X131929142Y-101100000D01*
X131833904Y-101195238D01*
X131786285Y-101290476D01*
X131738666Y-101480952D01*
X131738666Y-101623810D01*
X131786285Y-101814286D01*
X131833904Y-101909524D01*
X131929142Y-102004762D01*
X132072000Y-102052381D01*
X132310095Y-102052381D01*
X130786285Y-102052381D02*
X131357714Y-102052381D01*
X131072000Y-102052381D02*
X131072000Y-101052381D01*
X131167238Y-101195238D01*
X131262476Y-101290476D01*
X131357714Y-101338095D01*
X113895095Y-102052381D02*
X113895095Y-101052381D01*
X113657000Y-101052381D01*
X113514142Y-101100000D01*
X113418904Y-101195238D01*
X113371285Y-101290476D01*
X113323666Y-101480952D01*
X113323666Y-101623810D01*
X113371285Y-101814286D01*
X113418904Y-101909524D01*
X113514142Y-102004762D01*
X113657000Y-102052381D01*
X113895095Y-102052381D01*
X112371285Y-102052381D02*
X112942714Y-102052381D01*
X112657000Y-102052381D02*
X112657000Y-101052381D01*
X112752238Y-101195238D01*
X112847476Y-101290476D01*
X112942714Y-101338095D01*
X95480095Y-102052381D02*
X95480095Y-101052381D01*
X95242000Y-101052381D01*
X95099142Y-101100000D01*
X95003904Y-101195238D01*
X94956285Y-101290476D01*
X94908666Y-101480952D01*
X94908666Y-101623810D01*
X94956285Y-101814286D01*
X95003904Y-101909524D01*
X95099142Y-102004762D01*
X95242000Y-102052381D01*
X95480095Y-102052381D01*
X93956285Y-102052381D02*
X94527714Y-102052381D01*
X94242000Y-102052381D02*
X94242000Y-101052381D01*
X94337238Y-101195238D01*
X94432476Y-101290476D01*
X94527714Y-101338095D01*
X150725095Y-83637381D02*
X150725095Y-82637381D01*
X150487000Y-82637381D01*
X150344142Y-82685000D01*
X150248904Y-82780238D01*
X150201285Y-82875476D01*
X150153666Y-83065952D01*
X150153666Y-83208810D01*
X150201285Y-83399286D01*
X150248904Y-83494524D01*
X150344142Y-83589762D01*
X150487000Y-83637381D01*
X150725095Y-83637381D01*
X149201285Y-83637381D02*
X149772714Y-83637381D01*
X149487000Y-83637381D02*
X149487000Y-82637381D01*
X149582238Y-82780238D01*
X149677476Y-82875476D01*
X149772714Y-82923095D01*
X132310095Y-83637381D02*
X132310095Y-82637381D01*
X132072000Y-82637381D01*
X131929142Y-82685000D01*
X131833904Y-82780238D01*
X131786285Y-82875476D01*
X131738666Y-83065952D01*
X131738666Y-83208810D01*
X131786285Y-83399286D01*
X131833904Y-83494524D01*
X131929142Y-83589762D01*
X132072000Y-83637381D01*
X132310095Y-83637381D01*
X130786285Y-83637381D02*
X131357714Y-83637381D01*
X131072000Y-83637381D02*
X131072000Y-82637381D01*
X131167238Y-82780238D01*
X131262476Y-82875476D01*
X131357714Y-82923095D01*
X113895095Y-83637381D02*
X113895095Y-82637381D01*
X113657000Y-82637381D01*
X113514142Y-82685000D01*
X113418904Y-82780238D01*
X113371285Y-82875476D01*
X113323666Y-83065952D01*
X113323666Y-83208810D01*
X113371285Y-83399286D01*
X113418904Y-83494524D01*
X113514142Y-83589762D01*
X113657000Y-83637381D01*
X113895095Y-83637381D01*
X112371285Y-83637381D02*
X112942714Y-83637381D01*
X112657000Y-83637381D02*
X112657000Y-82637381D01*
X112752238Y-82780238D01*
X112847476Y-82875476D01*
X112942714Y-82923095D01*
X95480095Y-83637381D02*
X95480095Y-82637381D01*
X95242000Y-82637381D01*
X95099142Y-82685000D01*
X95003904Y-82780238D01*
X94956285Y-82875476D01*
X94908666Y-83065952D01*
X94908666Y-83208810D01*
X94956285Y-83399286D01*
X95003904Y-83494524D01*
X95099142Y-83589762D01*
X95242000Y-83637381D01*
X95480095Y-83637381D01*
X93956285Y-83637381D02*
X94527714Y-83637381D01*
X94242000Y-83637381D02*
X94242000Y-82637381D01*
X94337238Y-82780238D01*
X94432476Y-82875476D01*
X94527714Y-82923095D01*
X150725095Y-65222381D02*
X150725095Y-64222381D01*
X150487000Y-64222381D01*
X150344142Y-64270000D01*
X150248904Y-64365238D01*
X150201285Y-64460476D01*
X150153666Y-64650952D01*
X150153666Y-64793810D01*
X150201285Y-64984286D01*
X150248904Y-65079524D01*
X150344142Y-65174762D01*
X150487000Y-65222381D01*
X150725095Y-65222381D01*
X149201285Y-65222381D02*
X149772714Y-65222381D01*
X149487000Y-65222381D02*
X149487000Y-64222381D01*
X149582238Y-64365238D01*
X149677476Y-64460476D01*
X149772714Y-64508095D01*
X132310095Y-65222381D02*
X132310095Y-64222381D01*
X132072000Y-64222381D01*
X131929142Y-64270000D01*
X131833904Y-64365238D01*
X131786285Y-64460476D01*
X131738666Y-64650952D01*
X131738666Y-64793810D01*
X131786285Y-64984286D01*
X131833904Y-65079524D01*
X131929142Y-65174762D01*
X132072000Y-65222381D01*
X132310095Y-65222381D01*
X130786285Y-65222381D02*
X131357714Y-65222381D01*
X131072000Y-65222381D02*
X131072000Y-64222381D01*
X131167238Y-64365238D01*
X131262476Y-64460476D01*
X131357714Y-64508095D01*
X113895095Y-65222381D02*
X113895095Y-64222381D01*
X113657000Y-64222381D01*
X113514142Y-64270000D01*
X113418904Y-64365238D01*
X113371285Y-64460476D01*
X113323666Y-64650952D01*
X113323666Y-64793810D01*
X113371285Y-64984286D01*
X113418904Y-65079524D01*
X113514142Y-65174762D01*
X113657000Y-65222381D01*
X113895095Y-65222381D01*
X112371285Y-65222381D02*
X112942714Y-65222381D01*
X112657000Y-65222381D02*
X112657000Y-64222381D01*
X112752238Y-64365238D01*
X112847476Y-64460476D01*
X112942714Y-64508095D01*
X95480095Y-65222381D02*
X95480095Y-64222381D01*
X95242000Y-64222381D01*
X95099142Y-64270000D01*
X95003904Y-64365238D01*
X94956285Y-64460476D01*
X94908666Y-64650952D01*
X94908666Y-64793810D01*
X94956285Y-64984286D01*
X95003904Y-65079524D01*
X95099142Y-65174762D01*
X95242000Y-65222381D01*
X95480095Y-65222381D01*
X93956285Y-65222381D02*
X94527714Y-65222381D01*
X94242000Y-65222381D02*
X94242000Y-64222381D01*
X94337238Y-64365238D01*
X94432476Y-64460476D01*
X94527714Y-64508095D01*
X150725095Y-46807381D02*
X150725095Y-45807381D01*
X150487000Y-45807381D01*
X150344142Y-45855000D01*
X150248904Y-45950238D01*
X150201285Y-46045476D01*
X150153666Y-46235952D01*
X150153666Y-46378810D01*
X150201285Y-46569286D01*
X150248904Y-46664524D01*
X150344142Y-46759762D01*
X150487000Y-46807381D01*
X150725095Y-46807381D01*
X149201285Y-46807381D02*
X149772714Y-46807381D01*
X149487000Y-46807381D02*
X149487000Y-45807381D01*
X149582238Y-45950238D01*
X149677476Y-46045476D01*
X149772714Y-46093095D01*
X132310095Y-46807381D02*
X132310095Y-45807381D01*
X132072000Y-45807381D01*
X131929142Y-45855000D01*
X131833904Y-45950238D01*
X131786285Y-46045476D01*
X131738666Y-46235952D01*
X131738666Y-46378810D01*
X131786285Y-46569286D01*
X131833904Y-46664524D01*
X131929142Y-46759762D01*
X132072000Y-46807381D01*
X132310095Y-46807381D01*
X130786285Y-46807381D02*
X131357714Y-46807381D01*
X131072000Y-46807381D02*
X131072000Y-45807381D01*
X131167238Y-45950238D01*
X131262476Y-46045476D01*
X131357714Y-46093095D01*
X113895095Y-46807381D02*
X113895095Y-45807381D01*
X113657000Y-45807381D01*
X113514142Y-45855000D01*
X113418904Y-45950238D01*
X113371285Y-46045476D01*
X113323666Y-46235952D01*
X113323666Y-46378810D01*
X113371285Y-46569286D01*
X113418904Y-46664524D01*
X113514142Y-46759762D01*
X113657000Y-46807381D01*
X113895095Y-46807381D01*
X112371285Y-46807381D02*
X112942714Y-46807381D01*
X112657000Y-46807381D02*
X112657000Y-45807381D01*
X112752238Y-45950238D01*
X112847476Y-46045476D01*
X112942714Y-46093095D01*
D10*
X173939999Y-89811667D02*
X173939999Y-89111667D01*
X173773333Y-89111667D01*
X173673333Y-89145000D01*
X173606666Y-89211667D01*
X173573333Y-89278333D01*
X173539999Y-89411667D01*
X173539999Y-89511667D01*
X173573333Y-89645000D01*
X173606666Y-89711667D01*
X173673333Y-89778333D01*
X173773333Y-89811667D01*
X173939999Y-89811667D01*
X173273333Y-89611667D02*
X172939999Y-89611667D01*
X173339999Y-89811667D02*
X173106666Y-89111667D01*
X172873333Y-89811667D01*
X172739999Y-89111667D02*
X172339999Y-89111667D01*
X172539999Y-89811667D02*
X172539999Y-89111667D01*
X172140000Y-89611667D02*
X171806666Y-89611667D01*
X172206666Y-89811667D02*
X171973333Y-89111667D01*
X171740000Y-89811667D01*
X170346667Y-89651667D02*
X170013333Y-89651667D01*
X170413333Y-89851667D02*
X170180000Y-89151667D01*
X169946667Y-89851667D01*
X160356667Y-94056667D02*
X160023333Y-94056667D01*
X160423333Y-94256667D02*
X160190000Y-93556667D01*
X159956667Y-94256667D01*
X158529999Y-94296667D02*
X158529999Y-93596667D01*
X158363333Y-93596667D01*
X158263333Y-93630000D01*
X158196666Y-93696667D01*
X158163333Y-93763333D01*
X158129999Y-93896667D01*
X158129999Y-93996667D01*
X158163333Y-94130000D01*
X158196666Y-94196667D01*
X158263333Y-94263333D01*
X158363333Y-94296667D01*
X158529999Y-94296667D01*
X157863333Y-94096667D02*
X157529999Y-94096667D01*
X157929999Y-94296667D02*
X157696666Y-93596667D01*
X157463333Y-94296667D01*
X157329999Y-93596667D02*
X156929999Y-93596667D01*
X157129999Y-94296667D02*
X157129999Y-93596667D01*
X156730000Y-94096667D02*
X156396666Y-94096667D01*
X156796666Y-94296667D02*
X156563333Y-93596667D01*
X156330000Y-94296667D01*
D11*
X95480095Y-46807381D02*
X95480095Y-45807381D01*
X95242000Y-45807381D01*
X95099142Y-45855000D01*
X95003904Y-45950238D01*
X94956285Y-46045476D01*
X94908666Y-46235952D01*
X94908666Y-46378810D01*
X94956285Y-46569286D01*
X95003904Y-46664524D01*
X95099142Y-46759762D01*
X95242000Y-46807381D01*
X95480095Y-46807381D01*
X93956285Y-46807381D02*
X94527714Y-46807381D01*
X94242000Y-46807381D02*
X94242000Y-45807381D01*
X94337238Y-45950238D01*
X94432476Y-46045476D01*
X94527714Y-46093095D01*
M02*
