G04 #@! TF.GenerationSoftware,KiCad,Pcbnew,5.0.0-fee4fd1~66~ubuntu18.04.1*
G04 #@! TF.CreationDate,2018-09-14T03:45:09+09:00*
G04 #@! TF.ProjectId,MxLEDBit,4D784C45444269742E6B696361645F70,1*
G04 #@! TF.SameCoordinates,Original*
G04 #@! TF.FileFunction,Soldermask,Top*
G04 #@! TF.FilePolarity,Negative*
%FSLAX46Y46*%
G04 Gerber Fmt 4.6, Leading zero omitted, Abs format (unit mm)*
G04 Created by KiCad (PCBNEW 5.0.0-fee4fd1~66~ubuntu18.04.1) date Fri Sep 14 03:45:09 2018*
%MOMM*%
%LPD*%
G01*
G04 APERTURE LIST*
%ADD10C,0.200000*%
%ADD11C,1.710000*%
%ADD12C,2.500000*%
%ADD13C,4.000000*%
%ADD14O,1.600000X1.800000*%
%ADD15O,1.800000X1.600000*%
%ADD16C,1.400000*%
%ADD17R,1.400000X1.400000*%
%ADD18C,1.397000*%
%ADD19O,2.500000X1.700000*%
%ADD20C,1.524000*%
%ADD21C,2.200000*%
%ADD22C,2.000000*%
G04 APERTURE END LIST*
D10*
X160268333Y-97721666D02*
X160468333Y-97788333D01*
X160801666Y-97788333D01*
X160935000Y-97721666D01*
X161001666Y-97655000D01*
X161068333Y-97521666D01*
X161068333Y-97388333D01*
X161001666Y-97255000D01*
X160935000Y-97188333D01*
X160801666Y-97121666D01*
X160535000Y-97055000D01*
X160401666Y-96988333D01*
X160335000Y-96921666D01*
X160268333Y-96788333D01*
X160268333Y-96655000D01*
X160335000Y-96521666D01*
X160401666Y-96455000D01*
X160535000Y-96388333D01*
X160868333Y-96388333D01*
X161068333Y-96455000D01*
X161535000Y-96855000D02*
X161801666Y-97788333D01*
X162068333Y-97121666D01*
X162335000Y-97788333D01*
X162601666Y-96855000D01*
X163735000Y-97788333D02*
X163735000Y-97055000D01*
X163668333Y-96921666D01*
X163535000Y-96855000D01*
X163268333Y-96855000D01*
X163135000Y-96921666D01*
X163735000Y-97721666D02*
X163601666Y-97788333D01*
X163268333Y-97788333D01*
X163135000Y-97721666D01*
X163068333Y-97588333D01*
X163068333Y-97455000D01*
X163135000Y-97321666D01*
X163268333Y-97255000D01*
X163601666Y-97255000D01*
X163735000Y-97188333D01*
X164401666Y-96855000D02*
X164401666Y-97788333D01*
X164401666Y-96988333D02*
X164468333Y-96921666D01*
X164601666Y-96855000D01*
X164801666Y-96855000D01*
X164935000Y-96921666D01*
X165001666Y-97055000D01*
X165001666Y-97788333D01*
X165668333Y-97788333D02*
X165668333Y-96388333D01*
X166135000Y-97388333D01*
X166601666Y-96388333D01*
X166601666Y-97788333D01*
X167868333Y-97788333D02*
X167868333Y-97055000D01*
X167801666Y-96921666D01*
X167668333Y-96855000D01*
X167401666Y-96855000D01*
X167268333Y-96921666D01*
X167868333Y-97721666D02*
X167735000Y-97788333D01*
X167401666Y-97788333D01*
X167268333Y-97721666D01*
X167201666Y-97588333D01*
X167201666Y-97455000D01*
X167268333Y-97321666D01*
X167401666Y-97255000D01*
X167735000Y-97255000D01*
X167868333Y-97188333D01*
X168335000Y-96855000D02*
X168868333Y-96855000D01*
X168535000Y-96388333D02*
X168535000Y-97588333D01*
X168601666Y-97721666D01*
X168735000Y-97788333D01*
X168868333Y-97788333D01*
X169935000Y-97721666D02*
X169801666Y-97788333D01*
X169535000Y-97788333D01*
X169401666Y-97721666D01*
X169335000Y-97655000D01*
X169268333Y-97521666D01*
X169268333Y-97121666D01*
X169335000Y-96988333D01*
X169401666Y-96921666D01*
X169535000Y-96855000D01*
X169801666Y-96855000D01*
X169935000Y-96921666D01*
X170535000Y-97788333D02*
X170535000Y-96388333D01*
X171135000Y-97788333D02*
X171135000Y-97055000D01*
X171068333Y-96921666D01*
X170935000Y-96855000D01*
X170735000Y-96855000D01*
X170601666Y-96921666D01*
X170535000Y-96988333D01*
D11*
G04 #@! TO.C,SW1*
X169545000Y-130175000D03*
D12*
X167005000Y-125095000D03*
D13*
X164465000Y-130175000D03*
D12*
X160655000Y-127635000D03*
D11*
X159385000Y-130175000D03*
G04 #@! TD*
D14*
G04 #@! TO.C,P12*
X156645000Y-114935000D03*
G04 #@! TD*
D15*
G04 #@! TO.C,P23*
X172085000Y-122355000D03*
G04 #@! TD*
D11*
G04 #@! TO.C,SW1*
X169545000Y-111125000D03*
D12*
X167005000Y-106045000D03*
D13*
X164465000Y-111125000D03*
D12*
X160655000Y-108585000D03*
D11*
X159385000Y-111125000D03*
G04 #@! TD*
D15*
G04 #@! TO.C,P16*
X168275000Y-118945000D03*
G04 #@! TD*
G04 #@! TO.C,P16*
X168275000Y-137995000D03*
G04 #@! TD*
D14*
G04 #@! TO.C,P21*
X172285000Y-133985000D03*
G04 #@! TD*
G04 #@! TO.C,P23*
X156645000Y-111125000D03*
G04 #@! TD*
D15*
G04 #@! TO.C,P23*
X172085000Y-103305000D03*
G04 #@! TD*
D14*
G04 #@! TO.C,P24*
X156645000Y-107315000D03*
G04 #@! TD*
D15*
G04 #@! TO.C,P15*
X172085000Y-137995000D03*
G04 #@! TD*
D14*
G04 #@! TO.C,P24*
X156645000Y-126365000D03*
G04 #@! TD*
D15*
G04 #@! TO.C,P23*
X156845000Y-103305000D03*
G04 #@! TD*
D16*
G04 #@! TO.C,D1*
X169545000Y-122555000D03*
D17*
X163195000Y-122555000D03*
G04 #@! TD*
D16*
G04 #@! TO.C,D1*
X169545000Y-103505000D03*
D17*
X163195000Y-103505000D03*
G04 #@! TD*
D15*
G04 #@! TO.C,P11*
X160655000Y-103305000D03*
G04 #@! TD*
G04 #@! TO.C,P23*
X156845000Y-137995000D03*
G04 #@! TD*
D14*
G04 #@! TO.C,P12*
X156645000Y-133985000D03*
G04 #@! TD*
D15*
G04 #@! TO.C,P23*
X156845000Y-118945000D03*
G04 #@! TD*
D14*
G04 #@! TO.C,P22*
X172285000Y-130175000D03*
G04 #@! TD*
G04 #@! TO.C,P22*
X172285000Y-111125000D03*
G04 #@! TD*
D15*
G04 #@! TO.C,P23*
X156845000Y-122355000D03*
G04 #@! TD*
G04 #@! TO.C,P11*
X160655000Y-122355000D03*
G04 #@! TD*
D14*
G04 #@! TO.C,P23*
X156645000Y-130175000D03*
G04 #@! TD*
D15*
G04 #@! TO.C,P15*
X172085000Y-118945000D03*
G04 #@! TD*
G04 #@! TO.C,P11*
X160655000Y-118945000D03*
G04 #@! TD*
G04 #@! TO.C,P11*
X160655000Y-137995000D03*
G04 #@! TD*
D14*
G04 #@! TO.C,P21*
X172285000Y-114935000D03*
G04 #@! TD*
G04 #@! TO.C,P12*
X172285000Y-126365000D03*
G04 #@! TD*
G04 #@! TO.C,P12*
X172285000Y-107315000D03*
G04 #@! TD*
G04 #@! TO.C,P12*
X153235000Y-126365000D03*
G04 #@! TD*
G04 #@! TO.C,P12*
X134185000Y-126365000D03*
G04 #@! TD*
G04 #@! TO.C,P12*
X115135000Y-126365000D03*
G04 #@! TD*
G04 #@! TO.C,P12*
X96085000Y-126365000D03*
G04 #@! TD*
G04 #@! TO.C,P12*
X153235000Y-107315000D03*
G04 #@! TD*
G04 #@! TO.C,P12*
X134185000Y-107315000D03*
G04 #@! TD*
G04 #@! TO.C,P12*
X115135000Y-107315000D03*
G04 #@! TD*
G04 #@! TO.C,P12*
X96085000Y-107315000D03*
G04 #@! TD*
G04 #@! TO.C,P12*
X153235000Y-88265000D03*
G04 #@! TD*
G04 #@! TO.C,P12*
X134185000Y-88265000D03*
G04 #@! TD*
G04 #@! TO.C,P12*
X115135000Y-88265000D03*
G04 #@! TD*
G04 #@! TO.C,P12*
X96085000Y-88265000D03*
G04 #@! TD*
G04 #@! TO.C,P12*
X153235000Y-69215000D03*
G04 #@! TD*
G04 #@! TO.C,P12*
X134185000Y-69215000D03*
G04 #@! TD*
G04 #@! TO.C,P12*
X115135000Y-69215000D03*
G04 #@! TD*
G04 #@! TO.C,P12*
X96085000Y-69215000D03*
G04 #@! TD*
G04 #@! TO.C,P12*
X153235000Y-50165000D03*
G04 #@! TD*
G04 #@! TO.C,P12*
X134185000Y-50165000D03*
G04 #@! TD*
G04 #@! TO.C,P12*
X115135000Y-50165000D03*
G04 #@! TD*
D15*
G04 #@! TO.C,P23*
X137795000Y-137995000D03*
G04 #@! TD*
G04 #@! TO.C,P23*
X118745000Y-137995000D03*
G04 #@! TD*
G04 #@! TO.C,P23*
X99695000Y-137995000D03*
G04 #@! TD*
G04 #@! TO.C,P23*
X80645000Y-137995000D03*
G04 #@! TD*
G04 #@! TO.C,P23*
X137795000Y-118945000D03*
G04 #@! TD*
G04 #@! TO.C,P23*
X118745000Y-118945000D03*
G04 #@! TD*
G04 #@! TO.C,P23*
X99695000Y-118945000D03*
G04 #@! TD*
G04 #@! TO.C,P23*
X80645000Y-118945000D03*
G04 #@! TD*
G04 #@! TO.C,P23*
X137795000Y-99895000D03*
G04 #@! TD*
G04 #@! TO.C,P23*
X118745000Y-99895000D03*
G04 #@! TD*
G04 #@! TO.C,P23*
X99695000Y-99895000D03*
G04 #@! TD*
G04 #@! TO.C,P23*
X80645000Y-99895000D03*
G04 #@! TD*
G04 #@! TO.C,P23*
X137795000Y-80845000D03*
G04 #@! TD*
G04 #@! TO.C,P23*
X118745000Y-80845000D03*
G04 #@! TD*
G04 #@! TO.C,P23*
X99695000Y-80845000D03*
G04 #@! TD*
G04 #@! TO.C,P23*
X80645000Y-80845000D03*
G04 #@! TD*
G04 #@! TO.C,P23*
X137795000Y-61795000D03*
G04 #@! TD*
G04 #@! TO.C,P23*
X118745000Y-61795000D03*
G04 #@! TD*
G04 #@! TO.C,P23*
X99695000Y-61795000D03*
G04 #@! TD*
G04 #@! TO.C,P23*
X137795000Y-122355000D03*
G04 #@! TD*
G04 #@! TO.C,P23*
X118745000Y-122355000D03*
G04 #@! TD*
G04 #@! TO.C,P23*
X99695000Y-122355000D03*
G04 #@! TD*
G04 #@! TO.C,P23*
X80645000Y-122355000D03*
G04 #@! TD*
G04 #@! TO.C,P23*
X137795000Y-103305000D03*
G04 #@! TD*
G04 #@! TO.C,P23*
X118745000Y-103305000D03*
G04 #@! TD*
G04 #@! TO.C,P23*
X99695000Y-103305000D03*
G04 #@! TD*
G04 #@! TO.C,P23*
X80645000Y-103305000D03*
G04 #@! TD*
G04 #@! TO.C,P23*
X137795000Y-84255000D03*
G04 #@! TD*
G04 #@! TO.C,P23*
X118745000Y-84255000D03*
G04 #@! TD*
G04 #@! TO.C,P23*
X99695000Y-84255000D03*
G04 #@! TD*
G04 #@! TO.C,P23*
X80645000Y-84255000D03*
G04 #@! TD*
G04 #@! TO.C,P23*
X137795000Y-65205000D03*
G04 #@! TD*
G04 #@! TO.C,P23*
X118745000Y-65205000D03*
G04 #@! TD*
G04 #@! TO.C,P23*
X99695000Y-65205000D03*
G04 #@! TD*
G04 #@! TO.C,P23*
X80645000Y-65205000D03*
G04 #@! TD*
G04 #@! TO.C,P23*
X137795000Y-46155000D03*
G04 #@! TD*
G04 #@! TO.C,P23*
X118745000Y-46155000D03*
G04 #@! TD*
G04 #@! TO.C,P23*
X99695000Y-46155000D03*
G04 #@! TD*
D14*
G04 #@! TO.C,P23*
X137595000Y-130175000D03*
G04 #@! TD*
G04 #@! TO.C,P23*
X118545000Y-130175000D03*
G04 #@! TD*
G04 #@! TO.C,P23*
X99495000Y-130175000D03*
G04 #@! TD*
G04 #@! TO.C,P23*
X80445000Y-130175000D03*
G04 #@! TD*
G04 #@! TO.C,P23*
X137595000Y-111125000D03*
G04 #@! TD*
G04 #@! TO.C,P23*
X118545000Y-111125000D03*
G04 #@! TD*
G04 #@! TO.C,P23*
X99495000Y-111125000D03*
G04 #@! TD*
G04 #@! TO.C,P23*
X80445000Y-111125000D03*
G04 #@! TD*
G04 #@! TO.C,P23*
X137595000Y-92075000D03*
G04 #@! TD*
G04 #@! TO.C,P23*
X118545000Y-92075000D03*
G04 #@! TD*
G04 #@! TO.C,P23*
X99495000Y-92075000D03*
G04 #@! TD*
G04 #@! TO.C,P23*
X80445000Y-92075000D03*
G04 #@! TD*
G04 #@! TO.C,P23*
X137595000Y-73025000D03*
G04 #@! TD*
G04 #@! TO.C,P23*
X118545000Y-73025000D03*
G04 #@! TD*
G04 #@! TO.C,P23*
X99495000Y-73025000D03*
G04 #@! TD*
G04 #@! TO.C,P23*
X80445000Y-73025000D03*
G04 #@! TD*
G04 #@! TO.C,P23*
X137595000Y-53975000D03*
G04 #@! TD*
G04 #@! TO.C,P23*
X118545000Y-53975000D03*
G04 #@! TD*
G04 #@! TO.C,P23*
X99495000Y-53975000D03*
G04 #@! TD*
G04 #@! TO.C,P22*
X153235000Y-130175000D03*
G04 #@! TD*
G04 #@! TO.C,P22*
X134185000Y-130175000D03*
G04 #@! TD*
G04 #@! TO.C,P22*
X115135000Y-130175000D03*
G04 #@! TD*
G04 #@! TO.C,P22*
X96085000Y-130175000D03*
G04 #@! TD*
G04 #@! TO.C,P22*
X153235000Y-111125000D03*
G04 #@! TD*
G04 #@! TO.C,P22*
X134185000Y-111125000D03*
G04 #@! TD*
G04 #@! TO.C,P22*
X115135000Y-111125000D03*
G04 #@! TD*
G04 #@! TO.C,P22*
X96085000Y-111125000D03*
G04 #@! TD*
G04 #@! TO.C,P22*
X153235000Y-92075000D03*
G04 #@! TD*
G04 #@! TO.C,P22*
X134185000Y-92075000D03*
G04 #@! TD*
G04 #@! TO.C,P22*
X115135000Y-92075000D03*
G04 #@! TD*
G04 #@! TO.C,P22*
X96085000Y-92075000D03*
G04 #@! TD*
G04 #@! TO.C,P22*
X153235000Y-73025000D03*
G04 #@! TD*
G04 #@! TO.C,P22*
X134185000Y-73025000D03*
G04 #@! TD*
G04 #@! TO.C,P22*
X115135000Y-73025000D03*
G04 #@! TD*
G04 #@! TO.C,P22*
X96085000Y-73025000D03*
G04 #@! TD*
G04 #@! TO.C,P22*
X153235000Y-53975000D03*
G04 #@! TD*
G04 #@! TO.C,P22*
X134185000Y-53975000D03*
G04 #@! TD*
G04 #@! TO.C,P22*
X115135000Y-53975000D03*
G04 #@! TD*
G04 #@! TO.C,P24*
X137595000Y-126365000D03*
G04 #@! TD*
G04 #@! TO.C,P24*
X118545000Y-126365000D03*
G04 #@! TD*
G04 #@! TO.C,P24*
X99495000Y-126365000D03*
G04 #@! TD*
G04 #@! TO.C,P24*
X80445000Y-126365000D03*
G04 #@! TD*
G04 #@! TO.C,P24*
X137595000Y-107315000D03*
G04 #@! TD*
G04 #@! TO.C,P24*
X118545000Y-107315000D03*
G04 #@! TD*
G04 #@! TO.C,P24*
X99495000Y-107315000D03*
G04 #@! TD*
G04 #@! TO.C,P24*
X80445000Y-107315000D03*
G04 #@! TD*
G04 #@! TO.C,P24*
X137595000Y-88265000D03*
G04 #@! TD*
G04 #@! TO.C,P24*
X118545000Y-88265000D03*
G04 #@! TD*
G04 #@! TO.C,P24*
X99495000Y-88265000D03*
G04 #@! TD*
G04 #@! TO.C,P24*
X80445000Y-88265000D03*
G04 #@! TD*
G04 #@! TO.C,P24*
X137595000Y-69215000D03*
G04 #@! TD*
G04 #@! TO.C,P24*
X118545000Y-69215000D03*
G04 #@! TD*
G04 #@! TO.C,P24*
X99495000Y-69215000D03*
G04 #@! TD*
G04 #@! TO.C,P24*
X80445000Y-69215000D03*
G04 #@! TD*
G04 #@! TO.C,P24*
X137595000Y-50165000D03*
G04 #@! TD*
G04 #@! TO.C,P24*
X118545000Y-50165000D03*
G04 #@! TD*
G04 #@! TO.C,P24*
X99495000Y-50165000D03*
G04 #@! TD*
D15*
G04 #@! TO.C,P23*
X153035000Y-122355000D03*
G04 #@! TD*
G04 #@! TO.C,P23*
X133985000Y-122355000D03*
G04 #@! TD*
G04 #@! TO.C,P23*
X114935000Y-122355000D03*
G04 #@! TD*
G04 #@! TO.C,P23*
X95885000Y-122355000D03*
G04 #@! TD*
G04 #@! TO.C,P23*
X153035000Y-103305000D03*
G04 #@! TD*
G04 #@! TO.C,P23*
X133985000Y-103305000D03*
G04 #@! TD*
G04 #@! TO.C,P23*
X114935000Y-103305000D03*
G04 #@! TD*
G04 #@! TO.C,P23*
X95885000Y-103305000D03*
G04 #@! TD*
G04 #@! TO.C,P23*
X153035000Y-84255000D03*
G04 #@! TD*
G04 #@! TO.C,P23*
X133985000Y-84255000D03*
G04 #@! TD*
G04 #@! TO.C,P23*
X114935000Y-84255000D03*
G04 #@! TD*
G04 #@! TO.C,P23*
X95885000Y-84255000D03*
G04 #@! TD*
G04 #@! TO.C,P23*
X153035000Y-65205000D03*
G04 #@! TD*
G04 #@! TO.C,P23*
X133985000Y-65205000D03*
G04 #@! TD*
G04 #@! TO.C,P23*
X114935000Y-65205000D03*
G04 #@! TD*
G04 #@! TO.C,P23*
X95885000Y-65205000D03*
G04 #@! TD*
G04 #@! TO.C,P23*
X153035000Y-46155000D03*
G04 #@! TD*
G04 #@! TO.C,P23*
X133985000Y-46155000D03*
G04 #@! TD*
G04 #@! TO.C,P23*
X114935000Y-46155000D03*
G04 #@! TD*
G04 #@! TO.C,P16*
X149225000Y-137995000D03*
G04 #@! TD*
G04 #@! TO.C,P16*
X130175000Y-137995000D03*
G04 #@! TD*
G04 #@! TO.C,P16*
X111125000Y-137995000D03*
G04 #@! TD*
G04 #@! TO.C,P16*
X92075000Y-137995000D03*
G04 #@! TD*
G04 #@! TO.C,P16*
X149225000Y-118945000D03*
G04 #@! TD*
G04 #@! TO.C,P16*
X130175000Y-118945000D03*
G04 #@! TD*
G04 #@! TO.C,P16*
X111125000Y-118945000D03*
G04 #@! TD*
G04 #@! TO.C,P16*
X92075000Y-118945000D03*
G04 #@! TD*
G04 #@! TO.C,P16*
X149225000Y-99895000D03*
G04 #@! TD*
G04 #@! TO.C,P16*
X130175000Y-99895000D03*
G04 #@! TD*
G04 #@! TO.C,P16*
X111125000Y-99895000D03*
G04 #@! TD*
G04 #@! TO.C,P16*
X92075000Y-99895000D03*
G04 #@! TD*
G04 #@! TO.C,P16*
X149225000Y-80845000D03*
G04 #@! TD*
G04 #@! TO.C,P16*
X130175000Y-80845000D03*
G04 #@! TD*
G04 #@! TO.C,P16*
X111125000Y-80845000D03*
G04 #@! TD*
G04 #@! TO.C,P16*
X92075000Y-80845000D03*
G04 #@! TD*
G04 #@! TO.C,P16*
X149225000Y-61795000D03*
G04 #@! TD*
G04 #@! TO.C,P16*
X130175000Y-61795000D03*
G04 #@! TD*
G04 #@! TO.C,P16*
X111125000Y-61795000D03*
G04 #@! TD*
D14*
G04 #@! TO.C,P12*
X137595000Y-133985000D03*
G04 #@! TD*
G04 #@! TO.C,P12*
X118545000Y-133985000D03*
G04 #@! TD*
G04 #@! TO.C,P12*
X99495000Y-133985000D03*
G04 #@! TD*
G04 #@! TO.C,P12*
X80445000Y-133985000D03*
G04 #@! TD*
G04 #@! TO.C,P12*
X137595000Y-114935000D03*
G04 #@! TD*
G04 #@! TO.C,P12*
X118545000Y-114935000D03*
G04 #@! TD*
G04 #@! TO.C,P12*
X99495000Y-114935000D03*
G04 #@! TD*
G04 #@! TO.C,P12*
X80445000Y-114935000D03*
G04 #@! TD*
G04 #@! TO.C,P12*
X137595000Y-95885000D03*
G04 #@! TD*
G04 #@! TO.C,P12*
X118545000Y-95885000D03*
G04 #@! TD*
G04 #@! TO.C,P12*
X99495000Y-95885000D03*
G04 #@! TD*
G04 #@! TO.C,P12*
X80445000Y-95885000D03*
G04 #@! TD*
G04 #@! TO.C,P12*
X137595000Y-76835000D03*
G04 #@! TD*
G04 #@! TO.C,P12*
X118545000Y-76835000D03*
G04 #@! TD*
G04 #@! TO.C,P12*
X99495000Y-76835000D03*
G04 #@! TD*
G04 #@! TO.C,P12*
X80445000Y-76835000D03*
G04 #@! TD*
G04 #@! TO.C,P12*
X137595000Y-57785000D03*
G04 #@! TD*
G04 #@! TO.C,P12*
X118545000Y-57785000D03*
G04 #@! TD*
G04 #@! TO.C,P12*
X99495000Y-57785000D03*
G04 #@! TD*
D15*
G04 #@! TO.C,P11*
X141605000Y-122355000D03*
G04 #@! TD*
G04 #@! TO.C,P11*
X122555000Y-122355000D03*
G04 #@! TD*
G04 #@! TO.C,P11*
X103505000Y-122355000D03*
G04 #@! TD*
G04 #@! TO.C,P11*
X84455000Y-122355000D03*
G04 #@! TD*
G04 #@! TO.C,P11*
X141605000Y-103305000D03*
G04 #@! TD*
G04 #@! TO.C,P11*
X122555000Y-103305000D03*
G04 #@! TD*
G04 #@! TO.C,P11*
X103505000Y-103305000D03*
G04 #@! TD*
G04 #@! TO.C,P11*
X84455000Y-103305000D03*
G04 #@! TD*
G04 #@! TO.C,P11*
X141605000Y-84255000D03*
G04 #@! TD*
G04 #@! TO.C,P11*
X122555000Y-84255000D03*
G04 #@! TD*
G04 #@! TO.C,P11*
X103505000Y-84255000D03*
G04 #@! TD*
G04 #@! TO.C,P11*
X84455000Y-84255000D03*
G04 #@! TD*
G04 #@! TO.C,P11*
X141605000Y-65205000D03*
G04 #@! TD*
G04 #@! TO.C,P11*
X122555000Y-65205000D03*
G04 #@! TD*
G04 #@! TO.C,P11*
X103505000Y-65205000D03*
G04 #@! TD*
G04 #@! TO.C,P11*
X84455000Y-65205000D03*
G04 #@! TD*
G04 #@! TO.C,P11*
X141605000Y-46155000D03*
G04 #@! TD*
G04 #@! TO.C,P11*
X122555000Y-46155000D03*
G04 #@! TD*
G04 #@! TO.C,P11*
X103505000Y-46155000D03*
G04 #@! TD*
D17*
G04 #@! TO.C,D1*
X144145000Y-122555000D03*
D16*
X150495000Y-122555000D03*
G04 #@! TD*
D17*
G04 #@! TO.C,D1*
X125095000Y-122555000D03*
D16*
X131445000Y-122555000D03*
G04 #@! TD*
D17*
G04 #@! TO.C,D1*
X106045000Y-122555000D03*
D16*
X112395000Y-122555000D03*
G04 #@! TD*
D17*
G04 #@! TO.C,D1*
X86995000Y-122555000D03*
D16*
X93345000Y-122555000D03*
G04 #@! TD*
D17*
G04 #@! TO.C,D1*
X144145000Y-103505000D03*
D16*
X150495000Y-103505000D03*
G04 #@! TD*
D17*
G04 #@! TO.C,D1*
X125095000Y-103505000D03*
D16*
X131445000Y-103505000D03*
G04 #@! TD*
D17*
G04 #@! TO.C,D1*
X106045000Y-103505000D03*
D16*
X112395000Y-103505000D03*
G04 #@! TD*
D17*
G04 #@! TO.C,D1*
X86995000Y-103505000D03*
D16*
X93345000Y-103505000D03*
G04 #@! TD*
D17*
G04 #@! TO.C,D1*
X144145000Y-84455000D03*
D16*
X150495000Y-84455000D03*
G04 #@! TD*
D17*
G04 #@! TO.C,D1*
X125095000Y-84455000D03*
D16*
X131445000Y-84455000D03*
G04 #@! TD*
D17*
G04 #@! TO.C,D1*
X106045000Y-84455000D03*
D16*
X112395000Y-84455000D03*
G04 #@! TD*
D17*
G04 #@! TO.C,D1*
X86995000Y-84455000D03*
D16*
X93345000Y-84455000D03*
G04 #@! TD*
D17*
G04 #@! TO.C,D1*
X144145000Y-65405000D03*
D16*
X150495000Y-65405000D03*
G04 #@! TD*
D17*
G04 #@! TO.C,D1*
X125095000Y-65405000D03*
D16*
X131445000Y-65405000D03*
G04 #@! TD*
D17*
G04 #@! TO.C,D1*
X106045000Y-65405000D03*
D16*
X112395000Y-65405000D03*
G04 #@! TD*
D17*
G04 #@! TO.C,D1*
X86995000Y-65405000D03*
D16*
X93345000Y-65405000D03*
G04 #@! TD*
D17*
G04 #@! TO.C,D1*
X144145000Y-46355000D03*
D16*
X150495000Y-46355000D03*
G04 #@! TD*
D17*
G04 #@! TO.C,D1*
X125095000Y-46355000D03*
D16*
X131445000Y-46355000D03*
G04 #@! TD*
D17*
G04 #@! TO.C,D1*
X106045000Y-46355000D03*
D16*
X112395000Y-46355000D03*
G04 #@! TD*
D11*
G04 #@! TO.C,SW1*
X140335000Y-130175000D03*
D12*
X141605000Y-127635000D03*
D13*
X145415000Y-130175000D03*
D12*
X147955000Y-125095000D03*
D11*
X150495000Y-130175000D03*
G04 #@! TD*
G04 #@! TO.C,SW1*
X121285000Y-130175000D03*
D12*
X122555000Y-127635000D03*
D13*
X126365000Y-130175000D03*
D12*
X128905000Y-125095000D03*
D11*
X131445000Y-130175000D03*
G04 #@! TD*
G04 #@! TO.C,SW1*
X102235000Y-130175000D03*
D12*
X103505000Y-127635000D03*
D13*
X107315000Y-130175000D03*
D12*
X109855000Y-125095000D03*
D11*
X112395000Y-130175000D03*
G04 #@! TD*
G04 #@! TO.C,SW1*
X83185000Y-130175000D03*
D12*
X84455000Y-127635000D03*
D13*
X88265000Y-130175000D03*
D12*
X90805000Y-125095000D03*
D11*
X93345000Y-130175000D03*
G04 #@! TD*
G04 #@! TO.C,SW1*
X140335000Y-111125000D03*
D12*
X141605000Y-108585000D03*
D13*
X145415000Y-111125000D03*
D12*
X147955000Y-106045000D03*
D11*
X150495000Y-111125000D03*
G04 #@! TD*
G04 #@! TO.C,SW1*
X121285000Y-111125000D03*
D12*
X122555000Y-108585000D03*
D13*
X126365000Y-111125000D03*
D12*
X128905000Y-106045000D03*
D11*
X131445000Y-111125000D03*
G04 #@! TD*
G04 #@! TO.C,SW1*
X102235000Y-111125000D03*
D12*
X103505000Y-108585000D03*
D13*
X107315000Y-111125000D03*
D12*
X109855000Y-106045000D03*
D11*
X112395000Y-111125000D03*
G04 #@! TD*
G04 #@! TO.C,SW1*
X83185000Y-111125000D03*
D12*
X84455000Y-108585000D03*
D13*
X88265000Y-111125000D03*
D12*
X90805000Y-106045000D03*
D11*
X93345000Y-111125000D03*
G04 #@! TD*
G04 #@! TO.C,SW1*
X140335000Y-92075000D03*
D12*
X141605000Y-89535000D03*
D13*
X145415000Y-92075000D03*
D12*
X147955000Y-86995000D03*
D11*
X150495000Y-92075000D03*
G04 #@! TD*
G04 #@! TO.C,SW1*
X121285000Y-92075000D03*
D12*
X122555000Y-89535000D03*
D13*
X126365000Y-92075000D03*
D12*
X128905000Y-86995000D03*
D11*
X131445000Y-92075000D03*
G04 #@! TD*
G04 #@! TO.C,SW1*
X102235000Y-92075000D03*
D12*
X103505000Y-89535000D03*
D13*
X107315000Y-92075000D03*
D12*
X109855000Y-86995000D03*
D11*
X112395000Y-92075000D03*
G04 #@! TD*
G04 #@! TO.C,SW1*
X83185000Y-92075000D03*
D12*
X84455000Y-89535000D03*
D13*
X88265000Y-92075000D03*
D12*
X90805000Y-86995000D03*
D11*
X93345000Y-92075000D03*
G04 #@! TD*
G04 #@! TO.C,SW1*
X140335000Y-73025000D03*
D12*
X141605000Y-70485000D03*
D13*
X145415000Y-73025000D03*
D12*
X147955000Y-67945000D03*
D11*
X150495000Y-73025000D03*
G04 #@! TD*
G04 #@! TO.C,SW1*
X121285000Y-73025000D03*
D12*
X122555000Y-70485000D03*
D13*
X126365000Y-73025000D03*
D12*
X128905000Y-67945000D03*
D11*
X131445000Y-73025000D03*
G04 #@! TD*
G04 #@! TO.C,SW1*
X102235000Y-73025000D03*
D12*
X103505000Y-70485000D03*
D13*
X107315000Y-73025000D03*
D12*
X109855000Y-67945000D03*
D11*
X112395000Y-73025000D03*
G04 #@! TD*
G04 #@! TO.C,SW1*
X83185000Y-73025000D03*
D12*
X84455000Y-70485000D03*
D13*
X88265000Y-73025000D03*
D12*
X90805000Y-67945000D03*
D11*
X93345000Y-73025000D03*
G04 #@! TD*
G04 #@! TO.C,SW1*
X140335000Y-53975000D03*
D12*
X141605000Y-51435000D03*
D13*
X145415000Y-53975000D03*
D12*
X147955000Y-48895000D03*
D11*
X150495000Y-53975000D03*
G04 #@! TD*
G04 #@! TO.C,SW1*
X121285000Y-53975000D03*
D12*
X122555000Y-51435000D03*
D13*
X126365000Y-53975000D03*
D12*
X128905000Y-48895000D03*
D11*
X131445000Y-53975000D03*
G04 #@! TD*
G04 #@! TO.C,SW1*
X102235000Y-53975000D03*
D12*
X103505000Y-51435000D03*
D13*
X107315000Y-53975000D03*
D12*
X109855000Y-48895000D03*
D11*
X112395000Y-53975000D03*
G04 #@! TD*
D14*
G04 #@! TO.C,P21*
X153235000Y-133985000D03*
G04 #@! TD*
G04 #@! TO.C,P21*
X134185000Y-133985000D03*
G04 #@! TD*
G04 #@! TO.C,P21*
X115135000Y-133985000D03*
G04 #@! TD*
G04 #@! TO.C,P21*
X96085000Y-133985000D03*
G04 #@! TD*
G04 #@! TO.C,P21*
X153235000Y-114935000D03*
G04 #@! TD*
G04 #@! TO.C,P21*
X134185000Y-114935000D03*
G04 #@! TD*
G04 #@! TO.C,P21*
X115135000Y-114935000D03*
G04 #@! TD*
G04 #@! TO.C,P21*
X96085000Y-114935000D03*
G04 #@! TD*
G04 #@! TO.C,P21*
X153235000Y-95885000D03*
G04 #@! TD*
G04 #@! TO.C,P21*
X134185000Y-95885000D03*
G04 #@! TD*
G04 #@! TO.C,P21*
X115135000Y-95885000D03*
G04 #@! TD*
G04 #@! TO.C,P21*
X96085000Y-95885000D03*
G04 #@! TD*
G04 #@! TO.C,P21*
X153235000Y-76835000D03*
G04 #@! TD*
G04 #@! TO.C,P21*
X134185000Y-76835000D03*
G04 #@! TD*
G04 #@! TO.C,P21*
X115135000Y-76835000D03*
G04 #@! TD*
G04 #@! TO.C,P21*
X96085000Y-76835000D03*
G04 #@! TD*
G04 #@! TO.C,P21*
X153235000Y-57785000D03*
G04 #@! TD*
G04 #@! TO.C,P21*
X134185000Y-57785000D03*
G04 #@! TD*
G04 #@! TO.C,P21*
X115135000Y-57785000D03*
G04 #@! TD*
D15*
G04 #@! TO.C,P15*
X153035000Y-137995000D03*
G04 #@! TD*
G04 #@! TO.C,P15*
X133985000Y-137995000D03*
G04 #@! TD*
G04 #@! TO.C,P15*
X114935000Y-137995000D03*
G04 #@! TD*
G04 #@! TO.C,P15*
X95885000Y-137995000D03*
G04 #@! TD*
G04 #@! TO.C,P15*
X153035000Y-118945000D03*
G04 #@! TD*
G04 #@! TO.C,P15*
X133985000Y-118945000D03*
G04 #@! TD*
G04 #@! TO.C,P15*
X114935000Y-118945000D03*
G04 #@! TD*
G04 #@! TO.C,P15*
X95885000Y-118945000D03*
G04 #@! TD*
G04 #@! TO.C,P15*
X153035000Y-99895000D03*
G04 #@! TD*
G04 #@! TO.C,P15*
X133985000Y-99895000D03*
G04 #@! TD*
G04 #@! TO.C,P15*
X114935000Y-99895000D03*
G04 #@! TD*
G04 #@! TO.C,P15*
X95885000Y-99895000D03*
G04 #@! TD*
G04 #@! TO.C,P15*
X153035000Y-80845000D03*
G04 #@! TD*
G04 #@! TO.C,P15*
X133985000Y-80845000D03*
G04 #@! TD*
G04 #@! TO.C,P15*
X114935000Y-80845000D03*
G04 #@! TD*
G04 #@! TO.C,P15*
X95885000Y-80845000D03*
G04 #@! TD*
G04 #@! TO.C,P15*
X153035000Y-61795000D03*
G04 #@! TD*
G04 #@! TO.C,P15*
X133985000Y-61795000D03*
G04 #@! TD*
G04 #@! TO.C,P15*
X114935000Y-61795000D03*
G04 #@! TD*
G04 #@! TO.C,P11*
X141605000Y-137995000D03*
G04 #@! TD*
G04 #@! TO.C,P11*
X122555000Y-137995000D03*
G04 #@! TD*
G04 #@! TO.C,P11*
X103505000Y-137995000D03*
G04 #@! TD*
G04 #@! TO.C,P11*
X84455000Y-137995000D03*
G04 #@! TD*
G04 #@! TO.C,P11*
X141605000Y-118945000D03*
G04 #@! TD*
G04 #@! TO.C,P11*
X122555000Y-118945000D03*
G04 #@! TD*
G04 #@! TO.C,P11*
X103505000Y-118945000D03*
G04 #@! TD*
G04 #@! TO.C,P11*
X84455000Y-118945000D03*
G04 #@! TD*
G04 #@! TO.C,P11*
X141605000Y-99895000D03*
G04 #@! TD*
G04 #@! TO.C,P11*
X122555000Y-99895000D03*
G04 #@! TD*
G04 #@! TO.C,P11*
X103505000Y-99895000D03*
G04 #@! TD*
G04 #@! TO.C,P11*
X84455000Y-99895000D03*
G04 #@! TD*
G04 #@! TO.C,P11*
X141605000Y-80845000D03*
G04 #@! TD*
G04 #@! TO.C,P11*
X122555000Y-80845000D03*
G04 #@! TD*
G04 #@! TO.C,P11*
X103505000Y-80845000D03*
G04 #@! TD*
G04 #@! TO.C,P11*
X84455000Y-80845000D03*
G04 #@! TD*
G04 #@! TO.C,P11*
X141605000Y-61795000D03*
G04 #@! TD*
G04 #@! TO.C,P11*
X122555000Y-61795000D03*
G04 #@! TD*
G04 #@! TO.C,P11*
X103505000Y-61795000D03*
G04 #@! TD*
D18*
G04 #@! TO.C,P2*
X167640000Y-76835000D03*
G04 #@! TD*
G04 #@! TO.C,P2*
X167640000Y-74295000D03*
G04 #@! TD*
G04 #@! TO.C,P2*
X167640000Y-71755000D03*
G04 #@! TD*
G04 #@! TO.C,P2*
X167640000Y-64135000D03*
G04 #@! TD*
G04 #@! TO.C,P2*
X167640000Y-69215000D03*
G04 #@! TD*
G04 #@! TO.C,P2*
X167640000Y-66675000D03*
G04 #@! TD*
G04 #@! TO.C,P2*
X163830000Y-64135000D03*
G04 #@! TD*
G04 #@! TO.C,P2*
X163830000Y-66675000D03*
G04 #@! TD*
G04 #@! TO.C,P2*
X163830000Y-69215000D03*
G04 #@! TD*
G04 #@! TO.C,P2*
X163830000Y-76835000D03*
G04 #@! TD*
G04 #@! TO.C,P2*
X163830000Y-71755000D03*
G04 #@! TD*
G04 #@! TO.C,P2*
X163830000Y-74295000D03*
G04 #@! TD*
G04 #@! TO.C,P2*
X163830000Y-61595000D03*
G04 #@! TD*
D11*
G04 #@! TO.C,SW1*
X93345000Y-53975000D03*
D12*
X90805000Y-48895000D03*
D13*
X88265000Y-53975000D03*
D12*
X84455000Y-51435000D03*
D11*
X83185000Y-53975000D03*
G04 #@! TD*
D14*
G04 #@! TO.C,P12*
X96085000Y-50165000D03*
G04 #@! TD*
G04 #@! TO.C,P22*
X96085000Y-53975000D03*
G04 #@! TD*
G04 #@! TO.C,P23*
X80445000Y-53975000D03*
G04 #@! TD*
D15*
G04 #@! TO.C,P11*
X84455000Y-61795000D03*
G04 #@! TD*
G04 #@! TO.C,P23*
X80645000Y-61795000D03*
G04 #@! TD*
G04 #@! TO.C,P23*
X80645000Y-46155000D03*
G04 #@! TD*
D19*
G04 #@! TO.C,JACK*
X158925000Y-88030000D03*
X161925000Y-88030000D03*
X165925000Y-88030000D03*
X167425000Y-92230000D03*
G04 #@! TD*
G04 #@! TO.C,JACK*
X172545000Y-93980000D03*
X169545000Y-93980000D03*
X165545000Y-93980000D03*
X164045000Y-89780000D03*
G04 #@! TD*
D15*
G04 #@! TO.C,P15*
X95885000Y-61795000D03*
G04 #@! TD*
D14*
G04 #@! TO.C,P21*
X96085000Y-57785000D03*
G04 #@! TD*
D18*
G04 #@! TO.C,P2*
X173990000Y-85725000D03*
G04 #@! TD*
G04 #@! TO.C,P2*
X171450000Y-85725000D03*
G04 #@! TD*
G04 #@! TO.C,P2*
X171450000Y-83820000D03*
G04 #@! TD*
G04 #@! TO.C,P2*
X173990000Y-83820000D03*
G04 #@! TD*
G04 #@! TO.C,P2*
X157480000Y-85725000D03*
G04 #@! TD*
G04 #@! TO.C,P2*
X160020000Y-85725000D03*
G04 #@! TD*
G04 #@! TO.C,P2*
X157480000Y-83820000D03*
G04 #@! TD*
G04 #@! TO.C,P2*
X160020000Y-83820000D03*
G04 #@! TD*
G04 #@! TO.C,OLED*
X161925000Y-80645000D03*
X164465000Y-80645000D03*
X167005000Y-80645000D03*
X169545000Y-80645000D03*
G04 #@! TD*
G04 #@! TO.C,P2*
X170180000Y-66675000D03*
G04 #@! TD*
G04 #@! TO.C,P2*
X170180000Y-69215000D03*
G04 #@! TD*
G04 #@! TO.C,P2*
X170180000Y-64135000D03*
G04 #@! TD*
G04 #@! TO.C,P2*
X170180000Y-71755000D03*
G04 #@! TD*
G04 #@! TO.C,P2*
X170180000Y-74295000D03*
G04 #@! TD*
G04 #@! TO.C,P2*
X170180000Y-76835000D03*
G04 #@! TD*
G04 #@! TO.C,P2*
X161290000Y-74295000D03*
G04 #@! TD*
G04 #@! TO.C,P2*
X161290000Y-71755000D03*
G04 #@! TD*
G04 #@! TO.C,P2*
X161290000Y-76835000D03*
G04 #@! TD*
G04 #@! TO.C,P2*
X161290000Y-69215000D03*
G04 #@! TD*
G04 #@! TO.C,P2*
X161290000Y-66675000D03*
G04 #@! TD*
G04 #@! TO.C,P2*
X161290000Y-64135000D03*
G04 #@! TD*
G04 #@! TO.C,P2*
X161290000Y-61595000D03*
G04 #@! TD*
D20*
G04 #@! TO.C,U2*
X173355000Y-48895000D03*
X173355000Y-51435000D03*
X173355000Y-53975000D03*
X173355000Y-56515000D03*
X173355000Y-59055000D03*
X173355000Y-61595000D03*
X173355000Y-64135000D03*
X173355000Y-66675000D03*
X173355000Y-69215000D03*
X173355000Y-71755000D03*
X173355000Y-74295000D03*
X173355000Y-76835000D03*
X158115000Y-76835000D03*
X158115000Y-74295000D03*
X158115000Y-71755000D03*
X158115000Y-69215000D03*
X158115000Y-66675000D03*
X158115000Y-64135000D03*
X158115000Y-61595000D03*
X158115000Y-59055000D03*
X158115000Y-56515000D03*
X158115000Y-53975000D03*
X158115000Y-51435000D03*
X158115000Y-48895000D03*
G04 #@! TD*
D18*
G04 #@! TO.C,DATA*
X173355000Y-88900000D03*
G04 #@! TD*
G04 #@! TO.C,A*
X170815000Y-88900000D03*
G04 #@! TD*
G04 #@! TO.C,A*
X160655000Y-93345000D03*
G04 #@! TD*
G04 #@! TO.C,DATA*
X157480000Y-93345000D03*
G04 #@! TD*
G04 #@! TO.C,P2*
X167640000Y-59055000D03*
G04 #@! TD*
G04 #@! TO.C,P2*
X167640000Y-61595000D03*
G04 #@! TD*
G04 #@! TO.C,P2*
X167640000Y-48895000D03*
G04 #@! TD*
G04 #@! TO.C,P2*
X167640000Y-53975000D03*
G04 #@! TD*
G04 #@! TO.C,P2*
X167640000Y-56515000D03*
G04 #@! TD*
G04 #@! TO.C,DT*
X167640000Y-51435000D03*
G04 #@! TD*
G04 #@! TO.C,P2*
X163830000Y-59055000D03*
G04 #@! TD*
G04 #@! TO.C,P2*
X163830000Y-48895000D03*
G04 #@! TD*
G04 #@! TO.C,P2*
X163830000Y-53975000D03*
G04 #@! TD*
G04 #@! TO.C,P2*
X163830000Y-56515000D03*
G04 #@! TD*
G04 #@! TO.C,P2*
X163830000Y-51435000D03*
G04 #@! TD*
G04 #@! TO.C,P2*
X170180000Y-61595000D03*
G04 #@! TD*
G04 #@! TO.C,P2*
X170180000Y-48895000D03*
G04 #@! TD*
G04 #@! TO.C,P2*
X170180000Y-59055000D03*
G04 #@! TD*
G04 #@! TO.C,P2*
X170180000Y-53975000D03*
G04 #@! TD*
G04 #@! TO.C,P2*
X170180000Y-51435000D03*
G04 #@! TD*
G04 #@! TO.C,P2*
X170180000Y-56515000D03*
G04 #@! TD*
G04 #@! TO.C,P2*
X161290000Y-59055000D03*
G04 #@! TD*
G04 #@! TO.C,P2*
X161290000Y-56515000D03*
G04 #@! TD*
G04 #@! TO.C,P2*
X161290000Y-53975000D03*
G04 #@! TD*
G04 #@! TO.C,P2*
X161290000Y-51435000D03*
G04 #@! TD*
G04 #@! TO.C,P2*
X161290000Y-48895000D03*
G04 #@! TD*
D21*
G04 #@! TO.C,HOLE_M2*
X173355000Y-80645000D03*
G04 #@! TD*
G04 #@! TO.C,HOLE_M2*
X158115000Y-80645000D03*
G04 #@! TD*
G04 #@! TO.C,HOLE_M2*
X173355000Y-97155000D03*
G04 #@! TD*
D22*
G04 #@! TO.C,RESET1*
X169060000Y-84455000D03*
X162560000Y-84455000D03*
G04 #@! TD*
D21*
G04 #@! TO.C,HOLE_M2*
X158115000Y-97155000D03*
G04 #@! TD*
D16*
G04 #@! TO.C,D1*
X93345000Y-46355000D03*
D17*
X86995000Y-46355000D03*
G04 #@! TD*
D15*
G04 #@! TO.C,P11*
X84455000Y-46155000D03*
G04 #@! TD*
D14*
G04 #@! TO.C,P12*
X80445000Y-57785000D03*
G04 #@! TD*
D15*
G04 #@! TO.C,P16*
X92075000Y-61795000D03*
G04 #@! TD*
G04 #@! TO.C,P23*
X95885000Y-46155000D03*
G04 #@! TD*
D14*
G04 #@! TO.C,P24*
X80445000Y-50165000D03*
G04 #@! TD*
M02*
