G04 #@! TF.FileFunction,Legend,Bot*
%FSLAX46Y46*%
G04 Gerber Fmt 4.6, Leading zero omitted, Abs format (unit mm)*
G04 Created by KiCad (PCBNEW 4.0.7-e2-6376~61~ubuntu18.04.1) date Mon Jul 30 20:02:34 2018*
%MOMM*%
%LPD*%
G01*
G04 APERTURE LIST*
%ADD10C,0.150000*%
%ADD11C,0.200000*%
%ADD12C,0.167500*%
G04 APERTURE END LIST*
D10*
D11*
X170535001Y-97005714D02*
X170363572Y-97062857D01*
X170077858Y-97062857D01*
X169963572Y-97005714D01*
X169906429Y-96948571D01*
X169849286Y-96834286D01*
X169849286Y-96720000D01*
X169906429Y-96605714D01*
X169963572Y-96548571D01*
X170077858Y-96491429D01*
X170306429Y-96434286D01*
X170420715Y-96377143D01*
X170477858Y-96320000D01*
X170535001Y-96205714D01*
X170535001Y-96091429D01*
X170477858Y-95977143D01*
X170420715Y-95920000D01*
X170306429Y-95862857D01*
X170020715Y-95862857D01*
X169849286Y-95920000D01*
X169335001Y-97062857D02*
X169335001Y-95862857D01*
X169335001Y-96434286D02*
X168649286Y-96434286D01*
X168649286Y-97062857D02*
X168649286Y-95862857D01*
X168077858Y-97062857D02*
X168077858Y-95862857D01*
X166820714Y-97062857D02*
X167220714Y-96491429D01*
X167506429Y-97062857D02*
X167506429Y-95862857D01*
X167049286Y-95862857D01*
X166935000Y-95920000D01*
X166877857Y-95977143D01*
X166820714Y-96091429D01*
X166820714Y-96262857D01*
X166877857Y-96377143D01*
X166935000Y-96434286D01*
X167049286Y-96491429D01*
X167506429Y-96491429D01*
X166077857Y-95862857D02*
X165849286Y-95862857D01*
X165735000Y-95920000D01*
X165620714Y-96034286D01*
X165563572Y-96262857D01*
X165563572Y-96662857D01*
X165620714Y-96891429D01*
X165735000Y-97005714D01*
X165849286Y-97062857D01*
X166077857Y-97062857D01*
X166192143Y-97005714D01*
X166306429Y-96891429D01*
X166363572Y-96662857D01*
X166363572Y-96262857D01*
X166306429Y-96034286D01*
X166192143Y-95920000D01*
X166077857Y-95862857D01*
X165220714Y-95862857D02*
X164535000Y-95862857D01*
X164877857Y-97062857D02*
X164877857Y-95862857D01*
X163449285Y-97062857D02*
X163849285Y-96491429D01*
X164135000Y-97062857D02*
X164135000Y-95862857D01*
X163677857Y-95862857D01*
X163563571Y-95920000D01*
X163506428Y-95977143D01*
X163449285Y-96091429D01*
X163449285Y-96262857D01*
X163506428Y-96377143D01*
X163563571Y-96434286D01*
X163677857Y-96491429D01*
X164135000Y-96491429D01*
X162706428Y-95862857D02*
X162477857Y-95862857D01*
X162363571Y-95920000D01*
X162249285Y-96034286D01*
X162192143Y-96262857D01*
X162192143Y-96662857D01*
X162249285Y-96891429D01*
X162363571Y-97005714D01*
X162477857Y-97062857D01*
X162706428Y-97062857D01*
X162820714Y-97005714D01*
X162935000Y-96891429D01*
X162992143Y-96662857D01*
X162992143Y-96262857D01*
X162935000Y-96034286D01*
X162820714Y-95920000D01*
X162706428Y-95862857D01*
X161677857Y-97062857D02*
X161677857Y-95862857D01*
X160992142Y-97062857D01*
X160992142Y-95862857D01*
X157302143Y-106130714D02*
X156387857Y-106130714D01*
X156845000Y-106587857D02*
X156845000Y-105673571D01*
X159902571Y-104047857D02*
X160302571Y-103476429D01*
X160588286Y-104047857D02*
X160588286Y-102847857D01*
X160131143Y-102847857D01*
X160016857Y-102905000D01*
X159959714Y-102962143D01*
X159902571Y-103076429D01*
X159902571Y-103247857D01*
X159959714Y-103362143D01*
X160016857Y-103419286D01*
X160131143Y-103476429D01*
X160588286Y-103476429D01*
X157787857Y-112302857D02*
X157787857Y-111102857D01*
X157502142Y-111102857D01*
X157330714Y-111160000D01*
X157216428Y-111274286D01*
X157159285Y-111388571D01*
X157102142Y-111617143D01*
X157102142Y-111788571D01*
X157159285Y-112017143D01*
X157216428Y-112131429D01*
X157330714Y-112245714D01*
X157502142Y-112302857D01*
X157787857Y-112302857D01*
X156359285Y-111102857D02*
X156130714Y-111102857D01*
X156016428Y-111160000D01*
X155902142Y-111274286D01*
X155845000Y-111502857D01*
X155845000Y-111902857D01*
X155902142Y-112131429D01*
X156016428Y-112245714D01*
X156130714Y-112302857D01*
X156359285Y-112302857D01*
X156473571Y-112245714D01*
X156587857Y-112131429D01*
X156645000Y-111902857D01*
X156645000Y-111502857D01*
X156587857Y-111274286D01*
X156473571Y-111160000D01*
X156359285Y-111102857D01*
X157743571Y-103933571D02*
X157800714Y-103990714D01*
X157972143Y-104047857D01*
X158086429Y-104047857D01*
X158257857Y-103990714D01*
X158372143Y-103876429D01*
X158429286Y-103762143D01*
X158486429Y-103533571D01*
X158486429Y-103362143D01*
X158429286Y-103133571D01*
X158372143Y-103019286D01*
X158257857Y-102905000D01*
X158086429Y-102847857D01*
X157972143Y-102847857D01*
X157800714Y-102905000D01*
X157743571Y-102962143D01*
X172542143Y-111845714D02*
X171627857Y-111845714D01*
X172085000Y-112302857D02*
X172085000Y-111388571D01*
X171713571Y-107108571D02*
X171770714Y-107165714D01*
X171942143Y-107222857D01*
X172056429Y-107222857D01*
X172227857Y-107165714D01*
X172342143Y-107051429D01*
X172399286Y-106937143D01*
X172456429Y-106708571D01*
X172456429Y-106537143D01*
X172399286Y-106308571D01*
X172342143Y-106194286D01*
X172227857Y-106080000D01*
X172056429Y-106022857D01*
X171942143Y-106022857D01*
X171770714Y-106080000D01*
X171713571Y-106137143D01*
X157302143Y-117560714D02*
X156387857Y-117560714D01*
X172542143Y-130895714D02*
X171627857Y-130895714D01*
X172085000Y-131352857D02*
X172085000Y-130438571D01*
X172685000Y-136432857D02*
X172685000Y-135232857D01*
X172399285Y-135232857D01*
X172227857Y-135290000D01*
X172113571Y-135404286D01*
X172056428Y-135518571D01*
X171999285Y-135747143D01*
X171999285Y-135918571D01*
X172056428Y-136147143D01*
X172113571Y-136261429D01*
X172227857Y-136375714D01*
X172399285Y-136432857D01*
X172685000Y-136432857D01*
X171485000Y-136432857D02*
X171485000Y-135232857D01*
X169367143Y-137880714D02*
X168452857Y-137880714D01*
X171713571Y-126158571D02*
X171770714Y-126215714D01*
X171942143Y-126272857D01*
X172056429Y-126272857D01*
X172227857Y-126215714D01*
X172342143Y-126101429D01*
X172399286Y-125987143D01*
X172456429Y-125758571D01*
X172456429Y-125587143D01*
X172399286Y-125358571D01*
X172342143Y-125244286D01*
X172227857Y-125130000D01*
X172056429Y-125072857D01*
X171942143Y-125072857D01*
X171770714Y-125130000D01*
X171713571Y-125187143D01*
X157302143Y-136610714D02*
X156387857Y-136610714D01*
X159648571Y-138337857D02*
X160048571Y-137766429D01*
X160334286Y-138337857D02*
X160334286Y-137137857D01*
X159877143Y-137137857D01*
X159762857Y-137195000D01*
X159705714Y-137252143D01*
X159648571Y-137366429D01*
X159648571Y-137537857D01*
X159705714Y-137652143D01*
X159762857Y-137709286D01*
X159877143Y-137766429D01*
X160334286Y-137766429D01*
X157787857Y-131352857D02*
X157787857Y-130152857D01*
X157502142Y-130152857D01*
X157330714Y-130210000D01*
X157216428Y-130324286D01*
X157159285Y-130438571D01*
X157102142Y-130667143D01*
X157102142Y-130838571D01*
X157159285Y-131067143D01*
X157216428Y-131181429D01*
X157330714Y-131295714D01*
X157502142Y-131352857D01*
X157787857Y-131352857D01*
X156359285Y-130152857D02*
X156130714Y-130152857D01*
X156016428Y-130210000D01*
X155902142Y-130324286D01*
X155845000Y-130552857D01*
X155845000Y-130952857D01*
X155902142Y-131181429D01*
X156016428Y-131295714D01*
X156130714Y-131352857D01*
X156359285Y-131352857D01*
X156473571Y-131295714D01*
X156587857Y-131181429D01*
X156645000Y-130952857D01*
X156645000Y-130552857D01*
X156587857Y-130324286D01*
X156473571Y-130210000D01*
X156359285Y-130152857D01*
X159648571Y-119287857D02*
X160048571Y-118716429D01*
X160334286Y-119287857D02*
X160334286Y-118087857D01*
X159877143Y-118087857D01*
X159762857Y-118145000D01*
X159705714Y-118202143D01*
X159648571Y-118316429D01*
X159648571Y-118487857D01*
X159705714Y-118602143D01*
X159762857Y-118659286D01*
X159877143Y-118716429D01*
X160334286Y-118716429D01*
X159902571Y-123097857D02*
X160302571Y-122526429D01*
X160588286Y-123097857D02*
X160588286Y-121897857D01*
X160131143Y-121897857D01*
X160016857Y-121955000D01*
X159959714Y-122012143D01*
X159902571Y-122126429D01*
X159902571Y-122297857D01*
X159959714Y-122412143D01*
X160016857Y-122469286D01*
X160131143Y-122526429D01*
X160588286Y-122526429D01*
X172685000Y-117382857D02*
X172685000Y-116182857D01*
X172399285Y-116182857D01*
X172227857Y-116240000D01*
X172113571Y-116354286D01*
X172056428Y-116468571D01*
X171999285Y-116697143D01*
X171999285Y-116868571D01*
X172056428Y-117097143D01*
X172113571Y-117211429D01*
X172227857Y-117325714D01*
X172399285Y-117382857D01*
X172685000Y-117382857D01*
X171485000Y-117382857D02*
X171485000Y-116182857D01*
X169367143Y-118830714D02*
X168452857Y-118830714D01*
X157302143Y-125180714D02*
X156387857Y-125180714D01*
X156845000Y-125637857D02*
X156845000Y-124723571D01*
X157743571Y-122983571D02*
X157800714Y-123040714D01*
X157972143Y-123097857D01*
X158086429Y-123097857D01*
X158257857Y-123040714D01*
X158372143Y-122926429D01*
X158429286Y-122812143D01*
X158486429Y-122583571D01*
X158486429Y-122412143D01*
X158429286Y-122183571D01*
X158372143Y-122069286D01*
X158257857Y-121955000D01*
X158086429Y-121897857D01*
X157972143Y-121897857D01*
X157800714Y-121955000D01*
X157743571Y-122012143D01*
X138252143Y-136610714D02*
X137337857Y-136610714D01*
X119202143Y-136610714D02*
X118287857Y-136610714D01*
X100152143Y-136610714D02*
X99237857Y-136610714D01*
X81102143Y-136610714D02*
X80187857Y-136610714D01*
X138252143Y-117560714D02*
X137337857Y-117560714D01*
X119202143Y-117560714D02*
X118287857Y-117560714D01*
X100152143Y-117560714D02*
X99237857Y-117560714D01*
X81102143Y-117560714D02*
X80187857Y-117560714D01*
X138252143Y-98510714D02*
X137337857Y-98510714D01*
X119202143Y-98510714D02*
X118287857Y-98510714D01*
X100152143Y-98510714D02*
X99237857Y-98510714D01*
X81102143Y-98510714D02*
X80187857Y-98510714D01*
X138252143Y-79460714D02*
X137337857Y-79460714D01*
X119202143Y-79460714D02*
X118287857Y-79460714D01*
X100152143Y-79460714D02*
X99237857Y-79460714D01*
X81102143Y-79460714D02*
X80187857Y-79460714D01*
X138252143Y-60410714D02*
X137337857Y-60410714D01*
X119202143Y-60410714D02*
X118287857Y-60410714D01*
X100152143Y-60410714D02*
X99237857Y-60410714D01*
X140598571Y-138337857D02*
X140998571Y-137766429D01*
X141284286Y-138337857D02*
X141284286Y-137137857D01*
X140827143Y-137137857D01*
X140712857Y-137195000D01*
X140655714Y-137252143D01*
X140598571Y-137366429D01*
X140598571Y-137537857D01*
X140655714Y-137652143D01*
X140712857Y-137709286D01*
X140827143Y-137766429D01*
X141284286Y-137766429D01*
X121548571Y-138337857D02*
X121948571Y-137766429D01*
X122234286Y-138337857D02*
X122234286Y-137137857D01*
X121777143Y-137137857D01*
X121662857Y-137195000D01*
X121605714Y-137252143D01*
X121548571Y-137366429D01*
X121548571Y-137537857D01*
X121605714Y-137652143D01*
X121662857Y-137709286D01*
X121777143Y-137766429D01*
X122234286Y-137766429D01*
X102498571Y-138337857D02*
X102898571Y-137766429D01*
X103184286Y-138337857D02*
X103184286Y-137137857D01*
X102727143Y-137137857D01*
X102612857Y-137195000D01*
X102555714Y-137252143D01*
X102498571Y-137366429D01*
X102498571Y-137537857D01*
X102555714Y-137652143D01*
X102612857Y-137709286D01*
X102727143Y-137766429D01*
X103184286Y-137766429D01*
X83448571Y-138337857D02*
X83848571Y-137766429D01*
X84134286Y-138337857D02*
X84134286Y-137137857D01*
X83677143Y-137137857D01*
X83562857Y-137195000D01*
X83505714Y-137252143D01*
X83448571Y-137366429D01*
X83448571Y-137537857D01*
X83505714Y-137652143D01*
X83562857Y-137709286D01*
X83677143Y-137766429D01*
X84134286Y-137766429D01*
X140598571Y-119287857D02*
X140998571Y-118716429D01*
X141284286Y-119287857D02*
X141284286Y-118087857D01*
X140827143Y-118087857D01*
X140712857Y-118145000D01*
X140655714Y-118202143D01*
X140598571Y-118316429D01*
X140598571Y-118487857D01*
X140655714Y-118602143D01*
X140712857Y-118659286D01*
X140827143Y-118716429D01*
X141284286Y-118716429D01*
X121548571Y-119287857D02*
X121948571Y-118716429D01*
X122234286Y-119287857D02*
X122234286Y-118087857D01*
X121777143Y-118087857D01*
X121662857Y-118145000D01*
X121605714Y-118202143D01*
X121548571Y-118316429D01*
X121548571Y-118487857D01*
X121605714Y-118602143D01*
X121662857Y-118659286D01*
X121777143Y-118716429D01*
X122234286Y-118716429D01*
X102498571Y-119287857D02*
X102898571Y-118716429D01*
X103184286Y-119287857D02*
X103184286Y-118087857D01*
X102727143Y-118087857D01*
X102612857Y-118145000D01*
X102555714Y-118202143D01*
X102498571Y-118316429D01*
X102498571Y-118487857D01*
X102555714Y-118602143D01*
X102612857Y-118659286D01*
X102727143Y-118716429D01*
X103184286Y-118716429D01*
X83448571Y-119287857D02*
X83848571Y-118716429D01*
X84134286Y-119287857D02*
X84134286Y-118087857D01*
X83677143Y-118087857D01*
X83562857Y-118145000D01*
X83505714Y-118202143D01*
X83448571Y-118316429D01*
X83448571Y-118487857D01*
X83505714Y-118602143D01*
X83562857Y-118659286D01*
X83677143Y-118716429D01*
X84134286Y-118716429D01*
X140598571Y-100237857D02*
X140998571Y-99666429D01*
X141284286Y-100237857D02*
X141284286Y-99037857D01*
X140827143Y-99037857D01*
X140712857Y-99095000D01*
X140655714Y-99152143D01*
X140598571Y-99266429D01*
X140598571Y-99437857D01*
X140655714Y-99552143D01*
X140712857Y-99609286D01*
X140827143Y-99666429D01*
X141284286Y-99666429D01*
X121548571Y-100237857D02*
X121948571Y-99666429D01*
X122234286Y-100237857D02*
X122234286Y-99037857D01*
X121777143Y-99037857D01*
X121662857Y-99095000D01*
X121605714Y-99152143D01*
X121548571Y-99266429D01*
X121548571Y-99437857D01*
X121605714Y-99552143D01*
X121662857Y-99609286D01*
X121777143Y-99666429D01*
X122234286Y-99666429D01*
X102498571Y-100237857D02*
X102898571Y-99666429D01*
X103184286Y-100237857D02*
X103184286Y-99037857D01*
X102727143Y-99037857D01*
X102612857Y-99095000D01*
X102555714Y-99152143D01*
X102498571Y-99266429D01*
X102498571Y-99437857D01*
X102555714Y-99552143D01*
X102612857Y-99609286D01*
X102727143Y-99666429D01*
X103184286Y-99666429D01*
X83448571Y-100237857D02*
X83848571Y-99666429D01*
X84134286Y-100237857D02*
X84134286Y-99037857D01*
X83677143Y-99037857D01*
X83562857Y-99095000D01*
X83505714Y-99152143D01*
X83448571Y-99266429D01*
X83448571Y-99437857D01*
X83505714Y-99552143D01*
X83562857Y-99609286D01*
X83677143Y-99666429D01*
X84134286Y-99666429D01*
X140598571Y-81187857D02*
X140998571Y-80616429D01*
X141284286Y-81187857D02*
X141284286Y-79987857D01*
X140827143Y-79987857D01*
X140712857Y-80045000D01*
X140655714Y-80102143D01*
X140598571Y-80216429D01*
X140598571Y-80387857D01*
X140655714Y-80502143D01*
X140712857Y-80559286D01*
X140827143Y-80616429D01*
X141284286Y-80616429D01*
X121548571Y-81187857D02*
X121948571Y-80616429D01*
X122234286Y-81187857D02*
X122234286Y-79987857D01*
X121777143Y-79987857D01*
X121662857Y-80045000D01*
X121605714Y-80102143D01*
X121548571Y-80216429D01*
X121548571Y-80387857D01*
X121605714Y-80502143D01*
X121662857Y-80559286D01*
X121777143Y-80616429D01*
X122234286Y-80616429D01*
X102498571Y-81187857D02*
X102898571Y-80616429D01*
X103184286Y-81187857D02*
X103184286Y-79987857D01*
X102727143Y-79987857D01*
X102612857Y-80045000D01*
X102555714Y-80102143D01*
X102498571Y-80216429D01*
X102498571Y-80387857D01*
X102555714Y-80502143D01*
X102612857Y-80559286D01*
X102727143Y-80616429D01*
X103184286Y-80616429D01*
X83448571Y-81187857D02*
X83848571Y-80616429D01*
X84134286Y-81187857D02*
X84134286Y-79987857D01*
X83677143Y-79987857D01*
X83562857Y-80045000D01*
X83505714Y-80102143D01*
X83448571Y-80216429D01*
X83448571Y-80387857D01*
X83505714Y-80502143D01*
X83562857Y-80559286D01*
X83677143Y-80616429D01*
X84134286Y-80616429D01*
X140598571Y-62137857D02*
X140998571Y-61566429D01*
X141284286Y-62137857D02*
X141284286Y-60937857D01*
X140827143Y-60937857D01*
X140712857Y-60995000D01*
X140655714Y-61052143D01*
X140598571Y-61166429D01*
X140598571Y-61337857D01*
X140655714Y-61452143D01*
X140712857Y-61509286D01*
X140827143Y-61566429D01*
X141284286Y-61566429D01*
X121548571Y-62137857D02*
X121948571Y-61566429D01*
X122234286Y-62137857D02*
X122234286Y-60937857D01*
X121777143Y-60937857D01*
X121662857Y-60995000D01*
X121605714Y-61052143D01*
X121548571Y-61166429D01*
X121548571Y-61337857D01*
X121605714Y-61452143D01*
X121662857Y-61509286D01*
X121777143Y-61566429D01*
X122234286Y-61566429D01*
X102498571Y-62137857D02*
X102898571Y-61566429D01*
X103184286Y-62137857D02*
X103184286Y-60937857D01*
X102727143Y-60937857D01*
X102612857Y-60995000D01*
X102555714Y-61052143D01*
X102498571Y-61166429D01*
X102498571Y-61337857D01*
X102555714Y-61452143D01*
X102612857Y-61509286D01*
X102727143Y-61566429D01*
X103184286Y-61566429D01*
X138252143Y-125180714D02*
X137337857Y-125180714D01*
X137795000Y-125637857D02*
X137795000Y-124723571D01*
X119202143Y-125180714D02*
X118287857Y-125180714D01*
X118745000Y-125637857D02*
X118745000Y-124723571D01*
X100152143Y-125180714D02*
X99237857Y-125180714D01*
X99695000Y-125637857D02*
X99695000Y-124723571D01*
X81102143Y-125180714D02*
X80187857Y-125180714D01*
X80645000Y-125637857D02*
X80645000Y-124723571D01*
X138252143Y-106130714D02*
X137337857Y-106130714D01*
X137795000Y-106587857D02*
X137795000Y-105673571D01*
X119202143Y-106130714D02*
X118287857Y-106130714D01*
X118745000Y-106587857D02*
X118745000Y-105673571D01*
X100152143Y-106130714D02*
X99237857Y-106130714D01*
X99695000Y-106587857D02*
X99695000Y-105673571D01*
X81102143Y-106130714D02*
X80187857Y-106130714D01*
X80645000Y-106587857D02*
X80645000Y-105673571D01*
X138252143Y-87080714D02*
X137337857Y-87080714D01*
X137795000Y-87537857D02*
X137795000Y-86623571D01*
X119202143Y-87080714D02*
X118287857Y-87080714D01*
X118745000Y-87537857D02*
X118745000Y-86623571D01*
X100152143Y-87080714D02*
X99237857Y-87080714D01*
X99695000Y-87537857D02*
X99695000Y-86623571D01*
X81102143Y-87080714D02*
X80187857Y-87080714D01*
X80645000Y-87537857D02*
X80645000Y-86623571D01*
X138252143Y-68030714D02*
X137337857Y-68030714D01*
X137795000Y-68487857D02*
X137795000Y-67573571D01*
X119202143Y-68030714D02*
X118287857Y-68030714D01*
X118745000Y-68487857D02*
X118745000Y-67573571D01*
X100152143Y-68030714D02*
X99237857Y-68030714D01*
X99695000Y-68487857D02*
X99695000Y-67573571D01*
X81102143Y-68030714D02*
X80187857Y-68030714D01*
X80645000Y-68487857D02*
X80645000Y-67573571D01*
X138252143Y-48980714D02*
X137337857Y-48980714D01*
X137795000Y-49437857D02*
X137795000Y-48523571D01*
X119202143Y-48980714D02*
X118287857Y-48980714D01*
X118745000Y-49437857D02*
X118745000Y-48523571D01*
X100152143Y-48980714D02*
X99237857Y-48980714D01*
X99695000Y-49437857D02*
X99695000Y-48523571D01*
X138693571Y-122983571D02*
X138750714Y-123040714D01*
X138922143Y-123097857D01*
X139036429Y-123097857D01*
X139207857Y-123040714D01*
X139322143Y-122926429D01*
X139379286Y-122812143D01*
X139436429Y-122583571D01*
X139436429Y-122412143D01*
X139379286Y-122183571D01*
X139322143Y-122069286D01*
X139207857Y-121955000D01*
X139036429Y-121897857D01*
X138922143Y-121897857D01*
X138750714Y-121955000D01*
X138693571Y-122012143D01*
X119643571Y-122983571D02*
X119700714Y-123040714D01*
X119872143Y-123097857D01*
X119986429Y-123097857D01*
X120157857Y-123040714D01*
X120272143Y-122926429D01*
X120329286Y-122812143D01*
X120386429Y-122583571D01*
X120386429Y-122412143D01*
X120329286Y-122183571D01*
X120272143Y-122069286D01*
X120157857Y-121955000D01*
X119986429Y-121897857D01*
X119872143Y-121897857D01*
X119700714Y-121955000D01*
X119643571Y-122012143D01*
X100593571Y-122983571D02*
X100650714Y-123040714D01*
X100822143Y-123097857D01*
X100936429Y-123097857D01*
X101107857Y-123040714D01*
X101222143Y-122926429D01*
X101279286Y-122812143D01*
X101336429Y-122583571D01*
X101336429Y-122412143D01*
X101279286Y-122183571D01*
X101222143Y-122069286D01*
X101107857Y-121955000D01*
X100936429Y-121897857D01*
X100822143Y-121897857D01*
X100650714Y-121955000D01*
X100593571Y-122012143D01*
X81543571Y-122983571D02*
X81600714Y-123040714D01*
X81772143Y-123097857D01*
X81886429Y-123097857D01*
X82057857Y-123040714D01*
X82172143Y-122926429D01*
X82229286Y-122812143D01*
X82286429Y-122583571D01*
X82286429Y-122412143D01*
X82229286Y-122183571D01*
X82172143Y-122069286D01*
X82057857Y-121955000D01*
X81886429Y-121897857D01*
X81772143Y-121897857D01*
X81600714Y-121955000D01*
X81543571Y-122012143D01*
X138693571Y-103933571D02*
X138750714Y-103990714D01*
X138922143Y-104047857D01*
X139036429Y-104047857D01*
X139207857Y-103990714D01*
X139322143Y-103876429D01*
X139379286Y-103762143D01*
X139436429Y-103533571D01*
X139436429Y-103362143D01*
X139379286Y-103133571D01*
X139322143Y-103019286D01*
X139207857Y-102905000D01*
X139036429Y-102847857D01*
X138922143Y-102847857D01*
X138750714Y-102905000D01*
X138693571Y-102962143D01*
X119643571Y-103933571D02*
X119700714Y-103990714D01*
X119872143Y-104047857D01*
X119986429Y-104047857D01*
X120157857Y-103990714D01*
X120272143Y-103876429D01*
X120329286Y-103762143D01*
X120386429Y-103533571D01*
X120386429Y-103362143D01*
X120329286Y-103133571D01*
X120272143Y-103019286D01*
X120157857Y-102905000D01*
X119986429Y-102847857D01*
X119872143Y-102847857D01*
X119700714Y-102905000D01*
X119643571Y-102962143D01*
X100593571Y-103933571D02*
X100650714Y-103990714D01*
X100822143Y-104047857D01*
X100936429Y-104047857D01*
X101107857Y-103990714D01*
X101222143Y-103876429D01*
X101279286Y-103762143D01*
X101336429Y-103533571D01*
X101336429Y-103362143D01*
X101279286Y-103133571D01*
X101222143Y-103019286D01*
X101107857Y-102905000D01*
X100936429Y-102847857D01*
X100822143Y-102847857D01*
X100650714Y-102905000D01*
X100593571Y-102962143D01*
X81543571Y-103933571D02*
X81600714Y-103990714D01*
X81772143Y-104047857D01*
X81886429Y-104047857D01*
X82057857Y-103990714D01*
X82172143Y-103876429D01*
X82229286Y-103762143D01*
X82286429Y-103533571D01*
X82286429Y-103362143D01*
X82229286Y-103133571D01*
X82172143Y-103019286D01*
X82057857Y-102905000D01*
X81886429Y-102847857D01*
X81772143Y-102847857D01*
X81600714Y-102905000D01*
X81543571Y-102962143D01*
X138693571Y-84883571D02*
X138750714Y-84940714D01*
X138922143Y-84997857D01*
X139036429Y-84997857D01*
X139207857Y-84940714D01*
X139322143Y-84826429D01*
X139379286Y-84712143D01*
X139436429Y-84483571D01*
X139436429Y-84312143D01*
X139379286Y-84083571D01*
X139322143Y-83969286D01*
X139207857Y-83855000D01*
X139036429Y-83797857D01*
X138922143Y-83797857D01*
X138750714Y-83855000D01*
X138693571Y-83912143D01*
X119643571Y-84883571D02*
X119700714Y-84940714D01*
X119872143Y-84997857D01*
X119986429Y-84997857D01*
X120157857Y-84940714D01*
X120272143Y-84826429D01*
X120329286Y-84712143D01*
X120386429Y-84483571D01*
X120386429Y-84312143D01*
X120329286Y-84083571D01*
X120272143Y-83969286D01*
X120157857Y-83855000D01*
X119986429Y-83797857D01*
X119872143Y-83797857D01*
X119700714Y-83855000D01*
X119643571Y-83912143D01*
X100593571Y-84883571D02*
X100650714Y-84940714D01*
X100822143Y-84997857D01*
X100936429Y-84997857D01*
X101107857Y-84940714D01*
X101222143Y-84826429D01*
X101279286Y-84712143D01*
X101336429Y-84483571D01*
X101336429Y-84312143D01*
X101279286Y-84083571D01*
X101222143Y-83969286D01*
X101107857Y-83855000D01*
X100936429Y-83797857D01*
X100822143Y-83797857D01*
X100650714Y-83855000D01*
X100593571Y-83912143D01*
X81543571Y-84883571D02*
X81600714Y-84940714D01*
X81772143Y-84997857D01*
X81886429Y-84997857D01*
X82057857Y-84940714D01*
X82172143Y-84826429D01*
X82229286Y-84712143D01*
X82286429Y-84483571D01*
X82286429Y-84312143D01*
X82229286Y-84083571D01*
X82172143Y-83969286D01*
X82057857Y-83855000D01*
X81886429Y-83797857D01*
X81772143Y-83797857D01*
X81600714Y-83855000D01*
X81543571Y-83912143D01*
X138693571Y-65833571D02*
X138750714Y-65890714D01*
X138922143Y-65947857D01*
X139036429Y-65947857D01*
X139207857Y-65890714D01*
X139322143Y-65776429D01*
X139379286Y-65662143D01*
X139436429Y-65433571D01*
X139436429Y-65262143D01*
X139379286Y-65033571D01*
X139322143Y-64919286D01*
X139207857Y-64805000D01*
X139036429Y-64747857D01*
X138922143Y-64747857D01*
X138750714Y-64805000D01*
X138693571Y-64862143D01*
X119643571Y-65833571D02*
X119700714Y-65890714D01*
X119872143Y-65947857D01*
X119986429Y-65947857D01*
X120157857Y-65890714D01*
X120272143Y-65776429D01*
X120329286Y-65662143D01*
X120386429Y-65433571D01*
X120386429Y-65262143D01*
X120329286Y-65033571D01*
X120272143Y-64919286D01*
X120157857Y-64805000D01*
X119986429Y-64747857D01*
X119872143Y-64747857D01*
X119700714Y-64805000D01*
X119643571Y-64862143D01*
X100593571Y-65833571D02*
X100650714Y-65890714D01*
X100822143Y-65947857D01*
X100936429Y-65947857D01*
X101107857Y-65890714D01*
X101222143Y-65776429D01*
X101279286Y-65662143D01*
X101336429Y-65433571D01*
X101336429Y-65262143D01*
X101279286Y-65033571D01*
X101222143Y-64919286D01*
X101107857Y-64805000D01*
X100936429Y-64747857D01*
X100822143Y-64747857D01*
X100650714Y-64805000D01*
X100593571Y-64862143D01*
X81543571Y-65833571D02*
X81600714Y-65890714D01*
X81772143Y-65947857D01*
X81886429Y-65947857D01*
X82057857Y-65890714D01*
X82172143Y-65776429D01*
X82229286Y-65662143D01*
X82286429Y-65433571D01*
X82286429Y-65262143D01*
X82229286Y-65033571D01*
X82172143Y-64919286D01*
X82057857Y-64805000D01*
X81886429Y-64747857D01*
X81772143Y-64747857D01*
X81600714Y-64805000D01*
X81543571Y-64862143D01*
X138693571Y-46783571D02*
X138750714Y-46840714D01*
X138922143Y-46897857D01*
X139036429Y-46897857D01*
X139207857Y-46840714D01*
X139322143Y-46726429D01*
X139379286Y-46612143D01*
X139436429Y-46383571D01*
X139436429Y-46212143D01*
X139379286Y-45983571D01*
X139322143Y-45869286D01*
X139207857Y-45755000D01*
X139036429Y-45697857D01*
X138922143Y-45697857D01*
X138750714Y-45755000D01*
X138693571Y-45812143D01*
X119643571Y-46783571D02*
X119700714Y-46840714D01*
X119872143Y-46897857D01*
X119986429Y-46897857D01*
X120157857Y-46840714D01*
X120272143Y-46726429D01*
X120329286Y-46612143D01*
X120386429Y-46383571D01*
X120386429Y-46212143D01*
X120329286Y-45983571D01*
X120272143Y-45869286D01*
X120157857Y-45755000D01*
X119986429Y-45697857D01*
X119872143Y-45697857D01*
X119700714Y-45755000D01*
X119643571Y-45812143D01*
X100593571Y-46783571D02*
X100650714Y-46840714D01*
X100822143Y-46897857D01*
X100936429Y-46897857D01*
X101107857Y-46840714D01*
X101222143Y-46726429D01*
X101279286Y-46612143D01*
X101336429Y-46383571D01*
X101336429Y-46212143D01*
X101279286Y-45983571D01*
X101222143Y-45869286D01*
X101107857Y-45755000D01*
X100936429Y-45697857D01*
X100822143Y-45697857D01*
X100650714Y-45755000D01*
X100593571Y-45812143D01*
X140852571Y-123097857D02*
X141252571Y-122526429D01*
X141538286Y-123097857D02*
X141538286Y-121897857D01*
X141081143Y-121897857D01*
X140966857Y-121955000D01*
X140909714Y-122012143D01*
X140852571Y-122126429D01*
X140852571Y-122297857D01*
X140909714Y-122412143D01*
X140966857Y-122469286D01*
X141081143Y-122526429D01*
X141538286Y-122526429D01*
X121802571Y-123097857D02*
X122202571Y-122526429D01*
X122488286Y-123097857D02*
X122488286Y-121897857D01*
X122031143Y-121897857D01*
X121916857Y-121955000D01*
X121859714Y-122012143D01*
X121802571Y-122126429D01*
X121802571Y-122297857D01*
X121859714Y-122412143D01*
X121916857Y-122469286D01*
X122031143Y-122526429D01*
X122488286Y-122526429D01*
X102752571Y-123097857D02*
X103152571Y-122526429D01*
X103438286Y-123097857D02*
X103438286Y-121897857D01*
X102981143Y-121897857D01*
X102866857Y-121955000D01*
X102809714Y-122012143D01*
X102752571Y-122126429D01*
X102752571Y-122297857D01*
X102809714Y-122412143D01*
X102866857Y-122469286D01*
X102981143Y-122526429D01*
X103438286Y-122526429D01*
X83702571Y-123097857D02*
X84102571Y-122526429D01*
X84388286Y-123097857D02*
X84388286Y-121897857D01*
X83931143Y-121897857D01*
X83816857Y-121955000D01*
X83759714Y-122012143D01*
X83702571Y-122126429D01*
X83702571Y-122297857D01*
X83759714Y-122412143D01*
X83816857Y-122469286D01*
X83931143Y-122526429D01*
X84388286Y-122526429D01*
X140852571Y-104047857D02*
X141252571Y-103476429D01*
X141538286Y-104047857D02*
X141538286Y-102847857D01*
X141081143Y-102847857D01*
X140966857Y-102905000D01*
X140909714Y-102962143D01*
X140852571Y-103076429D01*
X140852571Y-103247857D01*
X140909714Y-103362143D01*
X140966857Y-103419286D01*
X141081143Y-103476429D01*
X141538286Y-103476429D01*
X121802571Y-104047857D02*
X122202571Y-103476429D01*
X122488286Y-104047857D02*
X122488286Y-102847857D01*
X122031143Y-102847857D01*
X121916857Y-102905000D01*
X121859714Y-102962143D01*
X121802571Y-103076429D01*
X121802571Y-103247857D01*
X121859714Y-103362143D01*
X121916857Y-103419286D01*
X122031143Y-103476429D01*
X122488286Y-103476429D01*
X102752571Y-104047857D02*
X103152571Y-103476429D01*
X103438286Y-104047857D02*
X103438286Y-102847857D01*
X102981143Y-102847857D01*
X102866857Y-102905000D01*
X102809714Y-102962143D01*
X102752571Y-103076429D01*
X102752571Y-103247857D01*
X102809714Y-103362143D01*
X102866857Y-103419286D01*
X102981143Y-103476429D01*
X103438286Y-103476429D01*
X83702571Y-104047857D02*
X84102571Y-103476429D01*
X84388286Y-104047857D02*
X84388286Y-102847857D01*
X83931143Y-102847857D01*
X83816857Y-102905000D01*
X83759714Y-102962143D01*
X83702571Y-103076429D01*
X83702571Y-103247857D01*
X83759714Y-103362143D01*
X83816857Y-103419286D01*
X83931143Y-103476429D01*
X84388286Y-103476429D01*
X140852571Y-84997857D02*
X141252571Y-84426429D01*
X141538286Y-84997857D02*
X141538286Y-83797857D01*
X141081143Y-83797857D01*
X140966857Y-83855000D01*
X140909714Y-83912143D01*
X140852571Y-84026429D01*
X140852571Y-84197857D01*
X140909714Y-84312143D01*
X140966857Y-84369286D01*
X141081143Y-84426429D01*
X141538286Y-84426429D01*
X121802571Y-84997857D02*
X122202571Y-84426429D01*
X122488286Y-84997857D02*
X122488286Y-83797857D01*
X122031143Y-83797857D01*
X121916857Y-83855000D01*
X121859714Y-83912143D01*
X121802571Y-84026429D01*
X121802571Y-84197857D01*
X121859714Y-84312143D01*
X121916857Y-84369286D01*
X122031143Y-84426429D01*
X122488286Y-84426429D01*
X102752571Y-84997857D02*
X103152571Y-84426429D01*
X103438286Y-84997857D02*
X103438286Y-83797857D01*
X102981143Y-83797857D01*
X102866857Y-83855000D01*
X102809714Y-83912143D01*
X102752571Y-84026429D01*
X102752571Y-84197857D01*
X102809714Y-84312143D01*
X102866857Y-84369286D01*
X102981143Y-84426429D01*
X103438286Y-84426429D01*
X83702571Y-84997857D02*
X84102571Y-84426429D01*
X84388286Y-84997857D02*
X84388286Y-83797857D01*
X83931143Y-83797857D01*
X83816857Y-83855000D01*
X83759714Y-83912143D01*
X83702571Y-84026429D01*
X83702571Y-84197857D01*
X83759714Y-84312143D01*
X83816857Y-84369286D01*
X83931143Y-84426429D01*
X84388286Y-84426429D01*
X140852571Y-65947857D02*
X141252571Y-65376429D01*
X141538286Y-65947857D02*
X141538286Y-64747857D01*
X141081143Y-64747857D01*
X140966857Y-64805000D01*
X140909714Y-64862143D01*
X140852571Y-64976429D01*
X140852571Y-65147857D01*
X140909714Y-65262143D01*
X140966857Y-65319286D01*
X141081143Y-65376429D01*
X141538286Y-65376429D01*
X121802571Y-65947857D02*
X122202571Y-65376429D01*
X122488286Y-65947857D02*
X122488286Y-64747857D01*
X122031143Y-64747857D01*
X121916857Y-64805000D01*
X121859714Y-64862143D01*
X121802571Y-64976429D01*
X121802571Y-65147857D01*
X121859714Y-65262143D01*
X121916857Y-65319286D01*
X122031143Y-65376429D01*
X122488286Y-65376429D01*
X102752571Y-65947857D02*
X103152571Y-65376429D01*
X103438286Y-65947857D02*
X103438286Y-64747857D01*
X102981143Y-64747857D01*
X102866857Y-64805000D01*
X102809714Y-64862143D01*
X102752571Y-64976429D01*
X102752571Y-65147857D01*
X102809714Y-65262143D01*
X102866857Y-65319286D01*
X102981143Y-65376429D01*
X103438286Y-65376429D01*
X83702571Y-65947857D02*
X84102571Y-65376429D01*
X84388286Y-65947857D02*
X84388286Y-64747857D01*
X83931143Y-64747857D01*
X83816857Y-64805000D01*
X83759714Y-64862143D01*
X83702571Y-64976429D01*
X83702571Y-65147857D01*
X83759714Y-65262143D01*
X83816857Y-65319286D01*
X83931143Y-65376429D01*
X84388286Y-65376429D01*
X140852571Y-46897857D02*
X141252571Y-46326429D01*
X141538286Y-46897857D02*
X141538286Y-45697857D01*
X141081143Y-45697857D01*
X140966857Y-45755000D01*
X140909714Y-45812143D01*
X140852571Y-45926429D01*
X140852571Y-46097857D01*
X140909714Y-46212143D01*
X140966857Y-46269286D01*
X141081143Y-46326429D01*
X141538286Y-46326429D01*
X121802571Y-46897857D02*
X122202571Y-46326429D01*
X122488286Y-46897857D02*
X122488286Y-45697857D01*
X122031143Y-45697857D01*
X121916857Y-45755000D01*
X121859714Y-45812143D01*
X121802571Y-45926429D01*
X121802571Y-46097857D01*
X121859714Y-46212143D01*
X121916857Y-46269286D01*
X122031143Y-46326429D01*
X122488286Y-46326429D01*
X102752571Y-46897857D02*
X103152571Y-46326429D01*
X103438286Y-46897857D02*
X103438286Y-45697857D01*
X102981143Y-45697857D01*
X102866857Y-45755000D01*
X102809714Y-45812143D01*
X102752571Y-45926429D01*
X102752571Y-46097857D01*
X102809714Y-46212143D01*
X102866857Y-46269286D01*
X102981143Y-46326429D01*
X103438286Y-46326429D01*
X138737857Y-131352857D02*
X138737857Y-130152857D01*
X138452142Y-130152857D01*
X138280714Y-130210000D01*
X138166428Y-130324286D01*
X138109285Y-130438571D01*
X138052142Y-130667143D01*
X138052142Y-130838571D01*
X138109285Y-131067143D01*
X138166428Y-131181429D01*
X138280714Y-131295714D01*
X138452142Y-131352857D01*
X138737857Y-131352857D01*
X137309285Y-130152857D02*
X137080714Y-130152857D01*
X136966428Y-130210000D01*
X136852142Y-130324286D01*
X136795000Y-130552857D01*
X136795000Y-130952857D01*
X136852142Y-131181429D01*
X136966428Y-131295714D01*
X137080714Y-131352857D01*
X137309285Y-131352857D01*
X137423571Y-131295714D01*
X137537857Y-131181429D01*
X137595000Y-130952857D01*
X137595000Y-130552857D01*
X137537857Y-130324286D01*
X137423571Y-130210000D01*
X137309285Y-130152857D01*
X119687857Y-131352857D02*
X119687857Y-130152857D01*
X119402142Y-130152857D01*
X119230714Y-130210000D01*
X119116428Y-130324286D01*
X119059285Y-130438571D01*
X119002142Y-130667143D01*
X119002142Y-130838571D01*
X119059285Y-131067143D01*
X119116428Y-131181429D01*
X119230714Y-131295714D01*
X119402142Y-131352857D01*
X119687857Y-131352857D01*
X118259285Y-130152857D02*
X118030714Y-130152857D01*
X117916428Y-130210000D01*
X117802142Y-130324286D01*
X117745000Y-130552857D01*
X117745000Y-130952857D01*
X117802142Y-131181429D01*
X117916428Y-131295714D01*
X118030714Y-131352857D01*
X118259285Y-131352857D01*
X118373571Y-131295714D01*
X118487857Y-131181429D01*
X118545000Y-130952857D01*
X118545000Y-130552857D01*
X118487857Y-130324286D01*
X118373571Y-130210000D01*
X118259285Y-130152857D01*
X100637857Y-131352857D02*
X100637857Y-130152857D01*
X100352142Y-130152857D01*
X100180714Y-130210000D01*
X100066428Y-130324286D01*
X100009285Y-130438571D01*
X99952142Y-130667143D01*
X99952142Y-130838571D01*
X100009285Y-131067143D01*
X100066428Y-131181429D01*
X100180714Y-131295714D01*
X100352142Y-131352857D01*
X100637857Y-131352857D01*
X99209285Y-130152857D02*
X98980714Y-130152857D01*
X98866428Y-130210000D01*
X98752142Y-130324286D01*
X98695000Y-130552857D01*
X98695000Y-130952857D01*
X98752142Y-131181429D01*
X98866428Y-131295714D01*
X98980714Y-131352857D01*
X99209285Y-131352857D01*
X99323571Y-131295714D01*
X99437857Y-131181429D01*
X99495000Y-130952857D01*
X99495000Y-130552857D01*
X99437857Y-130324286D01*
X99323571Y-130210000D01*
X99209285Y-130152857D01*
X82222857Y-131352857D02*
X82222857Y-130152857D01*
X81937142Y-130152857D01*
X81765714Y-130210000D01*
X81651428Y-130324286D01*
X81594285Y-130438571D01*
X81537142Y-130667143D01*
X81537142Y-130838571D01*
X81594285Y-131067143D01*
X81651428Y-131181429D01*
X81765714Y-131295714D01*
X81937142Y-131352857D01*
X82222857Y-131352857D01*
X80794285Y-130152857D02*
X80565714Y-130152857D01*
X80451428Y-130210000D01*
X80337142Y-130324286D01*
X80280000Y-130552857D01*
X80280000Y-130952857D01*
X80337142Y-131181429D01*
X80451428Y-131295714D01*
X80565714Y-131352857D01*
X80794285Y-131352857D01*
X80908571Y-131295714D01*
X81022857Y-131181429D01*
X81080000Y-130952857D01*
X81080000Y-130552857D01*
X81022857Y-130324286D01*
X80908571Y-130210000D01*
X80794285Y-130152857D01*
X138737857Y-112302857D02*
X138737857Y-111102857D01*
X138452142Y-111102857D01*
X138280714Y-111160000D01*
X138166428Y-111274286D01*
X138109285Y-111388571D01*
X138052142Y-111617143D01*
X138052142Y-111788571D01*
X138109285Y-112017143D01*
X138166428Y-112131429D01*
X138280714Y-112245714D01*
X138452142Y-112302857D01*
X138737857Y-112302857D01*
X137309285Y-111102857D02*
X137080714Y-111102857D01*
X136966428Y-111160000D01*
X136852142Y-111274286D01*
X136795000Y-111502857D01*
X136795000Y-111902857D01*
X136852142Y-112131429D01*
X136966428Y-112245714D01*
X137080714Y-112302857D01*
X137309285Y-112302857D01*
X137423571Y-112245714D01*
X137537857Y-112131429D01*
X137595000Y-111902857D01*
X137595000Y-111502857D01*
X137537857Y-111274286D01*
X137423571Y-111160000D01*
X137309285Y-111102857D01*
X119687857Y-112302857D02*
X119687857Y-111102857D01*
X119402142Y-111102857D01*
X119230714Y-111160000D01*
X119116428Y-111274286D01*
X119059285Y-111388571D01*
X119002142Y-111617143D01*
X119002142Y-111788571D01*
X119059285Y-112017143D01*
X119116428Y-112131429D01*
X119230714Y-112245714D01*
X119402142Y-112302857D01*
X119687857Y-112302857D01*
X118259285Y-111102857D02*
X118030714Y-111102857D01*
X117916428Y-111160000D01*
X117802142Y-111274286D01*
X117745000Y-111502857D01*
X117745000Y-111902857D01*
X117802142Y-112131429D01*
X117916428Y-112245714D01*
X118030714Y-112302857D01*
X118259285Y-112302857D01*
X118373571Y-112245714D01*
X118487857Y-112131429D01*
X118545000Y-111902857D01*
X118545000Y-111502857D01*
X118487857Y-111274286D01*
X118373571Y-111160000D01*
X118259285Y-111102857D01*
X100637857Y-112302857D02*
X100637857Y-111102857D01*
X100352142Y-111102857D01*
X100180714Y-111160000D01*
X100066428Y-111274286D01*
X100009285Y-111388571D01*
X99952142Y-111617143D01*
X99952142Y-111788571D01*
X100009285Y-112017143D01*
X100066428Y-112131429D01*
X100180714Y-112245714D01*
X100352142Y-112302857D01*
X100637857Y-112302857D01*
X99209285Y-111102857D02*
X98980714Y-111102857D01*
X98866428Y-111160000D01*
X98752142Y-111274286D01*
X98695000Y-111502857D01*
X98695000Y-111902857D01*
X98752142Y-112131429D01*
X98866428Y-112245714D01*
X98980714Y-112302857D01*
X99209285Y-112302857D01*
X99323571Y-112245714D01*
X99437857Y-112131429D01*
X99495000Y-111902857D01*
X99495000Y-111502857D01*
X99437857Y-111274286D01*
X99323571Y-111160000D01*
X99209285Y-111102857D01*
X82222857Y-112302857D02*
X82222857Y-111102857D01*
X81937142Y-111102857D01*
X81765714Y-111160000D01*
X81651428Y-111274286D01*
X81594285Y-111388571D01*
X81537142Y-111617143D01*
X81537142Y-111788571D01*
X81594285Y-112017143D01*
X81651428Y-112131429D01*
X81765714Y-112245714D01*
X81937142Y-112302857D01*
X82222857Y-112302857D01*
X80794285Y-111102857D02*
X80565714Y-111102857D01*
X80451428Y-111160000D01*
X80337142Y-111274286D01*
X80280000Y-111502857D01*
X80280000Y-111902857D01*
X80337142Y-112131429D01*
X80451428Y-112245714D01*
X80565714Y-112302857D01*
X80794285Y-112302857D01*
X80908571Y-112245714D01*
X81022857Y-112131429D01*
X81080000Y-111902857D01*
X81080000Y-111502857D01*
X81022857Y-111274286D01*
X80908571Y-111160000D01*
X80794285Y-111102857D01*
X138737857Y-93252857D02*
X138737857Y-92052857D01*
X138452142Y-92052857D01*
X138280714Y-92110000D01*
X138166428Y-92224286D01*
X138109285Y-92338571D01*
X138052142Y-92567143D01*
X138052142Y-92738571D01*
X138109285Y-92967143D01*
X138166428Y-93081429D01*
X138280714Y-93195714D01*
X138452142Y-93252857D01*
X138737857Y-93252857D01*
X137309285Y-92052857D02*
X137080714Y-92052857D01*
X136966428Y-92110000D01*
X136852142Y-92224286D01*
X136795000Y-92452857D01*
X136795000Y-92852857D01*
X136852142Y-93081429D01*
X136966428Y-93195714D01*
X137080714Y-93252857D01*
X137309285Y-93252857D01*
X137423571Y-93195714D01*
X137537857Y-93081429D01*
X137595000Y-92852857D01*
X137595000Y-92452857D01*
X137537857Y-92224286D01*
X137423571Y-92110000D01*
X137309285Y-92052857D01*
X119687857Y-93252857D02*
X119687857Y-92052857D01*
X119402142Y-92052857D01*
X119230714Y-92110000D01*
X119116428Y-92224286D01*
X119059285Y-92338571D01*
X119002142Y-92567143D01*
X119002142Y-92738571D01*
X119059285Y-92967143D01*
X119116428Y-93081429D01*
X119230714Y-93195714D01*
X119402142Y-93252857D01*
X119687857Y-93252857D01*
X118259285Y-92052857D02*
X118030714Y-92052857D01*
X117916428Y-92110000D01*
X117802142Y-92224286D01*
X117745000Y-92452857D01*
X117745000Y-92852857D01*
X117802142Y-93081429D01*
X117916428Y-93195714D01*
X118030714Y-93252857D01*
X118259285Y-93252857D01*
X118373571Y-93195714D01*
X118487857Y-93081429D01*
X118545000Y-92852857D01*
X118545000Y-92452857D01*
X118487857Y-92224286D01*
X118373571Y-92110000D01*
X118259285Y-92052857D01*
X100637857Y-93252857D02*
X100637857Y-92052857D01*
X100352142Y-92052857D01*
X100180714Y-92110000D01*
X100066428Y-92224286D01*
X100009285Y-92338571D01*
X99952142Y-92567143D01*
X99952142Y-92738571D01*
X100009285Y-92967143D01*
X100066428Y-93081429D01*
X100180714Y-93195714D01*
X100352142Y-93252857D01*
X100637857Y-93252857D01*
X99209285Y-92052857D02*
X98980714Y-92052857D01*
X98866428Y-92110000D01*
X98752142Y-92224286D01*
X98695000Y-92452857D01*
X98695000Y-92852857D01*
X98752142Y-93081429D01*
X98866428Y-93195714D01*
X98980714Y-93252857D01*
X99209285Y-93252857D01*
X99323571Y-93195714D01*
X99437857Y-93081429D01*
X99495000Y-92852857D01*
X99495000Y-92452857D01*
X99437857Y-92224286D01*
X99323571Y-92110000D01*
X99209285Y-92052857D01*
X82222857Y-93252857D02*
X82222857Y-92052857D01*
X81937142Y-92052857D01*
X81765714Y-92110000D01*
X81651428Y-92224286D01*
X81594285Y-92338571D01*
X81537142Y-92567143D01*
X81537142Y-92738571D01*
X81594285Y-92967143D01*
X81651428Y-93081429D01*
X81765714Y-93195714D01*
X81937142Y-93252857D01*
X82222857Y-93252857D01*
X80794285Y-92052857D02*
X80565714Y-92052857D01*
X80451428Y-92110000D01*
X80337142Y-92224286D01*
X80280000Y-92452857D01*
X80280000Y-92852857D01*
X80337142Y-93081429D01*
X80451428Y-93195714D01*
X80565714Y-93252857D01*
X80794285Y-93252857D01*
X80908571Y-93195714D01*
X81022857Y-93081429D01*
X81080000Y-92852857D01*
X81080000Y-92452857D01*
X81022857Y-92224286D01*
X80908571Y-92110000D01*
X80794285Y-92052857D01*
X138737857Y-74202857D02*
X138737857Y-73002857D01*
X138452142Y-73002857D01*
X138280714Y-73060000D01*
X138166428Y-73174286D01*
X138109285Y-73288571D01*
X138052142Y-73517143D01*
X138052142Y-73688571D01*
X138109285Y-73917143D01*
X138166428Y-74031429D01*
X138280714Y-74145714D01*
X138452142Y-74202857D01*
X138737857Y-74202857D01*
X137309285Y-73002857D02*
X137080714Y-73002857D01*
X136966428Y-73060000D01*
X136852142Y-73174286D01*
X136795000Y-73402857D01*
X136795000Y-73802857D01*
X136852142Y-74031429D01*
X136966428Y-74145714D01*
X137080714Y-74202857D01*
X137309285Y-74202857D01*
X137423571Y-74145714D01*
X137537857Y-74031429D01*
X137595000Y-73802857D01*
X137595000Y-73402857D01*
X137537857Y-73174286D01*
X137423571Y-73060000D01*
X137309285Y-73002857D01*
X119687857Y-74202857D02*
X119687857Y-73002857D01*
X119402142Y-73002857D01*
X119230714Y-73060000D01*
X119116428Y-73174286D01*
X119059285Y-73288571D01*
X119002142Y-73517143D01*
X119002142Y-73688571D01*
X119059285Y-73917143D01*
X119116428Y-74031429D01*
X119230714Y-74145714D01*
X119402142Y-74202857D01*
X119687857Y-74202857D01*
X118259285Y-73002857D02*
X118030714Y-73002857D01*
X117916428Y-73060000D01*
X117802142Y-73174286D01*
X117745000Y-73402857D01*
X117745000Y-73802857D01*
X117802142Y-74031429D01*
X117916428Y-74145714D01*
X118030714Y-74202857D01*
X118259285Y-74202857D01*
X118373571Y-74145714D01*
X118487857Y-74031429D01*
X118545000Y-73802857D01*
X118545000Y-73402857D01*
X118487857Y-73174286D01*
X118373571Y-73060000D01*
X118259285Y-73002857D01*
X100637857Y-74202857D02*
X100637857Y-73002857D01*
X100352142Y-73002857D01*
X100180714Y-73060000D01*
X100066428Y-73174286D01*
X100009285Y-73288571D01*
X99952142Y-73517143D01*
X99952142Y-73688571D01*
X100009285Y-73917143D01*
X100066428Y-74031429D01*
X100180714Y-74145714D01*
X100352142Y-74202857D01*
X100637857Y-74202857D01*
X99209285Y-73002857D02*
X98980714Y-73002857D01*
X98866428Y-73060000D01*
X98752142Y-73174286D01*
X98695000Y-73402857D01*
X98695000Y-73802857D01*
X98752142Y-74031429D01*
X98866428Y-74145714D01*
X98980714Y-74202857D01*
X99209285Y-74202857D01*
X99323571Y-74145714D01*
X99437857Y-74031429D01*
X99495000Y-73802857D01*
X99495000Y-73402857D01*
X99437857Y-73174286D01*
X99323571Y-73060000D01*
X99209285Y-73002857D01*
X82222857Y-74202857D02*
X82222857Y-73002857D01*
X81937142Y-73002857D01*
X81765714Y-73060000D01*
X81651428Y-73174286D01*
X81594285Y-73288571D01*
X81537142Y-73517143D01*
X81537142Y-73688571D01*
X81594285Y-73917143D01*
X81651428Y-74031429D01*
X81765714Y-74145714D01*
X81937142Y-74202857D01*
X82222857Y-74202857D01*
X80794285Y-73002857D02*
X80565714Y-73002857D01*
X80451428Y-73060000D01*
X80337142Y-73174286D01*
X80280000Y-73402857D01*
X80280000Y-73802857D01*
X80337142Y-74031429D01*
X80451428Y-74145714D01*
X80565714Y-74202857D01*
X80794285Y-74202857D01*
X80908571Y-74145714D01*
X81022857Y-74031429D01*
X81080000Y-73802857D01*
X81080000Y-73402857D01*
X81022857Y-73174286D01*
X80908571Y-73060000D01*
X80794285Y-73002857D01*
X138737857Y-55152857D02*
X138737857Y-53952857D01*
X138452142Y-53952857D01*
X138280714Y-54010000D01*
X138166428Y-54124286D01*
X138109285Y-54238571D01*
X138052142Y-54467143D01*
X138052142Y-54638571D01*
X138109285Y-54867143D01*
X138166428Y-54981429D01*
X138280714Y-55095714D01*
X138452142Y-55152857D01*
X138737857Y-55152857D01*
X137309285Y-53952857D02*
X137080714Y-53952857D01*
X136966428Y-54010000D01*
X136852142Y-54124286D01*
X136795000Y-54352857D01*
X136795000Y-54752857D01*
X136852142Y-54981429D01*
X136966428Y-55095714D01*
X137080714Y-55152857D01*
X137309285Y-55152857D01*
X137423571Y-55095714D01*
X137537857Y-54981429D01*
X137595000Y-54752857D01*
X137595000Y-54352857D01*
X137537857Y-54124286D01*
X137423571Y-54010000D01*
X137309285Y-53952857D01*
X119687857Y-55152857D02*
X119687857Y-53952857D01*
X119402142Y-53952857D01*
X119230714Y-54010000D01*
X119116428Y-54124286D01*
X119059285Y-54238571D01*
X119002142Y-54467143D01*
X119002142Y-54638571D01*
X119059285Y-54867143D01*
X119116428Y-54981429D01*
X119230714Y-55095714D01*
X119402142Y-55152857D01*
X119687857Y-55152857D01*
X118259285Y-53952857D02*
X118030714Y-53952857D01*
X117916428Y-54010000D01*
X117802142Y-54124286D01*
X117745000Y-54352857D01*
X117745000Y-54752857D01*
X117802142Y-54981429D01*
X117916428Y-55095714D01*
X118030714Y-55152857D01*
X118259285Y-55152857D01*
X118373571Y-55095714D01*
X118487857Y-54981429D01*
X118545000Y-54752857D01*
X118545000Y-54352857D01*
X118487857Y-54124286D01*
X118373571Y-54010000D01*
X118259285Y-53952857D01*
X100637857Y-55152857D02*
X100637857Y-53952857D01*
X100352142Y-53952857D01*
X100180714Y-54010000D01*
X100066428Y-54124286D01*
X100009285Y-54238571D01*
X99952142Y-54467143D01*
X99952142Y-54638571D01*
X100009285Y-54867143D01*
X100066428Y-54981429D01*
X100180714Y-55095714D01*
X100352142Y-55152857D01*
X100637857Y-55152857D01*
X99209285Y-53952857D02*
X98980714Y-53952857D01*
X98866428Y-54010000D01*
X98752142Y-54124286D01*
X98695000Y-54352857D01*
X98695000Y-54752857D01*
X98752142Y-54981429D01*
X98866428Y-55095714D01*
X98980714Y-55152857D01*
X99209285Y-55152857D01*
X99323571Y-55095714D01*
X99437857Y-54981429D01*
X99495000Y-54752857D01*
X99495000Y-54352857D01*
X99437857Y-54124286D01*
X99323571Y-54010000D01*
X99209285Y-53952857D01*
X153492143Y-130895714D02*
X152577857Y-130895714D01*
X153035000Y-131352857D02*
X153035000Y-130438571D01*
X134442143Y-130895714D02*
X133527857Y-130895714D01*
X133985000Y-131352857D02*
X133985000Y-130438571D01*
X115392143Y-130895714D02*
X114477857Y-130895714D01*
X114935000Y-131352857D02*
X114935000Y-130438571D01*
X96342143Y-130895714D02*
X95427857Y-130895714D01*
X95885000Y-131352857D02*
X95885000Y-130438571D01*
X153492143Y-111845714D02*
X152577857Y-111845714D01*
X153035000Y-112302857D02*
X153035000Y-111388571D01*
X134442143Y-111845714D02*
X133527857Y-111845714D01*
X133985000Y-112302857D02*
X133985000Y-111388571D01*
X115392143Y-111845714D02*
X114477857Y-111845714D01*
X114935000Y-112302857D02*
X114935000Y-111388571D01*
X96342143Y-111845714D02*
X95427857Y-111845714D01*
X95885000Y-112302857D02*
X95885000Y-111388571D01*
X153492143Y-92795714D02*
X152577857Y-92795714D01*
X153035000Y-93252857D02*
X153035000Y-92338571D01*
X134442143Y-92795714D02*
X133527857Y-92795714D01*
X133985000Y-93252857D02*
X133985000Y-92338571D01*
X115392143Y-92795714D02*
X114477857Y-92795714D01*
X114935000Y-93252857D02*
X114935000Y-92338571D01*
X96342143Y-92795714D02*
X95427857Y-92795714D01*
X95885000Y-93252857D02*
X95885000Y-92338571D01*
X153492143Y-73745714D02*
X152577857Y-73745714D01*
X153035000Y-74202857D02*
X153035000Y-73288571D01*
X134442143Y-73745714D02*
X133527857Y-73745714D01*
X133985000Y-74202857D02*
X133985000Y-73288571D01*
X115392143Y-73745714D02*
X114477857Y-73745714D01*
X114935000Y-74202857D02*
X114935000Y-73288571D01*
X96342143Y-73745714D02*
X95427857Y-73745714D01*
X95885000Y-74202857D02*
X95885000Y-73288571D01*
X153492143Y-54695714D02*
X152577857Y-54695714D01*
X153035000Y-55152857D02*
X153035000Y-54238571D01*
X134442143Y-54695714D02*
X133527857Y-54695714D01*
X133985000Y-55152857D02*
X133985000Y-54238571D01*
X115392143Y-54695714D02*
X114477857Y-54695714D01*
X114935000Y-55152857D02*
X114935000Y-54238571D01*
X152663571Y-126158571D02*
X152720714Y-126215714D01*
X152892143Y-126272857D01*
X153006429Y-126272857D01*
X153177857Y-126215714D01*
X153292143Y-126101429D01*
X153349286Y-125987143D01*
X153406429Y-125758571D01*
X153406429Y-125587143D01*
X153349286Y-125358571D01*
X153292143Y-125244286D01*
X153177857Y-125130000D01*
X153006429Y-125072857D01*
X152892143Y-125072857D01*
X152720714Y-125130000D01*
X152663571Y-125187143D01*
X133613571Y-126158571D02*
X133670714Y-126215714D01*
X133842143Y-126272857D01*
X133956429Y-126272857D01*
X134127857Y-126215714D01*
X134242143Y-126101429D01*
X134299286Y-125987143D01*
X134356429Y-125758571D01*
X134356429Y-125587143D01*
X134299286Y-125358571D01*
X134242143Y-125244286D01*
X134127857Y-125130000D01*
X133956429Y-125072857D01*
X133842143Y-125072857D01*
X133670714Y-125130000D01*
X133613571Y-125187143D01*
X114563571Y-126158571D02*
X114620714Y-126215714D01*
X114792143Y-126272857D01*
X114906429Y-126272857D01*
X115077857Y-126215714D01*
X115192143Y-126101429D01*
X115249286Y-125987143D01*
X115306429Y-125758571D01*
X115306429Y-125587143D01*
X115249286Y-125358571D01*
X115192143Y-125244286D01*
X115077857Y-125130000D01*
X114906429Y-125072857D01*
X114792143Y-125072857D01*
X114620714Y-125130000D01*
X114563571Y-125187143D01*
X95513571Y-126158571D02*
X95570714Y-126215714D01*
X95742143Y-126272857D01*
X95856429Y-126272857D01*
X96027857Y-126215714D01*
X96142143Y-126101429D01*
X96199286Y-125987143D01*
X96256429Y-125758571D01*
X96256429Y-125587143D01*
X96199286Y-125358571D01*
X96142143Y-125244286D01*
X96027857Y-125130000D01*
X95856429Y-125072857D01*
X95742143Y-125072857D01*
X95570714Y-125130000D01*
X95513571Y-125187143D01*
X152663571Y-107108571D02*
X152720714Y-107165714D01*
X152892143Y-107222857D01*
X153006429Y-107222857D01*
X153177857Y-107165714D01*
X153292143Y-107051429D01*
X153349286Y-106937143D01*
X153406429Y-106708571D01*
X153406429Y-106537143D01*
X153349286Y-106308571D01*
X153292143Y-106194286D01*
X153177857Y-106080000D01*
X153006429Y-106022857D01*
X152892143Y-106022857D01*
X152720714Y-106080000D01*
X152663571Y-106137143D01*
X133613571Y-107108571D02*
X133670714Y-107165714D01*
X133842143Y-107222857D01*
X133956429Y-107222857D01*
X134127857Y-107165714D01*
X134242143Y-107051429D01*
X134299286Y-106937143D01*
X134356429Y-106708571D01*
X134356429Y-106537143D01*
X134299286Y-106308571D01*
X134242143Y-106194286D01*
X134127857Y-106080000D01*
X133956429Y-106022857D01*
X133842143Y-106022857D01*
X133670714Y-106080000D01*
X133613571Y-106137143D01*
X114563571Y-107108571D02*
X114620714Y-107165714D01*
X114792143Y-107222857D01*
X114906429Y-107222857D01*
X115077857Y-107165714D01*
X115192143Y-107051429D01*
X115249286Y-106937143D01*
X115306429Y-106708571D01*
X115306429Y-106537143D01*
X115249286Y-106308571D01*
X115192143Y-106194286D01*
X115077857Y-106080000D01*
X114906429Y-106022857D01*
X114792143Y-106022857D01*
X114620714Y-106080000D01*
X114563571Y-106137143D01*
X95513571Y-107108571D02*
X95570714Y-107165714D01*
X95742143Y-107222857D01*
X95856429Y-107222857D01*
X96027857Y-107165714D01*
X96142143Y-107051429D01*
X96199286Y-106937143D01*
X96256429Y-106708571D01*
X96256429Y-106537143D01*
X96199286Y-106308571D01*
X96142143Y-106194286D01*
X96027857Y-106080000D01*
X95856429Y-106022857D01*
X95742143Y-106022857D01*
X95570714Y-106080000D01*
X95513571Y-106137143D01*
X152663571Y-88058571D02*
X152720714Y-88115714D01*
X152892143Y-88172857D01*
X153006429Y-88172857D01*
X153177857Y-88115714D01*
X153292143Y-88001429D01*
X153349286Y-87887143D01*
X153406429Y-87658571D01*
X153406429Y-87487143D01*
X153349286Y-87258571D01*
X153292143Y-87144286D01*
X153177857Y-87030000D01*
X153006429Y-86972857D01*
X152892143Y-86972857D01*
X152720714Y-87030000D01*
X152663571Y-87087143D01*
X133613571Y-88058571D02*
X133670714Y-88115714D01*
X133842143Y-88172857D01*
X133956429Y-88172857D01*
X134127857Y-88115714D01*
X134242143Y-88001429D01*
X134299286Y-87887143D01*
X134356429Y-87658571D01*
X134356429Y-87487143D01*
X134299286Y-87258571D01*
X134242143Y-87144286D01*
X134127857Y-87030000D01*
X133956429Y-86972857D01*
X133842143Y-86972857D01*
X133670714Y-87030000D01*
X133613571Y-87087143D01*
X114563571Y-88058571D02*
X114620714Y-88115714D01*
X114792143Y-88172857D01*
X114906429Y-88172857D01*
X115077857Y-88115714D01*
X115192143Y-88001429D01*
X115249286Y-87887143D01*
X115306429Y-87658571D01*
X115306429Y-87487143D01*
X115249286Y-87258571D01*
X115192143Y-87144286D01*
X115077857Y-87030000D01*
X114906429Y-86972857D01*
X114792143Y-86972857D01*
X114620714Y-87030000D01*
X114563571Y-87087143D01*
X95513571Y-88058571D02*
X95570714Y-88115714D01*
X95742143Y-88172857D01*
X95856429Y-88172857D01*
X96027857Y-88115714D01*
X96142143Y-88001429D01*
X96199286Y-87887143D01*
X96256429Y-87658571D01*
X96256429Y-87487143D01*
X96199286Y-87258571D01*
X96142143Y-87144286D01*
X96027857Y-87030000D01*
X95856429Y-86972857D01*
X95742143Y-86972857D01*
X95570714Y-87030000D01*
X95513571Y-87087143D01*
X152663571Y-69008571D02*
X152720714Y-69065714D01*
X152892143Y-69122857D01*
X153006429Y-69122857D01*
X153177857Y-69065714D01*
X153292143Y-68951429D01*
X153349286Y-68837143D01*
X153406429Y-68608571D01*
X153406429Y-68437143D01*
X153349286Y-68208571D01*
X153292143Y-68094286D01*
X153177857Y-67980000D01*
X153006429Y-67922857D01*
X152892143Y-67922857D01*
X152720714Y-67980000D01*
X152663571Y-68037143D01*
X133613571Y-69008571D02*
X133670714Y-69065714D01*
X133842143Y-69122857D01*
X133956429Y-69122857D01*
X134127857Y-69065714D01*
X134242143Y-68951429D01*
X134299286Y-68837143D01*
X134356429Y-68608571D01*
X134356429Y-68437143D01*
X134299286Y-68208571D01*
X134242143Y-68094286D01*
X134127857Y-67980000D01*
X133956429Y-67922857D01*
X133842143Y-67922857D01*
X133670714Y-67980000D01*
X133613571Y-68037143D01*
X114563571Y-69008571D02*
X114620714Y-69065714D01*
X114792143Y-69122857D01*
X114906429Y-69122857D01*
X115077857Y-69065714D01*
X115192143Y-68951429D01*
X115249286Y-68837143D01*
X115306429Y-68608571D01*
X115306429Y-68437143D01*
X115249286Y-68208571D01*
X115192143Y-68094286D01*
X115077857Y-67980000D01*
X114906429Y-67922857D01*
X114792143Y-67922857D01*
X114620714Y-67980000D01*
X114563571Y-68037143D01*
X95513571Y-69008571D02*
X95570714Y-69065714D01*
X95742143Y-69122857D01*
X95856429Y-69122857D01*
X96027857Y-69065714D01*
X96142143Y-68951429D01*
X96199286Y-68837143D01*
X96256429Y-68608571D01*
X96256429Y-68437143D01*
X96199286Y-68208571D01*
X96142143Y-68094286D01*
X96027857Y-67980000D01*
X95856429Y-67922857D01*
X95742143Y-67922857D01*
X95570714Y-67980000D01*
X95513571Y-68037143D01*
X152663571Y-49958571D02*
X152720714Y-50015714D01*
X152892143Y-50072857D01*
X153006429Y-50072857D01*
X153177857Y-50015714D01*
X153292143Y-49901429D01*
X153349286Y-49787143D01*
X153406429Y-49558571D01*
X153406429Y-49387143D01*
X153349286Y-49158571D01*
X153292143Y-49044286D01*
X153177857Y-48930000D01*
X153006429Y-48872857D01*
X152892143Y-48872857D01*
X152720714Y-48930000D01*
X152663571Y-48987143D01*
X133613571Y-49958571D02*
X133670714Y-50015714D01*
X133842143Y-50072857D01*
X133956429Y-50072857D01*
X134127857Y-50015714D01*
X134242143Y-49901429D01*
X134299286Y-49787143D01*
X134356429Y-49558571D01*
X134356429Y-49387143D01*
X134299286Y-49158571D01*
X134242143Y-49044286D01*
X134127857Y-48930000D01*
X133956429Y-48872857D01*
X133842143Y-48872857D01*
X133670714Y-48930000D01*
X133613571Y-48987143D01*
X114563571Y-49958571D02*
X114620714Y-50015714D01*
X114792143Y-50072857D01*
X114906429Y-50072857D01*
X115077857Y-50015714D01*
X115192143Y-49901429D01*
X115249286Y-49787143D01*
X115306429Y-49558571D01*
X115306429Y-49387143D01*
X115249286Y-49158571D01*
X115192143Y-49044286D01*
X115077857Y-48930000D01*
X114906429Y-48872857D01*
X114792143Y-48872857D01*
X114620714Y-48930000D01*
X114563571Y-48987143D01*
X153635000Y-136432857D02*
X153635000Y-135232857D01*
X153349285Y-135232857D01*
X153177857Y-135290000D01*
X153063571Y-135404286D01*
X153006428Y-135518571D01*
X152949285Y-135747143D01*
X152949285Y-135918571D01*
X153006428Y-136147143D01*
X153063571Y-136261429D01*
X153177857Y-136375714D01*
X153349285Y-136432857D01*
X153635000Y-136432857D01*
X152435000Y-136432857D02*
X152435000Y-135232857D01*
X134585000Y-136432857D02*
X134585000Y-135232857D01*
X134299285Y-135232857D01*
X134127857Y-135290000D01*
X134013571Y-135404286D01*
X133956428Y-135518571D01*
X133899285Y-135747143D01*
X133899285Y-135918571D01*
X133956428Y-136147143D01*
X134013571Y-136261429D01*
X134127857Y-136375714D01*
X134299285Y-136432857D01*
X134585000Y-136432857D01*
X133385000Y-136432857D02*
X133385000Y-135232857D01*
X115535000Y-136432857D02*
X115535000Y-135232857D01*
X115249285Y-135232857D01*
X115077857Y-135290000D01*
X114963571Y-135404286D01*
X114906428Y-135518571D01*
X114849285Y-135747143D01*
X114849285Y-135918571D01*
X114906428Y-136147143D01*
X114963571Y-136261429D01*
X115077857Y-136375714D01*
X115249285Y-136432857D01*
X115535000Y-136432857D01*
X114335000Y-136432857D02*
X114335000Y-135232857D01*
X96485000Y-136432857D02*
X96485000Y-135232857D01*
X96199285Y-135232857D01*
X96027857Y-135290000D01*
X95913571Y-135404286D01*
X95856428Y-135518571D01*
X95799285Y-135747143D01*
X95799285Y-135918571D01*
X95856428Y-136147143D01*
X95913571Y-136261429D01*
X96027857Y-136375714D01*
X96199285Y-136432857D01*
X96485000Y-136432857D01*
X95285000Y-136432857D02*
X95285000Y-135232857D01*
X153635000Y-117382857D02*
X153635000Y-116182857D01*
X153349285Y-116182857D01*
X153177857Y-116240000D01*
X153063571Y-116354286D01*
X153006428Y-116468571D01*
X152949285Y-116697143D01*
X152949285Y-116868571D01*
X153006428Y-117097143D01*
X153063571Y-117211429D01*
X153177857Y-117325714D01*
X153349285Y-117382857D01*
X153635000Y-117382857D01*
X152435000Y-117382857D02*
X152435000Y-116182857D01*
X134585000Y-117382857D02*
X134585000Y-116182857D01*
X134299285Y-116182857D01*
X134127857Y-116240000D01*
X134013571Y-116354286D01*
X133956428Y-116468571D01*
X133899285Y-116697143D01*
X133899285Y-116868571D01*
X133956428Y-117097143D01*
X134013571Y-117211429D01*
X134127857Y-117325714D01*
X134299285Y-117382857D01*
X134585000Y-117382857D01*
X133385000Y-117382857D02*
X133385000Y-116182857D01*
X115535000Y-117382857D02*
X115535000Y-116182857D01*
X115249285Y-116182857D01*
X115077857Y-116240000D01*
X114963571Y-116354286D01*
X114906428Y-116468571D01*
X114849285Y-116697143D01*
X114849285Y-116868571D01*
X114906428Y-117097143D01*
X114963571Y-117211429D01*
X115077857Y-117325714D01*
X115249285Y-117382857D01*
X115535000Y-117382857D01*
X114335000Y-117382857D02*
X114335000Y-116182857D01*
X96485000Y-117382857D02*
X96485000Y-116182857D01*
X96199285Y-116182857D01*
X96027857Y-116240000D01*
X95913571Y-116354286D01*
X95856428Y-116468571D01*
X95799285Y-116697143D01*
X95799285Y-116868571D01*
X95856428Y-117097143D01*
X95913571Y-117211429D01*
X96027857Y-117325714D01*
X96199285Y-117382857D01*
X96485000Y-117382857D01*
X95285000Y-117382857D02*
X95285000Y-116182857D01*
X153635000Y-98332857D02*
X153635000Y-97132857D01*
X153349285Y-97132857D01*
X153177857Y-97190000D01*
X153063571Y-97304286D01*
X153006428Y-97418571D01*
X152949285Y-97647143D01*
X152949285Y-97818571D01*
X153006428Y-98047143D01*
X153063571Y-98161429D01*
X153177857Y-98275714D01*
X153349285Y-98332857D01*
X153635000Y-98332857D01*
X152435000Y-98332857D02*
X152435000Y-97132857D01*
X134585000Y-98332857D02*
X134585000Y-97132857D01*
X134299285Y-97132857D01*
X134127857Y-97190000D01*
X134013571Y-97304286D01*
X133956428Y-97418571D01*
X133899285Y-97647143D01*
X133899285Y-97818571D01*
X133956428Y-98047143D01*
X134013571Y-98161429D01*
X134127857Y-98275714D01*
X134299285Y-98332857D01*
X134585000Y-98332857D01*
X133385000Y-98332857D02*
X133385000Y-97132857D01*
X115535000Y-98332857D02*
X115535000Y-97132857D01*
X115249285Y-97132857D01*
X115077857Y-97190000D01*
X114963571Y-97304286D01*
X114906428Y-97418571D01*
X114849285Y-97647143D01*
X114849285Y-97818571D01*
X114906428Y-98047143D01*
X114963571Y-98161429D01*
X115077857Y-98275714D01*
X115249285Y-98332857D01*
X115535000Y-98332857D01*
X114335000Y-98332857D02*
X114335000Y-97132857D01*
X96485000Y-98332857D02*
X96485000Y-97132857D01*
X96199285Y-97132857D01*
X96027857Y-97190000D01*
X95913571Y-97304286D01*
X95856428Y-97418571D01*
X95799285Y-97647143D01*
X95799285Y-97818571D01*
X95856428Y-98047143D01*
X95913571Y-98161429D01*
X96027857Y-98275714D01*
X96199285Y-98332857D01*
X96485000Y-98332857D01*
X95285000Y-98332857D02*
X95285000Y-97132857D01*
X153635000Y-79282857D02*
X153635000Y-78082857D01*
X153349285Y-78082857D01*
X153177857Y-78140000D01*
X153063571Y-78254286D01*
X153006428Y-78368571D01*
X152949285Y-78597143D01*
X152949285Y-78768571D01*
X153006428Y-78997143D01*
X153063571Y-79111429D01*
X153177857Y-79225714D01*
X153349285Y-79282857D01*
X153635000Y-79282857D01*
X152435000Y-79282857D02*
X152435000Y-78082857D01*
X134585000Y-79282857D02*
X134585000Y-78082857D01*
X134299285Y-78082857D01*
X134127857Y-78140000D01*
X134013571Y-78254286D01*
X133956428Y-78368571D01*
X133899285Y-78597143D01*
X133899285Y-78768571D01*
X133956428Y-78997143D01*
X134013571Y-79111429D01*
X134127857Y-79225714D01*
X134299285Y-79282857D01*
X134585000Y-79282857D01*
X133385000Y-79282857D02*
X133385000Y-78082857D01*
X115535000Y-79282857D02*
X115535000Y-78082857D01*
X115249285Y-78082857D01*
X115077857Y-78140000D01*
X114963571Y-78254286D01*
X114906428Y-78368571D01*
X114849285Y-78597143D01*
X114849285Y-78768571D01*
X114906428Y-78997143D01*
X114963571Y-79111429D01*
X115077857Y-79225714D01*
X115249285Y-79282857D01*
X115535000Y-79282857D01*
X114335000Y-79282857D02*
X114335000Y-78082857D01*
X96485000Y-79282857D02*
X96485000Y-78082857D01*
X96199285Y-78082857D01*
X96027857Y-78140000D01*
X95913571Y-78254286D01*
X95856428Y-78368571D01*
X95799285Y-78597143D01*
X95799285Y-78768571D01*
X95856428Y-78997143D01*
X95913571Y-79111429D01*
X96027857Y-79225714D01*
X96199285Y-79282857D01*
X96485000Y-79282857D01*
X95285000Y-79282857D02*
X95285000Y-78082857D01*
X153635000Y-60232857D02*
X153635000Y-59032857D01*
X153349285Y-59032857D01*
X153177857Y-59090000D01*
X153063571Y-59204286D01*
X153006428Y-59318571D01*
X152949285Y-59547143D01*
X152949285Y-59718571D01*
X153006428Y-59947143D01*
X153063571Y-60061429D01*
X153177857Y-60175714D01*
X153349285Y-60232857D01*
X153635000Y-60232857D01*
X152435000Y-60232857D02*
X152435000Y-59032857D01*
X134585000Y-60232857D02*
X134585000Y-59032857D01*
X134299285Y-59032857D01*
X134127857Y-59090000D01*
X134013571Y-59204286D01*
X133956428Y-59318571D01*
X133899285Y-59547143D01*
X133899285Y-59718571D01*
X133956428Y-59947143D01*
X134013571Y-60061429D01*
X134127857Y-60175714D01*
X134299285Y-60232857D01*
X134585000Y-60232857D01*
X133385000Y-60232857D02*
X133385000Y-59032857D01*
X115535000Y-60232857D02*
X115535000Y-59032857D01*
X115249285Y-59032857D01*
X115077857Y-59090000D01*
X114963571Y-59204286D01*
X114906428Y-59318571D01*
X114849285Y-59547143D01*
X114849285Y-59718571D01*
X114906428Y-59947143D01*
X114963571Y-60061429D01*
X115077857Y-60175714D01*
X115249285Y-60232857D01*
X115535000Y-60232857D01*
X114335000Y-60232857D02*
X114335000Y-59032857D01*
X150317143Y-137880714D02*
X149402857Y-137880714D01*
X131267143Y-137880714D02*
X130352857Y-137880714D01*
X112217143Y-137880714D02*
X111302857Y-137880714D01*
X93167143Y-137880714D02*
X92252857Y-137880714D01*
X150317143Y-118830714D02*
X149402857Y-118830714D01*
X131267143Y-118830714D02*
X130352857Y-118830714D01*
X112217143Y-118830714D02*
X111302857Y-118830714D01*
X93167143Y-118830714D02*
X92252857Y-118830714D01*
X150317143Y-99780714D02*
X149402857Y-99780714D01*
X131267143Y-99780714D02*
X130352857Y-99780714D01*
X112217143Y-99780714D02*
X111302857Y-99780714D01*
X93167143Y-99780714D02*
X92252857Y-99780714D01*
X150317143Y-80730714D02*
X149402857Y-80730714D01*
X131267143Y-80730714D02*
X130352857Y-80730714D01*
X112217143Y-80730714D02*
X111302857Y-80730714D01*
X93167143Y-80730714D02*
X92252857Y-80730714D01*
X150317143Y-61680714D02*
X149402857Y-61680714D01*
X131267143Y-61680714D02*
X130352857Y-61680714D01*
X112217143Y-61680714D02*
X111302857Y-61680714D01*
X175082143Y-85175714D02*
X174167857Y-85175714D01*
X175082143Y-82635714D02*
X174167857Y-82635714D01*
X174625000Y-83092857D02*
X174625000Y-82178571D01*
X157302143Y-82635714D02*
X156387857Y-82635714D01*
X156845000Y-83092857D02*
X156845000Y-82178571D01*
X157302143Y-85175714D02*
X156387857Y-85175714D01*
X160480286Y-60491667D02*
X160004095Y-60491667D01*
X160575524Y-60777381D02*
X160242191Y-59777381D01*
X159908857Y-60777381D01*
X159623143Y-59872619D02*
X159575524Y-59825000D01*
X159480286Y-59777381D01*
X159242190Y-59777381D01*
X159146952Y-59825000D01*
X159099333Y-59872619D01*
X159051714Y-59967857D01*
X159051714Y-60063095D01*
X159099333Y-60205952D01*
X159670762Y-60777381D01*
X159051714Y-60777381D01*
D12*
X171880714Y-47928095D02*
X172199761Y-47928095D01*
X172199761Y-47258095D01*
X171657380Y-47577143D02*
X171434047Y-47577143D01*
X171338333Y-47928095D02*
X171657380Y-47928095D01*
X171657380Y-47258095D01*
X171338333Y-47258095D01*
X171051190Y-47928095D02*
X171051190Y-47258095D01*
X170891666Y-47258095D01*
X170795952Y-47290000D01*
X170732143Y-47353810D01*
X170700238Y-47417619D01*
X170668333Y-47545238D01*
X170668333Y-47640952D01*
X170700238Y-47768571D01*
X170732143Y-47832381D01*
X170795952Y-47896190D01*
X170891666Y-47928095D01*
X171051190Y-47928095D01*
D11*
X171640476Y-76144381D02*
X171450000Y-76144381D01*
X171354761Y-76096762D01*
X171307142Y-76049143D01*
X171211904Y-75906286D01*
X171164285Y-75715810D01*
X171164285Y-75334857D01*
X171211904Y-75239619D01*
X171259523Y-75192000D01*
X171354761Y-75144381D01*
X171545238Y-75144381D01*
X171640476Y-75192000D01*
X171688095Y-75239619D01*
X171735714Y-75334857D01*
X171735714Y-75572952D01*
X171688095Y-75668190D01*
X171640476Y-75715810D01*
X171545238Y-75763429D01*
X171354761Y-75763429D01*
X171259523Y-75715810D01*
X171211904Y-75668190D01*
X171164285Y-75572952D01*
X171545238Y-72905952D02*
X171640476Y-72858333D01*
X171688095Y-72810714D01*
X171735714Y-72715476D01*
X171735714Y-72667857D01*
X171688095Y-72572619D01*
X171640476Y-72525000D01*
X171545238Y-72477381D01*
X171354761Y-72477381D01*
X171259523Y-72525000D01*
X171211904Y-72572619D01*
X171164285Y-72667857D01*
X171164285Y-72715476D01*
X171211904Y-72810714D01*
X171259523Y-72858333D01*
X171354761Y-72905952D01*
X171545238Y-72905952D01*
X171640476Y-72953571D01*
X171688095Y-73001190D01*
X171735714Y-73096429D01*
X171735714Y-73286905D01*
X171688095Y-73382143D01*
X171640476Y-73429762D01*
X171545238Y-73477381D01*
X171354761Y-73477381D01*
X171259523Y-73429762D01*
X171211904Y-73382143D01*
X171164285Y-73286905D01*
X171164285Y-73096429D01*
X171211904Y-73001190D01*
X171259523Y-72953571D01*
X171354761Y-72905952D01*
X171259523Y-67397381D02*
X171450000Y-67397381D01*
X171545238Y-67445000D01*
X171592857Y-67492619D01*
X171688095Y-67635476D01*
X171735714Y-67825952D01*
X171735714Y-68206905D01*
X171688095Y-68302143D01*
X171640476Y-68349762D01*
X171545238Y-68397381D01*
X171354761Y-68397381D01*
X171259523Y-68349762D01*
X171211904Y-68302143D01*
X171164285Y-68206905D01*
X171164285Y-67968810D01*
X171211904Y-67873571D01*
X171259523Y-67825952D01*
X171354761Y-67778333D01*
X171545238Y-67778333D01*
X171640476Y-67825952D01*
X171688095Y-67873571D01*
X171735714Y-67968810D01*
X171783333Y-69937381D02*
X171116666Y-69937381D01*
X171545238Y-70937381D01*
D12*
X172263571Y-58056190D02*
X172167857Y-58088095D01*
X172008333Y-58088095D01*
X171944523Y-58056190D01*
X171912619Y-58024286D01*
X171880714Y-57960476D01*
X171880714Y-57896667D01*
X171912619Y-57832857D01*
X171944523Y-57800952D01*
X172008333Y-57769048D01*
X172135952Y-57737143D01*
X172199761Y-57705238D01*
X172231666Y-57673333D01*
X172263571Y-57609524D01*
X172263571Y-57545714D01*
X172231666Y-57481905D01*
X172199761Y-57450000D01*
X172135952Y-57418095D01*
X171976428Y-57418095D01*
X171880714Y-57450000D01*
X171593571Y-58088095D02*
X171593571Y-57418095D01*
X171434047Y-57418095D01*
X171338333Y-57450000D01*
X171274524Y-57513810D01*
X171242619Y-57577619D01*
X171210714Y-57705238D01*
X171210714Y-57800952D01*
X171242619Y-57928571D01*
X171274524Y-57992381D01*
X171338333Y-58056190D01*
X171434047Y-58088095D01*
X171593571Y-58088095D01*
X170955476Y-57896667D02*
X170636428Y-57896667D01*
X171019285Y-58088095D02*
X170795952Y-57418095D01*
X170572619Y-58088095D01*
D11*
X171830952Y-55316429D02*
X171069047Y-55316429D01*
X171259523Y-62650714D02*
X171259523Y-63317381D01*
X171497619Y-62269762D02*
X171735714Y-62984048D01*
X171116666Y-62984048D01*
D12*
X172247619Y-60596190D02*
X172151905Y-60628095D01*
X171992381Y-60628095D01*
X171928571Y-60596190D01*
X171896667Y-60564286D01*
X171864762Y-60500476D01*
X171864762Y-60436667D01*
X171896667Y-60372857D01*
X171928571Y-60340952D01*
X171992381Y-60309048D01*
X172120000Y-60277143D01*
X172183809Y-60245238D01*
X172215714Y-60213333D01*
X172247619Y-60149524D01*
X172247619Y-60085714D01*
X172215714Y-60021905D01*
X172183809Y-59990000D01*
X172120000Y-59958095D01*
X171960476Y-59958095D01*
X171864762Y-59990000D01*
X171194762Y-60564286D02*
X171226667Y-60596190D01*
X171322381Y-60628095D01*
X171386191Y-60628095D01*
X171481905Y-60596190D01*
X171545714Y-60532381D01*
X171577619Y-60468571D01*
X171609524Y-60340952D01*
X171609524Y-60245238D01*
X171577619Y-60117619D01*
X171545714Y-60053810D01*
X171481905Y-59990000D01*
X171386191Y-59958095D01*
X171322381Y-59958095D01*
X171226667Y-59990000D01*
X171194762Y-60021905D01*
X170588572Y-60628095D02*
X170907619Y-60628095D01*
X170907619Y-59958095D01*
D11*
X171211904Y-64857381D02*
X171688095Y-64857381D01*
X171735714Y-65333571D01*
X171688095Y-65285952D01*
X171592857Y-65238333D01*
X171354761Y-65238333D01*
X171259523Y-65285952D01*
X171211904Y-65333571D01*
X171164285Y-65428810D01*
X171164285Y-65666905D01*
X171211904Y-65762143D01*
X171259523Y-65809762D01*
X171354761Y-65857381D01*
X171592857Y-65857381D01*
X171688095Y-65809762D01*
X171735714Y-65762143D01*
X171830952Y-52776429D02*
X171069047Y-52776429D01*
X172092857Y-50617381D02*
X172092857Y-49617381D01*
X171854762Y-49617381D01*
X171711904Y-49665000D01*
X171616666Y-49760238D01*
X171569047Y-49855476D01*
X171521428Y-50045952D01*
X171521428Y-50188810D01*
X171569047Y-50379286D01*
X171616666Y-50474524D01*
X171711904Y-50569762D01*
X171854762Y-50617381D01*
X172092857Y-50617381D01*
X171235714Y-49617381D02*
X170664285Y-49617381D01*
X170950000Y-50617381D02*
X170950000Y-49617381D01*
X159956476Y-76017381D02*
X160527905Y-76017381D01*
X160242191Y-76017381D02*
X160242191Y-75017381D01*
X160337429Y-75160238D01*
X160432667Y-75255476D01*
X160527905Y-75303095D01*
X159337429Y-75017381D02*
X159242190Y-75017381D01*
X159146952Y-75065000D01*
X159099333Y-75112619D01*
X159051714Y-75207857D01*
X159004095Y-75398333D01*
X159004095Y-75636429D01*
X159051714Y-75826905D01*
X159099333Y-75922143D01*
X159146952Y-75969762D01*
X159242190Y-76017381D01*
X159337429Y-76017381D01*
X159432667Y-75969762D01*
X159480286Y-75922143D01*
X159527905Y-75826905D01*
X159575524Y-75636429D01*
X159575524Y-75398333D01*
X159527905Y-75207857D01*
X159480286Y-75112619D01*
X159432667Y-75065000D01*
X159337429Y-75017381D01*
X159956476Y-73477381D02*
X160527905Y-73477381D01*
X160242191Y-73477381D02*
X160242191Y-72477381D01*
X160337429Y-72620238D01*
X160432667Y-72715476D01*
X160527905Y-72763095D01*
X159099333Y-72477381D02*
X159289810Y-72477381D01*
X159385048Y-72525000D01*
X159432667Y-72572619D01*
X159527905Y-72715476D01*
X159575524Y-72905952D01*
X159575524Y-73286905D01*
X159527905Y-73382143D01*
X159480286Y-73429762D01*
X159385048Y-73477381D01*
X159194571Y-73477381D01*
X159099333Y-73429762D01*
X159051714Y-73382143D01*
X159004095Y-73286905D01*
X159004095Y-73048810D01*
X159051714Y-72953571D01*
X159099333Y-72905952D01*
X159194571Y-72858333D01*
X159385048Y-72858333D01*
X159480286Y-72905952D01*
X159527905Y-72953571D01*
X159575524Y-73048810D01*
X159956476Y-70937381D02*
X160527905Y-70937381D01*
X160242191Y-70937381D02*
X160242191Y-69937381D01*
X160337429Y-70080238D01*
X160432667Y-70175476D01*
X160527905Y-70223095D01*
X159099333Y-70270714D02*
X159099333Y-70937381D01*
X159337429Y-69889762D02*
X159575524Y-70604048D01*
X158956476Y-70604048D01*
X159956476Y-68397381D02*
X160527905Y-68397381D01*
X160242191Y-68397381D02*
X160242191Y-67397381D01*
X160337429Y-67540238D01*
X160432667Y-67635476D01*
X160527905Y-67683095D01*
X159051714Y-67397381D02*
X159527905Y-67397381D01*
X159575524Y-67873571D01*
X159527905Y-67825952D01*
X159432667Y-67778333D01*
X159194571Y-67778333D01*
X159099333Y-67825952D01*
X159051714Y-67873571D01*
X159004095Y-67968810D01*
X159004095Y-68206905D01*
X159051714Y-68302143D01*
X159099333Y-68349762D01*
X159194571Y-68397381D01*
X159432667Y-68397381D01*
X159527905Y-68349762D01*
X159575524Y-68302143D01*
X160480286Y-65571667D02*
X160004095Y-65571667D01*
X160575524Y-65857381D02*
X160242191Y-64857381D01*
X159908857Y-65857381D01*
X159385048Y-64857381D02*
X159289809Y-64857381D01*
X159194571Y-64905000D01*
X159146952Y-64952619D01*
X159099333Y-65047857D01*
X159051714Y-65238333D01*
X159051714Y-65476429D01*
X159099333Y-65666905D01*
X159146952Y-65762143D01*
X159194571Y-65809762D01*
X159289809Y-65857381D01*
X159385048Y-65857381D01*
X159480286Y-65809762D01*
X159527905Y-65762143D01*
X159575524Y-65666905D01*
X159623143Y-65476429D01*
X159623143Y-65238333D01*
X159575524Y-65047857D01*
X159527905Y-64952619D01*
X159480286Y-64905000D01*
X159385048Y-64857381D01*
X160480286Y-63031667D02*
X160004095Y-63031667D01*
X160575524Y-63317381D02*
X160242191Y-62317381D01*
X159908857Y-63317381D01*
X159051714Y-63317381D02*
X159623143Y-63317381D01*
X159337429Y-63317381D02*
X159337429Y-62317381D01*
X159432667Y-62460238D01*
X159527905Y-62555476D01*
X159623143Y-62603095D01*
X160480286Y-57951667D02*
X160004095Y-57951667D01*
X160575524Y-58237381D02*
X160242191Y-57237381D01*
X159908857Y-58237381D01*
X159670762Y-57237381D02*
X159051714Y-57237381D01*
X159385048Y-57618333D01*
X159242190Y-57618333D01*
X159146952Y-57665952D01*
X159099333Y-57713571D01*
X159051714Y-57808810D01*
X159051714Y-58046905D01*
X159099333Y-58142143D01*
X159146952Y-58189762D01*
X159242190Y-58237381D01*
X159527905Y-58237381D01*
X159623143Y-58189762D01*
X159670762Y-58142143D01*
X160146952Y-55316429D02*
X159385047Y-55316429D01*
X159765999Y-55697381D02*
X159765999Y-54935476D01*
D12*
X160132904Y-53008095D02*
X160356237Y-52689048D01*
X160515761Y-53008095D02*
X160515761Y-52338095D01*
X160260523Y-52338095D01*
X160196714Y-52370000D01*
X160164809Y-52401905D01*
X160132904Y-52465714D01*
X160132904Y-52561429D01*
X160164809Y-52625238D01*
X160196714Y-52657143D01*
X160260523Y-52689048D01*
X160515761Y-52689048D01*
X159877666Y-52976190D02*
X159781952Y-53008095D01*
X159622428Y-53008095D01*
X159558618Y-52976190D01*
X159526714Y-52944286D01*
X159494809Y-52880476D01*
X159494809Y-52816667D01*
X159526714Y-52752857D01*
X159558618Y-52720952D01*
X159622428Y-52689048D01*
X159750047Y-52657143D01*
X159813856Y-52625238D01*
X159845761Y-52593333D01*
X159877666Y-52529524D01*
X159877666Y-52465714D01*
X159845761Y-52401905D01*
X159813856Y-52370000D01*
X159750047Y-52338095D01*
X159590523Y-52338095D01*
X159494809Y-52370000D01*
X159303380Y-52338095D02*
X158920523Y-52338095D01*
X159111952Y-53008095D02*
X159111952Y-52338095D01*
D11*
X160146952Y-50236429D02*
X159385047Y-50236429D01*
X160146952Y-47696429D02*
X159385047Y-47696429D01*
X159765999Y-48077381D02*
X159765999Y-47315476D01*
X81102143Y-48980714D02*
X80187857Y-48980714D01*
X80645000Y-49437857D02*
X80645000Y-48523571D01*
X81102143Y-60410714D02*
X80187857Y-60410714D01*
X82222857Y-55152857D02*
X82222857Y-53952857D01*
X81937142Y-53952857D01*
X81765714Y-54010000D01*
X81651428Y-54124286D01*
X81594285Y-54238571D01*
X81537142Y-54467143D01*
X81537142Y-54638571D01*
X81594285Y-54867143D01*
X81651428Y-54981429D01*
X81765714Y-55095714D01*
X81937142Y-55152857D01*
X82222857Y-55152857D01*
X80794285Y-53952857D02*
X80565714Y-53952857D01*
X80451428Y-54010000D01*
X80337142Y-54124286D01*
X80280000Y-54352857D01*
X80280000Y-54752857D01*
X80337142Y-54981429D01*
X80451428Y-55095714D01*
X80565714Y-55152857D01*
X80794285Y-55152857D01*
X80908571Y-55095714D01*
X81022857Y-54981429D01*
X81080000Y-54752857D01*
X81080000Y-54352857D01*
X81022857Y-54124286D01*
X80908571Y-54010000D01*
X80794285Y-53952857D01*
X93167143Y-61680714D02*
X92252857Y-61680714D01*
X96485000Y-60232857D02*
X96485000Y-59032857D01*
X96199285Y-59032857D01*
X96027857Y-59090000D01*
X95913571Y-59204286D01*
X95856428Y-59318571D01*
X95799285Y-59547143D01*
X95799285Y-59718571D01*
X95856428Y-59947143D01*
X95913571Y-60061429D01*
X96027857Y-60175714D01*
X96199285Y-60232857D01*
X96485000Y-60232857D01*
X95285000Y-60232857D02*
X95285000Y-59032857D01*
X96342143Y-54695714D02*
X95427857Y-54695714D01*
X95885000Y-55152857D02*
X95885000Y-54238571D01*
X83448571Y-62137857D02*
X83848571Y-61566429D01*
X84134286Y-62137857D02*
X84134286Y-60937857D01*
X83677143Y-60937857D01*
X83562857Y-60995000D01*
X83505714Y-61052143D01*
X83448571Y-61166429D01*
X83448571Y-61337857D01*
X83505714Y-61452143D01*
X83562857Y-61509286D01*
X83677143Y-61566429D01*
X84134286Y-61566429D01*
X81543571Y-46783571D02*
X81600714Y-46840714D01*
X81772143Y-46897857D01*
X81886429Y-46897857D01*
X82057857Y-46840714D01*
X82172143Y-46726429D01*
X82229286Y-46612143D01*
X82286429Y-46383571D01*
X82286429Y-46212143D01*
X82229286Y-45983571D01*
X82172143Y-45869286D01*
X82057857Y-45755000D01*
X81886429Y-45697857D01*
X81772143Y-45697857D01*
X81600714Y-45755000D01*
X81543571Y-45812143D01*
X95513571Y-49958571D02*
X95570714Y-50015714D01*
X95742143Y-50072857D01*
X95856429Y-50072857D01*
X96027857Y-50015714D01*
X96142143Y-49901429D01*
X96199286Y-49787143D01*
X96256429Y-49558571D01*
X96256429Y-49387143D01*
X96199286Y-49158571D01*
X96142143Y-49044286D01*
X96027857Y-48930000D01*
X95856429Y-48872857D01*
X95742143Y-48872857D01*
X95570714Y-48930000D01*
X95513571Y-48987143D01*
X83702571Y-46897857D02*
X84102571Y-46326429D01*
X84388286Y-46897857D02*
X84388286Y-45697857D01*
X83931143Y-45697857D01*
X83816857Y-45755000D01*
X83759714Y-45812143D01*
X83702571Y-45926429D01*
X83702571Y-46097857D01*
X83759714Y-46212143D01*
X83816857Y-46269286D01*
X83931143Y-46326429D01*
X84388286Y-46326429D01*
X170000000Y-122555000D02*
X170400000Y-122555000D01*
X166500000Y-122555000D02*
X166100000Y-122555000D01*
X167000000Y-123355000D02*
X167000000Y-121755000D01*
X166500000Y-123355000D02*
X170000000Y-123355000D01*
X170000000Y-123355000D02*
X170000000Y-121755000D01*
X170000000Y-121755000D02*
X166500000Y-121755000D01*
X166500000Y-121755000D02*
X166500000Y-123355000D01*
X170000000Y-103505000D02*
X170400000Y-103505000D01*
X166500000Y-103505000D02*
X166100000Y-103505000D01*
X167000000Y-104305000D02*
X167000000Y-102705000D01*
X166500000Y-104305000D02*
X170000000Y-104305000D01*
X170000000Y-104305000D02*
X170000000Y-102705000D01*
X170000000Y-102705000D02*
X166500000Y-102705000D01*
X166500000Y-102705000D02*
X166500000Y-104305000D01*
D10*
X167105000Y-113797500D02*
G75*
G03X167105000Y-113797500I-250000J0D01*
G01*
X167105000Y-132847500D02*
G75*
G03X167105000Y-132847500I-250000J0D01*
G01*
D11*
X150950000Y-122555000D02*
X151350000Y-122555000D01*
X147450000Y-122555000D02*
X147050000Y-122555000D01*
X147950000Y-123355000D02*
X147950000Y-121755000D01*
X147450000Y-123355000D02*
X150950000Y-123355000D01*
X150950000Y-123355000D02*
X150950000Y-121755000D01*
X150950000Y-121755000D02*
X147450000Y-121755000D01*
X147450000Y-121755000D02*
X147450000Y-123355000D01*
X131900000Y-122555000D02*
X132300000Y-122555000D01*
X128400000Y-122555000D02*
X128000000Y-122555000D01*
X128900000Y-123355000D02*
X128900000Y-121755000D01*
X128400000Y-123355000D02*
X131900000Y-123355000D01*
X131900000Y-123355000D02*
X131900000Y-121755000D01*
X131900000Y-121755000D02*
X128400000Y-121755000D01*
X128400000Y-121755000D02*
X128400000Y-123355000D01*
X112850000Y-122555000D02*
X113250000Y-122555000D01*
X109350000Y-122555000D02*
X108950000Y-122555000D01*
X109850000Y-123355000D02*
X109850000Y-121755000D01*
X109350000Y-123355000D02*
X112850000Y-123355000D01*
X112850000Y-123355000D02*
X112850000Y-121755000D01*
X112850000Y-121755000D02*
X109350000Y-121755000D01*
X109350000Y-121755000D02*
X109350000Y-123355000D01*
X93800000Y-122555000D02*
X94200000Y-122555000D01*
X90300000Y-122555000D02*
X89900000Y-122555000D01*
X90800000Y-123355000D02*
X90800000Y-121755000D01*
X90300000Y-123355000D02*
X93800000Y-123355000D01*
X93800000Y-123355000D02*
X93800000Y-121755000D01*
X93800000Y-121755000D02*
X90300000Y-121755000D01*
X90300000Y-121755000D02*
X90300000Y-123355000D01*
X150950000Y-103505000D02*
X151350000Y-103505000D01*
X147450000Y-103505000D02*
X147050000Y-103505000D01*
X147950000Y-104305000D02*
X147950000Y-102705000D01*
X147450000Y-104305000D02*
X150950000Y-104305000D01*
X150950000Y-104305000D02*
X150950000Y-102705000D01*
X150950000Y-102705000D02*
X147450000Y-102705000D01*
X147450000Y-102705000D02*
X147450000Y-104305000D01*
X131900000Y-103505000D02*
X132300000Y-103505000D01*
X128400000Y-103505000D02*
X128000000Y-103505000D01*
X128900000Y-104305000D02*
X128900000Y-102705000D01*
X128400000Y-104305000D02*
X131900000Y-104305000D01*
X131900000Y-104305000D02*
X131900000Y-102705000D01*
X131900000Y-102705000D02*
X128400000Y-102705000D01*
X128400000Y-102705000D02*
X128400000Y-104305000D01*
X112850000Y-103505000D02*
X113250000Y-103505000D01*
X109350000Y-103505000D02*
X108950000Y-103505000D01*
X109850000Y-104305000D02*
X109850000Y-102705000D01*
X109350000Y-104305000D02*
X112850000Y-104305000D01*
X112850000Y-104305000D02*
X112850000Y-102705000D01*
X112850000Y-102705000D02*
X109350000Y-102705000D01*
X109350000Y-102705000D02*
X109350000Y-104305000D01*
X93800000Y-103505000D02*
X94200000Y-103505000D01*
X90300000Y-103505000D02*
X89900000Y-103505000D01*
X90800000Y-104305000D02*
X90800000Y-102705000D01*
X90300000Y-104305000D02*
X93800000Y-104305000D01*
X93800000Y-104305000D02*
X93800000Y-102705000D01*
X93800000Y-102705000D02*
X90300000Y-102705000D01*
X90300000Y-102705000D02*
X90300000Y-104305000D01*
X150950000Y-84455000D02*
X151350000Y-84455000D01*
X147450000Y-84455000D02*
X147050000Y-84455000D01*
X147950000Y-85255000D02*
X147950000Y-83655000D01*
X147450000Y-85255000D02*
X150950000Y-85255000D01*
X150950000Y-85255000D02*
X150950000Y-83655000D01*
X150950000Y-83655000D02*
X147450000Y-83655000D01*
X147450000Y-83655000D02*
X147450000Y-85255000D01*
X131900000Y-84455000D02*
X132300000Y-84455000D01*
X128400000Y-84455000D02*
X128000000Y-84455000D01*
X128900000Y-85255000D02*
X128900000Y-83655000D01*
X128400000Y-85255000D02*
X131900000Y-85255000D01*
X131900000Y-85255000D02*
X131900000Y-83655000D01*
X131900000Y-83655000D02*
X128400000Y-83655000D01*
X128400000Y-83655000D02*
X128400000Y-85255000D01*
X112850000Y-84455000D02*
X113250000Y-84455000D01*
X109350000Y-84455000D02*
X108950000Y-84455000D01*
X109850000Y-85255000D02*
X109850000Y-83655000D01*
X109350000Y-85255000D02*
X112850000Y-85255000D01*
X112850000Y-85255000D02*
X112850000Y-83655000D01*
X112850000Y-83655000D02*
X109350000Y-83655000D01*
X109350000Y-83655000D02*
X109350000Y-85255000D01*
X93800000Y-84455000D02*
X94200000Y-84455000D01*
X90300000Y-84455000D02*
X89900000Y-84455000D01*
X90800000Y-85255000D02*
X90800000Y-83655000D01*
X90300000Y-85255000D02*
X93800000Y-85255000D01*
X93800000Y-85255000D02*
X93800000Y-83655000D01*
X93800000Y-83655000D02*
X90300000Y-83655000D01*
X90300000Y-83655000D02*
X90300000Y-85255000D01*
X150950000Y-65405000D02*
X151350000Y-65405000D01*
X147450000Y-65405000D02*
X147050000Y-65405000D01*
X147950000Y-66205000D02*
X147950000Y-64605000D01*
X147450000Y-66205000D02*
X150950000Y-66205000D01*
X150950000Y-66205000D02*
X150950000Y-64605000D01*
X150950000Y-64605000D02*
X147450000Y-64605000D01*
X147450000Y-64605000D02*
X147450000Y-66205000D01*
X131900000Y-65405000D02*
X132300000Y-65405000D01*
X128400000Y-65405000D02*
X128000000Y-65405000D01*
X128900000Y-66205000D02*
X128900000Y-64605000D01*
X128400000Y-66205000D02*
X131900000Y-66205000D01*
X131900000Y-66205000D02*
X131900000Y-64605000D01*
X131900000Y-64605000D02*
X128400000Y-64605000D01*
X128400000Y-64605000D02*
X128400000Y-66205000D01*
X112850000Y-65405000D02*
X113250000Y-65405000D01*
X109350000Y-65405000D02*
X108950000Y-65405000D01*
X109850000Y-66205000D02*
X109850000Y-64605000D01*
X109350000Y-66205000D02*
X112850000Y-66205000D01*
X112850000Y-66205000D02*
X112850000Y-64605000D01*
X112850000Y-64605000D02*
X109350000Y-64605000D01*
X109350000Y-64605000D02*
X109350000Y-66205000D01*
X93800000Y-65405000D02*
X94200000Y-65405000D01*
X90300000Y-65405000D02*
X89900000Y-65405000D01*
X90800000Y-66205000D02*
X90800000Y-64605000D01*
X90300000Y-66205000D02*
X93800000Y-66205000D01*
X93800000Y-66205000D02*
X93800000Y-64605000D01*
X93800000Y-64605000D02*
X90300000Y-64605000D01*
X90300000Y-64605000D02*
X90300000Y-66205000D01*
X150950000Y-46355000D02*
X151350000Y-46355000D01*
X147450000Y-46355000D02*
X147050000Y-46355000D01*
X147950000Y-47155000D02*
X147950000Y-45555000D01*
X147450000Y-47155000D02*
X150950000Y-47155000D01*
X150950000Y-47155000D02*
X150950000Y-45555000D01*
X150950000Y-45555000D02*
X147450000Y-45555000D01*
X147450000Y-45555000D02*
X147450000Y-47155000D01*
X131900000Y-46355000D02*
X132300000Y-46355000D01*
X128400000Y-46355000D02*
X128000000Y-46355000D01*
X128900000Y-47155000D02*
X128900000Y-45555000D01*
X128400000Y-47155000D02*
X131900000Y-47155000D01*
X131900000Y-47155000D02*
X131900000Y-45555000D01*
X131900000Y-45555000D02*
X128400000Y-45555000D01*
X128400000Y-45555000D02*
X128400000Y-47155000D01*
X112850000Y-46355000D02*
X113250000Y-46355000D01*
X109350000Y-46355000D02*
X108950000Y-46355000D01*
X109850000Y-47155000D02*
X109850000Y-45555000D01*
X109350000Y-47155000D02*
X112850000Y-47155000D01*
X112850000Y-47155000D02*
X112850000Y-45555000D01*
X112850000Y-45555000D02*
X109350000Y-45555000D01*
X109350000Y-45555000D02*
X109350000Y-47155000D01*
D10*
X148055000Y-132847500D02*
G75*
G03X148055000Y-132847500I-250000J0D01*
G01*
X129005000Y-132847500D02*
G75*
G03X129005000Y-132847500I-250000J0D01*
G01*
X109955000Y-132847500D02*
G75*
G03X109955000Y-132847500I-250000J0D01*
G01*
X90905000Y-132847500D02*
G75*
G03X90905000Y-132847500I-250000J0D01*
G01*
X148055000Y-113797500D02*
G75*
G03X148055000Y-113797500I-250000J0D01*
G01*
X129005000Y-113797500D02*
G75*
G03X129005000Y-113797500I-250000J0D01*
G01*
X109955000Y-113797500D02*
G75*
G03X109955000Y-113797500I-250000J0D01*
G01*
X90905000Y-113797500D02*
G75*
G03X90905000Y-113797500I-250000J0D01*
G01*
X148055000Y-94747500D02*
G75*
G03X148055000Y-94747500I-250000J0D01*
G01*
X129005000Y-94747500D02*
G75*
G03X129005000Y-94747500I-250000J0D01*
G01*
X109955000Y-94747500D02*
G75*
G03X109955000Y-94747500I-250000J0D01*
G01*
X90905000Y-94747500D02*
G75*
G03X90905000Y-94747500I-250000J0D01*
G01*
X148055000Y-75697500D02*
G75*
G03X148055000Y-75697500I-250000J0D01*
G01*
X129005000Y-75697500D02*
G75*
G03X129005000Y-75697500I-250000J0D01*
G01*
X109955000Y-75697500D02*
G75*
G03X109955000Y-75697500I-250000J0D01*
G01*
X90905000Y-75697500D02*
G75*
G03X90905000Y-75697500I-250000J0D01*
G01*
X148055000Y-56647500D02*
G75*
G03X148055000Y-56647500I-250000J0D01*
G01*
X129005000Y-56647500D02*
G75*
G03X129005000Y-56647500I-250000J0D01*
G01*
X109955000Y-56647500D02*
G75*
G03X109955000Y-56647500I-250000J0D01*
G01*
X167625000Y-94245000D02*
X155625000Y-94245000D01*
X167625000Y-88245000D02*
X167625000Y-94245000D01*
X155625000Y-88245000D02*
X167625000Y-88245000D01*
X155625000Y-94245000D02*
X155625000Y-88245000D01*
X160655000Y-78740000D02*
X170815000Y-78740000D01*
X170815000Y-78740000D02*
X170815000Y-81280000D01*
X170815000Y-81280000D02*
X160655000Y-81280000D01*
X160655000Y-81280000D02*
X160655000Y-78740000D01*
X163845000Y-86495000D02*
X175845000Y-86495000D01*
X163845000Y-92495000D02*
X163845000Y-86495000D01*
X175845000Y-92495000D02*
X163845000Y-92495000D01*
X175845000Y-86495000D02*
X175845000Y-92495000D01*
X168810000Y-85320000D02*
X168810000Y-85570000D01*
X168810000Y-85570000D02*
X162810000Y-85570000D01*
X162810000Y-85570000D02*
X162810000Y-85320000D01*
X162810000Y-82320000D02*
X162810000Y-82070000D01*
X162810000Y-82070000D02*
X168810000Y-82070000D01*
X168810000Y-82070000D02*
X168810000Y-82320000D01*
D11*
X93800000Y-46355000D02*
X94200000Y-46355000D01*
X90300000Y-46355000D02*
X89900000Y-46355000D01*
X90800000Y-47155000D02*
X90800000Y-45555000D01*
X90300000Y-47155000D02*
X93800000Y-47155000D01*
X93800000Y-47155000D02*
X93800000Y-45555000D01*
X93800000Y-45555000D02*
X90300000Y-45555000D01*
X90300000Y-45555000D02*
X90300000Y-47155000D01*
D10*
X90905000Y-56647500D02*
G75*
G03X90905000Y-56647500I-250000J0D01*
G01*
D11*
X169140095Y-123007381D02*
X169140095Y-122007381D01*
X168902000Y-122007381D01*
X168759142Y-122055000D01*
X168663904Y-122150238D01*
X168616285Y-122245476D01*
X168568666Y-122435952D01*
X168568666Y-122578810D01*
X168616285Y-122769286D01*
X168663904Y-122864524D01*
X168759142Y-122959762D01*
X168902000Y-123007381D01*
X169140095Y-123007381D01*
X167616285Y-123007381D02*
X168187714Y-123007381D01*
X167902000Y-123007381D02*
X167902000Y-122007381D01*
X167997238Y-122150238D01*
X168092476Y-122245476D01*
X168187714Y-122293095D01*
X169140095Y-103957381D02*
X169140095Y-102957381D01*
X168902000Y-102957381D01*
X168759142Y-103005000D01*
X168663904Y-103100238D01*
X168616285Y-103195476D01*
X168568666Y-103385952D01*
X168568666Y-103528810D01*
X168616285Y-103719286D01*
X168663904Y-103814524D01*
X168759142Y-103909762D01*
X168902000Y-103957381D01*
X169140095Y-103957381D01*
X167616285Y-103957381D02*
X168187714Y-103957381D01*
X167902000Y-103957381D02*
X167902000Y-102957381D01*
X167997238Y-103100238D01*
X168092476Y-103195476D01*
X168187714Y-103243095D01*
X150090095Y-123007381D02*
X150090095Y-122007381D01*
X149852000Y-122007381D01*
X149709142Y-122055000D01*
X149613904Y-122150238D01*
X149566285Y-122245476D01*
X149518666Y-122435952D01*
X149518666Y-122578810D01*
X149566285Y-122769286D01*
X149613904Y-122864524D01*
X149709142Y-122959762D01*
X149852000Y-123007381D01*
X150090095Y-123007381D01*
X148566285Y-123007381D02*
X149137714Y-123007381D01*
X148852000Y-123007381D02*
X148852000Y-122007381D01*
X148947238Y-122150238D01*
X149042476Y-122245476D01*
X149137714Y-122293095D01*
X131040095Y-123007381D02*
X131040095Y-122007381D01*
X130802000Y-122007381D01*
X130659142Y-122055000D01*
X130563904Y-122150238D01*
X130516285Y-122245476D01*
X130468666Y-122435952D01*
X130468666Y-122578810D01*
X130516285Y-122769286D01*
X130563904Y-122864524D01*
X130659142Y-122959762D01*
X130802000Y-123007381D01*
X131040095Y-123007381D01*
X129516285Y-123007381D02*
X130087714Y-123007381D01*
X129802000Y-123007381D02*
X129802000Y-122007381D01*
X129897238Y-122150238D01*
X129992476Y-122245476D01*
X130087714Y-122293095D01*
X111990095Y-123007381D02*
X111990095Y-122007381D01*
X111752000Y-122007381D01*
X111609142Y-122055000D01*
X111513904Y-122150238D01*
X111466285Y-122245476D01*
X111418666Y-122435952D01*
X111418666Y-122578810D01*
X111466285Y-122769286D01*
X111513904Y-122864524D01*
X111609142Y-122959762D01*
X111752000Y-123007381D01*
X111990095Y-123007381D01*
X110466285Y-123007381D02*
X111037714Y-123007381D01*
X110752000Y-123007381D02*
X110752000Y-122007381D01*
X110847238Y-122150238D01*
X110942476Y-122245476D01*
X111037714Y-122293095D01*
X92940095Y-123007381D02*
X92940095Y-122007381D01*
X92702000Y-122007381D01*
X92559142Y-122055000D01*
X92463904Y-122150238D01*
X92416285Y-122245476D01*
X92368666Y-122435952D01*
X92368666Y-122578810D01*
X92416285Y-122769286D01*
X92463904Y-122864524D01*
X92559142Y-122959762D01*
X92702000Y-123007381D01*
X92940095Y-123007381D01*
X91416285Y-123007381D02*
X91987714Y-123007381D01*
X91702000Y-123007381D02*
X91702000Y-122007381D01*
X91797238Y-122150238D01*
X91892476Y-122245476D01*
X91987714Y-122293095D01*
X150090095Y-103957381D02*
X150090095Y-102957381D01*
X149852000Y-102957381D01*
X149709142Y-103005000D01*
X149613904Y-103100238D01*
X149566285Y-103195476D01*
X149518666Y-103385952D01*
X149518666Y-103528810D01*
X149566285Y-103719286D01*
X149613904Y-103814524D01*
X149709142Y-103909762D01*
X149852000Y-103957381D01*
X150090095Y-103957381D01*
X148566285Y-103957381D02*
X149137714Y-103957381D01*
X148852000Y-103957381D02*
X148852000Y-102957381D01*
X148947238Y-103100238D01*
X149042476Y-103195476D01*
X149137714Y-103243095D01*
X131040095Y-103957381D02*
X131040095Y-102957381D01*
X130802000Y-102957381D01*
X130659142Y-103005000D01*
X130563904Y-103100238D01*
X130516285Y-103195476D01*
X130468666Y-103385952D01*
X130468666Y-103528810D01*
X130516285Y-103719286D01*
X130563904Y-103814524D01*
X130659142Y-103909762D01*
X130802000Y-103957381D01*
X131040095Y-103957381D01*
X129516285Y-103957381D02*
X130087714Y-103957381D01*
X129802000Y-103957381D02*
X129802000Y-102957381D01*
X129897238Y-103100238D01*
X129992476Y-103195476D01*
X130087714Y-103243095D01*
X111990095Y-103957381D02*
X111990095Y-102957381D01*
X111752000Y-102957381D01*
X111609142Y-103005000D01*
X111513904Y-103100238D01*
X111466285Y-103195476D01*
X111418666Y-103385952D01*
X111418666Y-103528810D01*
X111466285Y-103719286D01*
X111513904Y-103814524D01*
X111609142Y-103909762D01*
X111752000Y-103957381D01*
X111990095Y-103957381D01*
X110466285Y-103957381D02*
X111037714Y-103957381D01*
X110752000Y-103957381D02*
X110752000Y-102957381D01*
X110847238Y-103100238D01*
X110942476Y-103195476D01*
X111037714Y-103243095D01*
X92940095Y-103957381D02*
X92940095Y-102957381D01*
X92702000Y-102957381D01*
X92559142Y-103005000D01*
X92463904Y-103100238D01*
X92416285Y-103195476D01*
X92368666Y-103385952D01*
X92368666Y-103528810D01*
X92416285Y-103719286D01*
X92463904Y-103814524D01*
X92559142Y-103909762D01*
X92702000Y-103957381D01*
X92940095Y-103957381D01*
X91416285Y-103957381D02*
X91987714Y-103957381D01*
X91702000Y-103957381D02*
X91702000Y-102957381D01*
X91797238Y-103100238D01*
X91892476Y-103195476D01*
X91987714Y-103243095D01*
X150090095Y-84907381D02*
X150090095Y-83907381D01*
X149852000Y-83907381D01*
X149709142Y-83955000D01*
X149613904Y-84050238D01*
X149566285Y-84145476D01*
X149518666Y-84335952D01*
X149518666Y-84478810D01*
X149566285Y-84669286D01*
X149613904Y-84764524D01*
X149709142Y-84859762D01*
X149852000Y-84907381D01*
X150090095Y-84907381D01*
X148566285Y-84907381D02*
X149137714Y-84907381D01*
X148852000Y-84907381D02*
X148852000Y-83907381D01*
X148947238Y-84050238D01*
X149042476Y-84145476D01*
X149137714Y-84193095D01*
X131040095Y-84907381D02*
X131040095Y-83907381D01*
X130802000Y-83907381D01*
X130659142Y-83955000D01*
X130563904Y-84050238D01*
X130516285Y-84145476D01*
X130468666Y-84335952D01*
X130468666Y-84478810D01*
X130516285Y-84669286D01*
X130563904Y-84764524D01*
X130659142Y-84859762D01*
X130802000Y-84907381D01*
X131040095Y-84907381D01*
X129516285Y-84907381D02*
X130087714Y-84907381D01*
X129802000Y-84907381D02*
X129802000Y-83907381D01*
X129897238Y-84050238D01*
X129992476Y-84145476D01*
X130087714Y-84193095D01*
X111990095Y-84907381D02*
X111990095Y-83907381D01*
X111752000Y-83907381D01*
X111609142Y-83955000D01*
X111513904Y-84050238D01*
X111466285Y-84145476D01*
X111418666Y-84335952D01*
X111418666Y-84478810D01*
X111466285Y-84669286D01*
X111513904Y-84764524D01*
X111609142Y-84859762D01*
X111752000Y-84907381D01*
X111990095Y-84907381D01*
X110466285Y-84907381D02*
X111037714Y-84907381D01*
X110752000Y-84907381D02*
X110752000Y-83907381D01*
X110847238Y-84050238D01*
X110942476Y-84145476D01*
X111037714Y-84193095D01*
X92940095Y-84907381D02*
X92940095Y-83907381D01*
X92702000Y-83907381D01*
X92559142Y-83955000D01*
X92463904Y-84050238D01*
X92416285Y-84145476D01*
X92368666Y-84335952D01*
X92368666Y-84478810D01*
X92416285Y-84669286D01*
X92463904Y-84764524D01*
X92559142Y-84859762D01*
X92702000Y-84907381D01*
X92940095Y-84907381D01*
X91416285Y-84907381D02*
X91987714Y-84907381D01*
X91702000Y-84907381D02*
X91702000Y-83907381D01*
X91797238Y-84050238D01*
X91892476Y-84145476D01*
X91987714Y-84193095D01*
X150090095Y-65857381D02*
X150090095Y-64857381D01*
X149852000Y-64857381D01*
X149709142Y-64905000D01*
X149613904Y-65000238D01*
X149566285Y-65095476D01*
X149518666Y-65285952D01*
X149518666Y-65428810D01*
X149566285Y-65619286D01*
X149613904Y-65714524D01*
X149709142Y-65809762D01*
X149852000Y-65857381D01*
X150090095Y-65857381D01*
X148566285Y-65857381D02*
X149137714Y-65857381D01*
X148852000Y-65857381D02*
X148852000Y-64857381D01*
X148947238Y-65000238D01*
X149042476Y-65095476D01*
X149137714Y-65143095D01*
X131040095Y-65857381D02*
X131040095Y-64857381D01*
X130802000Y-64857381D01*
X130659142Y-64905000D01*
X130563904Y-65000238D01*
X130516285Y-65095476D01*
X130468666Y-65285952D01*
X130468666Y-65428810D01*
X130516285Y-65619286D01*
X130563904Y-65714524D01*
X130659142Y-65809762D01*
X130802000Y-65857381D01*
X131040095Y-65857381D01*
X129516285Y-65857381D02*
X130087714Y-65857381D01*
X129802000Y-65857381D02*
X129802000Y-64857381D01*
X129897238Y-65000238D01*
X129992476Y-65095476D01*
X130087714Y-65143095D01*
X111990095Y-65857381D02*
X111990095Y-64857381D01*
X111752000Y-64857381D01*
X111609142Y-64905000D01*
X111513904Y-65000238D01*
X111466285Y-65095476D01*
X111418666Y-65285952D01*
X111418666Y-65428810D01*
X111466285Y-65619286D01*
X111513904Y-65714524D01*
X111609142Y-65809762D01*
X111752000Y-65857381D01*
X111990095Y-65857381D01*
X110466285Y-65857381D02*
X111037714Y-65857381D01*
X110752000Y-65857381D02*
X110752000Y-64857381D01*
X110847238Y-65000238D01*
X110942476Y-65095476D01*
X111037714Y-65143095D01*
X92940095Y-65857381D02*
X92940095Y-64857381D01*
X92702000Y-64857381D01*
X92559142Y-64905000D01*
X92463904Y-65000238D01*
X92416285Y-65095476D01*
X92368666Y-65285952D01*
X92368666Y-65428810D01*
X92416285Y-65619286D01*
X92463904Y-65714524D01*
X92559142Y-65809762D01*
X92702000Y-65857381D01*
X92940095Y-65857381D01*
X91416285Y-65857381D02*
X91987714Y-65857381D01*
X91702000Y-65857381D02*
X91702000Y-64857381D01*
X91797238Y-65000238D01*
X91892476Y-65095476D01*
X91987714Y-65143095D01*
X150090095Y-46807381D02*
X150090095Y-45807381D01*
X149852000Y-45807381D01*
X149709142Y-45855000D01*
X149613904Y-45950238D01*
X149566285Y-46045476D01*
X149518666Y-46235952D01*
X149518666Y-46378810D01*
X149566285Y-46569286D01*
X149613904Y-46664524D01*
X149709142Y-46759762D01*
X149852000Y-46807381D01*
X150090095Y-46807381D01*
X148566285Y-46807381D02*
X149137714Y-46807381D01*
X148852000Y-46807381D02*
X148852000Y-45807381D01*
X148947238Y-45950238D01*
X149042476Y-46045476D01*
X149137714Y-46093095D01*
X131040095Y-46807381D02*
X131040095Y-45807381D01*
X130802000Y-45807381D01*
X130659142Y-45855000D01*
X130563904Y-45950238D01*
X130516285Y-46045476D01*
X130468666Y-46235952D01*
X130468666Y-46378810D01*
X130516285Y-46569286D01*
X130563904Y-46664524D01*
X130659142Y-46759762D01*
X130802000Y-46807381D01*
X131040095Y-46807381D01*
X129516285Y-46807381D02*
X130087714Y-46807381D01*
X129802000Y-46807381D02*
X129802000Y-45807381D01*
X129897238Y-45950238D01*
X129992476Y-46045476D01*
X130087714Y-46093095D01*
X111990095Y-46807381D02*
X111990095Y-45807381D01*
X111752000Y-45807381D01*
X111609142Y-45855000D01*
X111513904Y-45950238D01*
X111466285Y-46045476D01*
X111418666Y-46235952D01*
X111418666Y-46378810D01*
X111466285Y-46569286D01*
X111513904Y-46664524D01*
X111609142Y-46759762D01*
X111752000Y-46807381D01*
X111990095Y-46807381D01*
X110466285Y-46807381D02*
X111037714Y-46807381D01*
X110752000Y-46807381D02*
X110752000Y-45807381D01*
X110847238Y-45950238D01*
X110942476Y-46045476D01*
X111037714Y-46093095D01*
D10*
X173939999Y-89811667D02*
X173939999Y-89111667D01*
X173773333Y-89111667D01*
X173673333Y-89145000D01*
X173606666Y-89211667D01*
X173573333Y-89278333D01*
X173539999Y-89411667D01*
X173539999Y-89511667D01*
X173573333Y-89645000D01*
X173606666Y-89711667D01*
X173673333Y-89778333D01*
X173773333Y-89811667D01*
X173939999Y-89811667D01*
X173273333Y-89611667D02*
X172939999Y-89611667D01*
X173339999Y-89811667D02*
X173106666Y-89111667D01*
X172873333Y-89811667D01*
X172739999Y-89111667D02*
X172339999Y-89111667D01*
X172539999Y-89811667D02*
X172539999Y-89111667D01*
X172140000Y-89611667D02*
X171806666Y-89611667D01*
X172206666Y-89811667D02*
X171973333Y-89111667D01*
X171740000Y-89811667D01*
X170346667Y-89651667D02*
X170013333Y-89651667D01*
X170413333Y-89851667D02*
X170180000Y-89151667D01*
X169946667Y-89851667D01*
X160356667Y-94056667D02*
X160023333Y-94056667D01*
X160423333Y-94256667D02*
X160190000Y-93556667D01*
X159956667Y-94256667D01*
X158529999Y-94296667D02*
X158529999Y-93596667D01*
X158363333Y-93596667D01*
X158263333Y-93630000D01*
X158196666Y-93696667D01*
X158163333Y-93763333D01*
X158129999Y-93896667D01*
X158129999Y-93996667D01*
X158163333Y-94130000D01*
X158196666Y-94196667D01*
X158263333Y-94263333D01*
X158363333Y-94296667D01*
X158529999Y-94296667D01*
X157863333Y-94096667D02*
X157529999Y-94096667D01*
X157929999Y-94296667D02*
X157696666Y-93596667D01*
X157463333Y-94296667D01*
X157329999Y-93596667D02*
X156929999Y-93596667D01*
X157129999Y-94296667D02*
X157129999Y-93596667D01*
X156730000Y-94096667D02*
X156396666Y-94096667D01*
X156796666Y-94296667D02*
X156563333Y-93596667D01*
X156330000Y-94296667D01*
D11*
X92940095Y-46807381D02*
X92940095Y-45807381D01*
X92702000Y-45807381D01*
X92559142Y-45855000D01*
X92463904Y-45950238D01*
X92416285Y-46045476D01*
X92368666Y-46235952D01*
X92368666Y-46378810D01*
X92416285Y-46569286D01*
X92463904Y-46664524D01*
X92559142Y-46759762D01*
X92702000Y-46807381D01*
X92940095Y-46807381D01*
X91416285Y-46807381D02*
X91987714Y-46807381D01*
X91702000Y-46807381D02*
X91702000Y-45807381D01*
X91797238Y-45950238D01*
X91892476Y-46045476D01*
X91987714Y-46093095D01*
M02*
