G04 #@! TF.GenerationSoftware,KiCad,Pcbnew,5.0.0-fee4fd1~66~ubuntu18.04.1*
G04 #@! TF.CreationDate,2018-09-14T03:45:09+09:00*
G04 #@! TF.ProjectId,MxLEDBit,4D784C45444269742E6B696361645F70,1*
G04 #@! TF.SameCoordinates,Original*
G04 #@! TF.FileFunction,Profile,NP*
%FSLAX46Y46*%
G04 Gerber Fmt 4.6, Leading zero omitted, Abs format (unit mm)*
G04 Created by KiCad (PCBNEW 5.0.0-fee4fd1~66~ubuntu18.04.1) date Fri Sep 14 03:45:09 2018*
%MOMM*%
%LPD*%
G01*
G04 APERTURE LIST*
%ADD10C,0.100000*%
G04 APERTURE END LIST*
D10*
X81041666Y-45085000D02*
G75*
G03X81041666Y-45085000I-1666666J0D01*
G01*
X76875000Y-45085000D02*
X81875000Y-45085000D01*
X79375000Y-42585000D02*
X79375000Y-47585000D01*
X155575000Y-86995000D02*
X155575000Y-98425000D01*
X154305000Y-86995000D02*
X155575000Y-86995000D01*
X154305000Y-85725000D02*
X154305000Y-83820000D01*
X155575000Y-85725000D02*
X154305000Y-85725000D01*
X98425000Y-98425000D02*
X98425000Y-100330000D01*
X80010000Y-121285000D02*
X89535000Y-121285000D01*
X89535000Y-120015000D02*
X80010000Y-120015000D01*
X89535000Y-121285000D02*
X89535000Y-120015000D01*
X81915000Y-100965000D02*
X80010000Y-100965000D01*
X80010000Y-102235000D02*
X81915000Y-102235000D01*
X81915000Y-102235000D02*
X81915000Y-100965000D01*
X89535000Y-81915000D02*
X80010000Y-81915000D01*
X80010000Y-83185000D02*
X89535000Y-83185000D01*
X89535000Y-83185000D02*
X89535000Y-81915000D01*
X167005000Y-120015000D02*
X167005000Y-121285000D01*
X155575000Y-105410000D02*
X155575000Y-102870000D01*
X155575000Y-105410000D02*
X154305000Y-105410000D01*
X154305000Y-105410000D02*
X154305000Y-102870000D01*
X156210000Y-120015000D02*
X165735000Y-120015000D01*
X156210000Y-121285000D02*
X165735000Y-121285000D01*
X155575000Y-121920000D02*
G75*
G02X156210000Y-121285000I635000J0D01*
G01*
X153670000Y-121285000D02*
G75*
G02X154305000Y-121920000I0J-635000D01*
G01*
X155575000Y-124460000D02*
X155575000Y-121920000D01*
X154305000Y-121920000D02*
X154305000Y-124460000D01*
X147955000Y-121285000D02*
X153670000Y-121285000D01*
X147955000Y-120015000D02*
X147955000Y-121285000D01*
X153670000Y-120015000D02*
X147955000Y-120015000D01*
X140335000Y-64135000D02*
X153670000Y-64135000D01*
X140335000Y-62865000D02*
X140335000Y-64135000D01*
X153670000Y-62865000D02*
X140335000Y-62865000D01*
X147955000Y-81915000D02*
X147955000Y-83185000D01*
X117475000Y-47625000D02*
X117475000Y-45720000D01*
X116205000Y-47625000D02*
X117475000Y-47625000D01*
X116205000Y-45720000D02*
X116205000Y-47625000D01*
X136525000Y-59055000D02*
X136525000Y-45720000D01*
X135255000Y-59055000D02*
X136525000Y-59055000D01*
X135255000Y-45720000D02*
X135255000Y-59055000D01*
X155575000Y-45720000D02*
X155575000Y-47625000D01*
X154305000Y-45720000D02*
X154305000Y-47625000D01*
X136525000Y-135255000D02*
X135255000Y-135255000D01*
X117475000Y-123825000D02*
X116205000Y-123825000D01*
X98425000Y-135255000D02*
X97155000Y-135255000D01*
X136525000Y-116205000D02*
X135255000Y-116205000D01*
X117475000Y-104775000D02*
X116205000Y-104775000D01*
X98425000Y-116205000D02*
X97155000Y-116205000D01*
X136525000Y-97155000D02*
X135255000Y-97155000D01*
X117475000Y-85725000D02*
X116205000Y-85725000D01*
X98425000Y-97155000D02*
X97155000Y-97155000D01*
X136525000Y-78105000D02*
X135255000Y-78105000D01*
X117475000Y-66675000D02*
X116205000Y-66675000D01*
X136525000Y-135255000D02*
X136525000Y-121920000D01*
X117475000Y-123825000D02*
X117475000Y-121920000D01*
X98425000Y-135255000D02*
X98425000Y-121920000D01*
X136525000Y-116205000D02*
X136525000Y-102870000D01*
X117475000Y-104775000D02*
X117475000Y-102870000D01*
X98425000Y-116205000D02*
X98425000Y-102870000D01*
X136525000Y-97155000D02*
X136525000Y-83820000D01*
X117475000Y-85725000D02*
X117475000Y-83820000D01*
X98425000Y-97155000D02*
X98425000Y-83820000D01*
X136525000Y-78105000D02*
X136525000Y-64770000D01*
X117475000Y-66675000D02*
X117475000Y-64770000D01*
X146685000Y-120015000D02*
X146685000Y-121285000D01*
X127635000Y-120015000D02*
X127635000Y-121285000D01*
X108585000Y-120015000D02*
X108585000Y-121285000D01*
X139065000Y-100965000D02*
X139065000Y-102235000D01*
X120015000Y-100965000D02*
X120015000Y-102235000D01*
X100965000Y-100965000D02*
X100965000Y-102235000D01*
X146685000Y-81915000D02*
X146685000Y-83185000D01*
X127635000Y-81915000D02*
X127635000Y-83185000D01*
X108585000Y-81915000D02*
X108585000Y-83185000D01*
X139065000Y-62865000D02*
X139065000Y-64135000D01*
X120015000Y-62865000D02*
X120015000Y-64135000D01*
X146685000Y-120015000D02*
X137160000Y-120015000D01*
X127635000Y-120015000D02*
X118110000Y-120015000D01*
X108585000Y-120015000D02*
X99060000Y-120015000D01*
X139065000Y-100965000D02*
X137160000Y-100965000D01*
X120015000Y-100965000D02*
X118110000Y-100965000D01*
X100965000Y-100965000D02*
X99060000Y-100965000D01*
X146685000Y-81915000D02*
X137160000Y-81915000D01*
X127635000Y-81915000D02*
X118110000Y-81915000D01*
X108585000Y-81915000D02*
X99060000Y-81915000D01*
X139065000Y-62865000D02*
X137160000Y-62865000D01*
X120015000Y-62865000D02*
X118110000Y-62865000D01*
X135255000Y-135255000D02*
X135255000Y-121920000D01*
X116205000Y-123825000D02*
X116205000Y-121920000D01*
X97155000Y-135255000D02*
X97155000Y-121920000D01*
X135255000Y-116205000D02*
X135255000Y-102870000D01*
X116205000Y-104775000D02*
X116205000Y-102870000D01*
X97155000Y-116205000D02*
X97155000Y-102870000D01*
X135255000Y-97155000D02*
X135255000Y-83820000D01*
X116205000Y-85725000D02*
X116205000Y-83820000D01*
X97155000Y-97155000D02*
X97155000Y-83820000D01*
X135255000Y-78105000D02*
X135255000Y-64770000D01*
X116205000Y-66675000D02*
X116205000Y-64770000D01*
X146685000Y-121285000D02*
X137160000Y-121285000D01*
X127635000Y-121285000D02*
X118110000Y-121285000D01*
X108585000Y-121285000D02*
X99060000Y-121285000D01*
X139065000Y-102235000D02*
X137160000Y-102235000D01*
X120015000Y-102235000D02*
X118110000Y-102235000D01*
X100965000Y-102235000D02*
X99060000Y-102235000D01*
X146685000Y-83185000D02*
X137160000Y-83185000D01*
X127635000Y-83185000D02*
X118110000Y-83185000D01*
X108585000Y-83185000D02*
X99060000Y-83185000D01*
X139065000Y-64135000D02*
X137160000Y-64135000D01*
X120015000Y-64135000D02*
X118110000Y-64135000D01*
X135255000Y-117475000D02*
X136525000Y-117475000D01*
X116205000Y-106045000D02*
X117475000Y-106045000D01*
X97155000Y-117475000D02*
X98425000Y-117475000D01*
X135255000Y-98425000D02*
X136525000Y-98425000D01*
X116205000Y-86995000D02*
X117475000Y-86995000D01*
X97155000Y-98425000D02*
X98425000Y-98425000D01*
X135255000Y-79375000D02*
X136525000Y-79375000D01*
X116205000Y-67945000D02*
X117475000Y-67945000D01*
X97155000Y-79375000D02*
X98425000Y-79375000D01*
X135255000Y-60325000D02*
X136525000Y-60325000D01*
X116205000Y-48895000D02*
X117475000Y-48895000D01*
X136525000Y-117475000D02*
X136525000Y-119380000D01*
X117475000Y-106045000D02*
X117475000Y-119380000D01*
X98425000Y-117475000D02*
X98425000Y-119380000D01*
X136525000Y-98425000D02*
X136525000Y-100330000D01*
X117475000Y-86995000D02*
X117475000Y-100330000D01*
X136525000Y-79375000D02*
X136525000Y-81280000D01*
X117475000Y-67945000D02*
X117475000Y-81280000D01*
X98425000Y-79375000D02*
X98425000Y-81280000D01*
X136525000Y-60325000D02*
X136525000Y-62230000D01*
X117475000Y-48895000D02*
X117475000Y-62230000D01*
X137160000Y-120015000D02*
G75*
G02X136525000Y-119380000I0J635000D01*
G01*
X118110000Y-120015000D02*
G75*
G02X117475000Y-119380000I0J635000D01*
G01*
X99060000Y-120015000D02*
G75*
G02X98425000Y-119380000I0J635000D01*
G01*
X137160000Y-100965000D02*
G75*
G02X136525000Y-100330000I0J635000D01*
G01*
X118110000Y-100965000D02*
G75*
G02X117475000Y-100330000I0J635000D01*
G01*
X99060000Y-100965000D02*
G75*
G02X98425000Y-100330000I0J635000D01*
G01*
X137160000Y-81915000D02*
G75*
G02X136525000Y-81280000I0J635000D01*
G01*
X118110000Y-81915000D02*
G75*
G02X117475000Y-81280000I0J635000D01*
G01*
X99060000Y-81915000D02*
G75*
G02X98425000Y-81280000I0J635000D01*
G01*
X137160000Y-62865000D02*
G75*
G02X136525000Y-62230000I0J635000D01*
G01*
X118110000Y-62865000D02*
G75*
G02X117475000Y-62230000I0J635000D01*
G01*
X135255000Y-119380000D02*
G75*
G02X134620000Y-120015000I-635000J0D01*
G01*
X116205000Y-119380000D02*
G75*
G02X115570000Y-120015000I-635000J0D01*
G01*
X97155000Y-119380000D02*
G75*
G02X96520000Y-120015000I-635000J0D01*
G01*
X135255000Y-100330000D02*
G75*
G02X134620000Y-100965000I-635000J0D01*
G01*
X116205000Y-100330000D02*
G75*
G02X115570000Y-100965000I-635000J0D01*
G01*
X97155000Y-100330000D02*
G75*
G02X96520000Y-100965000I-635000J0D01*
G01*
X135255000Y-81280000D02*
G75*
G02X134620000Y-81915000I-635000J0D01*
G01*
X116205000Y-81280000D02*
G75*
G02X115570000Y-81915000I-635000J0D01*
G01*
X97155000Y-81280000D02*
G75*
G02X96520000Y-81915000I-635000J0D01*
G01*
X135255000Y-62230000D02*
G75*
G02X134620000Y-62865000I-635000J0D01*
G01*
X116205000Y-62230000D02*
G75*
G02X115570000Y-62865000I-635000J0D01*
G01*
X134620000Y-121285000D02*
G75*
G02X135255000Y-121920000I0J-635000D01*
G01*
X115570000Y-121285000D02*
G75*
G02X116205000Y-121920000I0J-635000D01*
G01*
X96520000Y-121285000D02*
G75*
G02X97155000Y-121920000I0J-635000D01*
G01*
X134620000Y-102235000D02*
G75*
G02X135255000Y-102870000I0J-635000D01*
G01*
X115570000Y-102235000D02*
G75*
G02X116205000Y-102870000I0J-635000D01*
G01*
X96520000Y-102235000D02*
G75*
G02X97155000Y-102870000I0J-635000D01*
G01*
X134620000Y-83185000D02*
G75*
G02X135255000Y-83820000I0J-635000D01*
G01*
X115570000Y-83185000D02*
G75*
G02X116205000Y-83820000I0J-635000D01*
G01*
X96520000Y-83185000D02*
G75*
G02X97155000Y-83820000I0J-635000D01*
G01*
X134620000Y-64135000D02*
G75*
G02X135255000Y-64770000I0J-635000D01*
G01*
X115570000Y-64135000D02*
G75*
G02X116205000Y-64770000I0J-635000D01*
G01*
X134620000Y-120015000D02*
X128905000Y-120015000D01*
X115570000Y-120015000D02*
X109855000Y-120015000D01*
X96520000Y-120015000D02*
X90805000Y-120015000D01*
X134620000Y-100965000D02*
X121285000Y-100965000D01*
X115570000Y-100965000D02*
X102235000Y-100965000D01*
X96520000Y-100965000D02*
X83185000Y-100965000D01*
X134620000Y-81915000D02*
X128905000Y-81915000D01*
X115570000Y-81915000D02*
X109855000Y-81915000D01*
X96520000Y-81915000D02*
X90805000Y-81915000D01*
X134620000Y-62865000D02*
X121285000Y-62865000D01*
X115570000Y-62865000D02*
X102235000Y-62865000D01*
X128905000Y-120015000D02*
X128905000Y-121285000D01*
X109855000Y-120015000D02*
X109855000Y-121285000D01*
X90805000Y-120015000D02*
X90805000Y-121285000D01*
X121285000Y-100965000D02*
X121285000Y-102235000D01*
X102235000Y-100965000D02*
X102235000Y-102235000D01*
X83185000Y-100965000D02*
X83185000Y-102235000D01*
X128905000Y-81915000D02*
X128905000Y-83185000D01*
X109855000Y-81915000D02*
X109855000Y-83185000D01*
X90805000Y-81915000D02*
X90805000Y-83185000D01*
X121285000Y-62865000D02*
X121285000Y-64135000D01*
X102235000Y-62865000D02*
X102235000Y-64135000D01*
X128905000Y-121285000D02*
X134620000Y-121285000D01*
X109855000Y-121285000D02*
X115570000Y-121285000D01*
X90805000Y-121285000D02*
X96520000Y-121285000D01*
X121285000Y-102235000D02*
X134620000Y-102235000D01*
X102235000Y-102235000D02*
X115570000Y-102235000D01*
X83185000Y-102235000D02*
X96520000Y-102235000D01*
X128905000Y-83185000D02*
X134620000Y-83185000D01*
X109855000Y-83185000D02*
X115570000Y-83185000D01*
X90805000Y-83185000D02*
X96520000Y-83185000D01*
X121285000Y-64135000D02*
X134620000Y-64135000D01*
X102235000Y-64135000D02*
X115570000Y-64135000D01*
X135255000Y-117475000D02*
X135255000Y-119380000D01*
X116205000Y-106045000D02*
X116205000Y-119380000D01*
X97155000Y-117475000D02*
X97155000Y-119380000D01*
X135255000Y-98425000D02*
X135255000Y-100330000D01*
X116205000Y-86995000D02*
X116205000Y-100330000D01*
X97155000Y-98425000D02*
X97155000Y-100330000D01*
X135255000Y-79375000D02*
X135255000Y-81280000D01*
X116205000Y-67945000D02*
X116205000Y-81280000D01*
X97155000Y-79375000D02*
X97155000Y-81280000D01*
X135255000Y-60325000D02*
X135255000Y-62230000D01*
X116205000Y-48895000D02*
X116205000Y-62230000D01*
X136525000Y-121920000D02*
G75*
G02X137160000Y-121285000I635000J0D01*
G01*
X117475000Y-121920000D02*
G75*
G02X118110000Y-121285000I635000J0D01*
G01*
X98425000Y-121920000D02*
G75*
G02X99060000Y-121285000I635000J0D01*
G01*
X136525000Y-102870000D02*
G75*
G02X137160000Y-102235000I635000J0D01*
G01*
X117475000Y-102870000D02*
G75*
G02X118110000Y-102235000I635000J0D01*
G01*
X98425000Y-102870000D02*
G75*
G02X99060000Y-102235000I635000J0D01*
G01*
X136525000Y-83820000D02*
G75*
G02X137160000Y-83185000I635000J0D01*
G01*
X117475000Y-83820000D02*
G75*
G02X118110000Y-83185000I635000J0D01*
G01*
X98425000Y-83820000D02*
G75*
G02X99060000Y-83185000I635000J0D01*
G01*
X136525000Y-64770000D02*
G75*
G02X137160000Y-64135000I635000J0D01*
G01*
X117475000Y-64770000D02*
G75*
G02X118110000Y-64135000I635000J0D01*
G01*
X98425000Y-78105000D02*
X98425000Y-64770000D01*
X97155000Y-78105000D02*
X97155000Y-64770000D01*
X100965000Y-64135000D02*
X99060000Y-64135000D01*
X100965000Y-62865000D02*
X99060000Y-62865000D01*
X98425000Y-45720000D02*
X98425000Y-59055000D01*
X97155000Y-45720000D02*
X97155000Y-59055000D01*
X147955000Y-83185000D02*
X153670000Y-83185000D01*
X153670000Y-81915000D02*
X147955000Y-81915000D01*
X98425000Y-136525000D02*
X97155000Y-136525000D01*
X97155000Y-136525000D02*
X97155000Y-138430000D01*
X98425000Y-138430000D02*
X98425000Y-136525000D01*
X117475000Y-125095000D02*
X116205000Y-125095000D01*
X117475000Y-138430000D02*
X117475000Y-125095000D01*
X116205000Y-125095000D02*
X116205000Y-138430000D01*
X136525000Y-136525000D02*
X135255000Y-136525000D01*
X136525000Y-138430000D02*
X136525000Y-136525000D01*
X135255000Y-136525000D02*
X135255000Y-138430000D01*
X154305000Y-125730000D02*
X154305000Y-138430000D01*
X155575000Y-124460000D02*
X154305000Y-124460000D01*
X155575000Y-138430000D02*
X155575000Y-125730000D01*
X167005000Y-121285000D02*
X172720000Y-121285000D01*
X172720000Y-120015000D02*
X167005000Y-120015000D01*
X165735000Y-120015000D02*
X165735000Y-121285000D01*
X172720000Y-121285000D02*
G75*
G02X173355000Y-121920000I0J-635000D01*
G01*
X155575000Y-125730000D02*
X154305000Y-125730000D01*
X154305000Y-106680000D02*
X155575000Y-106680000D01*
X155575000Y-106680000D02*
X155575000Y-119380000D01*
X156210000Y-120015000D02*
G75*
G02X155575000Y-119380000I0J635000D01*
G01*
X154305000Y-119380000D02*
G75*
G02X153670000Y-120015000I-635000J0D01*
G01*
X154305000Y-106680000D02*
X154305000Y-119380000D01*
X98425000Y-78105000D02*
X97155000Y-78105000D01*
X100965000Y-62865000D02*
X100965000Y-64135000D01*
X175895000Y-98425000D02*
G75*
G02X175260000Y-99060000I-635000J0D01*
G01*
X155575000Y-102870000D02*
G75*
G02X156210000Y-102235000I635000J0D01*
G01*
X172720000Y-102235000D02*
G75*
G02X173355000Y-102870000I0J-635000D01*
G01*
X173355000Y-119380000D02*
G75*
G02X172720000Y-120015000I-635000J0D01*
G01*
X173355000Y-121920000D02*
X173355000Y-138430000D01*
X154305000Y-47625000D02*
X155575000Y-47625000D01*
X155575000Y-45720000D02*
G75*
G02X156210000Y-45085000I635000J0D01*
G01*
X154305000Y-64770000D02*
X154305000Y-81280000D01*
X154305000Y-48895000D02*
X154305000Y-62230000D01*
X154305000Y-62230000D02*
G75*
G02X153670000Y-62865000I-635000J0D01*
G01*
X153670000Y-64135000D02*
G75*
G02X154305000Y-64770000I0J-635000D01*
G01*
X154305000Y-81280000D02*
G75*
G02X153670000Y-81915000I-635000J0D01*
G01*
X153670000Y-83185000D02*
G75*
G02X154305000Y-83820000I0J-635000D01*
G01*
X154305000Y-86995000D02*
X154305000Y-100330000D01*
X140335000Y-102235000D02*
X153670000Y-102235000D01*
X140335000Y-100965000D02*
X140335000Y-102235000D01*
X154305000Y-100330000D02*
G75*
G02X153670000Y-100965000I-635000J0D01*
G01*
X153670000Y-102235000D02*
G75*
G02X154305000Y-102870000I0J-635000D01*
G01*
X153670000Y-100965000D02*
X140335000Y-100965000D01*
X136525000Y-45720000D02*
G75*
G02X137160000Y-45085000I635000J0D01*
G01*
X137160000Y-45085000D02*
X153670000Y-45085000D01*
X153670000Y-45085000D02*
G75*
G02X154305000Y-45720000I0J-635000D01*
G01*
X117475000Y-45720000D02*
G75*
G02X118110000Y-45085000I635000J0D01*
G01*
X134620000Y-45085000D02*
G75*
G02X135255000Y-45720000I0J-635000D01*
G01*
X118110000Y-45085000D02*
X134620000Y-45085000D01*
X98425000Y-45720000D02*
G75*
G02X99060000Y-45085000I635000J0D01*
G01*
X99060000Y-45085000D02*
X115570000Y-45085000D01*
X115570000Y-45085000D02*
G75*
G02X116205000Y-45720000I0J-635000D01*
G01*
X79375000Y-102870000D02*
G75*
G02X80010000Y-102235000I635000J0D01*
G01*
X98425000Y-64770000D02*
G75*
G02X99060000Y-64135000I635000J0D01*
G01*
X97155000Y-60325000D02*
X97155000Y-62230000D01*
X98425000Y-59055000D02*
X97155000Y-59055000D01*
X99060000Y-139065000D02*
G75*
G02X98425000Y-138430000I0J635000D01*
G01*
X99060000Y-62865000D02*
G75*
G02X98425000Y-62230000I0J635000D01*
G01*
X98425000Y-60325000D02*
X98425000Y-62230000D01*
X97155000Y-60325000D02*
X98425000Y-60325000D01*
X96520000Y-45085000D02*
G75*
G02X97155000Y-45720000I0J-635000D01*
G01*
X96520000Y-64135000D02*
G75*
G02X97155000Y-64770000I0J-635000D01*
G01*
X97155000Y-62230000D02*
G75*
G02X96520000Y-62865000I-635000J0D01*
G01*
X97155000Y-138430000D02*
G75*
G02X96520000Y-139065000I-635000J0D01*
G01*
X80010000Y-45085000D02*
X96520000Y-45085000D01*
X83185000Y-64135000D02*
X96520000Y-64135000D01*
X83185000Y-62865000D02*
X83185000Y-64135000D01*
X96520000Y-62865000D02*
X83185000Y-62865000D01*
X86512400Y-79533750D02*
X86512400Y-75723750D01*
X86512400Y-75723750D02*
X90004900Y-75723750D01*
X86512400Y-79533750D02*
X90004900Y-79533750D01*
X90017600Y-79552800D02*
X90017600Y-75742800D01*
X116205000Y-138430000D02*
G75*
G02X115570000Y-139065000I-635000J0D01*
G01*
X135255000Y-138430000D02*
G75*
G02X134620000Y-139065000I-635000J0D01*
G01*
X154305000Y-138430000D02*
G75*
G02X153670000Y-139065000I-635000J0D01*
G01*
X173355000Y-138430000D02*
G75*
G02X172720000Y-139065000I-635000J0D01*
G01*
X175260000Y-45085000D02*
G75*
G02X175895000Y-45720000I0J-635000D01*
G01*
X156210000Y-139065000D02*
G75*
G02X155575000Y-138430000I0J635000D01*
G01*
X137160000Y-139065000D02*
G75*
G02X136525000Y-138430000I0J635000D01*
G01*
X118110000Y-139065000D02*
G75*
G02X117475000Y-138430000I0J635000D01*
G01*
X80010000Y-139065000D02*
G75*
G02X79375000Y-138430000I0J635000D01*
G01*
X80010000Y-120015000D02*
G75*
G02X79375000Y-119380000I0J635000D01*
G01*
X156210000Y-99060000D02*
G75*
G02X155575000Y-98425000I0J635000D01*
G01*
X80010000Y-100965000D02*
G75*
G02X79375000Y-100330000I0J635000D01*
G01*
X80010000Y-81915000D02*
G75*
G02X79375000Y-81280000I0J635000D01*
G01*
X79375000Y-121920000D02*
G75*
G02X80010000Y-121285000I635000J0D01*
G01*
X79375000Y-83820000D02*
G75*
G02X80010000Y-83185000I635000J0D01*
G01*
X79375000Y-64770000D02*
G75*
G02X80010000Y-64135000I635000J0D01*
G01*
X80010000Y-62865000D02*
G75*
G02X79375000Y-62230000I0J635000D01*
G01*
X79375000Y-45720000D02*
G75*
G02X80010000Y-45085000I635000J0D01*
G01*
X162712400Y-136683750D02*
X162712400Y-132873750D01*
X162712400Y-117633750D02*
X162712400Y-113823750D01*
X166217600Y-136702800D02*
X166217600Y-132892800D01*
X162712400Y-132873750D02*
X166204900Y-132873750D01*
X162712400Y-113823750D02*
X166204900Y-113823750D01*
X162712400Y-136683750D02*
X166204900Y-136683750D01*
X162712400Y-117633750D02*
X166204900Y-117633750D01*
X166217600Y-117652800D02*
X166217600Y-113842800D01*
X143662400Y-136683750D02*
X143662400Y-132873750D01*
X124612400Y-136683750D02*
X124612400Y-132873750D01*
X105562400Y-136683750D02*
X105562400Y-132873750D01*
X86512400Y-136683750D02*
X86512400Y-132873750D01*
X143662400Y-117633750D02*
X143662400Y-113823750D01*
X124612400Y-117633750D02*
X124612400Y-113823750D01*
X105562400Y-117633750D02*
X105562400Y-113823750D01*
X86512400Y-117633750D02*
X86512400Y-113823750D01*
X143662400Y-98583750D02*
X143662400Y-94773750D01*
X124612400Y-98583750D02*
X124612400Y-94773750D01*
X105562400Y-98583750D02*
X105562400Y-94773750D01*
X86512400Y-98583750D02*
X86512400Y-94773750D01*
X143662400Y-79533750D02*
X143662400Y-75723750D01*
X124612400Y-79533750D02*
X124612400Y-75723750D01*
X105562400Y-79533750D02*
X105562400Y-75723750D01*
X143662400Y-60483750D02*
X143662400Y-56673750D01*
X124612400Y-60483750D02*
X124612400Y-56673750D01*
X105562400Y-60483750D02*
X105562400Y-56673750D01*
X143662400Y-132873750D02*
X147154900Y-132873750D01*
X124612400Y-132873750D02*
X128104900Y-132873750D01*
X105562400Y-132873750D02*
X109054900Y-132873750D01*
X86512400Y-132873750D02*
X90004900Y-132873750D01*
X143662400Y-113823750D02*
X147154900Y-113823750D01*
X124612400Y-113823750D02*
X128104900Y-113823750D01*
X105562400Y-113823750D02*
X109054900Y-113823750D01*
X86512400Y-113823750D02*
X90004900Y-113823750D01*
X143662400Y-94773750D02*
X147154900Y-94773750D01*
X124612400Y-94773750D02*
X128104900Y-94773750D01*
X105562400Y-94773750D02*
X109054900Y-94773750D01*
X86512400Y-94773750D02*
X90004900Y-94773750D01*
X143662400Y-75723750D02*
X147154900Y-75723750D01*
X124612400Y-75723750D02*
X128104900Y-75723750D01*
X105562400Y-75723750D02*
X109054900Y-75723750D01*
X143662400Y-56673750D02*
X147154900Y-56673750D01*
X124612400Y-56673750D02*
X128104900Y-56673750D01*
X105562400Y-56673750D02*
X109054900Y-56673750D01*
X143662400Y-136683750D02*
X147154900Y-136683750D01*
X124612400Y-136683750D02*
X128104900Y-136683750D01*
X105562400Y-136683750D02*
X109054900Y-136683750D01*
X86512400Y-136683750D02*
X90004900Y-136683750D01*
X143662400Y-117633750D02*
X147154900Y-117633750D01*
X124612400Y-117633750D02*
X128104900Y-117633750D01*
X105562400Y-117633750D02*
X109054900Y-117633750D01*
X86512400Y-117633750D02*
X90004900Y-117633750D01*
X143662400Y-98583750D02*
X147154900Y-98583750D01*
X124612400Y-98583750D02*
X128104900Y-98583750D01*
X105562400Y-98583750D02*
X109054900Y-98583750D01*
X86512400Y-98583750D02*
X90004900Y-98583750D01*
X143662400Y-79533750D02*
X147154900Y-79533750D01*
X124612400Y-79533750D02*
X128104900Y-79533750D01*
X105562400Y-79533750D02*
X109054900Y-79533750D01*
X143662400Y-60483750D02*
X147154900Y-60483750D01*
X124612400Y-60483750D02*
X128104900Y-60483750D01*
X105562400Y-60483750D02*
X109054900Y-60483750D01*
X147167600Y-136702800D02*
X147167600Y-132892800D01*
X128117600Y-136702800D02*
X128117600Y-132892800D01*
X109067600Y-136702800D02*
X109067600Y-132892800D01*
X90017600Y-136702800D02*
X90017600Y-132892800D01*
X147167600Y-117652800D02*
X147167600Y-113842800D01*
X128117600Y-117652800D02*
X128117600Y-113842800D01*
X109067600Y-117652800D02*
X109067600Y-113842800D01*
X90017600Y-117652800D02*
X90017600Y-113842800D01*
X147167600Y-98602800D02*
X147167600Y-94792800D01*
X128117600Y-98602800D02*
X128117600Y-94792800D01*
X109067600Y-98602800D02*
X109067600Y-94792800D01*
X90017600Y-98602800D02*
X90017600Y-94792800D01*
X147167600Y-79552800D02*
X147167600Y-75742800D01*
X128117600Y-79552800D02*
X128117600Y-75742800D01*
X109067600Y-79552800D02*
X109067600Y-75742800D01*
X147167600Y-60502800D02*
X147167600Y-56692800D01*
X128117600Y-60502800D02*
X128117600Y-56692800D01*
X109067600Y-60502800D02*
X109067600Y-56692800D01*
X79375000Y-62230000D02*
X79375000Y-45720000D01*
X79375000Y-64770000D02*
X79375000Y-81280000D01*
X79375000Y-100330000D02*
X79375000Y-83820000D01*
X79375000Y-119380000D02*
X79375000Y-102870000D01*
X79375000Y-121920000D02*
X79375000Y-138430000D01*
X96520000Y-139065000D02*
X80010000Y-139065000D01*
X115570000Y-139065000D02*
X99060000Y-139065000D01*
X134620000Y-139065000D02*
X118110000Y-139065000D01*
X153670000Y-139065000D02*
X137160000Y-139065000D01*
X172720000Y-139065000D02*
X156210000Y-139065000D01*
X154305000Y-48895000D02*
X155575000Y-48895000D01*
X173355000Y-102870000D02*
X173355000Y-119380000D01*
X81915000Y-64135000D02*
X81915000Y-62865000D01*
X80010000Y-64135000D02*
X81915000Y-64135000D01*
X81915000Y-62865000D02*
X80010000Y-62865000D01*
X172720000Y-102235000D02*
X156210000Y-102235000D01*
X156210000Y-99060000D02*
X175260000Y-99060000D01*
X155575000Y-48895000D02*
X155575000Y-85725000D01*
X175895000Y-45720000D02*
X175895000Y-98425000D01*
X156210000Y-45085000D02*
X175260000Y-45085000D01*
X90017600Y-60502800D02*
X90017600Y-56692800D01*
X86512400Y-60483750D02*
X90004900Y-60483750D01*
X86512400Y-56673750D02*
X90004900Y-56673750D01*
X86512400Y-60483750D02*
X86512400Y-56673750D01*
M02*
