G04 #@! TF.FileFunction,Soldermask,Bot*
%FSLAX46Y46*%
G04 Gerber Fmt 4.6, Leading zero omitted, Abs format (unit mm)*
G04 Created by KiCad (PCBNEW 4.0.7-e2-6376~61~ubuntu18.04.1) date Mon Jul 30 20:02:34 2018*
%MOMM*%
%LPD*%
G01*
G04 APERTURE LIST*
%ADD10C,0.150000*%
%ADD11C,1.400000*%
%ADD12R,1.400000X1.400000*%
%ADD13O,1.800000X1.600000*%
%ADD14O,1.600000X1.800000*%
%ADD15R,1.600000X1.000000*%
%ADD16C,1.710000*%
%ADD17C,2.500000*%
%ADD18C,4.000000*%
%ADD19C,1.397000*%
%ADD20O,2.500000X1.700000*%
%ADD21C,1.524000*%
%ADD22C,2.200000*%
%ADD23C,2.000000*%
G04 APERTURE END LIST*
D10*
D11*
X171450000Y-122555000D03*
D12*
X165100000Y-122555000D03*
D11*
X171450000Y-103505000D03*
D12*
X165100000Y-103505000D03*
D13*
X161925000Y-122355000D03*
X156845000Y-118945000D03*
D14*
X156645000Y-122555000D03*
D13*
X161925000Y-118945000D03*
D14*
X156645000Y-132715000D03*
D13*
X156845000Y-137995000D03*
X156845000Y-127435000D03*
X172085000Y-118945000D03*
D15*
X167005000Y-116522500D03*
X167005000Y-114772500D03*
X162205000Y-114772500D03*
X162205000Y-116522500D03*
D14*
X172285000Y-113665000D03*
D13*
X167005000Y-118945000D03*
D14*
X156645000Y-113665000D03*
X156645000Y-103505000D03*
X172285000Y-108585000D03*
D13*
X161925000Y-103305000D03*
D16*
X169545000Y-111125000D03*
D17*
X167005000Y-106045000D03*
D18*
X164465000Y-111125000D03*
D17*
X160655000Y-108585000D03*
D16*
X159385000Y-111125000D03*
D13*
X156845000Y-108385000D03*
X161925000Y-137995000D03*
X172085000Y-137995000D03*
D15*
X167005000Y-135572500D03*
X167005000Y-133822500D03*
X162205000Y-133822500D03*
X162205000Y-135572500D03*
D14*
X172285000Y-127635000D03*
X172285000Y-132715000D03*
D16*
X169545000Y-130175000D03*
D17*
X167005000Y-125095000D03*
D18*
X164465000Y-130175000D03*
D17*
X160655000Y-127635000D03*
D16*
X159385000Y-130175000D03*
D13*
X167005000Y-137995000D03*
D11*
X152400000Y-122555000D03*
D12*
X146050000Y-122555000D03*
D11*
X133350000Y-122555000D03*
D12*
X127000000Y-122555000D03*
D11*
X114300000Y-122555000D03*
D12*
X107950000Y-122555000D03*
D11*
X95250000Y-122555000D03*
D12*
X88900000Y-122555000D03*
D11*
X152400000Y-103505000D03*
D12*
X146050000Y-103505000D03*
D11*
X133350000Y-103505000D03*
D12*
X127000000Y-103505000D03*
D11*
X114300000Y-103505000D03*
D12*
X107950000Y-103505000D03*
D11*
X95250000Y-103505000D03*
D12*
X88900000Y-103505000D03*
D11*
X152400000Y-84455000D03*
D12*
X146050000Y-84455000D03*
D11*
X133350000Y-84455000D03*
D12*
X127000000Y-84455000D03*
D11*
X114300000Y-84455000D03*
D12*
X107950000Y-84455000D03*
D11*
X95250000Y-84455000D03*
D12*
X88900000Y-84455000D03*
D11*
X152400000Y-65405000D03*
D12*
X146050000Y-65405000D03*
D11*
X133350000Y-65405000D03*
D12*
X127000000Y-65405000D03*
D11*
X114300000Y-65405000D03*
D12*
X107950000Y-65405000D03*
D11*
X95250000Y-65405000D03*
D12*
X88900000Y-65405000D03*
D11*
X152400000Y-46355000D03*
D12*
X146050000Y-46355000D03*
D11*
X133350000Y-46355000D03*
D12*
X127000000Y-46355000D03*
D11*
X114300000Y-46355000D03*
D12*
X107950000Y-46355000D03*
D14*
X137595000Y-132715000D03*
X118545000Y-132715000D03*
X99495000Y-132715000D03*
X80445000Y-132715000D03*
X137595000Y-113665000D03*
X118545000Y-113665000D03*
X99495000Y-113665000D03*
X80445000Y-113665000D03*
X137595000Y-94615000D03*
X118545000Y-94615000D03*
X99495000Y-94615000D03*
X80445000Y-94615000D03*
X137595000Y-75565000D03*
X118545000Y-75565000D03*
X99495000Y-75565000D03*
X80445000Y-75565000D03*
X137595000Y-56515000D03*
X118545000Y-56515000D03*
X99495000Y-56515000D03*
D13*
X137795000Y-137995000D03*
X118745000Y-137995000D03*
X99695000Y-137995000D03*
X80645000Y-137995000D03*
X137795000Y-118945000D03*
X118745000Y-118945000D03*
X99695000Y-118945000D03*
X80645000Y-118945000D03*
X137795000Y-99895000D03*
X118745000Y-99895000D03*
X99695000Y-99895000D03*
X80645000Y-99895000D03*
X137795000Y-80845000D03*
X118745000Y-80845000D03*
X99695000Y-80845000D03*
X80645000Y-80845000D03*
X137795000Y-61795000D03*
X118745000Y-61795000D03*
X99695000Y-61795000D03*
X137795000Y-127435000D03*
X118745000Y-127435000D03*
X99695000Y-127435000D03*
X80645000Y-127435000D03*
X137795000Y-108385000D03*
X118745000Y-108385000D03*
X99695000Y-108385000D03*
X80645000Y-108385000D03*
X137795000Y-89335000D03*
X118745000Y-89335000D03*
X99695000Y-89335000D03*
X80645000Y-89335000D03*
X137795000Y-70285000D03*
X118745000Y-70285000D03*
X99695000Y-70285000D03*
X80645000Y-70285000D03*
X137795000Y-51235000D03*
X118745000Y-51235000D03*
X99695000Y-51235000D03*
X142875000Y-122355000D03*
X123825000Y-122355000D03*
X104775000Y-122355000D03*
X85725000Y-122355000D03*
X142875000Y-103305000D03*
X123825000Y-103305000D03*
X104775000Y-103305000D03*
X85725000Y-103305000D03*
X142875000Y-84255000D03*
X123825000Y-84255000D03*
X104775000Y-84255000D03*
X85725000Y-84255000D03*
X142875000Y-65205000D03*
X123825000Y-65205000D03*
X104775000Y-65205000D03*
X85725000Y-65205000D03*
X142875000Y-46155000D03*
X123825000Y-46155000D03*
X104775000Y-46155000D03*
D14*
X137595000Y-122555000D03*
X118545000Y-122555000D03*
X99495000Y-122555000D03*
X80445000Y-122555000D03*
X137595000Y-103505000D03*
X118545000Y-103505000D03*
X99495000Y-103505000D03*
X80445000Y-103505000D03*
X137595000Y-84455000D03*
X118545000Y-84455000D03*
X99495000Y-84455000D03*
X80445000Y-84455000D03*
X137595000Y-65405000D03*
X118545000Y-65405000D03*
X99495000Y-65405000D03*
X80445000Y-65405000D03*
X137595000Y-46355000D03*
X118545000Y-46355000D03*
X99495000Y-46355000D03*
D13*
X142875000Y-137995000D03*
X123825000Y-137995000D03*
X104775000Y-137995000D03*
X85725000Y-137995000D03*
X142875000Y-118945000D03*
X123825000Y-118945000D03*
X104775000Y-118945000D03*
X85725000Y-118945000D03*
X142875000Y-99895000D03*
X123825000Y-99895000D03*
X104775000Y-99895000D03*
X85725000Y-99895000D03*
X142875000Y-80845000D03*
X123825000Y-80845000D03*
X104775000Y-80845000D03*
X85725000Y-80845000D03*
X142875000Y-61795000D03*
X123825000Y-61795000D03*
X104775000Y-61795000D03*
D14*
X153235000Y-127635000D03*
X134185000Y-127635000D03*
X115135000Y-127635000D03*
X96085000Y-127635000D03*
X153235000Y-108585000D03*
X134185000Y-108585000D03*
X115135000Y-108585000D03*
X96085000Y-108585000D03*
X153235000Y-89535000D03*
X134185000Y-89535000D03*
X115135000Y-89535000D03*
X96085000Y-89535000D03*
X153235000Y-70485000D03*
X134185000Y-70485000D03*
X115135000Y-70485000D03*
X96085000Y-70485000D03*
X153235000Y-51435000D03*
X134185000Y-51435000D03*
X115135000Y-51435000D03*
D15*
X147955000Y-135572500D03*
X147955000Y-133822500D03*
X143155000Y-133822500D03*
X143155000Y-135572500D03*
X128905000Y-135572500D03*
X128905000Y-133822500D03*
X124105000Y-133822500D03*
X124105000Y-135572500D03*
X109855000Y-135572500D03*
X109855000Y-133822500D03*
X105055000Y-133822500D03*
X105055000Y-135572500D03*
X90805000Y-135572500D03*
X90805000Y-133822500D03*
X86005000Y-133822500D03*
X86005000Y-135572500D03*
X147955000Y-116522500D03*
X147955000Y-114772500D03*
X143155000Y-114772500D03*
X143155000Y-116522500D03*
X128905000Y-116522500D03*
X128905000Y-114772500D03*
X124105000Y-114772500D03*
X124105000Y-116522500D03*
X109855000Y-116522500D03*
X109855000Y-114772500D03*
X105055000Y-114772500D03*
X105055000Y-116522500D03*
X90805000Y-116522500D03*
X90805000Y-114772500D03*
X86005000Y-114772500D03*
X86005000Y-116522500D03*
X147955000Y-97472500D03*
X147955000Y-95722500D03*
X143155000Y-95722500D03*
X143155000Y-97472500D03*
X128905000Y-97472500D03*
X128905000Y-95722500D03*
X124105000Y-95722500D03*
X124105000Y-97472500D03*
X109855000Y-97472500D03*
X109855000Y-95722500D03*
X105055000Y-95722500D03*
X105055000Y-97472500D03*
X90805000Y-97472500D03*
X90805000Y-95722500D03*
X86005000Y-95722500D03*
X86005000Y-97472500D03*
X147955000Y-78422500D03*
X147955000Y-76672500D03*
X143155000Y-76672500D03*
X143155000Y-78422500D03*
X128905000Y-78422500D03*
X128905000Y-76672500D03*
X124105000Y-76672500D03*
X124105000Y-78422500D03*
X109855000Y-78422500D03*
X109855000Y-76672500D03*
X105055000Y-76672500D03*
X105055000Y-78422500D03*
X90805000Y-78422500D03*
X90805000Y-76672500D03*
X86005000Y-76672500D03*
X86005000Y-78422500D03*
X147955000Y-59372500D03*
X147955000Y-57622500D03*
X143155000Y-57622500D03*
X143155000Y-59372500D03*
X128905000Y-59372500D03*
X128905000Y-57622500D03*
X124105000Y-57622500D03*
X124105000Y-59372500D03*
X109855000Y-59372500D03*
X109855000Y-57622500D03*
X105055000Y-57622500D03*
X105055000Y-59372500D03*
D14*
X153235000Y-132715000D03*
X134185000Y-132715000D03*
X115135000Y-132715000D03*
X96085000Y-132715000D03*
X153235000Y-113665000D03*
X134185000Y-113665000D03*
X115135000Y-113665000D03*
X96085000Y-113665000D03*
X153235000Y-94615000D03*
X134185000Y-94615000D03*
X115135000Y-94615000D03*
X96085000Y-94615000D03*
X153235000Y-75565000D03*
X134185000Y-75565000D03*
X115135000Y-75565000D03*
X96085000Y-75565000D03*
X153235000Y-56515000D03*
X134185000Y-56515000D03*
X115135000Y-56515000D03*
D13*
X147955000Y-137995000D03*
X128905000Y-137995000D03*
X109855000Y-137995000D03*
X90805000Y-137995000D03*
X147955000Y-118945000D03*
X128905000Y-118945000D03*
X109855000Y-118945000D03*
X90805000Y-118945000D03*
X147955000Y-99895000D03*
X128905000Y-99895000D03*
X109855000Y-99895000D03*
X90805000Y-99895000D03*
X147955000Y-80845000D03*
X128905000Y-80845000D03*
X109855000Y-80845000D03*
X90805000Y-80845000D03*
X147955000Y-61795000D03*
X128905000Y-61795000D03*
X109855000Y-61795000D03*
D16*
X150495000Y-130175000D03*
D17*
X147955000Y-125095000D03*
D18*
X145415000Y-130175000D03*
D17*
X141605000Y-127635000D03*
D16*
X140335000Y-130175000D03*
X131445000Y-130175000D03*
D17*
X128905000Y-125095000D03*
D18*
X126365000Y-130175000D03*
D17*
X122555000Y-127635000D03*
D16*
X121285000Y-130175000D03*
X112395000Y-130175000D03*
D17*
X109855000Y-125095000D03*
D18*
X107315000Y-130175000D03*
D17*
X103505000Y-127635000D03*
D16*
X102235000Y-130175000D03*
X93345000Y-130175000D03*
D17*
X90805000Y-125095000D03*
D18*
X88265000Y-130175000D03*
D17*
X84455000Y-127635000D03*
D16*
X83185000Y-130175000D03*
X150495000Y-111125000D03*
D17*
X147955000Y-106045000D03*
D18*
X145415000Y-111125000D03*
D17*
X141605000Y-108585000D03*
D16*
X140335000Y-111125000D03*
X131445000Y-111125000D03*
D17*
X128905000Y-106045000D03*
D18*
X126365000Y-111125000D03*
D17*
X122555000Y-108585000D03*
D16*
X121285000Y-111125000D03*
X112395000Y-111125000D03*
D17*
X109855000Y-106045000D03*
D18*
X107315000Y-111125000D03*
D17*
X103505000Y-108585000D03*
D16*
X102235000Y-111125000D03*
X93345000Y-111125000D03*
D17*
X90805000Y-106045000D03*
D18*
X88265000Y-111125000D03*
D17*
X84455000Y-108585000D03*
D16*
X83185000Y-111125000D03*
X150495000Y-92075000D03*
D17*
X147955000Y-86995000D03*
D18*
X145415000Y-92075000D03*
D17*
X141605000Y-89535000D03*
D16*
X140335000Y-92075000D03*
X131445000Y-92075000D03*
D17*
X128905000Y-86995000D03*
D18*
X126365000Y-92075000D03*
D17*
X122555000Y-89535000D03*
D16*
X121285000Y-92075000D03*
X112395000Y-92075000D03*
D17*
X109855000Y-86995000D03*
D18*
X107315000Y-92075000D03*
D17*
X103505000Y-89535000D03*
D16*
X102235000Y-92075000D03*
X93345000Y-92075000D03*
D17*
X90805000Y-86995000D03*
D18*
X88265000Y-92075000D03*
D17*
X84455000Y-89535000D03*
D16*
X83185000Y-92075000D03*
X150495000Y-73025000D03*
D17*
X147955000Y-67945000D03*
D18*
X145415000Y-73025000D03*
D17*
X141605000Y-70485000D03*
D16*
X140335000Y-73025000D03*
X131445000Y-73025000D03*
D17*
X128905000Y-67945000D03*
D18*
X126365000Y-73025000D03*
D17*
X122555000Y-70485000D03*
D16*
X121285000Y-73025000D03*
X112395000Y-73025000D03*
D17*
X109855000Y-67945000D03*
D18*
X107315000Y-73025000D03*
D17*
X103505000Y-70485000D03*
D16*
X102235000Y-73025000D03*
X93345000Y-73025000D03*
D17*
X90805000Y-67945000D03*
D18*
X88265000Y-73025000D03*
D17*
X84455000Y-70485000D03*
D16*
X83185000Y-73025000D03*
X150495000Y-53975000D03*
D17*
X147955000Y-48895000D03*
D18*
X145415000Y-53975000D03*
D17*
X141605000Y-51435000D03*
D16*
X140335000Y-53975000D03*
X131445000Y-53975000D03*
D17*
X128905000Y-48895000D03*
D18*
X126365000Y-53975000D03*
D17*
X122555000Y-51435000D03*
D16*
X121285000Y-53975000D03*
X112395000Y-53975000D03*
D17*
X109855000Y-48895000D03*
D18*
X107315000Y-53975000D03*
D17*
X103505000Y-51435000D03*
D16*
X102235000Y-53975000D03*
D13*
X153035000Y-137995000D03*
X133985000Y-137995000D03*
X114935000Y-137995000D03*
X95885000Y-137995000D03*
X153035000Y-118945000D03*
X133985000Y-118945000D03*
X114935000Y-118945000D03*
X95885000Y-118945000D03*
X153035000Y-99895000D03*
X133985000Y-99895000D03*
X114935000Y-99895000D03*
X95885000Y-99895000D03*
X153035000Y-80845000D03*
X133985000Y-80845000D03*
X114935000Y-80845000D03*
X95885000Y-80845000D03*
X153035000Y-61795000D03*
X133985000Y-61795000D03*
X114935000Y-61795000D03*
D19*
X173355000Y-85090000D03*
X170815000Y-85090000D03*
X170815000Y-82550000D03*
X173355000Y-82550000D03*
X158115000Y-85090000D03*
X160655000Y-85090000D03*
D20*
X158925000Y-87395000D03*
X161925000Y-87395000D03*
X165925000Y-87395000D03*
X167425000Y-91595000D03*
D19*
X158115000Y-82550000D03*
X160655000Y-82550000D03*
X161925000Y-80010000D03*
X164465000Y-80010000D03*
X167005000Y-80010000D03*
X169545000Y-80010000D03*
X170180000Y-66675000D03*
X167640000Y-64135000D03*
X167640000Y-66675000D03*
X170180000Y-69215000D03*
X167640000Y-69215000D03*
X170180000Y-64135000D03*
X170180000Y-71755000D03*
X167640000Y-71755000D03*
X170180000Y-74295000D03*
X167640000Y-74295000D03*
X170180000Y-76835000D03*
X167640000Y-76835000D03*
X161290000Y-74295000D03*
X163830000Y-76835000D03*
X163830000Y-74295000D03*
X163830000Y-71755000D03*
X161290000Y-71755000D03*
X161290000Y-76835000D03*
X161290000Y-69215000D03*
X163830000Y-69215000D03*
X161290000Y-66675000D03*
X163830000Y-66675000D03*
X161290000Y-64135000D03*
X163830000Y-64135000D03*
X161290000Y-61595000D03*
D21*
X173355000Y-48895000D03*
X173355000Y-51435000D03*
X173355000Y-53975000D03*
X173355000Y-56515000D03*
X173355000Y-59055000D03*
X173355000Y-61595000D03*
X173355000Y-64135000D03*
X173355000Y-66675000D03*
X173355000Y-69215000D03*
X173355000Y-71755000D03*
X173355000Y-74295000D03*
X173355000Y-76835000D03*
X158115000Y-76835000D03*
X158115000Y-74295000D03*
X158115000Y-71755000D03*
X158115000Y-69215000D03*
X158115000Y-66675000D03*
X158115000Y-64135000D03*
X158115000Y-61595000D03*
X158115000Y-59055000D03*
X158115000Y-56515000D03*
X158115000Y-53975000D03*
X158115000Y-51435000D03*
X158115000Y-48895000D03*
D19*
X173355000Y-88265000D03*
X170815000Y-88265000D03*
X160655000Y-92710000D03*
X157480000Y-92710000D03*
X167640000Y-59055000D03*
X167640000Y-61595000D03*
X167640000Y-48895000D03*
X167640000Y-53975000D03*
X167640000Y-56515000D03*
X167640000Y-51435000D03*
X163830000Y-59055000D03*
X163830000Y-61595000D03*
X163830000Y-48895000D03*
X163830000Y-53975000D03*
X163830000Y-56515000D03*
X163830000Y-51435000D03*
X170180000Y-61595000D03*
X170180000Y-48895000D03*
X170180000Y-59055000D03*
X170180000Y-53975000D03*
X170180000Y-51435000D03*
X170180000Y-56515000D03*
X161290000Y-59055000D03*
X161290000Y-56515000D03*
X161290000Y-53975000D03*
X161290000Y-51435000D03*
D20*
X172545000Y-93345000D03*
X169545000Y-93345000D03*
X165545000Y-93345000D03*
X164045000Y-89145000D03*
D19*
X161290000Y-48895000D03*
D22*
X172720000Y-80010000D03*
X158750000Y-80010000D03*
X173355000Y-96520000D03*
D23*
X169060000Y-83820000D03*
X162560000Y-83820000D03*
D22*
X157480000Y-96520000D03*
D16*
X93345000Y-53975000D03*
D17*
X90805000Y-48895000D03*
D18*
X88265000Y-53975000D03*
D17*
X84455000Y-51435000D03*
D16*
X83185000Y-53975000D03*
D11*
X95250000Y-46355000D03*
D12*
X88900000Y-46355000D03*
D15*
X90805000Y-59372500D03*
X90805000Y-57622500D03*
X86005000Y-57622500D03*
X86005000Y-59372500D03*
D13*
X85725000Y-46155000D03*
X80645000Y-51235000D03*
X85725000Y-61795000D03*
X80645000Y-61795000D03*
X95885000Y-61795000D03*
X90805000Y-61795000D03*
D14*
X96085000Y-56515000D03*
X96085000Y-51435000D03*
X80445000Y-46355000D03*
X80445000Y-56515000D03*
M02*
