G04 #@! TF.FileFunction,Profile,NP*
%FSLAX46Y46*%
G04 Gerber Fmt 4.6, Leading zero omitted, Abs format (unit mm)*
G04 Created by KiCad (PCBNEW 4.0.7-e2-6376~61~ubuntu18.04.1) date Mon Jul 30 20:02:34 2018*
%MOMM*%
%LPD*%
G01*
G04 APERTURE LIST*
%ADD10C,0.150000*%
%ADD11C,0.100000*%
G04 APERTURE END LIST*
D10*
D11*
X96520000Y-120015000D02*
X96520000Y-121285000D01*
X155575000Y-100965000D02*
X174625000Y-100965000D01*
X155575000Y-99695000D02*
X155575000Y-100965000D01*
X175260000Y-99695000D02*
X155575000Y-99695000D01*
X79375000Y-62865000D02*
X79375000Y-45085000D01*
X79375000Y-64135000D02*
X79375000Y-81915000D01*
X79375000Y-100965000D02*
X79375000Y-83185000D01*
X79375000Y-120015000D02*
X79375000Y-102235000D01*
X79375000Y-121285000D02*
X79375000Y-139065000D01*
X97155000Y-139065000D02*
X79375000Y-139065000D01*
X116205000Y-139065000D02*
X98425000Y-139065000D01*
X135255000Y-139065000D02*
X117475000Y-139065000D01*
X136525000Y-139065000D02*
X136525000Y-121920000D01*
X154305000Y-139065000D02*
X136525000Y-139065000D01*
X173355000Y-139065000D02*
X155575000Y-139065000D01*
X175895000Y-139065000D02*
X174625000Y-139065000D01*
X155575000Y-139065000D02*
X155575000Y-121920000D01*
X136525000Y-121920000D02*
X135255000Y-121920000D01*
X117475000Y-121920000D02*
X116205000Y-121920000D01*
X116205000Y-121920000D02*
X116205000Y-139065000D01*
X135255000Y-121920000D02*
X135255000Y-139065000D01*
X98425000Y-121920000D02*
X97155000Y-121920000D01*
X97155000Y-121920000D02*
X97155000Y-139065000D01*
X154305000Y-45720000D02*
X155575000Y-45720000D01*
X174625000Y-139065000D02*
X174625000Y-100965000D01*
X173355000Y-102235000D02*
X173355000Y-139065000D01*
X155575000Y-121920000D02*
X154305000Y-121920000D01*
X154305000Y-121920000D02*
X154305000Y-139065000D01*
X117475000Y-139065000D02*
X117475000Y-121920000D01*
X98425000Y-139065000D02*
X98425000Y-121920000D01*
X96520000Y-120015000D02*
X79375000Y-120015000D01*
X79375000Y-121285000D02*
X96520000Y-121285000D01*
X97155000Y-121285000D02*
X97155000Y-102870000D01*
X115570000Y-121285000D02*
X97155000Y-121285000D01*
X115570000Y-120015000D02*
X115570000Y-121285000D01*
X98425000Y-120015000D02*
X115570000Y-120015000D01*
X98425000Y-102870000D02*
X98425000Y-120015000D01*
X97155000Y-102870000D02*
X98425000Y-102870000D01*
X96520000Y-102235000D02*
X96520000Y-100965000D01*
X79375000Y-102235000D02*
X96520000Y-102235000D01*
X96520000Y-100965000D02*
X79375000Y-100965000D01*
X98425000Y-100965000D02*
X115570000Y-100965000D01*
X98425000Y-83820000D02*
X98425000Y-100965000D01*
X97155000Y-83820000D02*
X98425000Y-83820000D01*
X97155000Y-102235000D02*
X97155000Y-83820000D01*
X115570000Y-102235000D02*
X97155000Y-102235000D01*
X115570000Y-100965000D02*
X115570000Y-102235000D01*
X116205000Y-121285000D02*
X116205000Y-102870000D01*
X134620000Y-121285000D02*
X116205000Y-121285000D01*
X134620000Y-120015000D02*
X134620000Y-121285000D01*
X117475000Y-120015000D02*
X134620000Y-120015000D01*
X117475000Y-102870000D02*
X117475000Y-120015000D01*
X116205000Y-102870000D02*
X117475000Y-102870000D01*
X172720000Y-121285000D02*
X154305000Y-121285000D01*
X172720000Y-120015000D02*
X172720000Y-121285000D01*
X135255000Y-121285000D02*
X135255000Y-102870000D01*
X153670000Y-121285000D02*
X135255000Y-121285000D01*
X153670000Y-120015000D02*
X153670000Y-121285000D01*
X136525000Y-120015000D02*
X153670000Y-120015000D01*
X136525000Y-102870000D02*
X136525000Y-120015000D01*
X135255000Y-102870000D02*
X136525000Y-102870000D01*
X154305000Y-121285000D02*
X154305000Y-102870000D01*
X155575000Y-120015000D02*
X172720000Y-120015000D01*
X155575000Y-102870000D02*
X155575000Y-120015000D01*
X154305000Y-102870000D02*
X155575000Y-102870000D01*
X116205000Y-102235000D02*
X116205000Y-83820000D01*
X134620000Y-102235000D02*
X116205000Y-102235000D01*
X134620000Y-100965000D02*
X134620000Y-102235000D01*
X117475000Y-100965000D02*
X134620000Y-100965000D01*
X117475000Y-83820000D02*
X117475000Y-100965000D01*
X116205000Y-83820000D02*
X117475000Y-83820000D01*
X135255000Y-102235000D02*
X135255000Y-83820000D01*
X153670000Y-102235000D02*
X135255000Y-102235000D01*
X153670000Y-100965000D02*
X153670000Y-102235000D01*
X136525000Y-100965000D02*
X153670000Y-100965000D01*
X136525000Y-83820000D02*
X136525000Y-100965000D01*
X135255000Y-83820000D02*
X136525000Y-83820000D01*
X96520000Y-83185000D02*
X79375000Y-83185000D01*
X96520000Y-81915000D02*
X96520000Y-83185000D01*
X79375000Y-81915000D02*
X96520000Y-81915000D01*
X97155000Y-83185000D02*
X97155000Y-64770000D01*
X115570000Y-83185000D02*
X97155000Y-83185000D01*
X115570000Y-81915000D02*
X115570000Y-83185000D01*
X98425000Y-81915000D02*
X115570000Y-81915000D01*
X98425000Y-64770000D02*
X98425000Y-81915000D01*
X97155000Y-64770000D02*
X98425000Y-64770000D01*
X116205000Y-83185000D02*
X116205000Y-64770000D01*
X134620000Y-83185000D02*
X116205000Y-83185000D01*
X134620000Y-81915000D02*
X134620000Y-83185000D01*
X117475000Y-81915000D02*
X134620000Y-81915000D01*
X117475000Y-64770000D02*
X117475000Y-81915000D01*
X116205000Y-64770000D02*
X117475000Y-64770000D01*
X135255000Y-83185000D02*
X135255000Y-64770000D01*
X153670000Y-83185000D02*
X135255000Y-83185000D01*
X153670000Y-81915000D02*
X153670000Y-83185000D01*
X136525000Y-81915000D02*
X153670000Y-81915000D01*
X136525000Y-64770000D02*
X136525000Y-81915000D01*
X135255000Y-64770000D02*
X136525000Y-64770000D01*
X96520000Y-64135000D02*
X96520000Y-62865000D01*
X79375000Y-64135000D02*
X96520000Y-64135000D01*
X96520000Y-62865000D02*
X79375000Y-62865000D01*
X97155000Y-64135000D02*
X97155000Y-45720000D01*
X115570000Y-64135000D02*
X97155000Y-64135000D01*
X115570000Y-62865000D02*
X115570000Y-64135000D01*
X98425000Y-62865000D02*
X115570000Y-62865000D01*
X98425000Y-45720000D02*
X98425000Y-62865000D01*
X97155000Y-45720000D02*
X98425000Y-45720000D01*
X116205000Y-64135000D02*
X116205000Y-45720000D01*
X134620000Y-64135000D02*
X116205000Y-64135000D01*
X134620000Y-62865000D02*
X134620000Y-64135000D01*
X117475000Y-62865000D02*
X134620000Y-62865000D01*
X117475000Y-45720000D02*
X117475000Y-62865000D01*
X116205000Y-45720000D02*
X117475000Y-45720000D01*
X154305000Y-102235000D02*
X154305000Y-45720000D01*
X173355000Y-102235000D02*
X154305000Y-102235000D01*
X175260000Y-99695000D02*
X175260000Y-98425000D01*
X155575000Y-98425000D02*
X175260000Y-98425000D01*
X155575000Y-45720000D02*
X155575000Y-98425000D01*
X135255000Y-64135000D02*
X135255000Y-45720000D01*
X153670000Y-64135000D02*
X135255000Y-64135000D01*
X153670000Y-62865000D02*
X153670000Y-64135000D01*
X136525000Y-62865000D02*
X153670000Y-62865000D01*
X136525000Y-45720000D02*
X136525000Y-62865000D01*
X135255000Y-45720000D02*
X136525000Y-45720000D01*
X175895000Y-45085000D02*
X175895000Y-139065000D01*
X79375000Y-45085000D02*
X175895000Y-45085000D01*
X166370000Y-136683750D02*
X166370000Y-132873750D01*
X147320000Y-136683750D02*
X147320000Y-132873750D01*
X128270000Y-136683750D02*
X128270000Y-132873750D01*
X109220000Y-136683750D02*
X109220000Y-132873750D01*
X90170000Y-136683750D02*
X90170000Y-132873750D01*
X166370000Y-117633750D02*
X166370000Y-113823750D01*
X147320000Y-117633750D02*
X147320000Y-113823750D01*
X128270000Y-117633750D02*
X128270000Y-113823750D01*
X109220000Y-117633750D02*
X109220000Y-113823750D01*
X90170000Y-117633750D02*
X90170000Y-113823750D01*
X147320000Y-98583750D02*
X147320000Y-94773750D01*
X128270000Y-98583750D02*
X128270000Y-94773750D01*
X109220000Y-98583750D02*
X109220000Y-94773750D01*
X90170000Y-98583750D02*
X90170000Y-94773750D01*
X147320000Y-79533750D02*
X147320000Y-75723750D01*
X128270000Y-79533750D02*
X128270000Y-75723750D01*
X109220000Y-79533750D02*
X109220000Y-75723750D01*
X90170000Y-79533750D02*
X90170000Y-75723750D01*
X147320000Y-60483750D02*
X147320000Y-56673750D01*
X128270000Y-60483750D02*
X128270000Y-56673750D01*
X109220000Y-60483750D02*
X109220000Y-56673750D01*
X162877500Y-132873750D02*
X166370000Y-132873750D01*
X143827500Y-132873750D02*
X147320000Y-132873750D01*
X124777500Y-132873750D02*
X128270000Y-132873750D01*
X105727500Y-132873750D02*
X109220000Y-132873750D01*
X86677500Y-132873750D02*
X90170000Y-132873750D01*
X162877500Y-113823750D02*
X166370000Y-113823750D01*
X143827500Y-113823750D02*
X147320000Y-113823750D01*
X124777500Y-113823750D02*
X128270000Y-113823750D01*
X105727500Y-113823750D02*
X109220000Y-113823750D01*
X86677500Y-113823750D02*
X90170000Y-113823750D01*
X143827500Y-94773750D02*
X147320000Y-94773750D01*
X124777500Y-94773750D02*
X128270000Y-94773750D01*
X105727500Y-94773750D02*
X109220000Y-94773750D01*
X86677500Y-94773750D02*
X90170000Y-94773750D01*
X143827500Y-75723750D02*
X147320000Y-75723750D01*
X124777500Y-75723750D02*
X128270000Y-75723750D01*
X105727500Y-75723750D02*
X109220000Y-75723750D01*
X86677500Y-75723750D02*
X90170000Y-75723750D01*
X143827500Y-56673750D02*
X147320000Y-56673750D01*
X124777500Y-56673750D02*
X128270000Y-56673750D01*
X105727500Y-56673750D02*
X109220000Y-56673750D01*
X162877500Y-136683750D02*
X166370000Y-136683750D01*
X143827500Y-136683750D02*
X147320000Y-136683750D01*
X124777500Y-136683750D02*
X128270000Y-136683750D01*
X105727500Y-136683750D02*
X109220000Y-136683750D01*
X86677500Y-136683750D02*
X90170000Y-136683750D01*
X162877500Y-117633750D02*
X166370000Y-117633750D01*
X143827500Y-117633750D02*
X147320000Y-117633750D01*
X124777500Y-117633750D02*
X128270000Y-117633750D01*
X105727500Y-117633750D02*
X109220000Y-117633750D01*
X86677500Y-117633750D02*
X90170000Y-117633750D01*
X143827500Y-98583750D02*
X147320000Y-98583750D01*
X124777500Y-98583750D02*
X128270000Y-98583750D01*
X105727500Y-98583750D02*
X109220000Y-98583750D01*
X86677500Y-98583750D02*
X90170000Y-98583750D01*
X143827500Y-79533750D02*
X147320000Y-79533750D01*
X124777500Y-79533750D02*
X128270000Y-79533750D01*
X105727500Y-79533750D02*
X109220000Y-79533750D01*
X86677500Y-79533750D02*
X90170000Y-79533750D01*
X143827500Y-60483750D02*
X147320000Y-60483750D01*
X124777500Y-60483750D02*
X128270000Y-60483750D01*
X105727500Y-60483750D02*
X109220000Y-60483750D01*
X162877500Y-136683750D02*
X162877500Y-132873750D01*
X143827500Y-136683750D02*
X143827500Y-132873750D01*
X124777500Y-136683750D02*
X124777500Y-132873750D01*
X105727500Y-136683750D02*
X105727500Y-132873750D01*
X86677500Y-136683750D02*
X86677500Y-132873750D01*
X162877500Y-117633750D02*
X162877500Y-113823750D01*
X143827500Y-117633750D02*
X143827500Y-113823750D01*
X124777500Y-117633750D02*
X124777500Y-113823750D01*
X105727500Y-117633750D02*
X105727500Y-113823750D01*
X86677500Y-117633750D02*
X86677500Y-113823750D01*
X143827500Y-98583750D02*
X143827500Y-94773750D01*
X124777500Y-98583750D02*
X124777500Y-94773750D01*
X105727500Y-98583750D02*
X105727500Y-94773750D01*
X86677500Y-98583750D02*
X86677500Y-94773750D01*
X143827500Y-79533750D02*
X143827500Y-75723750D01*
X124777500Y-79533750D02*
X124777500Y-75723750D01*
X105727500Y-79533750D02*
X105727500Y-75723750D01*
X86677500Y-79533750D02*
X86677500Y-75723750D01*
X143827500Y-60483750D02*
X143827500Y-56673750D01*
X124777500Y-60483750D02*
X124777500Y-56673750D01*
X105727500Y-60483750D02*
X105727500Y-56673750D01*
X90170000Y-60483750D02*
X90170000Y-56673750D01*
X86677500Y-60483750D02*
X90170000Y-60483750D01*
X86677500Y-56673750D02*
X90170000Y-56673750D01*
X86677500Y-60483750D02*
X86677500Y-56673750D01*
M02*
