M48
;DRILL file {KiCad 4.0.7-e2-6376~61~ubuntu18.04.1} date Mon Jul 30 20:03:52 2018
;FORMAT={3:3/ absolute / metric / suppress leading zeros}
FMAT,2
METRIC,TZ
T1C0.800
T2C0.813
T3C1.000
T4C1.300
T5C1.500
T6C1.710
T7C2.200
T8C4.000
%
G90
G05
M71
T1
X80645Y-46355
X80645Y-51435
X80645Y-56515
X80645Y-61595
X80645Y-65405
X80645Y-70485
X80645Y-75565
X80645Y-80645
X80645Y-84455
X80645Y-89535
X80645Y-94615
X80645Y-99695
X80645Y-103505
X80645Y-108585
X80645Y-113665
X80645Y-118745
X80645Y-122555
X80645Y-127635
X80645Y-132715
X80645Y-137795
X85725Y-46355
X85725Y-61595
X85725Y-65405
X85725Y-80645
X85725Y-84455
X85725Y-99695
X85725Y-103505
X85725Y-118745
X85725Y-122555
X85725Y-137795
X88900Y-46355
X88900Y-65405
X88900Y-84455
X88900Y-103505
X88900Y-122555
X90805Y-61595
X90805Y-80645
X90805Y-99695
X90805Y-118745
X90805Y-137795
X95250Y-46355
X95250Y-65405
X95250Y-84455
X95250Y-103505
X95250Y-122555
X95885Y-51435
X95885Y-56515
X95885Y-61595
X95885Y-70485
X95885Y-75565
X95885Y-80645
X95885Y-89535
X95885Y-94615
X95885Y-99695
X95885Y-108585
X95885Y-113665
X95885Y-118745
X95885Y-127635
X95885Y-132715
X95885Y-137795
X99695Y-46355
X99695Y-51435
X99695Y-56515
X99695Y-61595
X99695Y-65405
X99695Y-70485
X99695Y-75565
X99695Y-80645
X99695Y-84455
X99695Y-89535
X99695Y-94615
X99695Y-99695
X99695Y-103505
X99695Y-108585
X99695Y-113665
X99695Y-118745
X99695Y-122555
X99695Y-127635
X99695Y-132715
X99695Y-137795
X104775Y-46355
X104775Y-61595
X104775Y-65405
X104775Y-80645
X104775Y-84455
X104775Y-99695
X104775Y-103505
X104775Y-118745
X104775Y-122555
X104775Y-137795
X107950Y-46355
X107950Y-65405
X107950Y-84455
X107950Y-103505
X107950Y-122555
X109855Y-61595
X109855Y-80645
X109855Y-99695
X109855Y-118745
X109855Y-137795
X114300Y-46355
X114300Y-65405
X114300Y-84455
X114300Y-103505
X114300Y-122555
X114935Y-51435
X114935Y-56515
X114935Y-61595
X114935Y-70485
X114935Y-75565
X114935Y-80645
X114935Y-89535
X114935Y-94615
X114935Y-99695
X114935Y-108585
X114935Y-113665
X114935Y-118745
X114935Y-127635
X114935Y-132715
X114935Y-137795
X118745Y-46355
X118745Y-51435
X118745Y-56515
X118745Y-61595
X118745Y-65405
X118745Y-70485
X118745Y-75565
X118745Y-80645
X118745Y-84455
X118745Y-89535
X118745Y-94615
X118745Y-99695
X118745Y-103505
X118745Y-108585
X118745Y-113665
X118745Y-118745
X118745Y-122555
X118745Y-127635
X118745Y-132715
X118745Y-137795
X123825Y-46355
X123825Y-61595
X123825Y-65405
X123825Y-80645
X123825Y-84455
X123825Y-99695
X123825Y-103505
X123825Y-118745
X123825Y-122555
X123825Y-137795
X127000Y-46355
X127000Y-65405
X127000Y-84455
X127000Y-103505
X127000Y-122555
X128905Y-61595
X128905Y-80645
X128905Y-99695
X128905Y-118745
X128905Y-137795
X133350Y-46355
X133350Y-65405
X133350Y-84455
X133350Y-103505
X133350Y-122555
X133985Y-51435
X133985Y-56515
X133985Y-61595
X133985Y-70485
X133985Y-75565
X133985Y-80645
X133985Y-89535
X133985Y-94615
X133985Y-99695
X133985Y-108585
X133985Y-113665
X133985Y-118745
X133985Y-127635
X133985Y-132715
X133985Y-137795
X137795Y-46355
X137795Y-51435
X137795Y-56515
X137795Y-61595
X137795Y-65405
X137795Y-70485
X137795Y-75565
X137795Y-80645
X137795Y-84455
X137795Y-89535
X137795Y-94615
X137795Y-99695
X137795Y-103505
X137795Y-108585
X137795Y-113665
X137795Y-118745
X137795Y-122555
X137795Y-127635
X137795Y-132715
X137795Y-137795
X142875Y-46355
X142875Y-61595
X142875Y-65405
X142875Y-80645
X142875Y-84455
X142875Y-99695
X142875Y-103505
X142875Y-118745
X142875Y-122555
X142875Y-137795
X146050Y-46355
X146050Y-65405
X146050Y-84455
X146050Y-103505
X146050Y-122555
X147955Y-61595
X147955Y-80645
X147955Y-99695
X147955Y-118745
X147955Y-137795
X152400Y-46355
X152400Y-65405
X152400Y-84455
X152400Y-103505
X152400Y-122555
X153035Y-51435
X153035Y-56515
X153035Y-61595
X153035Y-70485
X153035Y-75565
X153035Y-80645
X153035Y-89535
X153035Y-94615
X153035Y-99695
X153035Y-108585
X153035Y-113665
X153035Y-118745
X153035Y-127635
X153035Y-132715
X153035Y-137795
X156845Y-103505
X156845Y-108585
X156845Y-113665
X156845Y-118745
X156845Y-122555
X156845Y-127635
X156845Y-132715
X156845Y-137795
X161925Y-103505
X161925Y-118745
X161925Y-122555
X161925Y-137795
X165100Y-103505
X165100Y-122555
X167005Y-118745
X167005Y-137795
X171450Y-103505
X171450Y-122555
X172085Y-108585
X172085Y-113665
X172085Y-118745
X172085Y-127635
X172085Y-132715
X172085Y-137795
T2
X157480Y-92710
X158115Y-48895
X158115Y-51435
X158115Y-53975
X158115Y-56515
X158115Y-59055
X158115Y-61595
X158115Y-64135
X158115Y-66675
X158115Y-69215
X158115Y-71755
X158115Y-74295
X158115Y-76835
X158115Y-82550
X158115Y-85090
X160655Y-82550
X160655Y-85090
X160655Y-92710
X161290Y-48895
X161290Y-51435
X161290Y-53975
X161290Y-56515
X161290Y-59055
X161290Y-61595
X161290Y-64135
X161290Y-66675
X161290Y-69215
X161290Y-71755
X161290Y-74295
X161290Y-76835
X161925Y-80010
X163830Y-48895
X163830Y-51435
X163830Y-53975
X163830Y-56515
X163830Y-59055
X163830Y-61595
X163830Y-64135
X163830Y-66675
X163830Y-69215
X163830Y-71755
X163830Y-74295
X163830Y-76835
X164465Y-80010
X167005Y-80010
X167640Y-48895
X167640Y-51435
X167640Y-53975
X167640Y-56515
X167640Y-59055
X167640Y-61595
X167640Y-64135
X167640Y-66675
X167640Y-69215
X167640Y-71755
X167640Y-74295
X167640Y-76835
X169545Y-80010
X170180Y-48895
X170180Y-51435
X170180Y-53975
X170180Y-56515
X170180Y-59055
X170180Y-61595
X170180Y-64135
X170180Y-66675
X170180Y-69215
X170180Y-71755
X170180Y-74295
X170180Y-76835
X170815Y-82550
X170815Y-85090
X170815Y-88265
X173355Y-48895
X173355Y-51435
X173355Y-53975
X173355Y-56515
X173355Y-59055
X173355Y-61595
X173355Y-64135
X173355Y-66675
X173355Y-69215
X173355Y-71755
X173355Y-74295
X173355Y-76835
X173355Y-82550
X173355Y-85090
X173355Y-88265
T4
X162560Y-83820
X169060Y-83820
T5
X84455Y-51435
X84455Y-70485
X84455Y-89535
X84455Y-108585
X84455Y-127635
X90805Y-48895
X90805Y-67945
X90805Y-86995
X90805Y-106045
X90805Y-125095
X103505Y-51435
X103505Y-70485
X103505Y-89535
X103505Y-108585
X103505Y-127635
X109855Y-48895
X109855Y-67945
X109855Y-86995
X109855Y-106045
X109855Y-125095
X122555Y-51435
X122555Y-70485
X122555Y-89535
X122555Y-108585
X122555Y-127635
X128905Y-48895
X128905Y-67945
X128905Y-86995
X128905Y-106045
X128905Y-125095
X141605Y-51435
X141605Y-70485
X141605Y-89535
X141605Y-108585
X141605Y-127635
X147955Y-48895
X147955Y-67945
X147955Y-86995
X147955Y-106045
X147955Y-125095
X160655Y-108585
X160655Y-127635
X167005Y-106045
X167005Y-125095
T6
X83185Y-53975
X83185Y-73025
X83185Y-92075
X83185Y-111125
X83185Y-130175
X93345Y-53975
X93345Y-73025
X93345Y-92075
X93345Y-111125
X93345Y-130175
X102235Y-53975
X102235Y-73025
X102235Y-92075
X102235Y-111125
X102235Y-130175
X112395Y-53975
X112395Y-73025
X112395Y-92075
X112395Y-111125
X112395Y-130175
X121285Y-53975
X121285Y-73025
X121285Y-92075
X121285Y-111125
X121285Y-130175
X131445Y-53975
X131445Y-73025
X131445Y-92075
X131445Y-111125
X131445Y-130175
X140335Y-53975
X140335Y-73025
X140335Y-92075
X140335Y-111125
X140335Y-130175
X150495Y-53975
X150495Y-73025
X150495Y-92075
X150495Y-111125
X150495Y-130175
X159385Y-111125
X159385Y-130175
X169545Y-111125
X169545Y-130175
T7
X157480Y-96520
X158750Y-80010
X172720Y-80010
X173355Y-96520
T8
X88265Y-53975
X88265Y-73025
X88265Y-92075
X88265Y-111125
X88265Y-130175
X107315Y-53975
X107315Y-73025
X107315Y-92075
X107315Y-111125
X107315Y-130175
X126365Y-53975
X126365Y-73025
X126365Y-92075
X126365Y-111125
X126365Y-130175
X145415Y-53975
X145415Y-73025
X145415Y-92075
X145415Y-111125
X145415Y-130175
X164465Y-111125
X164465Y-130175
T3
X158675Y-87395G85X159175Y-87395
G05
X161675Y-87395G85X162175Y-87395
G05
X164295Y-89145G85X163795Y-89145
G05
X165795Y-93345G85X165295Y-93345
G05
X165675Y-87395G85X166175Y-87395
G05
X167175Y-91595G85X167675Y-91595
G05
X169795Y-93345G85X169295Y-93345
G05
X172795Y-93345G85X172295Y-93345
G05
T0
M30
