M48
;DRILL file {KiCad 5.0.2-bee76a0~70~ubuntu18.04.1} date 2019年02月14日 02時51分14秒
;FORMAT={3:3/ absolute / metric / suppress trailing zeros}
FMAT,2
METRIC,LZ
T1C0.400
T2C0.800
T3C1.500
T4C1.710
T5C4.000
%
G90
G05
T1
X066929Y-037846
X066929Y-056896
X066929Y-075946
X066929Y-094996
X066929Y-114046
X068707Y-039497
X068707Y-058547
X068707Y-077597
X068707Y-096647
X068707Y-115697
X070132Y-030127
X070132Y-049177
X070132Y-068227
X070132Y-087277
X070132Y-106327
X072022Y-028971
X072022Y-028971
X072022Y-048021
X072022Y-067071
X072022Y-086121
X072022Y-105171
X073152Y-038862
X073152Y-043307
X073152Y-057912
X073152Y-062357
X073152Y-076962
X073152Y-081407
X073152Y-096012
X073152Y-100457
X073152Y-115062
X073152Y-119507
X076327Y-040767
X076327Y-059817
X076327Y-078867
X076327Y-097917
X076327Y-116967
X077707Y-033782
X077707Y-052832
X077707Y-071882
X077707Y-090932
X077707Y-109982
X078232Y-030127
X078232Y-049177
X078232Y-049177
X078232Y-068227
X078232Y-068227
X078232Y-087277
X078232Y-087277
X078232Y-106327
X078232Y-106327
X078867Y-031242
X078867Y-050292
X078867Y-069342
X078867Y-088392
X078867Y-107442
X079883Y-03302
X079883Y-05207
X079883Y-07112
X079883Y-09017
X079883Y-10922
X080772Y-030607
X080772Y-049657
X080772Y-068707
X080772Y-087757
X080772Y-106807
X081661Y-029972
X081661Y-033782
X081661Y-037846
X081661Y-049022
X081661Y-052832
X081661Y-056896
X081661Y-068072
X081661Y-071882
X081661Y-075946
X081661Y-087122
X081661Y-090932
X081661Y-094996
X081661Y-106172
X081661Y-109982
X081661Y-114046
X085979Y-037846
X085979Y-056896
X085979Y-075946
X085979Y-094996
X085979Y-114046
X087757Y-039497
X087757Y-058547
X087757Y-077597
X087757Y-096647
X087757Y-115697
X089182Y-030127
X089182Y-049177
X089182Y-068227
X089182Y-087277
X089182Y-106327
X091072Y-028971
X091072Y-048021
X091072Y-067071
X091072Y-086121
X091072Y-105171
X092202Y-038862
X092202Y-043307
X092202Y-057912
X092202Y-062357
X092202Y-076962
X092202Y-081407
X092202Y-096012
X092202Y-100457
X092202Y-115062
X092202Y-119507
X095377Y-040767
X095377Y-059817
X095377Y-078867
X095377Y-097917
X095377Y-116967
X096757Y-033782
X096757Y-052832
X096757Y-071882
X096757Y-090932
X096757Y-109982
X097282Y-030127
X097282Y-030127
X097282Y-049177
X097282Y-049177
X097282Y-068227
X097282Y-068227
X097282Y-087277
X097282Y-087277
X097282Y-106327
X097282Y-106327
X097917Y-031242
X097917Y-050292
X097917Y-069342
X097917Y-088392
X097917Y-107442
X098933Y-03302
X098933Y-05207
X098933Y-07112
X098933Y-09017
X098933Y-10922
X099822Y-030607
X099822Y-049657
X099822Y-068707
X099822Y-087757
X099822Y-106807
X100711Y-029972
X100711Y-033782
X100711Y-037846
X100711Y-049022
X100711Y-052832
X100711Y-056896
X100711Y-068072
X100711Y-071882
X100711Y-075946
X100711Y-087122
X100711Y-090932
X100711Y-094996
X100711Y-106172
X100711Y-109982
X100711Y-114046
X105029Y-037846
X105029Y-056896
X105029Y-075946
X105029Y-094996
X105029Y-114046
X106807Y-039497
X106807Y-058547
X106807Y-077597
X106807Y-096647
X106807Y-115697
X108232Y-030127
X108232Y-049177
X108232Y-068227
X108232Y-087277
X108232Y-106327
X110122Y-028971
X110122Y-048021
X110122Y-067071
X110122Y-086121
X110122Y-105171
X111252Y-038862
X111252Y-043307
X111252Y-057912
X111252Y-062357
X111252Y-076962
X111252Y-081407
X111252Y-096012
X111252Y-100457
X111252Y-115062
X111252Y-119507
X114427Y-040767
X114427Y-059817
X114427Y-078867
X114427Y-097917
X114427Y-116967
X115807Y-033782
X115807Y-052832
X115807Y-071882
X115807Y-090932
X115807Y-109982
X116332Y-030127
X116332Y-030127
X116332Y-049177
X116332Y-049177
X116332Y-068227
X116332Y-068227
X116332Y-087277
X116332Y-087277
X116332Y-106327
X116332Y-106327
X116967Y-031242
X116967Y-050292
X116967Y-069342
X116967Y-088392
X116967Y-107442
X117983Y-03302
X117983Y-05207
X117983Y-07112
X117983Y-09017
X117983Y-10922
X118872Y-030607
X118872Y-049657
X118872Y-068707
X118872Y-087757
X118872Y-106807
X119761Y-029972
X119761Y-033782
X119761Y-037846
X119761Y-049022
X119761Y-052832
X119761Y-056896
X119761Y-068072
X119761Y-071882
X119761Y-075946
X119761Y-087122
X119761Y-090932
X119761Y-094996
X119761Y-106172
X119761Y-109982
X119761Y-114046
X124079Y-037846
X124079Y-056896
X124079Y-075946
X124079Y-094996
X124079Y-114046
X125857Y-039497
X125857Y-058547
X125857Y-077597
X125857Y-096647
X125857Y-115697
X127282Y-030127
X127282Y-049177
X127282Y-068227
X127282Y-087277
X127282Y-106327
X129172Y-028971
X129172Y-048021
X129172Y-067071
X129172Y-086121
X129172Y-105171
X130302Y-038862
X130302Y-043307
X130302Y-057912
X130302Y-062357
X130302Y-076962
X130302Y-081407
X130302Y-096012
X130302Y-100457
X130302Y-115062
X130302Y-119507
X133477Y-040767
X133477Y-059817
X133477Y-078867
X133477Y-097917
X133477Y-116967
X134857Y-033782
X134857Y-052832
X134857Y-071882
X134857Y-090932
X134857Y-109982
X135382Y-030127
X135382Y-030127
X135382Y-049177
X135382Y-049177
X135382Y-068227
X135382Y-068227
X135382Y-087277
X135382Y-087277
X135382Y-106327
X135382Y-106327
X136017Y-031242
X136017Y-050292
X136017Y-069342
X136017Y-088392
X136017Y-107442
X137033Y-03302
X137033Y-05207
X137033Y-07112
X137033Y-09017
X137033Y-10922
X137922Y-030607
X137922Y-049657
X137922Y-068707
X137922Y-087757
X137922Y-106807
X138811Y-029972
X138811Y-033782
X138811Y-037846
X138811Y-049022
X138811Y-052832
X138811Y-056896
X138811Y-068072
X138811Y-071882
X138811Y-075946
X138811Y-087122
X138811Y-090932
X138811Y-094996
X138811Y-106172
X138811Y-109982
X138811Y-114046
X143129Y-037846
X143129Y-056896
X143129Y-075946
X143129Y-094996
X143129Y-114046
X144907Y-039497
X144907Y-058547
X144907Y-077597
X144907Y-096647
X144907Y-115697
X146332Y-030127
X146332Y-049177
X146332Y-068227
X146332Y-087277
X146332Y-106327
X148222Y-028971
X148222Y-048021
X148222Y-067071
X148222Y-086121
X148222Y-105171
X149352Y-038862
X149352Y-043307
X149352Y-057912
X149352Y-062357
X149352Y-076962
X149352Y-081407
X149352Y-096012
X149352Y-100457
X149352Y-115062
X149352Y-119507
X152527Y-040767
X152527Y-059817
X152527Y-078867
X152527Y-097917
X152527Y-116967
X153907Y-033782
X153907Y-052832
X153907Y-071882
X153907Y-090932
X153907Y-109982
X154432Y-030127
X154432Y-030127
X154432Y-049177
X154432Y-049177
X154432Y-068227
X154432Y-068227
X154432Y-087277
X154432Y-087277
X154432Y-106327
X154432Y-106327
X155067Y-031242
X155067Y-050292
X155067Y-069342
X155067Y-088392
X155067Y-107442
X156083Y-03302
X156083Y-05207
X156083Y-07112
X156083Y-09017
X156083Y-10922
X156972Y-030607
X156972Y-049657
X156972Y-068707
X156972Y-087757
X156972Y-106807
X157861Y-029972
X157861Y-033782
X157861Y-037846
X157861Y-049022
X157861Y-052832
X157861Y-056896
X157861Y-068072
X157861Y-071882
X157861Y-075946
X157861Y-087122
X157861Y-090932
X157861Y-094996
X157861Y-106172
X157861Y-109982
X157861Y-114046
T2
X104902Y-077597
X120142Y-031877
X078867Y-081407
X085852Y-077597
X158242Y-111887
X101092Y-031877
X082042Y-073787
X101092Y-073787
X066802Y-028067
X082042Y-066167
X082042Y-069977
X158242Y-115697
X069342Y-062357
X075692Y-062357
X066802Y-066167
X104902Y-073787
X139192Y-077597
X158242Y-050927
X139192Y-043307
X066802Y-073787
X107442Y-062357
X113792Y-062357
X104902Y-035687
X104902Y-062357
X143002Y-058547
X120142Y-119507
X104902Y-043307
X158242Y-089027
X104902Y-047117
X116967Y-119507
X066802Y-092837
X155067Y-043307
X104902Y-028067
X139192Y-089027
X120142Y-054737
X116967Y-104267
X155067Y-028067
X120142Y-035687
X082042Y-047117
X120142Y-089027
X123952Y-047117
X120142Y-111887
X139192Y-104267
X107442Y-043307
X113792Y-043307
X126492Y-081407
X132842Y-081407
X107442Y-100457
X113792Y-100457
X158242Y-028067
X116967Y-028067
X101092Y-089027
X158242Y-047117
X101092Y-111887
X136017Y-100457
X143002Y-035687
X120142Y-043307
X139192Y-039497
X158242Y-062357
X143002Y-089027
X143002Y-043307
X143002Y-054737
X139192Y-092837
X123952Y-089027
X143002Y-028067
X097917Y-081407
X155067Y-062357
X143002Y-108077
X143002Y-111887
X120142Y-115697
X104902Y-089027
X158242Y-035687
X101092Y-066167
X123952Y-108077
X123952Y-111887
X101092Y-115697
X101092Y-104267
X082042Y-111887
X104902Y-108077
X097917Y-104267
X085852Y-089027
X139192Y-058547
X123952Y-115697
X126492Y-043307
X132842Y-043307
X139192Y-081407
X158242Y-108077
X066802Y-089027
X120142Y-058547
X104902Y-115697
X123952Y-081407
X139192Y-108077
X143002Y-069977
X120142Y-077597
X101092Y-058547
X085852Y-050927
X101092Y-077597
X085852Y-069977
X139192Y-050927
X069342Y-081407
X075692Y-081407
X145542Y-081407
X151892Y-081407
X126492Y-100457
X132842Y-100457
X107442Y-119507
X113792Y-119507
X143002Y-050927
X155067Y-100457
X120142Y-073787
X155067Y-047117
X104902Y-054737
X085852Y-108077
X123952Y-050927
X143002Y-119507
X143002Y-047117
X116967Y-062357
X066802Y-108077
X104902Y-050927
X123952Y-039497
X143002Y-104267
X143002Y-062357
X104902Y-039497
X139192Y-085217
X139192Y-115697
X116967Y-043307
X097917Y-028067
X066802Y-031877
X120142Y-039497
X085852Y-073787
X143002Y-100457
X066802Y-111887
X120142Y-028067
X085852Y-028067
X082042Y-039497
X101092Y-039497
X104902Y-111887
X143002Y-085217
X101092Y-062357
X085852Y-043307
X120142Y-108077
X082042Y-031877
X085852Y-111887
X101092Y-069977
X158242Y-085217
X139192Y-111887
X145542Y-043307
X151892Y-043307
X158242Y-043307
X097917Y-062357
X101092Y-043307
X082042Y-035687
X085852Y-081407
X123952Y-069977
X085852Y-092837
X158242Y-073787
X136017Y-028067
X085852Y-054737
X101092Y-028067
X066802Y-081407
X136017Y-062357
X143002Y-073787
X139192Y-073787
X082042Y-119507
X139192Y-028067
X085852Y-062357
X078867Y-066167
X078867Y-119507
X123952Y-035687
X085852Y-047117
X088392Y-081407
X094742Y-081407
X069342Y-100457
X075692Y-100457
X145542Y-100457
X151892Y-100457
X123952Y-043307
X101092Y-054737
X123952Y-066167
X123952Y-031877
X078867Y-085217
X123952Y-028067
X097917Y-047117
X136017Y-066167
X123952Y-058547
X104902Y-031877
X082042Y-085217
X101092Y-047117
X139192Y-066167
X104902Y-092837
X066802Y-096647
X120142Y-050927
X104902Y-058547
X085852Y-031877
X082042Y-092837
X120142Y-081407
X143002Y-077597
X101092Y-050927
X085852Y-058547
X123952Y-096647
X078867Y-100457
X097917Y-119507
X066802Y-047117
X104902Y-081407
X082042Y-050927
X066802Y-058547
X082042Y-089027
X104902Y-096647
X066802Y-085217
X101092Y-119507
X066802Y-062357
X120142Y-047117
X158242Y-104267
X085852Y-096647
X066802Y-100457
X085852Y-104267
X158242Y-054737
X120142Y-062357
X155067Y-104267
X101092Y-085217
X085852Y-119507
X088392Y-062357
X094742Y-062357
X158242Y-100457
X116967Y-047117
X082042Y-077597
X085852Y-085217
X155067Y-085217
X136017Y-047117
X104902Y-069977
X097917Y-085217
X143002Y-115697
X066802Y-119507
X101092Y-108077
X155067Y-066167
X123952Y-062357
X085852Y-039497
X066802Y-077597
X120142Y-092837
X085852Y-100457
X066802Y-104267
X066802Y-035687
X143002Y-066167
X139192Y-054737
X136017Y-119507
X101092Y-092837
X082042Y-058547
X097917Y-100457
X126492Y-062357
X132842Y-062357
X107442Y-081407
X113792Y-081407
X088392Y-100457
X094742Y-100457
X069342Y-119507
X075692Y-119507
X101092Y-035687
X078867Y-028067
X158242Y-066167
X139192Y-047117
X158242Y-119507
X123952Y-104267
X143002Y-092837
X123952Y-073787
X158242Y-039497
X101092Y-100457
X139192Y-031877
X097917Y-043307
X082042Y-028067
X158242Y-081407
X082042Y-081407
X139192Y-062357
X104902Y-104267
X158242Y-069977
X116967Y-100457
X078867Y-104267
X126492Y-119507
X132842Y-119507
X078867Y-043307
X082042Y-043307
X155067Y-081407
X123952Y-054737
X123952Y-092837
X104902Y-119507
X085852Y-115697
X104902Y-085217
X066802Y-043307
X143002Y-081407
X120142Y-104267
X066802Y-115697
X104902Y-100457
X139192Y-035687
X069342Y-043307
X075692Y-043307
X136017Y-081407
X082042Y-115697
X143002Y-039497
X143002Y-096647
X116967Y-085217
X136017Y-043307
X082042Y-062357
X158242Y-096647
X082042Y-096647
X139192Y-096647
X120142Y-085217
X078867Y-062357
X158242Y-077597
X120142Y-096647
X120142Y-100457
X082042Y-104267
X088392Y-043307
X094742Y-043307
X066802Y-054737
X116967Y-066167
X101092Y-096647
X123952Y-100457
X082042Y-100457
X078867Y-047117
X104902Y-066167
X155067Y-119507
X123952Y-085217
X066802Y-039497
X082042Y-054737
X120142Y-066167
X123952Y-119507
X066802Y-050927
X139192Y-069977
X066802Y-069977
X139192Y-100457
X116967Y-081407
X139192Y-119507
X143002Y-031877
X120142Y-069977
X158242Y-058547
X136017Y-085217
X145542Y-062357
X151892Y-062357
X088392Y-119507
X094742Y-119507
X085852Y-066167
X136017Y-104267
X158242Y-031877
X082042Y-108077
X101092Y-081407
X158242Y-092837
X145542Y-119507
X151892Y-119507
X085852Y-035687
X097917Y-066167
X123952Y-077597
T3
X090932Y-040767
X097282Y-038227
X071882Y-059817
X078232Y-057277
X129032Y-097917
X135382Y-095377
X109982Y-040767
X116332Y-038227
X090932Y-078867
X097282Y-076327
X148082Y-078867
X154432Y-076327
X148082Y-116967
X154432Y-114427
X109982Y-116967
X116332Y-114427
X090932Y-097917
X097282Y-095377
X148082Y-097917
X154432Y-095377
X090932Y-059817
X097282Y-057277
X129032Y-059817
X135382Y-057277
X109982Y-097917
X116332Y-095377
X109982Y-078867
X116332Y-076327
X129032Y-040767
X135382Y-038227
X071882Y-097917
X078232Y-095377
X148082Y-040767
X154432Y-038227
X071882Y-078867
X078232Y-076327
X129032Y-078867
X135382Y-076327
X129032Y-116967
X135382Y-114427
X109982Y-059817
X116332Y-057277
X071882Y-040767
X078232Y-038227
X090932Y-116967
X097282Y-114427
X148082Y-059817
X154432Y-057277
X071882Y-116967
X078232Y-114427
T4
X126492Y-073787
X136652Y-073787
X126492Y-111887
X136652Y-111887
X107442Y-054737
X117602Y-054737
X069342Y-035687
X079502Y-035687
X088392Y-111887
X098552Y-111887
X145542Y-054737
X155702Y-054737
X069342Y-111887
X079502Y-111887
X088392Y-035687
X098552Y-035687
X069342Y-054737
X079502Y-054737
X126492Y-092837
X136652Y-092837
X107442Y-035687
X117602Y-035687
X088392Y-073787
X098552Y-073787
X145542Y-073787
X155702Y-073787
X145542Y-111887
X155702Y-111887
X107442Y-111887
X117602Y-111887
X088392Y-092837
X098552Y-092837
X145542Y-092837
X155702Y-092837
X088392Y-054737
X098552Y-054737
X126492Y-054737
X136652Y-054737
X107442Y-092837
X117602Y-092837
X107442Y-073787
X117602Y-073787
X126492Y-035687
X136652Y-035687
X069342Y-092837
X079502Y-092837
X145542Y-035687
X155702Y-035687
X069342Y-073787
X079502Y-073787
T5
X150622Y-073787
X150622Y-111887
X112522Y-111887
X093472Y-092837
X150622Y-092837
X093472Y-054737
X131572Y-054737
X112522Y-092837
X112522Y-073787
X131572Y-035687
X074422Y-092837
X150622Y-035687
X074422Y-073787
X131572Y-073787
X131572Y-111887
X112522Y-054737
X074422Y-035687
X093472Y-111887
X150622Y-054737
X074422Y-111887
X093472Y-035687
X074422Y-054737
X131572Y-092837
X112522Y-035687
X093472Y-073787
T0
M30
