G04 #@! TF.GenerationSoftware,KiCad,Pcbnew,5.0.2-bee76a0~70~ubuntu18.04.1*
G04 #@! TF.CreationDate,2019-02-14T02:50:33+09:00*
G04 #@! TF.ProjectId,nexus,6e657875-732e-46b6-9963-61645f706362,rev?*
G04 #@! TF.SameCoordinates,Original*
G04 #@! TF.FileFunction,Legend,Bot*
G04 #@! TF.FilePolarity,Positive*
%FSLAX46Y46*%
G04 Gerber Fmt 4.6, Leading zero omitted, Abs format (unit mm)*
G04 Created by KiCad (PCBNEW 5.0.2-bee76a0~70~ubuntu18.04.1) date 2019年02月14日 02時50分33秒*
%MOMM*%
%LPD*%
G01*
G04 APERTURE LIST*
%ADD10C,0.200000*%
%ADD11C,0.300000*%
%ADD12C,1.812000*%
%ADD13C,2.602000*%
%ADD14C,4.102000*%
%ADD15R,1.502000X1.502000*%
%ADD16C,1.502000*%
%ADD17R,1.702000X1.102000*%
%ADD18C,1.902000*%
G04 APERTURE END LIST*
D10*
X145364142Y-104352714D02*
X144449857Y-104352714D01*
X144907000Y-104809857D02*
X144907000Y-103895571D01*
X126314142Y-104352714D02*
X125399857Y-104352714D01*
X125857000Y-104809857D02*
X125857000Y-103895571D01*
X107264142Y-104352714D02*
X106349857Y-104352714D01*
X106807000Y-104809857D02*
X106807000Y-103895571D01*
X88214142Y-104352714D02*
X87299857Y-104352714D01*
X87757000Y-104809857D02*
X87757000Y-103895571D01*
X69164142Y-104352714D02*
X68249857Y-104352714D01*
X68707000Y-104809857D02*
X68707000Y-103895571D01*
X145364142Y-85302714D02*
X144449857Y-85302714D01*
X144907000Y-85759857D02*
X144907000Y-84845571D01*
X126314142Y-85302714D02*
X125399857Y-85302714D01*
X125857000Y-85759857D02*
X125857000Y-84845571D01*
X107264142Y-85302714D02*
X106349857Y-85302714D01*
X106807000Y-85759857D02*
X106807000Y-84845571D01*
X88214142Y-85302714D02*
X87299857Y-85302714D01*
X87757000Y-85759857D02*
X87757000Y-84845571D01*
X69164142Y-85302714D02*
X68249857Y-85302714D01*
X68707000Y-85759857D02*
X68707000Y-84845571D01*
X145364142Y-66252714D02*
X144449857Y-66252714D01*
X144907000Y-66709857D02*
X144907000Y-65795571D01*
X126314142Y-66252714D02*
X125399857Y-66252714D01*
X125857000Y-66709857D02*
X125857000Y-65795571D01*
X107264142Y-66252714D02*
X106349857Y-66252714D01*
X106807000Y-66709857D02*
X106807000Y-65795571D01*
X88214142Y-66252714D02*
X87299857Y-66252714D01*
X87757000Y-66709857D02*
X87757000Y-65795571D01*
X69164142Y-66252714D02*
X68249857Y-66252714D01*
X68707000Y-66709857D02*
X68707000Y-65795571D01*
X145364142Y-47202714D02*
X144449857Y-47202714D01*
X144907000Y-47659857D02*
X144907000Y-46745571D01*
X126314142Y-47202714D02*
X125399857Y-47202714D01*
X125857000Y-47659857D02*
X125857000Y-46745571D01*
X107264142Y-47202714D02*
X106349857Y-47202714D01*
X106807000Y-47659857D02*
X106807000Y-46745571D01*
X88214142Y-47202714D02*
X87299857Y-47202714D01*
X87757000Y-47659857D02*
X87757000Y-46745571D01*
X69164142Y-47202714D02*
X68249857Y-47202714D01*
X68707000Y-47659857D02*
X68707000Y-46745571D01*
X145364142Y-28152714D02*
X144449857Y-28152714D01*
X144907000Y-28609857D02*
X144907000Y-27695571D01*
X126314142Y-28152714D02*
X125399857Y-28152714D01*
X125857000Y-28609857D02*
X125857000Y-27695571D01*
X107264142Y-28152714D02*
X106349857Y-28152714D01*
X106807000Y-28609857D02*
X106807000Y-27695571D01*
X88214142Y-28152714D02*
X87299857Y-28152714D01*
X87757000Y-28609857D02*
X87757000Y-27695571D01*
X157279857Y-107349857D02*
X157279857Y-106149857D01*
X156994142Y-106149857D01*
X156822714Y-106207000D01*
X156708428Y-106321285D01*
X156651285Y-106435571D01*
X156594142Y-106664142D01*
X156594142Y-106835571D01*
X156651285Y-107064142D01*
X156708428Y-107178428D01*
X156822714Y-107292714D01*
X156994142Y-107349857D01*
X157279857Y-107349857D01*
X155851285Y-106149857D02*
X155622714Y-106149857D01*
X155508428Y-106207000D01*
X155394142Y-106321285D01*
X155337000Y-106549857D01*
X155337000Y-106949857D01*
X155394142Y-107178428D01*
X155508428Y-107292714D01*
X155622714Y-107349857D01*
X155851285Y-107349857D01*
X155965571Y-107292714D01*
X156079857Y-107178428D01*
X156137000Y-106949857D01*
X156137000Y-106549857D01*
X156079857Y-106321285D01*
X155965571Y-106207000D01*
X155851285Y-106149857D01*
X138229857Y-107349857D02*
X138229857Y-106149857D01*
X137944142Y-106149857D01*
X137772714Y-106207000D01*
X137658428Y-106321285D01*
X137601285Y-106435571D01*
X137544142Y-106664142D01*
X137544142Y-106835571D01*
X137601285Y-107064142D01*
X137658428Y-107178428D01*
X137772714Y-107292714D01*
X137944142Y-107349857D01*
X138229857Y-107349857D01*
X136801285Y-106149857D02*
X136572714Y-106149857D01*
X136458428Y-106207000D01*
X136344142Y-106321285D01*
X136287000Y-106549857D01*
X136287000Y-106949857D01*
X136344142Y-107178428D01*
X136458428Y-107292714D01*
X136572714Y-107349857D01*
X136801285Y-107349857D01*
X136915571Y-107292714D01*
X137029857Y-107178428D01*
X137087000Y-106949857D01*
X137087000Y-106549857D01*
X137029857Y-106321285D01*
X136915571Y-106207000D01*
X136801285Y-106149857D01*
X119179857Y-107349857D02*
X119179857Y-106149857D01*
X118894142Y-106149857D01*
X118722714Y-106207000D01*
X118608428Y-106321285D01*
X118551285Y-106435571D01*
X118494142Y-106664142D01*
X118494142Y-106835571D01*
X118551285Y-107064142D01*
X118608428Y-107178428D01*
X118722714Y-107292714D01*
X118894142Y-107349857D01*
X119179857Y-107349857D01*
X117751285Y-106149857D02*
X117522714Y-106149857D01*
X117408428Y-106207000D01*
X117294142Y-106321285D01*
X117237000Y-106549857D01*
X117237000Y-106949857D01*
X117294142Y-107178428D01*
X117408428Y-107292714D01*
X117522714Y-107349857D01*
X117751285Y-107349857D01*
X117865571Y-107292714D01*
X117979857Y-107178428D01*
X118037000Y-106949857D01*
X118037000Y-106549857D01*
X117979857Y-106321285D01*
X117865571Y-106207000D01*
X117751285Y-106149857D01*
X100129857Y-107349857D02*
X100129857Y-106149857D01*
X99844142Y-106149857D01*
X99672714Y-106207000D01*
X99558428Y-106321285D01*
X99501285Y-106435571D01*
X99444142Y-106664142D01*
X99444142Y-106835571D01*
X99501285Y-107064142D01*
X99558428Y-107178428D01*
X99672714Y-107292714D01*
X99844142Y-107349857D01*
X100129857Y-107349857D01*
X98701285Y-106149857D02*
X98472714Y-106149857D01*
X98358428Y-106207000D01*
X98244142Y-106321285D01*
X98187000Y-106549857D01*
X98187000Y-106949857D01*
X98244142Y-107178428D01*
X98358428Y-107292714D01*
X98472714Y-107349857D01*
X98701285Y-107349857D01*
X98815571Y-107292714D01*
X98929857Y-107178428D01*
X98987000Y-106949857D01*
X98987000Y-106549857D01*
X98929857Y-106321285D01*
X98815571Y-106207000D01*
X98701285Y-106149857D01*
X81079857Y-107349857D02*
X81079857Y-106149857D01*
X80794142Y-106149857D01*
X80622714Y-106207000D01*
X80508428Y-106321285D01*
X80451285Y-106435571D01*
X80394142Y-106664142D01*
X80394142Y-106835571D01*
X80451285Y-107064142D01*
X80508428Y-107178428D01*
X80622714Y-107292714D01*
X80794142Y-107349857D01*
X81079857Y-107349857D01*
X79651285Y-106149857D02*
X79422714Y-106149857D01*
X79308428Y-106207000D01*
X79194142Y-106321285D01*
X79137000Y-106549857D01*
X79137000Y-106949857D01*
X79194142Y-107178428D01*
X79308428Y-107292714D01*
X79422714Y-107349857D01*
X79651285Y-107349857D01*
X79765571Y-107292714D01*
X79879857Y-107178428D01*
X79937000Y-106949857D01*
X79937000Y-106549857D01*
X79879857Y-106321285D01*
X79765571Y-106207000D01*
X79651285Y-106149857D01*
X157279857Y-88299857D02*
X157279857Y-87099857D01*
X156994142Y-87099857D01*
X156822714Y-87157000D01*
X156708428Y-87271285D01*
X156651285Y-87385571D01*
X156594142Y-87614142D01*
X156594142Y-87785571D01*
X156651285Y-88014142D01*
X156708428Y-88128428D01*
X156822714Y-88242714D01*
X156994142Y-88299857D01*
X157279857Y-88299857D01*
X155851285Y-87099857D02*
X155622714Y-87099857D01*
X155508428Y-87157000D01*
X155394142Y-87271285D01*
X155337000Y-87499857D01*
X155337000Y-87899857D01*
X155394142Y-88128428D01*
X155508428Y-88242714D01*
X155622714Y-88299857D01*
X155851285Y-88299857D01*
X155965571Y-88242714D01*
X156079857Y-88128428D01*
X156137000Y-87899857D01*
X156137000Y-87499857D01*
X156079857Y-87271285D01*
X155965571Y-87157000D01*
X155851285Y-87099857D01*
X138229857Y-88299857D02*
X138229857Y-87099857D01*
X137944142Y-87099857D01*
X137772714Y-87157000D01*
X137658428Y-87271285D01*
X137601285Y-87385571D01*
X137544142Y-87614142D01*
X137544142Y-87785571D01*
X137601285Y-88014142D01*
X137658428Y-88128428D01*
X137772714Y-88242714D01*
X137944142Y-88299857D01*
X138229857Y-88299857D01*
X136801285Y-87099857D02*
X136572714Y-87099857D01*
X136458428Y-87157000D01*
X136344142Y-87271285D01*
X136287000Y-87499857D01*
X136287000Y-87899857D01*
X136344142Y-88128428D01*
X136458428Y-88242714D01*
X136572714Y-88299857D01*
X136801285Y-88299857D01*
X136915571Y-88242714D01*
X137029857Y-88128428D01*
X137087000Y-87899857D01*
X137087000Y-87499857D01*
X137029857Y-87271285D01*
X136915571Y-87157000D01*
X136801285Y-87099857D01*
X119179857Y-88299857D02*
X119179857Y-87099857D01*
X118894142Y-87099857D01*
X118722714Y-87157000D01*
X118608428Y-87271285D01*
X118551285Y-87385571D01*
X118494142Y-87614142D01*
X118494142Y-87785571D01*
X118551285Y-88014142D01*
X118608428Y-88128428D01*
X118722714Y-88242714D01*
X118894142Y-88299857D01*
X119179857Y-88299857D01*
X117751285Y-87099857D02*
X117522714Y-87099857D01*
X117408428Y-87157000D01*
X117294142Y-87271285D01*
X117237000Y-87499857D01*
X117237000Y-87899857D01*
X117294142Y-88128428D01*
X117408428Y-88242714D01*
X117522714Y-88299857D01*
X117751285Y-88299857D01*
X117865571Y-88242714D01*
X117979857Y-88128428D01*
X118037000Y-87899857D01*
X118037000Y-87499857D01*
X117979857Y-87271285D01*
X117865571Y-87157000D01*
X117751285Y-87099857D01*
X100129857Y-88299857D02*
X100129857Y-87099857D01*
X99844142Y-87099857D01*
X99672714Y-87157000D01*
X99558428Y-87271285D01*
X99501285Y-87385571D01*
X99444142Y-87614142D01*
X99444142Y-87785571D01*
X99501285Y-88014142D01*
X99558428Y-88128428D01*
X99672714Y-88242714D01*
X99844142Y-88299857D01*
X100129857Y-88299857D01*
X98701285Y-87099857D02*
X98472714Y-87099857D01*
X98358428Y-87157000D01*
X98244142Y-87271285D01*
X98187000Y-87499857D01*
X98187000Y-87899857D01*
X98244142Y-88128428D01*
X98358428Y-88242714D01*
X98472714Y-88299857D01*
X98701285Y-88299857D01*
X98815571Y-88242714D01*
X98929857Y-88128428D01*
X98987000Y-87899857D01*
X98987000Y-87499857D01*
X98929857Y-87271285D01*
X98815571Y-87157000D01*
X98701285Y-87099857D01*
X81079857Y-88299857D02*
X81079857Y-87099857D01*
X80794142Y-87099857D01*
X80622714Y-87157000D01*
X80508428Y-87271285D01*
X80451285Y-87385571D01*
X80394142Y-87614142D01*
X80394142Y-87785571D01*
X80451285Y-88014142D01*
X80508428Y-88128428D01*
X80622714Y-88242714D01*
X80794142Y-88299857D01*
X81079857Y-88299857D01*
X79651285Y-87099857D02*
X79422714Y-87099857D01*
X79308428Y-87157000D01*
X79194142Y-87271285D01*
X79137000Y-87499857D01*
X79137000Y-87899857D01*
X79194142Y-88128428D01*
X79308428Y-88242714D01*
X79422714Y-88299857D01*
X79651285Y-88299857D01*
X79765571Y-88242714D01*
X79879857Y-88128428D01*
X79937000Y-87899857D01*
X79937000Y-87499857D01*
X79879857Y-87271285D01*
X79765571Y-87157000D01*
X79651285Y-87099857D01*
X157279857Y-69249857D02*
X157279857Y-68049857D01*
X156994142Y-68049857D01*
X156822714Y-68107000D01*
X156708428Y-68221285D01*
X156651285Y-68335571D01*
X156594142Y-68564142D01*
X156594142Y-68735571D01*
X156651285Y-68964142D01*
X156708428Y-69078428D01*
X156822714Y-69192714D01*
X156994142Y-69249857D01*
X157279857Y-69249857D01*
X155851285Y-68049857D02*
X155622714Y-68049857D01*
X155508428Y-68107000D01*
X155394142Y-68221285D01*
X155337000Y-68449857D01*
X155337000Y-68849857D01*
X155394142Y-69078428D01*
X155508428Y-69192714D01*
X155622714Y-69249857D01*
X155851285Y-69249857D01*
X155965571Y-69192714D01*
X156079857Y-69078428D01*
X156137000Y-68849857D01*
X156137000Y-68449857D01*
X156079857Y-68221285D01*
X155965571Y-68107000D01*
X155851285Y-68049857D01*
X138229857Y-69249857D02*
X138229857Y-68049857D01*
X137944142Y-68049857D01*
X137772714Y-68107000D01*
X137658428Y-68221285D01*
X137601285Y-68335571D01*
X137544142Y-68564142D01*
X137544142Y-68735571D01*
X137601285Y-68964142D01*
X137658428Y-69078428D01*
X137772714Y-69192714D01*
X137944142Y-69249857D01*
X138229857Y-69249857D01*
X136801285Y-68049857D02*
X136572714Y-68049857D01*
X136458428Y-68107000D01*
X136344142Y-68221285D01*
X136287000Y-68449857D01*
X136287000Y-68849857D01*
X136344142Y-69078428D01*
X136458428Y-69192714D01*
X136572714Y-69249857D01*
X136801285Y-69249857D01*
X136915571Y-69192714D01*
X137029857Y-69078428D01*
X137087000Y-68849857D01*
X137087000Y-68449857D01*
X137029857Y-68221285D01*
X136915571Y-68107000D01*
X136801285Y-68049857D01*
X119179857Y-69249857D02*
X119179857Y-68049857D01*
X118894142Y-68049857D01*
X118722714Y-68107000D01*
X118608428Y-68221285D01*
X118551285Y-68335571D01*
X118494142Y-68564142D01*
X118494142Y-68735571D01*
X118551285Y-68964142D01*
X118608428Y-69078428D01*
X118722714Y-69192714D01*
X118894142Y-69249857D01*
X119179857Y-69249857D01*
X117751285Y-68049857D02*
X117522714Y-68049857D01*
X117408428Y-68107000D01*
X117294142Y-68221285D01*
X117237000Y-68449857D01*
X117237000Y-68849857D01*
X117294142Y-69078428D01*
X117408428Y-69192714D01*
X117522714Y-69249857D01*
X117751285Y-69249857D01*
X117865571Y-69192714D01*
X117979857Y-69078428D01*
X118037000Y-68849857D01*
X118037000Y-68449857D01*
X117979857Y-68221285D01*
X117865571Y-68107000D01*
X117751285Y-68049857D01*
X100129857Y-69249857D02*
X100129857Y-68049857D01*
X99844142Y-68049857D01*
X99672714Y-68107000D01*
X99558428Y-68221285D01*
X99501285Y-68335571D01*
X99444142Y-68564142D01*
X99444142Y-68735571D01*
X99501285Y-68964142D01*
X99558428Y-69078428D01*
X99672714Y-69192714D01*
X99844142Y-69249857D01*
X100129857Y-69249857D01*
X98701285Y-68049857D02*
X98472714Y-68049857D01*
X98358428Y-68107000D01*
X98244142Y-68221285D01*
X98187000Y-68449857D01*
X98187000Y-68849857D01*
X98244142Y-69078428D01*
X98358428Y-69192714D01*
X98472714Y-69249857D01*
X98701285Y-69249857D01*
X98815571Y-69192714D01*
X98929857Y-69078428D01*
X98987000Y-68849857D01*
X98987000Y-68449857D01*
X98929857Y-68221285D01*
X98815571Y-68107000D01*
X98701285Y-68049857D01*
X81079857Y-69249857D02*
X81079857Y-68049857D01*
X80794142Y-68049857D01*
X80622714Y-68107000D01*
X80508428Y-68221285D01*
X80451285Y-68335571D01*
X80394142Y-68564142D01*
X80394142Y-68735571D01*
X80451285Y-68964142D01*
X80508428Y-69078428D01*
X80622714Y-69192714D01*
X80794142Y-69249857D01*
X81079857Y-69249857D01*
X79651285Y-68049857D02*
X79422714Y-68049857D01*
X79308428Y-68107000D01*
X79194142Y-68221285D01*
X79137000Y-68449857D01*
X79137000Y-68849857D01*
X79194142Y-69078428D01*
X79308428Y-69192714D01*
X79422714Y-69249857D01*
X79651285Y-69249857D01*
X79765571Y-69192714D01*
X79879857Y-69078428D01*
X79937000Y-68849857D01*
X79937000Y-68449857D01*
X79879857Y-68221285D01*
X79765571Y-68107000D01*
X79651285Y-68049857D01*
X157279857Y-50199857D02*
X157279857Y-48999857D01*
X156994142Y-48999857D01*
X156822714Y-49057000D01*
X156708428Y-49171285D01*
X156651285Y-49285571D01*
X156594142Y-49514142D01*
X156594142Y-49685571D01*
X156651285Y-49914142D01*
X156708428Y-50028428D01*
X156822714Y-50142714D01*
X156994142Y-50199857D01*
X157279857Y-50199857D01*
X155851285Y-48999857D02*
X155622714Y-48999857D01*
X155508428Y-49057000D01*
X155394142Y-49171285D01*
X155337000Y-49399857D01*
X155337000Y-49799857D01*
X155394142Y-50028428D01*
X155508428Y-50142714D01*
X155622714Y-50199857D01*
X155851285Y-50199857D01*
X155965571Y-50142714D01*
X156079857Y-50028428D01*
X156137000Y-49799857D01*
X156137000Y-49399857D01*
X156079857Y-49171285D01*
X155965571Y-49057000D01*
X155851285Y-48999857D01*
X138229857Y-50199857D02*
X138229857Y-48999857D01*
X137944142Y-48999857D01*
X137772714Y-49057000D01*
X137658428Y-49171285D01*
X137601285Y-49285571D01*
X137544142Y-49514142D01*
X137544142Y-49685571D01*
X137601285Y-49914142D01*
X137658428Y-50028428D01*
X137772714Y-50142714D01*
X137944142Y-50199857D01*
X138229857Y-50199857D01*
X136801285Y-48999857D02*
X136572714Y-48999857D01*
X136458428Y-49057000D01*
X136344142Y-49171285D01*
X136287000Y-49399857D01*
X136287000Y-49799857D01*
X136344142Y-50028428D01*
X136458428Y-50142714D01*
X136572714Y-50199857D01*
X136801285Y-50199857D01*
X136915571Y-50142714D01*
X137029857Y-50028428D01*
X137087000Y-49799857D01*
X137087000Y-49399857D01*
X137029857Y-49171285D01*
X136915571Y-49057000D01*
X136801285Y-48999857D01*
X119179857Y-50199857D02*
X119179857Y-48999857D01*
X118894142Y-48999857D01*
X118722714Y-49057000D01*
X118608428Y-49171285D01*
X118551285Y-49285571D01*
X118494142Y-49514142D01*
X118494142Y-49685571D01*
X118551285Y-49914142D01*
X118608428Y-50028428D01*
X118722714Y-50142714D01*
X118894142Y-50199857D01*
X119179857Y-50199857D01*
X117751285Y-48999857D02*
X117522714Y-48999857D01*
X117408428Y-49057000D01*
X117294142Y-49171285D01*
X117237000Y-49399857D01*
X117237000Y-49799857D01*
X117294142Y-50028428D01*
X117408428Y-50142714D01*
X117522714Y-50199857D01*
X117751285Y-50199857D01*
X117865571Y-50142714D01*
X117979857Y-50028428D01*
X118037000Y-49799857D01*
X118037000Y-49399857D01*
X117979857Y-49171285D01*
X117865571Y-49057000D01*
X117751285Y-48999857D01*
X100129857Y-50199857D02*
X100129857Y-48999857D01*
X99844142Y-48999857D01*
X99672714Y-49057000D01*
X99558428Y-49171285D01*
X99501285Y-49285571D01*
X99444142Y-49514142D01*
X99444142Y-49685571D01*
X99501285Y-49914142D01*
X99558428Y-50028428D01*
X99672714Y-50142714D01*
X99844142Y-50199857D01*
X100129857Y-50199857D01*
X98701285Y-48999857D02*
X98472714Y-48999857D01*
X98358428Y-49057000D01*
X98244142Y-49171285D01*
X98187000Y-49399857D01*
X98187000Y-49799857D01*
X98244142Y-50028428D01*
X98358428Y-50142714D01*
X98472714Y-50199857D01*
X98701285Y-50199857D01*
X98815571Y-50142714D01*
X98929857Y-50028428D01*
X98987000Y-49799857D01*
X98987000Y-49399857D01*
X98929857Y-49171285D01*
X98815571Y-49057000D01*
X98701285Y-48999857D01*
X81079857Y-50199857D02*
X81079857Y-48999857D01*
X80794142Y-48999857D01*
X80622714Y-49057000D01*
X80508428Y-49171285D01*
X80451285Y-49285571D01*
X80394142Y-49514142D01*
X80394142Y-49685571D01*
X80451285Y-49914142D01*
X80508428Y-50028428D01*
X80622714Y-50142714D01*
X80794142Y-50199857D01*
X81079857Y-50199857D01*
X79651285Y-48999857D02*
X79422714Y-48999857D01*
X79308428Y-49057000D01*
X79194142Y-49171285D01*
X79137000Y-49399857D01*
X79137000Y-49799857D01*
X79194142Y-50028428D01*
X79308428Y-50142714D01*
X79422714Y-50199857D01*
X79651285Y-50199857D01*
X79765571Y-50142714D01*
X79879857Y-50028428D01*
X79937000Y-49799857D01*
X79937000Y-49399857D01*
X79879857Y-49171285D01*
X79765571Y-49057000D01*
X79651285Y-48999857D01*
X157279857Y-31149857D02*
X157279857Y-29949857D01*
X156994142Y-29949857D01*
X156822714Y-30007000D01*
X156708428Y-30121285D01*
X156651285Y-30235571D01*
X156594142Y-30464142D01*
X156594142Y-30635571D01*
X156651285Y-30864142D01*
X156708428Y-30978428D01*
X156822714Y-31092714D01*
X156994142Y-31149857D01*
X157279857Y-31149857D01*
X155851285Y-29949857D02*
X155622714Y-29949857D01*
X155508428Y-30007000D01*
X155394142Y-30121285D01*
X155337000Y-30349857D01*
X155337000Y-30749857D01*
X155394142Y-30978428D01*
X155508428Y-31092714D01*
X155622714Y-31149857D01*
X155851285Y-31149857D01*
X155965571Y-31092714D01*
X156079857Y-30978428D01*
X156137000Y-30749857D01*
X156137000Y-30349857D01*
X156079857Y-30121285D01*
X155965571Y-30007000D01*
X155851285Y-29949857D01*
X138229857Y-31149857D02*
X138229857Y-29949857D01*
X137944142Y-29949857D01*
X137772714Y-30007000D01*
X137658428Y-30121285D01*
X137601285Y-30235571D01*
X137544142Y-30464142D01*
X137544142Y-30635571D01*
X137601285Y-30864142D01*
X137658428Y-30978428D01*
X137772714Y-31092714D01*
X137944142Y-31149857D01*
X138229857Y-31149857D01*
X136801285Y-29949857D02*
X136572714Y-29949857D01*
X136458428Y-30007000D01*
X136344142Y-30121285D01*
X136287000Y-30349857D01*
X136287000Y-30749857D01*
X136344142Y-30978428D01*
X136458428Y-31092714D01*
X136572714Y-31149857D01*
X136801285Y-31149857D01*
X136915571Y-31092714D01*
X137029857Y-30978428D01*
X137087000Y-30749857D01*
X137087000Y-30349857D01*
X137029857Y-30121285D01*
X136915571Y-30007000D01*
X136801285Y-29949857D01*
X119179857Y-31149857D02*
X119179857Y-29949857D01*
X118894142Y-29949857D01*
X118722714Y-30007000D01*
X118608428Y-30121285D01*
X118551285Y-30235571D01*
X118494142Y-30464142D01*
X118494142Y-30635571D01*
X118551285Y-30864142D01*
X118608428Y-30978428D01*
X118722714Y-31092714D01*
X118894142Y-31149857D01*
X119179857Y-31149857D01*
X117751285Y-29949857D02*
X117522714Y-29949857D01*
X117408428Y-30007000D01*
X117294142Y-30121285D01*
X117237000Y-30349857D01*
X117237000Y-30749857D01*
X117294142Y-30978428D01*
X117408428Y-31092714D01*
X117522714Y-31149857D01*
X117751285Y-31149857D01*
X117865571Y-31092714D01*
X117979857Y-30978428D01*
X118037000Y-30749857D01*
X118037000Y-30349857D01*
X117979857Y-30121285D01*
X117865571Y-30007000D01*
X117751285Y-29949857D01*
X100129857Y-31149857D02*
X100129857Y-29949857D01*
X99844142Y-29949857D01*
X99672714Y-30007000D01*
X99558428Y-30121285D01*
X99501285Y-30235571D01*
X99444142Y-30464142D01*
X99444142Y-30635571D01*
X99501285Y-30864142D01*
X99558428Y-30978428D01*
X99672714Y-31092714D01*
X99844142Y-31149857D01*
X100129857Y-31149857D01*
X98701285Y-29949857D02*
X98472714Y-29949857D01*
X98358428Y-30007000D01*
X98244142Y-30121285D01*
X98187000Y-30349857D01*
X98187000Y-30749857D01*
X98244142Y-30978428D01*
X98358428Y-31092714D01*
X98472714Y-31149857D01*
X98701285Y-31149857D01*
X98815571Y-31092714D01*
X98929857Y-30978428D01*
X98987000Y-30749857D01*
X98987000Y-30349857D01*
X98929857Y-30121285D01*
X98815571Y-30007000D01*
X98701285Y-29949857D01*
X145126000Y-107349857D02*
X145126000Y-106149857D01*
X144840285Y-106149857D01*
X144668857Y-106207000D01*
X144554571Y-106321285D01*
X144497428Y-106435571D01*
X144440285Y-106664142D01*
X144440285Y-106835571D01*
X144497428Y-107064142D01*
X144554571Y-107178428D01*
X144668857Y-107292714D01*
X144840285Y-107349857D01*
X145126000Y-107349857D01*
X143926000Y-107349857D02*
X143926000Y-106149857D01*
X126076000Y-107349857D02*
X126076000Y-106149857D01*
X125790285Y-106149857D01*
X125618857Y-106207000D01*
X125504571Y-106321285D01*
X125447428Y-106435571D01*
X125390285Y-106664142D01*
X125390285Y-106835571D01*
X125447428Y-107064142D01*
X125504571Y-107178428D01*
X125618857Y-107292714D01*
X125790285Y-107349857D01*
X126076000Y-107349857D01*
X124876000Y-107349857D02*
X124876000Y-106149857D01*
X107026000Y-107349857D02*
X107026000Y-106149857D01*
X106740285Y-106149857D01*
X106568857Y-106207000D01*
X106454571Y-106321285D01*
X106397428Y-106435571D01*
X106340285Y-106664142D01*
X106340285Y-106835571D01*
X106397428Y-107064142D01*
X106454571Y-107178428D01*
X106568857Y-107292714D01*
X106740285Y-107349857D01*
X107026000Y-107349857D01*
X105826000Y-107349857D02*
X105826000Y-106149857D01*
X87976000Y-107349857D02*
X87976000Y-106149857D01*
X87690285Y-106149857D01*
X87518857Y-106207000D01*
X87404571Y-106321285D01*
X87347428Y-106435571D01*
X87290285Y-106664142D01*
X87290285Y-106835571D01*
X87347428Y-107064142D01*
X87404571Y-107178428D01*
X87518857Y-107292714D01*
X87690285Y-107349857D01*
X87976000Y-107349857D01*
X86776000Y-107349857D02*
X86776000Y-106149857D01*
X68926000Y-107349857D02*
X68926000Y-106149857D01*
X68640285Y-106149857D01*
X68468857Y-106207000D01*
X68354571Y-106321285D01*
X68297428Y-106435571D01*
X68240285Y-106664142D01*
X68240285Y-106835571D01*
X68297428Y-107064142D01*
X68354571Y-107178428D01*
X68468857Y-107292714D01*
X68640285Y-107349857D01*
X68926000Y-107349857D01*
X67726000Y-107349857D02*
X67726000Y-106149857D01*
X145126000Y-88299857D02*
X145126000Y-87099857D01*
X144840285Y-87099857D01*
X144668857Y-87157000D01*
X144554571Y-87271285D01*
X144497428Y-87385571D01*
X144440285Y-87614142D01*
X144440285Y-87785571D01*
X144497428Y-88014142D01*
X144554571Y-88128428D01*
X144668857Y-88242714D01*
X144840285Y-88299857D01*
X145126000Y-88299857D01*
X143926000Y-88299857D02*
X143926000Y-87099857D01*
X126076000Y-88299857D02*
X126076000Y-87099857D01*
X125790285Y-87099857D01*
X125618857Y-87157000D01*
X125504571Y-87271285D01*
X125447428Y-87385571D01*
X125390285Y-87614142D01*
X125390285Y-87785571D01*
X125447428Y-88014142D01*
X125504571Y-88128428D01*
X125618857Y-88242714D01*
X125790285Y-88299857D01*
X126076000Y-88299857D01*
X124876000Y-88299857D02*
X124876000Y-87099857D01*
X107026000Y-88299857D02*
X107026000Y-87099857D01*
X106740285Y-87099857D01*
X106568857Y-87157000D01*
X106454571Y-87271285D01*
X106397428Y-87385571D01*
X106340285Y-87614142D01*
X106340285Y-87785571D01*
X106397428Y-88014142D01*
X106454571Y-88128428D01*
X106568857Y-88242714D01*
X106740285Y-88299857D01*
X107026000Y-88299857D01*
X105826000Y-88299857D02*
X105826000Y-87099857D01*
X87976000Y-88299857D02*
X87976000Y-87099857D01*
X87690285Y-87099857D01*
X87518857Y-87157000D01*
X87404571Y-87271285D01*
X87347428Y-87385571D01*
X87290285Y-87614142D01*
X87290285Y-87785571D01*
X87347428Y-88014142D01*
X87404571Y-88128428D01*
X87518857Y-88242714D01*
X87690285Y-88299857D01*
X87976000Y-88299857D01*
X86776000Y-88299857D02*
X86776000Y-87099857D01*
X68926000Y-88299857D02*
X68926000Y-87099857D01*
X68640285Y-87099857D01*
X68468857Y-87157000D01*
X68354571Y-87271285D01*
X68297428Y-87385571D01*
X68240285Y-87614142D01*
X68240285Y-87785571D01*
X68297428Y-88014142D01*
X68354571Y-88128428D01*
X68468857Y-88242714D01*
X68640285Y-88299857D01*
X68926000Y-88299857D01*
X67726000Y-88299857D02*
X67726000Y-87099857D01*
X145126000Y-69249857D02*
X145126000Y-68049857D01*
X144840285Y-68049857D01*
X144668857Y-68107000D01*
X144554571Y-68221285D01*
X144497428Y-68335571D01*
X144440285Y-68564142D01*
X144440285Y-68735571D01*
X144497428Y-68964142D01*
X144554571Y-69078428D01*
X144668857Y-69192714D01*
X144840285Y-69249857D01*
X145126000Y-69249857D01*
X143926000Y-69249857D02*
X143926000Y-68049857D01*
X126076000Y-69249857D02*
X126076000Y-68049857D01*
X125790285Y-68049857D01*
X125618857Y-68107000D01*
X125504571Y-68221285D01*
X125447428Y-68335571D01*
X125390285Y-68564142D01*
X125390285Y-68735571D01*
X125447428Y-68964142D01*
X125504571Y-69078428D01*
X125618857Y-69192714D01*
X125790285Y-69249857D01*
X126076000Y-69249857D01*
X124876000Y-69249857D02*
X124876000Y-68049857D01*
X107026000Y-69249857D02*
X107026000Y-68049857D01*
X106740285Y-68049857D01*
X106568857Y-68107000D01*
X106454571Y-68221285D01*
X106397428Y-68335571D01*
X106340285Y-68564142D01*
X106340285Y-68735571D01*
X106397428Y-68964142D01*
X106454571Y-69078428D01*
X106568857Y-69192714D01*
X106740285Y-69249857D01*
X107026000Y-69249857D01*
X105826000Y-69249857D02*
X105826000Y-68049857D01*
X87976000Y-69249857D02*
X87976000Y-68049857D01*
X87690285Y-68049857D01*
X87518857Y-68107000D01*
X87404571Y-68221285D01*
X87347428Y-68335571D01*
X87290285Y-68564142D01*
X87290285Y-68735571D01*
X87347428Y-68964142D01*
X87404571Y-69078428D01*
X87518857Y-69192714D01*
X87690285Y-69249857D01*
X87976000Y-69249857D01*
X86776000Y-69249857D02*
X86776000Y-68049857D01*
X68926000Y-69249857D02*
X68926000Y-68049857D01*
X68640285Y-68049857D01*
X68468857Y-68107000D01*
X68354571Y-68221285D01*
X68297428Y-68335571D01*
X68240285Y-68564142D01*
X68240285Y-68735571D01*
X68297428Y-68964142D01*
X68354571Y-69078428D01*
X68468857Y-69192714D01*
X68640285Y-69249857D01*
X68926000Y-69249857D01*
X67726000Y-69249857D02*
X67726000Y-68049857D01*
X145126000Y-50199857D02*
X145126000Y-48999857D01*
X144840285Y-48999857D01*
X144668857Y-49057000D01*
X144554571Y-49171285D01*
X144497428Y-49285571D01*
X144440285Y-49514142D01*
X144440285Y-49685571D01*
X144497428Y-49914142D01*
X144554571Y-50028428D01*
X144668857Y-50142714D01*
X144840285Y-50199857D01*
X145126000Y-50199857D01*
X143926000Y-50199857D02*
X143926000Y-48999857D01*
X126076000Y-50199857D02*
X126076000Y-48999857D01*
X125790285Y-48999857D01*
X125618857Y-49057000D01*
X125504571Y-49171285D01*
X125447428Y-49285571D01*
X125390285Y-49514142D01*
X125390285Y-49685571D01*
X125447428Y-49914142D01*
X125504571Y-50028428D01*
X125618857Y-50142714D01*
X125790285Y-50199857D01*
X126076000Y-50199857D01*
X124876000Y-50199857D02*
X124876000Y-48999857D01*
X107026000Y-50199857D02*
X107026000Y-48999857D01*
X106740285Y-48999857D01*
X106568857Y-49057000D01*
X106454571Y-49171285D01*
X106397428Y-49285571D01*
X106340285Y-49514142D01*
X106340285Y-49685571D01*
X106397428Y-49914142D01*
X106454571Y-50028428D01*
X106568857Y-50142714D01*
X106740285Y-50199857D01*
X107026000Y-50199857D01*
X105826000Y-50199857D02*
X105826000Y-48999857D01*
X87976000Y-50199857D02*
X87976000Y-48999857D01*
X87690285Y-48999857D01*
X87518857Y-49057000D01*
X87404571Y-49171285D01*
X87347428Y-49285571D01*
X87290285Y-49514142D01*
X87290285Y-49685571D01*
X87347428Y-49914142D01*
X87404571Y-50028428D01*
X87518857Y-50142714D01*
X87690285Y-50199857D01*
X87976000Y-50199857D01*
X86776000Y-50199857D02*
X86776000Y-48999857D01*
X68926000Y-50199857D02*
X68926000Y-48999857D01*
X68640285Y-48999857D01*
X68468857Y-49057000D01*
X68354571Y-49171285D01*
X68297428Y-49285571D01*
X68240285Y-49514142D01*
X68240285Y-49685571D01*
X68297428Y-49914142D01*
X68354571Y-50028428D01*
X68468857Y-50142714D01*
X68640285Y-50199857D01*
X68926000Y-50199857D01*
X67726000Y-50199857D02*
X67726000Y-48999857D01*
X145126000Y-31149857D02*
X145126000Y-29949857D01*
X144840285Y-29949857D01*
X144668857Y-30007000D01*
X144554571Y-30121285D01*
X144497428Y-30235571D01*
X144440285Y-30464142D01*
X144440285Y-30635571D01*
X144497428Y-30864142D01*
X144554571Y-30978428D01*
X144668857Y-31092714D01*
X144840285Y-31149857D01*
X145126000Y-31149857D01*
X143926000Y-31149857D02*
X143926000Y-29949857D01*
X126076000Y-31149857D02*
X126076000Y-29949857D01*
X125790285Y-29949857D01*
X125618857Y-30007000D01*
X125504571Y-30121285D01*
X125447428Y-30235571D01*
X125390285Y-30464142D01*
X125390285Y-30635571D01*
X125447428Y-30864142D01*
X125504571Y-30978428D01*
X125618857Y-31092714D01*
X125790285Y-31149857D01*
X126076000Y-31149857D01*
X124876000Y-31149857D02*
X124876000Y-29949857D01*
X107026000Y-31149857D02*
X107026000Y-29949857D01*
X106740285Y-29949857D01*
X106568857Y-30007000D01*
X106454571Y-30121285D01*
X106397428Y-30235571D01*
X106340285Y-30464142D01*
X106340285Y-30635571D01*
X106397428Y-30864142D01*
X106454571Y-30978428D01*
X106568857Y-31092714D01*
X106740285Y-31149857D01*
X107026000Y-31149857D01*
X105826000Y-31149857D02*
X105826000Y-29949857D01*
X87976000Y-31149857D02*
X87976000Y-29949857D01*
X87690285Y-29949857D01*
X87518857Y-30007000D01*
X87404571Y-30121285D01*
X87347428Y-30235571D01*
X87290285Y-30464142D01*
X87290285Y-30635571D01*
X87347428Y-30864142D01*
X87404571Y-30978428D01*
X87518857Y-31092714D01*
X87690285Y-31149857D01*
X87976000Y-31149857D01*
X86776000Y-31149857D02*
X86776000Y-29949857D01*
X157572000Y-114715857D02*
X157572000Y-113515857D01*
X157286285Y-113515857D01*
X157114857Y-113573000D01*
X157000571Y-113687285D01*
X156943428Y-113801571D01*
X156886285Y-114030142D01*
X156886285Y-114201571D01*
X156943428Y-114430142D01*
X157000571Y-114544428D01*
X157114857Y-114658714D01*
X157286285Y-114715857D01*
X157572000Y-114715857D01*
X156372000Y-114715857D02*
X156372000Y-113515857D01*
X138522000Y-114715857D02*
X138522000Y-113515857D01*
X138236285Y-113515857D01*
X138064857Y-113573000D01*
X137950571Y-113687285D01*
X137893428Y-113801571D01*
X137836285Y-114030142D01*
X137836285Y-114201571D01*
X137893428Y-114430142D01*
X137950571Y-114544428D01*
X138064857Y-114658714D01*
X138236285Y-114715857D01*
X138522000Y-114715857D01*
X137322000Y-114715857D02*
X137322000Y-113515857D01*
X119472000Y-114715857D02*
X119472000Y-113515857D01*
X119186285Y-113515857D01*
X119014857Y-113573000D01*
X118900571Y-113687285D01*
X118843428Y-113801571D01*
X118786285Y-114030142D01*
X118786285Y-114201571D01*
X118843428Y-114430142D01*
X118900571Y-114544428D01*
X119014857Y-114658714D01*
X119186285Y-114715857D01*
X119472000Y-114715857D01*
X118272000Y-114715857D02*
X118272000Y-113515857D01*
X100422000Y-114715857D02*
X100422000Y-113515857D01*
X100136285Y-113515857D01*
X99964857Y-113573000D01*
X99850571Y-113687285D01*
X99793428Y-113801571D01*
X99736285Y-114030142D01*
X99736285Y-114201571D01*
X99793428Y-114430142D01*
X99850571Y-114544428D01*
X99964857Y-114658714D01*
X100136285Y-114715857D01*
X100422000Y-114715857D01*
X99222000Y-114715857D02*
X99222000Y-113515857D01*
X81372000Y-114715857D02*
X81372000Y-113515857D01*
X81086285Y-113515857D01*
X80914857Y-113573000D01*
X80800571Y-113687285D01*
X80743428Y-113801571D01*
X80686285Y-114030142D01*
X80686285Y-114201571D01*
X80743428Y-114430142D01*
X80800571Y-114544428D01*
X80914857Y-114658714D01*
X81086285Y-114715857D01*
X81372000Y-114715857D01*
X80172000Y-114715857D02*
X80172000Y-113515857D01*
X157572000Y-95665857D02*
X157572000Y-94465857D01*
X157286285Y-94465857D01*
X157114857Y-94523000D01*
X157000571Y-94637285D01*
X156943428Y-94751571D01*
X156886285Y-94980142D01*
X156886285Y-95151571D01*
X156943428Y-95380142D01*
X157000571Y-95494428D01*
X157114857Y-95608714D01*
X157286285Y-95665857D01*
X157572000Y-95665857D01*
X156372000Y-95665857D02*
X156372000Y-94465857D01*
X138522000Y-95665857D02*
X138522000Y-94465857D01*
X138236285Y-94465857D01*
X138064857Y-94523000D01*
X137950571Y-94637285D01*
X137893428Y-94751571D01*
X137836285Y-94980142D01*
X137836285Y-95151571D01*
X137893428Y-95380142D01*
X137950571Y-95494428D01*
X138064857Y-95608714D01*
X138236285Y-95665857D01*
X138522000Y-95665857D01*
X137322000Y-95665857D02*
X137322000Y-94465857D01*
X119472000Y-95665857D02*
X119472000Y-94465857D01*
X119186285Y-94465857D01*
X119014857Y-94523000D01*
X118900571Y-94637285D01*
X118843428Y-94751571D01*
X118786285Y-94980142D01*
X118786285Y-95151571D01*
X118843428Y-95380142D01*
X118900571Y-95494428D01*
X119014857Y-95608714D01*
X119186285Y-95665857D01*
X119472000Y-95665857D01*
X118272000Y-95665857D02*
X118272000Y-94465857D01*
X100422000Y-95665857D02*
X100422000Y-94465857D01*
X100136285Y-94465857D01*
X99964857Y-94523000D01*
X99850571Y-94637285D01*
X99793428Y-94751571D01*
X99736285Y-94980142D01*
X99736285Y-95151571D01*
X99793428Y-95380142D01*
X99850571Y-95494428D01*
X99964857Y-95608714D01*
X100136285Y-95665857D01*
X100422000Y-95665857D01*
X99222000Y-95665857D02*
X99222000Y-94465857D01*
X81372000Y-95665857D02*
X81372000Y-94465857D01*
X81086285Y-94465857D01*
X80914857Y-94523000D01*
X80800571Y-94637285D01*
X80743428Y-94751571D01*
X80686285Y-94980142D01*
X80686285Y-95151571D01*
X80743428Y-95380142D01*
X80800571Y-95494428D01*
X80914857Y-95608714D01*
X81086285Y-95665857D01*
X81372000Y-95665857D01*
X80172000Y-95665857D02*
X80172000Y-94465857D01*
X157572000Y-76615857D02*
X157572000Y-75415857D01*
X157286285Y-75415857D01*
X157114857Y-75473000D01*
X157000571Y-75587285D01*
X156943428Y-75701571D01*
X156886285Y-75930142D01*
X156886285Y-76101571D01*
X156943428Y-76330142D01*
X157000571Y-76444428D01*
X157114857Y-76558714D01*
X157286285Y-76615857D01*
X157572000Y-76615857D01*
X156372000Y-76615857D02*
X156372000Y-75415857D01*
X138522000Y-76615857D02*
X138522000Y-75415857D01*
X138236285Y-75415857D01*
X138064857Y-75473000D01*
X137950571Y-75587285D01*
X137893428Y-75701571D01*
X137836285Y-75930142D01*
X137836285Y-76101571D01*
X137893428Y-76330142D01*
X137950571Y-76444428D01*
X138064857Y-76558714D01*
X138236285Y-76615857D01*
X138522000Y-76615857D01*
X137322000Y-76615857D02*
X137322000Y-75415857D01*
X119472000Y-76615857D02*
X119472000Y-75415857D01*
X119186285Y-75415857D01*
X119014857Y-75473000D01*
X118900571Y-75587285D01*
X118843428Y-75701571D01*
X118786285Y-75930142D01*
X118786285Y-76101571D01*
X118843428Y-76330142D01*
X118900571Y-76444428D01*
X119014857Y-76558714D01*
X119186285Y-76615857D01*
X119472000Y-76615857D01*
X118272000Y-76615857D02*
X118272000Y-75415857D01*
X100422000Y-76615857D02*
X100422000Y-75415857D01*
X100136285Y-75415857D01*
X99964857Y-75473000D01*
X99850571Y-75587285D01*
X99793428Y-75701571D01*
X99736285Y-75930142D01*
X99736285Y-76101571D01*
X99793428Y-76330142D01*
X99850571Y-76444428D01*
X99964857Y-76558714D01*
X100136285Y-76615857D01*
X100422000Y-76615857D01*
X99222000Y-76615857D02*
X99222000Y-75415857D01*
X81372000Y-76615857D02*
X81372000Y-75415857D01*
X81086285Y-75415857D01*
X80914857Y-75473000D01*
X80800571Y-75587285D01*
X80743428Y-75701571D01*
X80686285Y-75930142D01*
X80686285Y-76101571D01*
X80743428Y-76330142D01*
X80800571Y-76444428D01*
X80914857Y-76558714D01*
X81086285Y-76615857D01*
X81372000Y-76615857D01*
X80172000Y-76615857D02*
X80172000Y-75415857D01*
X157572000Y-57565857D02*
X157572000Y-56365857D01*
X157286285Y-56365857D01*
X157114857Y-56423000D01*
X157000571Y-56537285D01*
X156943428Y-56651571D01*
X156886285Y-56880142D01*
X156886285Y-57051571D01*
X156943428Y-57280142D01*
X157000571Y-57394428D01*
X157114857Y-57508714D01*
X157286285Y-57565857D01*
X157572000Y-57565857D01*
X156372000Y-57565857D02*
X156372000Y-56365857D01*
X138522000Y-57565857D02*
X138522000Y-56365857D01*
X138236285Y-56365857D01*
X138064857Y-56423000D01*
X137950571Y-56537285D01*
X137893428Y-56651571D01*
X137836285Y-56880142D01*
X137836285Y-57051571D01*
X137893428Y-57280142D01*
X137950571Y-57394428D01*
X138064857Y-57508714D01*
X138236285Y-57565857D01*
X138522000Y-57565857D01*
X137322000Y-57565857D02*
X137322000Y-56365857D01*
X119472000Y-57565857D02*
X119472000Y-56365857D01*
X119186285Y-56365857D01*
X119014857Y-56423000D01*
X118900571Y-56537285D01*
X118843428Y-56651571D01*
X118786285Y-56880142D01*
X118786285Y-57051571D01*
X118843428Y-57280142D01*
X118900571Y-57394428D01*
X119014857Y-57508714D01*
X119186285Y-57565857D01*
X119472000Y-57565857D01*
X118272000Y-57565857D02*
X118272000Y-56365857D01*
X100422000Y-57565857D02*
X100422000Y-56365857D01*
X100136285Y-56365857D01*
X99964857Y-56423000D01*
X99850571Y-56537285D01*
X99793428Y-56651571D01*
X99736285Y-56880142D01*
X99736285Y-57051571D01*
X99793428Y-57280142D01*
X99850571Y-57394428D01*
X99964857Y-57508714D01*
X100136285Y-57565857D01*
X100422000Y-57565857D01*
X99222000Y-57565857D02*
X99222000Y-56365857D01*
X81372000Y-57565857D02*
X81372000Y-56365857D01*
X81086285Y-56365857D01*
X80914857Y-56423000D01*
X80800571Y-56537285D01*
X80743428Y-56651571D01*
X80686285Y-56880142D01*
X80686285Y-57051571D01*
X80743428Y-57280142D01*
X80800571Y-57394428D01*
X80914857Y-57508714D01*
X81086285Y-57565857D01*
X81372000Y-57565857D01*
X80172000Y-57565857D02*
X80172000Y-56365857D01*
X157572000Y-38515857D02*
X157572000Y-37315857D01*
X157286285Y-37315857D01*
X157114857Y-37373000D01*
X157000571Y-37487285D01*
X156943428Y-37601571D01*
X156886285Y-37830142D01*
X156886285Y-38001571D01*
X156943428Y-38230142D01*
X157000571Y-38344428D01*
X157114857Y-38458714D01*
X157286285Y-38515857D01*
X157572000Y-38515857D01*
X156372000Y-38515857D02*
X156372000Y-37315857D01*
X138522000Y-38515857D02*
X138522000Y-37315857D01*
X138236285Y-37315857D01*
X138064857Y-37373000D01*
X137950571Y-37487285D01*
X137893428Y-37601571D01*
X137836285Y-37830142D01*
X137836285Y-38001571D01*
X137893428Y-38230142D01*
X137950571Y-38344428D01*
X138064857Y-38458714D01*
X138236285Y-38515857D01*
X138522000Y-38515857D01*
X137322000Y-38515857D02*
X137322000Y-37315857D01*
X119472000Y-38515857D02*
X119472000Y-37315857D01*
X119186285Y-37315857D01*
X119014857Y-37373000D01*
X118900571Y-37487285D01*
X118843428Y-37601571D01*
X118786285Y-37830142D01*
X118786285Y-38001571D01*
X118843428Y-38230142D01*
X118900571Y-38344428D01*
X119014857Y-38458714D01*
X119186285Y-38515857D01*
X119472000Y-38515857D01*
X118272000Y-38515857D02*
X118272000Y-37315857D01*
X100422000Y-38515857D02*
X100422000Y-37315857D01*
X100136285Y-37315857D01*
X99964857Y-37373000D01*
X99850571Y-37487285D01*
X99793428Y-37601571D01*
X99736285Y-37830142D01*
X99736285Y-38001571D01*
X99793428Y-38230142D01*
X99850571Y-38344428D01*
X99964857Y-38458714D01*
X100136285Y-38515857D01*
X100422000Y-38515857D01*
X99222000Y-38515857D02*
X99222000Y-37315857D01*
X157175142Y-118830714D02*
X156260857Y-118830714D01*
X138125142Y-118830714D02*
X137210857Y-118830714D01*
X119075142Y-118830714D02*
X118160857Y-118830714D01*
X100025142Y-118830714D02*
X99110857Y-118830714D01*
X80975142Y-118830714D02*
X80060857Y-118830714D01*
X157175142Y-99780714D02*
X156260857Y-99780714D01*
X138125142Y-99780714D02*
X137210857Y-99780714D01*
X119075142Y-99780714D02*
X118160857Y-99780714D01*
X100025142Y-99780714D02*
X99110857Y-99780714D01*
X80975142Y-99780714D02*
X80060857Y-99780714D01*
X157175142Y-80730714D02*
X156260857Y-80730714D01*
X138125142Y-80730714D02*
X137210857Y-80730714D01*
X119075142Y-80730714D02*
X118160857Y-80730714D01*
X100025142Y-80730714D02*
X99110857Y-80730714D01*
X80975142Y-80730714D02*
X80060857Y-80730714D01*
X157175142Y-61680714D02*
X156260857Y-61680714D01*
X138125142Y-61680714D02*
X137210857Y-61680714D01*
X119075142Y-61680714D02*
X118160857Y-61680714D01*
X100025142Y-61680714D02*
X99110857Y-61680714D01*
X80975142Y-61680714D02*
X80060857Y-61680714D01*
X157175142Y-42630714D02*
X156260857Y-42630714D01*
X138125142Y-42630714D02*
X137210857Y-42630714D01*
X119075142Y-42630714D02*
X118160857Y-42630714D01*
X100025142Y-42630714D02*
X99110857Y-42630714D01*
X156600571Y-111159857D02*
X157000571Y-110588428D01*
X157286285Y-111159857D02*
X157286285Y-109959857D01*
X156829142Y-109959857D01*
X156714857Y-110017000D01*
X156657714Y-110074142D01*
X156600571Y-110188428D01*
X156600571Y-110359857D01*
X156657714Y-110474142D01*
X156714857Y-110531285D01*
X156829142Y-110588428D01*
X157286285Y-110588428D01*
X137550571Y-111159857D02*
X137950571Y-110588428D01*
X138236285Y-111159857D02*
X138236285Y-109959857D01*
X137779142Y-109959857D01*
X137664857Y-110017000D01*
X137607714Y-110074142D01*
X137550571Y-110188428D01*
X137550571Y-110359857D01*
X137607714Y-110474142D01*
X137664857Y-110531285D01*
X137779142Y-110588428D01*
X138236285Y-110588428D01*
X118500571Y-111159857D02*
X118900571Y-110588428D01*
X119186285Y-111159857D02*
X119186285Y-109959857D01*
X118729142Y-109959857D01*
X118614857Y-110017000D01*
X118557714Y-110074142D01*
X118500571Y-110188428D01*
X118500571Y-110359857D01*
X118557714Y-110474142D01*
X118614857Y-110531285D01*
X118729142Y-110588428D01*
X119186285Y-110588428D01*
X99450571Y-111159857D02*
X99850571Y-110588428D01*
X100136285Y-111159857D02*
X100136285Y-109959857D01*
X99679142Y-109959857D01*
X99564857Y-110017000D01*
X99507714Y-110074142D01*
X99450571Y-110188428D01*
X99450571Y-110359857D01*
X99507714Y-110474142D01*
X99564857Y-110531285D01*
X99679142Y-110588428D01*
X100136285Y-110588428D01*
X80400571Y-111159857D02*
X80800571Y-110588428D01*
X81086285Y-111159857D02*
X81086285Y-109959857D01*
X80629142Y-109959857D01*
X80514857Y-110017000D01*
X80457714Y-110074142D01*
X80400571Y-110188428D01*
X80400571Y-110359857D01*
X80457714Y-110474142D01*
X80514857Y-110531285D01*
X80629142Y-110588428D01*
X81086285Y-110588428D01*
X156600571Y-92109857D02*
X157000571Y-91538428D01*
X157286285Y-92109857D02*
X157286285Y-90909857D01*
X156829142Y-90909857D01*
X156714857Y-90967000D01*
X156657714Y-91024142D01*
X156600571Y-91138428D01*
X156600571Y-91309857D01*
X156657714Y-91424142D01*
X156714857Y-91481285D01*
X156829142Y-91538428D01*
X157286285Y-91538428D01*
X137550571Y-92109857D02*
X137950571Y-91538428D01*
X138236285Y-92109857D02*
X138236285Y-90909857D01*
X137779142Y-90909857D01*
X137664857Y-90967000D01*
X137607714Y-91024142D01*
X137550571Y-91138428D01*
X137550571Y-91309857D01*
X137607714Y-91424142D01*
X137664857Y-91481285D01*
X137779142Y-91538428D01*
X138236285Y-91538428D01*
X118500571Y-92109857D02*
X118900571Y-91538428D01*
X119186285Y-92109857D02*
X119186285Y-90909857D01*
X118729142Y-90909857D01*
X118614857Y-90967000D01*
X118557714Y-91024142D01*
X118500571Y-91138428D01*
X118500571Y-91309857D01*
X118557714Y-91424142D01*
X118614857Y-91481285D01*
X118729142Y-91538428D01*
X119186285Y-91538428D01*
X99450571Y-92109857D02*
X99850571Y-91538428D01*
X100136285Y-92109857D02*
X100136285Y-90909857D01*
X99679142Y-90909857D01*
X99564857Y-90967000D01*
X99507714Y-91024142D01*
X99450571Y-91138428D01*
X99450571Y-91309857D01*
X99507714Y-91424142D01*
X99564857Y-91481285D01*
X99679142Y-91538428D01*
X100136285Y-91538428D01*
X80400571Y-92109857D02*
X80800571Y-91538428D01*
X81086285Y-92109857D02*
X81086285Y-90909857D01*
X80629142Y-90909857D01*
X80514857Y-90967000D01*
X80457714Y-91024142D01*
X80400571Y-91138428D01*
X80400571Y-91309857D01*
X80457714Y-91424142D01*
X80514857Y-91481285D01*
X80629142Y-91538428D01*
X81086285Y-91538428D01*
X156600571Y-73059857D02*
X157000571Y-72488428D01*
X157286285Y-73059857D02*
X157286285Y-71859857D01*
X156829142Y-71859857D01*
X156714857Y-71917000D01*
X156657714Y-71974142D01*
X156600571Y-72088428D01*
X156600571Y-72259857D01*
X156657714Y-72374142D01*
X156714857Y-72431285D01*
X156829142Y-72488428D01*
X157286285Y-72488428D01*
X137550571Y-73059857D02*
X137950571Y-72488428D01*
X138236285Y-73059857D02*
X138236285Y-71859857D01*
X137779142Y-71859857D01*
X137664857Y-71917000D01*
X137607714Y-71974142D01*
X137550571Y-72088428D01*
X137550571Y-72259857D01*
X137607714Y-72374142D01*
X137664857Y-72431285D01*
X137779142Y-72488428D01*
X138236285Y-72488428D01*
X118500571Y-73059857D02*
X118900571Y-72488428D01*
X119186285Y-73059857D02*
X119186285Y-71859857D01*
X118729142Y-71859857D01*
X118614857Y-71917000D01*
X118557714Y-71974142D01*
X118500571Y-72088428D01*
X118500571Y-72259857D01*
X118557714Y-72374142D01*
X118614857Y-72431285D01*
X118729142Y-72488428D01*
X119186285Y-72488428D01*
X99450571Y-73059857D02*
X99850571Y-72488428D01*
X100136285Y-73059857D02*
X100136285Y-71859857D01*
X99679142Y-71859857D01*
X99564857Y-71917000D01*
X99507714Y-71974142D01*
X99450571Y-72088428D01*
X99450571Y-72259857D01*
X99507714Y-72374142D01*
X99564857Y-72431285D01*
X99679142Y-72488428D01*
X100136285Y-72488428D01*
X80400571Y-73059857D02*
X80800571Y-72488428D01*
X81086285Y-73059857D02*
X81086285Y-71859857D01*
X80629142Y-71859857D01*
X80514857Y-71917000D01*
X80457714Y-71974142D01*
X80400571Y-72088428D01*
X80400571Y-72259857D01*
X80457714Y-72374142D01*
X80514857Y-72431285D01*
X80629142Y-72488428D01*
X81086285Y-72488428D01*
X156600571Y-54009857D02*
X157000571Y-53438428D01*
X157286285Y-54009857D02*
X157286285Y-52809857D01*
X156829142Y-52809857D01*
X156714857Y-52867000D01*
X156657714Y-52924142D01*
X156600571Y-53038428D01*
X156600571Y-53209857D01*
X156657714Y-53324142D01*
X156714857Y-53381285D01*
X156829142Y-53438428D01*
X157286285Y-53438428D01*
X137550571Y-54009857D02*
X137950571Y-53438428D01*
X138236285Y-54009857D02*
X138236285Y-52809857D01*
X137779142Y-52809857D01*
X137664857Y-52867000D01*
X137607714Y-52924142D01*
X137550571Y-53038428D01*
X137550571Y-53209857D01*
X137607714Y-53324142D01*
X137664857Y-53381285D01*
X137779142Y-53438428D01*
X138236285Y-53438428D01*
X118500571Y-54009857D02*
X118900571Y-53438428D01*
X119186285Y-54009857D02*
X119186285Y-52809857D01*
X118729142Y-52809857D01*
X118614857Y-52867000D01*
X118557714Y-52924142D01*
X118500571Y-53038428D01*
X118500571Y-53209857D01*
X118557714Y-53324142D01*
X118614857Y-53381285D01*
X118729142Y-53438428D01*
X119186285Y-53438428D01*
X99450571Y-54009857D02*
X99850571Y-53438428D01*
X100136285Y-54009857D02*
X100136285Y-52809857D01*
X99679142Y-52809857D01*
X99564857Y-52867000D01*
X99507714Y-52924142D01*
X99450571Y-53038428D01*
X99450571Y-53209857D01*
X99507714Y-53324142D01*
X99564857Y-53381285D01*
X99679142Y-53438428D01*
X100136285Y-53438428D01*
X80400571Y-54009857D02*
X80800571Y-53438428D01*
X81086285Y-54009857D02*
X81086285Y-52809857D01*
X80629142Y-52809857D01*
X80514857Y-52867000D01*
X80457714Y-52924142D01*
X80400571Y-53038428D01*
X80400571Y-53209857D01*
X80457714Y-53324142D01*
X80514857Y-53381285D01*
X80629142Y-53438428D01*
X81086285Y-53438428D01*
X156600571Y-34959857D02*
X157000571Y-34388428D01*
X157286285Y-34959857D02*
X157286285Y-33759857D01*
X156829142Y-33759857D01*
X156714857Y-33817000D01*
X156657714Y-33874142D01*
X156600571Y-33988428D01*
X156600571Y-34159857D01*
X156657714Y-34274142D01*
X156714857Y-34331285D01*
X156829142Y-34388428D01*
X157286285Y-34388428D01*
X137550571Y-34959857D02*
X137950571Y-34388428D01*
X138236285Y-34959857D02*
X138236285Y-33759857D01*
X137779142Y-33759857D01*
X137664857Y-33817000D01*
X137607714Y-33874142D01*
X137550571Y-33988428D01*
X137550571Y-34159857D01*
X137607714Y-34274142D01*
X137664857Y-34331285D01*
X137779142Y-34388428D01*
X138236285Y-34388428D01*
X118500571Y-34959857D02*
X118900571Y-34388428D01*
X119186285Y-34959857D02*
X119186285Y-33759857D01*
X118729142Y-33759857D01*
X118614857Y-33817000D01*
X118557714Y-33874142D01*
X118500571Y-33988428D01*
X118500571Y-34159857D01*
X118557714Y-34274142D01*
X118614857Y-34331285D01*
X118729142Y-34388428D01*
X119186285Y-34388428D01*
X99450571Y-34959857D02*
X99850571Y-34388428D01*
X100136285Y-34959857D02*
X100136285Y-33759857D01*
X99679142Y-33759857D01*
X99564857Y-33817000D01*
X99507714Y-33874142D01*
X99450571Y-33988428D01*
X99450571Y-34159857D01*
X99507714Y-34274142D01*
X99564857Y-34331285D01*
X99679142Y-34388428D01*
X100136285Y-34388428D01*
X153044571Y-118919571D02*
X153101714Y-118976714D01*
X153273142Y-119033857D01*
X153387428Y-119033857D01*
X153558857Y-118976714D01*
X153673142Y-118862428D01*
X153730285Y-118748142D01*
X153787428Y-118519571D01*
X153787428Y-118348142D01*
X153730285Y-118119571D01*
X153673142Y-118005285D01*
X153558857Y-117891000D01*
X153387428Y-117833857D01*
X153273142Y-117833857D01*
X153101714Y-117891000D01*
X153044571Y-117948142D01*
X133994571Y-118919571D02*
X134051714Y-118976714D01*
X134223142Y-119033857D01*
X134337428Y-119033857D01*
X134508857Y-118976714D01*
X134623142Y-118862428D01*
X134680285Y-118748142D01*
X134737428Y-118519571D01*
X134737428Y-118348142D01*
X134680285Y-118119571D01*
X134623142Y-118005285D01*
X134508857Y-117891000D01*
X134337428Y-117833857D01*
X134223142Y-117833857D01*
X134051714Y-117891000D01*
X133994571Y-117948142D01*
X114944571Y-118919571D02*
X115001714Y-118976714D01*
X115173142Y-119033857D01*
X115287428Y-119033857D01*
X115458857Y-118976714D01*
X115573142Y-118862428D01*
X115630285Y-118748142D01*
X115687428Y-118519571D01*
X115687428Y-118348142D01*
X115630285Y-118119571D01*
X115573142Y-118005285D01*
X115458857Y-117891000D01*
X115287428Y-117833857D01*
X115173142Y-117833857D01*
X115001714Y-117891000D01*
X114944571Y-117948142D01*
X95894571Y-118919571D02*
X95951714Y-118976714D01*
X96123142Y-119033857D01*
X96237428Y-119033857D01*
X96408857Y-118976714D01*
X96523142Y-118862428D01*
X96580285Y-118748142D01*
X96637428Y-118519571D01*
X96637428Y-118348142D01*
X96580285Y-118119571D01*
X96523142Y-118005285D01*
X96408857Y-117891000D01*
X96237428Y-117833857D01*
X96123142Y-117833857D01*
X95951714Y-117891000D01*
X95894571Y-117948142D01*
X76844571Y-118919571D02*
X76901714Y-118976714D01*
X77073142Y-119033857D01*
X77187428Y-119033857D01*
X77358857Y-118976714D01*
X77473142Y-118862428D01*
X77530285Y-118748142D01*
X77587428Y-118519571D01*
X77587428Y-118348142D01*
X77530285Y-118119571D01*
X77473142Y-118005285D01*
X77358857Y-117891000D01*
X77187428Y-117833857D01*
X77073142Y-117833857D01*
X76901714Y-117891000D01*
X76844571Y-117948142D01*
X153044571Y-99869571D02*
X153101714Y-99926714D01*
X153273142Y-99983857D01*
X153387428Y-99983857D01*
X153558857Y-99926714D01*
X153673142Y-99812428D01*
X153730285Y-99698142D01*
X153787428Y-99469571D01*
X153787428Y-99298142D01*
X153730285Y-99069571D01*
X153673142Y-98955285D01*
X153558857Y-98841000D01*
X153387428Y-98783857D01*
X153273142Y-98783857D01*
X153101714Y-98841000D01*
X153044571Y-98898142D01*
X133994571Y-99869571D02*
X134051714Y-99926714D01*
X134223142Y-99983857D01*
X134337428Y-99983857D01*
X134508857Y-99926714D01*
X134623142Y-99812428D01*
X134680285Y-99698142D01*
X134737428Y-99469571D01*
X134737428Y-99298142D01*
X134680285Y-99069571D01*
X134623142Y-98955285D01*
X134508857Y-98841000D01*
X134337428Y-98783857D01*
X134223142Y-98783857D01*
X134051714Y-98841000D01*
X133994571Y-98898142D01*
X114944571Y-99869571D02*
X115001714Y-99926714D01*
X115173142Y-99983857D01*
X115287428Y-99983857D01*
X115458857Y-99926714D01*
X115573142Y-99812428D01*
X115630285Y-99698142D01*
X115687428Y-99469571D01*
X115687428Y-99298142D01*
X115630285Y-99069571D01*
X115573142Y-98955285D01*
X115458857Y-98841000D01*
X115287428Y-98783857D01*
X115173142Y-98783857D01*
X115001714Y-98841000D01*
X114944571Y-98898142D01*
X95894571Y-99869571D02*
X95951714Y-99926714D01*
X96123142Y-99983857D01*
X96237428Y-99983857D01*
X96408857Y-99926714D01*
X96523142Y-99812428D01*
X96580285Y-99698142D01*
X96637428Y-99469571D01*
X96637428Y-99298142D01*
X96580285Y-99069571D01*
X96523142Y-98955285D01*
X96408857Y-98841000D01*
X96237428Y-98783857D01*
X96123142Y-98783857D01*
X95951714Y-98841000D01*
X95894571Y-98898142D01*
X76844571Y-99869571D02*
X76901714Y-99926714D01*
X77073142Y-99983857D01*
X77187428Y-99983857D01*
X77358857Y-99926714D01*
X77473142Y-99812428D01*
X77530285Y-99698142D01*
X77587428Y-99469571D01*
X77587428Y-99298142D01*
X77530285Y-99069571D01*
X77473142Y-98955285D01*
X77358857Y-98841000D01*
X77187428Y-98783857D01*
X77073142Y-98783857D01*
X76901714Y-98841000D01*
X76844571Y-98898142D01*
X153044571Y-80819571D02*
X153101714Y-80876714D01*
X153273142Y-80933857D01*
X153387428Y-80933857D01*
X153558857Y-80876714D01*
X153673142Y-80762428D01*
X153730285Y-80648142D01*
X153787428Y-80419571D01*
X153787428Y-80248142D01*
X153730285Y-80019571D01*
X153673142Y-79905285D01*
X153558857Y-79791000D01*
X153387428Y-79733857D01*
X153273142Y-79733857D01*
X153101714Y-79791000D01*
X153044571Y-79848142D01*
X133994571Y-80819571D02*
X134051714Y-80876714D01*
X134223142Y-80933857D01*
X134337428Y-80933857D01*
X134508857Y-80876714D01*
X134623142Y-80762428D01*
X134680285Y-80648142D01*
X134737428Y-80419571D01*
X134737428Y-80248142D01*
X134680285Y-80019571D01*
X134623142Y-79905285D01*
X134508857Y-79791000D01*
X134337428Y-79733857D01*
X134223142Y-79733857D01*
X134051714Y-79791000D01*
X133994571Y-79848142D01*
X114944571Y-80819571D02*
X115001714Y-80876714D01*
X115173142Y-80933857D01*
X115287428Y-80933857D01*
X115458857Y-80876714D01*
X115573142Y-80762428D01*
X115630285Y-80648142D01*
X115687428Y-80419571D01*
X115687428Y-80248142D01*
X115630285Y-80019571D01*
X115573142Y-79905285D01*
X115458857Y-79791000D01*
X115287428Y-79733857D01*
X115173142Y-79733857D01*
X115001714Y-79791000D01*
X114944571Y-79848142D01*
X95894571Y-80819571D02*
X95951714Y-80876714D01*
X96123142Y-80933857D01*
X96237428Y-80933857D01*
X96408857Y-80876714D01*
X96523142Y-80762428D01*
X96580285Y-80648142D01*
X96637428Y-80419571D01*
X96637428Y-80248142D01*
X96580285Y-80019571D01*
X96523142Y-79905285D01*
X96408857Y-79791000D01*
X96237428Y-79733857D01*
X96123142Y-79733857D01*
X95951714Y-79791000D01*
X95894571Y-79848142D01*
X76844571Y-80819571D02*
X76901714Y-80876714D01*
X77073142Y-80933857D01*
X77187428Y-80933857D01*
X77358857Y-80876714D01*
X77473142Y-80762428D01*
X77530285Y-80648142D01*
X77587428Y-80419571D01*
X77587428Y-80248142D01*
X77530285Y-80019571D01*
X77473142Y-79905285D01*
X77358857Y-79791000D01*
X77187428Y-79733857D01*
X77073142Y-79733857D01*
X76901714Y-79791000D01*
X76844571Y-79848142D01*
X153044571Y-61769571D02*
X153101714Y-61826714D01*
X153273142Y-61883857D01*
X153387428Y-61883857D01*
X153558857Y-61826714D01*
X153673142Y-61712428D01*
X153730285Y-61598142D01*
X153787428Y-61369571D01*
X153787428Y-61198142D01*
X153730285Y-60969571D01*
X153673142Y-60855285D01*
X153558857Y-60741000D01*
X153387428Y-60683857D01*
X153273142Y-60683857D01*
X153101714Y-60741000D01*
X153044571Y-60798142D01*
X133994571Y-61769571D02*
X134051714Y-61826714D01*
X134223142Y-61883857D01*
X134337428Y-61883857D01*
X134508857Y-61826714D01*
X134623142Y-61712428D01*
X134680285Y-61598142D01*
X134737428Y-61369571D01*
X134737428Y-61198142D01*
X134680285Y-60969571D01*
X134623142Y-60855285D01*
X134508857Y-60741000D01*
X134337428Y-60683857D01*
X134223142Y-60683857D01*
X134051714Y-60741000D01*
X133994571Y-60798142D01*
X114944571Y-61769571D02*
X115001714Y-61826714D01*
X115173142Y-61883857D01*
X115287428Y-61883857D01*
X115458857Y-61826714D01*
X115573142Y-61712428D01*
X115630285Y-61598142D01*
X115687428Y-61369571D01*
X115687428Y-61198142D01*
X115630285Y-60969571D01*
X115573142Y-60855285D01*
X115458857Y-60741000D01*
X115287428Y-60683857D01*
X115173142Y-60683857D01*
X115001714Y-60741000D01*
X114944571Y-60798142D01*
X95894571Y-61769571D02*
X95951714Y-61826714D01*
X96123142Y-61883857D01*
X96237428Y-61883857D01*
X96408857Y-61826714D01*
X96523142Y-61712428D01*
X96580285Y-61598142D01*
X96637428Y-61369571D01*
X96637428Y-61198142D01*
X96580285Y-60969571D01*
X96523142Y-60855285D01*
X96408857Y-60741000D01*
X96237428Y-60683857D01*
X96123142Y-60683857D01*
X95951714Y-60741000D01*
X95894571Y-60798142D01*
X76844571Y-61769571D02*
X76901714Y-61826714D01*
X77073142Y-61883857D01*
X77187428Y-61883857D01*
X77358857Y-61826714D01*
X77473142Y-61712428D01*
X77530285Y-61598142D01*
X77587428Y-61369571D01*
X77587428Y-61198142D01*
X77530285Y-60969571D01*
X77473142Y-60855285D01*
X77358857Y-60741000D01*
X77187428Y-60683857D01*
X77073142Y-60683857D01*
X76901714Y-60741000D01*
X76844571Y-60798142D01*
X153044571Y-42719571D02*
X153101714Y-42776714D01*
X153273142Y-42833857D01*
X153387428Y-42833857D01*
X153558857Y-42776714D01*
X153673142Y-42662428D01*
X153730285Y-42548142D01*
X153787428Y-42319571D01*
X153787428Y-42148142D01*
X153730285Y-41919571D01*
X153673142Y-41805285D01*
X153558857Y-41691000D01*
X153387428Y-41633857D01*
X153273142Y-41633857D01*
X153101714Y-41691000D01*
X153044571Y-41748142D01*
X134375571Y-42719571D02*
X134432714Y-42776714D01*
X134604142Y-42833857D01*
X134718428Y-42833857D01*
X134889857Y-42776714D01*
X135004142Y-42662428D01*
X135061285Y-42548142D01*
X135118428Y-42319571D01*
X135118428Y-42148142D01*
X135061285Y-41919571D01*
X135004142Y-41805285D01*
X134889857Y-41691000D01*
X134718428Y-41633857D01*
X134604142Y-41633857D01*
X134432714Y-41691000D01*
X134375571Y-41748142D01*
X114944571Y-42719571D02*
X115001714Y-42776714D01*
X115173142Y-42833857D01*
X115287428Y-42833857D01*
X115458857Y-42776714D01*
X115573142Y-42662428D01*
X115630285Y-42548142D01*
X115687428Y-42319571D01*
X115687428Y-42148142D01*
X115630285Y-41919571D01*
X115573142Y-41805285D01*
X115458857Y-41691000D01*
X115287428Y-41633857D01*
X115173142Y-41633857D01*
X115001714Y-41691000D01*
X114944571Y-41748142D01*
X95894571Y-42719571D02*
X95951714Y-42776714D01*
X96123142Y-42833857D01*
X96237428Y-42833857D01*
X96408857Y-42776714D01*
X96523142Y-42662428D01*
X96580285Y-42548142D01*
X96637428Y-42319571D01*
X96637428Y-42148142D01*
X96580285Y-41919571D01*
X96523142Y-41805285D01*
X96408857Y-41691000D01*
X96237428Y-41633857D01*
X96123142Y-41633857D01*
X95951714Y-41691000D01*
X95894571Y-41748142D01*
X152790571Y-104695571D02*
X152847714Y-104752714D01*
X153019142Y-104809857D01*
X153133428Y-104809857D01*
X153304857Y-104752714D01*
X153419142Y-104638428D01*
X153476285Y-104524142D01*
X153533428Y-104295571D01*
X153533428Y-104124142D01*
X153476285Y-103895571D01*
X153419142Y-103781285D01*
X153304857Y-103667000D01*
X153133428Y-103609857D01*
X153019142Y-103609857D01*
X152847714Y-103667000D01*
X152790571Y-103724142D01*
X133740571Y-104695571D02*
X133797714Y-104752714D01*
X133969142Y-104809857D01*
X134083428Y-104809857D01*
X134254857Y-104752714D01*
X134369142Y-104638428D01*
X134426285Y-104524142D01*
X134483428Y-104295571D01*
X134483428Y-104124142D01*
X134426285Y-103895571D01*
X134369142Y-103781285D01*
X134254857Y-103667000D01*
X134083428Y-103609857D01*
X133969142Y-103609857D01*
X133797714Y-103667000D01*
X133740571Y-103724142D01*
X114690571Y-104695571D02*
X114747714Y-104752714D01*
X114919142Y-104809857D01*
X115033428Y-104809857D01*
X115204857Y-104752714D01*
X115319142Y-104638428D01*
X115376285Y-104524142D01*
X115433428Y-104295571D01*
X115433428Y-104124142D01*
X115376285Y-103895571D01*
X115319142Y-103781285D01*
X115204857Y-103667000D01*
X115033428Y-103609857D01*
X114919142Y-103609857D01*
X114747714Y-103667000D01*
X114690571Y-103724142D01*
X95640571Y-104695571D02*
X95697714Y-104752714D01*
X95869142Y-104809857D01*
X95983428Y-104809857D01*
X96154857Y-104752714D01*
X96269142Y-104638428D01*
X96326285Y-104524142D01*
X96383428Y-104295571D01*
X96383428Y-104124142D01*
X96326285Y-103895571D01*
X96269142Y-103781285D01*
X96154857Y-103667000D01*
X95983428Y-103609857D01*
X95869142Y-103609857D01*
X95697714Y-103667000D01*
X95640571Y-103724142D01*
X76590571Y-104695571D02*
X76647714Y-104752714D01*
X76819142Y-104809857D01*
X76933428Y-104809857D01*
X77104857Y-104752714D01*
X77219142Y-104638428D01*
X77276285Y-104524142D01*
X77333428Y-104295571D01*
X77333428Y-104124142D01*
X77276285Y-103895571D01*
X77219142Y-103781285D01*
X77104857Y-103667000D01*
X76933428Y-103609857D01*
X76819142Y-103609857D01*
X76647714Y-103667000D01*
X76590571Y-103724142D01*
X152790571Y-85645571D02*
X152847714Y-85702714D01*
X153019142Y-85759857D01*
X153133428Y-85759857D01*
X153304857Y-85702714D01*
X153419142Y-85588428D01*
X153476285Y-85474142D01*
X153533428Y-85245571D01*
X153533428Y-85074142D01*
X153476285Y-84845571D01*
X153419142Y-84731285D01*
X153304857Y-84617000D01*
X153133428Y-84559857D01*
X153019142Y-84559857D01*
X152847714Y-84617000D01*
X152790571Y-84674142D01*
X133740571Y-85645571D02*
X133797714Y-85702714D01*
X133969142Y-85759857D01*
X134083428Y-85759857D01*
X134254857Y-85702714D01*
X134369142Y-85588428D01*
X134426285Y-85474142D01*
X134483428Y-85245571D01*
X134483428Y-85074142D01*
X134426285Y-84845571D01*
X134369142Y-84731285D01*
X134254857Y-84617000D01*
X134083428Y-84559857D01*
X133969142Y-84559857D01*
X133797714Y-84617000D01*
X133740571Y-84674142D01*
X114690571Y-85645571D02*
X114747714Y-85702714D01*
X114919142Y-85759857D01*
X115033428Y-85759857D01*
X115204857Y-85702714D01*
X115319142Y-85588428D01*
X115376285Y-85474142D01*
X115433428Y-85245571D01*
X115433428Y-85074142D01*
X115376285Y-84845571D01*
X115319142Y-84731285D01*
X115204857Y-84617000D01*
X115033428Y-84559857D01*
X114919142Y-84559857D01*
X114747714Y-84617000D01*
X114690571Y-84674142D01*
X95640571Y-85645571D02*
X95697714Y-85702714D01*
X95869142Y-85759857D01*
X95983428Y-85759857D01*
X96154857Y-85702714D01*
X96269142Y-85588428D01*
X96326285Y-85474142D01*
X96383428Y-85245571D01*
X96383428Y-85074142D01*
X96326285Y-84845571D01*
X96269142Y-84731285D01*
X96154857Y-84617000D01*
X95983428Y-84559857D01*
X95869142Y-84559857D01*
X95697714Y-84617000D01*
X95640571Y-84674142D01*
X76590571Y-85645571D02*
X76647714Y-85702714D01*
X76819142Y-85759857D01*
X76933428Y-85759857D01*
X77104857Y-85702714D01*
X77219142Y-85588428D01*
X77276285Y-85474142D01*
X77333428Y-85245571D01*
X77333428Y-85074142D01*
X77276285Y-84845571D01*
X77219142Y-84731285D01*
X77104857Y-84617000D01*
X76933428Y-84559857D01*
X76819142Y-84559857D01*
X76647714Y-84617000D01*
X76590571Y-84674142D01*
X152790571Y-66595571D02*
X152847714Y-66652714D01*
X153019142Y-66709857D01*
X153133428Y-66709857D01*
X153304857Y-66652714D01*
X153419142Y-66538428D01*
X153476285Y-66424142D01*
X153533428Y-66195571D01*
X153533428Y-66024142D01*
X153476285Y-65795571D01*
X153419142Y-65681285D01*
X153304857Y-65567000D01*
X153133428Y-65509857D01*
X153019142Y-65509857D01*
X152847714Y-65567000D01*
X152790571Y-65624142D01*
X133740571Y-66595571D02*
X133797714Y-66652714D01*
X133969142Y-66709857D01*
X134083428Y-66709857D01*
X134254857Y-66652714D01*
X134369142Y-66538428D01*
X134426285Y-66424142D01*
X134483428Y-66195571D01*
X134483428Y-66024142D01*
X134426285Y-65795571D01*
X134369142Y-65681285D01*
X134254857Y-65567000D01*
X134083428Y-65509857D01*
X133969142Y-65509857D01*
X133797714Y-65567000D01*
X133740571Y-65624142D01*
X114690571Y-66595571D02*
X114747714Y-66652714D01*
X114919142Y-66709857D01*
X115033428Y-66709857D01*
X115204857Y-66652714D01*
X115319142Y-66538428D01*
X115376285Y-66424142D01*
X115433428Y-66195571D01*
X115433428Y-66024142D01*
X115376285Y-65795571D01*
X115319142Y-65681285D01*
X115204857Y-65567000D01*
X115033428Y-65509857D01*
X114919142Y-65509857D01*
X114747714Y-65567000D01*
X114690571Y-65624142D01*
X95640571Y-66595571D02*
X95697714Y-66652714D01*
X95869142Y-66709857D01*
X95983428Y-66709857D01*
X96154857Y-66652714D01*
X96269142Y-66538428D01*
X96326285Y-66424142D01*
X96383428Y-66195571D01*
X96383428Y-66024142D01*
X96326285Y-65795571D01*
X96269142Y-65681285D01*
X96154857Y-65567000D01*
X95983428Y-65509857D01*
X95869142Y-65509857D01*
X95697714Y-65567000D01*
X95640571Y-65624142D01*
X76590571Y-66595571D02*
X76647714Y-66652714D01*
X76819142Y-66709857D01*
X76933428Y-66709857D01*
X77104857Y-66652714D01*
X77219142Y-66538428D01*
X77276285Y-66424142D01*
X77333428Y-66195571D01*
X77333428Y-66024142D01*
X77276285Y-65795571D01*
X77219142Y-65681285D01*
X77104857Y-65567000D01*
X76933428Y-65509857D01*
X76819142Y-65509857D01*
X76647714Y-65567000D01*
X76590571Y-65624142D01*
X152790571Y-47545571D02*
X152847714Y-47602714D01*
X153019142Y-47659857D01*
X153133428Y-47659857D01*
X153304857Y-47602714D01*
X153419142Y-47488428D01*
X153476285Y-47374142D01*
X153533428Y-47145571D01*
X153533428Y-46974142D01*
X153476285Y-46745571D01*
X153419142Y-46631285D01*
X153304857Y-46517000D01*
X153133428Y-46459857D01*
X153019142Y-46459857D01*
X152847714Y-46517000D01*
X152790571Y-46574142D01*
X133740571Y-47545571D02*
X133797714Y-47602714D01*
X133969142Y-47659857D01*
X134083428Y-47659857D01*
X134254857Y-47602714D01*
X134369142Y-47488428D01*
X134426285Y-47374142D01*
X134483428Y-47145571D01*
X134483428Y-46974142D01*
X134426285Y-46745571D01*
X134369142Y-46631285D01*
X134254857Y-46517000D01*
X134083428Y-46459857D01*
X133969142Y-46459857D01*
X133797714Y-46517000D01*
X133740571Y-46574142D01*
X114690571Y-47545571D02*
X114747714Y-47602714D01*
X114919142Y-47659857D01*
X115033428Y-47659857D01*
X115204857Y-47602714D01*
X115319142Y-47488428D01*
X115376285Y-47374142D01*
X115433428Y-47145571D01*
X115433428Y-46974142D01*
X115376285Y-46745571D01*
X115319142Y-46631285D01*
X115204857Y-46517000D01*
X115033428Y-46459857D01*
X114919142Y-46459857D01*
X114747714Y-46517000D01*
X114690571Y-46574142D01*
X95640571Y-47545571D02*
X95697714Y-47602714D01*
X95869142Y-47659857D01*
X95983428Y-47659857D01*
X96154857Y-47602714D01*
X96269142Y-47488428D01*
X96326285Y-47374142D01*
X96383428Y-47145571D01*
X96383428Y-46974142D01*
X96326285Y-46745571D01*
X96269142Y-46631285D01*
X96154857Y-46517000D01*
X95983428Y-46459857D01*
X95869142Y-46459857D01*
X95697714Y-46517000D01*
X95640571Y-46574142D01*
X76590571Y-47545571D02*
X76647714Y-47602714D01*
X76819142Y-47659857D01*
X76933428Y-47659857D01*
X77104857Y-47602714D01*
X77219142Y-47488428D01*
X77276285Y-47374142D01*
X77333428Y-47145571D01*
X77333428Y-46974142D01*
X77276285Y-46745571D01*
X77219142Y-46631285D01*
X77104857Y-46517000D01*
X76933428Y-46459857D01*
X76819142Y-46459857D01*
X76647714Y-46517000D01*
X76590571Y-46574142D01*
X152790571Y-28495571D02*
X152847714Y-28552714D01*
X153019142Y-28609857D01*
X153133428Y-28609857D01*
X153304857Y-28552714D01*
X153419142Y-28438428D01*
X153476285Y-28324142D01*
X153533428Y-28095571D01*
X153533428Y-27924142D01*
X153476285Y-27695571D01*
X153419142Y-27581285D01*
X153304857Y-27467000D01*
X153133428Y-27409857D01*
X153019142Y-27409857D01*
X152847714Y-27467000D01*
X152790571Y-27524142D01*
X133740571Y-28495571D02*
X133797714Y-28552714D01*
X133969142Y-28609857D01*
X134083428Y-28609857D01*
X134254857Y-28552714D01*
X134369142Y-28438428D01*
X134426285Y-28324142D01*
X134483428Y-28095571D01*
X134483428Y-27924142D01*
X134426285Y-27695571D01*
X134369142Y-27581285D01*
X134254857Y-27467000D01*
X134083428Y-27409857D01*
X133969142Y-27409857D01*
X133797714Y-27467000D01*
X133740571Y-27524142D01*
X114690571Y-28495571D02*
X114747714Y-28552714D01*
X114919142Y-28609857D01*
X115033428Y-28609857D01*
X115204857Y-28552714D01*
X115319142Y-28438428D01*
X115376285Y-28324142D01*
X115433428Y-28095571D01*
X115433428Y-27924142D01*
X115376285Y-27695571D01*
X115319142Y-27581285D01*
X115204857Y-27467000D01*
X115033428Y-27409857D01*
X114919142Y-27409857D01*
X114747714Y-27467000D01*
X114690571Y-27524142D01*
X95640571Y-28495571D02*
X95697714Y-28552714D01*
X95869142Y-28609857D01*
X95983428Y-28609857D01*
X96154857Y-28552714D01*
X96269142Y-28438428D01*
X96326285Y-28324142D01*
X96383428Y-28095571D01*
X96383428Y-27924142D01*
X96326285Y-27695571D01*
X96269142Y-27581285D01*
X96154857Y-27467000D01*
X95983428Y-27409857D01*
X95869142Y-27409857D01*
X95697714Y-27467000D01*
X95640571Y-27524142D01*
X157175142Y-103590714D02*
X156260857Y-103590714D01*
X138125142Y-103590714D02*
X137210857Y-103590714D01*
X119075142Y-103590714D02*
X118160857Y-103590714D01*
X100025142Y-103590714D02*
X99110857Y-103590714D01*
X80975142Y-103590714D02*
X80060857Y-103590714D01*
X157175142Y-84540714D02*
X156260857Y-84540714D01*
X138125142Y-84540714D02*
X137210857Y-84540714D01*
X119075142Y-84540714D02*
X118160857Y-84540714D01*
X100025142Y-84540714D02*
X99110857Y-84540714D01*
X80975142Y-84540714D02*
X80060857Y-84540714D01*
X157175142Y-65490714D02*
X156260857Y-65490714D01*
X138125142Y-65490714D02*
X137210857Y-65490714D01*
X119075142Y-65490714D02*
X118160857Y-65490714D01*
X100025142Y-65490714D02*
X99110857Y-65490714D01*
X80975142Y-65490714D02*
X80060857Y-65490714D01*
X157175142Y-46440714D02*
X156260857Y-46440714D01*
X138125142Y-46440714D02*
X137210857Y-46440714D01*
X119075142Y-46440714D02*
X118160857Y-46440714D01*
X100025142Y-46440714D02*
X99110857Y-46440714D01*
X80975142Y-46440714D02*
X80060857Y-46440714D01*
X157175142Y-27390714D02*
X156260857Y-27390714D01*
X143900571Y-111159857D02*
X144300571Y-110588428D01*
X144586285Y-111159857D02*
X144586285Y-109959857D01*
X144129142Y-109959857D01*
X144014857Y-110017000D01*
X143957714Y-110074142D01*
X143900571Y-110188428D01*
X143900571Y-110359857D01*
X143957714Y-110474142D01*
X144014857Y-110531285D01*
X144129142Y-110588428D01*
X144586285Y-110588428D01*
X124850571Y-111159857D02*
X125250571Y-110588428D01*
X125536285Y-111159857D02*
X125536285Y-109959857D01*
X125079142Y-109959857D01*
X124964857Y-110017000D01*
X124907714Y-110074142D01*
X124850571Y-110188428D01*
X124850571Y-110359857D01*
X124907714Y-110474142D01*
X124964857Y-110531285D01*
X125079142Y-110588428D01*
X125536285Y-110588428D01*
X105800571Y-111159857D02*
X106200571Y-110588428D01*
X106486285Y-111159857D02*
X106486285Y-109959857D01*
X106029142Y-109959857D01*
X105914857Y-110017000D01*
X105857714Y-110074142D01*
X105800571Y-110188428D01*
X105800571Y-110359857D01*
X105857714Y-110474142D01*
X105914857Y-110531285D01*
X106029142Y-110588428D01*
X106486285Y-110588428D01*
X86750571Y-111159857D02*
X87150571Y-110588428D01*
X87436285Y-111159857D02*
X87436285Y-109959857D01*
X86979142Y-109959857D01*
X86864857Y-110017000D01*
X86807714Y-110074142D01*
X86750571Y-110188428D01*
X86750571Y-110359857D01*
X86807714Y-110474142D01*
X86864857Y-110531285D01*
X86979142Y-110588428D01*
X87436285Y-110588428D01*
X67700571Y-111159857D02*
X68100571Y-110588428D01*
X68386285Y-111159857D02*
X68386285Y-109959857D01*
X67929142Y-109959857D01*
X67814857Y-110017000D01*
X67757714Y-110074142D01*
X67700571Y-110188428D01*
X67700571Y-110359857D01*
X67757714Y-110474142D01*
X67814857Y-110531285D01*
X67929142Y-110588428D01*
X68386285Y-110588428D01*
X143900571Y-92109857D02*
X144300571Y-91538428D01*
X144586285Y-92109857D02*
X144586285Y-90909857D01*
X144129142Y-90909857D01*
X144014857Y-90967000D01*
X143957714Y-91024142D01*
X143900571Y-91138428D01*
X143900571Y-91309857D01*
X143957714Y-91424142D01*
X144014857Y-91481285D01*
X144129142Y-91538428D01*
X144586285Y-91538428D01*
X124850571Y-92109857D02*
X125250571Y-91538428D01*
X125536285Y-92109857D02*
X125536285Y-90909857D01*
X125079142Y-90909857D01*
X124964857Y-90967000D01*
X124907714Y-91024142D01*
X124850571Y-91138428D01*
X124850571Y-91309857D01*
X124907714Y-91424142D01*
X124964857Y-91481285D01*
X125079142Y-91538428D01*
X125536285Y-91538428D01*
X105800571Y-92109857D02*
X106200571Y-91538428D01*
X106486285Y-92109857D02*
X106486285Y-90909857D01*
X106029142Y-90909857D01*
X105914857Y-90967000D01*
X105857714Y-91024142D01*
X105800571Y-91138428D01*
X105800571Y-91309857D01*
X105857714Y-91424142D01*
X105914857Y-91481285D01*
X106029142Y-91538428D01*
X106486285Y-91538428D01*
X86750571Y-92109857D02*
X87150571Y-91538428D01*
X87436285Y-92109857D02*
X87436285Y-90909857D01*
X86979142Y-90909857D01*
X86864857Y-90967000D01*
X86807714Y-91024142D01*
X86750571Y-91138428D01*
X86750571Y-91309857D01*
X86807714Y-91424142D01*
X86864857Y-91481285D01*
X86979142Y-91538428D01*
X87436285Y-91538428D01*
X67700571Y-92109857D02*
X68100571Y-91538428D01*
X68386285Y-92109857D02*
X68386285Y-90909857D01*
X67929142Y-90909857D01*
X67814857Y-90967000D01*
X67757714Y-91024142D01*
X67700571Y-91138428D01*
X67700571Y-91309857D01*
X67757714Y-91424142D01*
X67814857Y-91481285D01*
X67929142Y-91538428D01*
X68386285Y-91538428D01*
X143900571Y-73059857D02*
X144300571Y-72488428D01*
X144586285Y-73059857D02*
X144586285Y-71859857D01*
X144129142Y-71859857D01*
X144014857Y-71917000D01*
X143957714Y-71974142D01*
X143900571Y-72088428D01*
X143900571Y-72259857D01*
X143957714Y-72374142D01*
X144014857Y-72431285D01*
X144129142Y-72488428D01*
X144586285Y-72488428D01*
X124850571Y-73059857D02*
X125250571Y-72488428D01*
X125536285Y-73059857D02*
X125536285Y-71859857D01*
X125079142Y-71859857D01*
X124964857Y-71917000D01*
X124907714Y-71974142D01*
X124850571Y-72088428D01*
X124850571Y-72259857D01*
X124907714Y-72374142D01*
X124964857Y-72431285D01*
X125079142Y-72488428D01*
X125536285Y-72488428D01*
X105800571Y-73059857D02*
X106200571Y-72488428D01*
X106486285Y-73059857D02*
X106486285Y-71859857D01*
X106029142Y-71859857D01*
X105914857Y-71917000D01*
X105857714Y-71974142D01*
X105800571Y-72088428D01*
X105800571Y-72259857D01*
X105857714Y-72374142D01*
X105914857Y-72431285D01*
X106029142Y-72488428D01*
X106486285Y-72488428D01*
X86750571Y-73059857D02*
X87150571Y-72488428D01*
X87436285Y-73059857D02*
X87436285Y-71859857D01*
X86979142Y-71859857D01*
X86864857Y-71917000D01*
X86807714Y-71974142D01*
X86750571Y-72088428D01*
X86750571Y-72259857D01*
X86807714Y-72374142D01*
X86864857Y-72431285D01*
X86979142Y-72488428D01*
X87436285Y-72488428D01*
X67700571Y-73059857D02*
X68100571Y-72488428D01*
X68386285Y-73059857D02*
X68386285Y-71859857D01*
X67929142Y-71859857D01*
X67814857Y-71917000D01*
X67757714Y-71974142D01*
X67700571Y-72088428D01*
X67700571Y-72259857D01*
X67757714Y-72374142D01*
X67814857Y-72431285D01*
X67929142Y-72488428D01*
X68386285Y-72488428D01*
X143900571Y-54009857D02*
X144300571Y-53438428D01*
X144586285Y-54009857D02*
X144586285Y-52809857D01*
X144129142Y-52809857D01*
X144014857Y-52867000D01*
X143957714Y-52924142D01*
X143900571Y-53038428D01*
X143900571Y-53209857D01*
X143957714Y-53324142D01*
X144014857Y-53381285D01*
X144129142Y-53438428D01*
X144586285Y-53438428D01*
X124850571Y-54009857D02*
X125250571Y-53438428D01*
X125536285Y-54009857D02*
X125536285Y-52809857D01*
X125079142Y-52809857D01*
X124964857Y-52867000D01*
X124907714Y-52924142D01*
X124850571Y-53038428D01*
X124850571Y-53209857D01*
X124907714Y-53324142D01*
X124964857Y-53381285D01*
X125079142Y-53438428D01*
X125536285Y-53438428D01*
X105800571Y-54009857D02*
X106200571Y-53438428D01*
X106486285Y-54009857D02*
X106486285Y-52809857D01*
X106029142Y-52809857D01*
X105914857Y-52867000D01*
X105857714Y-52924142D01*
X105800571Y-53038428D01*
X105800571Y-53209857D01*
X105857714Y-53324142D01*
X105914857Y-53381285D01*
X106029142Y-53438428D01*
X106486285Y-53438428D01*
X86750571Y-54009857D02*
X87150571Y-53438428D01*
X87436285Y-54009857D02*
X87436285Y-52809857D01*
X86979142Y-52809857D01*
X86864857Y-52867000D01*
X86807714Y-52924142D01*
X86750571Y-53038428D01*
X86750571Y-53209857D01*
X86807714Y-53324142D01*
X86864857Y-53381285D01*
X86979142Y-53438428D01*
X87436285Y-53438428D01*
X67700571Y-54009857D02*
X68100571Y-53438428D01*
X68386285Y-54009857D02*
X68386285Y-52809857D01*
X67929142Y-52809857D01*
X67814857Y-52867000D01*
X67757714Y-52924142D01*
X67700571Y-53038428D01*
X67700571Y-53209857D01*
X67757714Y-53324142D01*
X67814857Y-53381285D01*
X67929142Y-53438428D01*
X68386285Y-53438428D01*
X143900571Y-34959857D02*
X144300571Y-34388428D01*
X144586285Y-34959857D02*
X144586285Y-33759857D01*
X144129142Y-33759857D01*
X144014857Y-33817000D01*
X143957714Y-33874142D01*
X143900571Y-33988428D01*
X143900571Y-34159857D01*
X143957714Y-34274142D01*
X144014857Y-34331285D01*
X144129142Y-34388428D01*
X144586285Y-34388428D01*
X124850571Y-34959857D02*
X125250571Y-34388428D01*
X125536285Y-34959857D02*
X125536285Y-33759857D01*
X125079142Y-33759857D01*
X124964857Y-33817000D01*
X124907714Y-33874142D01*
X124850571Y-33988428D01*
X124850571Y-34159857D01*
X124907714Y-34274142D01*
X124964857Y-34331285D01*
X125079142Y-34388428D01*
X125536285Y-34388428D01*
X105800571Y-34959857D02*
X106200571Y-34388428D01*
X106486285Y-34959857D02*
X106486285Y-33759857D01*
X106029142Y-33759857D01*
X105914857Y-33817000D01*
X105857714Y-33874142D01*
X105800571Y-33988428D01*
X105800571Y-34159857D01*
X105857714Y-34274142D01*
X105914857Y-34331285D01*
X106029142Y-34388428D01*
X106486285Y-34388428D01*
X86750571Y-34959857D02*
X87150571Y-34388428D01*
X87436285Y-34959857D02*
X87436285Y-33759857D01*
X86979142Y-33759857D01*
X86864857Y-33817000D01*
X86807714Y-33874142D01*
X86750571Y-33988428D01*
X86750571Y-34159857D01*
X86807714Y-34274142D01*
X86864857Y-34331285D01*
X86979142Y-34388428D01*
X87436285Y-34388428D01*
X145849857Y-114969857D02*
X145849857Y-113769857D01*
X145564142Y-113769857D01*
X145392714Y-113827000D01*
X145278428Y-113941285D01*
X145221285Y-114055571D01*
X145164142Y-114284142D01*
X145164142Y-114455571D01*
X145221285Y-114684142D01*
X145278428Y-114798428D01*
X145392714Y-114912714D01*
X145564142Y-114969857D01*
X145849857Y-114969857D01*
X144421285Y-113769857D02*
X144192714Y-113769857D01*
X144078428Y-113827000D01*
X143964142Y-113941285D01*
X143907000Y-114169857D01*
X143907000Y-114569857D01*
X143964142Y-114798428D01*
X144078428Y-114912714D01*
X144192714Y-114969857D01*
X144421285Y-114969857D01*
X144535571Y-114912714D01*
X144649857Y-114798428D01*
X144707000Y-114569857D01*
X144707000Y-114169857D01*
X144649857Y-113941285D01*
X144535571Y-113827000D01*
X144421285Y-113769857D01*
X126799857Y-114969857D02*
X126799857Y-113769857D01*
X126514142Y-113769857D01*
X126342714Y-113827000D01*
X126228428Y-113941285D01*
X126171285Y-114055571D01*
X126114142Y-114284142D01*
X126114142Y-114455571D01*
X126171285Y-114684142D01*
X126228428Y-114798428D01*
X126342714Y-114912714D01*
X126514142Y-114969857D01*
X126799857Y-114969857D01*
X125371285Y-113769857D02*
X125142714Y-113769857D01*
X125028428Y-113827000D01*
X124914142Y-113941285D01*
X124857000Y-114169857D01*
X124857000Y-114569857D01*
X124914142Y-114798428D01*
X125028428Y-114912714D01*
X125142714Y-114969857D01*
X125371285Y-114969857D01*
X125485571Y-114912714D01*
X125599857Y-114798428D01*
X125657000Y-114569857D01*
X125657000Y-114169857D01*
X125599857Y-113941285D01*
X125485571Y-113827000D01*
X125371285Y-113769857D01*
X107749857Y-114969857D02*
X107749857Y-113769857D01*
X107464142Y-113769857D01*
X107292714Y-113827000D01*
X107178428Y-113941285D01*
X107121285Y-114055571D01*
X107064142Y-114284142D01*
X107064142Y-114455571D01*
X107121285Y-114684142D01*
X107178428Y-114798428D01*
X107292714Y-114912714D01*
X107464142Y-114969857D01*
X107749857Y-114969857D01*
X106321285Y-113769857D02*
X106092714Y-113769857D01*
X105978428Y-113827000D01*
X105864142Y-113941285D01*
X105807000Y-114169857D01*
X105807000Y-114569857D01*
X105864142Y-114798428D01*
X105978428Y-114912714D01*
X106092714Y-114969857D01*
X106321285Y-114969857D01*
X106435571Y-114912714D01*
X106549857Y-114798428D01*
X106607000Y-114569857D01*
X106607000Y-114169857D01*
X106549857Y-113941285D01*
X106435571Y-113827000D01*
X106321285Y-113769857D01*
X88699857Y-114969857D02*
X88699857Y-113769857D01*
X88414142Y-113769857D01*
X88242714Y-113827000D01*
X88128428Y-113941285D01*
X88071285Y-114055571D01*
X88014142Y-114284142D01*
X88014142Y-114455571D01*
X88071285Y-114684142D01*
X88128428Y-114798428D01*
X88242714Y-114912714D01*
X88414142Y-114969857D01*
X88699857Y-114969857D01*
X87271285Y-113769857D02*
X87042714Y-113769857D01*
X86928428Y-113827000D01*
X86814142Y-113941285D01*
X86757000Y-114169857D01*
X86757000Y-114569857D01*
X86814142Y-114798428D01*
X86928428Y-114912714D01*
X87042714Y-114969857D01*
X87271285Y-114969857D01*
X87385571Y-114912714D01*
X87499857Y-114798428D01*
X87557000Y-114569857D01*
X87557000Y-114169857D01*
X87499857Y-113941285D01*
X87385571Y-113827000D01*
X87271285Y-113769857D01*
X69649857Y-114969857D02*
X69649857Y-113769857D01*
X69364142Y-113769857D01*
X69192714Y-113827000D01*
X69078428Y-113941285D01*
X69021285Y-114055571D01*
X68964142Y-114284142D01*
X68964142Y-114455571D01*
X69021285Y-114684142D01*
X69078428Y-114798428D01*
X69192714Y-114912714D01*
X69364142Y-114969857D01*
X69649857Y-114969857D01*
X68221285Y-113769857D02*
X67992714Y-113769857D01*
X67878428Y-113827000D01*
X67764142Y-113941285D01*
X67707000Y-114169857D01*
X67707000Y-114569857D01*
X67764142Y-114798428D01*
X67878428Y-114912714D01*
X67992714Y-114969857D01*
X68221285Y-114969857D01*
X68335571Y-114912714D01*
X68449857Y-114798428D01*
X68507000Y-114569857D01*
X68507000Y-114169857D01*
X68449857Y-113941285D01*
X68335571Y-113827000D01*
X68221285Y-113769857D01*
X145849857Y-95919857D02*
X145849857Y-94719857D01*
X145564142Y-94719857D01*
X145392714Y-94777000D01*
X145278428Y-94891285D01*
X145221285Y-95005571D01*
X145164142Y-95234142D01*
X145164142Y-95405571D01*
X145221285Y-95634142D01*
X145278428Y-95748428D01*
X145392714Y-95862714D01*
X145564142Y-95919857D01*
X145849857Y-95919857D01*
X144421285Y-94719857D02*
X144192714Y-94719857D01*
X144078428Y-94777000D01*
X143964142Y-94891285D01*
X143907000Y-95119857D01*
X143907000Y-95519857D01*
X143964142Y-95748428D01*
X144078428Y-95862714D01*
X144192714Y-95919857D01*
X144421285Y-95919857D01*
X144535571Y-95862714D01*
X144649857Y-95748428D01*
X144707000Y-95519857D01*
X144707000Y-95119857D01*
X144649857Y-94891285D01*
X144535571Y-94777000D01*
X144421285Y-94719857D01*
X126799857Y-95919857D02*
X126799857Y-94719857D01*
X126514142Y-94719857D01*
X126342714Y-94777000D01*
X126228428Y-94891285D01*
X126171285Y-95005571D01*
X126114142Y-95234142D01*
X126114142Y-95405571D01*
X126171285Y-95634142D01*
X126228428Y-95748428D01*
X126342714Y-95862714D01*
X126514142Y-95919857D01*
X126799857Y-95919857D01*
X125371285Y-94719857D02*
X125142714Y-94719857D01*
X125028428Y-94777000D01*
X124914142Y-94891285D01*
X124857000Y-95119857D01*
X124857000Y-95519857D01*
X124914142Y-95748428D01*
X125028428Y-95862714D01*
X125142714Y-95919857D01*
X125371285Y-95919857D01*
X125485571Y-95862714D01*
X125599857Y-95748428D01*
X125657000Y-95519857D01*
X125657000Y-95119857D01*
X125599857Y-94891285D01*
X125485571Y-94777000D01*
X125371285Y-94719857D01*
X107749857Y-95919857D02*
X107749857Y-94719857D01*
X107464142Y-94719857D01*
X107292714Y-94777000D01*
X107178428Y-94891285D01*
X107121285Y-95005571D01*
X107064142Y-95234142D01*
X107064142Y-95405571D01*
X107121285Y-95634142D01*
X107178428Y-95748428D01*
X107292714Y-95862714D01*
X107464142Y-95919857D01*
X107749857Y-95919857D01*
X106321285Y-94719857D02*
X106092714Y-94719857D01*
X105978428Y-94777000D01*
X105864142Y-94891285D01*
X105807000Y-95119857D01*
X105807000Y-95519857D01*
X105864142Y-95748428D01*
X105978428Y-95862714D01*
X106092714Y-95919857D01*
X106321285Y-95919857D01*
X106435571Y-95862714D01*
X106549857Y-95748428D01*
X106607000Y-95519857D01*
X106607000Y-95119857D01*
X106549857Y-94891285D01*
X106435571Y-94777000D01*
X106321285Y-94719857D01*
X88699857Y-95919857D02*
X88699857Y-94719857D01*
X88414142Y-94719857D01*
X88242714Y-94777000D01*
X88128428Y-94891285D01*
X88071285Y-95005571D01*
X88014142Y-95234142D01*
X88014142Y-95405571D01*
X88071285Y-95634142D01*
X88128428Y-95748428D01*
X88242714Y-95862714D01*
X88414142Y-95919857D01*
X88699857Y-95919857D01*
X87271285Y-94719857D02*
X87042714Y-94719857D01*
X86928428Y-94777000D01*
X86814142Y-94891285D01*
X86757000Y-95119857D01*
X86757000Y-95519857D01*
X86814142Y-95748428D01*
X86928428Y-95862714D01*
X87042714Y-95919857D01*
X87271285Y-95919857D01*
X87385571Y-95862714D01*
X87499857Y-95748428D01*
X87557000Y-95519857D01*
X87557000Y-95119857D01*
X87499857Y-94891285D01*
X87385571Y-94777000D01*
X87271285Y-94719857D01*
X69649857Y-95919857D02*
X69649857Y-94719857D01*
X69364142Y-94719857D01*
X69192714Y-94777000D01*
X69078428Y-94891285D01*
X69021285Y-95005571D01*
X68964142Y-95234142D01*
X68964142Y-95405571D01*
X69021285Y-95634142D01*
X69078428Y-95748428D01*
X69192714Y-95862714D01*
X69364142Y-95919857D01*
X69649857Y-95919857D01*
X68221285Y-94719857D02*
X67992714Y-94719857D01*
X67878428Y-94777000D01*
X67764142Y-94891285D01*
X67707000Y-95119857D01*
X67707000Y-95519857D01*
X67764142Y-95748428D01*
X67878428Y-95862714D01*
X67992714Y-95919857D01*
X68221285Y-95919857D01*
X68335571Y-95862714D01*
X68449857Y-95748428D01*
X68507000Y-95519857D01*
X68507000Y-95119857D01*
X68449857Y-94891285D01*
X68335571Y-94777000D01*
X68221285Y-94719857D01*
X145849857Y-76869857D02*
X145849857Y-75669857D01*
X145564142Y-75669857D01*
X145392714Y-75727000D01*
X145278428Y-75841285D01*
X145221285Y-75955571D01*
X145164142Y-76184142D01*
X145164142Y-76355571D01*
X145221285Y-76584142D01*
X145278428Y-76698428D01*
X145392714Y-76812714D01*
X145564142Y-76869857D01*
X145849857Y-76869857D01*
X144421285Y-75669857D02*
X144192714Y-75669857D01*
X144078428Y-75727000D01*
X143964142Y-75841285D01*
X143907000Y-76069857D01*
X143907000Y-76469857D01*
X143964142Y-76698428D01*
X144078428Y-76812714D01*
X144192714Y-76869857D01*
X144421285Y-76869857D01*
X144535571Y-76812714D01*
X144649857Y-76698428D01*
X144707000Y-76469857D01*
X144707000Y-76069857D01*
X144649857Y-75841285D01*
X144535571Y-75727000D01*
X144421285Y-75669857D01*
X126799857Y-76869857D02*
X126799857Y-75669857D01*
X126514142Y-75669857D01*
X126342714Y-75727000D01*
X126228428Y-75841285D01*
X126171285Y-75955571D01*
X126114142Y-76184142D01*
X126114142Y-76355571D01*
X126171285Y-76584142D01*
X126228428Y-76698428D01*
X126342714Y-76812714D01*
X126514142Y-76869857D01*
X126799857Y-76869857D01*
X125371285Y-75669857D02*
X125142714Y-75669857D01*
X125028428Y-75727000D01*
X124914142Y-75841285D01*
X124857000Y-76069857D01*
X124857000Y-76469857D01*
X124914142Y-76698428D01*
X125028428Y-76812714D01*
X125142714Y-76869857D01*
X125371285Y-76869857D01*
X125485571Y-76812714D01*
X125599857Y-76698428D01*
X125657000Y-76469857D01*
X125657000Y-76069857D01*
X125599857Y-75841285D01*
X125485571Y-75727000D01*
X125371285Y-75669857D01*
X107749857Y-76869857D02*
X107749857Y-75669857D01*
X107464142Y-75669857D01*
X107292714Y-75727000D01*
X107178428Y-75841285D01*
X107121285Y-75955571D01*
X107064142Y-76184142D01*
X107064142Y-76355571D01*
X107121285Y-76584142D01*
X107178428Y-76698428D01*
X107292714Y-76812714D01*
X107464142Y-76869857D01*
X107749857Y-76869857D01*
X106321285Y-75669857D02*
X106092714Y-75669857D01*
X105978428Y-75727000D01*
X105864142Y-75841285D01*
X105807000Y-76069857D01*
X105807000Y-76469857D01*
X105864142Y-76698428D01*
X105978428Y-76812714D01*
X106092714Y-76869857D01*
X106321285Y-76869857D01*
X106435571Y-76812714D01*
X106549857Y-76698428D01*
X106607000Y-76469857D01*
X106607000Y-76069857D01*
X106549857Y-75841285D01*
X106435571Y-75727000D01*
X106321285Y-75669857D01*
X88699857Y-76869857D02*
X88699857Y-75669857D01*
X88414142Y-75669857D01*
X88242714Y-75727000D01*
X88128428Y-75841285D01*
X88071285Y-75955571D01*
X88014142Y-76184142D01*
X88014142Y-76355571D01*
X88071285Y-76584142D01*
X88128428Y-76698428D01*
X88242714Y-76812714D01*
X88414142Y-76869857D01*
X88699857Y-76869857D01*
X87271285Y-75669857D02*
X87042714Y-75669857D01*
X86928428Y-75727000D01*
X86814142Y-75841285D01*
X86757000Y-76069857D01*
X86757000Y-76469857D01*
X86814142Y-76698428D01*
X86928428Y-76812714D01*
X87042714Y-76869857D01*
X87271285Y-76869857D01*
X87385571Y-76812714D01*
X87499857Y-76698428D01*
X87557000Y-76469857D01*
X87557000Y-76069857D01*
X87499857Y-75841285D01*
X87385571Y-75727000D01*
X87271285Y-75669857D01*
X69649857Y-76869857D02*
X69649857Y-75669857D01*
X69364142Y-75669857D01*
X69192714Y-75727000D01*
X69078428Y-75841285D01*
X69021285Y-75955571D01*
X68964142Y-76184142D01*
X68964142Y-76355571D01*
X69021285Y-76584142D01*
X69078428Y-76698428D01*
X69192714Y-76812714D01*
X69364142Y-76869857D01*
X69649857Y-76869857D01*
X68221285Y-75669857D02*
X67992714Y-75669857D01*
X67878428Y-75727000D01*
X67764142Y-75841285D01*
X67707000Y-76069857D01*
X67707000Y-76469857D01*
X67764142Y-76698428D01*
X67878428Y-76812714D01*
X67992714Y-76869857D01*
X68221285Y-76869857D01*
X68335571Y-76812714D01*
X68449857Y-76698428D01*
X68507000Y-76469857D01*
X68507000Y-76069857D01*
X68449857Y-75841285D01*
X68335571Y-75727000D01*
X68221285Y-75669857D01*
X145849857Y-57819857D02*
X145849857Y-56619857D01*
X145564142Y-56619857D01*
X145392714Y-56677000D01*
X145278428Y-56791285D01*
X145221285Y-56905571D01*
X145164142Y-57134142D01*
X145164142Y-57305571D01*
X145221285Y-57534142D01*
X145278428Y-57648428D01*
X145392714Y-57762714D01*
X145564142Y-57819857D01*
X145849857Y-57819857D01*
X144421285Y-56619857D02*
X144192714Y-56619857D01*
X144078428Y-56677000D01*
X143964142Y-56791285D01*
X143907000Y-57019857D01*
X143907000Y-57419857D01*
X143964142Y-57648428D01*
X144078428Y-57762714D01*
X144192714Y-57819857D01*
X144421285Y-57819857D01*
X144535571Y-57762714D01*
X144649857Y-57648428D01*
X144707000Y-57419857D01*
X144707000Y-57019857D01*
X144649857Y-56791285D01*
X144535571Y-56677000D01*
X144421285Y-56619857D01*
X126799857Y-57819857D02*
X126799857Y-56619857D01*
X126514142Y-56619857D01*
X126342714Y-56677000D01*
X126228428Y-56791285D01*
X126171285Y-56905571D01*
X126114142Y-57134142D01*
X126114142Y-57305571D01*
X126171285Y-57534142D01*
X126228428Y-57648428D01*
X126342714Y-57762714D01*
X126514142Y-57819857D01*
X126799857Y-57819857D01*
X125371285Y-56619857D02*
X125142714Y-56619857D01*
X125028428Y-56677000D01*
X124914142Y-56791285D01*
X124857000Y-57019857D01*
X124857000Y-57419857D01*
X124914142Y-57648428D01*
X125028428Y-57762714D01*
X125142714Y-57819857D01*
X125371285Y-57819857D01*
X125485571Y-57762714D01*
X125599857Y-57648428D01*
X125657000Y-57419857D01*
X125657000Y-57019857D01*
X125599857Y-56791285D01*
X125485571Y-56677000D01*
X125371285Y-56619857D01*
X107749857Y-57819857D02*
X107749857Y-56619857D01*
X107464142Y-56619857D01*
X107292714Y-56677000D01*
X107178428Y-56791285D01*
X107121285Y-56905571D01*
X107064142Y-57134142D01*
X107064142Y-57305571D01*
X107121285Y-57534142D01*
X107178428Y-57648428D01*
X107292714Y-57762714D01*
X107464142Y-57819857D01*
X107749857Y-57819857D01*
X106321285Y-56619857D02*
X106092714Y-56619857D01*
X105978428Y-56677000D01*
X105864142Y-56791285D01*
X105807000Y-57019857D01*
X105807000Y-57419857D01*
X105864142Y-57648428D01*
X105978428Y-57762714D01*
X106092714Y-57819857D01*
X106321285Y-57819857D01*
X106435571Y-57762714D01*
X106549857Y-57648428D01*
X106607000Y-57419857D01*
X106607000Y-57019857D01*
X106549857Y-56791285D01*
X106435571Y-56677000D01*
X106321285Y-56619857D01*
X88699857Y-57819857D02*
X88699857Y-56619857D01*
X88414142Y-56619857D01*
X88242714Y-56677000D01*
X88128428Y-56791285D01*
X88071285Y-56905571D01*
X88014142Y-57134142D01*
X88014142Y-57305571D01*
X88071285Y-57534142D01*
X88128428Y-57648428D01*
X88242714Y-57762714D01*
X88414142Y-57819857D01*
X88699857Y-57819857D01*
X87271285Y-56619857D02*
X87042714Y-56619857D01*
X86928428Y-56677000D01*
X86814142Y-56791285D01*
X86757000Y-57019857D01*
X86757000Y-57419857D01*
X86814142Y-57648428D01*
X86928428Y-57762714D01*
X87042714Y-57819857D01*
X87271285Y-57819857D01*
X87385571Y-57762714D01*
X87499857Y-57648428D01*
X87557000Y-57419857D01*
X87557000Y-57019857D01*
X87499857Y-56791285D01*
X87385571Y-56677000D01*
X87271285Y-56619857D01*
X69649857Y-57819857D02*
X69649857Y-56619857D01*
X69364142Y-56619857D01*
X69192714Y-56677000D01*
X69078428Y-56791285D01*
X69021285Y-56905571D01*
X68964142Y-57134142D01*
X68964142Y-57305571D01*
X69021285Y-57534142D01*
X69078428Y-57648428D01*
X69192714Y-57762714D01*
X69364142Y-57819857D01*
X69649857Y-57819857D01*
X68221285Y-56619857D02*
X67992714Y-56619857D01*
X67878428Y-56677000D01*
X67764142Y-56791285D01*
X67707000Y-57019857D01*
X67707000Y-57419857D01*
X67764142Y-57648428D01*
X67878428Y-57762714D01*
X67992714Y-57819857D01*
X68221285Y-57819857D01*
X68335571Y-57762714D01*
X68449857Y-57648428D01*
X68507000Y-57419857D01*
X68507000Y-57019857D01*
X68449857Y-56791285D01*
X68335571Y-56677000D01*
X68221285Y-56619857D01*
X145849857Y-38769857D02*
X145849857Y-37569857D01*
X145564142Y-37569857D01*
X145392714Y-37627000D01*
X145278428Y-37741285D01*
X145221285Y-37855571D01*
X145164142Y-38084142D01*
X145164142Y-38255571D01*
X145221285Y-38484142D01*
X145278428Y-38598428D01*
X145392714Y-38712714D01*
X145564142Y-38769857D01*
X145849857Y-38769857D01*
X144421285Y-37569857D02*
X144192714Y-37569857D01*
X144078428Y-37627000D01*
X143964142Y-37741285D01*
X143907000Y-37969857D01*
X143907000Y-38369857D01*
X143964142Y-38598428D01*
X144078428Y-38712714D01*
X144192714Y-38769857D01*
X144421285Y-38769857D01*
X144535571Y-38712714D01*
X144649857Y-38598428D01*
X144707000Y-38369857D01*
X144707000Y-37969857D01*
X144649857Y-37741285D01*
X144535571Y-37627000D01*
X144421285Y-37569857D01*
X126799857Y-38769857D02*
X126799857Y-37569857D01*
X126514142Y-37569857D01*
X126342714Y-37627000D01*
X126228428Y-37741285D01*
X126171285Y-37855571D01*
X126114142Y-38084142D01*
X126114142Y-38255571D01*
X126171285Y-38484142D01*
X126228428Y-38598428D01*
X126342714Y-38712714D01*
X126514142Y-38769857D01*
X126799857Y-38769857D01*
X125371285Y-37569857D02*
X125142714Y-37569857D01*
X125028428Y-37627000D01*
X124914142Y-37741285D01*
X124857000Y-37969857D01*
X124857000Y-38369857D01*
X124914142Y-38598428D01*
X125028428Y-38712714D01*
X125142714Y-38769857D01*
X125371285Y-38769857D01*
X125485571Y-38712714D01*
X125599857Y-38598428D01*
X125657000Y-38369857D01*
X125657000Y-37969857D01*
X125599857Y-37741285D01*
X125485571Y-37627000D01*
X125371285Y-37569857D01*
X107749857Y-38769857D02*
X107749857Y-37569857D01*
X107464142Y-37569857D01*
X107292714Y-37627000D01*
X107178428Y-37741285D01*
X107121285Y-37855571D01*
X107064142Y-38084142D01*
X107064142Y-38255571D01*
X107121285Y-38484142D01*
X107178428Y-38598428D01*
X107292714Y-38712714D01*
X107464142Y-38769857D01*
X107749857Y-38769857D01*
X106321285Y-37569857D02*
X106092714Y-37569857D01*
X105978428Y-37627000D01*
X105864142Y-37741285D01*
X105807000Y-37969857D01*
X105807000Y-38369857D01*
X105864142Y-38598428D01*
X105978428Y-38712714D01*
X106092714Y-38769857D01*
X106321285Y-38769857D01*
X106435571Y-38712714D01*
X106549857Y-38598428D01*
X106607000Y-38369857D01*
X106607000Y-37969857D01*
X106549857Y-37741285D01*
X106435571Y-37627000D01*
X106321285Y-37569857D01*
X88699857Y-38769857D02*
X88699857Y-37569857D01*
X88414142Y-37569857D01*
X88242714Y-37627000D01*
X88128428Y-37741285D01*
X88071285Y-37855571D01*
X88014142Y-38084142D01*
X88014142Y-38255571D01*
X88071285Y-38484142D01*
X88128428Y-38598428D01*
X88242714Y-38712714D01*
X88414142Y-38769857D01*
X88699857Y-38769857D01*
X87271285Y-37569857D02*
X87042714Y-37569857D01*
X86928428Y-37627000D01*
X86814142Y-37741285D01*
X86757000Y-37969857D01*
X86757000Y-38369857D01*
X86814142Y-38598428D01*
X86928428Y-38712714D01*
X87042714Y-38769857D01*
X87271285Y-38769857D01*
X87385571Y-38712714D01*
X87499857Y-38598428D01*
X87557000Y-38369857D01*
X87557000Y-37969857D01*
X87499857Y-37741285D01*
X87385571Y-37627000D01*
X87271285Y-37569857D01*
X144729142Y-118576714D02*
X143814857Y-118576714D01*
X144272000Y-119033857D02*
X144272000Y-118119571D01*
X125679142Y-118576714D02*
X124764857Y-118576714D01*
X125222000Y-119033857D02*
X125222000Y-118119571D01*
X106629142Y-118576714D02*
X105714857Y-118576714D01*
X106172000Y-119033857D02*
X106172000Y-118119571D01*
X87579142Y-118576714D02*
X86664857Y-118576714D01*
X87122000Y-119033857D02*
X87122000Y-118119571D01*
X68529142Y-118576714D02*
X67614857Y-118576714D01*
X68072000Y-119033857D02*
X68072000Y-118119571D01*
X144729142Y-99526714D02*
X143814857Y-99526714D01*
X144272000Y-99983857D02*
X144272000Y-99069571D01*
X125679142Y-99526714D02*
X124764857Y-99526714D01*
X125222000Y-99983857D02*
X125222000Y-99069571D01*
X106629142Y-99526714D02*
X105714857Y-99526714D01*
X106172000Y-99983857D02*
X106172000Y-99069571D01*
X87579142Y-99526714D02*
X86664857Y-99526714D01*
X87122000Y-99983857D02*
X87122000Y-99069571D01*
X68529142Y-99526714D02*
X67614857Y-99526714D01*
X68072000Y-99983857D02*
X68072000Y-99069571D01*
X144729142Y-80476714D02*
X143814857Y-80476714D01*
X144272000Y-80933857D02*
X144272000Y-80019571D01*
X125679142Y-80476714D02*
X124764857Y-80476714D01*
X125222000Y-80933857D02*
X125222000Y-80019571D01*
X106629142Y-80476714D02*
X105714857Y-80476714D01*
X106172000Y-80933857D02*
X106172000Y-80019571D01*
X87579142Y-80476714D02*
X86664857Y-80476714D01*
X87122000Y-80933857D02*
X87122000Y-80019571D01*
X68529142Y-80476714D02*
X67614857Y-80476714D01*
X68072000Y-80933857D02*
X68072000Y-80019571D01*
X144729142Y-61426714D02*
X143814857Y-61426714D01*
X144272000Y-61883857D02*
X144272000Y-60969571D01*
X125679142Y-61426714D02*
X124764857Y-61426714D01*
X125222000Y-61883857D02*
X125222000Y-60969571D01*
X106629142Y-61426714D02*
X105714857Y-61426714D01*
X106172000Y-61883857D02*
X106172000Y-60969571D01*
X87579142Y-61426714D02*
X86664857Y-61426714D01*
X87122000Y-61883857D02*
X87122000Y-60969571D01*
X68529142Y-61426714D02*
X67614857Y-61426714D01*
X68072000Y-61883857D02*
X68072000Y-60969571D01*
X144729142Y-42376714D02*
X143814857Y-42376714D01*
X144272000Y-42833857D02*
X144272000Y-41919571D01*
X125679142Y-42376714D02*
X124764857Y-42376714D01*
X125222000Y-42833857D02*
X125222000Y-41919571D01*
X106629142Y-42376714D02*
X105714857Y-42376714D01*
X106172000Y-42833857D02*
X106172000Y-41919571D01*
X87579142Y-42376714D02*
X86664857Y-42376714D01*
X87122000Y-42833857D02*
X87122000Y-41919571D01*
X69649857Y-38769857D02*
X69649857Y-37569857D01*
X69364142Y-37569857D01*
X69192714Y-37627000D01*
X69078428Y-37741285D01*
X69021285Y-37855571D01*
X68964142Y-38084142D01*
X68964142Y-38255571D01*
X69021285Y-38484142D01*
X69078428Y-38598428D01*
X69192714Y-38712714D01*
X69364142Y-38769857D01*
X69649857Y-38769857D01*
X68221285Y-37569857D02*
X67992714Y-37569857D01*
X67878428Y-37627000D01*
X67764142Y-37741285D01*
X67707000Y-37969857D01*
X67707000Y-38369857D01*
X67764142Y-38598428D01*
X67878428Y-38712714D01*
X67992714Y-38769857D01*
X68221285Y-38769857D01*
X68335571Y-38712714D01*
X68449857Y-38598428D01*
X68507000Y-38369857D01*
X68507000Y-37969857D01*
X68449857Y-37741285D01*
X68335571Y-37627000D01*
X68221285Y-37569857D01*
X68529142Y-42376714D02*
X67614857Y-42376714D01*
X68072000Y-42833857D02*
X68072000Y-41919571D01*
X80975142Y-42630714D02*
X80060857Y-42630714D01*
X80400571Y-34959857D02*
X80800571Y-34388428D01*
X81086285Y-34959857D02*
X81086285Y-33759857D01*
X80629142Y-33759857D01*
X80514857Y-33817000D01*
X80457714Y-33874142D01*
X80400571Y-33988428D01*
X80400571Y-34159857D01*
X80457714Y-34274142D01*
X80514857Y-34331285D01*
X80629142Y-34388428D01*
X81086285Y-34388428D01*
X67700571Y-34959857D02*
X68100571Y-34388428D01*
X68386285Y-34959857D02*
X68386285Y-33759857D01*
X67929142Y-33759857D01*
X67814857Y-33817000D01*
X67757714Y-33874142D01*
X67700571Y-33988428D01*
X67700571Y-34159857D01*
X67757714Y-34274142D01*
X67814857Y-34331285D01*
X67929142Y-34388428D01*
X68386285Y-34388428D01*
X69164142Y-28152714D02*
X68249857Y-28152714D01*
X68707000Y-28609857D02*
X68707000Y-27695571D01*
X76844571Y-42719571D02*
X76901714Y-42776714D01*
X77073142Y-42833857D01*
X77187428Y-42833857D01*
X77358857Y-42776714D01*
X77473142Y-42662428D01*
X77530285Y-42548142D01*
X77587428Y-42319571D01*
X77587428Y-42148142D01*
X77530285Y-41919571D01*
X77473142Y-41805285D01*
X77358857Y-41691000D01*
X77187428Y-41633857D01*
X77073142Y-41633857D01*
X76901714Y-41691000D01*
X76844571Y-41748142D01*
X81079857Y-31149857D02*
X81079857Y-29949857D01*
X80794142Y-29949857D01*
X80622714Y-30007000D01*
X80508428Y-30121285D01*
X80451285Y-30235571D01*
X80394142Y-30464142D01*
X80394142Y-30635571D01*
X80451285Y-30864142D01*
X80508428Y-30978428D01*
X80622714Y-31092714D01*
X80794142Y-31149857D01*
X81079857Y-31149857D01*
X79651285Y-29949857D02*
X79422714Y-29949857D01*
X79308428Y-30007000D01*
X79194142Y-30121285D01*
X79137000Y-30349857D01*
X79137000Y-30749857D01*
X79194142Y-30978428D01*
X79308428Y-31092714D01*
X79422714Y-31149857D01*
X79651285Y-31149857D01*
X79765571Y-31092714D01*
X79879857Y-30978428D01*
X79937000Y-30749857D01*
X79937000Y-30349857D01*
X79879857Y-30121285D01*
X79765571Y-30007000D01*
X79651285Y-29949857D01*
X80975142Y-27390714D02*
X80060857Y-27390714D01*
X68926000Y-31149857D02*
X68926000Y-29949857D01*
X68640285Y-29949857D01*
X68468857Y-30007000D01*
X68354571Y-30121285D01*
X68297428Y-30235571D01*
X68240285Y-30464142D01*
X68240285Y-30635571D01*
X68297428Y-30864142D01*
X68354571Y-30978428D01*
X68468857Y-31092714D01*
X68640285Y-31149857D01*
X68926000Y-31149857D01*
X67726000Y-31149857D02*
X67726000Y-29949857D01*
X81372000Y-38515857D02*
X81372000Y-37315857D01*
X81086285Y-37315857D01*
X80914857Y-37373000D01*
X80800571Y-37487285D01*
X80743428Y-37601571D01*
X80686285Y-37830142D01*
X80686285Y-38001571D01*
X80743428Y-38230142D01*
X80800571Y-38344428D01*
X80914857Y-38458714D01*
X81086285Y-38515857D01*
X81372000Y-38515857D01*
X80172000Y-38515857D02*
X80172000Y-37315857D01*
X76590571Y-28495571D02*
X76647714Y-28552714D01*
X76819142Y-28609857D01*
X76933428Y-28609857D01*
X77104857Y-28552714D01*
X77219142Y-28438428D01*
X77276285Y-28324142D01*
X77333428Y-28095571D01*
X77333428Y-27924142D01*
X77276285Y-27695571D01*
X77219142Y-27581285D01*
X77104857Y-27467000D01*
X76933428Y-27409857D01*
X76819142Y-27409857D01*
X76647714Y-27467000D01*
X76590571Y-27524142D01*
G04 #@! TO.C,D*
X108842000Y-42507000D02*
X108842000Y-44107000D01*
X112342000Y-42507000D02*
X108842000Y-42507000D01*
X112342000Y-44107000D02*
X112342000Y-42507000D01*
X108842000Y-44107000D02*
X112342000Y-44107000D01*
X109342000Y-44107000D02*
X109342000Y-42507000D01*
X108842000Y-43307000D02*
X108442000Y-43307000D01*
X112342000Y-43307000D02*
X112742000Y-43307000D01*
D11*
G04 #@! TO.C,L1*
X92092000Y-32602000D02*
X90042000Y-32602000D01*
X92092000Y-31152000D02*
X92092000Y-32602000D01*
X90042000Y-31152000D02*
X92092000Y-31152000D01*
X90042000Y-32602000D02*
X90042000Y-31152000D01*
X149242000Y-108802000D02*
X147192000Y-108802000D01*
X149242000Y-107352000D02*
X149242000Y-108802000D01*
X147192000Y-107352000D02*
X149242000Y-107352000D01*
X147192000Y-108802000D02*
X147192000Y-107352000D01*
X130192000Y-108802000D02*
X128142000Y-108802000D01*
X130192000Y-107352000D02*
X130192000Y-108802000D01*
X128142000Y-107352000D02*
X130192000Y-107352000D01*
X128142000Y-108802000D02*
X128142000Y-107352000D01*
X111142000Y-108802000D02*
X109092000Y-108802000D01*
X111142000Y-107352000D02*
X111142000Y-108802000D01*
X109092000Y-107352000D02*
X111142000Y-107352000D01*
X109092000Y-108802000D02*
X109092000Y-107352000D01*
X92092000Y-108802000D02*
X90042000Y-108802000D01*
X92092000Y-107352000D02*
X92092000Y-108802000D01*
X90042000Y-107352000D02*
X92092000Y-107352000D01*
X90042000Y-108802000D02*
X90042000Y-107352000D01*
X73042000Y-108802000D02*
X70992000Y-108802000D01*
X73042000Y-107352000D02*
X73042000Y-108802000D01*
X70992000Y-107352000D02*
X73042000Y-107352000D01*
X70992000Y-108802000D02*
X70992000Y-107352000D01*
X149242000Y-89752000D02*
X147192000Y-89752000D01*
X149242000Y-88302000D02*
X149242000Y-89752000D01*
X147192000Y-88302000D02*
X149242000Y-88302000D01*
X147192000Y-89752000D02*
X147192000Y-88302000D01*
X130192000Y-89752000D02*
X128142000Y-89752000D01*
X130192000Y-88302000D02*
X130192000Y-89752000D01*
X128142000Y-88302000D02*
X130192000Y-88302000D01*
X128142000Y-89752000D02*
X128142000Y-88302000D01*
X111142000Y-89752000D02*
X109092000Y-89752000D01*
X111142000Y-88302000D02*
X111142000Y-89752000D01*
X109092000Y-88302000D02*
X111142000Y-88302000D01*
X109092000Y-89752000D02*
X109092000Y-88302000D01*
X92092000Y-89752000D02*
X90042000Y-89752000D01*
X92092000Y-88302000D02*
X92092000Y-89752000D01*
X90042000Y-88302000D02*
X92092000Y-88302000D01*
X90042000Y-89752000D02*
X90042000Y-88302000D01*
X73042000Y-89752000D02*
X70992000Y-89752000D01*
X73042000Y-88302000D02*
X73042000Y-89752000D01*
X70992000Y-88302000D02*
X73042000Y-88302000D01*
X70992000Y-89752000D02*
X70992000Y-88302000D01*
X149242000Y-70702000D02*
X147192000Y-70702000D01*
X149242000Y-69252000D02*
X149242000Y-70702000D01*
X147192000Y-69252000D02*
X149242000Y-69252000D01*
X147192000Y-70702000D02*
X147192000Y-69252000D01*
X130192000Y-70702000D02*
X128142000Y-70702000D01*
X130192000Y-69252000D02*
X130192000Y-70702000D01*
X128142000Y-69252000D02*
X130192000Y-69252000D01*
X128142000Y-70702000D02*
X128142000Y-69252000D01*
X111142000Y-70702000D02*
X109092000Y-70702000D01*
X111142000Y-69252000D02*
X111142000Y-70702000D01*
X109092000Y-69252000D02*
X111142000Y-69252000D01*
X109092000Y-70702000D02*
X109092000Y-69252000D01*
X92092000Y-70702000D02*
X90042000Y-70702000D01*
X92092000Y-69252000D02*
X92092000Y-70702000D01*
X90042000Y-69252000D02*
X92092000Y-69252000D01*
X90042000Y-70702000D02*
X90042000Y-69252000D01*
X73042000Y-70702000D02*
X70992000Y-70702000D01*
X73042000Y-69252000D02*
X73042000Y-70702000D01*
X70992000Y-69252000D02*
X73042000Y-69252000D01*
X70992000Y-70702000D02*
X70992000Y-69252000D01*
X149242000Y-51652000D02*
X147192000Y-51652000D01*
X149242000Y-50202000D02*
X149242000Y-51652000D01*
X147192000Y-50202000D02*
X149242000Y-50202000D01*
X147192000Y-51652000D02*
X147192000Y-50202000D01*
X130192000Y-51652000D02*
X128142000Y-51652000D01*
X130192000Y-50202000D02*
X130192000Y-51652000D01*
X128142000Y-50202000D02*
X130192000Y-50202000D01*
X128142000Y-51652000D02*
X128142000Y-50202000D01*
X111142000Y-51652000D02*
X109092000Y-51652000D01*
X111142000Y-50202000D02*
X111142000Y-51652000D01*
X109092000Y-50202000D02*
X111142000Y-50202000D01*
X109092000Y-51652000D02*
X109092000Y-50202000D01*
X92092000Y-51652000D02*
X90042000Y-51652000D01*
X92092000Y-50202000D02*
X92092000Y-51652000D01*
X90042000Y-50202000D02*
X92092000Y-50202000D01*
X90042000Y-51652000D02*
X90042000Y-50202000D01*
X73042000Y-51652000D02*
X70992000Y-51652000D01*
X73042000Y-50202000D02*
X73042000Y-51652000D01*
X70992000Y-50202000D02*
X73042000Y-50202000D01*
X70992000Y-51652000D02*
X70992000Y-50202000D01*
X149242000Y-32602000D02*
X147192000Y-32602000D01*
X149242000Y-31152000D02*
X149242000Y-32602000D01*
X147192000Y-31152000D02*
X149242000Y-31152000D01*
X147192000Y-32602000D02*
X147192000Y-31152000D01*
X130192000Y-32602000D02*
X128142000Y-32602000D01*
X130192000Y-31152000D02*
X130192000Y-32602000D01*
X128142000Y-31152000D02*
X130192000Y-31152000D01*
X128142000Y-32602000D02*
X128142000Y-31152000D01*
X111142000Y-32602000D02*
X109092000Y-32602000D01*
X111142000Y-31152000D02*
X111142000Y-32602000D01*
X109092000Y-31152000D02*
X111142000Y-31152000D01*
X109092000Y-32602000D02*
X109092000Y-31152000D01*
X73042000Y-32602000D02*
X70992000Y-32602000D01*
X73042000Y-31152000D02*
X73042000Y-32602000D01*
X70992000Y-31152000D02*
X73042000Y-31152000D01*
X70992000Y-32602000D02*
X70992000Y-31152000D01*
D10*
G04 #@! TO.C,D*
X70742000Y-61557000D02*
X70742000Y-63157000D01*
X74242000Y-61557000D02*
X70742000Y-61557000D01*
X74242000Y-63157000D02*
X74242000Y-61557000D01*
X70742000Y-63157000D02*
X74242000Y-63157000D01*
X71242000Y-63157000D02*
X71242000Y-61557000D01*
X70742000Y-62357000D02*
X70342000Y-62357000D01*
X74242000Y-62357000D02*
X74642000Y-62357000D01*
X70742000Y-42507000D02*
X70742000Y-44107000D01*
X74242000Y-42507000D02*
X70742000Y-42507000D01*
X74242000Y-44107000D02*
X74242000Y-42507000D01*
X70742000Y-44107000D02*
X74242000Y-44107000D01*
X71242000Y-44107000D02*
X71242000Y-42507000D01*
X70742000Y-43307000D02*
X70342000Y-43307000D01*
X74242000Y-43307000D02*
X74642000Y-43307000D01*
X89792000Y-42507000D02*
X89792000Y-44107000D01*
X93292000Y-42507000D02*
X89792000Y-42507000D01*
X93292000Y-44107000D02*
X93292000Y-42507000D01*
X89792000Y-44107000D02*
X93292000Y-44107000D01*
X90292000Y-44107000D02*
X90292000Y-42507000D01*
X89792000Y-43307000D02*
X89392000Y-43307000D01*
X93292000Y-43307000D02*
X93692000Y-43307000D01*
X127892000Y-42507000D02*
X127892000Y-44107000D01*
X131392000Y-42507000D02*
X127892000Y-42507000D01*
X131392000Y-44107000D02*
X131392000Y-42507000D01*
X127892000Y-44107000D02*
X131392000Y-44107000D01*
X128392000Y-44107000D02*
X128392000Y-42507000D01*
X127892000Y-43307000D02*
X127492000Y-43307000D01*
X131392000Y-43307000D02*
X131792000Y-43307000D01*
X146942000Y-42507000D02*
X146942000Y-44107000D01*
X150442000Y-42507000D02*
X146942000Y-42507000D01*
X150442000Y-44107000D02*
X150442000Y-42507000D01*
X146942000Y-44107000D02*
X150442000Y-44107000D01*
X147442000Y-44107000D02*
X147442000Y-42507000D01*
X146942000Y-43307000D02*
X146542000Y-43307000D01*
X150442000Y-43307000D02*
X150842000Y-43307000D01*
X89792000Y-61557000D02*
X89792000Y-63157000D01*
X93292000Y-61557000D02*
X89792000Y-61557000D01*
X93292000Y-63157000D02*
X93292000Y-61557000D01*
X89792000Y-63157000D02*
X93292000Y-63157000D01*
X90292000Y-63157000D02*
X90292000Y-61557000D01*
X89792000Y-62357000D02*
X89392000Y-62357000D01*
X93292000Y-62357000D02*
X93692000Y-62357000D01*
X108842000Y-61557000D02*
X108842000Y-63157000D01*
X112342000Y-61557000D02*
X108842000Y-61557000D01*
X112342000Y-63157000D02*
X112342000Y-61557000D01*
X108842000Y-63157000D02*
X112342000Y-63157000D01*
X109342000Y-63157000D02*
X109342000Y-61557000D01*
X108842000Y-62357000D02*
X108442000Y-62357000D01*
X112342000Y-62357000D02*
X112742000Y-62357000D01*
X127892000Y-61557000D02*
X127892000Y-63157000D01*
X131392000Y-61557000D02*
X127892000Y-61557000D01*
X131392000Y-63157000D02*
X131392000Y-61557000D01*
X127892000Y-63157000D02*
X131392000Y-63157000D01*
X128392000Y-63157000D02*
X128392000Y-61557000D01*
X127892000Y-62357000D02*
X127492000Y-62357000D01*
X131392000Y-62357000D02*
X131792000Y-62357000D01*
X146942000Y-61557000D02*
X146942000Y-63157000D01*
X150442000Y-61557000D02*
X146942000Y-61557000D01*
X150442000Y-63157000D02*
X150442000Y-61557000D01*
X146942000Y-63157000D02*
X150442000Y-63157000D01*
X147442000Y-63157000D02*
X147442000Y-61557000D01*
X146942000Y-62357000D02*
X146542000Y-62357000D01*
X150442000Y-62357000D02*
X150842000Y-62357000D01*
X70742000Y-80607000D02*
X70742000Y-82207000D01*
X74242000Y-80607000D02*
X70742000Y-80607000D01*
X74242000Y-82207000D02*
X74242000Y-80607000D01*
X70742000Y-82207000D02*
X74242000Y-82207000D01*
X71242000Y-82207000D02*
X71242000Y-80607000D01*
X70742000Y-81407000D02*
X70342000Y-81407000D01*
X74242000Y-81407000D02*
X74642000Y-81407000D01*
X89792000Y-80607000D02*
X89792000Y-82207000D01*
X93292000Y-80607000D02*
X89792000Y-80607000D01*
X93292000Y-82207000D02*
X93292000Y-80607000D01*
X89792000Y-82207000D02*
X93292000Y-82207000D01*
X90292000Y-82207000D02*
X90292000Y-80607000D01*
X89792000Y-81407000D02*
X89392000Y-81407000D01*
X93292000Y-81407000D02*
X93692000Y-81407000D01*
X108842000Y-80607000D02*
X108842000Y-82207000D01*
X112342000Y-80607000D02*
X108842000Y-80607000D01*
X112342000Y-82207000D02*
X112342000Y-80607000D01*
X108842000Y-82207000D02*
X112342000Y-82207000D01*
X109342000Y-82207000D02*
X109342000Y-80607000D01*
X108842000Y-81407000D02*
X108442000Y-81407000D01*
X112342000Y-81407000D02*
X112742000Y-81407000D01*
X127892000Y-80607000D02*
X127892000Y-82207000D01*
X131392000Y-80607000D02*
X127892000Y-80607000D01*
X131392000Y-82207000D02*
X131392000Y-80607000D01*
X127892000Y-82207000D02*
X131392000Y-82207000D01*
X128392000Y-82207000D02*
X128392000Y-80607000D01*
X127892000Y-81407000D02*
X127492000Y-81407000D01*
X131392000Y-81407000D02*
X131792000Y-81407000D01*
X146942000Y-80607000D02*
X146942000Y-82207000D01*
X150442000Y-80607000D02*
X146942000Y-80607000D01*
X150442000Y-82207000D02*
X150442000Y-80607000D01*
X146942000Y-82207000D02*
X150442000Y-82207000D01*
X147442000Y-82207000D02*
X147442000Y-80607000D01*
X146942000Y-81407000D02*
X146542000Y-81407000D01*
X150442000Y-81407000D02*
X150842000Y-81407000D01*
X70742000Y-99657000D02*
X70742000Y-101257000D01*
X74242000Y-99657000D02*
X70742000Y-99657000D01*
X74242000Y-101257000D02*
X74242000Y-99657000D01*
X70742000Y-101257000D02*
X74242000Y-101257000D01*
X71242000Y-101257000D02*
X71242000Y-99657000D01*
X70742000Y-100457000D02*
X70342000Y-100457000D01*
X74242000Y-100457000D02*
X74642000Y-100457000D01*
X89792000Y-99657000D02*
X89792000Y-101257000D01*
X93292000Y-99657000D02*
X89792000Y-99657000D01*
X93292000Y-101257000D02*
X93292000Y-99657000D01*
X89792000Y-101257000D02*
X93292000Y-101257000D01*
X90292000Y-101257000D02*
X90292000Y-99657000D01*
X89792000Y-100457000D02*
X89392000Y-100457000D01*
X93292000Y-100457000D02*
X93692000Y-100457000D01*
X108842000Y-99657000D02*
X108842000Y-101257000D01*
X112342000Y-99657000D02*
X108842000Y-99657000D01*
X112342000Y-101257000D02*
X112342000Y-99657000D01*
X108842000Y-101257000D02*
X112342000Y-101257000D01*
X109342000Y-101257000D02*
X109342000Y-99657000D01*
X108842000Y-100457000D02*
X108442000Y-100457000D01*
X112342000Y-100457000D02*
X112742000Y-100457000D01*
X127892000Y-99657000D02*
X127892000Y-101257000D01*
X131392000Y-99657000D02*
X127892000Y-99657000D01*
X131392000Y-101257000D02*
X131392000Y-99657000D01*
X127892000Y-101257000D02*
X131392000Y-101257000D01*
X128392000Y-101257000D02*
X128392000Y-99657000D01*
X127892000Y-100457000D02*
X127492000Y-100457000D01*
X131392000Y-100457000D02*
X131792000Y-100457000D01*
X146942000Y-99657000D02*
X146942000Y-101257000D01*
X150442000Y-99657000D02*
X146942000Y-99657000D01*
X150442000Y-101257000D02*
X150442000Y-99657000D01*
X146942000Y-101257000D02*
X150442000Y-101257000D01*
X147442000Y-101257000D02*
X147442000Y-99657000D01*
X146942000Y-100457000D02*
X146542000Y-100457000D01*
X150442000Y-100457000D02*
X150842000Y-100457000D01*
X70742000Y-118707000D02*
X70742000Y-120307000D01*
X74242000Y-118707000D02*
X70742000Y-118707000D01*
X74242000Y-120307000D02*
X74242000Y-118707000D01*
X70742000Y-120307000D02*
X74242000Y-120307000D01*
X71242000Y-120307000D02*
X71242000Y-118707000D01*
X70742000Y-119507000D02*
X70342000Y-119507000D01*
X74242000Y-119507000D02*
X74642000Y-119507000D01*
X89792000Y-118707000D02*
X89792000Y-120307000D01*
X93292000Y-118707000D02*
X89792000Y-118707000D01*
X93292000Y-120307000D02*
X93292000Y-118707000D01*
X89792000Y-120307000D02*
X93292000Y-120307000D01*
X90292000Y-120307000D02*
X90292000Y-118707000D01*
X89792000Y-119507000D02*
X89392000Y-119507000D01*
X93292000Y-119507000D02*
X93692000Y-119507000D01*
X108842000Y-118707000D02*
X108842000Y-120307000D01*
X112342000Y-118707000D02*
X108842000Y-118707000D01*
X112342000Y-120307000D02*
X112342000Y-118707000D01*
X108842000Y-120307000D02*
X112342000Y-120307000D01*
X109342000Y-120307000D02*
X109342000Y-118707000D01*
X108842000Y-119507000D02*
X108442000Y-119507000D01*
X112342000Y-119507000D02*
X112742000Y-119507000D01*
X127892000Y-118707000D02*
X127892000Y-120307000D01*
X131392000Y-118707000D02*
X127892000Y-118707000D01*
X131392000Y-120307000D02*
X131392000Y-118707000D01*
X127892000Y-120307000D02*
X131392000Y-120307000D01*
X128392000Y-120307000D02*
X128392000Y-118707000D01*
X127892000Y-119507000D02*
X127492000Y-119507000D01*
X131392000Y-119507000D02*
X131792000Y-119507000D01*
X146942000Y-118707000D02*
X146942000Y-120307000D01*
X150442000Y-118707000D02*
X146942000Y-118707000D01*
X150442000Y-120307000D02*
X150442000Y-118707000D01*
X146942000Y-120307000D02*
X150442000Y-120307000D01*
X147442000Y-120307000D02*
X147442000Y-118707000D01*
X146942000Y-119507000D02*
X146542000Y-119507000D01*
X150442000Y-119507000D02*
X150842000Y-119507000D01*
X111005904Y-43759380D02*
X111005904Y-42759380D01*
X110767809Y-42759380D01*
X110624952Y-42807000D01*
X110529714Y-42902238D01*
X110482095Y-42997476D01*
X110434476Y-43187952D01*
X110434476Y-43330809D01*
X110482095Y-43521285D01*
X110529714Y-43616523D01*
X110624952Y-43711761D01*
X110767809Y-43759380D01*
X111005904Y-43759380D01*
X72905904Y-62809380D02*
X72905904Y-61809380D01*
X72667809Y-61809380D01*
X72524952Y-61857000D01*
X72429714Y-61952238D01*
X72382095Y-62047476D01*
X72334476Y-62237952D01*
X72334476Y-62380809D01*
X72382095Y-62571285D01*
X72429714Y-62666523D01*
X72524952Y-62761761D01*
X72667809Y-62809380D01*
X72905904Y-62809380D01*
X72905904Y-43759380D02*
X72905904Y-42759380D01*
X72667809Y-42759380D01*
X72524952Y-42807000D01*
X72429714Y-42902238D01*
X72382095Y-42997476D01*
X72334476Y-43187952D01*
X72334476Y-43330809D01*
X72382095Y-43521285D01*
X72429714Y-43616523D01*
X72524952Y-43711761D01*
X72667809Y-43759380D01*
X72905904Y-43759380D01*
X91955904Y-43759380D02*
X91955904Y-42759380D01*
X91717809Y-42759380D01*
X91574952Y-42807000D01*
X91479714Y-42902238D01*
X91432095Y-42997476D01*
X91384476Y-43187952D01*
X91384476Y-43330809D01*
X91432095Y-43521285D01*
X91479714Y-43616523D01*
X91574952Y-43711761D01*
X91717809Y-43759380D01*
X91955904Y-43759380D01*
X130055904Y-43759380D02*
X130055904Y-42759380D01*
X129817809Y-42759380D01*
X129674952Y-42807000D01*
X129579714Y-42902238D01*
X129532095Y-42997476D01*
X129484476Y-43187952D01*
X129484476Y-43330809D01*
X129532095Y-43521285D01*
X129579714Y-43616523D01*
X129674952Y-43711761D01*
X129817809Y-43759380D01*
X130055904Y-43759380D01*
X149105904Y-43759380D02*
X149105904Y-42759380D01*
X148867809Y-42759380D01*
X148724952Y-42807000D01*
X148629714Y-42902238D01*
X148582095Y-42997476D01*
X148534476Y-43187952D01*
X148534476Y-43330809D01*
X148582095Y-43521285D01*
X148629714Y-43616523D01*
X148724952Y-43711761D01*
X148867809Y-43759380D01*
X149105904Y-43759380D01*
X91955904Y-62809380D02*
X91955904Y-61809380D01*
X91717809Y-61809380D01*
X91574952Y-61857000D01*
X91479714Y-61952238D01*
X91432095Y-62047476D01*
X91384476Y-62237952D01*
X91384476Y-62380809D01*
X91432095Y-62571285D01*
X91479714Y-62666523D01*
X91574952Y-62761761D01*
X91717809Y-62809380D01*
X91955904Y-62809380D01*
X111005904Y-62809380D02*
X111005904Y-61809380D01*
X110767809Y-61809380D01*
X110624952Y-61857000D01*
X110529714Y-61952238D01*
X110482095Y-62047476D01*
X110434476Y-62237952D01*
X110434476Y-62380809D01*
X110482095Y-62571285D01*
X110529714Y-62666523D01*
X110624952Y-62761761D01*
X110767809Y-62809380D01*
X111005904Y-62809380D01*
X130055904Y-62809380D02*
X130055904Y-61809380D01*
X129817809Y-61809380D01*
X129674952Y-61857000D01*
X129579714Y-61952238D01*
X129532095Y-62047476D01*
X129484476Y-62237952D01*
X129484476Y-62380809D01*
X129532095Y-62571285D01*
X129579714Y-62666523D01*
X129674952Y-62761761D01*
X129817809Y-62809380D01*
X130055904Y-62809380D01*
X149105904Y-62809380D02*
X149105904Y-61809380D01*
X148867809Y-61809380D01*
X148724952Y-61857000D01*
X148629714Y-61952238D01*
X148582095Y-62047476D01*
X148534476Y-62237952D01*
X148534476Y-62380809D01*
X148582095Y-62571285D01*
X148629714Y-62666523D01*
X148724952Y-62761761D01*
X148867809Y-62809380D01*
X149105904Y-62809380D01*
X72905904Y-81859380D02*
X72905904Y-80859380D01*
X72667809Y-80859380D01*
X72524952Y-80907000D01*
X72429714Y-81002238D01*
X72382095Y-81097476D01*
X72334476Y-81287952D01*
X72334476Y-81430809D01*
X72382095Y-81621285D01*
X72429714Y-81716523D01*
X72524952Y-81811761D01*
X72667809Y-81859380D01*
X72905904Y-81859380D01*
X91955904Y-81859380D02*
X91955904Y-80859380D01*
X91717809Y-80859380D01*
X91574952Y-80907000D01*
X91479714Y-81002238D01*
X91432095Y-81097476D01*
X91384476Y-81287952D01*
X91384476Y-81430809D01*
X91432095Y-81621285D01*
X91479714Y-81716523D01*
X91574952Y-81811761D01*
X91717809Y-81859380D01*
X91955904Y-81859380D01*
X111005904Y-81859380D02*
X111005904Y-80859380D01*
X110767809Y-80859380D01*
X110624952Y-80907000D01*
X110529714Y-81002238D01*
X110482095Y-81097476D01*
X110434476Y-81287952D01*
X110434476Y-81430809D01*
X110482095Y-81621285D01*
X110529714Y-81716523D01*
X110624952Y-81811761D01*
X110767809Y-81859380D01*
X111005904Y-81859380D01*
X130055904Y-81859380D02*
X130055904Y-80859380D01*
X129817809Y-80859380D01*
X129674952Y-80907000D01*
X129579714Y-81002238D01*
X129532095Y-81097476D01*
X129484476Y-81287952D01*
X129484476Y-81430809D01*
X129532095Y-81621285D01*
X129579714Y-81716523D01*
X129674952Y-81811761D01*
X129817809Y-81859380D01*
X130055904Y-81859380D01*
X149105904Y-81859380D02*
X149105904Y-80859380D01*
X148867809Y-80859380D01*
X148724952Y-80907000D01*
X148629714Y-81002238D01*
X148582095Y-81097476D01*
X148534476Y-81287952D01*
X148534476Y-81430809D01*
X148582095Y-81621285D01*
X148629714Y-81716523D01*
X148724952Y-81811761D01*
X148867809Y-81859380D01*
X149105904Y-81859380D01*
X72905904Y-100909380D02*
X72905904Y-99909380D01*
X72667809Y-99909380D01*
X72524952Y-99957000D01*
X72429714Y-100052238D01*
X72382095Y-100147476D01*
X72334476Y-100337952D01*
X72334476Y-100480809D01*
X72382095Y-100671285D01*
X72429714Y-100766523D01*
X72524952Y-100861761D01*
X72667809Y-100909380D01*
X72905904Y-100909380D01*
X91955904Y-100909380D02*
X91955904Y-99909380D01*
X91717809Y-99909380D01*
X91574952Y-99957000D01*
X91479714Y-100052238D01*
X91432095Y-100147476D01*
X91384476Y-100337952D01*
X91384476Y-100480809D01*
X91432095Y-100671285D01*
X91479714Y-100766523D01*
X91574952Y-100861761D01*
X91717809Y-100909380D01*
X91955904Y-100909380D01*
X111005904Y-100909380D02*
X111005904Y-99909380D01*
X110767809Y-99909380D01*
X110624952Y-99957000D01*
X110529714Y-100052238D01*
X110482095Y-100147476D01*
X110434476Y-100337952D01*
X110434476Y-100480809D01*
X110482095Y-100671285D01*
X110529714Y-100766523D01*
X110624952Y-100861761D01*
X110767809Y-100909380D01*
X111005904Y-100909380D01*
X130055904Y-100909380D02*
X130055904Y-99909380D01*
X129817809Y-99909380D01*
X129674952Y-99957000D01*
X129579714Y-100052238D01*
X129532095Y-100147476D01*
X129484476Y-100337952D01*
X129484476Y-100480809D01*
X129532095Y-100671285D01*
X129579714Y-100766523D01*
X129674952Y-100861761D01*
X129817809Y-100909380D01*
X130055904Y-100909380D01*
X149105904Y-100909380D02*
X149105904Y-99909380D01*
X148867809Y-99909380D01*
X148724952Y-99957000D01*
X148629714Y-100052238D01*
X148582095Y-100147476D01*
X148534476Y-100337952D01*
X148534476Y-100480809D01*
X148582095Y-100671285D01*
X148629714Y-100766523D01*
X148724952Y-100861761D01*
X148867809Y-100909380D01*
X149105904Y-100909380D01*
X72905904Y-119959380D02*
X72905904Y-118959380D01*
X72667809Y-118959380D01*
X72524952Y-119007000D01*
X72429714Y-119102238D01*
X72382095Y-119197476D01*
X72334476Y-119387952D01*
X72334476Y-119530809D01*
X72382095Y-119721285D01*
X72429714Y-119816523D01*
X72524952Y-119911761D01*
X72667809Y-119959380D01*
X72905904Y-119959380D01*
X91955904Y-119959380D02*
X91955904Y-118959380D01*
X91717809Y-118959380D01*
X91574952Y-119007000D01*
X91479714Y-119102238D01*
X91432095Y-119197476D01*
X91384476Y-119387952D01*
X91384476Y-119530809D01*
X91432095Y-119721285D01*
X91479714Y-119816523D01*
X91574952Y-119911761D01*
X91717809Y-119959380D01*
X91955904Y-119959380D01*
X111005904Y-119959380D02*
X111005904Y-118959380D01*
X110767809Y-118959380D01*
X110624952Y-119007000D01*
X110529714Y-119102238D01*
X110482095Y-119197476D01*
X110434476Y-119387952D01*
X110434476Y-119530809D01*
X110482095Y-119721285D01*
X110529714Y-119816523D01*
X110624952Y-119911761D01*
X110767809Y-119959380D01*
X111005904Y-119959380D01*
X130055904Y-119959380D02*
X130055904Y-118959380D01*
X129817809Y-118959380D01*
X129674952Y-119007000D01*
X129579714Y-119102238D01*
X129532095Y-119197476D01*
X129484476Y-119387952D01*
X129484476Y-119530809D01*
X129532095Y-119721285D01*
X129579714Y-119816523D01*
X129674952Y-119911761D01*
X129817809Y-119959380D01*
X130055904Y-119959380D01*
X149105904Y-119959380D02*
X149105904Y-118959380D01*
X148867809Y-118959380D01*
X148724952Y-119007000D01*
X148629714Y-119102238D01*
X148582095Y-119197476D01*
X148534476Y-119387952D01*
X148534476Y-119530809D01*
X148582095Y-119721285D01*
X148629714Y-119816523D01*
X148724952Y-119911761D01*
X148867809Y-119959380D01*
X149105904Y-119959380D01*
G04 #@! TD*
%LPC*%
D12*
G04 #@! TO.C,SW15*
X145542000Y-73787000D03*
D13*
X148082000Y-78867000D03*
D14*
X150622000Y-73787000D03*
D13*
X154432000Y-76327000D03*
D12*
X155702000Y-73787000D03*
G04 #@! TD*
G04 #@! TO.C,SW10*
X145542000Y-54737000D03*
D13*
X148082000Y-59817000D03*
D14*
X150622000Y-54737000D03*
D13*
X154432000Y-57277000D03*
D12*
X155702000Y-54737000D03*
G04 #@! TD*
D15*
G04 #@! TO.C,D*
X107442000Y-43307000D03*
D16*
X113792000Y-43307000D03*
G04 #@! TD*
D12*
G04 #@! TO.C,SW3*
X107442000Y-35687000D03*
D13*
X109982000Y-40767000D03*
D14*
X112522000Y-35687000D03*
D13*
X116332000Y-38227000D03*
D12*
X117602000Y-35687000D03*
G04 #@! TD*
D17*
G04 #@! TO.C,L1*
X91072000Y-30127000D03*
X91072000Y-31877000D03*
X95872000Y-31877000D03*
X95872000Y-30127000D03*
G04 #@! TD*
G04 #@! TO.C,L1*
X148222000Y-106327000D03*
X148222000Y-108077000D03*
X153022000Y-108077000D03*
X153022000Y-106327000D03*
G04 #@! TD*
G04 #@! TO.C,L1*
X129172000Y-106327000D03*
X129172000Y-108077000D03*
X133972000Y-108077000D03*
X133972000Y-106327000D03*
G04 #@! TD*
G04 #@! TO.C,L1*
X110122000Y-106327000D03*
X110122000Y-108077000D03*
X114922000Y-108077000D03*
X114922000Y-106327000D03*
G04 #@! TD*
G04 #@! TO.C,L1*
X91072000Y-106327000D03*
X91072000Y-108077000D03*
X95872000Y-108077000D03*
X95872000Y-106327000D03*
G04 #@! TD*
G04 #@! TO.C,L1*
X72022000Y-106327000D03*
X72022000Y-108077000D03*
X76822000Y-108077000D03*
X76822000Y-106327000D03*
G04 #@! TD*
G04 #@! TO.C,L1*
X148222000Y-87277000D03*
X148222000Y-89027000D03*
X153022000Y-89027000D03*
X153022000Y-87277000D03*
G04 #@! TD*
G04 #@! TO.C,L1*
X129172000Y-87277000D03*
X129172000Y-89027000D03*
X133972000Y-89027000D03*
X133972000Y-87277000D03*
G04 #@! TD*
G04 #@! TO.C,L1*
X110122000Y-87277000D03*
X110122000Y-89027000D03*
X114922000Y-89027000D03*
X114922000Y-87277000D03*
G04 #@! TD*
G04 #@! TO.C,L1*
X91072000Y-87277000D03*
X91072000Y-89027000D03*
X95872000Y-89027000D03*
X95872000Y-87277000D03*
G04 #@! TD*
G04 #@! TO.C,L1*
X72022000Y-87277000D03*
X72022000Y-89027000D03*
X76822000Y-89027000D03*
X76822000Y-87277000D03*
G04 #@! TD*
G04 #@! TO.C,L1*
X148222000Y-68227000D03*
X148222000Y-69977000D03*
X153022000Y-69977000D03*
X153022000Y-68227000D03*
G04 #@! TD*
G04 #@! TO.C,L1*
X129172000Y-68227000D03*
X129172000Y-69977000D03*
X133972000Y-69977000D03*
X133972000Y-68227000D03*
G04 #@! TD*
G04 #@! TO.C,L1*
X110122000Y-68227000D03*
X110122000Y-69977000D03*
X114922000Y-69977000D03*
X114922000Y-68227000D03*
G04 #@! TD*
G04 #@! TO.C,L1*
X91072000Y-68227000D03*
X91072000Y-69977000D03*
X95872000Y-69977000D03*
X95872000Y-68227000D03*
G04 #@! TD*
G04 #@! TO.C,L1*
X72022000Y-68227000D03*
X72022000Y-69977000D03*
X76822000Y-69977000D03*
X76822000Y-68227000D03*
G04 #@! TD*
G04 #@! TO.C,L1*
X148222000Y-49177000D03*
X148222000Y-50927000D03*
X153022000Y-50927000D03*
X153022000Y-49177000D03*
G04 #@! TD*
G04 #@! TO.C,L1*
X129172000Y-49177000D03*
X129172000Y-50927000D03*
X133972000Y-50927000D03*
X133972000Y-49177000D03*
G04 #@! TD*
G04 #@! TO.C,L1*
X110122000Y-49177000D03*
X110122000Y-50927000D03*
X114922000Y-50927000D03*
X114922000Y-49177000D03*
G04 #@! TD*
G04 #@! TO.C,L1*
X91072000Y-49177000D03*
X91072000Y-50927000D03*
X95872000Y-50927000D03*
X95872000Y-49177000D03*
G04 #@! TD*
G04 #@! TO.C,L1*
X72022000Y-49177000D03*
X72022000Y-50927000D03*
X76822000Y-50927000D03*
X76822000Y-49177000D03*
G04 #@! TD*
G04 #@! TO.C,L1*
X148222000Y-30127000D03*
X148222000Y-31877000D03*
X153022000Y-31877000D03*
X153022000Y-30127000D03*
G04 #@! TD*
G04 #@! TO.C,L1*
X129172000Y-30127000D03*
X129172000Y-31877000D03*
X133972000Y-31877000D03*
X133972000Y-30127000D03*
G04 #@! TD*
G04 #@! TO.C,L1*
X110122000Y-30127000D03*
X110122000Y-31877000D03*
X114922000Y-31877000D03*
X114922000Y-30127000D03*
G04 #@! TD*
G04 #@! TO.C,L1*
X72022000Y-30127000D03*
X72022000Y-31877000D03*
X76822000Y-31877000D03*
X76822000Y-30127000D03*
G04 #@! TD*
D18*
G04 #@! TO.C,REF\002A\002A*
X158242000Y-111887000D03*
G04 #@! TD*
G04 #@! TO.C,REF\002A\002A*
X139192000Y-111887000D03*
G04 #@! TD*
G04 #@! TO.C,REF\002A\002A*
X120142000Y-111887000D03*
G04 #@! TD*
G04 #@! TO.C,REF\002A\002A*
X101092000Y-111887000D03*
G04 #@! TD*
G04 #@! TO.C,REF\002A\002A*
X143002000Y-111887000D03*
G04 #@! TD*
G04 #@! TO.C,REF\002A\002A*
X123952000Y-111887000D03*
G04 #@! TD*
G04 #@! TO.C,REF\002A\002A*
X104902000Y-111887000D03*
G04 #@! TD*
G04 #@! TO.C,REF\002A\002A*
X85852000Y-111887000D03*
G04 #@! TD*
G04 #@! TO.C,REF\002A\002A*
X158242000Y-92837000D03*
G04 #@! TD*
G04 #@! TO.C,REF\002A\002A*
X139192000Y-92837000D03*
G04 #@! TD*
G04 #@! TO.C,REF\002A\002A*
X120142000Y-92837000D03*
G04 #@! TD*
G04 #@! TO.C,REF\002A\002A*
X101092000Y-92837000D03*
G04 #@! TD*
G04 #@! TO.C,REF\002A\002A*
X143002000Y-92837000D03*
G04 #@! TD*
G04 #@! TO.C,REF\002A\002A*
X123952000Y-92837000D03*
G04 #@! TD*
G04 #@! TO.C,REF\002A\002A*
X104902000Y-92837000D03*
G04 #@! TD*
G04 #@! TO.C,REF\002A\002A*
X85852000Y-92837000D03*
G04 #@! TD*
G04 #@! TO.C,REF\002A\002A*
X143002000Y-73787000D03*
G04 #@! TD*
G04 #@! TO.C,REF\002A\002A*
X123952000Y-73787000D03*
G04 #@! TD*
G04 #@! TO.C,REF\002A\002A*
X104902000Y-73787000D03*
G04 #@! TD*
G04 #@! TO.C,REF\002A\002A*
X85852000Y-73787000D03*
G04 #@! TD*
G04 #@! TO.C,REF\002A\002A*
X158242000Y-73787000D03*
G04 #@! TD*
G04 #@! TO.C,REF\002A\002A*
X139192000Y-73787000D03*
G04 #@! TD*
G04 #@! TO.C,REF\002A\002A*
X120142000Y-73787000D03*
G04 #@! TD*
G04 #@! TO.C,REF\002A\002A*
X101092000Y-73787000D03*
G04 #@! TD*
G04 #@! TO.C,REF\002A\002A*
X158242000Y-115697000D03*
G04 #@! TD*
G04 #@! TO.C,REF\002A\002A*
X139192000Y-115697000D03*
G04 #@! TD*
G04 #@! TO.C,REF\002A\002A*
X120142000Y-115697000D03*
G04 #@! TD*
G04 #@! TO.C,REF\002A\002A*
X101092000Y-115697000D03*
G04 #@! TD*
G04 #@! TO.C,REF\002A\002A*
X82042000Y-115697000D03*
G04 #@! TD*
G04 #@! TO.C,REF\002A\002A*
X158242000Y-96647000D03*
G04 #@! TD*
G04 #@! TO.C,REF\002A\002A*
X139192000Y-96647000D03*
G04 #@! TD*
G04 #@! TO.C,REF\002A\002A*
X120142000Y-96647000D03*
G04 #@! TD*
G04 #@! TO.C,REF\002A\002A*
X101092000Y-96647000D03*
G04 #@! TD*
G04 #@! TO.C,REF\002A\002A*
X82042000Y-96647000D03*
G04 #@! TD*
G04 #@! TO.C,REF\002A\002A*
X158242000Y-77597000D03*
G04 #@! TD*
G04 #@! TO.C,REF\002A\002A*
X139192000Y-77597000D03*
G04 #@! TD*
G04 #@! TO.C,REF\002A\002A*
X120142000Y-77597000D03*
G04 #@! TD*
G04 #@! TO.C,REF\002A\002A*
X101092000Y-77597000D03*
G04 #@! TD*
G04 #@! TO.C,REF\002A\002A*
X82042000Y-77597000D03*
G04 #@! TD*
G04 #@! TO.C,REF\002A\002A*
X158242000Y-58547000D03*
G04 #@! TD*
G04 #@! TO.C,REF\002A\002A*
X139192000Y-58547000D03*
G04 #@! TD*
G04 #@! TO.C,REF\002A\002A*
X120142000Y-58547000D03*
G04 #@! TD*
G04 #@! TO.C,REF\002A\002A*
X101092000Y-58547000D03*
G04 #@! TD*
G04 #@! TO.C,REF\002A\002A*
X82042000Y-58547000D03*
G04 #@! TD*
G04 #@! TO.C,REF\002A\002A*
X158242000Y-39497000D03*
G04 #@! TD*
G04 #@! TO.C,REF\002A\002A*
X139192000Y-39497000D03*
G04 #@! TD*
G04 #@! TO.C,REF\002A\002A*
X120142000Y-39497000D03*
G04 #@! TD*
G04 #@! TO.C,REF\002A\002A*
X101092000Y-39497000D03*
G04 #@! TD*
G04 #@! TO.C,REF\002A\002A*
X143002000Y-108077000D03*
G04 #@! TD*
G04 #@! TO.C,REF\002A\002A*
X123952000Y-108077000D03*
G04 #@! TD*
G04 #@! TO.C,REF\002A\002A*
X104902000Y-108077000D03*
G04 #@! TD*
G04 #@! TO.C,REF\002A\002A*
X85852000Y-108077000D03*
G04 #@! TD*
G04 #@! TO.C,REF\002A\002A*
X66802000Y-108077000D03*
G04 #@! TD*
G04 #@! TO.C,REF\002A\002A*
X143002000Y-89027000D03*
G04 #@! TD*
G04 #@! TO.C,REF\002A\002A*
X123952000Y-89027000D03*
G04 #@! TD*
G04 #@! TO.C,REF\002A\002A*
X104902000Y-89027000D03*
G04 #@! TD*
G04 #@! TO.C,REF\002A\002A*
X85852000Y-89027000D03*
G04 #@! TD*
G04 #@! TO.C,REF\002A\002A*
X66802000Y-89027000D03*
G04 #@! TD*
G04 #@! TO.C,REF\002A\002A*
X143002000Y-69977000D03*
G04 #@! TD*
G04 #@! TO.C,REF\002A\002A*
X123952000Y-69977000D03*
G04 #@! TD*
G04 #@! TO.C,REF\002A\002A*
X104902000Y-69977000D03*
G04 #@! TD*
G04 #@! TO.C,REF\002A\002A*
X85852000Y-69977000D03*
G04 #@! TD*
G04 #@! TO.C,REF\002A\002A*
X66802000Y-69977000D03*
G04 #@! TD*
G04 #@! TO.C,REF\002A\002A*
X143002000Y-50927000D03*
G04 #@! TD*
G04 #@! TO.C,REF\002A\002A*
X123952000Y-50927000D03*
G04 #@! TD*
G04 #@! TO.C,REF\002A\002A*
X104902000Y-50927000D03*
G04 #@! TD*
G04 #@! TO.C,REF\002A\002A*
X85852000Y-50927000D03*
G04 #@! TD*
G04 #@! TO.C,REF\002A\002A*
X66802000Y-50927000D03*
G04 #@! TD*
G04 #@! TO.C,REF\002A\002A*
X143002000Y-31877000D03*
G04 #@! TD*
G04 #@! TO.C,REF\002A\002A*
X123952000Y-31877000D03*
G04 #@! TD*
G04 #@! TO.C,REF\002A\002A*
X104902000Y-31877000D03*
G04 #@! TD*
G04 #@! TO.C,REF\002A\002A*
X85852000Y-31877000D03*
G04 #@! TD*
G04 #@! TO.C,REF\002A\002A*
X143002000Y-115697000D03*
G04 #@! TD*
G04 #@! TO.C,REF\002A\002A*
X123952000Y-115697000D03*
G04 #@! TD*
G04 #@! TO.C,REF\002A\002A*
X104902000Y-115697000D03*
G04 #@! TD*
G04 #@! TO.C,REF\002A\002A*
X85852000Y-115697000D03*
G04 #@! TD*
G04 #@! TO.C,REF\002A\002A*
X66802000Y-115697000D03*
G04 #@! TD*
G04 #@! TO.C,REF\002A\002A*
X143002000Y-96647000D03*
G04 #@! TD*
G04 #@! TO.C,REF\002A\002A*
X123952000Y-96647000D03*
G04 #@! TD*
G04 #@! TO.C,REF\002A\002A*
X104902000Y-96647000D03*
G04 #@! TD*
G04 #@! TO.C,REF\002A\002A*
X85852000Y-96647000D03*
G04 #@! TD*
G04 #@! TO.C,REF\002A\002A*
X66802000Y-96647000D03*
G04 #@! TD*
G04 #@! TO.C,REF\002A\002A*
X143002000Y-77597000D03*
G04 #@! TD*
G04 #@! TO.C,REF\002A\002A*
X123952000Y-77597000D03*
G04 #@! TD*
G04 #@! TO.C,REF\002A\002A*
X104902000Y-77597000D03*
G04 #@! TD*
G04 #@! TO.C,REF\002A\002A*
X85852000Y-77597000D03*
G04 #@! TD*
G04 #@! TO.C,REF\002A\002A*
X66802000Y-77597000D03*
G04 #@! TD*
G04 #@! TO.C,REF\002A\002A*
X143002000Y-58547000D03*
G04 #@! TD*
G04 #@! TO.C,REF\002A\002A*
X123952000Y-58547000D03*
G04 #@! TD*
G04 #@! TO.C,REF\002A\002A*
X104902000Y-58547000D03*
G04 #@! TD*
G04 #@! TO.C,REF\002A\002A*
X85852000Y-58547000D03*
G04 #@! TD*
G04 #@! TO.C,REF\002A\002A*
X66802000Y-58547000D03*
G04 #@! TD*
G04 #@! TO.C,REF\002A\002A*
X143002000Y-39497000D03*
G04 #@! TD*
G04 #@! TO.C,REF\002A\002A*
X123952000Y-39497000D03*
G04 #@! TD*
G04 #@! TO.C,REF\002A\002A*
X104902000Y-39497000D03*
G04 #@! TD*
G04 #@! TO.C,REF\002A\002A*
X85852000Y-39497000D03*
G04 #@! TD*
G04 #@! TO.C,REF\002A\002A*
X158242000Y-108077000D03*
G04 #@! TD*
G04 #@! TO.C,REF\002A\002A*
X139192000Y-108077000D03*
G04 #@! TD*
G04 #@! TO.C,REF\002A\002A*
X120142000Y-108077000D03*
G04 #@! TD*
G04 #@! TO.C,REF\002A\002A*
X101092000Y-108077000D03*
G04 #@! TD*
G04 #@! TO.C,REF\002A\002A*
X82042000Y-108077000D03*
G04 #@! TD*
G04 #@! TO.C,REF\002A\002A*
X158242000Y-89027000D03*
G04 #@! TD*
G04 #@! TO.C,REF\002A\002A*
X139192000Y-89027000D03*
G04 #@! TD*
G04 #@! TO.C,REF\002A\002A*
X120142000Y-89027000D03*
G04 #@! TD*
G04 #@! TO.C,REF\002A\002A*
X101092000Y-89027000D03*
G04 #@! TD*
G04 #@! TO.C,REF\002A\002A*
X82042000Y-89027000D03*
G04 #@! TD*
G04 #@! TO.C,REF\002A\002A*
X158242000Y-69977000D03*
G04 #@! TD*
G04 #@! TO.C,REF\002A\002A*
X139192000Y-69977000D03*
G04 #@! TD*
G04 #@! TO.C,REF\002A\002A*
X120142000Y-69977000D03*
G04 #@! TD*
G04 #@! TO.C,REF\002A\002A*
X101092000Y-69977000D03*
G04 #@! TD*
G04 #@! TO.C,REF\002A\002A*
X82042000Y-69977000D03*
G04 #@! TD*
G04 #@! TO.C,REF\002A\002A*
X158242000Y-50927000D03*
G04 #@! TD*
G04 #@! TO.C,REF\002A\002A*
X139192000Y-50927000D03*
G04 #@! TD*
G04 #@! TO.C,REF\002A\002A*
X120142000Y-50927000D03*
G04 #@! TD*
G04 #@! TO.C,REF\002A\002A*
X101092000Y-50927000D03*
G04 #@! TD*
G04 #@! TO.C,REF\002A\002A*
X82042000Y-50927000D03*
G04 #@! TD*
G04 #@! TO.C,REF\002A\002A*
X158242000Y-31877000D03*
G04 #@! TD*
G04 #@! TO.C,REF\002A\002A*
X139192000Y-31877000D03*
G04 #@! TD*
G04 #@! TO.C,REF\002A\002A*
X120142000Y-31877000D03*
G04 #@! TD*
G04 #@! TO.C,REF\002A\002A*
X101092000Y-31877000D03*
G04 #@! TD*
G04 #@! TO.C,REF\002A\002A*
X155067000Y-100457000D03*
G04 #@! TD*
G04 #@! TO.C,REF\002A\002A*
X143002000Y-119507000D03*
G04 #@! TD*
G04 #@! TO.C,REF\002A\002A*
X143002000Y-104267000D03*
G04 #@! TD*
G04 #@! TO.C,REF\002A\002A*
X158242000Y-104267000D03*
G04 #@! TD*
G04 #@! TO.C,REF\002A\002A*
X155067000Y-104267000D03*
G04 #@! TD*
G04 #@! TO.C,REF\002A\002A*
X158242000Y-119507000D03*
G04 #@! TD*
G04 #@! TO.C,REF\002A\002A*
X155067000Y-119507000D03*
G04 #@! TD*
G04 #@! TO.C,REF\002A\002A*
X123952000Y-119507000D03*
G04 #@! TD*
G04 #@! TO.C,REF\002A\002A*
X139192000Y-119507000D03*
G04 #@! TD*
G04 #@! TO.C,REF\002A\002A*
X136017000Y-104267000D03*
G04 #@! TD*
G04 #@! TO.C,REF\002A\002A*
X139192000Y-104267000D03*
G04 #@! TD*
G04 #@! TO.C,REF\002A\002A*
X136017000Y-119507000D03*
G04 #@! TD*
G04 #@! TO.C,REF\002A\002A*
X123952000Y-104267000D03*
G04 #@! TD*
G04 #@! TO.C,REF\002A\002A*
X104902000Y-104267000D03*
G04 #@! TD*
G04 #@! TO.C,REF\002A\002A*
X104902000Y-119507000D03*
G04 #@! TD*
G04 #@! TO.C,REF\002A\002A*
X120142000Y-104267000D03*
G04 #@! TD*
G04 #@! TO.C,REF\002A\002A*
X120142000Y-119507000D03*
G04 #@! TD*
G04 #@! TO.C,REF\002A\002A*
X116967000Y-119507000D03*
G04 #@! TD*
G04 #@! TO.C,REF\002A\002A*
X116967000Y-104267000D03*
G04 #@! TD*
G04 #@! TO.C,REF\002A\002A*
X97917000Y-119507000D03*
G04 #@! TD*
G04 #@! TO.C,REF\002A\002A*
X101092000Y-119507000D03*
G04 #@! TD*
G04 #@! TO.C,REF\002A\002A*
X85852000Y-104267000D03*
G04 #@! TD*
G04 #@! TO.C,REF\002A\002A*
X85852000Y-119507000D03*
G04 #@! TD*
G04 #@! TO.C,REF\002A\002A*
X101092000Y-104267000D03*
G04 #@! TD*
G04 #@! TO.C,REF\002A\002A*
X97917000Y-104267000D03*
G04 #@! TD*
G04 #@! TO.C,REF\002A\002A*
X82042000Y-119507000D03*
G04 #@! TD*
G04 #@! TO.C,REF\002A\002A*
X78867000Y-119507000D03*
G04 #@! TD*
G04 #@! TO.C,REF\002A\002A*
X78867000Y-104267000D03*
G04 #@! TD*
G04 #@! TO.C,REF\002A\002A*
X66802000Y-119507000D03*
G04 #@! TD*
G04 #@! TO.C,REF\002A\002A*
X66802000Y-104267000D03*
G04 #@! TD*
G04 #@! TO.C,REF\002A\002A*
X82042000Y-111887000D03*
G04 #@! TD*
G04 #@! TO.C,REF\002A\002A*
X66802000Y-111887000D03*
G04 #@! TD*
G04 #@! TO.C,REF\002A\002A*
X82042000Y-104267000D03*
G04 #@! TD*
G04 #@! TO.C,REF\002A\002A*
X82042000Y-100457000D03*
G04 #@! TD*
G04 #@! TO.C,REF\002A\002A*
X66802000Y-92837000D03*
G04 #@! TD*
G04 #@! TO.C,REF\002A\002A*
X78867000Y-85217000D03*
G04 #@! TD*
G04 #@! TO.C,REF\002A\002A*
X82042000Y-85217000D03*
G04 #@! TD*
G04 #@! TO.C,REF\002A\002A*
X82042000Y-92837000D03*
G04 #@! TD*
G04 #@! TO.C,REF\002A\002A*
X78867000Y-100457000D03*
G04 #@! TD*
G04 #@! TO.C,REF\002A\002A*
X66802000Y-85217000D03*
G04 #@! TD*
G04 #@! TO.C,REF\002A\002A*
X66802000Y-100457000D03*
G04 #@! TD*
G04 #@! TO.C,REF\002A\002A*
X101092000Y-85217000D03*
G04 #@! TD*
G04 #@! TO.C,REF\002A\002A*
X85852000Y-85217000D03*
G04 #@! TD*
G04 #@! TO.C,REF\002A\002A*
X97917000Y-85217000D03*
G04 #@! TD*
G04 #@! TO.C,REF\002A\002A*
X85852000Y-100457000D03*
G04 #@! TD*
G04 #@! TO.C,REF\002A\002A*
X97917000Y-100457000D03*
G04 #@! TD*
G04 #@! TO.C,REF\002A\002A*
X101092000Y-100457000D03*
G04 #@! TD*
G04 #@! TO.C,REF\002A\002A*
X116967000Y-100457000D03*
G04 #@! TD*
G04 #@! TO.C,REF\002A\002A*
X104902000Y-85217000D03*
G04 #@! TD*
G04 #@! TO.C,REF\002A\002A*
X104902000Y-100457000D03*
G04 #@! TD*
G04 #@! TO.C,REF\002A\002A*
X116967000Y-85217000D03*
G04 #@! TD*
G04 #@! TO.C,REF\002A\002A*
X120142000Y-85217000D03*
G04 #@! TD*
G04 #@! TO.C,REF\002A\002A*
X120142000Y-100457000D03*
G04 #@! TD*
G04 #@! TO.C,REF\002A\002A*
X123952000Y-100457000D03*
G04 #@! TD*
G04 #@! TO.C,REF\002A\002A*
X123952000Y-85217000D03*
G04 #@! TD*
G04 #@! TO.C,REF\002A\002A*
X139192000Y-100457000D03*
G04 #@! TD*
G04 #@! TO.C,REF\002A\002A*
X136017000Y-85217000D03*
G04 #@! TD*
G04 #@! TO.C,REF\002A\002A*
X136017000Y-100457000D03*
G04 #@! TD*
G04 #@! TO.C,REF\002A\002A*
X139192000Y-85217000D03*
G04 #@! TD*
G04 #@! TO.C,REF\002A\002A*
X143002000Y-100457000D03*
G04 #@! TD*
G04 #@! TO.C,REF\002A\002A*
X143002000Y-85217000D03*
G04 #@! TD*
G04 #@! TO.C,REF\002A\002A*
X158242000Y-85217000D03*
G04 #@! TD*
G04 #@! TO.C,REF\002A\002A*
X158242000Y-100457000D03*
G04 #@! TD*
G04 #@! TO.C,REF\002A\002A*
X155067000Y-85217000D03*
G04 #@! TD*
G04 #@! TO.C,REF\002A\002A*
X155067000Y-66167000D03*
G04 #@! TD*
G04 #@! TO.C,REF\002A\002A*
X143002000Y-66167000D03*
G04 #@! TD*
G04 #@! TO.C,REF\002A\002A*
X158242000Y-66167000D03*
G04 #@! TD*
G04 #@! TO.C,REF\002A\002A*
X158242000Y-81407000D03*
G04 #@! TD*
G04 #@! TO.C,REF\002A\002A*
X155067000Y-81407000D03*
G04 #@! TD*
G04 #@! TO.C,REF\002A\002A*
X143002000Y-81407000D03*
G04 #@! TD*
G04 #@! TO.C,REF\002A\002A*
X136017000Y-81407000D03*
G04 #@! TD*
G04 #@! TO.C,REF\002A\002A*
X139192000Y-81407000D03*
G04 #@! TD*
G04 #@! TO.C,REF\002A\002A*
X123952000Y-81407000D03*
G04 #@! TD*
G04 #@! TO.C,REF\002A\002A*
X123952000Y-66167000D03*
G04 #@! TD*
G04 #@! TO.C,REF\002A\002A*
X136017000Y-66167000D03*
G04 #@! TD*
G04 #@! TO.C,REF\002A\002A*
X139192000Y-66167000D03*
G04 #@! TD*
G04 #@! TO.C,REF\002A\002A*
X120142000Y-81407000D03*
G04 #@! TD*
G04 #@! TO.C,REF\002A\002A*
X104902000Y-81407000D03*
G04 #@! TD*
G04 #@! TO.C,REF\002A\002A*
X116967000Y-66167000D03*
G04 #@! TD*
G04 #@! TO.C,REF\002A\002A*
X104902000Y-66167000D03*
G04 #@! TD*
G04 #@! TO.C,REF\002A\002A*
X120142000Y-66167000D03*
G04 #@! TD*
G04 #@! TO.C,REF\002A\002A*
X116967000Y-81407000D03*
G04 #@! TD*
G04 #@! TO.C,REF\002A\002A*
X85852000Y-66167000D03*
G04 #@! TD*
G04 #@! TO.C,REF\002A\002A*
X101092000Y-81407000D03*
G04 #@! TD*
G04 #@! TO.C,REF\002A\002A*
X97917000Y-66167000D03*
G04 #@! TD*
G04 #@! TO.C,REF\002A\002A*
X97917000Y-81407000D03*
G04 #@! TD*
G04 #@! TO.C,REF\002A\002A*
X101092000Y-66167000D03*
G04 #@! TD*
G04 #@! TO.C,REF\002A\002A*
X85852000Y-81407000D03*
G04 #@! TD*
G04 #@! TO.C,REF\002A\002A*
X66802000Y-81407000D03*
G04 #@! TD*
G04 #@! TO.C,REF\002A\002A*
X78867000Y-66167000D03*
G04 #@! TD*
G04 #@! TO.C,REF\002A\002A*
X82042000Y-81407000D03*
G04 #@! TD*
G04 #@! TO.C,REF\002A\002A*
X78867000Y-81407000D03*
G04 #@! TD*
G04 #@! TO.C,REF\002A\002A*
X82042000Y-73787000D03*
G04 #@! TD*
G04 #@! TO.C,REF\002A\002A*
X82042000Y-66167000D03*
G04 #@! TD*
G04 #@! TO.C,REF\002A\002A*
X66802000Y-66167000D03*
G04 #@! TD*
G04 #@! TO.C,REF\002A\002A*
X66802000Y-73787000D03*
G04 #@! TD*
G04 #@! TO.C,REF\002A\002A*
X104902000Y-62357000D03*
G04 #@! TD*
G04 #@! TO.C,REF\002A\002A*
X104902000Y-47117000D03*
G04 #@! TD*
G04 #@! TO.C,REF\002A\002A*
X120142000Y-54737000D03*
G04 #@! TD*
G04 #@! TO.C,REF\002A\002A*
X104902000Y-54737000D03*
G04 #@! TD*
G04 #@! TO.C,REF\002A\002A*
X116967000Y-62357000D03*
G04 #@! TD*
G04 #@! TO.C,REF\002A\002A*
X120142000Y-47117000D03*
G04 #@! TD*
G04 #@! TO.C,REF\002A\002A*
X120142000Y-62357000D03*
G04 #@! TD*
G04 #@! TO.C,REF\002A\002A*
X116967000Y-47117000D03*
G04 #@! TD*
G04 #@! TO.C,REF\002A\002A*
X136017000Y-47117000D03*
G04 #@! TD*
G04 #@! TO.C,REF\002A\002A*
X123952000Y-62357000D03*
G04 #@! TD*
G04 #@! TO.C,REF\002A\002A*
X139192000Y-54737000D03*
G04 #@! TD*
G04 #@! TO.C,REF\002A\002A*
X139192000Y-47117000D03*
G04 #@! TD*
G04 #@! TO.C,REF\002A\002A*
X139192000Y-62357000D03*
G04 #@! TD*
G04 #@! TO.C,REF\002A\002A*
X123952000Y-54737000D03*
G04 #@! TD*
G04 #@! TO.C,REF\002A\002A*
X136017000Y-62357000D03*
G04 #@! TD*
G04 #@! TO.C,REF\002A\002A*
X123952000Y-47117000D03*
G04 #@! TD*
G04 #@! TO.C,REF\002A\002A*
X158242000Y-47117000D03*
G04 #@! TD*
G04 #@! TO.C,REF\002A\002A*
X158242000Y-62357000D03*
G04 #@! TD*
G04 #@! TO.C,REF\002A\002A*
X143002000Y-54737000D03*
G04 #@! TD*
G04 #@! TO.C,REF\002A\002A*
X155067000Y-62357000D03*
G04 #@! TD*
G04 #@! TO.C,REF\002A\002A*
X155067000Y-47117000D03*
G04 #@! TD*
G04 #@! TO.C,REF\002A\002A*
X143002000Y-47117000D03*
G04 #@! TD*
G04 #@! TO.C,REF\002A\002A*
X143002000Y-62357000D03*
G04 #@! TD*
G04 #@! TO.C,REF\002A\002A*
X158242000Y-54737000D03*
G04 #@! TD*
G04 #@! TO.C,REF\002A\002A*
X155067000Y-43307000D03*
G04 #@! TD*
G04 #@! TO.C,REF\002A\002A*
X155067000Y-28067000D03*
G04 #@! TD*
G04 #@! TO.C,REF\002A\002A*
X158242000Y-28067000D03*
G04 #@! TD*
G04 #@! TO.C,REF\002A\002A*
X143002000Y-35687000D03*
G04 #@! TD*
G04 #@! TO.C,REF\002A\002A*
X143002000Y-43307000D03*
G04 #@! TD*
G04 #@! TO.C,REF\002A\002A*
X143002000Y-28067000D03*
G04 #@! TD*
G04 #@! TO.C,REF\002A\002A*
X158242000Y-35687000D03*
G04 #@! TD*
G04 #@! TO.C,REF\002A\002A*
X158242000Y-43307000D03*
G04 #@! TD*
G04 #@! TO.C,REF\002A\002A*
X136017000Y-28067000D03*
G04 #@! TD*
G04 #@! TO.C,REF\002A\002A*
X139192000Y-28067000D03*
G04 #@! TD*
G04 #@! TO.C,REF\002A\002A*
X123952000Y-35687000D03*
G04 #@! TD*
G04 #@! TO.C,REF\002A\002A*
X123952000Y-43307000D03*
G04 #@! TD*
G04 #@! TO.C,REF\002A\002A*
X123952000Y-28067000D03*
G04 #@! TD*
G04 #@! TO.C,REF\002A\002A*
X139192000Y-35687000D03*
G04 #@! TD*
G04 #@! TO.C,REF\002A\002A*
X136017000Y-43307000D03*
G04 #@! TD*
G04 #@! TO.C,REF\002A\002A*
X139192000Y-43307000D03*
G04 #@! TD*
G04 #@! TO.C,REF\002A\002A*
X104902000Y-35687000D03*
G04 #@! TD*
G04 #@! TO.C,REF\002A\002A*
X104902000Y-43307000D03*
G04 #@! TD*
G04 #@! TO.C,REF\002A\002A*
X104902000Y-28067000D03*
G04 #@! TD*
G04 #@! TO.C,REF\002A\002A*
X120142000Y-35687000D03*
G04 #@! TD*
G04 #@! TO.C,REF\002A\002A*
X116967000Y-28067000D03*
G04 #@! TD*
G04 #@! TO.C,REF\002A\002A*
X120142000Y-43307000D03*
G04 #@! TD*
G04 #@! TO.C,REF\002A\002A*
X116967000Y-43307000D03*
G04 #@! TD*
G04 #@! TO.C,REF\002A\002A*
X120142000Y-28067000D03*
G04 #@! TD*
G04 #@! TO.C,REF\002A\002A*
X101092000Y-62357000D03*
G04 #@! TD*
G04 #@! TO.C,REF\002A\002A*
X97917000Y-62357000D03*
G04 #@! TD*
G04 #@! TO.C,REF\002A\002A*
X85852000Y-54737000D03*
G04 #@! TD*
G04 #@! TO.C,REF\002A\002A*
X85852000Y-62357000D03*
G04 #@! TD*
G04 #@! TO.C,REF\002A\002A*
X85852000Y-47117000D03*
G04 #@! TD*
G04 #@! TO.C,REF\002A\002A*
X101092000Y-54737000D03*
G04 #@! TD*
G04 #@! TO.C,REF\002A\002A*
X97917000Y-47117000D03*
G04 #@! TD*
G04 #@! TO.C,REF\002A\002A*
X101092000Y-47117000D03*
G04 #@! TD*
G04 #@! TO.C,REF\002A\002A*
X82042000Y-62357000D03*
G04 #@! TD*
G04 #@! TO.C,REF\002A\002A*
X78867000Y-62357000D03*
G04 #@! TD*
G04 #@! TO.C,REF\002A\002A*
X66802000Y-54737000D03*
G04 #@! TD*
G04 #@! TO.C,REF\002A\002A*
X78867000Y-47117000D03*
G04 #@! TD*
G04 #@! TO.C,REF\002A\002A*
X82042000Y-54737000D03*
G04 #@! TD*
G04 #@! TO.C,REF\002A\002A*
X82042000Y-47117000D03*
G04 #@! TD*
G04 #@! TO.C,REF\002A\002A*
X66802000Y-47117000D03*
G04 #@! TD*
G04 #@! TO.C,REF\002A\002A*
X66802000Y-62357000D03*
G04 #@! TD*
D12*
G04 #@! TO.C,SW1*
X69342000Y-35687000D03*
D13*
X71882000Y-40767000D03*
D14*
X74422000Y-35687000D03*
D13*
X78232000Y-38227000D03*
D12*
X79502000Y-35687000D03*
G04 #@! TD*
D18*
G04 #@! TO.C,REF\002A\002A*
X85852000Y-35687000D03*
G04 #@! TD*
G04 #@! TO.C,REF\002A\002A*
X97917000Y-28067000D03*
G04 #@! TD*
G04 #@! TO.C,REF\002A\002A*
X85852000Y-28067000D03*
G04 #@! TD*
G04 #@! TO.C,REF\002A\002A*
X85852000Y-43307000D03*
G04 #@! TD*
G04 #@! TO.C,REF\002A\002A*
X101092000Y-43307000D03*
G04 #@! TD*
G04 #@! TO.C,REF\002A\002A*
X101092000Y-28067000D03*
G04 #@! TD*
G04 #@! TO.C,REF\002A\002A*
X101092000Y-35687000D03*
G04 #@! TD*
G04 #@! TO.C,REF\002A\002A*
X97917000Y-43307000D03*
G04 #@! TD*
G04 #@! TO.C,REF\002A\002A*
X78867000Y-43307000D03*
G04 #@! TD*
D12*
G04 #@! TO.C,SW2*
X98552000Y-35687000D03*
D13*
X97282000Y-38227000D03*
D14*
X93472000Y-35687000D03*
D13*
X90932000Y-40767000D03*
D12*
X88392000Y-35687000D03*
G04 #@! TD*
G04 #@! TO.C,SW4*
X126492000Y-35687000D03*
D13*
X129032000Y-40767000D03*
D14*
X131572000Y-35687000D03*
D13*
X135382000Y-38227000D03*
D12*
X136652000Y-35687000D03*
G04 #@! TD*
G04 #@! TO.C,SW5*
X145542000Y-35687000D03*
D13*
X148082000Y-40767000D03*
D14*
X150622000Y-35687000D03*
D13*
X154432000Y-38227000D03*
D12*
X155702000Y-35687000D03*
G04 #@! TD*
G04 #@! TO.C,SW6*
X69342000Y-54737000D03*
D13*
X71882000Y-59817000D03*
D14*
X74422000Y-54737000D03*
D13*
X78232000Y-57277000D03*
D12*
X79502000Y-54737000D03*
G04 #@! TD*
G04 #@! TO.C,SW7*
X88392000Y-54737000D03*
D13*
X90932000Y-59817000D03*
D14*
X93472000Y-54737000D03*
D13*
X97282000Y-57277000D03*
D12*
X98552000Y-54737000D03*
G04 #@! TD*
G04 #@! TO.C,SW8*
X107442000Y-54737000D03*
D13*
X109982000Y-59817000D03*
D14*
X112522000Y-54737000D03*
D13*
X116332000Y-57277000D03*
D12*
X117602000Y-54737000D03*
G04 #@! TD*
G04 #@! TO.C,SW9*
X126492000Y-54737000D03*
D13*
X129032000Y-59817000D03*
D14*
X131572000Y-54737000D03*
D13*
X135382000Y-57277000D03*
D12*
X136652000Y-54737000D03*
G04 #@! TD*
G04 #@! TO.C,SW11*
X69342000Y-73787000D03*
D13*
X71882000Y-78867000D03*
D14*
X74422000Y-73787000D03*
D13*
X78232000Y-76327000D03*
D12*
X79502000Y-73787000D03*
G04 #@! TD*
G04 #@! TO.C,SW12*
X88392000Y-73787000D03*
D13*
X90932000Y-78867000D03*
D14*
X93472000Y-73787000D03*
D13*
X97282000Y-76327000D03*
D12*
X98552000Y-73787000D03*
G04 #@! TD*
G04 #@! TO.C,SW13*
X107442000Y-73787000D03*
D13*
X109982000Y-78867000D03*
D14*
X112522000Y-73787000D03*
D13*
X116332000Y-76327000D03*
D12*
X117602000Y-73787000D03*
G04 #@! TD*
G04 #@! TO.C,SW14*
X126492000Y-73787000D03*
D13*
X129032000Y-78867000D03*
D14*
X131572000Y-73787000D03*
D13*
X135382000Y-76327000D03*
D12*
X136652000Y-73787000D03*
G04 #@! TD*
G04 #@! TO.C,SW16*
X69342000Y-92837000D03*
D13*
X71882000Y-97917000D03*
D14*
X74422000Y-92837000D03*
D13*
X78232000Y-95377000D03*
D12*
X79502000Y-92837000D03*
G04 #@! TD*
G04 #@! TO.C,SW17*
X88392000Y-92837000D03*
D13*
X90932000Y-97917000D03*
D14*
X93472000Y-92837000D03*
D13*
X97282000Y-95377000D03*
D12*
X98552000Y-92837000D03*
G04 #@! TD*
G04 #@! TO.C,SW18*
X107442000Y-92837000D03*
D13*
X109982000Y-97917000D03*
D14*
X112522000Y-92837000D03*
D13*
X116332000Y-95377000D03*
D12*
X117602000Y-92837000D03*
G04 #@! TD*
G04 #@! TO.C,SW19*
X126492000Y-92837000D03*
D13*
X129032000Y-97917000D03*
D14*
X131572000Y-92837000D03*
D13*
X135382000Y-95377000D03*
D12*
X136652000Y-92837000D03*
G04 #@! TD*
G04 #@! TO.C,SW20*
X145542000Y-92837000D03*
D13*
X148082000Y-97917000D03*
D14*
X150622000Y-92837000D03*
D13*
X154432000Y-95377000D03*
D12*
X155702000Y-92837000D03*
G04 #@! TD*
G04 #@! TO.C,SW21*
X69342000Y-111887000D03*
D13*
X71882000Y-116967000D03*
D14*
X74422000Y-111887000D03*
D13*
X78232000Y-114427000D03*
D12*
X79502000Y-111887000D03*
G04 #@! TD*
G04 #@! TO.C,SW22*
X88392000Y-111887000D03*
D13*
X90932000Y-116967000D03*
D14*
X93472000Y-111887000D03*
D13*
X97282000Y-114427000D03*
D12*
X98552000Y-111887000D03*
G04 #@! TD*
G04 #@! TO.C,SW23*
X107442000Y-111887000D03*
D13*
X109982000Y-116967000D03*
D14*
X112522000Y-111887000D03*
D13*
X116332000Y-114427000D03*
D12*
X117602000Y-111887000D03*
G04 #@! TD*
G04 #@! TO.C,SW24*
X126492000Y-111887000D03*
D13*
X129032000Y-116967000D03*
D14*
X131572000Y-111887000D03*
D13*
X135382000Y-114427000D03*
D12*
X136652000Y-111887000D03*
G04 #@! TD*
G04 #@! TO.C,SW25*
X145542000Y-111887000D03*
D13*
X148082000Y-116967000D03*
D14*
X150622000Y-111887000D03*
D13*
X154432000Y-114427000D03*
D12*
X155702000Y-111887000D03*
G04 #@! TD*
D18*
G04 #@! TO.C,REF\002A\002A*
X66802000Y-39497000D03*
G04 #@! TD*
G04 #@! TO.C,REF\002A\002A*
X66802000Y-31877000D03*
G04 #@! TD*
G04 #@! TO.C,REF\002A\002A*
X82042000Y-39497000D03*
G04 #@! TD*
G04 #@! TO.C,REF\002A\002A*
X82042000Y-31877000D03*
G04 #@! TD*
G04 #@! TO.C,REF\002A\002A*
X82042000Y-35687000D03*
G04 #@! TD*
G04 #@! TO.C,REF\002A\002A*
X66802000Y-35687000D03*
G04 #@! TD*
G04 #@! TO.C,REF\002A\002A*
X78867000Y-28067000D03*
G04 #@! TD*
G04 #@! TO.C,REF\002A\002A*
X82042000Y-28067000D03*
G04 #@! TD*
G04 #@! TO.C,REF\002A\002A*
X82042000Y-43307000D03*
G04 #@! TD*
G04 #@! TO.C,REF\002A\002A*
X66802000Y-43307000D03*
G04 #@! TD*
G04 #@! TO.C,REF\002A\002A*
X66802000Y-28067000D03*
G04 #@! TD*
D15*
G04 #@! TO.C,D*
X69342000Y-62357000D03*
D16*
X75692000Y-62357000D03*
G04 #@! TD*
D15*
G04 #@! TO.C,D*
X69342000Y-43307000D03*
D16*
X75692000Y-43307000D03*
G04 #@! TD*
D15*
G04 #@! TO.C,D*
X88392000Y-43307000D03*
D16*
X94742000Y-43307000D03*
G04 #@! TD*
D15*
G04 #@! TO.C,D*
X126492000Y-43307000D03*
D16*
X132842000Y-43307000D03*
G04 #@! TD*
D15*
G04 #@! TO.C,D*
X145542000Y-43307000D03*
D16*
X151892000Y-43307000D03*
G04 #@! TD*
D15*
G04 #@! TO.C,D*
X88392000Y-62357000D03*
D16*
X94742000Y-62357000D03*
G04 #@! TD*
D15*
G04 #@! TO.C,D*
X107442000Y-62357000D03*
D16*
X113792000Y-62357000D03*
G04 #@! TD*
D15*
G04 #@! TO.C,D*
X126492000Y-62357000D03*
D16*
X132842000Y-62357000D03*
G04 #@! TD*
D15*
G04 #@! TO.C,D*
X145542000Y-62357000D03*
D16*
X151892000Y-62357000D03*
G04 #@! TD*
D15*
G04 #@! TO.C,D*
X69342000Y-81407000D03*
D16*
X75692000Y-81407000D03*
G04 #@! TD*
D15*
G04 #@! TO.C,D*
X88392000Y-81407000D03*
D16*
X94742000Y-81407000D03*
G04 #@! TD*
D15*
G04 #@! TO.C,D*
X107442000Y-81407000D03*
D16*
X113792000Y-81407000D03*
G04 #@! TD*
D15*
G04 #@! TO.C,D*
X126492000Y-81407000D03*
D16*
X132842000Y-81407000D03*
G04 #@! TD*
D15*
G04 #@! TO.C,D*
X145542000Y-81407000D03*
D16*
X151892000Y-81407000D03*
G04 #@! TD*
D15*
G04 #@! TO.C,D*
X69342000Y-100457000D03*
D16*
X75692000Y-100457000D03*
G04 #@! TD*
D15*
G04 #@! TO.C,D*
X88392000Y-100457000D03*
D16*
X94742000Y-100457000D03*
G04 #@! TD*
D15*
G04 #@! TO.C,D*
X107442000Y-100457000D03*
D16*
X113792000Y-100457000D03*
G04 #@! TD*
D15*
G04 #@! TO.C,D*
X126492000Y-100457000D03*
D16*
X132842000Y-100457000D03*
G04 #@! TD*
D15*
G04 #@! TO.C,D*
X145542000Y-100457000D03*
D16*
X151892000Y-100457000D03*
G04 #@! TD*
D15*
G04 #@! TO.C,D*
X69342000Y-119507000D03*
D16*
X75692000Y-119507000D03*
G04 #@! TD*
D15*
G04 #@! TO.C,D*
X88392000Y-119507000D03*
D16*
X94742000Y-119507000D03*
G04 #@! TD*
D15*
G04 #@! TO.C,D*
X107442000Y-119507000D03*
D16*
X113792000Y-119507000D03*
G04 #@! TD*
D15*
G04 #@! TO.C,D*
X126492000Y-119507000D03*
D16*
X132842000Y-119507000D03*
G04 #@! TD*
D15*
G04 #@! TO.C,D*
X145542000Y-119507000D03*
D16*
X151892000Y-119507000D03*
G04 #@! TD*
M02*
