G04 #@! TF.GenerationSoftware,KiCad,Pcbnew,5.0.0-fee4fd1~66~ubuntu18.04.1*
G04 #@! TF.CreationDate,2018-09-17T00:42:53+09:00*
G04 #@! TF.ProjectId,MxLEDBit,4D784C45444269742E6B696361645F70,1*
G04 #@! TF.SameCoordinates,Original*
G04 #@! TF.FileFunction,Soldermask,Top*
G04 #@! TF.FilePolarity,Negative*
%FSLAX46Y46*%
G04 Gerber Fmt 4.6, Leading zero omitted, Abs format (unit mm)*
G04 Created by KiCad (PCBNEW 5.0.0-fee4fd1~66~ubuntu18.04.1) date Mon Sep 17 00:42:53 2018*
%MOMM*%
%LPD*%
G01*
G04 APERTURE LIST*
%ADD10C,0.200000*%
%ADD11C,2.200000*%
%ADD12C,2.000000*%
%ADD13C,1.397000*%
%ADD14C,1.200000*%
%ADD15O,2.500000X1.700000*%
%ADD16C,1.524000*%
G04 APERTURE END LIST*
D10*
X95498333Y-97721666D02*
X95698333Y-97788333D01*
X96031666Y-97788333D01*
X96165000Y-97721666D01*
X96231666Y-97655000D01*
X96298333Y-97521666D01*
X96298333Y-97388333D01*
X96231666Y-97255000D01*
X96165000Y-97188333D01*
X96031666Y-97121666D01*
X95765000Y-97055000D01*
X95631666Y-96988333D01*
X95565000Y-96921666D01*
X95498333Y-96788333D01*
X95498333Y-96655000D01*
X95565000Y-96521666D01*
X95631666Y-96455000D01*
X95765000Y-96388333D01*
X96098333Y-96388333D01*
X96298333Y-96455000D01*
X96765000Y-96855000D02*
X97031666Y-97788333D01*
X97298333Y-97121666D01*
X97565000Y-97788333D01*
X97831666Y-96855000D01*
X98965000Y-97788333D02*
X98965000Y-97055000D01*
X98898333Y-96921666D01*
X98765000Y-96855000D01*
X98498333Y-96855000D01*
X98365000Y-96921666D01*
X98965000Y-97721666D02*
X98831666Y-97788333D01*
X98498333Y-97788333D01*
X98365000Y-97721666D01*
X98298333Y-97588333D01*
X98298333Y-97455000D01*
X98365000Y-97321666D01*
X98498333Y-97255000D01*
X98831666Y-97255000D01*
X98965000Y-97188333D01*
X99631666Y-96855000D02*
X99631666Y-97788333D01*
X99631666Y-96988333D02*
X99698333Y-96921666D01*
X99831666Y-96855000D01*
X100031666Y-96855000D01*
X100165000Y-96921666D01*
X100231666Y-97055000D01*
X100231666Y-97788333D01*
X100898333Y-97788333D02*
X100898333Y-96388333D01*
X101365000Y-97388333D01*
X101831666Y-96388333D01*
X101831666Y-97788333D01*
X103098333Y-97788333D02*
X103098333Y-97055000D01*
X103031666Y-96921666D01*
X102898333Y-96855000D01*
X102631666Y-96855000D01*
X102498333Y-96921666D01*
X103098333Y-97721666D02*
X102965000Y-97788333D01*
X102631666Y-97788333D01*
X102498333Y-97721666D01*
X102431666Y-97588333D01*
X102431666Y-97455000D01*
X102498333Y-97321666D01*
X102631666Y-97255000D01*
X102965000Y-97255000D01*
X103098333Y-97188333D01*
X103565000Y-96855000D02*
X104098333Y-96855000D01*
X103765000Y-96388333D02*
X103765000Y-97588333D01*
X103831666Y-97721666D01*
X103965000Y-97788333D01*
X104098333Y-97788333D01*
X105165000Y-97721666D02*
X105031666Y-97788333D01*
X104765000Y-97788333D01*
X104631666Y-97721666D01*
X104565000Y-97655000D01*
X104498333Y-97521666D01*
X104498333Y-97121666D01*
X104565000Y-96988333D01*
X104631666Y-96921666D01*
X104765000Y-96855000D01*
X105031666Y-96855000D01*
X105165000Y-96921666D01*
X105765000Y-97788333D02*
X105765000Y-96388333D01*
X106365000Y-97788333D02*
X106365000Y-97055000D01*
X106298333Y-96921666D01*
X106165000Y-96855000D01*
X105965000Y-96855000D01*
X105831666Y-96921666D01*
X105765000Y-96988333D01*
X117088333Y-97721666D02*
X117288333Y-97788333D01*
X117621666Y-97788333D01*
X117755000Y-97721666D01*
X117821666Y-97655000D01*
X117888333Y-97521666D01*
X117888333Y-97388333D01*
X117821666Y-97255000D01*
X117755000Y-97188333D01*
X117621666Y-97121666D01*
X117355000Y-97055000D01*
X117221666Y-96988333D01*
X117155000Y-96921666D01*
X117088333Y-96788333D01*
X117088333Y-96655000D01*
X117155000Y-96521666D01*
X117221666Y-96455000D01*
X117355000Y-96388333D01*
X117688333Y-96388333D01*
X117888333Y-96455000D01*
X118355000Y-96855000D02*
X118621666Y-97788333D01*
X118888333Y-97121666D01*
X119155000Y-97788333D01*
X119421666Y-96855000D01*
X120555000Y-97788333D02*
X120555000Y-97055000D01*
X120488333Y-96921666D01*
X120355000Y-96855000D01*
X120088333Y-96855000D01*
X119955000Y-96921666D01*
X120555000Y-97721666D02*
X120421666Y-97788333D01*
X120088333Y-97788333D01*
X119955000Y-97721666D01*
X119888333Y-97588333D01*
X119888333Y-97455000D01*
X119955000Y-97321666D01*
X120088333Y-97255000D01*
X120421666Y-97255000D01*
X120555000Y-97188333D01*
X121221666Y-96855000D02*
X121221666Y-97788333D01*
X121221666Y-96988333D02*
X121288333Y-96921666D01*
X121421666Y-96855000D01*
X121621666Y-96855000D01*
X121755000Y-96921666D01*
X121821666Y-97055000D01*
X121821666Y-97788333D01*
X122488333Y-97788333D02*
X122488333Y-96388333D01*
X122955000Y-97388333D01*
X123421666Y-96388333D01*
X123421666Y-97788333D01*
X124688333Y-97788333D02*
X124688333Y-97055000D01*
X124621666Y-96921666D01*
X124488333Y-96855000D01*
X124221666Y-96855000D01*
X124088333Y-96921666D01*
X124688333Y-97721666D02*
X124555000Y-97788333D01*
X124221666Y-97788333D01*
X124088333Y-97721666D01*
X124021666Y-97588333D01*
X124021666Y-97455000D01*
X124088333Y-97321666D01*
X124221666Y-97255000D01*
X124555000Y-97255000D01*
X124688333Y-97188333D01*
X125155000Y-96855000D02*
X125688333Y-96855000D01*
X125355000Y-96388333D02*
X125355000Y-97588333D01*
X125421666Y-97721666D01*
X125555000Y-97788333D01*
X125688333Y-97788333D01*
X126755000Y-97721666D02*
X126621666Y-97788333D01*
X126355000Y-97788333D01*
X126221666Y-97721666D01*
X126155000Y-97655000D01*
X126088333Y-97521666D01*
X126088333Y-97121666D01*
X126155000Y-96988333D01*
X126221666Y-96921666D01*
X126355000Y-96855000D01*
X126621666Y-96855000D01*
X126755000Y-96921666D01*
X127355000Y-97788333D02*
X127355000Y-96388333D01*
X127955000Y-97788333D02*
X127955000Y-97055000D01*
X127888333Y-96921666D01*
X127755000Y-96855000D01*
X127555000Y-96855000D01*
X127421666Y-96921666D01*
X127355000Y-96988333D01*
X138678333Y-97721666D02*
X138878333Y-97788333D01*
X139211666Y-97788333D01*
X139345000Y-97721666D01*
X139411666Y-97655000D01*
X139478333Y-97521666D01*
X139478333Y-97388333D01*
X139411666Y-97255000D01*
X139345000Y-97188333D01*
X139211666Y-97121666D01*
X138945000Y-97055000D01*
X138811666Y-96988333D01*
X138745000Y-96921666D01*
X138678333Y-96788333D01*
X138678333Y-96655000D01*
X138745000Y-96521666D01*
X138811666Y-96455000D01*
X138945000Y-96388333D01*
X139278333Y-96388333D01*
X139478333Y-96455000D01*
X139945000Y-96855000D02*
X140211666Y-97788333D01*
X140478333Y-97121666D01*
X140745000Y-97788333D01*
X141011666Y-96855000D01*
X142145000Y-97788333D02*
X142145000Y-97055000D01*
X142078333Y-96921666D01*
X141945000Y-96855000D01*
X141678333Y-96855000D01*
X141545000Y-96921666D01*
X142145000Y-97721666D02*
X142011666Y-97788333D01*
X141678333Y-97788333D01*
X141545000Y-97721666D01*
X141478333Y-97588333D01*
X141478333Y-97455000D01*
X141545000Y-97321666D01*
X141678333Y-97255000D01*
X142011666Y-97255000D01*
X142145000Y-97188333D01*
X142811666Y-96855000D02*
X142811666Y-97788333D01*
X142811666Y-96988333D02*
X142878333Y-96921666D01*
X143011666Y-96855000D01*
X143211666Y-96855000D01*
X143345000Y-96921666D01*
X143411666Y-97055000D01*
X143411666Y-97788333D01*
X144078333Y-97788333D02*
X144078333Y-96388333D01*
X144545000Y-97388333D01*
X145011666Y-96388333D01*
X145011666Y-97788333D01*
X146278333Y-97788333D02*
X146278333Y-97055000D01*
X146211666Y-96921666D01*
X146078333Y-96855000D01*
X145811666Y-96855000D01*
X145678333Y-96921666D01*
X146278333Y-97721666D02*
X146145000Y-97788333D01*
X145811666Y-97788333D01*
X145678333Y-97721666D01*
X145611666Y-97588333D01*
X145611666Y-97455000D01*
X145678333Y-97321666D01*
X145811666Y-97255000D01*
X146145000Y-97255000D01*
X146278333Y-97188333D01*
X146745000Y-96855000D02*
X147278333Y-96855000D01*
X146945000Y-96388333D02*
X146945000Y-97588333D01*
X147011666Y-97721666D01*
X147145000Y-97788333D01*
X147278333Y-97788333D01*
X148345000Y-97721666D02*
X148211666Y-97788333D01*
X147945000Y-97788333D01*
X147811666Y-97721666D01*
X147745000Y-97655000D01*
X147678333Y-97521666D01*
X147678333Y-97121666D01*
X147745000Y-96988333D01*
X147811666Y-96921666D01*
X147945000Y-96855000D01*
X148211666Y-96855000D01*
X148345000Y-96921666D01*
X148945000Y-97788333D02*
X148945000Y-96388333D01*
X149545000Y-97788333D02*
X149545000Y-97055000D01*
X149478333Y-96921666D01*
X149345000Y-96855000D01*
X149145000Y-96855000D01*
X149011666Y-96921666D01*
X148945000Y-96988333D01*
X160268333Y-97721666D02*
X160468333Y-97788333D01*
X160801666Y-97788333D01*
X160935000Y-97721666D01*
X161001666Y-97655000D01*
X161068333Y-97521666D01*
X161068333Y-97388333D01*
X161001666Y-97255000D01*
X160935000Y-97188333D01*
X160801666Y-97121666D01*
X160535000Y-97055000D01*
X160401666Y-96988333D01*
X160335000Y-96921666D01*
X160268333Y-96788333D01*
X160268333Y-96655000D01*
X160335000Y-96521666D01*
X160401666Y-96455000D01*
X160535000Y-96388333D01*
X160868333Y-96388333D01*
X161068333Y-96455000D01*
X161535000Y-96855000D02*
X161801666Y-97788333D01*
X162068333Y-97121666D01*
X162335000Y-97788333D01*
X162601666Y-96855000D01*
X163735000Y-97788333D02*
X163735000Y-97055000D01*
X163668333Y-96921666D01*
X163535000Y-96855000D01*
X163268333Y-96855000D01*
X163135000Y-96921666D01*
X163735000Y-97721666D02*
X163601666Y-97788333D01*
X163268333Y-97788333D01*
X163135000Y-97721666D01*
X163068333Y-97588333D01*
X163068333Y-97455000D01*
X163135000Y-97321666D01*
X163268333Y-97255000D01*
X163601666Y-97255000D01*
X163735000Y-97188333D01*
X164401666Y-96855000D02*
X164401666Y-97788333D01*
X164401666Y-96988333D02*
X164468333Y-96921666D01*
X164601666Y-96855000D01*
X164801666Y-96855000D01*
X164935000Y-96921666D01*
X165001666Y-97055000D01*
X165001666Y-97788333D01*
X165668333Y-97788333D02*
X165668333Y-96388333D01*
X166135000Y-97388333D01*
X166601666Y-96388333D01*
X166601666Y-97788333D01*
X167868333Y-97788333D02*
X167868333Y-97055000D01*
X167801666Y-96921666D01*
X167668333Y-96855000D01*
X167401666Y-96855000D01*
X167268333Y-96921666D01*
X167868333Y-97721666D02*
X167735000Y-97788333D01*
X167401666Y-97788333D01*
X167268333Y-97721666D01*
X167201666Y-97588333D01*
X167201666Y-97455000D01*
X167268333Y-97321666D01*
X167401666Y-97255000D01*
X167735000Y-97255000D01*
X167868333Y-97188333D01*
X168335000Y-96855000D02*
X168868333Y-96855000D01*
X168535000Y-96388333D02*
X168535000Y-97588333D01*
X168601666Y-97721666D01*
X168735000Y-97788333D01*
X168868333Y-97788333D01*
X169935000Y-97721666D02*
X169801666Y-97788333D01*
X169535000Y-97788333D01*
X169401666Y-97721666D01*
X169335000Y-97655000D01*
X169268333Y-97521666D01*
X169268333Y-97121666D01*
X169335000Y-96988333D01*
X169401666Y-96921666D01*
X169535000Y-96855000D01*
X169801666Y-96855000D01*
X169935000Y-96921666D01*
X170535000Y-97788333D02*
X170535000Y-96388333D01*
X171135000Y-97788333D02*
X171135000Y-97055000D01*
X171068333Y-96921666D01*
X170935000Y-96855000D01*
X170735000Y-96855000D01*
X170601666Y-96921666D01*
X170535000Y-96988333D01*
D11*
G04 #@! TO.C,HOLE_M2*
X93345000Y-97155000D03*
G04 #@! TD*
G04 #@! TO.C,HOLE_M2*
X114935000Y-97155000D03*
G04 #@! TD*
G04 #@! TO.C,HOLE_M2*
X136525000Y-97155000D03*
G04 #@! TD*
D12*
G04 #@! TO.C,RESET1*
X97790000Y-84455000D03*
X104290000Y-84455000D03*
G04 #@! TD*
G04 #@! TO.C,RESET1*
X119380000Y-84455000D03*
X125880000Y-84455000D03*
G04 #@! TD*
G04 #@! TO.C,RESET1*
X140970000Y-84455000D03*
X147470000Y-84455000D03*
G04 #@! TD*
D11*
G04 #@! TO.C,HOLE_M2*
X108585000Y-97155000D03*
G04 #@! TD*
G04 #@! TO.C,HOLE_M2*
X130175000Y-97155000D03*
G04 #@! TD*
G04 #@! TO.C,HOLE_M2*
X151765000Y-97155000D03*
G04 #@! TD*
G04 #@! TO.C,HOLE_M2*
X93345000Y-80645000D03*
G04 #@! TD*
G04 #@! TO.C,HOLE_M2*
X114935000Y-80645000D03*
G04 #@! TD*
G04 #@! TO.C,HOLE_M2*
X136525000Y-80645000D03*
G04 #@! TD*
G04 #@! TO.C,HOLE_M2*
X108585000Y-80645000D03*
G04 #@! TD*
G04 #@! TO.C,HOLE_M2*
X130175000Y-80645000D03*
G04 #@! TD*
G04 #@! TO.C,HOLE_M2*
X151765000Y-80645000D03*
G04 #@! TD*
D13*
G04 #@! TO.C,P2*
X96520000Y-48895000D03*
G04 #@! TD*
G04 #@! TO.C,P2*
X118110000Y-48895000D03*
G04 #@! TD*
G04 #@! TO.C,P2*
X139700000Y-48895000D03*
G04 #@! TD*
G04 #@! TO.C,P2*
X96520000Y-51435000D03*
G04 #@! TD*
G04 #@! TO.C,P2*
X118110000Y-51435000D03*
G04 #@! TD*
G04 #@! TO.C,P2*
X139700000Y-51435000D03*
G04 #@! TD*
G04 #@! TO.C,P2*
X96520000Y-53975000D03*
G04 #@! TD*
G04 #@! TO.C,P2*
X118110000Y-53975000D03*
G04 #@! TD*
G04 #@! TO.C,P2*
X139700000Y-53975000D03*
G04 #@! TD*
G04 #@! TO.C,P2*
X96520000Y-56515000D03*
G04 #@! TD*
G04 #@! TO.C,P2*
X118110000Y-56515000D03*
G04 #@! TD*
G04 #@! TO.C,P2*
X139700000Y-56515000D03*
G04 #@! TD*
G04 #@! TO.C,P2*
X96520000Y-59055000D03*
G04 #@! TD*
G04 #@! TO.C,P2*
X118110000Y-59055000D03*
G04 #@! TD*
G04 #@! TO.C,P2*
X139700000Y-59055000D03*
G04 #@! TD*
G04 #@! TO.C,P2*
X105410000Y-56515000D03*
G04 #@! TD*
G04 #@! TO.C,P2*
X127000000Y-56515000D03*
G04 #@! TD*
G04 #@! TO.C,P2*
X148590000Y-56515000D03*
G04 #@! TD*
G04 #@! TO.C,P2*
X105410000Y-51435000D03*
G04 #@! TD*
G04 #@! TO.C,P2*
X127000000Y-51435000D03*
G04 #@! TD*
G04 #@! TO.C,P2*
X148590000Y-51435000D03*
G04 #@! TD*
G04 #@! TO.C,P2*
X105410000Y-53975000D03*
G04 #@! TD*
G04 #@! TO.C,P2*
X127000000Y-53975000D03*
G04 #@! TD*
G04 #@! TO.C,P2*
X148590000Y-53975000D03*
G04 #@! TD*
G04 #@! TO.C,P2*
X105410000Y-59055000D03*
G04 #@! TD*
G04 #@! TO.C,P2*
X127000000Y-59055000D03*
G04 #@! TD*
G04 #@! TO.C,P2*
X148590000Y-59055000D03*
G04 #@! TD*
G04 #@! TO.C,P2*
X105410000Y-48895000D03*
G04 #@! TD*
G04 #@! TO.C,P2*
X127000000Y-48895000D03*
G04 #@! TD*
G04 #@! TO.C,P2*
X148590000Y-48895000D03*
G04 #@! TD*
G04 #@! TO.C,P2*
X105410000Y-61595000D03*
G04 #@! TD*
G04 #@! TO.C,P2*
X127000000Y-61595000D03*
G04 #@! TD*
G04 #@! TO.C,P2*
X148590000Y-61595000D03*
G04 #@! TD*
G04 #@! TO.C,P2*
X99060000Y-51435000D03*
G04 #@! TD*
G04 #@! TO.C,P2*
X120650000Y-51435000D03*
G04 #@! TD*
G04 #@! TO.C,P2*
X142240000Y-51435000D03*
G04 #@! TD*
G04 #@! TO.C,P2*
X99060000Y-56515000D03*
G04 #@! TD*
G04 #@! TO.C,P2*
X120650000Y-56515000D03*
G04 #@! TD*
G04 #@! TO.C,P2*
X142240000Y-56515000D03*
G04 #@! TD*
G04 #@! TO.C,P2*
X99060000Y-53975000D03*
G04 #@! TD*
G04 #@! TO.C,P2*
X120650000Y-53975000D03*
G04 #@! TD*
G04 #@! TO.C,P2*
X142240000Y-53975000D03*
G04 #@! TD*
G04 #@! TO.C,P2*
X99060000Y-48895000D03*
G04 #@! TD*
G04 #@! TO.C,P2*
X120650000Y-48895000D03*
G04 #@! TD*
G04 #@! TO.C,P2*
X142240000Y-48895000D03*
G04 #@! TD*
G04 #@! TO.C,P2*
X99060000Y-59055000D03*
G04 #@! TD*
G04 #@! TO.C,P2*
X120650000Y-59055000D03*
G04 #@! TD*
G04 #@! TO.C,P2*
X142240000Y-59055000D03*
G04 #@! TD*
G04 #@! TO.C,DT*
X102870000Y-51435000D03*
G04 #@! TD*
G04 #@! TO.C,DT*
X124460000Y-51435000D03*
G04 #@! TD*
G04 #@! TO.C,DT*
X146050000Y-51435000D03*
G04 #@! TD*
G04 #@! TO.C,P2*
X102870000Y-56515000D03*
G04 #@! TD*
G04 #@! TO.C,P2*
X124460000Y-56515000D03*
G04 #@! TD*
G04 #@! TO.C,P2*
X146050000Y-56515000D03*
G04 #@! TD*
G04 #@! TO.C,P2*
X102870000Y-53975000D03*
G04 #@! TD*
G04 #@! TO.C,P2*
X124460000Y-53975000D03*
G04 #@! TD*
G04 #@! TO.C,P2*
X146050000Y-53975000D03*
G04 #@! TD*
G04 #@! TO.C,P2*
X102870000Y-48895000D03*
G04 #@! TD*
G04 #@! TO.C,P2*
X124460000Y-48895000D03*
G04 #@! TD*
G04 #@! TO.C,P2*
X146050000Y-48895000D03*
G04 #@! TD*
G04 #@! TO.C,P2*
X102870000Y-61595000D03*
G04 #@! TD*
G04 #@! TO.C,P2*
X124460000Y-61595000D03*
G04 #@! TD*
G04 #@! TO.C,P2*
X146050000Y-61595000D03*
G04 #@! TD*
D14*
G04 #@! TO.C,JACK*
X99355000Y-91880000D03*
X92355000Y-91880000D03*
D15*
X94155000Y-88030000D03*
X97155000Y-88030000D03*
X101155000Y-88030000D03*
X102655000Y-92230000D03*
G04 #@! TD*
D14*
G04 #@! TO.C,JACK*
X120945000Y-91880000D03*
X113945000Y-91880000D03*
D15*
X115745000Y-88030000D03*
X118745000Y-88030000D03*
X122745000Y-88030000D03*
X124245000Y-92230000D03*
G04 #@! TD*
D14*
G04 #@! TO.C,JACK*
X142535000Y-91880000D03*
X135535000Y-91880000D03*
D15*
X137335000Y-88030000D03*
X140335000Y-88030000D03*
X144335000Y-88030000D03*
X145835000Y-92230000D03*
G04 #@! TD*
D14*
G04 #@! TO.C,JACK*
X102575000Y-90130000D03*
X109575000Y-90130000D03*
D15*
X107775000Y-93980000D03*
X104775000Y-93980000D03*
X100775000Y-93980000D03*
X99275000Y-89780000D03*
G04 #@! TD*
D14*
G04 #@! TO.C,JACK*
X124165000Y-90130000D03*
X131165000Y-90130000D03*
D15*
X129365000Y-93980000D03*
X126365000Y-93980000D03*
X122365000Y-93980000D03*
X120865000Y-89780000D03*
G04 #@! TD*
D14*
G04 #@! TO.C,JACK*
X145755000Y-90130000D03*
X152755000Y-90130000D03*
D15*
X150955000Y-93980000D03*
X147955000Y-93980000D03*
X143955000Y-93980000D03*
X142455000Y-89780000D03*
G04 #@! TD*
D13*
G04 #@! TO.C,P2*
X102870000Y-59055000D03*
G04 #@! TD*
G04 #@! TO.C,P2*
X124460000Y-59055000D03*
G04 #@! TD*
G04 #@! TO.C,P2*
X146050000Y-59055000D03*
G04 #@! TD*
G04 #@! TO.C,DATA*
X92710000Y-93345000D03*
G04 #@! TD*
G04 #@! TO.C,DATA*
X114300000Y-93345000D03*
G04 #@! TD*
G04 #@! TO.C,DATA*
X135890000Y-93345000D03*
G04 #@! TD*
G04 #@! TO.C,A*
X95885000Y-93345000D03*
G04 #@! TD*
G04 #@! TO.C,A*
X117475000Y-93345000D03*
G04 #@! TD*
G04 #@! TO.C,A*
X139065000Y-93345000D03*
G04 #@! TD*
G04 #@! TO.C,A*
X106045000Y-88900000D03*
G04 #@! TD*
G04 #@! TO.C,A*
X127635000Y-88900000D03*
G04 #@! TD*
G04 #@! TO.C,A*
X149225000Y-88900000D03*
G04 #@! TD*
G04 #@! TO.C,DATA*
X108585000Y-88900000D03*
G04 #@! TD*
G04 #@! TO.C,DATA*
X130175000Y-88900000D03*
G04 #@! TD*
G04 #@! TO.C,DATA*
X151765000Y-88900000D03*
G04 #@! TD*
D16*
G04 #@! TO.C,U2*
X93345000Y-48895000D03*
X93345000Y-51435000D03*
X93345000Y-53975000D03*
X93345000Y-56515000D03*
X93345000Y-59055000D03*
X93345000Y-61595000D03*
X93345000Y-64135000D03*
X93345000Y-66675000D03*
X93345000Y-69215000D03*
X93345000Y-71755000D03*
X93345000Y-74295000D03*
X93345000Y-76835000D03*
X108585000Y-76835000D03*
X108585000Y-74295000D03*
X108585000Y-71755000D03*
X108585000Y-69215000D03*
X108585000Y-66675000D03*
X108585000Y-64135000D03*
X108585000Y-61595000D03*
X108585000Y-59055000D03*
X108585000Y-56515000D03*
X108585000Y-53975000D03*
X108585000Y-51435000D03*
X108585000Y-48895000D03*
G04 #@! TD*
G04 #@! TO.C,U2*
X114935000Y-48895000D03*
X114935000Y-51435000D03*
X114935000Y-53975000D03*
X114935000Y-56515000D03*
X114935000Y-59055000D03*
X114935000Y-61595000D03*
X114935000Y-64135000D03*
X114935000Y-66675000D03*
X114935000Y-69215000D03*
X114935000Y-71755000D03*
X114935000Y-74295000D03*
X114935000Y-76835000D03*
X130175000Y-76835000D03*
X130175000Y-74295000D03*
X130175000Y-71755000D03*
X130175000Y-69215000D03*
X130175000Y-66675000D03*
X130175000Y-64135000D03*
X130175000Y-61595000D03*
X130175000Y-59055000D03*
X130175000Y-56515000D03*
X130175000Y-53975000D03*
X130175000Y-51435000D03*
X130175000Y-48895000D03*
G04 #@! TD*
G04 #@! TO.C,U2*
X136525000Y-48895000D03*
X136525000Y-51435000D03*
X136525000Y-53975000D03*
X136525000Y-56515000D03*
X136525000Y-59055000D03*
X136525000Y-61595000D03*
X136525000Y-64135000D03*
X136525000Y-66675000D03*
X136525000Y-69215000D03*
X136525000Y-71755000D03*
X136525000Y-74295000D03*
X136525000Y-76835000D03*
X151765000Y-76835000D03*
X151765000Y-74295000D03*
X151765000Y-71755000D03*
X151765000Y-69215000D03*
X151765000Y-66675000D03*
X151765000Y-64135000D03*
X151765000Y-61595000D03*
X151765000Y-59055000D03*
X151765000Y-56515000D03*
X151765000Y-53975000D03*
X151765000Y-51435000D03*
X151765000Y-48895000D03*
G04 #@! TD*
D13*
G04 #@! TO.C,P2*
X96520000Y-61595000D03*
G04 #@! TD*
G04 #@! TO.C,P2*
X118110000Y-61595000D03*
G04 #@! TD*
G04 #@! TO.C,P2*
X139700000Y-61595000D03*
G04 #@! TD*
G04 #@! TO.C,P2*
X96520000Y-64135000D03*
G04 #@! TD*
G04 #@! TO.C,P2*
X118110000Y-64135000D03*
G04 #@! TD*
G04 #@! TO.C,P2*
X139700000Y-64135000D03*
G04 #@! TD*
G04 #@! TO.C,P2*
X96520000Y-66675000D03*
G04 #@! TD*
G04 #@! TO.C,P2*
X118110000Y-66675000D03*
G04 #@! TD*
G04 #@! TO.C,P2*
X139700000Y-66675000D03*
G04 #@! TD*
G04 #@! TO.C,P2*
X96520000Y-69215000D03*
G04 #@! TD*
G04 #@! TO.C,P2*
X118110000Y-69215000D03*
G04 #@! TD*
G04 #@! TO.C,P2*
X139700000Y-69215000D03*
G04 #@! TD*
G04 #@! TO.C,P2*
X96520000Y-76835000D03*
G04 #@! TD*
G04 #@! TO.C,P2*
X118110000Y-76835000D03*
G04 #@! TD*
G04 #@! TO.C,P2*
X139700000Y-76835000D03*
G04 #@! TD*
G04 #@! TO.C,P2*
X96520000Y-71755000D03*
G04 #@! TD*
G04 #@! TO.C,P2*
X118110000Y-71755000D03*
G04 #@! TD*
G04 #@! TO.C,P2*
X139700000Y-71755000D03*
G04 #@! TD*
G04 #@! TO.C,P2*
X96520000Y-74295000D03*
G04 #@! TD*
G04 #@! TO.C,P2*
X118110000Y-74295000D03*
G04 #@! TD*
G04 #@! TO.C,P2*
X139700000Y-74295000D03*
G04 #@! TD*
G04 #@! TO.C,P2*
X105410000Y-76835000D03*
G04 #@! TD*
G04 #@! TO.C,P2*
X127000000Y-76835000D03*
G04 #@! TD*
G04 #@! TO.C,P2*
X148590000Y-76835000D03*
G04 #@! TD*
G04 #@! TO.C,P2*
X105410000Y-74295000D03*
G04 #@! TD*
G04 #@! TO.C,P2*
X127000000Y-74295000D03*
G04 #@! TD*
G04 #@! TO.C,P2*
X148590000Y-74295000D03*
G04 #@! TD*
G04 #@! TO.C,P2*
X105410000Y-71755000D03*
G04 #@! TD*
G04 #@! TO.C,P2*
X127000000Y-71755000D03*
G04 #@! TD*
G04 #@! TO.C,P2*
X148590000Y-71755000D03*
G04 #@! TD*
G04 #@! TO.C,P2*
X105410000Y-64135000D03*
G04 #@! TD*
G04 #@! TO.C,P2*
X127000000Y-64135000D03*
G04 #@! TD*
G04 #@! TO.C,P2*
X148590000Y-64135000D03*
G04 #@! TD*
G04 #@! TO.C,P2*
X105410000Y-69215000D03*
G04 #@! TD*
G04 #@! TO.C,P2*
X127000000Y-69215000D03*
G04 #@! TD*
G04 #@! TO.C,P2*
X148590000Y-69215000D03*
G04 #@! TD*
G04 #@! TO.C,P2*
X105410000Y-66675000D03*
G04 #@! TD*
G04 #@! TO.C,P2*
X127000000Y-66675000D03*
G04 #@! TD*
G04 #@! TO.C,P2*
X148590000Y-66675000D03*
G04 #@! TD*
G04 #@! TO.C,OLED*
X104775000Y-80645000D03*
X102235000Y-80645000D03*
X99695000Y-80645000D03*
X97155000Y-80645000D03*
G04 #@! TD*
G04 #@! TO.C,OLED*
X126365000Y-80645000D03*
X123825000Y-80645000D03*
X121285000Y-80645000D03*
X118745000Y-80645000D03*
G04 #@! TD*
G04 #@! TO.C,OLED*
X147955000Y-80645000D03*
X145415000Y-80645000D03*
X142875000Y-80645000D03*
X140335000Y-80645000D03*
G04 #@! TD*
G04 #@! TO.C,P2*
X95250000Y-83820000D03*
G04 #@! TD*
G04 #@! TO.C,P2*
X116840000Y-83820000D03*
G04 #@! TD*
G04 #@! TO.C,P2*
X138430000Y-83820000D03*
G04 #@! TD*
G04 #@! TO.C,P2*
X92710000Y-83820000D03*
G04 #@! TD*
G04 #@! TO.C,P2*
X114300000Y-83820000D03*
G04 #@! TD*
G04 #@! TO.C,P2*
X135890000Y-83820000D03*
G04 #@! TD*
G04 #@! TO.C,P2*
X95250000Y-85725000D03*
G04 #@! TD*
G04 #@! TO.C,P2*
X116840000Y-85725000D03*
G04 #@! TD*
G04 #@! TO.C,P2*
X138430000Y-85725000D03*
G04 #@! TD*
G04 #@! TO.C,P2*
X92710000Y-85725000D03*
G04 #@! TD*
G04 #@! TO.C,P2*
X114300000Y-85725000D03*
G04 #@! TD*
G04 #@! TO.C,P2*
X135890000Y-85725000D03*
G04 #@! TD*
G04 #@! TO.C,P2*
X109220000Y-83820000D03*
G04 #@! TD*
G04 #@! TO.C,P2*
X130810000Y-83820000D03*
G04 #@! TD*
G04 #@! TO.C,P2*
X152400000Y-83820000D03*
G04 #@! TD*
G04 #@! TO.C,P2*
X106680000Y-83820000D03*
G04 #@! TD*
G04 #@! TO.C,P2*
X128270000Y-83820000D03*
G04 #@! TD*
G04 #@! TO.C,P2*
X149860000Y-83820000D03*
G04 #@! TD*
G04 #@! TO.C,P2*
X106680000Y-85725000D03*
G04 #@! TD*
G04 #@! TO.C,P2*
X128270000Y-85725000D03*
G04 #@! TD*
G04 #@! TO.C,P2*
X149860000Y-85725000D03*
G04 #@! TD*
G04 #@! TO.C,P2*
X109220000Y-85725000D03*
G04 #@! TD*
G04 #@! TO.C,P2*
X130810000Y-85725000D03*
G04 #@! TD*
G04 #@! TO.C,P2*
X152400000Y-85725000D03*
G04 #@! TD*
G04 #@! TO.C,P2*
X99060000Y-61595000D03*
G04 #@! TD*
G04 #@! TO.C,P2*
X120650000Y-61595000D03*
G04 #@! TD*
G04 #@! TO.C,P2*
X142240000Y-61595000D03*
G04 #@! TD*
G04 #@! TO.C,P2*
X99060000Y-74295000D03*
G04 #@! TD*
G04 #@! TO.C,P2*
X120650000Y-74295000D03*
G04 #@! TD*
G04 #@! TO.C,P2*
X142240000Y-74295000D03*
G04 #@! TD*
G04 #@! TO.C,P2*
X99060000Y-71755000D03*
G04 #@! TD*
G04 #@! TO.C,P2*
X120650000Y-71755000D03*
G04 #@! TD*
G04 #@! TO.C,P2*
X142240000Y-71755000D03*
G04 #@! TD*
G04 #@! TO.C,P2*
X99060000Y-76835000D03*
G04 #@! TD*
G04 #@! TO.C,P2*
X120650000Y-76835000D03*
G04 #@! TD*
G04 #@! TO.C,P2*
X142240000Y-76835000D03*
G04 #@! TD*
G04 #@! TO.C,P2*
X99060000Y-69215000D03*
G04 #@! TD*
G04 #@! TO.C,P2*
X120650000Y-69215000D03*
G04 #@! TD*
G04 #@! TO.C,P2*
X142240000Y-69215000D03*
G04 #@! TD*
G04 #@! TO.C,P2*
X99060000Y-66675000D03*
G04 #@! TD*
G04 #@! TO.C,P2*
X120650000Y-66675000D03*
G04 #@! TD*
G04 #@! TO.C,P2*
X142240000Y-66675000D03*
G04 #@! TD*
G04 #@! TO.C,P2*
X99060000Y-64135000D03*
G04 #@! TD*
G04 #@! TO.C,P2*
X120650000Y-64135000D03*
G04 #@! TD*
G04 #@! TO.C,P2*
X142240000Y-64135000D03*
G04 #@! TD*
G04 #@! TO.C,P2*
X102870000Y-66675000D03*
G04 #@! TD*
G04 #@! TO.C,P2*
X124460000Y-66675000D03*
G04 #@! TD*
G04 #@! TO.C,P2*
X146050000Y-66675000D03*
G04 #@! TD*
G04 #@! TO.C,P2*
X102870000Y-69215000D03*
G04 #@! TD*
G04 #@! TO.C,P2*
X124460000Y-69215000D03*
G04 #@! TD*
G04 #@! TO.C,P2*
X146050000Y-69215000D03*
G04 #@! TD*
G04 #@! TO.C,P2*
X102870000Y-64135000D03*
G04 #@! TD*
G04 #@! TO.C,P2*
X124460000Y-64135000D03*
G04 #@! TD*
G04 #@! TO.C,P2*
X146050000Y-64135000D03*
G04 #@! TD*
G04 #@! TO.C,P2*
X102870000Y-71755000D03*
G04 #@! TD*
G04 #@! TO.C,P2*
X124460000Y-71755000D03*
G04 #@! TD*
G04 #@! TO.C,P2*
X146050000Y-71755000D03*
G04 #@! TD*
G04 #@! TO.C,P2*
X102870000Y-74295000D03*
G04 #@! TD*
G04 #@! TO.C,P2*
X124460000Y-74295000D03*
G04 #@! TD*
G04 #@! TO.C,P2*
X146050000Y-74295000D03*
G04 #@! TD*
G04 #@! TO.C,P2*
X102870000Y-76835000D03*
G04 #@! TD*
G04 #@! TO.C,P2*
X124460000Y-76835000D03*
G04 #@! TD*
G04 #@! TO.C,P2*
X146050000Y-76835000D03*
G04 #@! TD*
D15*
G04 #@! TO.C,JACK*
X167425000Y-92230000D03*
X165925000Y-88030000D03*
X161925000Y-88030000D03*
X158925000Y-88030000D03*
D14*
X157125000Y-91880000D03*
X164125000Y-91880000D03*
G04 #@! TD*
D15*
G04 #@! TO.C,JACK*
X164045000Y-89780000D03*
X165545000Y-93980000D03*
X169545000Y-93980000D03*
X172545000Y-93980000D03*
D14*
X174345000Y-90130000D03*
X167345000Y-90130000D03*
G04 #@! TD*
D13*
G04 #@! TO.C,P2*
X167640000Y-76835000D03*
G04 #@! TD*
G04 #@! TO.C,P2*
X167640000Y-74295000D03*
G04 #@! TD*
G04 #@! TO.C,P2*
X167640000Y-71755000D03*
G04 #@! TD*
G04 #@! TO.C,P2*
X167640000Y-64135000D03*
G04 #@! TD*
G04 #@! TO.C,P2*
X167640000Y-69215000D03*
G04 #@! TD*
G04 #@! TO.C,P2*
X167640000Y-66675000D03*
G04 #@! TD*
G04 #@! TO.C,P2*
X163830000Y-64135000D03*
G04 #@! TD*
G04 #@! TO.C,P2*
X163830000Y-66675000D03*
G04 #@! TD*
G04 #@! TO.C,P2*
X163830000Y-69215000D03*
G04 #@! TD*
G04 #@! TO.C,P2*
X163830000Y-76835000D03*
G04 #@! TD*
G04 #@! TO.C,P2*
X163830000Y-71755000D03*
G04 #@! TD*
G04 #@! TO.C,P2*
X163830000Y-74295000D03*
G04 #@! TD*
G04 #@! TO.C,P2*
X163830000Y-61595000D03*
G04 #@! TD*
G04 #@! TO.C,P2*
X173990000Y-85725000D03*
G04 #@! TD*
G04 #@! TO.C,P2*
X171450000Y-85725000D03*
G04 #@! TD*
G04 #@! TO.C,P2*
X171450000Y-83820000D03*
G04 #@! TD*
G04 #@! TO.C,P2*
X173990000Y-83820000D03*
G04 #@! TD*
G04 #@! TO.C,P2*
X157480000Y-85725000D03*
G04 #@! TD*
G04 #@! TO.C,P2*
X160020000Y-85725000D03*
G04 #@! TD*
G04 #@! TO.C,P2*
X157480000Y-83820000D03*
G04 #@! TD*
G04 #@! TO.C,P2*
X160020000Y-83820000D03*
G04 #@! TD*
G04 #@! TO.C,OLED*
X161925000Y-80645000D03*
X164465000Y-80645000D03*
X167005000Y-80645000D03*
X169545000Y-80645000D03*
G04 #@! TD*
G04 #@! TO.C,P2*
X170180000Y-66675000D03*
G04 #@! TD*
G04 #@! TO.C,P2*
X170180000Y-69215000D03*
G04 #@! TD*
G04 #@! TO.C,P2*
X170180000Y-64135000D03*
G04 #@! TD*
G04 #@! TO.C,P2*
X170180000Y-71755000D03*
G04 #@! TD*
G04 #@! TO.C,P2*
X170180000Y-74295000D03*
G04 #@! TD*
G04 #@! TO.C,P2*
X170180000Y-76835000D03*
G04 #@! TD*
G04 #@! TO.C,P2*
X161290000Y-74295000D03*
G04 #@! TD*
G04 #@! TO.C,P2*
X161290000Y-71755000D03*
G04 #@! TD*
G04 #@! TO.C,P2*
X161290000Y-76835000D03*
G04 #@! TD*
G04 #@! TO.C,P2*
X161290000Y-69215000D03*
G04 #@! TD*
G04 #@! TO.C,P2*
X161290000Y-66675000D03*
G04 #@! TD*
G04 #@! TO.C,P2*
X161290000Y-64135000D03*
G04 #@! TD*
G04 #@! TO.C,P2*
X161290000Y-61595000D03*
G04 #@! TD*
D16*
G04 #@! TO.C,U2*
X173355000Y-48895000D03*
X173355000Y-51435000D03*
X173355000Y-53975000D03*
X173355000Y-56515000D03*
X173355000Y-59055000D03*
X173355000Y-61595000D03*
X173355000Y-64135000D03*
X173355000Y-66675000D03*
X173355000Y-69215000D03*
X173355000Y-71755000D03*
X173355000Y-74295000D03*
X173355000Y-76835000D03*
X158115000Y-76835000D03*
X158115000Y-74295000D03*
X158115000Y-71755000D03*
X158115000Y-69215000D03*
X158115000Y-66675000D03*
X158115000Y-64135000D03*
X158115000Y-61595000D03*
X158115000Y-59055000D03*
X158115000Y-56515000D03*
X158115000Y-53975000D03*
X158115000Y-51435000D03*
X158115000Y-48895000D03*
G04 #@! TD*
D13*
G04 #@! TO.C,DATA*
X173355000Y-88900000D03*
G04 #@! TD*
G04 #@! TO.C,A*
X170815000Y-88900000D03*
G04 #@! TD*
G04 #@! TO.C,A*
X160655000Y-93345000D03*
G04 #@! TD*
G04 #@! TO.C,DATA*
X157480000Y-93345000D03*
G04 #@! TD*
G04 #@! TO.C,P2*
X167640000Y-59055000D03*
G04 #@! TD*
G04 #@! TO.C,P2*
X167640000Y-61595000D03*
G04 #@! TD*
G04 #@! TO.C,P2*
X167640000Y-48895000D03*
G04 #@! TD*
G04 #@! TO.C,P2*
X167640000Y-53975000D03*
G04 #@! TD*
G04 #@! TO.C,P2*
X167640000Y-56515000D03*
G04 #@! TD*
G04 #@! TO.C,DT*
X167640000Y-51435000D03*
G04 #@! TD*
G04 #@! TO.C,P2*
X163830000Y-59055000D03*
G04 #@! TD*
G04 #@! TO.C,P2*
X163830000Y-48895000D03*
G04 #@! TD*
G04 #@! TO.C,P2*
X163830000Y-53975000D03*
G04 #@! TD*
G04 #@! TO.C,P2*
X163830000Y-56515000D03*
G04 #@! TD*
G04 #@! TO.C,P2*
X163830000Y-51435000D03*
G04 #@! TD*
G04 #@! TO.C,P2*
X170180000Y-61595000D03*
G04 #@! TD*
G04 #@! TO.C,P2*
X170180000Y-48895000D03*
G04 #@! TD*
G04 #@! TO.C,P2*
X170180000Y-59055000D03*
G04 #@! TD*
G04 #@! TO.C,P2*
X170180000Y-53975000D03*
G04 #@! TD*
G04 #@! TO.C,P2*
X170180000Y-51435000D03*
G04 #@! TD*
G04 #@! TO.C,P2*
X170180000Y-56515000D03*
G04 #@! TD*
G04 #@! TO.C,P2*
X161290000Y-59055000D03*
G04 #@! TD*
G04 #@! TO.C,P2*
X161290000Y-56515000D03*
G04 #@! TD*
G04 #@! TO.C,P2*
X161290000Y-53975000D03*
G04 #@! TD*
G04 #@! TO.C,P2*
X161290000Y-51435000D03*
G04 #@! TD*
G04 #@! TO.C,P2*
X161290000Y-48895000D03*
G04 #@! TD*
D11*
G04 #@! TO.C,HOLE_M2*
X173355000Y-80645000D03*
G04 #@! TD*
G04 #@! TO.C,HOLE_M2*
X158115000Y-80645000D03*
G04 #@! TD*
G04 #@! TO.C,HOLE_M2*
X173355000Y-97155000D03*
G04 #@! TD*
D12*
G04 #@! TO.C,RESET1*
X169060000Y-84455000D03*
X162560000Y-84455000D03*
G04 #@! TD*
D11*
G04 #@! TO.C,HOLE_M2*
X158115000Y-97155000D03*
G04 #@! TD*
M02*
