M48
; DRILL file {KiCad (5.1.6-0-10_14)} date Monday, April 19, 2021 at 11:15:18 AM
; FORMAT={-:-/ absolute / inch / decimal}
; #@! TF.CreationDate,2021-04-19T11:15:18+02:00
; #@! TF.GenerationSoftware,Kicad,Pcbnew,(5.1.6-0-10_14)
FMAT,2
INCH
T1C0.0157
T2C0.0315
T3C0.0748
T4C0.1181
T5C0.1614
%
G90
G05
T1
X2.63Y-1.63
X2.63Y-2.38
X2.63Y-3.13
X2.63Y-3.88
X2.63Y-4.63
X2.705Y-1.33
X2.705Y-2.08
X2.705Y-2.83
X2.705Y-3.58
X2.705Y-4.33
X2.755Y-1.18
X2.755Y-1.93
X2.755Y-2.68
X2.755Y-3.43
X2.755Y-4.18
X2.78Y-1.255
X2.78Y-1.48
X2.78Y-2.005
X2.78Y-2.23
X2.78Y-2.755
X2.78Y-2.98
X2.78Y-3.505
X2.78Y-3.73
X2.78Y-4.255
X2.78Y-4.48
X2.805Y-1.53
X2.805Y-2.28
X2.805Y-3.03
X2.805Y-3.78
X2.805Y-4.53
X2.9504Y-1.6004
X2.9504Y-2.3504
X2.9504Y-3.1004
X2.9504Y-3.8504
X2.9504Y-4.6004
X2.98Y-1.555
X2.98Y-2.305
X2.98Y-3.055
X2.98Y-3.805
X2.98Y-4.555
X3.0245Y-1.2995
X3.0245Y-2.0495
X3.0245Y-2.7995
X3.0245Y-3.5495
X3.0245Y-4.2995
X3.03Y-1.655
X3.03Y-2.405
X3.03Y-3.155
X3.03Y-3.905
X3.03Y-4.655
X3.0769Y-1.1893
X3.0769Y-1.33
X3.0769Y-1.9393
X3.0769Y-2.08
X3.0769Y-2.6893
X3.0769Y-2.83
X3.0769Y-3.4393
X3.0769Y-3.58
X3.0769Y-4.1893
X3.0769Y-4.33
X3.11Y-1.255
X3.11Y-2.005
X3.11Y-2.755
X3.11Y-3.505
X3.11Y-4.255
X3.14Y-1.565
X3.14Y-2.315
X3.14Y-3.065
X3.14Y-3.815
X3.14Y-4.565
X3.15Y-1.625
X3.15Y-2.375
X3.15Y-3.125
X3.15Y-3.875
X3.15Y-4.625
X3.155Y-1.23
X3.155Y-1.98
X3.155Y-2.73
X3.155Y-3.48
X3.155Y-4.23
X3.205Y-1.33
X3.205Y-2.08
X3.205Y-2.83
X3.205Y-3.58
X3.205Y-4.33
X3.23Y-1.18
X3.23Y-1.93
X3.23Y-2.68
X3.23Y-3.43
X3.23Y-4.18
X3.38Y-1.63
X3.38Y-2.38
X3.38Y-3.13
X3.38Y-3.88
X3.38Y-4.63
X3.455Y-1.33
X3.455Y-2.08
X3.455Y-2.83
X3.455Y-3.58
X3.455Y-4.33
X3.505Y-1.18
X3.505Y-1.93
X3.505Y-2.68
X3.505Y-3.43
X3.505Y-4.18
X3.53Y-1.255
X3.53Y-1.48
X3.53Y-2.005
X3.53Y-2.23
X3.53Y-2.755
X3.53Y-2.98
X3.53Y-3.505
X3.53Y-3.73
X3.53Y-4.255
X3.53Y-4.48
X3.555Y-1.53
X3.555Y-2.28
X3.555Y-3.03
X3.555Y-3.78
X3.555Y-4.53
X3.7004Y-1.6004
X3.7004Y-2.3504
X3.7004Y-3.1004
X3.7004Y-3.8504
X3.7004Y-4.6004
X3.73Y-1.555
X3.73Y-2.305
X3.73Y-3.055
X3.73Y-3.805
X3.73Y-4.555
X3.7745Y-1.2995
X3.7745Y-2.0495
X3.7745Y-2.7995
X3.7745Y-3.5495
X3.7745Y-4.2995
X3.78Y-1.655
X3.78Y-2.405
X3.78Y-3.155
X3.78Y-3.905
X3.78Y-4.655
X3.8269Y-1.1893
X3.8269Y-1.33
X3.8269Y-1.9393
X3.8269Y-2.08
X3.8269Y-2.6893
X3.8269Y-2.83
X3.8269Y-3.4393
X3.8269Y-3.58
X3.8269Y-4.1893
X3.8269Y-4.33
X3.86Y-1.255
X3.86Y-2.005
X3.86Y-2.755
X3.86Y-3.505
X3.86Y-4.255
X3.89Y-1.565
X3.89Y-2.315
X3.89Y-3.065
X3.89Y-3.815
X3.89Y-4.565
X3.9Y-1.625
X3.9Y-2.375
X3.9Y-3.125
X3.9Y-3.875
X3.9Y-4.625
X3.905Y-1.23
X3.905Y-1.98
X3.905Y-2.73
X3.905Y-3.48
X3.905Y-4.23
X3.955Y-1.33
X3.955Y-2.08
X3.955Y-2.83
X3.955Y-3.58
X3.955Y-4.33
X3.98Y-1.18
X3.98Y-1.93
X3.98Y-2.68
X3.98Y-3.43
X3.98Y-4.18
X4.13Y-1.63
X4.13Y-2.38
X4.13Y-3.13
X4.13Y-3.88
X4.13Y-4.63
X4.205Y-1.33
X4.205Y-2.08
X4.205Y-2.83
X4.205Y-3.58
X4.205Y-4.33
X4.255Y-1.18
X4.255Y-1.93
X4.255Y-2.68
X4.255Y-3.43
X4.255Y-4.18
X4.28Y-1.255
X4.28Y-1.48
X4.28Y-2.005
X4.28Y-2.23
X4.28Y-2.755
X4.28Y-2.98
X4.28Y-3.505
X4.28Y-3.73
X4.28Y-4.255
X4.28Y-4.48
X4.305Y-1.53
X4.305Y-2.28
X4.305Y-3.03
X4.305Y-3.78
X4.305Y-4.53
X4.4504Y-1.6004
X4.4504Y-2.3504
X4.4504Y-3.1004
X4.4504Y-3.8504
X4.4504Y-4.6004
X4.48Y-1.555
X4.48Y-2.305
X4.48Y-3.055
X4.48Y-3.805
X4.48Y-4.555
X4.5245Y-1.2995
X4.5245Y-2.0495
X4.5245Y-2.7995
X4.5245Y-3.5495
X4.5245Y-4.2995
X4.53Y-1.655
X4.53Y-2.405
X4.53Y-3.155
X4.53Y-3.905
X4.53Y-4.655
X4.5769Y-1.1893
X4.5769Y-1.33
X4.5769Y-1.9393
X4.5769Y-2.08
X4.5769Y-2.6893
X4.5769Y-2.83
X4.5769Y-3.4393
X4.5769Y-3.58
X4.5769Y-4.1893
X4.5769Y-4.33
X4.61Y-1.255
X4.61Y-2.005
X4.61Y-2.755
X4.61Y-3.505
X4.61Y-4.255
X4.64Y-1.565
X4.64Y-2.315
X4.64Y-3.065
X4.64Y-3.815
X4.64Y-4.565
X4.65Y-1.625
X4.65Y-2.375
X4.65Y-3.125
X4.65Y-3.875
X4.65Y-4.625
X4.655Y-1.23
X4.655Y-1.98
X4.655Y-2.73
X4.655Y-3.48
X4.655Y-4.23
X4.705Y-1.33
X4.705Y-2.08
X4.705Y-2.83
X4.705Y-3.58
X4.705Y-4.33
X4.73Y-1.18
X4.73Y-1.93
X4.73Y-2.68
X4.73Y-3.43
X4.73Y-4.18
X4.88Y-1.63
X4.88Y-2.38
X4.88Y-3.13
X4.88Y-3.88
X4.88Y-4.63
X4.955Y-1.33
X4.955Y-2.08
X4.955Y-2.83
X4.955Y-3.58
X4.955Y-4.33
X5.005Y-1.18
X5.005Y-1.93
X5.005Y-2.68
X5.005Y-3.43
X5.005Y-4.18
X5.03Y-1.255
X5.03Y-1.48
X5.03Y-2.005
X5.03Y-2.23
X5.03Y-2.755
X5.03Y-2.98
X5.03Y-3.505
X5.03Y-3.73
X5.03Y-4.255
X5.03Y-4.48
X5.055Y-1.53
X5.055Y-2.28
X5.055Y-3.03
X5.055Y-3.78
X5.055Y-4.53
X5.2004Y-1.6004
X5.2004Y-2.3504
X5.2004Y-3.1004
X5.2004Y-3.8504
X5.2004Y-4.6004
X5.23Y-1.555
X5.23Y-2.305
X5.23Y-3.055
X5.23Y-3.805
X5.23Y-4.555
X5.2745Y-1.2995
X5.2745Y-2.0495
X5.2745Y-2.7995
X5.2745Y-3.5495
X5.2745Y-4.2995
X5.28Y-1.655
X5.28Y-2.405
X5.28Y-3.155
X5.28Y-3.905
X5.28Y-4.655
X5.3269Y-1.1893
X5.3269Y-1.33
X5.3269Y-1.9393
X5.3269Y-2.08
X5.3269Y-2.6893
X5.3269Y-2.83
X5.3269Y-3.4393
X5.3269Y-3.58
X5.3269Y-4.1893
X5.3269Y-4.33
X5.36Y-1.255
X5.36Y-2.005
X5.36Y-2.755
X5.36Y-3.505
X5.36Y-4.255
X5.39Y-1.565
X5.39Y-2.315
X5.39Y-3.065
X5.39Y-3.815
X5.39Y-4.565
X5.4Y-1.625
X5.4Y-2.375
X5.4Y-3.125
X5.4Y-3.875
X5.4Y-4.625
X5.405Y-1.23
X5.405Y-1.98
X5.405Y-2.73
X5.405Y-3.48
X5.405Y-4.23
X5.455Y-1.33
X5.455Y-2.08
X5.455Y-2.83
X5.455Y-3.58
X5.455Y-4.33
X5.48Y-1.18
X5.48Y-1.93
X5.48Y-2.68
X5.48Y-3.43
X5.48Y-4.18
X5.63Y-1.63
X5.63Y-2.38
X5.63Y-3.13
X5.63Y-3.88
X5.63Y-4.63
X5.705Y-1.33
X5.705Y-2.08
X5.705Y-2.83
X5.705Y-3.58
X5.705Y-4.33
X5.755Y-1.18
X5.755Y-1.93
X5.755Y-2.68
X5.755Y-3.43
X5.755Y-4.18
X5.78Y-1.255
X5.78Y-1.48
X5.78Y-2.005
X5.78Y-2.23
X5.78Y-2.755
X5.78Y-2.98
X5.78Y-3.505
X5.78Y-3.73
X5.78Y-4.255
X5.78Y-4.48
X5.805Y-1.53
X5.805Y-2.28
X5.805Y-3.03
X5.805Y-3.78
X5.805Y-4.53
X5.9504Y-1.6004
X5.9504Y-2.3504
X5.9504Y-3.1004
X5.9504Y-3.8504
X5.9504Y-4.6004
X5.98Y-1.555
X5.98Y-2.305
X5.98Y-3.055
X5.98Y-3.805
X5.98Y-4.555
X6.0245Y-1.2995
X6.0245Y-2.0495
X6.0245Y-2.7995
X6.0245Y-3.5495
X6.0245Y-4.2995
X6.03Y-1.655
X6.03Y-2.405
X6.03Y-3.155
X6.03Y-3.905
X6.03Y-4.655
X6.0769Y-1.1893
X6.0769Y-1.33
X6.0769Y-1.9393
X6.0769Y-2.08
X6.0769Y-2.6893
X6.0769Y-2.83
X6.0769Y-3.4393
X6.0769Y-3.58
X6.0769Y-4.1893
X6.0769Y-4.33
X6.11Y-1.255
X6.11Y-2.005
X6.11Y-2.755
X6.11Y-3.505
X6.11Y-4.255
X6.14Y-1.565
X6.14Y-2.315
X6.14Y-3.065
X6.14Y-3.815
X6.14Y-4.565
X6.15Y-1.625
X6.15Y-2.375
X6.15Y-3.125
X6.15Y-3.875
X6.15Y-4.625
X6.155Y-1.23
X6.155Y-1.98
X6.155Y-2.73
X6.155Y-3.48
X6.155Y-4.23
X6.205Y-1.33
X6.205Y-2.08
X6.205Y-2.83
X6.205Y-3.58
X6.205Y-4.33
X6.23Y-1.18
X6.23Y-1.93
X6.23Y-2.68
X6.23Y-3.43
X6.23Y-4.18
T2
X3.23Y-3.205
X5.48Y-4.405
X4.13Y-4.405
X3.98Y-3.655
X5.63Y-2.905
X3.98Y-2.905
X3.23Y-4.605
X3.23Y-3.855
X3.23Y-3.105
X3.23Y-2.355
X5.63Y-4.255
X5.63Y-3.505
X5.63Y-2.755
X5.63Y-2.005
X5.63Y-1.255
X4.88Y-4.53
X4.88Y-3.78
X4.88Y-3.03
X4.88Y-2.28
X4.88Y-1.53
X4.73Y-4.255
X4.73Y-3.505
X4.73Y-2.755
X4.73Y-2.005
X4.73Y-1.255
X3.23Y-2.605
X4.23Y-2.455
X4.48Y-2.455
X4.98Y-3.205
X5.23Y-3.205
X4.73Y-2.455
X3.48Y-4.705
X3.73Y-4.705
X3.105Y-1.105
X4.88Y-4.105
X3.23Y-1.855
X4.73Y-4.105
X4.88Y-1.855
X6.105Y-1.855
X3.98Y-4.105
X2.63Y-1.53
X2.63Y-1.405
X2.73Y-2.455
X2.98Y-2.455
X5.63Y-1.705
X3.48Y-3.205
X3.73Y-3.205
X3.105Y-4.705
X2.63Y-4.405
X3.23Y-3.355
X3.98Y-3.355
X3.98Y-3.955
X4.73Y-3.355
X4.23Y-3.955
X4.48Y-3.955
X6.23Y-1.705
X4.88Y-1.105
X5.48Y-1.705
X4.605Y-1.705
X5.355Y-3.955
X6.23Y-3.955
X6.23Y-3.205
X3.855Y-2.455
X3.855Y-1.855
X5.355Y-3.205
X5.48Y-2.605
X4.73Y-2.605
X3.855Y-3.205
X3.48Y-2.455
X3.73Y-2.455
X5.63Y-4.405
X5.48Y-3.655
X4.13Y-3.655
X6.23Y-2.905
X4.73Y-4.605
X4.73Y-3.855
X4.73Y-3.105
X4.73Y-2.355
X4.73Y-1.605
X3.38Y-4.255
X3.38Y-3.505
X3.38Y-2.755
X3.38Y-2.005
X3.38Y-1.255
X2.63Y-4.53
X2.63Y-3.78
X2.63Y-3.03
X2.63Y-2.28
X6.23Y-4.255
X6.23Y-3.505
X6.23Y-2.755
X6.23Y-2.005
X6.23Y-1.255
X5.63Y-4.705
X4.13Y-2.455
X6.105Y-4.105
X4.605Y-2.455
X4.88Y-2.455
X4.88Y-2.905
X4.88Y-4.705
X5.48Y-2.455
X4.23Y-1.705
X4.48Y-1.705
X5.48Y-4.105
X3.105Y-1.855
X3.38Y-1.405
X4.13Y-4.105
X4.605Y-4.105
X3.38Y-1.705
X5.63Y-2.155
X6.23Y-2.155
X2.73Y-3.205
X2.98Y-3.205
X3.38Y-4.105
X3.98Y-1.405
X3.23Y-1.255
X2.63Y-1.705
X3.48Y-3.955
X3.73Y-3.955
X6.23Y-1.105
X4.73Y-1.405
X2.63Y-4.105
X2.63Y-3.655
X2.63Y-3.355
X3.38Y-3.955
X4.13Y-3.955
X4.88Y-3.355
X4.88Y-1.405
X4.605Y-1.105
X5.63Y-3.355
X5.63Y-2.605
X3.38Y-1.855
X4.88Y-2.605
X4.605Y-2.605
X3.98Y-3.205
X2.63Y-3.205
X5.73Y-1.705
X5.98Y-1.705
X3.105Y-3.205
X2.73Y-4.705
X2.98Y-4.705
X4.73Y-4.405
X3.38Y-4.405
X5.63Y-3.655
X4.13Y-2.905
X6.23Y-4.605
X6.23Y-3.855
X6.23Y-3.105
X6.23Y-2.355
X6.23Y-1.605
X4.88Y-4.255
X4.88Y-3.505
X4.88Y-2.755
X4.88Y-2.005
X4.88Y-1.255
X4.13Y-4.53
X4.13Y-3.78
X4.13Y-3.03
X4.13Y-2.28
X4.13Y-1.53
X3.98Y-4.255
X3.98Y-3.505
X3.98Y-2.755
X3.98Y-2.005
X3.98Y-1.255
X2.63Y-2.605
X5.63Y-4.105
X3.23Y-2.455
X4.605Y-1.855
X4.73Y-2.155
X2.73Y-1.705
X2.98Y-1.705
X5.48Y-2.155
X5.48Y-4.705
X2.63Y-1.855
X4.88Y-2.155
X4.73Y-4.705
X6.23Y-1.855
X5.63Y-1.855
X5.73Y-4.705
X5.98Y-4.705
X3.855Y-4.105
X3.98Y-1.705
X2.63Y-1.255
X3.23Y-1.105
X5.63Y-1.105
X4.13Y-1.705
X3.105Y-4.105
X3.23Y-4.105
X3.23Y-3.655
X3.38Y-3.355
X4.605Y-3.955
X4.73Y-3.955
X5.355Y-1.105
X5.48Y-1.405
X5.48Y-3.955
X4.73Y-1.105
X5.48Y-3.355
X6.105Y-3.355
X6.105Y-3.205
X3.38Y-2.155
X3.98Y-1.855
X5.48Y-3.205
X4.73Y-3.205
X4.605Y-3.205
X3.98Y-2.605
X5.73Y-3.955
X5.98Y-3.955
X6.23Y-4.405
X4.88Y-4.405
X4.73Y-3.655
X3.38Y-3.655
X4.73Y-2.905
X3.98Y-4.605
X3.98Y-3.855
X3.98Y-3.105
X3.98Y-2.355
X3.98Y-1.605
X2.63Y-4.255
X2.63Y-3.505
X2.63Y-2.755
X2.63Y-2.005
X5.63Y-4.53
X5.63Y-3.78
X5.63Y-3.03
X5.63Y-2.28
X5.63Y-1.53
X5.48Y-4.255
X5.48Y-3.505
X5.48Y-2.755
X5.48Y-2.005
X5.48Y-1.255
X4.13Y-1.855
X6.23Y-4.705
X4.73Y-1.855
X3.105Y-1.705
X5.73Y-2.455
X5.98Y-2.455
X5.355Y-4.705
X4.13Y-1.405
X3.23Y-2.155
X3.855Y-1.105
X2.73Y-3.955
X2.98Y-3.955
X4.98Y-4.705
X5.23Y-4.705
X4.13Y-4.705
X3.855Y-4.705
X6.105Y-2.455
X6.105Y-1.705
X3.38Y-4.705
X3.855Y-1.705
X3.23Y-1.405
X2.63Y-1.105
X5.63Y-1.405
X3.23Y-4.405
X3.105Y-3.355
X2.63Y-3.955
X3.855Y-3.955
X4.605Y-3.355
X6.23Y-1.405
X4.88Y-1.705
X4.98Y-1.705
X5.23Y-1.705
X4.73Y-1.705
X4.23Y-3.205
X4.48Y-3.205
X5.355Y-3.355
X6.23Y-3.355
X6.23Y-2.605
X4.98Y-3.955
X5.23Y-3.955
X3.98Y-2.155
X5.63Y-3.205
X5.355Y-2.605
X4.13Y-2.605
X3.855Y-2.605
X3.105Y-2.605
X3.23Y-2.905
X3.98Y-4.405
X6.23Y-3.655
X4.88Y-3.655
X3.38Y-2.905
X5.48Y-4.605
X5.48Y-3.855
X5.48Y-3.105
X5.48Y-2.355
X5.48Y-1.605
X4.13Y-4.255
X4.13Y-3.505
X4.13Y-2.755
X4.13Y-2.005
X4.13Y-1.255
X3.38Y-4.53
X3.38Y-3.78
X3.38Y-3.03
X3.38Y-2.28
X3.38Y-1.53
X3.23Y-4.255
X3.23Y-3.505
X3.23Y-2.755
X3.23Y-2.005
X6.105Y-3.955
X2.63Y-2.905
X6.23Y-4.105
X3.105Y-2.455
X4.13Y-2.155
X5.355Y-1.855
X4.98Y-2.455
X5.23Y-2.455
X5.48Y-2.905
X6.105Y-4.705
X5.73Y-3.205
X5.98Y-3.205
X5.48Y-1.855
X4.23Y-4.705
X4.48Y-4.705
X5.355Y-4.105
X2.63Y-2.155
X2.63Y-2.455
X5.355Y-2.455
X4.605Y-4.705
X3.38Y-1.105
X6.23Y-2.455
X5.63Y-2.455
X3.98Y-4.705
X3.23Y-4.705
X3.98Y-1.105
X3.23Y-1.605
X3.23Y-1.705
X6.105Y-1.105
X4.13Y-1.105
X2.63Y-4.705
X3.23Y-3.955
X3.105Y-3.955
X3.855Y-3.355
X4.13Y-3.355
X4.88Y-3.955
X3.48Y-1.705
X3.73Y-1.705
X5.48Y-1.105
X5.355Y-1.705
X3.98Y-2.455
X5.63Y-3.955
X6.105Y-2.605
X3.38Y-2.455
X4.88Y-3.205
X4.13Y-3.205
X3.38Y-2.605
X3.38Y-3.205
T3
X2.73Y-3.655
X3.13Y-3.655
X4.98Y-4.405
X5.38Y-4.405
X4.98Y-1.405
X5.38Y-1.405
X4.23Y-4.405
X4.63Y-4.405
X4.98Y-2.155
X5.38Y-2.155
X3.48Y-2.905
X3.88Y-2.905
X4.23Y-1.405
X4.63Y-1.405
X3.48Y-1.405
X3.88Y-1.405
X5.73Y-3.655
X6.13Y-3.655
X4.23Y-2.905
X4.63Y-2.905
X5.73Y-1.405
X6.13Y-1.405
X4.98Y-2.905
X5.38Y-2.905
X4.23Y-2.155
X4.63Y-2.155
X3.48Y-3.655
X3.88Y-3.655
X2.73Y-1.405
X3.13Y-1.405
X5.73Y-4.405
X6.13Y-4.405
X5.73Y-2.905
X6.13Y-2.905
X5.73Y-2.155
X6.13Y-2.155
X3.48Y-4.405
X3.88Y-4.405
X4.98Y-3.655
X5.38Y-3.655
X3.48Y-2.155
X3.88Y-2.155
X2.73Y-4.405
X3.13Y-4.405
X2.73Y-2.905
X3.13Y-2.905
X2.73Y-2.155
X3.13Y-2.155
X4.23Y-3.655
X4.63Y-3.655
T4
X2.83Y-3.855
X3.08Y-3.755
X5.08Y-4.605
X5.33Y-4.505
X5.08Y-1.605
X5.33Y-1.505
X4.33Y-4.605
X4.58Y-4.505
X5.08Y-2.355
X5.33Y-2.255
X3.58Y-3.105
X3.83Y-3.005
X4.33Y-1.605
X4.58Y-1.505
X3.58Y-1.605
X3.83Y-1.505
X5.83Y-3.855
X6.08Y-3.755
X4.33Y-3.105
X4.58Y-3.005
X5.83Y-1.605
X6.08Y-1.505
X5.08Y-3.105
X5.33Y-3.005
X4.33Y-2.355
X4.58Y-2.255
X3.58Y-3.855
X3.83Y-3.755
X2.83Y-1.605
X3.08Y-1.505
X5.83Y-4.605
X6.08Y-4.505
X5.83Y-3.105
X6.08Y-3.005
X5.83Y-2.355
X6.08Y-2.255
X3.58Y-4.605
X3.83Y-4.505
X5.08Y-3.855
X5.33Y-3.755
X3.58Y-2.355
X3.83Y-2.255
X2.83Y-4.605
X3.08Y-4.505
X2.83Y-3.105
X3.08Y-3.005
X2.83Y-2.355
X3.08Y-2.255
X4.33Y-3.855
X4.58Y-3.755
T5
X3.68Y-2.905
X4.43Y-1.405
X3.68Y-1.405
X5.93Y-3.655
X4.43Y-2.905
X5.93Y-1.405
X5.18Y-2.905
X4.43Y-2.155
X3.68Y-3.655
X2.93Y-1.405
X5.93Y-4.405
X5.93Y-2.905
X5.93Y-2.155
X3.68Y-4.405
X5.18Y-3.655
X3.68Y-2.155
X2.93Y-4.405
X2.93Y-2.905
X2.93Y-2.155
X4.43Y-3.655
X2.93Y-3.655
X5.18Y-4.405
X5.18Y-1.405
X4.43Y-4.405
X5.18Y-2.155
T0
M30
