M48
;DRILL file {KiCad 5.0.2-bee76a0~70~ubuntu18.04.1} date 2019年03月26日 01時30分38秒
;FORMAT={-:-/ absolute / metric / decimal}
FMAT,2
METRIC,TZ
T1C0.400
T2C0.800
T3C1.900
T4C3.000
T5C4.100
%
G90
G05
T1
X66.802Y-41.402
X66.802Y-60.452
X66.802Y-79.502
X66.802Y-98.552
X66.802Y-117.602
X68.707Y-33.782
X68.707Y-52.832
X68.707Y-71.882
X68.707Y-90.932
X68.707Y-109.982
X69.977Y-29.972
X69.977Y-49.022
X69.977Y-68.072
X69.977Y-87.122
X69.977Y-106.172
X70.612Y-31.877
X70.612Y-37.592
X70.612Y-50.927
X70.612Y-56.642
X70.612Y-69.977
X70.612Y-75.692
X70.612Y-89.027
X70.612Y-94.742
X70.612Y-108.077
X70.612Y-113.792
X71.247Y-38.862
X71.247Y-57.912
X71.247Y-76.962
X71.247Y-96.012
X71.247Y-115.062
X74.94Y-40.65
X74.94Y-59.7
X74.94Y-78.75
X74.94Y-97.8
X74.94Y-116.85
X75.692Y-39.497
X75.692Y-58.547
X75.692Y-77.597
X75.692Y-96.647
X75.692Y-115.697
X76.822Y-33.007
X76.822Y-52.057
X76.822Y-71.107
X76.822Y-90.157
X76.822Y-109.207
X76.962Y-42.037
X76.962Y-61.087
X76.962Y-80.137
X76.962Y-99.187
X76.962Y-118.237
X78.152Y-30.207
X78.152Y-33.782
X78.152Y-49.257
X78.152Y-52.832
X78.152Y-68.307
X78.152Y-71.882
X78.152Y-87.357
X78.152Y-90.932
X78.152Y-106.407
X78.152Y-109.982
X78.994Y-31.877
X78.994Y-50.927
X78.994Y-69.977
X78.994Y-89.027
X78.994Y-108.077
X79.756Y-39.751
X79.756Y-58.801
X79.756Y-77.851
X79.756Y-96.901
X79.756Y-115.951
X80.01Y-41.275
X80.01Y-60.325
X80.01Y-79.375
X80.01Y-98.425
X80.01Y-117.475
X80.137Y-31.242
X80.137Y-50.292
X80.137Y-69.342
X80.137Y-88.392
X80.137Y-107.442
X81.407Y-33.782
X81.407Y-52.832
X81.407Y-71.882
X81.407Y-90.932
X81.407Y-109.982
X82.042Y-29.972
X82.042Y-49.022
X82.042Y-68.072
X82.042Y-87.122
X82.042Y-106.172
X85.852Y-41.402
X85.852Y-60.452
X85.852Y-79.502
X85.852Y-98.552
X85.852Y-117.602
X87.757Y-33.782
X87.757Y-52.832
X87.757Y-71.882
X87.757Y-90.932
X87.757Y-109.982
X89.027Y-29.972
X89.027Y-49.022
X89.027Y-68.072
X89.027Y-87.122
X89.027Y-106.172
X89.662Y-31.877
X89.662Y-37.592
X89.662Y-50.927
X89.662Y-56.642
X89.662Y-69.977
X89.662Y-75.692
X89.662Y-89.027
X89.662Y-94.742
X89.662Y-108.077
X89.662Y-113.792
X90.297Y-38.862
X90.297Y-57.912
X90.297Y-76.962
X90.297Y-96.012
X90.297Y-115.062
X93.99Y-40.65
X93.99Y-59.7
X93.99Y-78.75
X93.99Y-97.8
X93.99Y-116.85
X94.742Y-39.497
X94.742Y-58.547
X94.742Y-77.597
X94.742Y-96.647
X94.742Y-115.697
X95.872Y-33.007
X95.872Y-52.057
X95.872Y-71.107
X95.872Y-90.157
X95.872Y-109.207
X96.012Y-42.037
X96.012Y-61.087
X96.012Y-80.137
X96.012Y-99.187
X96.012Y-118.237
X97.202Y-30.207
X97.202Y-33.782
X97.202Y-49.257
X97.202Y-52.832
X97.202Y-68.307
X97.202Y-71.882
X97.202Y-87.357
X97.202Y-90.932
X97.202Y-106.407
X97.202Y-109.982
X98.044Y-31.877
X98.044Y-50.927
X98.044Y-69.977
X98.044Y-89.027
X98.044Y-108.077
X98.806Y-39.751
X98.806Y-58.801
X98.806Y-77.851
X98.806Y-96.901
X98.806Y-115.951
X99.06Y-41.275
X99.06Y-60.325
X99.06Y-79.375
X99.06Y-98.425
X99.06Y-117.475
X99.187Y-31.242
X99.187Y-50.292
X99.187Y-69.342
X99.187Y-88.392
X99.187Y-107.442
X100.457Y-33.782
X100.457Y-52.832
X100.457Y-71.882
X100.457Y-90.932
X100.457Y-109.982
X101.092Y-29.972
X101.092Y-49.022
X101.092Y-68.072
X101.092Y-87.122
X101.092Y-106.172
X104.902Y-41.402
X104.902Y-60.452
X104.902Y-79.502
X104.902Y-98.552
X104.902Y-117.602
X106.807Y-33.782
X106.807Y-52.832
X106.807Y-71.882
X106.807Y-90.932
X106.807Y-109.982
X108.077Y-29.972
X108.077Y-49.022
X108.077Y-68.072
X108.077Y-87.122
X108.077Y-106.172
X108.712Y-31.877
X108.712Y-37.592
X108.712Y-50.927
X108.712Y-56.642
X108.712Y-69.977
X108.712Y-75.692
X108.712Y-89.027
X108.712Y-94.742
X108.712Y-108.077
X108.712Y-113.792
X109.347Y-38.862
X109.347Y-57.912
X109.347Y-76.962
X109.347Y-96.012
X109.347Y-115.062
X113.04Y-40.65
X113.04Y-59.7
X113.04Y-78.75
X113.04Y-97.8
X113.04Y-116.85
X113.792Y-39.497
X113.792Y-58.547
X113.792Y-77.597
X113.792Y-96.647
X113.792Y-115.697
X114.922Y-33.007
X114.922Y-52.057
X114.922Y-71.107
X114.922Y-90.157
X114.922Y-109.207
X115.062Y-42.037
X115.062Y-61.087
X115.062Y-80.137
X115.062Y-99.187
X115.062Y-118.237
X116.252Y-30.207
X116.252Y-33.782
X116.252Y-49.257
X116.252Y-52.832
X116.252Y-68.307
X116.252Y-71.882
X116.252Y-87.357
X116.252Y-90.932
X116.252Y-106.407
X116.252Y-109.982
X117.094Y-31.877
X117.094Y-50.927
X117.094Y-69.977
X117.094Y-89.027
X117.094Y-108.077
X117.856Y-39.751
X117.856Y-58.801
X117.856Y-77.851
X117.856Y-96.901
X117.856Y-115.951
X118.11Y-41.275
X118.11Y-60.325
X118.11Y-79.375
X118.11Y-98.425
X118.11Y-117.475
X118.237Y-31.242
X118.237Y-50.292
X118.237Y-69.342
X118.237Y-88.392
X118.237Y-107.442
X119.507Y-33.782
X119.507Y-52.832
X119.507Y-71.882
X119.507Y-90.932
X119.507Y-109.982
X120.142Y-29.972
X120.142Y-49.022
X120.142Y-68.072
X120.142Y-87.122
X120.142Y-106.172
X123.952Y-41.402
X123.952Y-60.452
X123.952Y-79.502
X123.952Y-98.552
X123.952Y-117.602
X125.857Y-33.782
X125.857Y-52.832
X125.857Y-71.882
X125.857Y-90.932
X125.857Y-109.982
X127.127Y-29.972
X127.127Y-49.022
X127.127Y-68.072
X127.127Y-87.122
X127.127Y-106.172
X127.762Y-31.877
X127.762Y-37.592
X127.762Y-50.927
X127.762Y-56.642
X127.762Y-69.977
X127.762Y-75.692
X127.762Y-89.027
X127.762Y-94.742
X127.762Y-108.077
X127.762Y-113.792
X128.397Y-38.862
X128.397Y-57.912
X128.397Y-76.962
X128.397Y-96.012
X128.397Y-115.062
X132.09Y-40.65
X132.09Y-59.7
X132.09Y-78.75
X132.09Y-97.8
X132.09Y-116.85
X132.842Y-39.497
X132.842Y-58.547
X132.842Y-77.597
X132.842Y-96.647
X132.842Y-115.697
X133.972Y-33.007
X133.972Y-52.057
X133.972Y-71.107
X133.972Y-90.157
X133.972Y-109.207
X134.112Y-42.037
X134.112Y-61.087
X134.112Y-80.137
X134.112Y-99.187
X134.112Y-118.237
X135.302Y-30.207
X135.302Y-33.782
X135.302Y-49.257
X135.302Y-52.832
X135.302Y-68.307
X135.302Y-71.882
X135.302Y-87.357
X135.302Y-90.932
X135.302Y-106.407
X135.302Y-109.982
X136.144Y-31.877
X136.144Y-50.927
X136.144Y-69.977
X136.144Y-89.027
X136.144Y-108.077
X136.906Y-39.751
X136.906Y-58.801
X136.906Y-77.851
X136.906Y-96.901
X136.906Y-115.951
X137.16Y-41.275
X137.16Y-60.325
X137.16Y-79.375
X137.16Y-98.425
X137.16Y-117.475
X137.287Y-31.242
X137.287Y-50.292
X137.287Y-69.342
X137.287Y-88.392
X137.287Y-107.442
X138.557Y-33.782
X138.557Y-52.832
X138.557Y-71.882
X138.557Y-90.932
X138.557Y-109.982
X139.192Y-29.972
X139.192Y-49.022
X139.192Y-68.072
X139.192Y-87.122
X139.192Y-106.172
X143.002Y-41.402
X143.002Y-60.452
X143.002Y-79.502
X143.002Y-98.552
X143.002Y-117.602
X144.907Y-33.782
X144.907Y-52.832
X144.907Y-71.882
X144.907Y-90.932
X144.907Y-109.982
X146.177Y-29.972
X146.177Y-49.022
X146.177Y-68.072
X146.177Y-87.122
X146.177Y-106.172
X146.812Y-31.877
X146.812Y-37.592
X146.812Y-50.927
X146.812Y-56.642
X146.812Y-69.977
X146.812Y-75.692
X146.812Y-89.027
X146.812Y-94.742
X146.812Y-108.077
X146.812Y-113.792
X147.447Y-38.862
X147.447Y-57.912
X147.447Y-76.962
X147.447Y-96.012
X147.447Y-115.062
X151.14Y-40.65
X151.14Y-59.7
X151.14Y-78.75
X151.14Y-97.8
X151.14Y-116.85
X151.892Y-39.497
X151.892Y-58.547
X151.892Y-77.597
X151.892Y-96.647
X151.892Y-115.697
X153.022Y-33.007
X153.022Y-52.057
X153.022Y-71.107
X153.022Y-90.157
X153.022Y-109.207
X153.162Y-42.037
X153.162Y-61.087
X153.162Y-80.137
X153.162Y-99.187
X153.162Y-118.237
X154.352Y-30.207
X154.352Y-33.782
X154.352Y-49.257
X154.352Y-52.832
X154.352Y-68.307
X154.352Y-71.882
X154.352Y-87.357
X154.352Y-90.932
X154.352Y-106.407
X154.352Y-109.982
X155.194Y-31.877
X155.194Y-50.927
X155.194Y-69.977
X155.194Y-89.027
X155.194Y-108.077
X155.956Y-39.751
X155.956Y-58.801
X155.956Y-77.851
X155.956Y-96.901
X155.956Y-115.951
X156.21Y-41.275
X156.21Y-60.325
X156.21Y-79.375
X156.21Y-98.425
X156.21Y-117.475
X156.337Y-31.242
X156.337Y-50.292
X156.337Y-69.342
X156.337Y-88.392
X156.337Y-107.442
X157.607Y-33.782
X157.607Y-52.832
X157.607Y-71.882
X157.607Y-90.932
X157.607Y-109.982
X158.242Y-29.972
X158.242Y-49.022
X158.242Y-68.072
X158.242Y-87.122
X158.242Y-106.172
T2
X155.067Y-62.357
X85.852Y-57.912
X155.067Y-119.507
X143.002Y-111.887
X155.067Y-47.117
X66.802Y-57.912
X123.952Y-119.507
X123.952Y-111.887
X143.002Y-47.117
X143.002Y-38.862
X104.902Y-111.887
X143.002Y-62.357
X123.952Y-38.862
X158.242Y-50.927
X85.852Y-111.887
X158.242Y-54.737
X78.867Y-47.117
X104.902Y-38.862
X139.192Y-50.927
X97.917Y-81.407
X136.017Y-47.117
X155.067Y-43.307
X82.042Y-54.737
X85.852Y-38.862
X120.142Y-50.927
X101.092Y-66.167
X123.952Y-62.357
X155.067Y-28.067
X82.042Y-47.117
X158.242Y-108.077
X101.092Y-50.927
X88.392Y-62.357
X94.742Y-62.357
X69.342Y-81.407
X75.692Y-81.407
X145.542Y-81.407
X151.892Y-81.407
X107.442Y-119.507
X113.792Y-119.507
X85.852Y-81.407
X139.192Y-54.737
X158.242Y-28.067
X66.802Y-47.117
X139.192Y-108.077
X66.802Y-81.407
X139.192Y-47.117
X143.002Y-35.687
X66.802Y-62.357
X120.142Y-108.077
X107.442Y-100.457
X113.792Y-100.457
X85.852Y-89.027
X78.867Y-66.167
X139.192Y-62.357
X143.002Y-43.307
X123.952Y-104.267
X82.042Y-78.867
X66.802Y-89.027
X104.902Y-89.027
X82.042Y-81.407
X123.952Y-54.737
X143.002Y-28.067
X104.902Y-104.267
X123.952Y-85.217
X158.242Y-59.817
X78.867Y-81.407
X136.017Y-62.357
X158.242Y-35.687
X82.042Y-92.837
X139.192Y-100.457
X139.192Y-59.817
X82.042Y-73.787
X158.242Y-43.307
X143.002Y-69.977
X78.867Y-100.457
X136.017Y-85.217
X104.902Y-66.167
X120.142Y-59.817
X136.017Y-28.067
X123.952Y-69.977
X66.802Y-35.687
X139.192Y-28.067
X104.902Y-69.977
X139.192Y-116.967
X85.852Y-69.977
X66.802Y-69.977
X143.002Y-50.927
X88.392Y-43.307
X94.742Y-43.307
X107.442Y-62.357
X113.792Y-62.357
X88.392Y-81.407
X94.742Y-81.407
X126.492Y-119.507
X132.842Y-119.507
X82.042Y-119.507
X158.242Y-92.837
X123.952Y-50.927
X139.192Y-92.837
X158.242Y-47.117
X120.142Y-54.737
X126.492Y-100.457
X132.842Y-100.457
X120.142Y-92.837
X123.952Y-73.787
X82.042Y-50.927
X101.092Y-92.837
X158.242Y-31.877
X143.002Y-92.837
X116.967Y-43.307
X85.852Y-35.687
X101.092Y-108.077
X139.192Y-31.877
X123.952Y-92.837
X139.192Y-73.787
X120.142Y-28.067
X97.917Y-28.067
X104.902Y-92.837
X85.852Y-28.067
X104.902Y-119.507
X123.952Y-47.117
X85.852Y-43.307
X120.142Y-104.267
X82.042Y-66.167
X101.092Y-43.307
X120.142Y-119.507
X66.802Y-85.217
X136.017Y-100.457
X120.142Y-66.167
X78.867Y-43.307
X66.802Y-66.167
X101.092Y-28.067
X82.042Y-28.067
X116.967Y-119.507
X66.802Y-100.457
X116.967Y-81.407
X66.802Y-73.787
X123.952Y-35.687
X139.192Y-119.507
X82.042Y-43.307
X126.492Y-62.357
X132.842Y-62.357
X107.442Y-81.407
X113.792Y-81.407
X145.542Y-119.507
X151.892Y-119.507
X116.967Y-104.267
X101.092Y-85.217
X120.142Y-116.967
X107.442Y-43.307
X113.792Y-43.307
X104.902Y-62.357
X123.952Y-43.307
X136.017Y-104.267
X66.802Y-43.307
X97.917Y-119.507
X101.092Y-116.967
X104.902Y-47.117
X123.952Y-28.067
X139.192Y-104.267
X66.802Y-28.067
X69.342Y-100.457
X75.692Y-100.457
X145.542Y-100.457
X151.892Y-100.457
X101.092Y-119.507
X82.042Y-116.967
X104.902Y-54.737
X139.192Y-35.687
X69.342Y-62.357
X75.692Y-62.357
X78.867Y-119.507
X158.242Y-97.917
X116.967Y-62.357
X136.017Y-43.307
X104.902Y-50.927
X78.867Y-104.267
X139.192Y-97.917
X139.192Y-43.307
X85.852Y-50.927
X66.802Y-119.507
X120.142Y-97.917
X66.802Y-50.927
X66.802Y-104.267
X101.092Y-97.917
X143.002Y-31.877
X82.042Y-97.917
X123.952Y-31.877
X82.042Y-108.077
X120.142Y-31.877
X158.242Y-78.867
X158.242Y-62.357
X101.092Y-62.357
X104.902Y-31.877
X158.242Y-89.027
X101.092Y-31.877
X158.242Y-111.887
X85.852Y-92.837
X97.917Y-62.357
X85.852Y-31.877
X139.192Y-89.027
X155.067Y-100.457
X143.002Y-73.787
X85.852Y-54.737
X143.002Y-115.062
X120.142Y-89.027
X143.002Y-119.507
X145.542Y-62.357
X151.892Y-62.357
X126.492Y-81.407
X132.842Y-81.407
X158.242Y-100.457
X104.902Y-73.787
X101.092Y-59.817
X85.852Y-62.357
X123.952Y-115.062
X101.092Y-89.027
X143.002Y-104.267
X139.192Y-85.217
X155.067Y-85.217
X85.852Y-73.787
X82.042Y-59.817
X85.852Y-47.117
X101.092Y-35.687
X104.902Y-115.062
X82.042Y-89.027
X158.242Y-104.267
X126.492Y-43.307
X132.842Y-43.307
X88.392Y-100.457
X94.742Y-100.457
X69.342Y-119.507
X75.692Y-119.507
X143.002Y-100.457
X155.067Y-66.167
X85.852Y-66.167
X158.242Y-73.787
X158.242Y-40.767
X101.092Y-54.737
X97.917Y-43.307
X85.852Y-115.062
X158.242Y-69.977
X155.067Y-104.267
X85.852Y-85.217
X143.002Y-85.217
X143.002Y-66.167
X101.092Y-81.407
X120.142Y-73.787
X139.192Y-40.767
X97.917Y-47.117
X66.802Y-38.862
X66.802Y-115.062
X139.192Y-69.977
X158.242Y-119.507
X97.917Y-85.217
X158.242Y-66.167
X97.917Y-66.167
X101.092Y-73.787
X120.142Y-40.767
X101.092Y-47.117
X66.802Y-31.877
X143.002Y-96.012
X120.142Y-69.977
X85.852Y-104.267
X85.852Y-100.457
X158.242Y-81.407
X158.242Y-116.967
X101.092Y-40.767
X82.042Y-62.357
X82.042Y-40.767
X123.952Y-96.012
X101.092Y-69.977
X85.852Y-119.507
X97.917Y-100.457
X155.067Y-81.407
X143.002Y-108.077
X120.142Y-47.117
X78.867Y-62.357
X82.042Y-31.877
X104.902Y-96.012
X82.042Y-69.977
X101.092Y-104.267
X101.092Y-100.457
X143.002Y-81.407
X123.952Y-108.077
X120.142Y-62.357
X104.902Y-35.687
X66.802Y-54.737
X82.042Y-35.687
X85.852Y-96.012
X97.917Y-104.267
X116.967Y-100.457
X136.017Y-81.407
X104.902Y-108.077
X116.967Y-47.117
X104.902Y-43.307
X66.802Y-96.012
X82.042Y-111.887
X104.902Y-85.217
X139.192Y-81.407
X85.852Y-108.077
X104.902Y-28.067
X143.002Y-76.962
X66.802Y-111.887
X104.902Y-100.457
X123.952Y-81.407
X66.802Y-108.077
X120.142Y-35.687
X123.952Y-76.962
X82.042Y-104.267
X116.967Y-85.217
X123.952Y-66.167
X139.192Y-78.867
X143.002Y-89.027
X116.967Y-28.067
X104.902Y-76.962
X82.042Y-100.457
X120.142Y-85.217
X136.017Y-66.167
X120.142Y-78.867
X123.952Y-89.027
X120.142Y-43.307
X85.852Y-76.962
X145.542Y-43.307
X151.892Y-43.307
X88.392Y-119.507
X94.742Y-119.507
X136.017Y-119.507
X66.802Y-92.837
X120.142Y-100.457
X139.192Y-66.167
X101.092Y-78.867
X78.867Y-28.067
X66.802Y-76.962
X78.867Y-85.217
X123.952Y-100.457
X120.142Y-81.407
X69.342Y-43.307
X75.692Y-43.307
X143.002Y-57.912
X82.042Y-85.217
X104.902Y-81.407
X139.192Y-111.887
X123.952Y-57.912
X116.967Y-66.167
X120.142Y-111.887
X143.002Y-54.737
X104.902Y-57.912
X158.242Y-85.217
X101.092Y-111.887
T3
X126.492Y-35.687
X136.652Y-35.687
X126.492Y-92.837
X136.652Y-92.837
X107.442Y-92.837
X117.602Y-92.837
X88.392Y-111.887
X98.552Y-111.887
X145.542Y-92.837
X155.702Y-92.837
X69.342Y-111.887
X79.502Y-111.887
X145.542Y-54.737
X155.702Y-54.737
X69.342Y-54.737
X79.502Y-54.737
X88.392Y-73.787
X98.552Y-73.787
X88.392Y-35.687
X98.552Y-35.687
X88.392Y-54.737
X98.552Y-54.737
X69.342Y-35.687
X79.502Y-35.687
X145.542Y-111.887
X155.702Y-111.887
X107.442Y-54.737
X117.602Y-54.737
X126.492Y-111.887
X136.652Y-111.887
X69.342Y-92.837
X79.502Y-92.837
X107.442Y-73.787
X117.602Y-73.787
X69.342Y-73.787
X79.502Y-73.787
X107.442Y-35.687
X117.602Y-35.687
X126.492Y-73.787
X136.652Y-73.787
X107.442Y-111.887
X117.602Y-111.887
X88.392Y-92.837
X98.552Y-92.837
X145.542Y-35.687
X155.702Y-35.687
X126.492Y-54.737
X136.652Y-54.737
X145.542Y-73.787
X155.702Y-73.787
T4
X90.932Y-116.967
X97.282Y-114.427
X148.082Y-97.917
X154.432Y-95.377
X71.882Y-116.967
X78.232Y-114.427
X148.082Y-59.817
X154.432Y-57.277
X71.882Y-59.817
X78.232Y-57.277
X90.932Y-78.867
X97.282Y-76.327
X90.932Y-40.767
X97.282Y-38.227
X90.932Y-59.817
X97.282Y-57.277
X71.882Y-40.767
X78.232Y-38.227
X148.082Y-116.967
X154.432Y-114.427
X109.982Y-59.817
X116.332Y-57.277
X129.032Y-116.967
X135.382Y-114.427
X71.882Y-97.917
X78.232Y-95.377
X109.982Y-78.867
X116.332Y-76.327
X71.882Y-78.867
X78.232Y-76.327
X109.982Y-40.767
X116.332Y-38.227
X129.032Y-78.867
X135.382Y-76.327
X109.982Y-116.967
X116.332Y-114.427
X90.932Y-97.917
X97.282Y-95.377
X148.082Y-40.767
X154.432Y-38.227
X129.032Y-59.817
X135.382Y-57.277
X148.082Y-78.867
X154.432Y-76.327
X129.032Y-40.767
X135.382Y-38.227
X129.032Y-97.917
X135.382Y-95.377
X109.982Y-97.917
X116.332Y-95.377
T5
X131.572Y-73.787
X112.522Y-111.887
X93.472Y-92.837
X150.622Y-35.687
X131.572Y-54.737
X150.622Y-73.787
X131.572Y-35.687
X131.572Y-92.837
X112.522Y-92.837
X93.472Y-111.887
X150.622Y-92.837
X74.422Y-111.887
X150.622Y-54.737
X74.422Y-54.737
X93.472Y-73.787
X93.472Y-35.687
X93.472Y-54.737
X74.422Y-35.687
X150.622Y-111.887
X112.522Y-54.737
X131.572Y-111.887
X74.422Y-92.837
X112.522Y-73.787
X74.422Y-73.787
X112.522Y-35.687
T0
M30
