G04 #@! TF.GenerationSoftware,KiCad,Pcbnew,(5.1.6-0-10_14)*
G04 #@! TF.CreationDate,2021-04-19T11:16:05+02:00*
G04 #@! TF.ProjectId,altana,616c7461-6e61-42e6-9b69-6361645f7063,rev?*
G04 #@! TF.SameCoordinates,Original*
G04 #@! TF.FileFunction,Profile,NP*
%FSLAX46Y46*%
G04 Gerber Fmt 4.6, Leading zero omitted, Abs format (unit mm)*
G04 Created by KiCad (PCBNEW (5.1.6-0-10_14)) date 2021-04-19 11:16:05*
%MOMM*%
%LPD*%
G01*
G04 APERTURE LIST*
G04 #@! TA.AperFunction,Profile*
%ADD10C,0.100000*%
G04 #@! TD*
G04 #@! TA.AperFunction,Profile*
%ADD11C,0.150000*%
G04 #@! TD*
G04 #@! TA.AperFunction,Profile*
%ADD12C,0.200000*%
G04 #@! TD*
G04 APERTURE END LIST*
D10*
X83312000Y-103632000D02*
X83312000Y-110157000D01*
X83312000Y-114427000D02*
X83312000Y-120142000D01*
X84582000Y-114427000D02*
X84582000Y-120142000D01*
X84582000Y-110157000D02*
X84582000Y-103632000D01*
D11*
X83312000Y-110157000D02*
X84582000Y-110157000D01*
X83312000Y-114427000D02*
X84582000Y-114427000D01*
D10*
X140462000Y-37417000D02*
X140462000Y-43942000D01*
X141732000Y-37417000D02*
X141732000Y-43942000D01*
X140462000Y-27432000D02*
X140462000Y-33147000D01*
X141732000Y-33147000D02*
X141732000Y-27432000D01*
D11*
X140462000Y-37417000D02*
X141732000Y-37417000D01*
X140462000Y-33147000D02*
X141732000Y-33147000D01*
D10*
X140462000Y-46482000D02*
X140462000Y-53007000D01*
X140462000Y-57277000D02*
X140462000Y-62992000D01*
X140462000Y-75565000D02*
X140462000Y-82042000D01*
X141732000Y-57277000D02*
X141732000Y-62992000D01*
X141732000Y-75517000D02*
X141732000Y-82042000D01*
X140462000Y-65532000D02*
X140462000Y-71247000D01*
X141732000Y-53007000D02*
X141732000Y-46482000D01*
X141732000Y-71247000D02*
X141732000Y-65532000D01*
D11*
X140462000Y-53007000D02*
X141732000Y-53007000D01*
X140462000Y-57277000D02*
X141732000Y-57277000D01*
X140462000Y-75517000D02*
X141732000Y-75517000D01*
X140462000Y-71247000D02*
X141732000Y-71247000D01*
D10*
X140462000Y-84582000D02*
X140462000Y-91107000D01*
X140462000Y-95377000D02*
X140462000Y-101092000D01*
X140462000Y-113617000D02*
X140462000Y-120142000D01*
X141732000Y-95377000D02*
X141732000Y-101092000D01*
X141732000Y-113617000D02*
X141732000Y-120142000D01*
X140462000Y-103632000D02*
X140462000Y-109347000D01*
X141732000Y-91107000D02*
X141732000Y-84582000D01*
X141732000Y-109347000D02*
X141732000Y-103632000D01*
D11*
X140462000Y-91107000D02*
X141732000Y-91107000D01*
X140462000Y-95377000D02*
X141732000Y-95377000D01*
X140462000Y-113617000D02*
X141732000Y-113617000D01*
X140462000Y-109347000D02*
X141732000Y-109347000D01*
D10*
X121412000Y-103632000D02*
X121412000Y-110157000D01*
X121412000Y-114427000D02*
X121412000Y-120142000D01*
X122682000Y-114427000D02*
X122682000Y-120142000D01*
X122682000Y-110157000D02*
X122682000Y-103632000D01*
D11*
X121412000Y-110157000D02*
X122682000Y-110157000D01*
X121412000Y-114427000D02*
X122682000Y-114427000D01*
D10*
X121412000Y-65532000D02*
X121412000Y-72057000D01*
X121412000Y-76327000D02*
X121412000Y-82042000D01*
X121412000Y-94567000D02*
X121412000Y-101092000D01*
X122682000Y-76327000D02*
X122682000Y-82042000D01*
X122682000Y-94567000D02*
X122682000Y-101092000D01*
X121412000Y-84582000D02*
X121412000Y-90297000D01*
X122682000Y-72057000D02*
X122682000Y-65532000D01*
X122682000Y-90297000D02*
X122682000Y-84582000D01*
D11*
X121412000Y-72057000D02*
X122682000Y-72057000D01*
X121412000Y-76327000D02*
X122682000Y-76327000D01*
X121412000Y-94567000D02*
X122682000Y-94567000D01*
X121412000Y-90297000D02*
X122682000Y-90297000D01*
D10*
X121412000Y-27432000D02*
X121412000Y-33957000D01*
X121412000Y-38227000D02*
X121412000Y-43942000D01*
X121412000Y-56467000D02*
X121412000Y-62992000D01*
X122682000Y-38227000D02*
X122682000Y-43942000D01*
X122682000Y-56467000D02*
X122682000Y-62992000D01*
X121412000Y-46482000D02*
X121412000Y-52197000D01*
X122682000Y-33957000D02*
X122682000Y-27432000D01*
X122682000Y-52197000D02*
X122682000Y-46482000D01*
D11*
X121412000Y-33957000D02*
X122682000Y-33957000D01*
X121412000Y-38227000D02*
X122682000Y-38227000D01*
X121412000Y-56467000D02*
X122682000Y-56467000D01*
X121412000Y-52197000D02*
X122682000Y-52197000D01*
D10*
X102362000Y-84582000D02*
X102362000Y-91107000D01*
X102362000Y-95377000D02*
X102362000Y-101092000D01*
X102362000Y-113617000D02*
X102362000Y-120142000D01*
X103632000Y-95377000D02*
X103632000Y-101092000D01*
X103632000Y-113617000D02*
X103632000Y-120142000D01*
X102362000Y-103632000D02*
X102362000Y-109347000D01*
X103632000Y-91107000D02*
X103632000Y-84582000D01*
X103632000Y-109347000D02*
X103632000Y-103632000D01*
D11*
X102362000Y-91107000D02*
X103632000Y-91107000D01*
X102362000Y-95377000D02*
X103632000Y-95377000D01*
X102362000Y-113617000D02*
X103632000Y-113617000D01*
X102362000Y-109347000D02*
X103632000Y-109347000D01*
D10*
X102362000Y-46482000D02*
X102362000Y-53007000D01*
X102362000Y-57277000D02*
X102362000Y-62992000D01*
X102362000Y-75517000D02*
X102362000Y-82042000D01*
X103632000Y-57277000D02*
X103632000Y-62992000D01*
X103632000Y-75517000D02*
X103632000Y-82042000D01*
X102362000Y-65532000D02*
X102362000Y-71247000D01*
X103632000Y-53007000D02*
X103632000Y-46482000D01*
X103632000Y-71247000D02*
X103632000Y-65532000D01*
D11*
X102362000Y-53007000D02*
X103632000Y-53007000D01*
X102362000Y-57277000D02*
X103632000Y-57277000D01*
X102362000Y-75517000D02*
X103632000Y-75517000D01*
X102362000Y-71247000D02*
X103632000Y-71247000D01*
D10*
X102362000Y-37417000D02*
X102362000Y-43942000D01*
X103632000Y-37465000D02*
X103632000Y-43942000D01*
X102362000Y-27432000D02*
X102362000Y-33147000D01*
X103632000Y-33147000D02*
X103632000Y-27432000D01*
D11*
X102362000Y-37417000D02*
X103632000Y-37417000D01*
X102362000Y-33147000D02*
X103632000Y-33147000D01*
D10*
X83312000Y-65532000D02*
X83312000Y-72057000D01*
X83312000Y-76327000D02*
X83312000Y-82042000D01*
X83312000Y-94567000D02*
X83312000Y-101092000D01*
X84582000Y-76327000D02*
X84582000Y-82042000D01*
X84582000Y-94567000D02*
X84582000Y-101092000D01*
X83312000Y-84582000D02*
X83312000Y-90297000D01*
X84582000Y-72057000D02*
X84582000Y-65532000D01*
X84582000Y-90297000D02*
X84582000Y-84582000D01*
D11*
X83312000Y-72057000D02*
X84582000Y-72057000D01*
X83312000Y-76327000D02*
X84582000Y-76327000D01*
X83312000Y-94567000D02*
X84582000Y-94567000D01*
X83312000Y-90297000D02*
X84582000Y-90297000D01*
D12*
X152702000Y-101727000D02*
X147907000Y-101727000D01*
X124587000Y-101727000D02*
X124587000Y-102997000D01*
X147907000Y-102997000D02*
X152702000Y-102997000D01*
D10*
X124587000Y-101727000D02*
X123317000Y-101727000D01*
D11*
X156972000Y-101727000D02*
X156972000Y-102997000D01*
D10*
X86487000Y-101727000D02*
X85217000Y-101727000D01*
D12*
X109807000Y-101727000D02*
X109807000Y-102997000D01*
D10*
X139827000Y-101727000D02*
X137922000Y-101727000D01*
D11*
X152702000Y-101727000D02*
X152702000Y-102997000D01*
X137922000Y-101727000D02*
X137922000Y-102997000D01*
X95552000Y-101727000D02*
X95552000Y-102997000D01*
D12*
X128857000Y-102997000D02*
X133652000Y-102997000D01*
X109807000Y-102997000D02*
X114602000Y-102997000D01*
D10*
X137922000Y-102997000D02*
X139827000Y-102997000D01*
D12*
X147907000Y-101727000D02*
X147907000Y-102997000D01*
X114602000Y-101727000D02*
X109807000Y-101727000D01*
D10*
X105537000Y-101727000D02*
X104267000Y-101727000D01*
D11*
X133652000Y-101727000D02*
X133652000Y-102997000D01*
D10*
X101727000Y-101727000D02*
X99822000Y-101727000D01*
D12*
X105537000Y-101727000D02*
X105537000Y-102997000D01*
X95552000Y-101727000D02*
X90757000Y-101727000D01*
D10*
X120777000Y-101727000D02*
X118872000Y-101727000D01*
D11*
X118872000Y-101727000D02*
X118872000Y-102997000D01*
D12*
X128857000Y-101727000D02*
X128857000Y-102997000D01*
D10*
X124587000Y-102997000D02*
X123317000Y-102997000D01*
X118872000Y-102997000D02*
X120777000Y-102997000D01*
D11*
X114602000Y-101727000D02*
X114602000Y-102997000D01*
D10*
X143637000Y-102997000D02*
X142367000Y-102997000D01*
D12*
X90757000Y-102997000D02*
X95552000Y-102997000D01*
D10*
X105537000Y-102997000D02*
X104267000Y-102997000D01*
D12*
X90757000Y-101727000D02*
X90757000Y-102997000D01*
D10*
X143637000Y-101727000D02*
X142367000Y-101727000D01*
D12*
X67437000Y-101727000D02*
X67437000Y-102997000D01*
X71707000Y-102997000D02*
X76502000Y-102997000D01*
X71707000Y-101727000D02*
X71707000Y-102997000D01*
D11*
X99822000Y-101727000D02*
X99822000Y-102997000D01*
D10*
X156972000Y-102997000D02*
X158877000Y-102997000D01*
D12*
X86487000Y-101727000D02*
X86487000Y-102997000D01*
D10*
X158877000Y-101727000D02*
X156972000Y-101727000D01*
D12*
X143637000Y-101727000D02*
X143637000Y-102997000D01*
X133652000Y-101727000D02*
X128857000Y-101727000D01*
D10*
X86487000Y-102997000D02*
X85217000Y-102997000D01*
X82677000Y-101727000D02*
X80772000Y-101727000D01*
X67437000Y-101727000D02*
X66167000Y-101727000D01*
X80772000Y-102997000D02*
X82677000Y-102997000D01*
X67437000Y-102997000D02*
X66167000Y-102997000D01*
D11*
X76502000Y-101727000D02*
X76502000Y-102997000D01*
X80772000Y-101727000D02*
X80772000Y-102997000D01*
D12*
X76502000Y-101727000D02*
X71707000Y-101727000D01*
D10*
X99822000Y-102997000D02*
X101727000Y-102997000D01*
D12*
X152702000Y-82677000D02*
X147907000Y-82677000D01*
X124587000Y-82677000D02*
X124587000Y-83947000D01*
X147907000Y-83947000D02*
X152702000Y-83947000D01*
D10*
X124587000Y-82677000D02*
X123317000Y-82677000D01*
D11*
X156972000Y-82677000D02*
X156972000Y-83947000D01*
D10*
X86487000Y-82677000D02*
X85217000Y-82677000D01*
D12*
X109807000Y-82677000D02*
X109807000Y-83947000D01*
D10*
X139827000Y-82677000D02*
X137922000Y-82677000D01*
D11*
X152702000Y-82677000D02*
X152702000Y-83947000D01*
X137922000Y-82677000D02*
X137922000Y-83947000D01*
X95552000Y-82677000D02*
X95552000Y-83947000D01*
D12*
X128857000Y-83947000D02*
X133652000Y-83947000D01*
X109807000Y-83947000D02*
X114602000Y-83947000D01*
D10*
X137922000Y-83947000D02*
X139827000Y-83947000D01*
D12*
X147907000Y-82677000D02*
X147907000Y-83947000D01*
X114602000Y-82677000D02*
X109807000Y-82677000D01*
D10*
X105537000Y-82677000D02*
X104267000Y-82677000D01*
D11*
X133652000Y-82677000D02*
X133652000Y-83947000D01*
D10*
X101727000Y-82677000D02*
X99822000Y-82677000D01*
D12*
X105537000Y-82677000D02*
X105537000Y-83947000D01*
X95552000Y-82677000D02*
X90757000Y-82677000D01*
D10*
X120777000Y-82677000D02*
X118872000Y-82677000D01*
D11*
X118872000Y-82677000D02*
X118872000Y-83947000D01*
D12*
X128857000Y-82677000D02*
X128857000Y-83947000D01*
D10*
X124587000Y-83947000D02*
X123317000Y-83947000D01*
X118872000Y-83947000D02*
X120777000Y-83947000D01*
D11*
X114602000Y-82677000D02*
X114602000Y-83947000D01*
D10*
X143637000Y-83947000D02*
X142367000Y-83947000D01*
D12*
X90757000Y-83947000D02*
X95552000Y-83947000D01*
D10*
X105537000Y-83947000D02*
X104267000Y-83947000D01*
D12*
X90757000Y-82677000D02*
X90757000Y-83947000D01*
D10*
X143637000Y-82677000D02*
X142367000Y-82677000D01*
D12*
X67437000Y-82677000D02*
X67437000Y-83947000D01*
X71707000Y-83947000D02*
X76502000Y-83947000D01*
X71707000Y-82677000D02*
X71707000Y-83947000D01*
D11*
X99822000Y-82677000D02*
X99822000Y-83947000D01*
D10*
X156972000Y-83947000D02*
X158877000Y-83947000D01*
D12*
X86487000Y-82677000D02*
X86487000Y-83947000D01*
D10*
X158877000Y-82677000D02*
X156972000Y-82677000D01*
D12*
X143637000Y-82677000D02*
X143637000Y-83947000D01*
X133652000Y-82677000D02*
X128857000Y-82677000D01*
D10*
X86487000Y-83947000D02*
X85217000Y-83947000D01*
X82677000Y-82677000D02*
X80772000Y-82677000D01*
X67437000Y-82677000D02*
X66167000Y-82677000D01*
X80772000Y-83947000D02*
X82677000Y-83947000D01*
X67437000Y-83947000D02*
X66167000Y-83947000D01*
D11*
X76502000Y-82677000D02*
X76502000Y-83947000D01*
X80772000Y-82677000D02*
X80772000Y-83947000D01*
D12*
X76502000Y-82677000D02*
X71707000Y-82677000D01*
D10*
X99822000Y-83947000D02*
X101727000Y-83947000D01*
X141732000Y-84582000D02*
G75*
G02*
X142367000Y-83947000I635000J0D01*
G01*
X122682000Y-84582000D02*
G75*
G02*
X123317000Y-83947000I635000J0D01*
G01*
X103632000Y-84582000D02*
G75*
G02*
X104267000Y-83947000I635000J0D01*
G01*
X84582000Y-84582000D02*
G75*
G02*
X85217000Y-83947000I635000J0D01*
G01*
X65532000Y-84582000D02*
G75*
G02*
X66167000Y-83947000I635000J0D01*
G01*
X142367000Y-82677000D02*
G75*
G02*
X141732000Y-82042000I0J635000D01*
G01*
X123317000Y-82677000D02*
G75*
G02*
X122682000Y-82042000I0J635000D01*
G01*
X104267000Y-82677000D02*
G75*
G02*
X103632000Y-82042000I0J635000D01*
G01*
X85217000Y-82677000D02*
G75*
G02*
X84582000Y-82042000I0J635000D01*
G01*
X66167000Y-82677000D02*
G75*
G02*
X65532000Y-82042000I0J635000D01*
G01*
X158877000Y-83947000D02*
G75*
G02*
X159512000Y-84582000I0J-635000D01*
G01*
X139827000Y-83947000D02*
G75*
G02*
X140462000Y-84582000I0J-635000D01*
G01*
X120777000Y-83947000D02*
G75*
G02*
X121412000Y-84582000I0J-635000D01*
G01*
X101727000Y-83947000D02*
G75*
G02*
X102362000Y-84582000I0J-635000D01*
G01*
X82677000Y-83947000D02*
G75*
G02*
X83312000Y-84582000I0J-635000D01*
G01*
X159512000Y-82042000D02*
G75*
G02*
X158877000Y-82677000I-635000J0D01*
G01*
X140462000Y-82042000D02*
G75*
G02*
X139827000Y-82677000I-635000J0D01*
G01*
X121412000Y-82042000D02*
G75*
G02*
X120777000Y-82677000I-635000J0D01*
G01*
X102362000Y-82042000D02*
G75*
G02*
X101727000Y-82677000I-635000J0D01*
G01*
X83312000Y-82042000D02*
G75*
G02*
X82677000Y-82677000I-635000J0D01*
G01*
D12*
X152702000Y-63627000D02*
X147907000Y-63627000D01*
X124587000Y-63627000D02*
X124587000Y-64897000D01*
X147907000Y-64897000D02*
X152702000Y-64897000D01*
D10*
X124587000Y-63627000D02*
X123317000Y-63627000D01*
D11*
X156972000Y-63627000D02*
X156972000Y-64897000D01*
D10*
X86487000Y-63627000D02*
X85217000Y-63627000D01*
D12*
X109807000Y-63627000D02*
X109807000Y-64897000D01*
D10*
X139827000Y-63627000D02*
X137922000Y-63627000D01*
D11*
X152702000Y-63627000D02*
X152702000Y-64897000D01*
X137922000Y-63627000D02*
X137922000Y-64897000D01*
X95552000Y-63627000D02*
X95552000Y-64897000D01*
D12*
X128857000Y-64897000D02*
X133652000Y-64897000D01*
X109807000Y-64897000D02*
X114602000Y-64897000D01*
D10*
X137922000Y-64897000D02*
X139827000Y-64897000D01*
D12*
X147907000Y-63627000D02*
X147907000Y-64897000D01*
X114602000Y-63627000D02*
X109807000Y-63627000D01*
D10*
X105537000Y-63627000D02*
X104267000Y-63627000D01*
D11*
X133652000Y-63627000D02*
X133652000Y-64897000D01*
D10*
X101727000Y-63627000D02*
X99822000Y-63627000D01*
D12*
X105537000Y-63627000D02*
X105537000Y-64897000D01*
X95552000Y-63627000D02*
X90757000Y-63627000D01*
D10*
X120777000Y-63627000D02*
X118872000Y-63627000D01*
D11*
X118872000Y-63627000D02*
X118872000Y-64897000D01*
D12*
X128857000Y-63627000D02*
X128857000Y-64897000D01*
D10*
X124587000Y-64897000D02*
X123317000Y-64897000D01*
X118872000Y-64897000D02*
X120777000Y-64897000D01*
D11*
X114602000Y-63627000D02*
X114602000Y-64897000D01*
D10*
X143637000Y-64897000D02*
X142367000Y-64897000D01*
D12*
X90757000Y-64897000D02*
X95552000Y-64897000D01*
D10*
X105537000Y-64897000D02*
X104267000Y-64897000D01*
D12*
X90757000Y-63627000D02*
X90757000Y-64897000D01*
D10*
X143637000Y-63627000D02*
X142367000Y-63627000D01*
D12*
X67437000Y-63627000D02*
X67437000Y-64897000D01*
X71707000Y-64897000D02*
X76502000Y-64897000D01*
X71707000Y-63627000D02*
X71707000Y-64897000D01*
D11*
X99822000Y-63627000D02*
X99822000Y-64897000D01*
D10*
X156972000Y-64897000D02*
X158877000Y-64897000D01*
D12*
X86487000Y-63627000D02*
X86487000Y-64897000D01*
D10*
X158877000Y-63627000D02*
X156972000Y-63627000D01*
D12*
X143637000Y-63627000D02*
X143637000Y-64897000D01*
X133652000Y-63627000D02*
X128857000Y-63627000D01*
D10*
X86487000Y-64897000D02*
X85217000Y-64897000D01*
X82677000Y-63627000D02*
X80772000Y-63627000D01*
X67437000Y-63627000D02*
X66167000Y-63627000D01*
X80772000Y-64897000D02*
X82677000Y-64897000D01*
X67437000Y-64897000D02*
X66167000Y-64897000D01*
D11*
X76502000Y-63627000D02*
X76502000Y-64897000D01*
X80772000Y-63627000D02*
X80772000Y-64897000D01*
D12*
X76502000Y-63627000D02*
X71707000Y-63627000D01*
D10*
X99822000Y-64897000D02*
X101727000Y-64897000D01*
D12*
X143637000Y-44577000D02*
X143637000Y-45847000D01*
X147907000Y-45847000D02*
X152702000Y-45847000D01*
X147907000Y-44577000D02*
X147907000Y-45847000D01*
D10*
X158877000Y-44577000D02*
X156972000Y-44577000D01*
X143637000Y-44577000D02*
X142367000Y-44577000D01*
X156972000Y-45847000D02*
X158877000Y-45847000D01*
X143637000Y-45847000D02*
X142367000Y-45847000D01*
D11*
X152702000Y-44577000D02*
X152702000Y-45847000D01*
X156972000Y-44577000D02*
X156972000Y-45847000D01*
D12*
X152702000Y-44577000D02*
X147907000Y-44577000D01*
X124587000Y-44577000D02*
X124587000Y-45847000D01*
X128857000Y-45847000D02*
X133652000Y-45847000D01*
X128857000Y-44577000D02*
X128857000Y-45847000D01*
D10*
X139827000Y-44577000D02*
X137922000Y-44577000D01*
X124587000Y-44577000D02*
X123317000Y-44577000D01*
X137922000Y-45847000D02*
X139827000Y-45847000D01*
X124587000Y-45847000D02*
X123317000Y-45847000D01*
D11*
X133652000Y-44577000D02*
X133652000Y-45847000D01*
X137922000Y-44577000D02*
X137922000Y-45847000D01*
D12*
X133652000Y-44577000D02*
X128857000Y-44577000D01*
X105537000Y-44577000D02*
X105537000Y-45847000D01*
X109807000Y-45847000D02*
X114602000Y-45847000D01*
X109807000Y-44577000D02*
X109807000Y-45847000D01*
D10*
X120777000Y-44577000D02*
X118872000Y-44577000D01*
X105537000Y-44577000D02*
X104267000Y-44577000D01*
X118872000Y-45847000D02*
X120777000Y-45847000D01*
X105537000Y-45847000D02*
X104267000Y-45847000D01*
D11*
X114602000Y-44577000D02*
X114602000Y-45847000D01*
X118872000Y-44577000D02*
X118872000Y-45847000D01*
D12*
X114602000Y-44577000D02*
X109807000Y-44577000D01*
X86487000Y-44577000D02*
X86487000Y-45847000D01*
X90757000Y-45847000D02*
X95552000Y-45847000D01*
X90757000Y-44577000D02*
X90757000Y-45847000D01*
D10*
X101727000Y-44577000D02*
X99822000Y-44577000D01*
X86487000Y-44577000D02*
X85217000Y-44577000D01*
X99822000Y-45847000D02*
X101727000Y-45847000D01*
X86487000Y-45847000D02*
X85217000Y-45847000D01*
D11*
X95552000Y-44577000D02*
X95552000Y-45847000D01*
X99822000Y-44577000D02*
X99822000Y-45847000D01*
D12*
X95552000Y-44577000D02*
X90757000Y-44577000D01*
X67437000Y-44577000D02*
X67437000Y-45847000D01*
X71707000Y-45847000D02*
X76502000Y-45847000D01*
X71707000Y-44577000D02*
X71707000Y-45847000D01*
X76502000Y-44577000D02*
X71707000Y-44577000D01*
D11*
X83312000Y-52197000D02*
X84582000Y-52197000D01*
X83312000Y-56467000D02*
X84582000Y-56467000D01*
X80772000Y-44577000D02*
X80772000Y-45847000D01*
X76502000Y-44577000D02*
X76502000Y-45847000D01*
X83312000Y-38227000D02*
X84582000Y-38227000D01*
X83312000Y-33957000D02*
X84582000Y-33957000D01*
D10*
X158877000Y-120777000D02*
X142367000Y-120777000D01*
X139827000Y-120777000D02*
X123317000Y-120777000D01*
X120777000Y-120777000D02*
X104267000Y-120777000D01*
X101727000Y-120777000D02*
X85217000Y-120777000D01*
X82677000Y-120777000D02*
X66167000Y-120777000D01*
X65532000Y-120142000D02*
X65532000Y-103632000D01*
X65532000Y-101092000D02*
X65532000Y-84582000D01*
X65532000Y-82042000D02*
X65532000Y-65532000D01*
X84582000Y-52197000D02*
X84582000Y-46482000D01*
X65532000Y-62992000D02*
X65532000Y-46482000D01*
X84582000Y-33957000D02*
X84582000Y-27432000D01*
X141732000Y-103632000D02*
G75*
G02*
X142367000Y-102997000I635000J0D01*
G01*
X122682000Y-103632000D02*
G75*
G02*
X123317000Y-102997000I635000J0D01*
G01*
X103632000Y-103632000D02*
G75*
G02*
X104267000Y-102997000I635000J0D01*
G01*
X84582000Y-103632000D02*
G75*
G02*
X85217000Y-102997000I635000J0D01*
G01*
X65532000Y-103632000D02*
G75*
G02*
X66167000Y-102997000I635000J0D01*
G01*
X141732000Y-65532000D02*
G75*
G02*
X142367000Y-64897000I635000J0D01*
G01*
X122682000Y-65532000D02*
G75*
G02*
X123317000Y-64897000I635000J0D01*
G01*
X103632000Y-65532000D02*
G75*
G02*
X104267000Y-64897000I635000J0D01*
G01*
X84582000Y-65532000D02*
G75*
G02*
X85217000Y-64897000I635000J0D01*
G01*
X65532000Y-65532000D02*
G75*
G02*
X66167000Y-64897000I635000J0D01*
G01*
X141732000Y-46482000D02*
G75*
G02*
X142367000Y-45847000I635000J0D01*
G01*
X122682000Y-46482000D02*
G75*
G02*
X123317000Y-45847000I635000J0D01*
G01*
X103632000Y-46482000D02*
G75*
G02*
X104267000Y-45847000I635000J0D01*
G01*
X84582000Y-46482000D02*
G75*
G02*
X85217000Y-45847000I635000J0D01*
G01*
X65532000Y-46482000D02*
G75*
G02*
X66167000Y-45847000I635000J0D01*
G01*
X141732000Y-27432000D02*
G75*
G02*
X142367000Y-26797000I635000J0D01*
G01*
X122682000Y-27432000D02*
G75*
G02*
X123317000Y-26797000I635000J0D01*
G01*
X103632000Y-27432000D02*
G75*
G02*
X104267000Y-26797000I635000J0D01*
G01*
X84582000Y-27432000D02*
G75*
G02*
X85217000Y-26797000I635000J0D01*
G01*
X142367000Y-120777000D02*
G75*
G02*
X141732000Y-120142000I0J635000D01*
G01*
X123317000Y-120777000D02*
G75*
G02*
X122682000Y-120142000I0J635000D01*
G01*
X104267000Y-120777000D02*
G75*
G02*
X103632000Y-120142000I0J635000D01*
G01*
X85217000Y-120777000D02*
G75*
G02*
X84582000Y-120142000I0J635000D01*
G01*
X66167000Y-120777000D02*
G75*
G02*
X65532000Y-120142000I0J635000D01*
G01*
X142367000Y-101727000D02*
G75*
G02*
X141732000Y-101092000I0J635000D01*
G01*
X123317000Y-101727000D02*
G75*
G02*
X122682000Y-101092000I0J635000D01*
G01*
X104267000Y-101727000D02*
G75*
G02*
X103632000Y-101092000I0J635000D01*
G01*
X85217000Y-101727000D02*
G75*
G02*
X84582000Y-101092000I0J635000D01*
G01*
X66167000Y-101727000D02*
G75*
G02*
X65532000Y-101092000I0J635000D01*
G01*
X142367000Y-63627000D02*
G75*
G02*
X141732000Y-62992000I0J635000D01*
G01*
X123317000Y-63627000D02*
G75*
G02*
X122682000Y-62992000I0J635000D01*
G01*
X104267000Y-63627000D02*
G75*
G02*
X103632000Y-62992000I0J635000D01*
G01*
X85217000Y-63627000D02*
G75*
G02*
X84582000Y-62992000I0J635000D01*
G01*
X66167000Y-63627000D02*
G75*
G02*
X65532000Y-62992000I0J635000D01*
G01*
X142367000Y-44577000D02*
G75*
G02*
X141732000Y-43942000I0J635000D01*
G01*
X123317000Y-44577000D02*
G75*
G02*
X122682000Y-43942000I0J635000D01*
G01*
X104267000Y-44577000D02*
G75*
G02*
X103632000Y-43942000I0J635000D01*
G01*
X85217000Y-44577000D02*
G75*
G02*
X84582000Y-43942000I0J635000D01*
G01*
X159512000Y-103632000D02*
X159512000Y-120142000D01*
X159512000Y-84582000D02*
X159512000Y-101092000D01*
X159512000Y-65532000D02*
X159512000Y-82042000D01*
X159512000Y-46482000D02*
X159512000Y-62992000D01*
X83312000Y-46482000D02*
X83312000Y-52197000D01*
X159512000Y-27432000D02*
X159512000Y-43942000D01*
X67437000Y-45847000D02*
X66167000Y-45847000D01*
X84582000Y-56467000D02*
X84582000Y-62992000D01*
X84582000Y-38227000D02*
X84582000Y-43942000D01*
X83312000Y-56467000D02*
X83312000Y-62992000D01*
X158877000Y-102997000D02*
G75*
G02*
X159512000Y-103632000I0J-635000D01*
G01*
X139827000Y-102997000D02*
G75*
G02*
X140462000Y-103632000I0J-635000D01*
G01*
X120777000Y-102997000D02*
G75*
G02*
X121412000Y-103632000I0J-635000D01*
G01*
X101727000Y-102997000D02*
G75*
G02*
X102362000Y-103632000I0J-635000D01*
G01*
X82677000Y-102997000D02*
G75*
G02*
X83312000Y-103632000I0J-635000D01*
G01*
X158877000Y-64897000D02*
G75*
G02*
X159512000Y-65532000I0J-635000D01*
G01*
X139827000Y-64897000D02*
G75*
G02*
X140462000Y-65532000I0J-635000D01*
G01*
X120777000Y-64897000D02*
G75*
G02*
X121412000Y-65532000I0J-635000D01*
G01*
X101727000Y-64897000D02*
G75*
G02*
X102362000Y-65532000I0J-635000D01*
G01*
X82677000Y-64897000D02*
G75*
G02*
X83312000Y-65532000I0J-635000D01*
G01*
X158877000Y-45847000D02*
G75*
G02*
X159512000Y-46482000I0J-635000D01*
G01*
X139827000Y-45847000D02*
G75*
G02*
X140462000Y-46482000I0J-635000D01*
G01*
X120777000Y-45847000D02*
G75*
G02*
X121412000Y-46482000I0J-635000D01*
G01*
X101727000Y-45847000D02*
G75*
G02*
X102362000Y-46482000I0J-635000D01*
G01*
X82677000Y-45847000D02*
G75*
G02*
X83312000Y-46482000I0J-635000D01*
G01*
X158877000Y-26797000D02*
G75*
G02*
X159512000Y-27432000I0J-635000D01*
G01*
X139827000Y-26797000D02*
G75*
G02*
X140462000Y-27432000I0J-635000D01*
G01*
X120777000Y-26797000D02*
G75*
G02*
X121412000Y-27432000I0J-635000D01*
G01*
X101727000Y-26797000D02*
G75*
G02*
X102362000Y-27432000I0J-635000D01*
G01*
X159512000Y-120142000D02*
G75*
G02*
X158877000Y-120777000I-635000J0D01*
G01*
X140462000Y-120142000D02*
G75*
G02*
X139827000Y-120777000I-635000J0D01*
G01*
X121412000Y-120142000D02*
G75*
G02*
X120777000Y-120777000I-635000J0D01*
G01*
X102362000Y-120142000D02*
G75*
G02*
X101727000Y-120777000I-635000J0D01*
G01*
X83312000Y-120142000D02*
G75*
G02*
X82677000Y-120777000I-635000J0D01*
G01*
X159512000Y-101092000D02*
G75*
G02*
X158877000Y-101727000I-635000J0D01*
G01*
X140462000Y-101092000D02*
G75*
G02*
X139827000Y-101727000I-635000J0D01*
G01*
X121412000Y-101092000D02*
G75*
G02*
X120777000Y-101727000I-635000J0D01*
G01*
X102362000Y-101092000D02*
G75*
G02*
X101727000Y-101727000I-635000J0D01*
G01*
X83312000Y-101092000D02*
G75*
G02*
X82677000Y-101727000I-635000J0D01*
G01*
X159512000Y-62992000D02*
G75*
G02*
X158877000Y-63627000I-635000J0D01*
G01*
X140462000Y-62992000D02*
G75*
G02*
X139827000Y-63627000I-635000J0D01*
G01*
X121412000Y-62992000D02*
G75*
G02*
X120777000Y-63627000I-635000J0D01*
G01*
X102362000Y-62992000D02*
G75*
G02*
X101727000Y-63627000I-635000J0D01*
G01*
X83312000Y-62992000D02*
G75*
G02*
X82677000Y-63627000I-635000J0D01*
G01*
X159512000Y-43942000D02*
G75*
G02*
X158877000Y-44577000I-635000J0D01*
G01*
X140462000Y-43942000D02*
G75*
G02*
X139827000Y-44577000I-635000J0D01*
G01*
X121412000Y-43942000D02*
G75*
G02*
X120777000Y-44577000I-635000J0D01*
G01*
X102362000Y-43942000D02*
G75*
G02*
X101727000Y-44577000I-635000J0D01*
G01*
X80772000Y-45847000D02*
X82677000Y-45847000D01*
X142367000Y-26797000D02*
X158877000Y-26797000D01*
X123317000Y-26797000D02*
X139827000Y-26797000D01*
X104267000Y-26797000D02*
X120777000Y-26797000D01*
X85217000Y-26797000D02*
X101727000Y-26797000D01*
X67437000Y-44577000D02*
X66167000Y-44577000D01*
X65532000Y-43942000D02*
X65532000Y-27432000D01*
X65532000Y-27432000D02*
G75*
G02*
X66167000Y-26797000I635000J0D01*
G01*
X66167000Y-44577000D02*
G75*
G02*
X65532000Y-43942000I0J635000D01*
G01*
X82677000Y-44577000D02*
X80772000Y-44577000D01*
X66167000Y-26797000D02*
X82677000Y-26797000D01*
X83312000Y-43942000D02*
G75*
G02*
X82677000Y-44577000I-635000J0D01*
G01*
X82677000Y-26797000D02*
G75*
G02*
X83312000Y-27432000I0J-635000D01*
G01*
X83312000Y-38227000D02*
X83312000Y-43942000D01*
X83312000Y-27432000D02*
X83312000Y-33957000D01*
D11*
X66563666Y-26162000D02*
G75*
G03*
X66563666Y-26162000I-1666666J0D01*
G01*
X62397000Y-26162000D02*
X67397000Y-26162000D01*
X64897000Y-23662000D02*
X64897000Y-28662000D01*
X91722000Y-28752000D02*
X95222000Y-28752000D01*
X95222000Y-33252000D02*
X91722000Y-33252000D01*
X91722000Y-33252000D02*
X91722000Y-28752000D01*
X95222000Y-33252000D02*
X95222000Y-28752000D01*
X148872000Y-104952000D02*
X152372000Y-104952000D01*
X152372000Y-109452000D02*
X148872000Y-109452000D01*
X148872000Y-109452000D02*
X148872000Y-104952000D01*
X152372000Y-109452000D02*
X152372000Y-104952000D01*
X129822000Y-104952000D02*
X133322000Y-104952000D01*
X133322000Y-109452000D02*
X129822000Y-109452000D01*
X129822000Y-109452000D02*
X129822000Y-104952000D01*
X133322000Y-109452000D02*
X133322000Y-104952000D01*
X110772000Y-104952000D02*
X114272000Y-104952000D01*
X114272000Y-109452000D02*
X110772000Y-109452000D01*
X110772000Y-109452000D02*
X110772000Y-104952000D01*
X114272000Y-109452000D02*
X114272000Y-104952000D01*
X91722000Y-104952000D02*
X95222000Y-104952000D01*
X95222000Y-109452000D02*
X91722000Y-109452000D01*
X91722000Y-109452000D02*
X91722000Y-104952000D01*
X95222000Y-109452000D02*
X95222000Y-104952000D01*
X72672000Y-104952000D02*
X76172000Y-104952000D01*
X76172000Y-109452000D02*
X72672000Y-109452000D01*
X72672000Y-109452000D02*
X72672000Y-104952000D01*
X76172000Y-109452000D02*
X76172000Y-104952000D01*
X148872000Y-85902000D02*
X152372000Y-85902000D01*
X152372000Y-90402000D02*
X148872000Y-90402000D01*
X148872000Y-90402000D02*
X148872000Y-85902000D01*
X152372000Y-90402000D02*
X152372000Y-85902000D01*
X129822000Y-85902000D02*
X133322000Y-85902000D01*
X133322000Y-90402000D02*
X129822000Y-90402000D01*
X129822000Y-90402000D02*
X129822000Y-85902000D01*
X133322000Y-90402000D02*
X133322000Y-85902000D01*
X110772000Y-85902000D02*
X114272000Y-85902000D01*
X114272000Y-90402000D02*
X110772000Y-90402000D01*
X110772000Y-90402000D02*
X110772000Y-85902000D01*
X114272000Y-90402000D02*
X114272000Y-85902000D01*
X91722000Y-85902000D02*
X95222000Y-85902000D01*
X95222000Y-90402000D02*
X91722000Y-90402000D01*
X91722000Y-90402000D02*
X91722000Y-85902000D01*
X95222000Y-90402000D02*
X95222000Y-85902000D01*
X72672000Y-85902000D02*
X76172000Y-85902000D01*
X76172000Y-90402000D02*
X72672000Y-90402000D01*
X72672000Y-90402000D02*
X72672000Y-85902000D01*
X76172000Y-90402000D02*
X76172000Y-85902000D01*
X148872000Y-66852000D02*
X152372000Y-66852000D01*
X152372000Y-71352000D02*
X148872000Y-71352000D01*
X148872000Y-71352000D02*
X148872000Y-66852000D01*
X152372000Y-71352000D02*
X152372000Y-66852000D01*
X129822000Y-66852000D02*
X133322000Y-66852000D01*
X133322000Y-71352000D02*
X129822000Y-71352000D01*
X129822000Y-71352000D02*
X129822000Y-66852000D01*
X133322000Y-71352000D02*
X133322000Y-66852000D01*
X110772000Y-66852000D02*
X114272000Y-66852000D01*
X114272000Y-71352000D02*
X110772000Y-71352000D01*
X110772000Y-71352000D02*
X110772000Y-66852000D01*
X114272000Y-71352000D02*
X114272000Y-66852000D01*
X91722000Y-66852000D02*
X95222000Y-66852000D01*
X95222000Y-71352000D02*
X91722000Y-71352000D01*
X91722000Y-71352000D02*
X91722000Y-66852000D01*
X95222000Y-71352000D02*
X95222000Y-66852000D01*
X72672000Y-66852000D02*
X76172000Y-66852000D01*
X76172000Y-71352000D02*
X72672000Y-71352000D01*
X72672000Y-71352000D02*
X72672000Y-66852000D01*
X76172000Y-71352000D02*
X76172000Y-66852000D01*
X148872000Y-47802000D02*
X152372000Y-47802000D01*
X152372000Y-52302000D02*
X148872000Y-52302000D01*
X148872000Y-52302000D02*
X148872000Y-47802000D01*
X152372000Y-52302000D02*
X152372000Y-47802000D01*
X129822000Y-47802000D02*
X133322000Y-47802000D01*
X133322000Y-52302000D02*
X129822000Y-52302000D01*
X129822000Y-52302000D02*
X129822000Y-47802000D01*
X133322000Y-52302000D02*
X133322000Y-47802000D01*
X110772000Y-47802000D02*
X114272000Y-47802000D01*
X114272000Y-52302000D02*
X110772000Y-52302000D01*
X110772000Y-52302000D02*
X110772000Y-47802000D01*
X114272000Y-52302000D02*
X114272000Y-47802000D01*
X91722000Y-47802000D02*
X95222000Y-47802000D01*
X95222000Y-52302000D02*
X91722000Y-52302000D01*
X91722000Y-52302000D02*
X91722000Y-47802000D01*
X95222000Y-52302000D02*
X95222000Y-47802000D01*
X72672000Y-47802000D02*
X76172000Y-47802000D01*
X76172000Y-52302000D02*
X72672000Y-52302000D01*
X72672000Y-52302000D02*
X72672000Y-47802000D01*
X76172000Y-52302000D02*
X76172000Y-47802000D01*
X148872000Y-28752000D02*
X152372000Y-28752000D01*
X152372000Y-33252000D02*
X148872000Y-33252000D01*
X148872000Y-33252000D02*
X148872000Y-28752000D01*
X152372000Y-33252000D02*
X152372000Y-28752000D01*
X129822000Y-28752000D02*
X133322000Y-28752000D01*
X133322000Y-33252000D02*
X129822000Y-33252000D01*
X129822000Y-33252000D02*
X129822000Y-28752000D01*
X133322000Y-33252000D02*
X133322000Y-28752000D01*
X110772000Y-28752000D02*
X114272000Y-28752000D01*
X114272000Y-33252000D02*
X110772000Y-33252000D01*
X110772000Y-33252000D02*
X110772000Y-28752000D01*
X114272000Y-33252000D02*
X114272000Y-28752000D01*
X72672000Y-28752000D02*
X76172000Y-28752000D01*
X76172000Y-33252000D02*
X72672000Y-33252000D01*
X72672000Y-33252000D02*
X72672000Y-28752000D01*
X76172000Y-33252000D02*
X76172000Y-28752000D01*
M02*
