M48
;DRILL file {KiCad 5.0.2-bee76a0~70~ubuntu18.04.1} date 2019年11月06日 19時05分31秒
;FORMAT={-:-/ absolute / inch / decimal}
FMAT,2
INCH,TZ
T1C0.0157
T2C0.0320
T3C0.0394
T4C0.0512
T5C0.0866
T6C0.0472
%
G90
G05
T1
X4.07Y-3.53
X4.91Y-3.54
X5.77Y-3.53
X6.62Y-3.53
T2
X4.05Y-2.425
X4.05Y-2.625
X5.Y-3.025
X6.85Y-3.375
X6.7Y-1.925
X4.15Y-2.825
X6.6Y-1.925
X4.15Y-2.425
X5.85Y-2.525
X3.65Y-3.3
X4.05Y-2.725
X5.35Y-3.675
X6.Y-3.375
X5.75Y-2.525
X3.9Y-2.025
X6.35Y-1.925
X6.Y-3.3
X4.75Y-2.025
X4.525Y-1.925
X4.525Y-2.025
X4.525Y-2.125
X4.525Y-2.225
X4.525Y-2.325
X4.525Y-2.425
X4.525Y-2.525
X4.525Y-2.625
X4.525Y-2.725
X4.525Y-2.825
X4.525Y-2.925
X4.525Y-3.025
X5.125Y-1.925
X5.125Y-2.025
X5.125Y-2.125
X5.125Y-2.225
X5.125Y-2.325
X5.125Y-2.425
X5.125Y-2.525
X5.125Y-2.625
X5.125Y-2.725
X5.125Y-2.825
X5.125Y-2.925
X5.125Y-3.025
X3.75Y-3.375
X5.Y-2.825
X5.5Y-2.925
X6.45Y-2.125
X6.45Y-2.025
X6.6Y-2.625
X3.8Y-2.225
X6.35Y-2.025
X4.9Y-2.525
X6.7Y-2.325
X3.9Y-2.225
X5.6Y-1.925
X5.5Y-1.925
X5.15Y-3.3
X5.45Y-3.375
X3.9Y-1.925
X3.8Y-2.525
X3.65Y-3.375
X4.6Y-3.3
X4.65Y-2.925
X6.35Y-2.225
X5.6Y-2.925
X3.8Y-2.325
X4.65Y-2.425
X6.6Y-2.825
X5.85Y-2.025
X5.125Y-3.5
X5.85Y-2.325
X5.75Y-2.025
X3.9Y-2.125
X6.35Y-2.525
X5.6Y-2.425
X6.2Y-3.375
X3.8Y-2.625
X4.3Y-3.3
X4.9Y-2.625
X6.375Y-3.175
X6.475Y-3.175
X6.575Y-3.175
X6.675Y-3.175
X6.35Y-2.825
X5.5Y-2.225
X4.75Y-1.925
X4.75Y-2.925
X4.15Y-2.225
X6.225Y-1.925
X6.225Y-2.025
X6.225Y-2.125
X6.225Y-2.225
X6.225Y-2.325
X6.225Y-2.425
X6.225Y-2.525
X6.225Y-2.625
X6.225Y-2.725
X6.225Y-2.825
X6.225Y-2.925
X6.225Y-3.025
X6.825Y-1.925
X6.825Y-2.025
X6.825Y-2.125
X6.825Y-2.225
X6.825Y-2.325
X6.825Y-2.425
X6.825Y-2.525
X6.825Y-2.625
X6.825Y-2.725
X6.825Y-2.825
X6.825Y-2.925
X6.825Y-3.025
X5.75Y-2.825
X5.75Y-1.925
X6.75Y-3.375
X5.Y-2.025
X6.45Y-1.925
X5.Y-2.125
X3.8Y-2.725
X4.2Y-3.3
X6.45Y-2.525
X5.5Y-2.825
X6.45Y-2.425
X4.5Y-3.675
X4.15Y-2.025
X5.85Y-2.225
X5.75Y-2.625
X5.85Y-1.925
X4.05Y-2.325
X5.9Y-3.375
X6.45Y-2.225
X4.65Y-2.025
X4.75Y-2.825
X5.525Y-3.175
X5.625Y-3.175
X5.725Y-3.175
X5.825Y-3.175
X3.8Y-3.025
X4.15Y-2.525
X4.2Y-3.375
X4.65Y-2.825
X5.35Y-3.375
X5.Y-2.225
X4.75Y-2.325
X3.65Y-3.675
X4.05Y-2.525
X5.15Y-3.375
X6.45Y-3.025
X3.8Y-2.825
X4.15Y-2.725
X4.3Y-3.375
X5.875Y-3.5
X6.35Y-3.025
X5.6Y-2.125
X4.5Y-3.375
X6.725Y-3.5
X4.05Y-2.825
X4.9Y-2.025
X4.9Y-2.825
X6.825Y-3.5
X4.15Y-2.625
X3.9Y-2.425
X5.025Y-3.5
X5.75Y-2.925
X3.9Y-2.325
X4.05Y-2.925
X4.9Y-1.925
X3.8Y-2.025
X4.9Y-3.025
X6.7Y-2.225
X4.75Y-2.725
X3.825Y-3.175
X3.925Y-3.175
X4.025Y-3.175
X4.125Y-3.175
X3.9Y-2.925
X6.325Y-3.675
X6.6Y-2.725
X5.6Y-3.025
X5.05Y-3.3
X4.9Y-2.925
X4.05Y-2.025
X6.6Y-2.325
X4.75Y-2.225
X5.Y-1.925
X4.05Y-3.025
X6.6Y-2.925
X5.5Y-2.025
X5.5Y-2.125
X3.9Y-2.825
X5.475Y-3.675
X5.75Y-2.725
X4.75Y-3.025
X6.85Y-3.3
X4.65Y-2.725
X5.85Y-2.425
X5.75Y-2.325
X3.775Y-3.675
X3.9Y-3.025
X4.625Y-3.675
X3.8Y-1.925
X4.9Y-2.725
X4.75Y-2.125
X6.45Y-2.925
X4.9Y-2.325
X4.5Y-3.3
X6.35Y-2.925
X6.45Y-2.325
X4.675Y-3.175
X4.775Y-3.175
X4.875Y-3.175
X4.975Y-3.175
X4.175Y-3.5
X5.5Y-2.525
X6.2Y-3.675
X6.6Y-3.025
X5.05Y-3.375
X6.6Y-2.425
X4.275Y-3.5
X6.6Y-2.125
X4.65Y-2.525
X5.Y-2.325
X5.375Y-1.925
X5.375Y-2.025
X5.375Y-2.125
X5.375Y-2.225
X5.375Y-2.325
X5.375Y-2.425
X5.375Y-2.525
X5.375Y-2.625
X5.375Y-2.725
X5.375Y-2.825
X5.375Y-2.925
X5.375Y-3.025
X5.975Y-1.925
X5.975Y-2.025
X5.975Y-2.125
X5.975Y-2.225
X5.975Y-2.325
X5.975Y-2.425
X5.975Y-2.525
X5.975Y-2.625
X5.975Y-2.725
X5.975Y-2.825
X5.975Y-2.925
X5.975Y-3.025
X6.6Y-2.525
X4.65Y-3.025
X4.05Y-2.225
X5.75Y-2.125
X4.15Y-2.125
X6.35Y-2.425
X5.85Y-2.625
X6.7Y-2.125
X4.65Y-1.925
X4.65Y-2.125
X6.35Y-2.725
X4.05Y-2.125
X4.9Y-2.125
X4.15Y-2.325
X5.5Y-2.325
X6.7Y-2.725
X6.3Y-3.3
X5.Y-2.525
X5.5Y-2.425
X4.6Y-3.375
X5.5Y-2.725
X4.05Y-1.925
X6.35Y-2.625
X5.6Y-2.525
X6.6Y-2.225
X4.15Y-1.925
X4.65Y-2.325
X5.85Y-2.725
X5.45Y-3.3
X6.7Y-2.825
X6.2Y-3.3
X5.6Y-2.325
X3.9Y-2.725
X5.Y-2.925
X5.5Y-2.625
X6.7Y-2.625
X6.3Y-3.375
X4.75Y-2.625
X4.75Y-2.525
X3.675Y-1.925
X3.675Y-2.025
X3.675Y-2.125
X3.675Y-2.225
X3.675Y-2.325
X3.675Y-2.425
X3.675Y-2.525
X3.675Y-2.625
X3.675Y-2.725
X3.675Y-2.825
X3.675Y-2.925
X3.675Y-3.025
X4.275Y-1.925
X4.275Y-2.025
X4.275Y-2.125
X4.275Y-2.225
X4.275Y-2.325
X4.275Y-2.425
X4.275Y-2.525
X4.275Y-2.625
X4.275Y-2.725
X4.275Y-2.825
X4.275Y-2.925
X4.275Y-3.025
X3.8Y-2.925
X3.75Y-3.3
X5.75Y-2.225
X5.Y-2.725
X5.85Y-2.825
X5.35Y-3.3
X6.35Y-2.325
X6.45Y-2.825
X3.9Y-2.625
X3.8Y-2.125
X6.7Y-3.025
X4.65Y-2.625
X5.6Y-2.225
X6.75Y-3.3
X5.6Y-2.025
X6.7Y-2.425
X6.45Y-2.725
X6.45Y-2.625
X4.15Y-3.025
X5.75Y-2.425
X4.9Y-2.225
X6.7Y-2.525
X4.75Y-2.425
X5.75Y-3.025
X4.65Y-2.225
X6.7Y-2.925
X5.6Y-2.825
X3.9Y-2.525
X5.85Y-3.025
X6.7Y-2.025
X5.Y-2.425
X5.9Y-3.3
X5.975Y-3.5
X5.6Y-2.625
X5.85Y-2.125
X3.8Y-2.425
X4.15Y-2.925
X4.9Y-2.425
X6.6Y-2.025
X5.5Y-3.025
X6.35Y-2.125
X5.85Y-2.925
X5.Y-2.625
X5.6Y-2.725
T4
X6.4Y-3.325
X6.6559Y-3.325
X4.7Y-3.325
X4.9559Y-3.325
X5.55Y-3.325
X5.8059Y-3.325
X3.85Y-3.325
X4.1059Y-3.325
T5
X4.275Y-3.175
X5.375Y-3.175
X5.125Y-3.825
X4.275Y-3.825
X5.375Y-3.825
X4.525Y-3.825
X5.975Y-3.175
X6.225Y-3.175
X6.825Y-3.825
X3.675Y-3.825
X5.125Y-3.175
X6.825Y-3.175
X4.525Y-3.175
X6.225Y-3.825
X3.675Y-3.175
X5.975Y-3.825
T6
X4.89Y-3.6173
X5.166Y-3.6173
X4.04Y-3.6173
X4.316Y-3.6173
X5.74Y-3.6173
X6.016Y-3.6173
X4.486Y-3.5484
X4.762Y-3.5484
X5.336Y-3.5484
X5.612Y-3.5484
X3.636Y-3.5484
X3.912Y-3.5484
X6.186Y-3.5484
X6.462Y-3.5484
X6.59Y-3.6173
X6.866Y-3.6173
T3
X4.7703Y-3.5346G85X4.7506Y-3.5346
G05
X4.8293Y-3.7G85X4.8096Y-3.7
G05
X4.9868Y-3.7G85X4.9671Y-3.7
G05
X5.1049Y-3.7G85X5.0852Y-3.7
G05
X3.9203Y-3.5346G85X3.9006Y-3.5346
G05
X3.9793Y-3.7G85X3.9596Y-3.7
G05
X4.1368Y-3.7G85X4.1171Y-3.7
G05
X4.2549Y-3.7G85X4.2352Y-3.7
G05
X5.6203Y-3.5346G85X5.6006Y-3.5346
G05
X5.6793Y-3.7G85X5.6596Y-3.7
G05
X5.8368Y-3.7G85X5.8171Y-3.7
G05
X5.9549Y-3.7G85X5.9352Y-3.7
G05
X4.547Y-3.4657G85X4.5667Y-3.4657
G05
X4.6652Y-3.4657G85X4.6848Y-3.4657
G05
X4.8226Y-3.4657G85X4.8423Y-3.4657
G05
X4.8817Y-3.6311G85X4.9014Y-3.6311
G05
X5.397Y-3.4657G85X5.4167Y-3.4657
G05
X5.5152Y-3.4657G85X5.5348Y-3.4657
G05
X5.6726Y-3.4657G85X5.6923Y-3.4657
G05
X5.7317Y-3.6311G85X5.7514Y-3.6311
G05
X3.697Y-3.4657G85X3.7167Y-3.4657
G05
X3.8152Y-3.4657G85X3.8348Y-3.4657
G05
X3.9726Y-3.4657G85X3.9923Y-3.4657
G05
X4.0317Y-3.6311G85X4.0514Y-3.6311
G05
X6.247Y-3.4657G85X6.2667Y-3.4657
G05
X6.3652Y-3.4657G85X6.3848Y-3.4657
G05
X6.5226Y-3.4657G85X6.5423Y-3.4657
G05
X6.5817Y-3.6311G85X6.6014Y-3.6311
G05
X6.4703Y-3.5346G85X6.4506Y-3.5346
G05
X6.5293Y-3.7G85X6.5096Y-3.7
G05
X6.6868Y-3.7G85X6.6671Y-3.7
G05
X6.8049Y-3.7G85X6.7852Y-3.7
G05
T0
M30
