G04 #@! TF.GenerationSoftware,KiCad,Pcbnew,5.0.0-fee4fd1~66~ubuntu18.04.1*
G04 #@! TF.CreationDate,2018-10-17T03:13:26+09:00*
G04 #@! TF.ProjectId,MxLEDBit (___),4D784C45444269742028B3D4FC292E6B,1*
G04 #@! TF.SameCoordinates,Original*
G04 #@! TF.FileFunction,Soldermask,Bot*
G04 #@! TF.FilePolarity,Negative*
%FSLAX46Y46*%
G04 Gerber Fmt 4.6, Leading zero omitted, Abs format (unit mm)*
G04 Created by KiCad (PCBNEW 5.0.0-fee4fd1~66~ubuntu18.04.1) date Wed Oct 17 03:13:26 2018*
%MOMM*%
%LPD*%
G01*
G04 APERTURE LIST*
%ADD10C,0.200000*%
%ADD11O,2.500000X1.700000*%
%ADD12C,1.200000*%
%ADD13C,1.397000*%
%ADD14C,2.200000*%
%ADD15C,1.524000*%
%ADD16C,2.000000*%
G04 APERTURE END LIST*
D10*
X170811190Y-97721666D02*
X170625476Y-97788333D01*
X170315952Y-97788333D01*
X170192142Y-97721666D01*
X170130238Y-97655000D01*
X170068333Y-97521666D01*
X170068333Y-97388333D01*
X170130238Y-97255000D01*
X170192142Y-97188333D01*
X170315952Y-97121666D01*
X170563571Y-97055000D01*
X170687380Y-96988333D01*
X170749285Y-96921666D01*
X170811190Y-96788333D01*
X170811190Y-96655000D01*
X170749285Y-96521666D01*
X170687380Y-96455000D01*
X170563571Y-96388333D01*
X170254047Y-96388333D01*
X170068333Y-96455000D01*
X169635000Y-96855000D02*
X169387380Y-97788333D01*
X169139761Y-97121666D01*
X168892142Y-97788333D01*
X168644523Y-96855000D01*
X167592142Y-97788333D02*
X167592142Y-97055000D01*
X167654047Y-96921666D01*
X167777857Y-96855000D01*
X168025476Y-96855000D01*
X168149285Y-96921666D01*
X167592142Y-97721666D02*
X167715952Y-97788333D01*
X168025476Y-97788333D01*
X168149285Y-97721666D01*
X168211190Y-97588333D01*
X168211190Y-97455000D01*
X168149285Y-97321666D01*
X168025476Y-97255000D01*
X167715952Y-97255000D01*
X167592142Y-97188333D01*
X166973095Y-96855000D02*
X166973095Y-97788333D01*
X166973095Y-96988333D02*
X166911190Y-96921666D01*
X166787380Y-96855000D01*
X166601666Y-96855000D01*
X166477857Y-96921666D01*
X166415952Y-97055000D01*
X166415952Y-97788333D01*
X165796904Y-97788333D02*
X165796904Y-96388333D01*
X165363571Y-97388333D01*
X164930238Y-96388333D01*
X164930238Y-97788333D01*
X163754047Y-97788333D02*
X163754047Y-97055000D01*
X163815952Y-96921666D01*
X163939761Y-96855000D01*
X164187380Y-96855000D01*
X164311190Y-96921666D01*
X163754047Y-97721666D02*
X163877857Y-97788333D01*
X164187380Y-97788333D01*
X164311190Y-97721666D01*
X164373095Y-97588333D01*
X164373095Y-97455000D01*
X164311190Y-97321666D01*
X164187380Y-97255000D01*
X163877857Y-97255000D01*
X163754047Y-97188333D01*
X163320714Y-96855000D02*
X162825476Y-96855000D01*
X163135000Y-96388333D02*
X163135000Y-97588333D01*
X163073095Y-97721666D01*
X162949285Y-97788333D01*
X162825476Y-97788333D01*
X161835000Y-97721666D02*
X161958809Y-97788333D01*
X162206428Y-97788333D01*
X162330238Y-97721666D01*
X162392142Y-97655000D01*
X162454047Y-97521666D01*
X162454047Y-97121666D01*
X162392142Y-96988333D01*
X162330238Y-96921666D01*
X162206428Y-96855000D01*
X161958809Y-96855000D01*
X161835000Y-96921666D01*
X161277857Y-97788333D02*
X161277857Y-96388333D01*
X160720714Y-97788333D02*
X160720714Y-97055000D01*
X160782619Y-96921666D01*
X160906428Y-96855000D01*
X161092142Y-96855000D01*
X161215952Y-96921666D01*
X161277857Y-96988333D01*
X149221190Y-97721666D02*
X149035476Y-97788333D01*
X148725952Y-97788333D01*
X148602142Y-97721666D01*
X148540238Y-97655000D01*
X148478333Y-97521666D01*
X148478333Y-97388333D01*
X148540238Y-97255000D01*
X148602142Y-97188333D01*
X148725952Y-97121666D01*
X148973571Y-97055000D01*
X149097380Y-96988333D01*
X149159285Y-96921666D01*
X149221190Y-96788333D01*
X149221190Y-96655000D01*
X149159285Y-96521666D01*
X149097380Y-96455000D01*
X148973571Y-96388333D01*
X148664047Y-96388333D01*
X148478333Y-96455000D01*
X148045000Y-96855000D02*
X147797380Y-97788333D01*
X147549761Y-97121666D01*
X147302142Y-97788333D01*
X147054523Y-96855000D01*
X146002142Y-97788333D02*
X146002142Y-97055000D01*
X146064047Y-96921666D01*
X146187857Y-96855000D01*
X146435476Y-96855000D01*
X146559285Y-96921666D01*
X146002142Y-97721666D02*
X146125952Y-97788333D01*
X146435476Y-97788333D01*
X146559285Y-97721666D01*
X146621190Y-97588333D01*
X146621190Y-97455000D01*
X146559285Y-97321666D01*
X146435476Y-97255000D01*
X146125952Y-97255000D01*
X146002142Y-97188333D01*
X145383095Y-96855000D02*
X145383095Y-97788333D01*
X145383095Y-96988333D02*
X145321190Y-96921666D01*
X145197380Y-96855000D01*
X145011666Y-96855000D01*
X144887857Y-96921666D01*
X144825952Y-97055000D01*
X144825952Y-97788333D01*
X144206904Y-97788333D02*
X144206904Y-96388333D01*
X143773571Y-97388333D01*
X143340238Y-96388333D01*
X143340238Y-97788333D01*
X142164047Y-97788333D02*
X142164047Y-97055000D01*
X142225952Y-96921666D01*
X142349761Y-96855000D01*
X142597380Y-96855000D01*
X142721190Y-96921666D01*
X142164047Y-97721666D02*
X142287857Y-97788333D01*
X142597380Y-97788333D01*
X142721190Y-97721666D01*
X142783095Y-97588333D01*
X142783095Y-97455000D01*
X142721190Y-97321666D01*
X142597380Y-97255000D01*
X142287857Y-97255000D01*
X142164047Y-97188333D01*
X141730714Y-96855000D02*
X141235476Y-96855000D01*
X141545000Y-96388333D02*
X141545000Y-97588333D01*
X141483095Y-97721666D01*
X141359285Y-97788333D01*
X141235476Y-97788333D01*
X140245000Y-97721666D02*
X140368809Y-97788333D01*
X140616428Y-97788333D01*
X140740238Y-97721666D01*
X140802142Y-97655000D01*
X140864047Y-97521666D01*
X140864047Y-97121666D01*
X140802142Y-96988333D01*
X140740238Y-96921666D01*
X140616428Y-96855000D01*
X140368809Y-96855000D01*
X140245000Y-96921666D01*
X139687857Y-97788333D02*
X139687857Y-96388333D01*
X139130714Y-97788333D02*
X139130714Y-97055000D01*
X139192619Y-96921666D01*
X139316428Y-96855000D01*
X139502142Y-96855000D01*
X139625952Y-96921666D01*
X139687857Y-96988333D01*
X127631190Y-97721666D02*
X127445476Y-97788333D01*
X127135952Y-97788333D01*
X127012142Y-97721666D01*
X126950238Y-97655000D01*
X126888333Y-97521666D01*
X126888333Y-97388333D01*
X126950238Y-97255000D01*
X127012142Y-97188333D01*
X127135952Y-97121666D01*
X127383571Y-97055000D01*
X127507380Y-96988333D01*
X127569285Y-96921666D01*
X127631190Y-96788333D01*
X127631190Y-96655000D01*
X127569285Y-96521666D01*
X127507380Y-96455000D01*
X127383571Y-96388333D01*
X127074047Y-96388333D01*
X126888333Y-96455000D01*
X126455000Y-96855000D02*
X126207380Y-97788333D01*
X125959761Y-97121666D01*
X125712142Y-97788333D01*
X125464523Y-96855000D01*
X124412142Y-97788333D02*
X124412142Y-97055000D01*
X124474047Y-96921666D01*
X124597857Y-96855000D01*
X124845476Y-96855000D01*
X124969285Y-96921666D01*
X124412142Y-97721666D02*
X124535952Y-97788333D01*
X124845476Y-97788333D01*
X124969285Y-97721666D01*
X125031190Y-97588333D01*
X125031190Y-97455000D01*
X124969285Y-97321666D01*
X124845476Y-97255000D01*
X124535952Y-97255000D01*
X124412142Y-97188333D01*
X123793095Y-96855000D02*
X123793095Y-97788333D01*
X123793095Y-96988333D02*
X123731190Y-96921666D01*
X123607380Y-96855000D01*
X123421666Y-96855000D01*
X123297857Y-96921666D01*
X123235952Y-97055000D01*
X123235952Y-97788333D01*
X122616904Y-97788333D02*
X122616904Y-96388333D01*
X122183571Y-97388333D01*
X121750238Y-96388333D01*
X121750238Y-97788333D01*
X120574047Y-97788333D02*
X120574047Y-97055000D01*
X120635952Y-96921666D01*
X120759761Y-96855000D01*
X121007380Y-96855000D01*
X121131190Y-96921666D01*
X120574047Y-97721666D02*
X120697857Y-97788333D01*
X121007380Y-97788333D01*
X121131190Y-97721666D01*
X121193095Y-97588333D01*
X121193095Y-97455000D01*
X121131190Y-97321666D01*
X121007380Y-97255000D01*
X120697857Y-97255000D01*
X120574047Y-97188333D01*
X120140714Y-96855000D02*
X119645476Y-96855000D01*
X119955000Y-96388333D02*
X119955000Y-97588333D01*
X119893095Y-97721666D01*
X119769285Y-97788333D01*
X119645476Y-97788333D01*
X118655000Y-97721666D02*
X118778809Y-97788333D01*
X119026428Y-97788333D01*
X119150238Y-97721666D01*
X119212142Y-97655000D01*
X119274047Y-97521666D01*
X119274047Y-97121666D01*
X119212142Y-96988333D01*
X119150238Y-96921666D01*
X119026428Y-96855000D01*
X118778809Y-96855000D01*
X118655000Y-96921666D01*
X118097857Y-97788333D02*
X118097857Y-96388333D01*
X117540714Y-97788333D02*
X117540714Y-97055000D01*
X117602619Y-96921666D01*
X117726428Y-96855000D01*
X117912142Y-96855000D01*
X118035952Y-96921666D01*
X118097857Y-96988333D01*
X106041190Y-97721666D02*
X105855476Y-97788333D01*
X105545952Y-97788333D01*
X105422142Y-97721666D01*
X105360238Y-97655000D01*
X105298333Y-97521666D01*
X105298333Y-97388333D01*
X105360238Y-97255000D01*
X105422142Y-97188333D01*
X105545952Y-97121666D01*
X105793571Y-97055000D01*
X105917380Y-96988333D01*
X105979285Y-96921666D01*
X106041190Y-96788333D01*
X106041190Y-96655000D01*
X105979285Y-96521666D01*
X105917380Y-96455000D01*
X105793571Y-96388333D01*
X105484047Y-96388333D01*
X105298333Y-96455000D01*
X104865000Y-96855000D02*
X104617380Y-97788333D01*
X104369761Y-97121666D01*
X104122142Y-97788333D01*
X103874523Y-96855000D01*
X102822142Y-97788333D02*
X102822142Y-97055000D01*
X102884047Y-96921666D01*
X103007857Y-96855000D01*
X103255476Y-96855000D01*
X103379285Y-96921666D01*
X102822142Y-97721666D02*
X102945952Y-97788333D01*
X103255476Y-97788333D01*
X103379285Y-97721666D01*
X103441190Y-97588333D01*
X103441190Y-97455000D01*
X103379285Y-97321666D01*
X103255476Y-97255000D01*
X102945952Y-97255000D01*
X102822142Y-97188333D01*
X102203095Y-96855000D02*
X102203095Y-97788333D01*
X102203095Y-96988333D02*
X102141190Y-96921666D01*
X102017380Y-96855000D01*
X101831666Y-96855000D01*
X101707857Y-96921666D01*
X101645952Y-97055000D01*
X101645952Y-97788333D01*
X101026904Y-97788333D02*
X101026904Y-96388333D01*
X100593571Y-97388333D01*
X100160238Y-96388333D01*
X100160238Y-97788333D01*
X98984047Y-97788333D02*
X98984047Y-97055000D01*
X99045952Y-96921666D01*
X99169761Y-96855000D01*
X99417380Y-96855000D01*
X99541190Y-96921666D01*
X98984047Y-97721666D02*
X99107857Y-97788333D01*
X99417380Y-97788333D01*
X99541190Y-97721666D01*
X99603095Y-97588333D01*
X99603095Y-97455000D01*
X99541190Y-97321666D01*
X99417380Y-97255000D01*
X99107857Y-97255000D01*
X98984047Y-97188333D01*
X98550714Y-96855000D02*
X98055476Y-96855000D01*
X98365000Y-96388333D02*
X98365000Y-97588333D01*
X98303095Y-97721666D01*
X98179285Y-97788333D01*
X98055476Y-97788333D01*
X97065000Y-97721666D02*
X97188809Y-97788333D01*
X97436428Y-97788333D01*
X97560238Y-97721666D01*
X97622142Y-97655000D01*
X97684047Y-97521666D01*
X97684047Y-97121666D01*
X97622142Y-96988333D01*
X97560238Y-96921666D01*
X97436428Y-96855000D01*
X97188809Y-96855000D01*
X97065000Y-96921666D01*
X96507857Y-97788333D02*
X96507857Y-96388333D01*
X95950714Y-97788333D02*
X95950714Y-97055000D01*
X96012619Y-96921666D01*
X96136428Y-96855000D01*
X96322142Y-96855000D01*
X96445952Y-96921666D01*
X96507857Y-96988333D01*
D11*
G04 #@! TO.C,JACK*
X172595000Y-93980000D03*
X169595000Y-93980000D03*
X165595000Y-93980000D03*
X164095000Y-89780000D03*
D12*
X174396400Y-91880000D03*
X167386000Y-91880000D03*
G04 #@! TD*
D11*
G04 #@! TO.C,JACK*
X151005000Y-93980000D03*
X148005000Y-93980000D03*
X144005000Y-93980000D03*
X142505000Y-89780000D03*
D12*
X152806400Y-91880000D03*
X145796000Y-91880000D03*
G04 #@! TD*
D11*
G04 #@! TO.C,JACK*
X129415000Y-93980000D03*
X126415000Y-93980000D03*
X122415000Y-93980000D03*
X120915000Y-89780000D03*
D12*
X131216400Y-91880000D03*
X124206000Y-91880000D03*
G04 #@! TD*
G04 #@! TO.C,JACK*
X164134000Y-90130000D03*
X157123600Y-90130000D03*
D11*
X167425000Y-92230000D03*
X165925000Y-88030000D03*
X161925000Y-88030000D03*
X158925000Y-88030000D03*
G04 #@! TD*
D12*
G04 #@! TO.C,JACK*
X142544000Y-90130000D03*
X135533600Y-90130000D03*
D11*
X145835000Y-92230000D03*
X144335000Y-88030000D03*
X140335000Y-88030000D03*
X137335000Y-88030000D03*
G04 #@! TD*
D12*
G04 #@! TO.C,JACK*
X120954000Y-90130000D03*
X113943600Y-90130000D03*
D11*
X124245000Y-92230000D03*
X122745000Y-88030000D03*
X118745000Y-88030000D03*
X115745000Y-88030000D03*
G04 #@! TD*
D13*
G04 #@! TO.C,A*
X170815000Y-88900000D03*
G04 #@! TD*
G04 #@! TO.C,A*
X149225000Y-88900000D03*
G04 #@! TD*
G04 #@! TO.C,A*
X127635000Y-88900000D03*
G04 #@! TD*
G04 #@! TO.C,P2*
X167640000Y-61595000D03*
G04 #@! TD*
G04 #@! TO.C,P2*
X146050000Y-61595000D03*
G04 #@! TD*
G04 #@! TO.C,P2*
X124460000Y-61595000D03*
G04 #@! TD*
G04 #@! TO.C,P2*
X161290000Y-76835000D03*
G04 #@! TD*
G04 #@! TO.C,P2*
X139700000Y-76835000D03*
G04 #@! TD*
G04 #@! TO.C,P2*
X118110000Y-76835000D03*
G04 #@! TD*
G04 #@! TO.C,P2*
X163830000Y-53975000D03*
G04 #@! TD*
G04 #@! TO.C,P2*
X142240000Y-53975000D03*
G04 #@! TD*
G04 #@! TO.C,P2*
X120650000Y-53975000D03*
G04 #@! TD*
G04 #@! TO.C,P2*
X170180000Y-51435000D03*
G04 #@! TD*
G04 #@! TO.C,P2*
X148590000Y-51435000D03*
G04 #@! TD*
G04 #@! TO.C,P2*
X127000000Y-51435000D03*
G04 #@! TD*
G04 #@! TO.C,DATA*
X157480000Y-93345000D03*
G04 #@! TD*
G04 #@! TO.C,DATA*
X135890000Y-93345000D03*
G04 #@! TD*
G04 #@! TO.C,DATA*
X114300000Y-93345000D03*
G04 #@! TD*
G04 #@! TO.C,P2*
X170180000Y-48895000D03*
G04 #@! TD*
G04 #@! TO.C,P2*
X148590000Y-48895000D03*
G04 #@! TD*
G04 #@! TO.C,P2*
X127000000Y-48895000D03*
G04 #@! TD*
G04 #@! TO.C,P2*
X163830000Y-48895000D03*
G04 #@! TD*
G04 #@! TO.C,P2*
X142240000Y-48895000D03*
G04 #@! TD*
G04 #@! TO.C,P2*
X120650000Y-48895000D03*
G04 #@! TD*
G04 #@! TO.C,P2*
X163830000Y-51435000D03*
G04 #@! TD*
G04 #@! TO.C,P2*
X142240000Y-51435000D03*
G04 #@! TD*
G04 #@! TO.C,P2*
X120650000Y-51435000D03*
G04 #@! TD*
G04 #@! TO.C,P2*
X170180000Y-53975000D03*
G04 #@! TD*
G04 #@! TO.C,P2*
X148590000Y-53975000D03*
G04 #@! TD*
G04 #@! TO.C,P2*
X127000000Y-53975000D03*
G04 #@! TD*
G04 #@! TO.C,P2*
X170180000Y-59055000D03*
G04 #@! TD*
G04 #@! TO.C,P2*
X148590000Y-59055000D03*
G04 #@! TD*
G04 #@! TO.C,P2*
X127000000Y-59055000D03*
G04 #@! TD*
D14*
G04 #@! TO.C,HOLE_M2*
X158115000Y-80645000D03*
G04 #@! TD*
G04 #@! TO.C,HOLE_M2*
X136525000Y-80645000D03*
G04 #@! TD*
G04 #@! TO.C,HOLE_M2*
X114935000Y-80645000D03*
G04 #@! TD*
D13*
G04 #@! TO.C,P2*
X167640000Y-56515000D03*
G04 #@! TD*
G04 #@! TO.C,P2*
X146050000Y-56515000D03*
G04 #@! TD*
G04 #@! TO.C,P2*
X124460000Y-56515000D03*
G04 #@! TD*
G04 #@! TO.C,A*
X160655000Y-93345000D03*
G04 #@! TD*
G04 #@! TO.C,A*
X139065000Y-93345000D03*
G04 #@! TD*
G04 #@! TO.C,A*
X117475000Y-93345000D03*
G04 #@! TD*
G04 #@! TO.C,DATA*
X173355000Y-88900000D03*
G04 #@! TD*
G04 #@! TO.C,DATA*
X151765000Y-88900000D03*
G04 #@! TD*
G04 #@! TO.C,DATA*
X130175000Y-88900000D03*
G04 #@! TD*
G04 #@! TO.C,P2*
X161290000Y-51435000D03*
G04 #@! TD*
G04 #@! TO.C,P2*
X139700000Y-51435000D03*
G04 #@! TD*
G04 #@! TO.C,P2*
X118110000Y-51435000D03*
G04 #@! TD*
D14*
G04 #@! TO.C,HOLE_M2*
X158115000Y-97155000D03*
G04 #@! TD*
G04 #@! TO.C,HOLE_M2*
X136525000Y-97155000D03*
G04 #@! TD*
G04 #@! TO.C,HOLE_M2*
X114935000Y-97155000D03*
G04 #@! TD*
D13*
G04 #@! TO.C,P2*
X170180000Y-69215000D03*
G04 #@! TD*
G04 #@! TO.C,P2*
X148590000Y-69215000D03*
G04 #@! TD*
G04 #@! TO.C,P2*
X127000000Y-69215000D03*
G04 #@! TD*
G04 #@! TO.C,P2*
X170180000Y-64135000D03*
G04 #@! TD*
G04 #@! TO.C,P2*
X148590000Y-64135000D03*
G04 #@! TD*
G04 #@! TO.C,P2*
X127000000Y-64135000D03*
G04 #@! TD*
G04 #@! TO.C,P2*
X170180000Y-61595000D03*
G04 #@! TD*
G04 #@! TO.C,P2*
X148590000Y-61595000D03*
G04 #@! TD*
G04 #@! TO.C,P2*
X127000000Y-61595000D03*
G04 #@! TD*
G04 #@! TO.C,P2*
X163830000Y-56515000D03*
G04 #@! TD*
G04 #@! TO.C,P2*
X142240000Y-56515000D03*
G04 #@! TD*
G04 #@! TO.C,P2*
X120650000Y-56515000D03*
G04 #@! TD*
G04 #@! TO.C,P2*
X161290000Y-56515000D03*
G04 #@! TD*
G04 #@! TO.C,P2*
X139700000Y-56515000D03*
G04 #@! TD*
G04 #@! TO.C,P2*
X118110000Y-56515000D03*
G04 #@! TD*
G04 #@! TO.C,P2*
X161290000Y-66675000D03*
G04 #@! TD*
G04 #@! TO.C,P2*
X139700000Y-66675000D03*
G04 #@! TD*
G04 #@! TO.C,P2*
X118110000Y-66675000D03*
G04 #@! TD*
G04 #@! TO.C,DT*
X167640000Y-51435000D03*
G04 #@! TD*
G04 #@! TO.C,DT*
X146050000Y-51435000D03*
G04 #@! TD*
G04 #@! TO.C,DT*
X124460000Y-51435000D03*
G04 #@! TD*
G04 #@! TO.C,P2*
X163830000Y-59055000D03*
G04 #@! TD*
G04 #@! TO.C,P2*
X142240000Y-59055000D03*
G04 #@! TD*
G04 #@! TO.C,P2*
X120650000Y-59055000D03*
G04 #@! TD*
G04 #@! TO.C,P2*
X161290000Y-48895000D03*
G04 #@! TD*
G04 #@! TO.C,P2*
X139700000Y-48895000D03*
G04 #@! TD*
G04 #@! TO.C,P2*
X118110000Y-48895000D03*
G04 #@! TD*
G04 #@! TO.C,P2*
X170180000Y-56515000D03*
G04 #@! TD*
G04 #@! TO.C,P2*
X148590000Y-56515000D03*
G04 #@! TD*
G04 #@! TO.C,P2*
X127000000Y-56515000D03*
G04 #@! TD*
D14*
G04 #@! TO.C,HOLE_M2*
X173355000Y-80645000D03*
G04 #@! TD*
G04 #@! TO.C,HOLE_M2*
X151765000Y-80645000D03*
G04 #@! TD*
G04 #@! TO.C,HOLE_M2*
X130175000Y-80645000D03*
G04 #@! TD*
D13*
G04 #@! TO.C,P2*
X167640000Y-53975000D03*
G04 #@! TD*
G04 #@! TO.C,P2*
X146050000Y-53975000D03*
G04 #@! TD*
G04 #@! TO.C,P2*
X124460000Y-53975000D03*
G04 #@! TD*
G04 #@! TO.C,P2*
X161290000Y-59055000D03*
G04 #@! TD*
G04 #@! TO.C,P2*
X139700000Y-59055000D03*
G04 #@! TD*
G04 #@! TO.C,P2*
X118110000Y-59055000D03*
G04 #@! TD*
G04 #@! TO.C,P2*
X163830000Y-61595000D03*
G04 #@! TD*
G04 #@! TO.C,P2*
X142240000Y-61595000D03*
G04 #@! TD*
G04 #@! TO.C,P2*
X120650000Y-61595000D03*
G04 #@! TD*
G04 #@! TO.C,P2*
X173990000Y-85725000D03*
G04 #@! TD*
G04 #@! TO.C,P2*
X152400000Y-85725000D03*
G04 #@! TD*
G04 #@! TO.C,P2*
X130810000Y-85725000D03*
G04 #@! TD*
G04 #@! TO.C,P2*
X170180000Y-71755000D03*
G04 #@! TD*
G04 #@! TO.C,P2*
X148590000Y-71755000D03*
G04 #@! TD*
G04 #@! TO.C,P2*
X127000000Y-71755000D03*
G04 #@! TD*
G04 #@! TO.C,P2*
X167640000Y-48895000D03*
G04 #@! TD*
G04 #@! TO.C,P2*
X146050000Y-48895000D03*
G04 #@! TD*
G04 #@! TO.C,P2*
X124460000Y-48895000D03*
G04 #@! TD*
G04 #@! TO.C,OLED*
X161925000Y-80645000D03*
X164465000Y-80645000D03*
X167005000Y-80645000D03*
X169545000Y-80645000D03*
G04 #@! TD*
G04 #@! TO.C,OLED*
X140335000Y-80645000D03*
X142875000Y-80645000D03*
X145415000Y-80645000D03*
X147955000Y-80645000D03*
G04 #@! TD*
G04 #@! TO.C,OLED*
X118745000Y-80645000D03*
X121285000Y-80645000D03*
X123825000Y-80645000D03*
X126365000Y-80645000D03*
G04 #@! TD*
D15*
G04 #@! TO.C,U2*
X173355000Y-48895000D03*
X173355000Y-51435000D03*
X173355000Y-53975000D03*
X173355000Y-56515000D03*
X173355000Y-59055000D03*
X173355000Y-61595000D03*
X173355000Y-64135000D03*
X173355000Y-66675000D03*
X173355000Y-69215000D03*
X173355000Y-71755000D03*
X173355000Y-74295000D03*
X173355000Y-76835000D03*
X158115000Y-76835000D03*
X158115000Y-74295000D03*
X158115000Y-71755000D03*
X158115000Y-69215000D03*
X158115000Y-66675000D03*
X158115000Y-64135000D03*
X158115000Y-61595000D03*
X158115000Y-59055000D03*
X158115000Y-56515000D03*
X158115000Y-53975000D03*
X158115000Y-51435000D03*
X158115000Y-48895000D03*
G04 #@! TD*
G04 #@! TO.C,U2*
X151765000Y-48895000D03*
X151765000Y-51435000D03*
X151765000Y-53975000D03*
X151765000Y-56515000D03*
X151765000Y-59055000D03*
X151765000Y-61595000D03*
X151765000Y-64135000D03*
X151765000Y-66675000D03*
X151765000Y-69215000D03*
X151765000Y-71755000D03*
X151765000Y-74295000D03*
X151765000Y-76835000D03*
X136525000Y-76835000D03*
X136525000Y-74295000D03*
X136525000Y-71755000D03*
X136525000Y-69215000D03*
X136525000Y-66675000D03*
X136525000Y-64135000D03*
X136525000Y-61595000D03*
X136525000Y-59055000D03*
X136525000Y-56515000D03*
X136525000Y-53975000D03*
X136525000Y-51435000D03*
X136525000Y-48895000D03*
G04 #@! TD*
G04 #@! TO.C,U2*
X130175000Y-48895000D03*
X130175000Y-51435000D03*
X130175000Y-53975000D03*
X130175000Y-56515000D03*
X130175000Y-59055000D03*
X130175000Y-61595000D03*
X130175000Y-64135000D03*
X130175000Y-66675000D03*
X130175000Y-69215000D03*
X130175000Y-71755000D03*
X130175000Y-74295000D03*
X130175000Y-76835000D03*
X114935000Y-76835000D03*
X114935000Y-74295000D03*
X114935000Y-71755000D03*
X114935000Y-69215000D03*
X114935000Y-66675000D03*
X114935000Y-64135000D03*
X114935000Y-61595000D03*
X114935000Y-59055000D03*
X114935000Y-56515000D03*
X114935000Y-53975000D03*
X114935000Y-51435000D03*
X114935000Y-48895000D03*
G04 #@! TD*
D13*
G04 #@! TO.C,P2*
X157480000Y-85725000D03*
G04 #@! TD*
G04 #@! TO.C,P2*
X135890000Y-85725000D03*
G04 #@! TD*
G04 #@! TO.C,P2*
X114300000Y-85725000D03*
G04 #@! TD*
G04 #@! TO.C,P2*
X160020000Y-85725000D03*
G04 #@! TD*
G04 #@! TO.C,P2*
X138430000Y-85725000D03*
G04 #@! TD*
G04 #@! TO.C,P2*
X116840000Y-85725000D03*
G04 #@! TD*
G04 #@! TO.C,P2*
X161290000Y-71755000D03*
G04 #@! TD*
G04 #@! TO.C,P2*
X139700000Y-71755000D03*
G04 #@! TD*
G04 #@! TO.C,P2*
X118110000Y-71755000D03*
G04 #@! TD*
G04 #@! TO.C,P2*
X167640000Y-59055000D03*
G04 #@! TD*
G04 #@! TO.C,P2*
X146050000Y-59055000D03*
G04 #@! TD*
G04 #@! TO.C,P2*
X124460000Y-59055000D03*
G04 #@! TD*
G04 #@! TO.C,P2*
X161290000Y-74295000D03*
G04 #@! TD*
G04 #@! TO.C,P2*
X139700000Y-74295000D03*
G04 #@! TD*
G04 #@! TO.C,P2*
X118110000Y-74295000D03*
G04 #@! TD*
G04 #@! TO.C,P2*
X161290000Y-53975000D03*
G04 #@! TD*
G04 #@! TO.C,P2*
X139700000Y-53975000D03*
G04 #@! TD*
G04 #@! TO.C,P2*
X118110000Y-53975000D03*
G04 #@! TD*
G04 #@! TO.C,P2*
X161290000Y-64135000D03*
G04 #@! TD*
G04 #@! TO.C,P2*
X139700000Y-64135000D03*
G04 #@! TD*
G04 #@! TO.C,P2*
X118110000Y-64135000D03*
G04 #@! TD*
G04 #@! TO.C,P2*
X157480000Y-83820000D03*
G04 #@! TD*
G04 #@! TO.C,P2*
X135890000Y-83820000D03*
G04 #@! TD*
G04 #@! TO.C,P2*
X114300000Y-83820000D03*
G04 #@! TD*
G04 #@! TO.C,P2*
X160020000Y-83820000D03*
G04 #@! TD*
G04 #@! TO.C,P2*
X138430000Y-83820000D03*
G04 #@! TD*
G04 #@! TO.C,P2*
X116840000Y-83820000D03*
G04 #@! TD*
G04 #@! TO.C,P2*
X170180000Y-76835000D03*
G04 #@! TD*
G04 #@! TO.C,P2*
X148590000Y-76835000D03*
G04 #@! TD*
G04 #@! TO.C,P2*
X127000000Y-76835000D03*
G04 #@! TD*
G04 #@! TO.C,P2*
X170180000Y-66675000D03*
G04 #@! TD*
G04 #@! TO.C,P2*
X148590000Y-66675000D03*
G04 #@! TD*
G04 #@! TO.C,P2*
X127000000Y-66675000D03*
G04 #@! TD*
G04 #@! TO.C,P2*
X170180000Y-74295000D03*
G04 #@! TD*
G04 #@! TO.C,P2*
X148590000Y-74295000D03*
G04 #@! TD*
G04 #@! TO.C,P2*
X127000000Y-74295000D03*
G04 #@! TD*
G04 #@! TO.C,P2*
X171450000Y-85725000D03*
G04 #@! TD*
G04 #@! TO.C,P2*
X149860000Y-85725000D03*
G04 #@! TD*
G04 #@! TO.C,P2*
X128270000Y-85725000D03*
G04 #@! TD*
G04 #@! TO.C,P2*
X171450000Y-83820000D03*
G04 #@! TD*
G04 #@! TO.C,P2*
X149860000Y-83820000D03*
G04 #@! TD*
G04 #@! TO.C,P2*
X128270000Y-83820000D03*
G04 #@! TD*
G04 #@! TO.C,P2*
X161290000Y-69215000D03*
G04 #@! TD*
G04 #@! TO.C,P2*
X139700000Y-69215000D03*
G04 #@! TD*
G04 #@! TO.C,P2*
X118110000Y-69215000D03*
G04 #@! TD*
G04 #@! TO.C,P2*
X161290000Y-61595000D03*
G04 #@! TD*
G04 #@! TO.C,P2*
X139700000Y-61595000D03*
G04 #@! TD*
G04 #@! TO.C,P2*
X118110000Y-61595000D03*
G04 #@! TD*
G04 #@! TO.C,P2*
X173990000Y-83820000D03*
G04 #@! TD*
G04 #@! TO.C,P2*
X152400000Y-83820000D03*
G04 #@! TD*
G04 #@! TO.C,P2*
X130810000Y-83820000D03*
G04 #@! TD*
G04 #@! TO.C,P2*
X163830000Y-76835000D03*
G04 #@! TD*
G04 #@! TO.C,P2*
X142240000Y-76835000D03*
G04 #@! TD*
G04 #@! TO.C,P2*
X120650000Y-76835000D03*
G04 #@! TD*
G04 #@! TO.C,P2*
X163830000Y-71755000D03*
G04 #@! TD*
G04 #@! TO.C,P2*
X142240000Y-71755000D03*
G04 #@! TD*
G04 #@! TO.C,P2*
X120650000Y-71755000D03*
G04 #@! TD*
G04 #@! TO.C,P2*
X163830000Y-74295000D03*
G04 #@! TD*
G04 #@! TO.C,P2*
X142240000Y-74295000D03*
G04 #@! TD*
G04 #@! TO.C,P2*
X120650000Y-74295000D03*
G04 #@! TD*
G04 #@! TO.C,P2*
X167640000Y-76835000D03*
G04 #@! TD*
G04 #@! TO.C,P2*
X146050000Y-76835000D03*
G04 #@! TD*
G04 #@! TO.C,P2*
X124460000Y-76835000D03*
G04 #@! TD*
G04 #@! TO.C,P2*
X167640000Y-74295000D03*
G04 #@! TD*
G04 #@! TO.C,P2*
X146050000Y-74295000D03*
G04 #@! TD*
G04 #@! TO.C,P2*
X124460000Y-74295000D03*
G04 #@! TD*
G04 #@! TO.C,P2*
X167640000Y-71755000D03*
G04 #@! TD*
G04 #@! TO.C,P2*
X146050000Y-71755000D03*
G04 #@! TD*
G04 #@! TO.C,P2*
X124460000Y-71755000D03*
G04 #@! TD*
G04 #@! TO.C,P2*
X167640000Y-64135000D03*
G04 #@! TD*
G04 #@! TO.C,P2*
X146050000Y-64135000D03*
G04 #@! TD*
G04 #@! TO.C,P2*
X124460000Y-64135000D03*
G04 #@! TD*
G04 #@! TO.C,P2*
X167640000Y-69215000D03*
G04 #@! TD*
G04 #@! TO.C,P2*
X146050000Y-69215000D03*
G04 #@! TD*
G04 #@! TO.C,P2*
X124460000Y-69215000D03*
G04 #@! TD*
G04 #@! TO.C,P2*
X167640000Y-66675000D03*
G04 #@! TD*
G04 #@! TO.C,P2*
X146050000Y-66675000D03*
G04 #@! TD*
G04 #@! TO.C,P2*
X124460000Y-66675000D03*
G04 #@! TD*
G04 #@! TO.C,P2*
X163830000Y-64135000D03*
G04 #@! TD*
G04 #@! TO.C,P2*
X142240000Y-64135000D03*
G04 #@! TD*
G04 #@! TO.C,P2*
X120650000Y-64135000D03*
G04 #@! TD*
G04 #@! TO.C,P2*
X163830000Y-66675000D03*
G04 #@! TD*
G04 #@! TO.C,P2*
X142240000Y-66675000D03*
G04 #@! TD*
G04 #@! TO.C,P2*
X120650000Y-66675000D03*
G04 #@! TD*
G04 #@! TO.C,P2*
X163830000Y-69215000D03*
G04 #@! TD*
G04 #@! TO.C,P2*
X142240000Y-69215000D03*
G04 #@! TD*
G04 #@! TO.C,P2*
X120650000Y-69215000D03*
G04 #@! TD*
D16*
G04 #@! TO.C,RESET1*
X169060000Y-84455000D03*
X162560000Y-84455000D03*
G04 #@! TD*
G04 #@! TO.C,RESET1*
X147470000Y-84455000D03*
X140970000Y-84455000D03*
G04 #@! TD*
G04 #@! TO.C,RESET1*
X125880000Y-84455000D03*
X119380000Y-84455000D03*
G04 #@! TD*
D14*
G04 #@! TO.C,HOLE_M2*
X173355000Y-97155000D03*
G04 #@! TD*
G04 #@! TO.C,HOLE_M2*
X151765000Y-97155000D03*
G04 #@! TD*
G04 #@! TO.C,HOLE_M2*
X130175000Y-97155000D03*
G04 #@! TD*
D12*
G04 #@! TO.C,JACK*
X102616000Y-91880000D03*
X109626400Y-91880000D03*
D11*
X99325000Y-89780000D03*
X100825000Y-93980000D03*
X104825000Y-93980000D03*
X107825000Y-93980000D03*
G04 #@! TD*
G04 #@! TO.C,JACK*
X94155000Y-88030000D03*
X97155000Y-88030000D03*
X101155000Y-88030000D03*
X102655000Y-92230000D03*
D12*
X92353600Y-90130000D03*
X99364000Y-90130000D03*
G04 #@! TD*
D14*
G04 #@! TO.C,HOLE_M2*
X93345000Y-97155000D03*
G04 #@! TD*
D16*
G04 #@! TO.C,RESET1*
X97790000Y-84455000D03*
X104290000Y-84455000D03*
G04 #@! TD*
D14*
G04 #@! TO.C,HOLE_M2*
X108585000Y-97155000D03*
G04 #@! TD*
G04 #@! TO.C,HOLE_M2*
X93345000Y-80645000D03*
G04 #@! TD*
G04 #@! TO.C,HOLE_M2*
X108585000Y-80645000D03*
G04 #@! TD*
D13*
G04 #@! TO.C,P2*
X96520000Y-48895000D03*
G04 #@! TD*
G04 #@! TO.C,P2*
X96520000Y-51435000D03*
G04 #@! TD*
G04 #@! TO.C,P2*
X96520000Y-53975000D03*
G04 #@! TD*
G04 #@! TO.C,P2*
X96520000Y-56515000D03*
G04 #@! TD*
G04 #@! TO.C,P2*
X96520000Y-59055000D03*
G04 #@! TD*
G04 #@! TO.C,P2*
X105410000Y-56515000D03*
G04 #@! TD*
G04 #@! TO.C,P2*
X105410000Y-51435000D03*
G04 #@! TD*
G04 #@! TO.C,P2*
X105410000Y-53975000D03*
G04 #@! TD*
G04 #@! TO.C,P2*
X105410000Y-59055000D03*
G04 #@! TD*
G04 #@! TO.C,P2*
X105410000Y-48895000D03*
G04 #@! TD*
G04 #@! TO.C,P2*
X105410000Y-61595000D03*
G04 #@! TD*
G04 #@! TO.C,P2*
X99060000Y-51435000D03*
G04 #@! TD*
G04 #@! TO.C,P2*
X99060000Y-56515000D03*
G04 #@! TD*
G04 #@! TO.C,P2*
X99060000Y-53975000D03*
G04 #@! TD*
G04 #@! TO.C,P2*
X99060000Y-48895000D03*
G04 #@! TD*
G04 #@! TO.C,P2*
X99060000Y-59055000D03*
G04 #@! TD*
G04 #@! TO.C,DT*
X102870000Y-51435000D03*
G04 #@! TD*
G04 #@! TO.C,P2*
X102870000Y-56515000D03*
G04 #@! TD*
G04 #@! TO.C,P2*
X102870000Y-53975000D03*
G04 #@! TD*
G04 #@! TO.C,P2*
X102870000Y-48895000D03*
G04 #@! TD*
G04 #@! TO.C,P2*
X102870000Y-61595000D03*
G04 #@! TD*
G04 #@! TO.C,P2*
X102870000Y-59055000D03*
G04 #@! TD*
G04 #@! TO.C,DATA*
X92710000Y-93345000D03*
G04 #@! TD*
G04 #@! TO.C,A*
X95885000Y-93345000D03*
G04 #@! TD*
G04 #@! TO.C,A*
X106045000Y-88900000D03*
G04 #@! TD*
G04 #@! TO.C,DATA*
X108585000Y-88900000D03*
G04 #@! TD*
D15*
G04 #@! TO.C,U2*
X93345000Y-48895000D03*
X93345000Y-51435000D03*
X93345000Y-53975000D03*
X93345000Y-56515000D03*
X93345000Y-59055000D03*
X93345000Y-61595000D03*
X93345000Y-64135000D03*
X93345000Y-66675000D03*
X93345000Y-69215000D03*
X93345000Y-71755000D03*
X93345000Y-74295000D03*
X93345000Y-76835000D03*
X108585000Y-76835000D03*
X108585000Y-74295000D03*
X108585000Y-71755000D03*
X108585000Y-69215000D03*
X108585000Y-66675000D03*
X108585000Y-64135000D03*
X108585000Y-61595000D03*
X108585000Y-59055000D03*
X108585000Y-56515000D03*
X108585000Y-53975000D03*
X108585000Y-51435000D03*
X108585000Y-48895000D03*
G04 #@! TD*
D13*
G04 #@! TO.C,P2*
X96520000Y-61595000D03*
G04 #@! TD*
G04 #@! TO.C,P2*
X96520000Y-64135000D03*
G04 #@! TD*
G04 #@! TO.C,P2*
X96520000Y-66675000D03*
G04 #@! TD*
G04 #@! TO.C,P2*
X96520000Y-69215000D03*
G04 #@! TD*
G04 #@! TO.C,P2*
X96520000Y-76835000D03*
G04 #@! TD*
G04 #@! TO.C,P2*
X96520000Y-71755000D03*
G04 #@! TD*
G04 #@! TO.C,P2*
X96520000Y-74295000D03*
G04 #@! TD*
G04 #@! TO.C,P2*
X105410000Y-76835000D03*
G04 #@! TD*
G04 #@! TO.C,P2*
X105410000Y-74295000D03*
G04 #@! TD*
G04 #@! TO.C,P2*
X105410000Y-71755000D03*
G04 #@! TD*
G04 #@! TO.C,P2*
X105410000Y-64135000D03*
G04 #@! TD*
G04 #@! TO.C,P2*
X105410000Y-69215000D03*
G04 #@! TD*
G04 #@! TO.C,P2*
X105410000Y-66675000D03*
G04 #@! TD*
G04 #@! TO.C,OLED*
X104775000Y-80645000D03*
X102235000Y-80645000D03*
X99695000Y-80645000D03*
X97155000Y-80645000D03*
G04 #@! TD*
G04 #@! TO.C,P2*
X95250000Y-83820000D03*
G04 #@! TD*
G04 #@! TO.C,P2*
X92710000Y-83820000D03*
G04 #@! TD*
G04 #@! TO.C,P2*
X95250000Y-85725000D03*
G04 #@! TD*
G04 #@! TO.C,P2*
X92710000Y-85725000D03*
G04 #@! TD*
G04 #@! TO.C,P2*
X109220000Y-83820000D03*
G04 #@! TD*
G04 #@! TO.C,P2*
X106680000Y-83820000D03*
G04 #@! TD*
G04 #@! TO.C,P2*
X106680000Y-85725000D03*
G04 #@! TD*
G04 #@! TO.C,P2*
X109220000Y-85725000D03*
G04 #@! TD*
G04 #@! TO.C,P2*
X99060000Y-61595000D03*
G04 #@! TD*
G04 #@! TO.C,P2*
X99060000Y-74295000D03*
G04 #@! TD*
G04 #@! TO.C,P2*
X99060000Y-71755000D03*
G04 #@! TD*
G04 #@! TO.C,P2*
X99060000Y-76835000D03*
G04 #@! TD*
G04 #@! TO.C,P2*
X99060000Y-69215000D03*
G04 #@! TD*
G04 #@! TO.C,P2*
X99060000Y-66675000D03*
G04 #@! TD*
G04 #@! TO.C,P2*
X99060000Y-64135000D03*
G04 #@! TD*
G04 #@! TO.C,P2*
X102870000Y-66675000D03*
G04 #@! TD*
G04 #@! TO.C,P2*
X102870000Y-69215000D03*
G04 #@! TD*
G04 #@! TO.C,P2*
X102870000Y-64135000D03*
G04 #@! TD*
G04 #@! TO.C,P2*
X102870000Y-71755000D03*
G04 #@! TD*
G04 #@! TO.C,P2*
X102870000Y-74295000D03*
G04 #@! TD*
G04 #@! TO.C,P2*
X102870000Y-76835000D03*
G04 #@! TD*
M02*
