M48
;DRILL file {KiCad 5.0.2-bee76a0~70~ubuntu18.04.1} date 2020年02月01日 05時26分49秒
;FORMAT={-:-/ absolute / inch / decimal}
FMAT,2
INCH,TZ
T1C0.0157
T2C0.0315
T3C0.0591
T4C0.0673
T5C0.1575
%
G90
G05
T1
X2.72Y-1.275
X2.72Y-2.025
X2.72Y-2.775
X2.72Y-3.525
X2.72Y-4.275
X2.73Y-1.555
X2.73Y-2.305
X2.73Y-3.055
X2.73Y-3.805
X2.73Y-4.555
X2.745Y-1.14
X2.745Y-1.89
X2.745Y-2.64
X2.745Y-3.39
X2.745Y-4.14
X2.8232Y-1.4082
X2.8232Y-2.1582
X2.8232Y-2.9082
X2.8232Y-3.6582
X2.8232Y-4.4082
X2.83Y-1.25
X2.83Y-2.
X2.83Y-2.75
X2.83Y-3.5
X2.83Y-4.25
X2.8316Y-1.191
X2.8316Y-1.941
X2.8316Y-2.691
X2.8316Y-3.441
X2.8316Y-4.191
X2.9Y-1.105
X2.9Y-1.855
X2.9Y-2.605
X2.9Y-3.355
X2.9Y-4.105
X2.955Y-1.58
X2.955Y-2.33
X2.955Y-3.08
X2.955Y-3.83
X2.955Y-4.58
X3.03Y-1.25
X3.03Y-2.
X3.03Y-2.75
X3.03Y-3.5
X3.03Y-4.25
X3.04Y-1.355
X3.04Y-2.105
X3.04Y-2.855
X3.04Y-3.605
X3.04Y-4.355
X3.155Y-1.22
X3.155Y-1.27
X3.155Y-1.97
X3.155Y-2.02
X3.155Y-2.72
X3.155Y-2.77
X3.155Y-3.47
X3.155Y-3.52
X3.155Y-4.22
X3.155Y-4.27
X3.47Y-1.275
X3.47Y-2.025
X3.47Y-2.775
X3.47Y-3.525
X3.47Y-4.275
X3.48Y-1.555
X3.48Y-2.305
X3.48Y-3.055
X3.48Y-3.805
X3.48Y-4.555
X3.495Y-1.14
X3.495Y-1.89
X3.495Y-2.64
X3.495Y-3.39
X3.495Y-4.14
X3.5732Y-1.4082
X3.5732Y-2.1582
X3.5732Y-2.9082
X3.5732Y-3.6582
X3.5732Y-4.4082
X3.58Y-1.25
X3.58Y-2.
X3.58Y-2.75
X3.58Y-3.5
X3.58Y-4.25
X3.5816Y-1.191
X3.5816Y-1.941
X3.5816Y-2.691
X3.5816Y-3.441
X3.5816Y-4.191
X3.65Y-1.105
X3.65Y-1.855
X3.65Y-2.605
X3.65Y-3.355
X3.65Y-4.105
X3.705Y-1.58
X3.705Y-2.33
X3.705Y-3.08
X3.705Y-3.83
X3.705Y-4.58
X3.78Y-1.25
X3.78Y-2.
X3.78Y-2.75
X3.78Y-3.5
X3.78Y-4.25
X3.79Y-1.355
X3.79Y-2.105
X3.79Y-2.855
X3.79Y-3.605
X3.79Y-4.355
X3.905Y-1.22
X3.905Y-1.27
X3.905Y-1.97
X3.905Y-2.02
X3.905Y-2.72
X3.905Y-2.77
X3.905Y-3.47
X3.905Y-3.52
X3.905Y-4.22
X3.905Y-4.27
X4.22Y-1.275
X4.22Y-2.025
X4.22Y-2.775
X4.22Y-3.525
X4.22Y-4.275
X4.23Y-1.555
X4.23Y-2.305
X4.23Y-3.055
X4.23Y-3.805
X4.23Y-4.555
X4.245Y-1.14
X4.245Y-1.89
X4.245Y-2.64
X4.245Y-3.39
X4.245Y-4.14
X4.3232Y-1.4082
X4.3232Y-2.1582
X4.3232Y-2.9082
X4.3232Y-3.6582
X4.3232Y-4.4082
X4.33Y-1.25
X4.33Y-2.
X4.33Y-2.75
X4.33Y-3.5
X4.33Y-4.25
X4.3316Y-1.191
X4.3316Y-1.941
X4.3316Y-2.691
X4.3316Y-3.441
X4.3316Y-4.191
X4.4Y-1.105
X4.4Y-1.855
X4.4Y-2.605
X4.4Y-3.355
X4.4Y-4.105
X4.455Y-1.58
X4.455Y-2.33
X4.455Y-3.08
X4.455Y-3.83
X4.455Y-4.58
X4.53Y-1.25
X4.53Y-2.
X4.53Y-2.75
X4.53Y-3.5
X4.53Y-4.25
X4.54Y-1.355
X4.54Y-2.105
X4.54Y-2.855
X4.54Y-3.605
X4.54Y-4.355
X4.655Y-1.22
X4.655Y-1.27
X4.655Y-1.97
X4.655Y-2.02
X4.655Y-2.72
X4.655Y-2.77
X4.655Y-3.47
X4.655Y-3.52
X4.655Y-4.22
X4.655Y-4.27
X4.97Y-1.275
X4.97Y-2.025
X4.97Y-2.775
X4.97Y-3.525
X4.97Y-4.275
X4.98Y-1.555
X4.98Y-2.305
X4.98Y-3.055
X4.98Y-3.805
X4.98Y-4.555
X4.995Y-1.14
X4.995Y-1.89
X4.995Y-2.64
X4.995Y-3.39
X4.995Y-4.14
X5.0732Y-1.4082
X5.0732Y-2.1582
X5.0732Y-2.9082
X5.0732Y-3.6582
X5.0732Y-4.4082
X5.08Y-1.25
X5.08Y-2.
X5.08Y-2.75
X5.08Y-3.5
X5.08Y-4.25
X5.0816Y-1.191
X5.0816Y-1.941
X5.0816Y-2.691
X5.0816Y-3.441
X5.0816Y-4.191
X5.15Y-1.105
X5.15Y-1.855
X5.15Y-2.605
X5.15Y-3.355
X5.15Y-4.105
X5.205Y-1.58
X5.205Y-2.33
X5.205Y-3.08
X5.205Y-3.83
X5.205Y-4.58
X5.28Y-1.25
X5.28Y-2.
X5.28Y-2.75
X5.28Y-3.5
X5.28Y-4.25
X5.29Y-1.355
X5.29Y-2.105
X5.29Y-2.855
X5.29Y-3.605
X5.29Y-4.355
X5.405Y-1.22
X5.405Y-1.27
X5.405Y-1.97
X5.405Y-2.02
X5.405Y-2.72
X5.405Y-2.77
X5.405Y-3.47
X5.405Y-3.52
X5.405Y-4.22
X5.405Y-4.27
X5.72Y-1.275
X5.72Y-2.025
X5.72Y-2.775
X5.72Y-3.525
X5.72Y-4.275
X5.73Y-1.555
X5.73Y-2.305
X5.73Y-3.055
X5.73Y-3.805
X5.73Y-4.555
X5.745Y-1.14
X5.745Y-1.89
X5.745Y-2.64
X5.745Y-3.39
X5.745Y-4.14
X5.8232Y-1.4082
X5.8232Y-2.1582
X5.8232Y-2.9082
X5.8232Y-3.6582
X5.8232Y-4.4082
X5.83Y-1.25
X5.83Y-2.
X5.83Y-2.75
X5.83Y-3.5
X5.83Y-4.25
X5.8316Y-1.191
X5.8316Y-1.941
X5.8316Y-2.691
X5.8316Y-3.441
X5.8316Y-4.191
X5.9Y-1.105
X5.9Y-1.855
X5.9Y-2.605
X5.9Y-3.355
X5.9Y-4.105
X5.955Y-1.58
X5.955Y-2.33
X5.955Y-3.08
X5.955Y-3.83
X5.955Y-4.58
X6.03Y-1.25
X6.03Y-2.
X6.03Y-2.75
X6.03Y-3.5
X6.03Y-4.25
X6.04Y-1.355
X6.04Y-2.105
X6.04Y-2.855
X6.04Y-3.605
X6.04Y-4.355
X6.155Y-1.22
X6.155Y-1.27
X6.155Y-1.97
X6.155Y-2.02
X6.155Y-2.72
X6.155Y-2.77
X6.155Y-3.47
X6.155Y-3.52
X6.155Y-4.22
X6.155Y-4.27
T2
X4.605Y-2.605
X6.23Y-1.855
X4.88Y-1.405
X4.73Y-1.705
X6.23Y-1.555
X4.73Y-4.705
X3.38Y-3.955
X4.73Y-4.405
X6.23Y-2.905
X6.23Y-2.455
X4.88Y-1.705
X4.605Y-1.705
X5.48Y-1.555
X2.63Y-3.055
X4.605Y-4.705
X2.63Y-3.955
X3.855Y-3.955
X3.98Y-4.405
X5.48Y-2.905
X4.88Y-1.105
X4.73Y-1.105
X4.73Y-1.555
X4.88Y-2.005
X5.63Y-2.305
X4.605Y-4.105
X3.98Y-3.955
X5.63Y-4.405
X4.73Y-2.905
X2.73Y-2.455
X2.98Y-2.455
X5.48Y-1.405
X3.98Y-2.455
X3.38Y-1.105
X5.48Y-3.055
X3.98Y-1.555
X4.13Y-2.005
X4.88Y-2.305
X4.605Y-3.955
X3.98Y-2.905
X5.355Y-1.705
X3.855Y-2.455
X3.38Y-1.705
X4.73Y-3.055
X5.63Y-4.255
X3.38Y-1.255
X4.13Y-2.305
X4.13Y-3.355
X6.23Y-4.555
X5.48Y-1.705
X3.38Y-2.155
X3.98Y-1.705
X4.88Y-4.255
X5.63Y-4.555
X3.38Y-2.305
X4.13Y-3.955
X4.13Y-1.405
X3.38Y-2.455
X3.98Y-1.105
X4.13Y-4.255
X4.88Y-4.555
X2.63Y-2.305
X4.605Y-3.355
X4.23Y-1.705
X4.48Y-1.705
X4.13Y-1.705
X3.38Y-1.855
X3.98Y-1.405
X4.98Y-4.705
X5.23Y-4.705
X3.38Y-4.255
X4.13Y-4.555
X5.63Y-1.555
X2.73Y-4.705
X2.98Y-4.705
X3.48Y-3.205
X3.73Y-3.205
X3.98Y-2.155
X3.855Y-1.705
X3.38Y-4.555
X4.88Y-1.555
X3.105Y-1.705
X2.63Y-4.555
X4.13Y-1.555
X2.63Y-1.555
X5.63Y-3.805
X3.38Y-1.555
X2.63Y-1.255
X4.88Y-3.805
X6.23Y-4.255
X6.23Y-1.255
X3.23Y-1.555
X4.13Y-3.805
X5.63Y-3.355
X3.48Y-2.455
X3.73Y-2.455
X6.23Y-3.355
X4.13Y-2.605
X2.63Y-2.905
X4.73Y-4.555
X4.23Y-2.455
X4.48Y-2.455
X6.23Y-3.955
X4.73Y-2.605
X4.13Y-2.455
X3.98Y-3.355
X4.605Y-3.205
X4.13Y-1.855
X3.855Y-4.705
X3.855Y-4.105
X3.38Y-3.355
X4.88Y-4.405
X4.73Y-2.155
X3.98Y-3.505
X3.23Y-4.705
X4.13Y-4.405
X5.73Y-4.705
X5.98Y-4.705
X4.13Y-2.155
X3.23Y-3.505
X3.38Y-4.405
X5.48Y-4.555
X4.605Y-2.455
X6.23Y-2.755
X6.23Y-3.655
X5.73Y-3.205
X5.98Y-3.205
X4.73Y-1.855
X5.48Y-2.755
X4.73Y-3.355
X5.48Y-3.655
X4.98Y-3.205
X5.23Y-3.205
X5.63Y-3.955
X4.73Y-2.455
X2.63Y-4.255
X4.73Y-2.755
X4.73Y-3.955
X4.73Y-3.655
X4.605Y-1.855
X3.855Y-1.855
X5.63Y-3.505
X3.98Y-2.755
X4.88Y-3.955
X3.98Y-3.655
X4.98Y-3.955
X5.23Y-3.955
X3.98Y-1.855
X4.88Y-3.505
X3.23Y-2.755
X4.88Y-3.355
X5.63Y-3.655
X3.23Y-2.455
X4.13Y-3.505
X6.23Y-2.005
X5.48Y-3.955
X4.88Y-3.655
X3.105Y-2.455
X3.38Y-3.505
X5.48Y-4.255
X5.48Y-1.255
X5.355Y-3.355
X2.63Y-2.155
X3.23Y-1.255
X2.63Y-3.505
X3.38Y-3.805
X4.73Y-4.255
X4.73Y-1.255
X5.355Y-3.955
X3.105Y-1.855
X3.23Y-1.405
X5.63Y-2.755
X2.63Y-3.805
X3.98Y-4.255
X5.48Y-3.355
X5.63Y-2.155
X3.23Y-2.155
X2.63Y-1.405
X2.63Y-1.105
X4.88Y-2.755
X5.63Y-3.055
X3.23Y-4.255
X3.98Y-4.555
X6.105Y-3.355
X6.105Y-2.455
X3.23Y-1.855
X3.105Y-1.105
X4.13Y-2.755
X4.88Y-3.055
X6.23Y-3.505
X3.23Y-4.555
X5.73Y-2.455
X5.98Y-2.455
X6.105Y-2.605
X3.38Y-2.605
X6.105Y-1.855
X2.63Y-1.855
X3.23Y-1.105
X3.38Y-2.755
X3.38Y-2.005
X4.13Y-3.055
X5.48Y-3.505
X3.98Y-4.705
X3.855Y-3.355
X6.23Y-3.805
X4.23Y-4.705
X4.48Y-4.705
X2.73Y-1.705
X2.98Y-1.705
X5.63Y-2.605
X3.98Y-3.205
X5.63Y-1.855
X4.23Y-3.955
X4.48Y-3.955
X2.63Y-2.455
X3.98Y-3.805
X2.63Y-2.755
X2.63Y-2.005
X3.38Y-3.055
X4.73Y-3.505
X3.38Y-4.105
X3.105Y-4.705
X5.48Y-3.805
X6.23Y-2.605
X3.855Y-2.605
X5.63Y-2.455
X3.23Y-3.805
X5.63Y-2.005
X5.63Y-1.255
X3.38Y-4.705
X3.105Y-4.105
X4.73Y-3.805
X6.23Y-3.205
X3.855Y-3.205
X6.23Y-2.155
X3.98Y-4.105
X2.63Y-4.705
X6.23Y-4.405
X6.105Y-3.205
X3.98Y-2.605
X6.105Y-1.705
X2.63Y-4.105
X5.73Y-1.705
X5.98Y-1.705
X2.73Y-3.205
X2.98Y-3.205
X5.63Y-3.205
X3.38Y-3.205
X6.105Y-1.105
X3.23Y-4.405
X5.355Y-3.205
X2.63Y-3.205
X5.355Y-1.855
X6.23Y-1.105
X2.63Y-4.405
X3.98Y-3.055
X4.98Y-1.705
X5.23Y-1.705
X5.48Y-3.205
X3.105Y-2.605
X4.88Y-2.455
X5.63Y-1.405
X3.23Y-4.105
X4.88Y-3.205
X3.23Y-3.205
X5.48Y-2.155
X5.63Y-1.705
X5.48Y-2.005
X3.23Y-3.955
X4.13Y-3.655
X4.23Y-3.205
X4.48Y-3.205
X4.88Y-2.605
X3.105Y-3.205
X5.48Y-1.855
X5.63Y-1.105
X3.23Y-2.605
X4.73Y-2.005
X2.63Y-3.655
X3.38Y-3.655
X5.355Y-2.605
X3.23Y-2.905
X6.23Y-1.405
X3.98Y-1.255
X3.105Y-3.355
X5.48Y-2.605
X6.23Y-1.705
X2.63Y-2.605
X6.105Y-3.955
X3.23Y-3.355
X4.98Y-2.455
X5.23Y-2.455
X5.355Y-1.105
X3.48Y-4.705
X3.73Y-4.705
X5.63Y-4.705
X3.23Y-3.655
X3.48Y-1.705
X3.73Y-1.705
X5.63Y-4.105
X3.105Y-3.955
X3.23Y-1.705
X6.23Y-4.105
X2.63Y-3.355
X3.38Y-1.405
X2.63Y-1.705
X6.105Y-4.105
X3.855Y-1.105
X6.23Y-3.055
X4.88Y-1.255
X6.23Y-4.705
X2.73Y-3.955
X2.98Y-3.955
X4.13Y-1.255
X6.105Y-4.705
X4.88Y-4.705
X5.48Y-4.705
X5.355Y-4.105
X3.23Y-3.055
X5.48Y-4.105
X6.23Y-2.305
X5.355Y-4.705
X5.48Y-2.455
X5.48Y-2.305
X3.98Y-2.005
X4.88Y-4.105
X5.63Y-2.905
X4.88Y-2.155
X4.13Y-1.105
X4.73Y-2.305
X3.23Y-2.005
X4.13Y-4.105
X4.88Y-2.905
X4.73Y-3.205
X5.355Y-2.455
X4.73Y-1.405
X3.98Y-2.305
X4.13Y-4.705
X4.13Y-2.905
X5.73Y-3.955
X5.98Y-3.955
X3.48Y-3.955
X3.73Y-3.955
X4.13Y-3.205
X4.88Y-1.855
X5.48Y-1.105
X4.605Y-1.105
X3.23Y-2.305
X4.73Y-4.105
X5.48Y-4.405
X3.38Y-2.905
T3
X2.83Y-1.605
X3.08Y-1.505
X5.83Y-1.605
X6.08Y-1.505
X5.83Y-4.605
X6.08Y-4.505
X3.58Y-3.855
X3.83Y-3.755
X5.83Y-3.855
X6.08Y-3.755
X3.58Y-1.605
X3.83Y-1.505
X2.83Y-3.105
X3.08Y-3.005
X3.58Y-2.355
X3.83Y-2.255
X4.33Y-4.605
X4.58Y-4.505
X5.08Y-4.605
X5.33Y-4.505
X5.08Y-3.855
X5.33Y-3.755
X5.83Y-3.105
X6.08Y-3.005
X4.33Y-3.105
X4.58Y-3.005
X3.58Y-4.605
X3.83Y-4.505
X2.83Y-4.605
X3.08Y-4.505
X5.08Y-1.605
X5.33Y-1.505
X2.83Y-3.855
X3.08Y-3.755
X2.83Y-2.355
X3.08Y-2.255
X5.83Y-2.355
X6.08Y-2.255
X5.08Y-3.105
X5.33Y-3.005
X3.58Y-3.105
X3.83Y-3.005
X4.33Y-2.355
X4.58Y-2.255
X4.33Y-1.605
X4.58Y-1.505
X5.08Y-2.355
X5.33Y-2.255
X4.33Y-3.855
X4.58Y-3.755
T4
X3.48Y-2.905
X3.88Y-2.905
X4.23Y-2.155
X4.63Y-2.155
X4.23Y-1.405
X4.63Y-1.405
X4.98Y-2.155
X5.38Y-2.155
X4.23Y-3.655
X4.63Y-3.655
X2.73Y-1.405
X3.13Y-1.405
X5.73Y-1.405
X6.13Y-1.405
X5.73Y-4.405
X6.13Y-4.405
X3.48Y-3.655
X3.88Y-3.655
X5.73Y-3.655
X6.13Y-3.655
X3.48Y-1.405
X3.88Y-1.405
X2.73Y-2.905
X3.13Y-2.905
X3.48Y-2.155
X3.88Y-2.155
X4.23Y-4.405
X4.63Y-4.405
X4.98Y-4.405
X5.38Y-4.405
X4.98Y-3.655
X5.38Y-3.655
X5.73Y-2.905
X6.13Y-2.905
X4.23Y-2.905
X4.63Y-2.905
X3.48Y-4.405
X3.88Y-4.405
X2.73Y-4.405
X3.13Y-4.405
X4.98Y-1.405
X5.38Y-1.405
X2.73Y-3.655
X3.13Y-3.655
X2.73Y-2.155
X3.13Y-2.155
X5.73Y-2.155
X6.13Y-2.155
X4.98Y-2.905
X5.38Y-2.905
T5
X2.93Y-1.405
X5.93Y-1.405
X5.93Y-4.405
X3.68Y-3.655
X5.93Y-3.655
X3.68Y-1.405
X2.93Y-2.905
X3.68Y-2.155
X4.43Y-4.405
X5.18Y-4.405
X5.18Y-3.655
X5.93Y-2.905
X4.43Y-2.905
X3.68Y-4.405
X2.93Y-4.405
X5.18Y-1.405
X2.93Y-3.655
X2.93Y-2.155
X5.93Y-2.155
X5.18Y-2.905
X3.68Y-2.905
X4.43Y-2.155
X4.43Y-1.405
X5.18Y-2.155
X4.43Y-3.655
T0
M30
