G04 #@! TF.GenerationSoftware,KiCad,Pcbnew,5.0.2-bee76a0~70~ubuntu18.04.1*
G04 #@! TF.CreationDate,2020-03-10T02:05:27+09:00*
G04 #@! TF.ProjectId,suxen,73757865-6e2e-46b6-9963-61645f706362,rev?*
G04 #@! TF.SameCoordinates,Original*
G04 #@! TF.FileFunction,Legend,Bot*
G04 #@! TF.FilePolarity,Positive*
%FSLAX46Y46*%
G04 Gerber Fmt 4.6, Leading zero omitted, Abs format (unit mm)*
G04 Created by KiCad (PCBNEW 5.0.2-bee76a0~70~ubuntu18.04.1) date 2020年03月10日 02時05分27秒*
%MOMM*%
%LPD*%
G01*
G04 APERTURE LIST*
%ADD10C,0.200000*%
%ADD11C,0.150000*%
%ADD12R,1.902000X0.922000*%
%ADD13C,1.812000*%
%ADD14C,2.602000*%
%ADD15C,4.102000*%
%ADD16R,1.502000X1.502000*%
%ADD17C,1.502000*%
%ADD18R,1.702000X1.302000*%
%ADD19C,1.902000*%
G04 APERTURE END LIST*
D10*
X135518571Y-41957571D02*
X135575714Y-42014714D01*
X135747142Y-42071857D01*
X135861428Y-42071857D01*
X136032857Y-42014714D01*
X136147142Y-41900428D01*
X136204285Y-41786142D01*
X136261428Y-41557571D01*
X136261428Y-41386142D01*
X136204285Y-41157571D01*
X136147142Y-41043285D01*
X136032857Y-40929000D01*
X135861428Y-40871857D01*
X135747142Y-40871857D01*
X135575714Y-40929000D01*
X135518571Y-40986142D01*
X157175142Y-103590714D02*
X156260857Y-103590714D01*
X138125142Y-103590714D02*
X137210857Y-103590714D01*
X119075142Y-103590714D02*
X118160857Y-103590714D01*
X100025142Y-103590714D02*
X99110857Y-103590714D01*
X80975142Y-103590714D02*
X80060857Y-103590714D01*
X157175142Y-84540714D02*
X156260857Y-84540714D01*
X138125142Y-84540714D02*
X137210857Y-84540714D01*
X119075142Y-84540714D02*
X118160857Y-84540714D01*
X100025142Y-84540714D02*
X99110857Y-84540714D01*
X80975142Y-84540714D02*
X80060857Y-84540714D01*
X157175142Y-65490714D02*
X156260857Y-65490714D01*
X138125142Y-65490714D02*
X137210857Y-65490714D01*
X119075142Y-65490714D02*
X118160857Y-65490714D01*
X100025142Y-65490714D02*
X99110857Y-65490714D01*
X80975142Y-65490714D02*
X80060857Y-65490714D01*
X157175142Y-46440714D02*
X156260857Y-46440714D01*
X138125142Y-46440714D02*
X137210857Y-46440714D01*
X119075142Y-46440714D02*
X118160857Y-46440714D01*
X100025142Y-46440714D02*
X99110857Y-46440714D01*
X145364142Y-104352714D02*
X144449857Y-104352714D01*
X144907000Y-104809857D02*
X144907000Y-103895571D01*
X126314142Y-104352714D02*
X125399857Y-104352714D01*
X125857000Y-104809857D02*
X125857000Y-103895571D01*
X107264142Y-104352714D02*
X106349857Y-104352714D01*
X106807000Y-104809857D02*
X106807000Y-103895571D01*
X88214142Y-104352714D02*
X87299857Y-104352714D01*
X87757000Y-104809857D02*
X87757000Y-103895571D01*
X69164142Y-104352714D02*
X68249857Y-104352714D01*
X68707000Y-104809857D02*
X68707000Y-103895571D01*
X145364142Y-85302714D02*
X144449857Y-85302714D01*
X144907000Y-85759857D02*
X144907000Y-84845571D01*
X126314142Y-85302714D02*
X125399857Y-85302714D01*
X125857000Y-85759857D02*
X125857000Y-84845571D01*
X107264142Y-85302714D02*
X106349857Y-85302714D01*
X106807000Y-85759857D02*
X106807000Y-84845571D01*
X88214142Y-85302714D02*
X87299857Y-85302714D01*
X87757000Y-85759857D02*
X87757000Y-84845571D01*
X69164142Y-85302714D02*
X68249857Y-85302714D01*
X68707000Y-85759857D02*
X68707000Y-84845571D01*
X145364142Y-66252714D02*
X144449857Y-66252714D01*
X144907000Y-66709857D02*
X144907000Y-65795571D01*
X126314142Y-66252714D02*
X125399857Y-66252714D01*
X125857000Y-66709857D02*
X125857000Y-65795571D01*
X107264142Y-66252714D02*
X106349857Y-66252714D01*
X106807000Y-66709857D02*
X106807000Y-65795571D01*
X88214142Y-66252714D02*
X87299857Y-66252714D01*
X87757000Y-66709857D02*
X87757000Y-65795571D01*
X69164142Y-66252714D02*
X68249857Y-66252714D01*
X68707000Y-66709857D02*
X68707000Y-65795571D01*
X145364142Y-47202714D02*
X144449857Y-47202714D01*
X144907000Y-47659857D02*
X144907000Y-46745571D01*
X126314142Y-47202714D02*
X125399857Y-47202714D01*
X125857000Y-47659857D02*
X125857000Y-46745571D01*
X107264142Y-47202714D02*
X106349857Y-47202714D01*
X106807000Y-47659857D02*
X106807000Y-46745571D01*
X88214142Y-47202714D02*
X87299857Y-47202714D01*
X87757000Y-47659857D02*
X87757000Y-46745571D01*
X69164142Y-47202714D02*
X68249857Y-47202714D01*
X68707000Y-47659857D02*
X68707000Y-46745571D01*
X145364142Y-28152714D02*
X144449857Y-28152714D01*
X144907000Y-28609857D02*
X144907000Y-27695571D01*
X126314142Y-28152714D02*
X125399857Y-28152714D01*
X125857000Y-28609857D02*
X125857000Y-27695571D01*
X107264142Y-28152714D02*
X106349857Y-28152714D01*
X106807000Y-28609857D02*
X106807000Y-27695571D01*
X88214142Y-28152714D02*
X87299857Y-28152714D01*
X87757000Y-28609857D02*
X87757000Y-27695571D01*
X157279857Y-107349857D02*
X157279857Y-106149857D01*
X156994142Y-106149857D01*
X156822714Y-106207000D01*
X156708428Y-106321285D01*
X156651285Y-106435571D01*
X156594142Y-106664142D01*
X156594142Y-106835571D01*
X156651285Y-107064142D01*
X156708428Y-107178428D01*
X156822714Y-107292714D01*
X156994142Y-107349857D01*
X157279857Y-107349857D01*
X155851285Y-106149857D02*
X155622714Y-106149857D01*
X155508428Y-106207000D01*
X155394142Y-106321285D01*
X155337000Y-106549857D01*
X155337000Y-106949857D01*
X155394142Y-107178428D01*
X155508428Y-107292714D01*
X155622714Y-107349857D01*
X155851285Y-107349857D01*
X155965571Y-107292714D01*
X156079857Y-107178428D01*
X156137000Y-106949857D01*
X156137000Y-106549857D01*
X156079857Y-106321285D01*
X155965571Y-106207000D01*
X155851285Y-106149857D01*
X138229857Y-107349857D02*
X138229857Y-106149857D01*
X137944142Y-106149857D01*
X137772714Y-106207000D01*
X137658428Y-106321285D01*
X137601285Y-106435571D01*
X137544142Y-106664142D01*
X137544142Y-106835571D01*
X137601285Y-107064142D01*
X137658428Y-107178428D01*
X137772714Y-107292714D01*
X137944142Y-107349857D01*
X138229857Y-107349857D01*
X136801285Y-106149857D02*
X136572714Y-106149857D01*
X136458428Y-106207000D01*
X136344142Y-106321285D01*
X136287000Y-106549857D01*
X136287000Y-106949857D01*
X136344142Y-107178428D01*
X136458428Y-107292714D01*
X136572714Y-107349857D01*
X136801285Y-107349857D01*
X136915571Y-107292714D01*
X137029857Y-107178428D01*
X137087000Y-106949857D01*
X137087000Y-106549857D01*
X137029857Y-106321285D01*
X136915571Y-106207000D01*
X136801285Y-106149857D01*
X119179857Y-107349857D02*
X119179857Y-106149857D01*
X118894142Y-106149857D01*
X118722714Y-106207000D01*
X118608428Y-106321285D01*
X118551285Y-106435571D01*
X118494142Y-106664142D01*
X118494142Y-106835571D01*
X118551285Y-107064142D01*
X118608428Y-107178428D01*
X118722714Y-107292714D01*
X118894142Y-107349857D01*
X119179857Y-107349857D01*
X117751285Y-106149857D02*
X117522714Y-106149857D01*
X117408428Y-106207000D01*
X117294142Y-106321285D01*
X117237000Y-106549857D01*
X117237000Y-106949857D01*
X117294142Y-107178428D01*
X117408428Y-107292714D01*
X117522714Y-107349857D01*
X117751285Y-107349857D01*
X117865571Y-107292714D01*
X117979857Y-107178428D01*
X118037000Y-106949857D01*
X118037000Y-106549857D01*
X117979857Y-106321285D01*
X117865571Y-106207000D01*
X117751285Y-106149857D01*
X100129857Y-107349857D02*
X100129857Y-106149857D01*
X99844142Y-106149857D01*
X99672714Y-106207000D01*
X99558428Y-106321285D01*
X99501285Y-106435571D01*
X99444142Y-106664142D01*
X99444142Y-106835571D01*
X99501285Y-107064142D01*
X99558428Y-107178428D01*
X99672714Y-107292714D01*
X99844142Y-107349857D01*
X100129857Y-107349857D01*
X98701285Y-106149857D02*
X98472714Y-106149857D01*
X98358428Y-106207000D01*
X98244142Y-106321285D01*
X98187000Y-106549857D01*
X98187000Y-106949857D01*
X98244142Y-107178428D01*
X98358428Y-107292714D01*
X98472714Y-107349857D01*
X98701285Y-107349857D01*
X98815571Y-107292714D01*
X98929857Y-107178428D01*
X98987000Y-106949857D01*
X98987000Y-106549857D01*
X98929857Y-106321285D01*
X98815571Y-106207000D01*
X98701285Y-106149857D01*
X81079857Y-107349857D02*
X81079857Y-106149857D01*
X80794142Y-106149857D01*
X80622714Y-106207000D01*
X80508428Y-106321285D01*
X80451285Y-106435571D01*
X80394142Y-106664142D01*
X80394142Y-106835571D01*
X80451285Y-107064142D01*
X80508428Y-107178428D01*
X80622714Y-107292714D01*
X80794142Y-107349857D01*
X81079857Y-107349857D01*
X79651285Y-106149857D02*
X79422714Y-106149857D01*
X79308428Y-106207000D01*
X79194142Y-106321285D01*
X79137000Y-106549857D01*
X79137000Y-106949857D01*
X79194142Y-107178428D01*
X79308428Y-107292714D01*
X79422714Y-107349857D01*
X79651285Y-107349857D01*
X79765571Y-107292714D01*
X79879857Y-107178428D01*
X79937000Y-106949857D01*
X79937000Y-106549857D01*
X79879857Y-106321285D01*
X79765571Y-106207000D01*
X79651285Y-106149857D01*
X157025857Y-89569857D02*
X157025857Y-88369857D01*
X156740142Y-88369857D01*
X156568714Y-88427000D01*
X156454428Y-88541285D01*
X156397285Y-88655571D01*
X156340142Y-88884142D01*
X156340142Y-89055571D01*
X156397285Y-89284142D01*
X156454428Y-89398428D01*
X156568714Y-89512714D01*
X156740142Y-89569857D01*
X157025857Y-89569857D01*
X155597285Y-88369857D02*
X155368714Y-88369857D01*
X155254428Y-88427000D01*
X155140142Y-88541285D01*
X155083000Y-88769857D01*
X155083000Y-89169857D01*
X155140142Y-89398428D01*
X155254428Y-89512714D01*
X155368714Y-89569857D01*
X155597285Y-89569857D01*
X155711571Y-89512714D01*
X155825857Y-89398428D01*
X155883000Y-89169857D01*
X155883000Y-88769857D01*
X155825857Y-88541285D01*
X155711571Y-88427000D01*
X155597285Y-88369857D01*
X137975857Y-89569857D02*
X137975857Y-88369857D01*
X137690142Y-88369857D01*
X137518714Y-88427000D01*
X137404428Y-88541285D01*
X137347285Y-88655571D01*
X137290142Y-88884142D01*
X137290142Y-89055571D01*
X137347285Y-89284142D01*
X137404428Y-89398428D01*
X137518714Y-89512714D01*
X137690142Y-89569857D01*
X137975857Y-89569857D01*
X136547285Y-88369857D02*
X136318714Y-88369857D01*
X136204428Y-88427000D01*
X136090142Y-88541285D01*
X136033000Y-88769857D01*
X136033000Y-89169857D01*
X136090142Y-89398428D01*
X136204428Y-89512714D01*
X136318714Y-89569857D01*
X136547285Y-89569857D01*
X136661571Y-89512714D01*
X136775857Y-89398428D01*
X136833000Y-89169857D01*
X136833000Y-88769857D01*
X136775857Y-88541285D01*
X136661571Y-88427000D01*
X136547285Y-88369857D01*
X118925857Y-89569857D02*
X118925857Y-88369857D01*
X118640142Y-88369857D01*
X118468714Y-88427000D01*
X118354428Y-88541285D01*
X118297285Y-88655571D01*
X118240142Y-88884142D01*
X118240142Y-89055571D01*
X118297285Y-89284142D01*
X118354428Y-89398428D01*
X118468714Y-89512714D01*
X118640142Y-89569857D01*
X118925857Y-89569857D01*
X117497285Y-88369857D02*
X117268714Y-88369857D01*
X117154428Y-88427000D01*
X117040142Y-88541285D01*
X116983000Y-88769857D01*
X116983000Y-89169857D01*
X117040142Y-89398428D01*
X117154428Y-89512714D01*
X117268714Y-89569857D01*
X117497285Y-89569857D01*
X117611571Y-89512714D01*
X117725857Y-89398428D01*
X117783000Y-89169857D01*
X117783000Y-88769857D01*
X117725857Y-88541285D01*
X117611571Y-88427000D01*
X117497285Y-88369857D01*
X99875857Y-89569857D02*
X99875857Y-88369857D01*
X99590142Y-88369857D01*
X99418714Y-88427000D01*
X99304428Y-88541285D01*
X99247285Y-88655571D01*
X99190142Y-88884142D01*
X99190142Y-89055571D01*
X99247285Y-89284142D01*
X99304428Y-89398428D01*
X99418714Y-89512714D01*
X99590142Y-89569857D01*
X99875857Y-89569857D01*
X98447285Y-88369857D02*
X98218714Y-88369857D01*
X98104428Y-88427000D01*
X97990142Y-88541285D01*
X97933000Y-88769857D01*
X97933000Y-89169857D01*
X97990142Y-89398428D01*
X98104428Y-89512714D01*
X98218714Y-89569857D01*
X98447285Y-89569857D01*
X98561571Y-89512714D01*
X98675857Y-89398428D01*
X98733000Y-89169857D01*
X98733000Y-88769857D01*
X98675857Y-88541285D01*
X98561571Y-88427000D01*
X98447285Y-88369857D01*
X80825857Y-89569857D02*
X80825857Y-88369857D01*
X80540142Y-88369857D01*
X80368714Y-88427000D01*
X80254428Y-88541285D01*
X80197285Y-88655571D01*
X80140142Y-88884142D01*
X80140142Y-89055571D01*
X80197285Y-89284142D01*
X80254428Y-89398428D01*
X80368714Y-89512714D01*
X80540142Y-89569857D01*
X80825857Y-89569857D01*
X79397285Y-88369857D02*
X79168714Y-88369857D01*
X79054428Y-88427000D01*
X78940142Y-88541285D01*
X78883000Y-88769857D01*
X78883000Y-89169857D01*
X78940142Y-89398428D01*
X79054428Y-89512714D01*
X79168714Y-89569857D01*
X79397285Y-89569857D01*
X79511571Y-89512714D01*
X79625857Y-89398428D01*
X79683000Y-89169857D01*
X79683000Y-88769857D01*
X79625857Y-88541285D01*
X79511571Y-88427000D01*
X79397285Y-88369857D01*
X157025857Y-70519857D02*
X157025857Y-69319857D01*
X156740142Y-69319857D01*
X156568714Y-69377000D01*
X156454428Y-69491285D01*
X156397285Y-69605571D01*
X156340142Y-69834142D01*
X156340142Y-70005571D01*
X156397285Y-70234142D01*
X156454428Y-70348428D01*
X156568714Y-70462714D01*
X156740142Y-70519857D01*
X157025857Y-70519857D01*
X155597285Y-69319857D02*
X155368714Y-69319857D01*
X155254428Y-69377000D01*
X155140142Y-69491285D01*
X155083000Y-69719857D01*
X155083000Y-70119857D01*
X155140142Y-70348428D01*
X155254428Y-70462714D01*
X155368714Y-70519857D01*
X155597285Y-70519857D01*
X155711571Y-70462714D01*
X155825857Y-70348428D01*
X155883000Y-70119857D01*
X155883000Y-69719857D01*
X155825857Y-69491285D01*
X155711571Y-69377000D01*
X155597285Y-69319857D01*
X137975857Y-70519857D02*
X137975857Y-69319857D01*
X137690142Y-69319857D01*
X137518714Y-69377000D01*
X137404428Y-69491285D01*
X137347285Y-69605571D01*
X137290142Y-69834142D01*
X137290142Y-70005571D01*
X137347285Y-70234142D01*
X137404428Y-70348428D01*
X137518714Y-70462714D01*
X137690142Y-70519857D01*
X137975857Y-70519857D01*
X136547285Y-69319857D02*
X136318714Y-69319857D01*
X136204428Y-69377000D01*
X136090142Y-69491285D01*
X136033000Y-69719857D01*
X136033000Y-70119857D01*
X136090142Y-70348428D01*
X136204428Y-70462714D01*
X136318714Y-70519857D01*
X136547285Y-70519857D01*
X136661571Y-70462714D01*
X136775857Y-70348428D01*
X136833000Y-70119857D01*
X136833000Y-69719857D01*
X136775857Y-69491285D01*
X136661571Y-69377000D01*
X136547285Y-69319857D01*
X118925857Y-70519857D02*
X118925857Y-69319857D01*
X118640142Y-69319857D01*
X118468714Y-69377000D01*
X118354428Y-69491285D01*
X118297285Y-69605571D01*
X118240142Y-69834142D01*
X118240142Y-70005571D01*
X118297285Y-70234142D01*
X118354428Y-70348428D01*
X118468714Y-70462714D01*
X118640142Y-70519857D01*
X118925857Y-70519857D01*
X117497285Y-69319857D02*
X117268714Y-69319857D01*
X117154428Y-69377000D01*
X117040142Y-69491285D01*
X116983000Y-69719857D01*
X116983000Y-70119857D01*
X117040142Y-70348428D01*
X117154428Y-70462714D01*
X117268714Y-70519857D01*
X117497285Y-70519857D01*
X117611571Y-70462714D01*
X117725857Y-70348428D01*
X117783000Y-70119857D01*
X117783000Y-69719857D01*
X117725857Y-69491285D01*
X117611571Y-69377000D01*
X117497285Y-69319857D01*
X99875857Y-70519857D02*
X99875857Y-69319857D01*
X99590142Y-69319857D01*
X99418714Y-69377000D01*
X99304428Y-69491285D01*
X99247285Y-69605571D01*
X99190142Y-69834142D01*
X99190142Y-70005571D01*
X99247285Y-70234142D01*
X99304428Y-70348428D01*
X99418714Y-70462714D01*
X99590142Y-70519857D01*
X99875857Y-70519857D01*
X98447285Y-69319857D02*
X98218714Y-69319857D01*
X98104428Y-69377000D01*
X97990142Y-69491285D01*
X97933000Y-69719857D01*
X97933000Y-70119857D01*
X97990142Y-70348428D01*
X98104428Y-70462714D01*
X98218714Y-70519857D01*
X98447285Y-70519857D01*
X98561571Y-70462714D01*
X98675857Y-70348428D01*
X98733000Y-70119857D01*
X98733000Y-69719857D01*
X98675857Y-69491285D01*
X98561571Y-69377000D01*
X98447285Y-69319857D01*
X80825857Y-70519857D02*
X80825857Y-69319857D01*
X80540142Y-69319857D01*
X80368714Y-69377000D01*
X80254428Y-69491285D01*
X80197285Y-69605571D01*
X80140142Y-69834142D01*
X80140142Y-70005571D01*
X80197285Y-70234142D01*
X80254428Y-70348428D01*
X80368714Y-70462714D01*
X80540142Y-70519857D01*
X80825857Y-70519857D01*
X79397285Y-69319857D02*
X79168714Y-69319857D01*
X79054428Y-69377000D01*
X78940142Y-69491285D01*
X78883000Y-69719857D01*
X78883000Y-70119857D01*
X78940142Y-70348428D01*
X79054428Y-70462714D01*
X79168714Y-70519857D01*
X79397285Y-70519857D01*
X79511571Y-70462714D01*
X79625857Y-70348428D01*
X79683000Y-70119857D01*
X79683000Y-69719857D01*
X79625857Y-69491285D01*
X79511571Y-69377000D01*
X79397285Y-69319857D01*
X157025857Y-51469857D02*
X157025857Y-50269857D01*
X156740142Y-50269857D01*
X156568714Y-50327000D01*
X156454428Y-50441285D01*
X156397285Y-50555571D01*
X156340142Y-50784142D01*
X156340142Y-50955571D01*
X156397285Y-51184142D01*
X156454428Y-51298428D01*
X156568714Y-51412714D01*
X156740142Y-51469857D01*
X157025857Y-51469857D01*
X155597285Y-50269857D02*
X155368714Y-50269857D01*
X155254428Y-50327000D01*
X155140142Y-50441285D01*
X155083000Y-50669857D01*
X155083000Y-51069857D01*
X155140142Y-51298428D01*
X155254428Y-51412714D01*
X155368714Y-51469857D01*
X155597285Y-51469857D01*
X155711571Y-51412714D01*
X155825857Y-51298428D01*
X155883000Y-51069857D01*
X155883000Y-50669857D01*
X155825857Y-50441285D01*
X155711571Y-50327000D01*
X155597285Y-50269857D01*
X137975857Y-51469857D02*
X137975857Y-50269857D01*
X137690142Y-50269857D01*
X137518714Y-50327000D01*
X137404428Y-50441285D01*
X137347285Y-50555571D01*
X137290142Y-50784142D01*
X137290142Y-50955571D01*
X137347285Y-51184142D01*
X137404428Y-51298428D01*
X137518714Y-51412714D01*
X137690142Y-51469857D01*
X137975857Y-51469857D01*
X136547285Y-50269857D02*
X136318714Y-50269857D01*
X136204428Y-50327000D01*
X136090142Y-50441285D01*
X136033000Y-50669857D01*
X136033000Y-51069857D01*
X136090142Y-51298428D01*
X136204428Y-51412714D01*
X136318714Y-51469857D01*
X136547285Y-51469857D01*
X136661571Y-51412714D01*
X136775857Y-51298428D01*
X136833000Y-51069857D01*
X136833000Y-50669857D01*
X136775857Y-50441285D01*
X136661571Y-50327000D01*
X136547285Y-50269857D01*
X118925857Y-51469857D02*
X118925857Y-50269857D01*
X118640142Y-50269857D01*
X118468714Y-50327000D01*
X118354428Y-50441285D01*
X118297285Y-50555571D01*
X118240142Y-50784142D01*
X118240142Y-50955571D01*
X118297285Y-51184142D01*
X118354428Y-51298428D01*
X118468714Y-51412714D01*
X118640142Y-51469857D01*
X118925857Y-51469857D01*
X117497285Y-50269857D02*
X117268714Y-50269857D01*
X117154428Y-50327000D01*
X117040142Y-50441285D01*
X116983000Y-50669857D01*
X116983000Y-51069857D01*
X117040142Y-51298428D01*
X117154428Y-51412714D01*
X117268714Y-51469857D01*
X117497285Y-51469857D01*
X117611571Y-51412714D01*
X117725857Y-51298428D01*
X117783000Y-51069857D01*
X117783000Y-50669857D01*
X117725857Y-50441285D01*
X117611571Y-50327000D01*
X117497285Y-50269857D01*
X99875857Y-51469857D02*
X99875857Y-50269857D01*
X99590142Y-50269857D01*
X99418714Y-50327000D01*
X99304428Y-50441285D01*
X99247285Y-50555571D01*
X99190142Y-50784142D01*
X99190142Y-50955571D01*
X99247285Y-51184142D01*
X99304428Y-51298428D01*
X99418714Y-51412714D01*
X99590142Y-51469857D01*
X99875857Y-51469857D01*
X98447285Y-50269857D02*
X98218714Y-50269857D01*
X98104428Y-50327000D01*
X97990142Y-50441285D01*
X97933000Y-50669857D01*
X97933000Y-51069857D01*
X97990142Y-51298428D01*
X98104428Y-51412714D01*
X98218714Y-51469857D01*
X98447285Y-51469857D01*
X98561571Y-51412714D01*
X98675857Y-51298428D01*
X98733000Y-51069857D01*
X98733000Y-50669857D01*
X98675857Y-50441285D01*
X98561571Y-50327000D01*
X98447285Y-50269857D01*
X80825857Y-51469857D02*
X80825857Y-50269857D01*
X80540142Y-50269857D01*
X80368714Y-50327000D01*
X80254428Y-50441285D01*
X80197285Y-50555571D01*
X80140142Y-50784142D01*
X80140142Y-50955571D01*
X80197285Y-51184142D01*
X80254428Y-51298428D01*
X80368714Y-51412714D01*
X80540142Y-51469857D01*
X80825857Y-51469857D01*
X79397285Y-50269857D02*
X79168714Y-50269857D01*
X79054428Y-50327000D01*
X78940142Y-50441285D01*
X78883000Y-50669857D01*
X78883000Y-51069857D01*
X78940142Y-51298428D01*
X79054428Y-51412714D01*
X79168714Y-51469857D01*
X79397285Y-51469857D01*
X79511571Y-51412714D01*
X79625857Y-51298428D01*
X79683000Y-51069857D01*
X79683000Y-50669857D01*
X79625857Y-50441285D01*
X79511571Y-50327000D01*
X79397285Y-50269857D01*
X157025857Y-32419857D02*
X157025857Y-31219857D01*
X156740142Y-31219857D01*
X156568714Y-31277000D01*
X156454428Y-31391285D01*
X156397285Y-31505571D01*
X156340142Y-31734142D01*
X156340142Y-31905571D01*
X156397285Y-32134142D01*
X156454428Y-32248428D01*
X156568714Y-32362714D01*
X156740142Y-32419857D01*
X157025857Y-32419857D01*
X155597285Y-31219857D02*
X155368714Y-31219857D01*
X155254428Y-31277000D01*
X155140142Y-31391285D01*
X155083000Y-31619857D01*
X155083000Y-32019857D01*
X155140142Y-32248428D01*
X155254428Y-32362714D01*
X155368714Y-32419857D01*
X155597285Y-32419857D01*
X155711571Y-32362714D01*
X155825857Y-32248428D01*
X155883000Y-32019857D01*
X155883000Y-31619857D01*
X155825857Y-31391285D01*
X155711571Y-31277000D01*
X155597285Y-31219857D01*
X137975857Y-32419857D02*
X137975857Y-31219857D01*
X137690142Y-31219857D01*
X137518714Y-31277000D01*
X137404428Y-31391285D01*
X137347285Y-31505571D01*
X137290142Y-31734142D01*
X137290142Y-31905571D01*
X137347285Y-32134142D01*
X137404428Y-32248428D01*
X137518714Y-32362714D01*
X137690142Y-32419857D01*
X137975857Y-32419857D01*
X136547285Y-31219857D02*
X136318714Y-31219857D01*
X136204428Y-31277000D01*
X136090142Y-31391285D01*
X136033000Y-31619857D01*
X136033000Y-32019857D01*
X136090142Y-32248428D01*
X136204428Y-32362714D01*
X136318714Y-32419857D01*
X136547285Y-32419857D01*
X136661571Y-32362714D01*
X136775857Y-32248428D01*
X136833000Y-32019857D01*
X136833000Y-31619857D01*
X136775857Y-31391285D01*
X136661571Y-31277000D01*
X136547285Y-31219857D01*
X118925857Y-32419857D02*
X118925857Y-31219857D01*
X118640142Y-31219857D01*
X118468714Y-31277000D01*
X118354428Y-31391285D01*
X118297285Y-31505571D01*
X118240142Y-31734142D01*
X118240142Y-31905571D01*
X118297285Y-32134142D01*
X118354428Y-32248428D01*
X118468714Y-32362714D01*
X118640142Y-32419857D01*
X118925857Y-32419857D01*
X117497285Y-31219857D02*
X117268714Y-31219857D01*
X117154428Y-31277000D01*
X117040142Y-31391285D01*
X116983000Y-31619857D01*
X116983000Y-32019857D01*
X117040142Y-32248428D01*
X117154428Y-32362714D01*
X117268714Y-32419857D01*
X117497285Y-32419857D01*
X117611571Y-32362714D01*
X117725857Y-32248428D01*
X117783000Y-32019857D01*
X117783000Y-31619857D01*
X117725857Y-31391285D01*
X117611571Y-31277000D01*
X117497285Y-31219857D01*
X99875857Y-32419857D02*
X99875857Y-31219857D01*
X99590142Y-31219857D01*
X99418714Y-31277000D01*
X99304428Y-31391285D01*
X99247285Y-31505571D01*
X99190142Y-31734142D01*
X99190142Y-31905571D01*
X99247285Y-32134142D01*
X99304428Y-32248428D01*
X99418714Y-32362714D01*
X99590142Y-32419857D01*
X99875857Y-32419857D01*
X98447285Y-31219857D02*
X98218714Y-31219857D01*
X98104428Y-31277000D01*
X97990142Y-31391285D01*
X97933000Y-31619857D01*
X97933000Y-32019857D01*
X97990142Y-32248428D01*
X98104428Y-32362714D01*
X98218714Y-32419857D01*
X98447285Y-32419857D01*
X98561571Y-32362714D01*
X98675857Y-32248428D01*
X98733000Y-32019857D01*
X98733000Y-31619857D01*
X98675857Y-31391285D01*
X98561571Y-31277000D01*
X98447285Y-31219857D01*
X145380000Y-108619857D02*
X145380000Y-107419857D01*
X145094285Y-107419857D01*
X144922857Y-107477000D01*
X144808571Y-107591285D01*
X144751428Y-107705571D01*
X144694285Y-107934142D01*
X144694285Y-108105571D01*
X144751428Y-108334142D01*
X144808571Y-108448428D01*
X144922857Y-108562714D01*
X145094285Y-108619857D01*
X145380000Y-108619857D01*
X144180000Y-108619857D02*
X144180000Y-107419857D01*
X126330000Y-108619857D02*
X126330000Y-107419857D01*
X126044285Y-107419857D01*
X125872857Y-107477000D01*
X125758571Y-107591285D01*
X125701428Y-107705571D01*
X125644285Y-107934142D01*
X125644285Y-108105571D01*
X125701428Y-108334142D01*
X125758571Y-108448428D01*
X125872857Y-108562714D01*
X126044285Y-108619857D01*
X126330000Y-108619857D01*
X125130000Y-108619857D02*
X125130000Y-107419857D01*
X107280000Y-108619857D02*
X107280000Y-107419857D01*
X106994285Y-107419857D01*
X106822857Y-107477000D01*
X106708571Y-107591285D01*
X106651428Y-107705571D01*
X106594285Y-107934142D01*
X106594285Y-108105571D01*
X106651428Y-108334142D01*
X106708571Y-108448428D01*
X106822857Y-108562714D01*
X106994285Y-108619857D01*
X107280000Y-108619857D01*
X106080000Y-108619857D02*
X106080000Y-107419857D01*
X88230000Y-108619857D02*
X88230000Y-107419857D01*
X87944285Y-107419857D01*
X87772857Y-107477000D01*
X87658571Y-107591285D01*
X87601428Y-107705571D01*
X87544285Y-107934142D01*
X87544285Y-108105571D01*
X87601428Y-108334142D01*
X87658571Y-108448428D01*
X87772857Y-108562714D01*
X87944285Y-108619857D01*
X88230000Y-108619857D01*
X87030000Y-108619857D02*
X87030000Y-107419857D01*
X69180000Y-108619857D02*
X69180000Y-107419857D01*
X68894285Y-107419857D01*
X68722857Y-107477000D01*
X68608571Y-107591285D01*
X68551428Y-107705571D01*
X68494285Y-107934142D01*
X68494285Y-108105571D01*
X68551428Y-108334142D01*
X68608571Y-108448428D01*
X68722857Y-108562714D01*
X68894285Y-108619857D01*
X69180000Y-108619857D01*
X67980000Y-108619857D02*
X67980000Y-107419857D01*
X145380000Y-89569857D02*
X145380000Y-88369857D01*
X145094285Y-88369857D01*
X144922857Y-88427000D01*
X144808571Y-88541285D01*
X144751428Y-88655571D01*
X144694285Y-88884142D01*
X144694285Y-89055571D01*
X144751428Y-89284142D01*
X144808571Y-89398428D01*
X144922857Y-89512714D01*
X145094285Y-89569857D01*
X145380000Y-89569857D01*
X144180000Y-89569857D02*
X144180000Y-88369857D01*
X126330000Y-89569857D02*
X126330000Y-88369857D01*
X126044285Y-88369857D01*
X125872857Y-88427000D01*
X125758571Y-88541285D01*
X125701428Y-88655571D01*
X125644285Y-88884142D01*
X125644285Y-89055571D01*
X125701428Y-89284142D01*
X125758571Y-89398428D01*
X125872857Y-89512714D01*
X126044285Y-89569857D01*
X126330000Y-89569857D01*
X125130000Y-89569857D02*
X125130000Y-88369857D01*
X107280000Y-89569857D02*
X107280000Y-88369857D01*
X106994285Y-88369857D01*
X106822857Y-88427000D01*
X106708571Y-88541285D01*
X106651428Y-88655571D01*
X106594285Y-88884142D01*
X106594285Y-89055571D01*
X106651428Y-89284142D01*
X106708571Y-89398428D01*
X106822857Y-89512714D01*
X106994285Y-89569857D01*
X107280000Y-89569857D01*
X106080000Y-89569857D02*
X106080000Y-88369857D01*
X88230000Y-89569857D02*
X88230000Y-88369857D01*
X87944285Y-88369857D01*
X87772857Y-88427000D01*
X87658571Y-88541285D01*
X87601428Y-88655571D01*
X87544285Y-88884142D01*
X87544285Y-89055571D01*
X87601428Y-89284142D01*
X87658571Y-89398428D01*
X87772857Y-89512714D01*
X87944285Y-89569857D01*
X88230000Y-89569857D01*
X87030000Y-89569857D02*
X87030000Y-88369857D01*
X69180000Y-89569857D02*
X69180000Y-88369857D01*
X68894285Y-88369857D01*
X68722857Y-88427000D01*
X68608571Y-88541285D01*
X68551428Y-88655571D01*
X68494285Y-88884142D01*
X68494285Y-89055571D01*
X68551428Y-89284142D01*
X68608571Y-89398428D01*
X68722857Y-89512714D01*
X68894285Y-89569857D01*
X69180000Y-89569857D01*
X67980000Y-89569857D02*
X67980000Y-88369857D01*
X145380000Y-70519857D02*
X145380000Y-69319857D01*
X145094285Y-69319857D01*
X144922857Y-69377000D01*
X144808571Y-69491285D01*
X144751428Y-69605571D01*
X144694285Y-69834142D01*
X144694285Y-70005571D01*
X144751428Y-70234142D01*
X144808571Y-70348428D01*
X144922857Y-70462714D01*
X145094285Y-70519857D01*
X145380000Y-70519857D01*
X144180000Y-70519857D02*
X144180000Y-69319857D01*
X126330000Y-70519857D02*
X126330000Y-69319857D01*
X126044285Y-69319857D01*
X125872857Y-69377000D01*
X125758571Y-69491285D01*
X125701428Y-69605571D01*
X125644285Y-69834142D01*
X125644285Y-70005571D01*
X125701428Y-70234142D01*
X125758571Y-70348428D01*
X125872857Y-70462714D01*
X126044285Y-70519857D01*
X126330000Y-70519857D01*
X125130000Y-70519857D02*
X125130000Y-69319857D01*
X107280000Y-70519857D02*
X107280000Y-69319857D01*
X106994285Y-69319857D01*
X106822857Y-69377000D01*
X106708571Y-69491285D01*
X106651428Y-69605571D01*
X106594285Y-69834142D01*
X106594285Y-70005571D01*
X106651428Y-70234142D01*
X106708571Y-70348428D01*
X106822857Y-70462714D01*
X106994285Y-70519857D01*
X107280000Y-70519857D01*
X106080000Y-70519857D02*
X106080000Y-69319857D01*
X88230000Y-70519857D02*
X88230000Y-69319857D01*
X87944285Y-69319857D01*
X87772857Y-69377000D01*
X87658571Y-69491285D01*
X87601428Y-69605571D01*
X87544285Y-69834142D01*
X87544285Y-70005571D01*
X87601428Y-70234142D01*
X87658571Y-70348428D01*
X87772857Y-70462714D01*
X87944285Y-70519857D01*
X88230000Y-70519857D01*
X87030000Y-70519857D02*
X87030000Y-69319857D01*
X69180000Y-70519857D02*
X69180000Y-69319857D01*
X68894285Y-69319857D01*
X68722857Y-69377000D01*
X68608571Y-69491285D01*
X68551428Y-69605571D01*
X68494285Y-69834142D01*
X68494285Y-70005571D01*
X68551428Y-70234142D01*
X68608571Y-70348428D01*
X68722857Y-70462714D01*
X68894285Y-70519857D01*
X69180000Y-70519857D01*
X67980000Y-70519857D02*
X67980000Y-69319857D01*
X145380000Y-51469857D02*
X145380000Y-50269857D01*
X145094285Y-50269857D01*
X144922857Y-50327000D01*
X144808571Y-50441285D01*
X144751428Y-50555571D01*
X144694285Y-50784142D01*
X144694285Y-50955571D01*
X144751428Y-51184142D01*
X144808571Y-51298428D01*
X144922857Y-51412714D01*
X145094285Y-51469857D01*
X145380000Y-51469857D01*
X144180000Y-51469857D02*
X144180000Y-50269857D01*
X126330000Y-51469857D02*
X126330000Y-50269857D01*
X126044285Y-50269857D01*
X125872857Y-50327000D01*
X125758571Y-50441285D01*
X125701428Y-50555571D01*
X125644285Y-50784142D01*
X125644285Y-50955571D01*
X125701428Y-51184142D01*
X125758571Y-51298428D01*
X125872857Y-51412714D01*
X126044285Y-51469857D01*
X126330000Y-51469857D01*
X125130000Y-51469857D02*
X125130000Y-50269857D01*
X107280000Y-51469857D02*
X107280000Y-50269857D01*
X106994285Y-50269857D01*
X106822857Y-50327000D01*
X106708571Y-50441285D01*
X106651428Y-50555571D01*
X106594285Y-50784142D01*
X106594285Y-50955571D01*
X106651428Y-51184142D01*
X106708571Y-51298428D01*
X106822857Y-51412714D01*
X106994285Y-51469857D01*
X107280000Y-51469857D01*
X106080000Y-51469857D02*
X106080000Y-50269857D01*
X88230000Y-51469857D02*
X88230000Y-50269857D01*
X87944285Y-50269857D01*
X87772857Y-50327000D01*
X87658571Y-50441285D01*
X87601428Y-50555571D01*
X87544285Y-50784142D01*
X87544285Y-50955571D01*
X87601428Y-51184142D01*
X87658571Y-51298428D01*
X87772857Y-51412714D01*
X87944285Y-51469857D01*
X88230000Y-51469857D01*
X87030000Y-51469857D02*
X87030000Y-50269857D01*
X69180000Y-51469857D02*
X69180000Y-50269857D01*
X68894285Y-50269857D01*
X68722857Y-50327000D01*
X68608571Y-50441285D01*
X68551428Y-50555571D01*
X68494285Y-50784142D01*
X68494285Y-50955571D01*
X68551428Y-51184142D01*
X68608571Y-51298428D01*
X68722857Y-51412714D01*
X68894285Y-51469857D01*
X69180000Y-51469857D01*
X67980000Y-51469857D02*
X67980000Y-50269857D01*
X145380000Y-32419857D02*
X145380000Y-31219857D01*
X145094285Y-31219857D01*
X144922857Y-31277000D01*
X144808571Y-31391285D01*
X144751428Y-31505571D01*
X144694285Y-31734142D01*
X144694285Y-31905571D01*
X144751428Y-32134142D01*
X144808571Y-32248428D01*
X144922857Y-32362714D01*
X145094285Y-32419857D01*
X145380000Y-32419857D01*
X144180000Y-32419857D02*
X144180000Y-31219857D01*
X126330000Y-32419857D02*
X126330000Y-31219857D01*
X126044285Y-31219857D01*
X125872857Y-31277000D01*
X125758571Y-31391285D01*
X125701428Y-31505571D01*
X125644285Y-31734142D01*
X125644285Y-31905571D01*
X125701428Y-32134142D01*
X125758571Y-32248428D01*
X125872857Y-32362714D01*
X126044285Y-32419857D01*
X126330000Y-32419857D01*
X125130000Y-32419857D02*
X125130000Y-31219857D01*
X107280000Y-32419857D02*
X107280000Y-31219857D01*
X106994285Y-31219857D01*
X106822857Y-31277000D01*
X106708571Y-31391285D01*
X106651428Y-31505571D01*
X106594285Y-31734142D01*
X106594285Y-31905571D01*
X106651428Y-32134142D01*
X106708571Y-32248428D01*
X106822857Y-32362714D01*
X106994285Y-32419857D01*
X107280000Y-32419857D01*
X106080000Y-32419857D02*
X106080000Y-31219857D01*
X88230000Y-32419857D02*
X88230000Y-31219857D01*
X87944285Y-31219857D01*
X87772857Y-31277000D01*
X87658571Y-31391285D01*
X87601428Y-31505571D01*
X87544285Y-31734142D01*
X87544285Y-31905571D01*
X87601428Y-32134142D01*
X87658571Y-32248428D01*
X87772857Y-32362714D01*
X87944285Y-32419857D01*
X88230000Y-32419857D01*
X87030000Y-32419857D02*
X87030000Y-31219857D01*
X157064000Y-116493857D02*
X157064000Y-115293857D01*
X156778285Y-115293857D01*
X156606857Y-115351000D01*
X156492571Y-115465285D01*
X156435428Y-115579571D01*
X156378285Y-115808142D01*
X156378285Y-115979571D01*
X156435428Y-116208142D01*
X156492571Y-116322428D01*
X156606857Y-116436714D01*
X156778285Y-116493857D01*
X157064000Y-116493857D01*
X155864000Y-116493857D02*
X155864000Y-115293857D01*
X138014000Y-116493857D02*
X138014000Y-115293857D01*
X137728285Y-115293857D01*
X137556857Y-115351000D01*
X137442571Y-115465285D01*
X137385428Y-115579571D01*
X137328285Y-115808142D01*
X137328285Y-115979571D01*
X137385428Y-116208142D01*
X137442571Y-116322428D01*
X137556857Y-116436714D01*
X137728285Y-116493857D01*
X138014000Y-116493857D01*
X136814000Y-116493857D02*
X136814000Y-115293857D01*
X118964000Y-116493857D02*
X118964000Y-115293857D01*
X118678285Y-115293857D01*
X118506857Y-115351000D01*
X118392571Y-115465285D01*
X118335428Y-115579571D01*
X118278285Y-115808142D01*
X118278285Y-115979571D01*
X118335428Y-116208142D01*
X118392571Y-116322428D01*
X118506857Y-116436714D01*
X118678285Y-116493857D01*
X118964000Y-116493857D01*
X117764000Y-116493857D02*
X117764000Y-115293857D01*
X99914000Y-116493857D02*
X99914000Y-115293857D01*
X99628285Y-115293857D01*
X99456857Y-115351000D01*
X99342571Y-115465285D01*
X99285428Y-115579571D01*
X99228285Y-115808142D01*
X99228285Y-115979571D01*
X99285428Y-116208142D01*
X99342571Y-116322428D01*
X99456857Y-116436714D01*
X99628285Y-116493857D01*
X99914000Y-116493857D01*
X98714000Y-116493857D02*
X98714000Y-115293857D01*
X80864000Y-116493857D02*
X80864000Y-115293857D01*
X80578285Y-115293857D01*
X80406857Y-115351000D01*
X80292571Y-115465285D01*
X80235428Y-115579571D01*
X80178285Y-115808142D01*
X80178285Y-115979571D01*
X80235428Y-116208142D01*
X80292571Y-116322428D01*
X80406857Y-116436714D01*
X80578285Y-116493857D01*
X80864000Y-116493857D01*
X79664000Y-116493857D02*
X79664000Y-115293857D01*
X157064000Y-97443857D02*
X157064000Y-96243857D01*
X156778285Y-96243857D01*
X156606857Y-96301000D01*
X156492571Y-96415285D01*
X156435428Y-96529571D01*
X156378285Y-96758142D01*
X156378285Y-96929571D01*
X156435428Y-97158142D01*
X156492571Y-97272428D01*
X156606857Y-97386714D01*
X156778285Y-97443857D01*
X157064000Y-97443857D01*
X155864000Y-97443857D02*
X155864000Y-96243857D01*
X138014000Y-97443857D02*
X138014000Y-96243857D01*
X137728285Y-96243857D01*
X137556857Y-96301000D01*
X137442571Y-96415285D01*
X137385428Y-96529571D01*
X137328285Y-96758142D01*
X137328285Y-96929571D01*
X137385428Y-97158142D01*
X137442571Y-97272428D01*
X137556857Y-97386714D01*
X137728285Y-97443857D01*
X138014000Y-97443857D01*
X136814000Y-97443857D02*
X136814000Y-96243857D01*
X118964000Y-97443857D02*
X118964000Y-96243857D01*
X118678285Y-96243857D01*
X118506857Y-96301000D01*
X118392571Y-96415285D01*
X118335428Y-96529571D01*
X118278285Y-96758142D01*
X118278285Y-96929571D01*
X118335428Y-97158142D01*
X118392571Y-97272428D01*
X118506857Y-97386714D01*
X118678285Y-97443857D01*
X118964000Y-97443857D01*
X117764000Y-97443857D02*
X117764000Y-96243857D01*
X99914000Y-97443857D02*
X99914000Y-96243857D01*
X99628285Y-96243857D01*
X99456857Y-96301000D01*
X99342571Y-96415285D01*
X99285428Y-96529571D01*
X99228285Y-96758142D01*
X99228285Y-96929571D01*
X99285428Y-97158142D01*
X99342571Y-97272428D01*
X99456857Y-97386714D01*
X99628285Y-97443857D01*
X99914000Y-97443857D01*
X98714000Y-97443857D02*
X98714000Y-96243857D01*
X80864000Y-97443857D02*
X80864000Y-96243857D01*
X80578285Y-96243857D01*
X80406857Y-96301000D01*
X80292571Y-96415285D01*
X80235428Y-96529571D01*
X80178285Y-96758142D01*
X80178285Y-96929571D01*
X80235428Y-97158142D01*
X80292571Y-97272428D01*
X80406857Y-97386714D01*
X80578285Y-97443857D01*
X80864000Y-97443857D01*
X79664000Y-97443857D02*
X79664000Y-96243857D01*
X157064000Y-78393857D02*
X157064000Y-77193857D01*
X156778285Y-77193857D01*
X156606857Y-77251000D01*
X156492571Y-77365285D01*
X156435428Y-77479571D01*
X156378285Y-77708142D01*
X156378285Y-77879571D01*
X156435428Y-78108142D01*
X156492571Y-78222428D01*
X156606857Y-78336714D01*
X156778285Y-78393857D01*
X157064000Y-78393857D01*
X155864000Y-78393857D02*
X155864000Y-77193857D01*
X138014000Y-78393857D02*
X138014000Y-77193857D01*
X137728285Y-77193857D01*
X137556857Y-77251000D01*
X137442571Y-77365285D01*
X137385428Y-77479571D01*
X137328285Y-77708142D01*
X137328285Y-77879571D01*
X137385428Y-78108142D01*
X137442571Y-78222428D01*
X137556857Y-78336714D01*
X137728285Y-78393857D01*
X138014000Y-78393857D01*
X136814000Y-78393857D02*
X136814000Y-77193857D01*
X118964000Y-78393857D02*
X118964000Y-77193857D01*
X118678285Y-77193857D01*
X118506857Y-77251000D01*
X118392571Y-77365285D01*
X118335428Y-77479571D01*
X118278285Y-77708142D01*
X118278285Y-77879571D01*
X118335428Y-78108142D01*
X118392571Y-78222428D01*
X118506857Y-78336714D01*
X118678285Y-78393857D01*
X118964000Y-78393857D01*
X117764000Y-78393857D02*
X117764000Y-77193857D01*
X99914000Y-78393857D02*
X99914000Y-77193857D01*
X99628285Y-77193857D01*
X99456857Y-77251000D01*
X99342571Y-77365285D01*
X99285428Y-77479571D01*
X99228285Y-77708142D01*
X99228285Y-77879571D01*
X99285428Y-78108142D01*
X99342571Y-78222428D01*
X99456857Y-78336714D01*
X99628285Y-78393857D01*
X99914000Y-78393857D01*
X98714000Y-78393857D02*
X98714000Y-77193857D01*
X80864000Y-78393857D02*
X80864000Y-77193857D01*
X80578285Y-77193857D01*
X80406857Y-77251000D01*
X80292571Y-77365285D01*
X80235428Y-77479571D01*
X80178285Y-77708142D01*
X80178285Y-77879571D01*
X80235428Y-78108142D01*
X80292571Y-78222428D01*
X80406857Y-78336714D01*
X80578285Y-78393857D01*
X80864000Y-78393857D01*
X79664000Y-78393857D02*
X79664000Y-77193857D01*
X157064000Y-59343857D02*
X157064000Y-58143857D01*
X156778285Y-58143857D01*
X156606857Y-58201000D01*
X156492571Y-58315285D01*
X156435428Y-58429571D01*
X156378285Y-58658142D01*
X156378285Y-58829571D01*
X156435428Y-59058142D01*
X156492571Y-59172428D01*
X156606857Y-59286714D01*
X156778285Y-59343857D01*
X157064000Y-59343857D01*
X155864000Y-59343857D02*
X155864000Y-58143857D01*
X138014000Y-59343857D02*
X138014000Y-58143857D01*
X137728285Y-58143857D01*
X137556857Y-58201000D01*
X137442571Y-58315285D01*
X137385428Y-58429571D01*
X137328285Y-58658142D01*
X137328285Y-58829571D01*
X137385428Y-59058142D01*
X137442571Y-59172428D01*
X137556857Y-59286714D01*
X137728285Y-59343857D01*
X138014000Y-59343857D01*
X136814000Y-59343857D02*
X136814000Y-58143857D01*
X118964000Y-59343857D02*
X118964000Y-58143857D01*
X118678285Y-58143857D01*
X118506857Y-58201000D01*
X118392571Y-58315285D01*
X118335428Y-58429571D01*
X118278285Y-58658142D01*
X118278285Y-58829571D01*
X118335428Y-59058142D01*
X118392571Y-59172428D01*
X118506857Y-59286714D01*
X118678285Y-59343857D01*
X118964000Y-59343857D01*
X117764000Y-59343857D02*
X117764000Y-58143857D01*
X99914000Y-59343857D02*
X99914000Y-58143857D01*
X99628285Y-58143857D01*
X99456857Y-58201000D01*
X99342571Y-58315285D01*
X99285428Y-58429571D01*
X99228285Y-58658142D01*
X99228285Y-58829571D01*
X99285428Y-59058142D01*
X99342571Y-59172428D01*
X99456857Y-59286714D01*
X99628285Y-59343857D01*
X99914000Y-59343857D01*
X98714000Y-59343857D02*
X98714000Y-58143857D01*
X80864000Y-59343857D02*
X80864000Y-58143857D01*
X80578285Y-58143857D01*
X80406857Y-58201000D01*
X80292571Y-58315285D01*
X80235428Y-58429571D01*
X80178285Y-58658142D01*
X80178285Y-58829571D01*
X80235428Y-59058142D01*
X80292571Y-59172428D01*
X80406857Y-59286714D01*
X80578285Y-59343857D01*
X80864000Y-59343857D01*
X79664000Y-59343857D02*
X79664000Y-58143857D01*
X157064000Y-40293857D02*
X157064000Y-39093857D01*
X156778285Y-39093857D01*
X156606857Y-39151000D01*
X156492571Y-39265285D01*
X156435428Y-39379571D01*
X156378285Y-39608142D01*
X156378285Y-39779571D01*
X156435428Y-40008142D01*
X156492571Y-40122428D01*
X156606857Y-40236714D01*
X156778285Y-40293857D01*
X157064000Y-40293857D01*
X155864000Y-40293857D02*
X155864000Y-39093857D01*
X138014000Y-40293857D02*
X138014000Y-39093857D01*
X137728285Y-39093857D01*
X137556857Y-39151000D01*
X137442571Y-39265285D01*
X137385428Y-39379571D01*
X137328285Y-39608142D01*
X137328285Y-39779571D01*
X137385428Y-40008142D01*
X137442571Y-40122428D01*
X137556857Y-40236714D01*
X137728285Y-40293857D01*
X138014000Y-40293857D01*
X136814000Y-40293857D02*
X136814000Y-39093857D01*
X118964000Y-40293857D02*
X118964000Y-39093857D01*
X118678285Y-39093857D01*
X118506857Y-39151000D01*
X118392571Y-39265285D01*
X118335428Y-39379571D01*
X118278285Y-39608142D01*
X118278285Y-39779571D01*
X118335428Y-40008142D01*
X118392571Y-40122428D01*
X118506857Y-40236714D01*
X118678285Y-40293857D01*
X118964000Y-40293857D01*
X117764000Y-40293857D02*
X117764000Y-39093857D01*
X99914000Y-40293857D02*
X99914000Y-39093857D01*
X99628285Y-39093857D01*
X99456857Y-39151000D01*
X99342571Y-39265285D01*
X99285428Y-39379571D01*
X99228285Y-39608142D01*
X99228285Y-39779571D01*
X99285428Y-40008142D01*
X99342571Y-40122428D01*
X99456857Y-40236714D01*
X99628285Y-40293857D01*
X99914000Y-40293857D01*
X98714000Y-40293857D02*
X98714000Y-39093857D01*
X157175142Y-118830714D02*
X156260857Y-118830714D01*
X138125142Y-118830714D02*
X137210857Y-118830714D01*
X119075142Y-118830714D02*
X118160857Y-118830714D01*
X100025142Y-118830714D02*
X99110857Y-118830714D01*
X80975142Y-118830714D02*
X80060857Y-118830714D01*
X157175142Y-99780714D02*
X156260857Y-99780714D01*
X138125142Y-99780714D02*
X137210857Y-99780714D01*
X119075142Y-99780714D02*
X118160857Y-99780714D01*
X100025142Y-99780714D02*
X99110857Y-99780714D01*
X80975142Y-99780714D02*
X80060857Y-99780714D01*
X157175142Y-80730714D02*
X156260857Y-80730714D01*
X138125142Y-80730714D02*
X137210857Y-80730714D01*
X119075142Y-80730714D02*
X118160857Y-80730714D01*
X100025142Y-80730714D02*
X99110857Y-80730714D01*
X80975142Y-80730714D02*
X80060857Y-80730714D01*
X157175142Y-61680714D02*
X156260857Y-61680714D01*
X138125142Y-61680714D02*
X137210857Y-61680714D01*
X119075142Y-61680714D02*
X118160857Y-61680714D01*
X100025142Y-61680714D02*
X99110857Y-61680714D01*
X80975142Y-61680714D02*
X80060857Y-61680714D01*
X157175142Y-42630714D02*
X156260857Y-42630714D01*
X138125142Y-42630714D02*
X137210857Y-42630714D01*
X119075142Y-42630714D02*
X118160857Y-42630714D01*
X100025142Y-42630714D02*
X99110857Y-42630714D01*
X156600571Y-111159857D02*
X157000571Y-110588428D01*
X157286285Y-111159857D02*
X157286285Y-109959857D01*
X156829142Y-109959857D01*
X156714857Y-110017000D01*
X156657714Y-110074142D01*
X156600571Y-110188428D01*
X156600571Y-110359857D01*
X156657714Y-110474142D01*
X156714857Y-110531285D01*
X156829142Y-110588428D01*
X157286285Y-110588428D01*
X137550571Y-111159857D02*
X137950571Y-110588428D01*
X138236285Y-111159857D02*
X138236285Y-109959857D01*
X137779142Y-109959857D01*
X137664857Y-110017000D01*
X137607714Y-110074142D01*
X137550571Y-110188428D01*
X137550571Y-110359857D01*
X137607714Y-110474142D01*
X137664857Y-110531285D01*
X137779142Y-110588428D01*
X138236285Y-110588428D01*
X118500571Y-111159857D02*
X118900571Y-110588428D01*
X119186285Y-111159857D02*
X119186285Y-109959857D01*
X118729142Y-109959857D01*
X118614857Y-110017000D01*
X118557714Y-110074142D01*
X118500571Y-110188428D01*
X118500571Y-110359857D01*
X118557714Y-110474142D01*
X118614857Y-110531285D01*
X118729142Y-110588428D01*
X119186285Y-110588428D01*
X99450571Y-111159857D02*
X99850571Y-110588428D01*
X100136285Y-111159857D02*
X100136285Y-109959857D01*
X99679142Y-109959857D01*
X99564857Y-110017000D01*
X99507714Y-110074142D01*
X99450571Y-110188428D01*
X99450571Y-110359857D01*
X99507714Y-110474142D01*
X99564857Y-110531285D01*
X99679142Y-110588428D01*
X100136285Y-110588428D01*
X80400571Y-111159857D02*
X80800571Y-110588428D01*
X81086285Y-111159857D02*
X81086285Y-109959857D01*
X80629142Y-109959857D01*
X80514857Y-110017000D01*
X80457714Y-110074142D01*
X80400571Y-110188428D01*
X80400571Y-110359857D01*
X80457714Y-110474142D01*
X80514857Y-110531285D01*
X80629142Y-110588428D01*
X81086285Y-110588428D01*
X156600571Y-92109857D02*
X157000571Y-91538428D01*
X157286285Y-92109857D02*
X157286285Y-90909857D01*
X156829142Y-90909857D01*
X156714857Y-90967000D01*
X156657714Y-91024142D01*
X156600571Y-91138428D01*
X156600571Y-91309857D01*
X156657714Y-91424142D01*
X156714857Y-91481285D01*
X156829142Y-91538428D01*
X157286285Y-91538428D01*
X137550571Y-92109857D02*
X137950571Y-91538428D01*
X138236285Y-92109857D02*
X138236285Y-90909857D01*
X137779142Y-90909857D01*
X137664857Y-90967000D01*
X137607714Y-91024142D01*
X137550571Y-91138428D01*
X137550571Y-91309857D01*
X137607714Y-91424142D01*
X137664857Y-91481285D01*
X137779142Y-91538428D01*
X138236285Y-91538428D01*
X118500571Y-92109857D02*
X118900571Y-91538428D01*
X119186285Y-92109857D02*
X119186285Y-90909857D01*
X118729142Y-90909857D01*
X118614857Y-90967000D01*
X118557714Y-91024142D01*
X118500571Y-91138428D01*
X118500571Y-91309857D01*
X118557714Y-91424142D01*
X118614857Y-91481285D01*
X118729142Y-91538428D01*
X119186285Y-91538428D01*
X99450571Y-92109857D02*
X99850571Y-91538428D01*
X100136285Y-92109857D02*
X100136285Y-90909857D01*
X99679142Y-90909857D01*
X99564857Y-90967000D01*
X99507714Y-91024142D01*
X99450571Y-91138428D01*
X99450571Y-91309857D01*
X99507714Y-91424142D01*
X99564857Y-91481285D01*
X99679142Y-91538428D01*
X100136285Y-91538428D01*
X80400571Y-92109857D02*
X80800571Y-91538428D01*
X81086285Y-92109857D02*
X81086285Y-90909857D01*
X80629142Y-90909857D01*
X80514857Y-90967000D01*
X80457714Y-91024142D01*
X80400571Y-91138428D01*
X80400571Y-91309857D01*
X80457714Y-91424142D01*
X80514857Y-91481285D01*
X80629142Y-91538428D01*
X81086285Y-91538428D01*
X156600571Y-73059857D02*
X157000571Y-72488428D01*
X157286285Y-73059857D02*
X157286285Y-71859857D01*
X156829142Y-71859857D01*
X156714857Y-71917000D01*
X156657714Y-71974142D01*
X156600571Y-72088428D01*
X156600571Y-72259857D01*
X156657714Y-72374142D01*
X156714857Y-72431285D01*
X156829142Y-72488428D01*
X157286285Y-72488428D01*
X137550571Y-73059857D02*
X137950571Y-72488428D01*
X138236285Y-73059857D02*
X138236285Y-71859857D01*
X137779142Y-71859857D01*
X137664857Y-71917000D01*
X137607714Y-71974142D01*
X137550571Y-72088428D01*
X137550571Y-72259857D01*
X137607714Y-72374142D01*
X137664857Y-72431285D01*
X137779142Y-72488428D01*
X138236285Y-72488428D01*
X118500571Y-73059857D02*
X118900571Y-72488428D01*
X119186285Y-73059857D02*
X119186285Y-71859857D01*
X118729142Y-71859857D01*
X118614857Y-71917000D01*
X118557714Y-71974142D01*
X118500571Y-72088428D01*
X118500571Y-72259857D01*
X118557714Y-72374142D01*
X118614857Y-72431285D01*
X118729142Y-72488428D01*
X119186285Y-72488428D01*
X99450571Y-73059857D02*
X99850571Y-72488428D01*
X100136285Y-73059857D02*
X100136285Y-71859857D01*
X99679142Y-71859857D01*
X99564857Y-71917000D01*
X99507714Y-71974142D01*
X99450571Y-72088428D01*
X99450571Y-72259857D01*
X99507714Y-72374142D01*
X99564857Y-72431285D01*
X99679142Y-72488428D01*
X100136285Y-72488428D01*
X80400571Y-73059857D02*
X80800571Y-72488428D01*
X81086285Y-73059857D02*
X81086285Y-71859857D01*
X80629142Y-71859857D01*
X80514857Y-71917000D01*
X80457714Y-71974142D01*
X80400571Y-72088428D01*
X80400571Y-72259857D01*
X80457714Y-72374142D01*
X80514857Y-72431285D01*
X80629142Y-72488428D01*
X81086285Y-72488428D01*
X156600571Y-54009857D02*
X157000571Y-53438428D01*
X157286285Y-54009857D02*
X157286285Y-52809857D01*
X156829142Y-52809857D01*
X156714857Y-52867000D01*
X156657714Y-52924142D01*
X156600571Y-53038428D01*
X156600571Y-53209857D01*
X156657714Y-53324142D01*
X156714857Y-53381285D01*
X156829142Y-53438428D01*
X157286285Y-53438428D01*
X137550571Y-54009857D02*
X137950571Y-53438428D01*
X138236285Y-54009857D02*
X138236285Y-52809857D01*
X137779142Y-52809857D01*
X137664857Y-52867000D01*
X137607714Y-52924142D01*
X137550571Y-53038428D01*
X137550571Y-53209857D01*
X137607714Y-53324142D01*
X137664857Y-53381285D01*
X137779142Y-53438428D01*
X138236285Y-53438428D01*
X118500571Y-54009857D02*
X118900571Y-53438428D01*
X119186285Y-54009857D02*
X119186285Y-52809857D01*
X118729142Y-52809857D01*
X118614857Y-52867000D01*
X118557714Y-52924142D01*
X118500571Y-53038428D01*
X118500571Y-53209857D01*
X118557714Y-53324142D01*
X118614857Y-53381285D01*
X118729142Y-53438428D01*
X119186285Y-53438428D01*
X99450571Y-54009857D02*
X99850571Y-53438428D01*
X100136285Y-54009857D02*
X100136285Y-52809857D01*
X99679142Y-52809857D01*
X99564857Y-52867000D01*
X99507714Y-52924142D01*
X99450571Y-53038428D01*
X99450571Y-53209857D01*
X99507714Y-53324142D01*
X99564857Y-53381285D01*
X99679142Y-53438428D01*
X100136285Y-53438428D01*
X80400571Y-54009857D02*
X80800571Y-53438428D01*
X81086285Y-54009857D02*
X81086285Y-52809857D01*
X80629142Y-52809857D01*
X80514857Y-52867000D01*
X80457714Y-52924142D01*
X80400571Y-53038428D01*
X80400571Y-53209857D01*
X80457714Y-53324142D01*
X80514857Y-53381285D01*
X80629142Y-53438428D01*
X81086285Y-53438428D01*
X156600571Y-34959857D02*
X157000571Y-34388428D01*
X157286285Y-34959857D02*
X157286285Y-33759857D01*
X156829142Y-33759857D01*
X156714857Y-33817000D01*
X156657714Y-33874142D01*
X156600571Y-33988428D01*
X156600571Y-34159857D01*
X156657714Y-34274142D01*
X156714857Y-34331285D01*
X156829142Y-34388428D01*
X157286285Y-34388428D01*
X137550571Y-34959857D02*
X137950571Y-34388428D01*
X138236285Y-34959857D02*
X138236285Y-33759857D01*
X137779142Y-33759857D01*
X137664857Y-33817000D01*
X137607714Y-33874142D01*
X137550571Y-33988428D01*
X137550571Y-34159857D01*
X137607714Y-34274142D01*
X137664857Y-34331285D01*
X137779142Y-34388428D01*
X138236285Y-34388428D01*
X118500571Y-34959857D02*
X118900571Y-34388428D01*
X119186285Y-34959857D02*
X119186285Y-33759857D01*
X118729142Y-33759857D01*
X118614857Y-33817000D01*
X118557714Y-33874142D01*
X118500571Y-33988428D01*
X118500571Y-34159857D01*
X118557714Y-34274142D01*
X118614857Y-34331285D01*
X118729142Y-34388428D01*
X119186285Y-34388428D01*
X99450571Y-34959857D02*
X99850571Y-34388428D01*
X100136285Y-34959857D02*
X100136285Y-33759857D01*
X99679142Y-33759857D01*
X99564857Y-33817000D01*
X99507714Y-33874142D01*
X99450571Y-33988428D01*
X99450571Y-34159857D01*
X99507714Y-34274142D01*
X99564857Y-34331285D01*
X99679142Y-34388428D01*
X100136285Y-34388428D01*
X154568571Y-118157571D02*
X154625714Y-118214714D01*
X154797142Y-118271857D01*
X154911428Y-118271857D01*
X155082857Y-118214714D01*
X155197142Y-118100428D01*
X155254285Y-117986142D01*
X155311428Y-117757571D01*
X155311428Y-117586142D01*
X155254285Y-117357571D01*
X155197142Y-117243285D01*
X155082857Y-117129000D01*
X154911428Y-117071857D01*
X154797142Y-117071857D01*
X154625714Y-117129000D01*
X154568571Y-117186142D01*
X135518571Y-118157571D02*
X135575714Y-118214714D01*
X135747142Y-118271857D01*
X135861428Y-118271857D01*
X136032857Y-118214714D01*
X136147142Y-118100428D01*
X136204285Y-117986142D01*
X136261428Y-117757571D01*
X136261428Y-117586142D01*
X136204285Y-117357571D01*
X136147142Y-117243285D01*
X136032857Y-117129000D01*
X135861428Y-117071857D01*
X135747142Y-117071857D01*
X135575714Y-117129000D01*
X135518571Y-117186142D01*
X116468571Y-118157571D02*
X116525714Y-118214714D01*
X116697142Y-118271857D01*
X116811428Y-118271857D01*
X116982857Y-118214714D01*
X117097142Y-118100428D01*
X117154285Y-117986142D01*
X117211428Y-117757571D01*
X117211428Y-117586142D01*
X117154285Y-117357571D01*
X117097142Y-117243285D01*
X116982857Y-117129000D01*
X116811428Y-117071857D01*
X116697142Y-117071857D01*
X116525714Y-117129000D01*
X116468571Y-117186142D01*
X97418571Y-118157571D02*
X97475714Y-118214714D01*
X97647142Y-118271857D01*
X97761428Y-118271857D01*
X97932857Y-118214714D01*
X98047142Y-118100428D01*
X98104285Y-117986142D01*
X98161428Y-117757571D01*
X98161428Y-117586142D01*
X98104285Y-117357571D01*
X98047142Y-117243285D01*
X97932857Y-117129000D01*
X97761428Y-117071857D01*
X97647142Y-117071857D01*
X97475714Y-117129000D01*
X97418571Y-117186142D01*
X78368571Y-118157571D02*
X78425714Y-118214714D01*
X78597142Y-118271857D01*
X78711428Y-118271857D01*
X78882857Y-118214714D01*
X78997142Y-118100428D01*
X79054285Y-117986142D01*
X79111428Y-117757571D01*
X79111428Y-117586142D01*
X79054285Y-117357571D01*
X78997142Y-117243285D01*
X78882857Y-117129000D01*
X78711428Y-117071857D01*
X78597142Y-117071857D01*
X78425714Y-117129000D01*
X78368571Y-117186142D01*
X154568571Y-99107571D02*
X154625714Y-99164714D01*
X154797142Y-99221857D01*
X154911428Y-99221857D01*
X155082857Y-99164714D01*
X155197142Y-99050428D01*
X155254285Y-98936142D01*
X155311428Y-98707571D01*
X155311428Y-98536142D01*
X155254285Y-98307571D01*
X155197142Y-98193285D01*
X155082857Y-98079000D01*
X154911428Y-98021857D01*
X154797142Y-98021857D01*
X154625714Y-98079000D01*
X154568571Y-98136142D01*
X135518571Y-99107571D02*
X135575714Y-99164714D01*
X135747142Y-99221857D01*
X135861428Y-99221857D01*
X136032857Y-99164714D01*
X136147142Y-99050428D01*
X136204285Y-98936142D01*
X136261428Y-98707571D01*
X136261428Y-98536142D01*
X136204285Y-98307571D01*
X136147142Y-98193285D01*
X136032857Y-98079000D01*
X135861428Y-98021857D01*
X135747142Y-98021857D01*
X135575714Y-98079000D01*
X135518571Y-98136142D01*
X114944571Y-99869571D02*
X115001714Y-99926714D01*
X115173142Y-99983857D01*
X115287428Y-99983857D01*
X115458857Y-99926714D01*
X115573142Y-99812428D01*
X115630285Y-99698142D01*
X115687428Y-99469571D01*
X115687428Y-99298142D01*
X115630285Y-99069571D01*
X115573142Y-98955285D01*
X115458857Y-98841000D01*
X115287428Y-98783857D01*
X115173142Y-98783857D01*
X115001714Y-98841000D01*
X114944571Y-98898142D01*
X97418571Y-99107571D02*
X97475714Y-99164714D01*
X97647142Y-99221857D01*
X97761428Y-99221857D01*
X97932857Y-99164714D01*
X98047142Y-99050428D01*
X98104285Y-98936142D01*
X98161428Y-98707571D01*
X98161428Y-98536142D01*
X98104285Y-98307571D01*
X98047142Y-98193285D01*
X97932857Y-98079000D01*
X97761428Y-98021857D01*
X97647142Y-98021857D01*
X97475714Y-98079000D01*
X97418571Y-98136142D01*
X78368571Y-99107571D02*
X78425714Y-99164714D01*
X78597142Y-99221857D01*
X78711428Y-99221857D01*
X78882857Y-99164714D01*
X78997142Y-99050428D01*
X79054285Y-98936142D01*
X79111428Y-98707571D01*
X79111428Y-98536142D01*
X79054285Y-98307571D01*
X78997142Y-98193285D01*
X78882857Y-98079000D01*
X78711428Y-98021857D01*
X78597142Y-98021857D01*
X78425714Y-98079000D01*
X78368571Y-98136142D01*
X154568571Y-80057571D02*
X154625714Y-80114714D01*
X154797142Y-80171857D01*
X154911428Y-80171857D01*
X155082857Y-80114714D01*
X155197142Y-80000428D01*
X155254285Y-79886142D01*
X155311428Y-79657571D01*
X155311428Y-79486142D01*
X155254285Y-79257571D01*
X155197142Y-79143285D01*
X155082857Y-79029000D01*
X154911428Y-78971857D01*
X154797142Y-78971857D01*
X154625714Y-79029000D01*
X154568571Y-79086142D01*
X135518571Y-80057571D02*
X135575714Y-80114714D01*
X135747142Y-80171857D01*
X135861428Y-80171857D01*
X136032857Y-80114714D01*
X136147142Y-80000428D01*
X136204285Y-79886142D01*
X136261428Y-79657571D01*
X136261428Y-79486142D01*
X136204285Y-79257571D01*
X136147142Y-79143285D01*
X136032857Y-79029000D01*
X135861428Y-78971857D01*
X135747142Y-78971857D01*
X135575714Y-79029000D01*
X135518571Y-79086142D01*
X116468571Y-80057571D02*
X116525714Y-80114714D01*
X116697142Y-80171857D01*
X116811428Y-80171857D01*
X116982857Y-80114714D01*
X117097142Y-80000428D01*
X117154285Y-79886142D01*
X117211428Y-79657571D01*
X117211428Y-79486142D01*
X117154285Y-79257571D01*
X117097142Y-79143285D01*
X116982857Y-79029000D01*
X116811428Y-78971857D01*
X116697142Y-78971857D01*
X116525714Y-79029000D01*
X116468571Y-79086142D01*
X97418571Y-80057571D02*
X97475714Y-80114714D01*
X97647142Y-80171857D01*
X97761428Y-80171857D01*
X97932857Y-80114714D01*
X98047142Y-80000428D01*
X98104285Y-79886142D01*
X98161428Y-79657571D01*
X98161428Y-79486142D01*
X98104285Y-79257571D01*
X98047142Y-79143285D01*
X97932857Y-79029000D01*
X97761428Y-78971857D01*
X97647142Y-78971857D01*
X97475714Y-79029000D01*
X97418571Y-79086142D01*
X78368571Y-80057571D02*
X78425714Y-80114714D01*
X78597142Y-80171857D01*
X78711428Y-80171857D01*
X78882857Y-80114714D01*
X78997142Y-80000428D01*
X79054285Y-79886142D01*
X79111428Y-79657571D01*
X79111428Y-79486142D01*
X79054285Y-79257571D01*
X78997142Y-79143285D01*
X78882857Y-79029000D01*
X78711428Y-78971857D01*
X78597142Y-78971857D01*
X78425714Y-79029000D01*
X78368571Y-79086142D01*
X154568571Y-61007571D02*
X154625714Y-61064714D01*
X154797142Y-61121857D01*
X154911428Y-61121857D01*
X155082857Y-61064714D01*
X155197142Y-60950428D01*
X155254285Y-60836142D01*
X155311428Y-60607571D01*
X155311428Y-60436142D01*
X155254285Y-60207571D01*
X155197142Y-60093285D01*
X155082857Y-59979000D01*
X154911428Y-59921857D01*
X154797142Y-59921857D01*
X154625714Y-59979000D01*
X154568571Y-60036142D01*
X135518571Y-61007571D02*
X135575714Y-61064714D01*
X135747142Y-61121857D01*
X135861428Y-61121857D01*
X136032857Y-61064714D01*
X136147142Y-60950428D01*
X136204285Y-60836142D01*
X136261428Y-60607571D01*
X136261428Y-60436142D01*
X136204285Y-60207571D01*
X136147142Y-60093285D01*
X136032857Y-59979000D01*
X135861428Y-59921857D01*
X135747142Y-59921857D01*
X135575714Y-59979000D01*
X135518571Y-60036142D01*
X116468571Y-61007571D02*
X116525714Y-61064714D01*
X116697142Y-61121857D01*
X116811428Y-61121857D01*
X116982857Y-61064714D01*
X117097142Y-60950428D01*
X117154285Y-60836142D01*
X117211428Y-60607571D01*
X117211428Y-60436142D01*
X117154285Y-60207571D01*
X117097142Y-60093285D01*
X116982857Y-59979000D01*
X116811428Y-59921857D01*
X116697142Y-59921857D01*
X116525714Y-59979000D01*
X116468571Y-60036142D01*
X97418571Y-61007571D02*
X97475714Y-61064714D01*
X97647142Y-61121857D01*
X97761428Y-61121857D01*
X97932857Y-61064714D01*
X98047142Y-60950428D01*
X98104285Y-60836142D01*
X98161428Y-60607571D01*
X98161428Y-60436142D01*
X98104285Y-60207571D01*
X98047142Y-60093285D01*
X97932857Y-59979000D01*
X97761428Y-59921857D01*
X97647142Y-59921857D01*
X97475714Y-59979000D01*
X97418571Y-60036142D01*
X78368571Y-61007571D02*
X78425714Y-61064714D01*
X78597142Y-61121857D01*
X78711428Y-61121857D01*
X78882857Y-61064714D01*
X78997142Y-60950428D01*
X79054285Y-60836142D01*
X79111428Y-60607571D01*
X79111428Y-60436142D01*
X79054285Y-60207571D01*
X78997142Y-60093285D01*
X78882857Y-59979000D01*
X78711428Y-59921857D01*
X78597142Y-59921857D01*
X78425714Y-59979000D01*
X78368571Y-60036142D01*
X154568571Y-41957571D02*
X154625714Y-42014714D01*
X154797142Y-42071857D01*
X154911428Y-42071857D01*
X155082857Y-42014714D01*
X155197142Y-41900428D01*
X155254285Y-41786142D01*
X155311428Y-41557571D01*
X155311428Y-41386142D01*
X155254285Y-41157571D01*
X155197142Y-41043285D01*
X155082857Y-40929000D01*
X154911428Y-40871857D01*
X154797142Y-40871857D01*
X154625714Y-40929000D01*
X154568571Y-40986142D01*
X116468571Y-41957571D02*
X116525714Y-42014714D01*
X116697142Y-42071857D01*
X116811428Y-42071857D01*
X116982857Y-42014714D01*
X117097142Y-41900428D01*
X117154285Y-41786142D01*
X117211428Y-41557571D01*
X117211428Y-41386142D01*
X117154285Y-41157571D01*
X117097142Y-41043285D01*
X116982857Y-40929000D01*
X116811428Y-40871857D01*
X116697142Y-40871857D01*
X116525714Y-40929000D01*
X116468571Y-40986142D01*
X97418571Y-41957571D02*
X97475714Y-42014714D01*
X97647142Y-42071857D01*
X97761428Y-42071857D01*
X97932857Y-42014714D01*
X98047142Y-41900428D01*
X98104285Y-41786142D01*
X98161428Y-41557571D01*
X98161428Y-41386142D01*
X98104285Y-41157571D01*
X98047142Y-41043285D01*
X97932857Y-40929000D01*
X97761428Y-40871857D01*
X97647142Y-40871857D01*
X97475714Y-40929000D01*
X97418571Y-40986142D01*
X153044571Y-104695571D02*
X153101714Y-104752714D01*
X153273142Y-104809857D01*
X153387428Y-104809857D01*
X153558857Y-104752714D01*
X153673142Y-104638428D01*
X153730285Y-104524142D01*
X153787428Y-104295571D01*
X153787428Y-104124142D01*
X153730285Y-103895571D01*
X153673142Y-103781285D01*
X153558857Y-103667000D01*
X153387428Y-103609857D01*
X153273142Y-103609857D01*
X153101714Y-103667000D01*
X153044571Y-103724142D01*
X133994571Y-104695571D02*
X134051714Y-104752714D01*
X134223142Y-104809857D01*
X134337428Y-104809857D01*
X134508857Y-104752714D01*
X134623142Y-104638428D01*
X134680285Y-104524142D01*
X134737428Y-104295571D01*
X134737428Y-104124142D01*
X134680285Y-103895571D01*
X134623142Y-103781285D01*
X134508857Y-103667000D01*
X134337428Y-103609857D01*
X134223142Y-103609857D01*
X134051714Y-103667000D01*
X133994571Y-103724142D01*
X114944571Y-104695571D02*
X115001714Y-104752714D01*
X115173142Y-104809857D01*
X115287428Y-104809857D01*
X115458857Y-104752714D01*
X115573142Y-104638428D01*
X115630285Y-104524142D01*
X115687428Y-104295571D01*
X115687428Y-104124142D01*
X115630285Y-103895571D01*
X115573142Y-103781285D01*
X115458857Y-103667000D01*
X115287428Y-103609857D01*
X115173142Y-103609857D01*
X115001714Y-103667000D01*
X114944571Y-103724142D01*
X95894571Y-104695571D02*
X95951714Y-104752714D01*
X96123142Y-104809857D01*
X96237428Y-104809857D01*
X96408857Y-104752714D01*
X96523142Y-104638428D01*
X96580285Y-104524142D01*
X96637428Y-104295571D01*
X96637428Y-104124142D01*
X96580285Y-103895571D01*
X96523142Y-103781285D01*
X96408857Y-103667000D01*
X96237428Y-103609857D01*
X96123142Y-103609857D01*
X95951714Y-103667000D01*
X95894571Y-103724142D01*
X76844571Y-104695571D02*
X76901714Y-104752714D01*
X77073142Y-104809857D01*
X77187428Y-104809857D01*
X77358857Y-104752714D01*
X77473142Y-104638428D01*
X77530285Y-104524142D01*
X77587428Y-104295571D01*
X77587428Y-104124142D01*
X77530285Y-103895571D01*
X77473142Y-103781285D01*
X77358857Y-103667000D01*
X77187428Y-103609857D01*
X77073142Y-103609857D01*
X76901714Y-103667000D01*
X76844571Y-103724142D01*
X153044571Y-85645571D02*
X153101714Y-85702714D01*
X153273142Y-85759857D01*
X153387428Y-85759857D01*
X153558857Y-85702714D01*
X153673142Y-85588428D01*
X153730285Y-85474142D01*
X153787428Y-85245571D01*
X153787428Y-85074142D01*
X153730285Y-84845571D01*
X153673142Y-84731285D01*
X153558857Y-84617000D01*
X153387428Y-84559857D01*
X153273142Y-84559857D01*
X153101714Y-84617000D01*
X153044571Y-84674142D01*
X133994571Y-85645571D02*
X134051714Y-85702714D01*
X134223142Y-85759857D01*
X134337428Y-85759857D01*
X134508857Y-85702714D01*
X134623142Y-85588428D01*
X134680285Y-85474142D01*
X134737428Y-85245571D01*
X134737428Y-85074142D01*
X134680285Y-84845571D01*
X134623142Y-84731285D01*
X134508857Y-84617000D01*
X134337428Y-84559857D01*
X134223142Y-84559857D01*
X134051714Y-84617000D01*
X133994571Y-84674142D01*
X114944571Y-85645571D02*
X115001714Y-85702714D01*
X115173142Y-85759857D01*
X115287428Y-85759857D01*
X115458857Y-85702714D01*
X115573142Y-85588428D01*
X115630285Y-85474142D01*
X115687428Y-85245571D01*
X115687428Y-85074142D01*
X115630285Y-84845571D01*
X115573142Y-84731285D01*
X115458857Y-84617000D01*
X115287428Y-84559857D01*
X115173142Y-84559857D01*
X115001714Y-84617000D01*
X114944571Y-84674142D01*
X95894571Y-85645571D02*
X95951714Y-85702714D01*
X96123142Y-85759857D01*
X96237428Y-85759857D01*
X96408857Y-85702714D01*
X96523142Y-85588428D01*
X96580285Y-85474142D01*
X96637428Y-85245571D01*
X96637428Y-85074142D01*
X96580285Y-84845571D01*
X96523142Y-84731285D01*
X96408857Y-84617000D01*
X96237428Y-84559857D01*
X96123142Y-84559857D01*
X95951714Y-84617000D01*
X95894571Y-84674142D01*
X76844571Y-85645571D02*
X76901714Y-85702714D01*
X77073142Y-85759857D01*
X77187428Y-85759857D01*
X77358857Y-85702714D01*
X77473142Y-85588428D01*
X77530285Y-85474142D01*
X77587428Y-85245571D01*
X77587428Y-85074142D01*
X77530285Y-84845571D01*
X77473142Y-84731285D01*
X77358857Y-84617000D01*
X77187428Y-84559857D01*
X77073142Y-84559857D01*
X76901714Y-84617000D01*
X76844571Y-84674142D01*
X153044571Y-66595571D02*
X153101714Y-66652714D01*
X153273142Y-66709857D01*
X153387428Y-66709857D01*
X153558857Y-66652714D01*
X153673142Y-66538428D01*
X153730285Y-66424142D01*
X153787428Y-66195571D01*
X153787428Y-66024142D01*
X153730285Y-65795571D01*
X153673142Y-65681285D01*
X153558857Y-65567000D01*
X153387428Y-65509857D01*
X153273142Y-65509857D01*
X153101714Y-65567000D01*
X153044571Y-65624142D01*
X133994571Y-66595571D02*
X134051714Y-66652714D01*
X134223142Y-66709857D01*
X134337428Y-66709857D01*
X134508857Y-66652714D01*
X134623142Y-66538428D01*
X134680285Y-66424142D01*
X134737428Y-66195571D01*
X134737428Y-66024142D01*
X134680285Y-65795571D01*
X134623142Y-65681285D01*
X134508857Y-65567000D01*
X134337428Y-65509857D01*
X134223142Y-65509857D01*
X134051714Y-65567000D01*
X133994571Y-65624142D01*
X114944571Y-66595571D02*
X115001714Y-66652714D01*
X115173142Y-66709857D01*
X115287428Y-66709857D01*
X115458857Y-66652714D01*
X115573142Y-66538428D01*
X115630285Y-66424142D01*
X115687428Y-66195571D01*
X115687428Y-66024142D01*
X115630285Y-65795571D01*
X115573142Y-65681285D01*
X115458857Y-65567000D01*
X115287428Y-65509857D01*
X115173142Y-65509857D01*
X115001714Y-65567000D01*
X114944571Y-65624142D01*
X95894571Y-66595571D02*
X95951714Y-66652714D01*
X96123142Y-66709857D01*
X96237428Y-66709857D01*
X96408857Y-66652714D01*
X96523142Y-66538428D01*
X96580285Y-66424142D01*
X96637428Y-66195571D01*
X96637428Y-66024142D01*
X96580285Y-65795571D01*
X96523142Y-65681285D01*
X96408857Y-65567000D01*
X96237428Y-65509857D01*
X96123142Y-65509857D01*
X95951714Y-65567000D01*
X95894571Y-65624142D01*
X76844571Y-66595571D02*
X76901714Y-66652714D01*
X77073142Y-66709857D01*
X77187428Y-66709857D01*
X77358857Y-66652714D01*
X77473142Y-66538428D01*
X77530285Y-66424142D01*
X77587428Y-66195571D01*
X77587428Y-66024142D01*
X77530285Y-65795571D01*
X77473142Y-65681285D01*
X77358857Y-65567000D01*
X77187428Y-65509857D01*
X77073142Y-65509857D01*
X76901714Y-65567000D01*
X76844571Y-65624142D01*
X153044571Y-47545571D02*
X153101714Y-47602714D01*
X153273142Y-47659857D01*
X153387428Y-47659857D01*
X153558857Y-47602714D01*
X153673142Y-47488428D01*
X153730285Y-47374142D01*
X153787428Y-47145571D01*
X153787428Y-46974142D01*
X153730285Y-46745571D01*
X153673142Y-46631285D01*
X153558857Y-46517000D01*
X153387428Y-46459857D01*
X153273142Y-46459857D01*
X153101714Y-46517000D01*
X153044571Y-46574142D01*
X133994571Y-47545571D02*
X134051714Y-47602714D01*
X134223142Y-47659857D01*
X134337428Y-47659857D01*
X134508857Y-47602714D01*
X134623142Y-47488428D01*
X134680285Y-47374142D01*
X134737428Y-47145571D01*
X134737428Y-46974142D01*
X134680285Y-46745571D01*
X134623142Y-46631285D01*
X134508857Y-46517000D01*
X134337428Y-46459857D01*
X134223142Y-46459857D01*
X134051714Y-46517000D01*
X133994571Y-46574142D01*
X114944571Y-47545571D02*
X115001714Y-47602714D01*
X115173142Y-47659857D01*
X115287428Y-47659857D01*
X115458857Y-47602714D01*
X115573142Y-47488428D01*
X115630285Y-47374142D01*
X115687428Y-47145571D01*
X115687428Y-46974142D01*
X115630285Y-46745571D01*
X115573142Y-46631285D01*
X115458857Y-46517000D01*
X115287428Y-46459857D01*
X115173142Y-46459857D01*
X115001714Y-46517000D01*
X114944571Y-46574142D01*
X95894571Y-47545571D02*
X95951714Y-47602714D01*
X96123142Y-47659857D01*
X96237428Y-47659857D01*
X96408857Y-47602714D01*
X96523142Y-47488428D01*
X96580285Y-47374142D01*
X96637428Y-47145571D01*
X96637428Y-46974142D01*
X96580285Y-46745571D01*
X96523142Y-46631285D01*
X96408857Y-46517000D01*
X96237428Y-46459857D01*
X96123142Y-46459857D01*
X95951714Y-46517000D01*
X95894571Y-46574142D01*
X76844571Y-47545571D02*
X76901714Y-47602714D01*
X77073142Y-47659857D01*
X77187428Y-47659857D01*
X77358857Y-47602714D01*
X77473142Y-47488428D01*
X77530285Y-47374142D01*
X77587428Y-47145571D01*
X77587428Y-46974142D01*
X77530285Y-46745571D01*
X77473142Y-46631285D01*
X77358857Y-46517000D01*
X77187428Y-46459857D01*
X77073142Y-46459857D01*
X76901714Y-46517000D01*
X76844571Y-46574142D01*
X153044571Y-28495571D02*
X153101714Y-28552714D01*
X153273142Y-28609857D01*
X153387428Y-28609857D01*
X153558857Y-28552714D01*
X153673142Y-28438428D01*
X153730285Y-28324142D01*
X153787428Y-28095571D01*
X153787428Y-27924142D01*
X153730285Y-27695571D01*
X153673142Y-27581285D01*
X153558857Y-27467000D01*
X153387428Y-27409857D01*
X153273142Y-27409857D01*
X153101714Y-27467000D01*
X153044571Y-27524142D01*
X133994571Y-28495571D02*
X134051714Y-28552714D01*
X134223142Y-28609857D01*
X134337428Y-28609857D01*
X134508857Y-28552714D01*
X134623142Y-28438428D01*
X134680285Y-28324142D01*
X134737428Y-28095571D01*
X134737428Y-27924142D01*
X134680285Y-27695571D01*
X134623142Y-27581285D01*
X134508857Y-27467000D01*
X134337428Y-27409857D01*
X134223142Y-27409857D01*
X134051714Y-27467000D01*
X133994571Y-27524142D01*
X114944571Y-28495571D02*
X115001714Y-28552714D01*
X115173142Y-28609857D01*
X115287428Y-28609857D01*
X115458857Y-28552714D01*
X115573142Y-28438428D01*
X115630285Y-28324142D01*
X115687428Y-28095571D01*
X115687428Y-27924142D01*
X115630285Y-27695571D01*
X115573142Y-27581285D01*
X115458857Y-27467000D01*
X115287428Y-27409857D01*
X115173142Y-27409857D01*
X115001714Y-27467000D01*
X114944571Y-27524142D01*
X95894571Y-28495571D02*
X95951714Y-28552714D01*
X96123142Y-28609857D01*
X96237428Y-28609857D01*
X96408857Y-28552714D01*
X96523142Y-28438428D01*
X96580285Y-28324142D01*
X96637428Y-28095571D01*
X96637428Y-27924142D01*
X96580285Y-27695571D01*
X96523142Y-27581285D01*
X96408857Y-27467000D01*
X96237428Y-27409857D01*
X96123142Y-27409857D01*
X95951714Y-27467000D01*
X95894571Y-27524142D01*
X157175142Y-103590714D02*
X156260857Y-103590714D01*
X138125142Y-103590714D02*
X137210857Y-103590714D01*
X119075142Y-103590714D02*
X118160857Y-103590714D01*
X100025142Y-103590714D02*
X99110857Y-103590714D01*
X80975142Y-103590714D02*
X80060857Y-103590714D01*
X157175142Y-84540714D02*
X156260857Y-84540714D01*
X138125142Y-84540714D02*
X137210857Y-84540714D01*
X100025142Y-84540714D02*
X99110857Y-84540714D01*
X80975142Y-84540714D02*
X80060857Y-84540714D01*
X157175142Y-65490714D02*
X156260857Y-65490714D01*
X138125142Y-65490714D02*
X137210857Y-65490714D01*
X119075142Y-65490714D02*
X118160857Y-65490714D01*
X100025142Y-65490714D02*
X99110857Y-65490714D01*
X80975142Y-65490714D02*
X80060857Y-65490714D01*
X157175142Y-46440714D02*
X156260857Y-46440714D01*
X138125142Y-46440714D02*
X137210857Y-46440714D01*
X119075142Y-46440714D02*
X118160857Y-46440714D01*
X100025142Y-46440714D02*
X99110857Y-46440714D01*
X80975142Y-46440714D02*
X80060857Y-46440714D01*
X157175142Y-27390714D02*
X156260857Y-27390714D01*
X143900571Y-111159857D02*
X144300571Y-110588428D01*
X144586285Y-111159857D02*
X144586285Y-109959857D01*
X144129142Y-109959857D01*
X144014857Y-110017000D01*
X143957714Y-110074142D01*
X143900571Y-110188428D01*
X143900571Y-110359857D01*
X143957714Y-110474142D01*
X144014857Y-110531285D01*
X144129142Y-110588428D01*
X144586285Y-110588428D01*
X124850571Y-111159857D02*
X125250571Y-110588428D01*
X125536285Y-111159857D02*
X125536285Y-109959857D01*
X125079142Y-109959857D01*
X124964857Y-110017000D01*
X124907714Y-110074142D01*
X124850571Y-110188428D01*
X124850571Y-110359857D01*
X124907714Y-110474142D01*
X124964857Y-110531285D01*
X125079142Y-110588428D01*
X125536285Y-110588428D01*
X105800571Y-111159857D02*
X106200571Y-110588428D01*
X106486285Y-111159857D02*
X106486285Y-109959857D01*
X106029142Y-109959857D01*
X105914857Y-110017000D01*
X105857714Y-110074142D01*
X105800571Y-110188428D01*
X105800571Y-110359857D01*
X105857714Y-110474142D01*
X105914857Y-110531285D01*
X106029142Y-110588428D01*
X106486285Y-110588428D01*
X86750571Y-111159857D02*
X87150571Y-110588428D01*
X87436285Y-111159857D02*
X87436285Y-109959857D01*
X86979142Y-109959857D01*
X86864857Y-110017000D01*
X86807714Y-110074142D01*
X86750571Y-110188428D01*
X86750571Y-110359857D01*
X86807714Y-110474142D01*
X86864857Y-110531285D01*
X86979142Y-110588428D01*
X87436285Y-110588428D01*
X67700571Y-111159857D02*
X68100571Y-110588428D01*
X68386285Y-111159857D02*
X68386285Y-109959857D01*
X67929142Y-109959857D01*
X67814857Y-110017000D01*
X67757714Y-110074142D01*
X67700571Y-110188428D01*
X67700571Y-110359857D01*
X67757714Y-110474142D01*
X67814857Y-110531285D01*
X67929142Y-110588428D01*
X68386285Y-110588428D01*
X143900571Y-92109857D02*
X144300571Y-91538428D01*
X144586285Y-92109857D02*
X144586285Y-90909857D01*
X144129142Y-90909857D01*
X144014857Y-90967000D01*
X143957714Y-91024142D01*
X143900571Y-91138428D01*
X143900571Y-91309857D01*
X143957714Y-91424142D01*
X144014857Y-91481285D01*
X144129142Y-91538428D01*
X144586285Y-91538428D01*
X124850571Y-92109857D02*
X125250571Y-91538428D01*
X125536285Y-92109857D02*
X125536285Y-90909857D01*
X125079142Y-90909857D01*
X124964857Y-90967000D01*
X124907714Y-91024142D01*
X124850571Y-91138428D01*
X124850571Y-91309857D01*
X124907714Y-91424142D01*
X124964857Y-91481285D01*
X125079142Y-91538428D01*
X125536285Y-91538428D01*
X105800571Y-92109857D02*
X106200571Y-91538428D01*
X106486285Y-92109857D02*
X106486285Y-90909857D01*
X106029142Y-90909857D01*
X105914857Y-90967000D01*
X105857714Y-91024142D01*
X105800571Y-91138428D01*
X105800571Y-91309857D01*
X105857714Y-91424142D01*
X105914857Y-91481285D01*
X106029142Y-91538428D01*
X106486285Y-91538428D01*
X86750571Y-92109857D02*
X87150571Y-91538428D01*
X87436285Y-92109857D02*
X87436285Y-90909857D01*
X86979142Y-90909857D01*
X86864857Y-90967000D01*
X86807714Y-91024142D01*
X86750571Y-91138428D01*
X86750571Y-91309857D01*
X86807714Y-91424142D01*
X86864857Y-91481285D01*
X86979142Y-91538428D01*
X87436285Y-91538428D01*
X67700571Y-92109857D02*
X68100571Y-91538428D01*
X68386285Y-92109857D02*
X68386285Y-90909857D01*
X67929142Y-90909857D01*
X67814857Y-90967000D01*
X67757714Y-91024142D01*
X67700571Y-91138428D01*
X67700571Y-91309857D01*
X67757714Y-91424142D01*
X67814857Y-91481285D01*
X67929142Y-91538428D01*
X68386285Y-91538428D01*
X143900571Y-73059857D02*
X144300571Y-72488428D01*
X144586285Y-73059857D02*
X144586285Y-71859857D01*
X144129142Y-71859857D01*
X144014857Y-71917000D01*
X143957714Y-71974142D01*
X143900571Y-72088428D01*
X143900571Y-72259857D01*
X143957714Y-72374142D01*
X144014857Y-72431285D01*
X144129142Y-72488428D01*
X144586285Y-72488428D01*
X124850571Y-73059857D02*
X125250571Y-72488428D01*
X125536285Y-73059857D02*
X125536285Y-71859857D01*
X125079142Y-71859857D01*
X124964857Y-71917000D01*
X124907714Y-71974142D01*
X124850571Y-72088428D01*
X124850571Y-72259857D01*
X124907714Y-72374142D01*
X124964857Y-72431285D01*
X125079142Y-72488428D01*
X125536285Y-72488428D01*
X105800571Y-73059857D02*
X106200571Y-72488428D01*
X106486285Y-73059857D02*
X106486285Y-71859857D01*
X106029142Y-71859857D01*
X105914857Y-71917000D01*
X105857714Y-71974142D01*
X105800571Y-72088428D01*
X105800571Y-72259857D01*
X105857714Y-72374142D01*
X105914857Y-72431285D01*
X106029142Y-72488428D01*
X106486285Y-72488428D01*
X86750571Y-73059857D02*
X87150571Y-72488428D01*
X87436285Y-73059857D02*
X87436285Y-71859857D01*
X86979142Y-71859857D01*
X86864857Y-71917000D01*
X86807714Y-71974142D01*
X86750571Y-72088428D01*
X86750571Y-72259857D01*
X86807714Y-72374142D01*
X86864857Y-72431285D01*
X86979142Y-72488428D01*
X87436285Y-72488428D01*
X67700571Y-73059857D02*
X68100571Y-72488428D01*
X68386285Y-73059857D02*
X68386285Y-71859857D01*
X67929142Y-71859857D01*
X67814857Y-71917000D01*
X67757714Y-71974142D01*
X67700571Y-72088428D01*
X67700571Y-72259857D01*
X67757714Y-72374142D01*
X67814857Y-72431285D01*
X67929142Y-72488428D01*
X68386285Y-72488428D01*
X143900571Y-54009857D02*
X144300571Y-53438428D01*
X144586285Y-54009857D02*
X144586285Y-52809857D01*
X144129142Y-52809857D01*
X144014857Y-52867000D01*
X143957714Y-52924142D01*
X143900571Y-53038428D01*
X143900571Y-53209857D01*
X143957714Y-53324142D01*
X144014857Y-53381285D01*
X144129142Y-53438428D01*
X144586285Y-53438428D01*
X124850571Y-54009857D02*
X125250571Y-53438428D01*
X125536285Y-54009857D02*
X125536285Y-52809857D01*
X125079142Y-52809857D01*
X124964857Y-52867000D01*
X124907714Y-52924142D01*
X124850571Y-53038428D01*
X124850571Y-53209857D01*
X124907714Y-53324142D01*
X124964857Y-53381285D01*
X125079142Y-53438428D01*
X125536285Y-53438428D01*
X105800571Y-54009857D02*
X106200571Y-53438428D01*
X106486285Y-54009857D02*
X106486285Y-52809857D01*
X106029142Y-52809857D01*
X105914857Y-52867000D01*
X105857714Y-52924142D01*
X105800571Y-53038428D01*
X105800571Y-53209857D01*
X105857714Y-53324142D01*
X105914857Y-53381285D01*
X106029142Y-53438428D01*
X106486285Y-53438428D01*
X86750571Y-54009857D02*
X87150571Y-53438428D01*
X87436285Y-54009857D02*
X87436285Y-52809857D01*
X86979142Y-52809857D01*
X86864857Y-52867000D01*
X86807714Y-52924142D01*
X86750571Y-53038428D01*
X86750571Y-53209857D01*
X86807714Y-53324142D01*
X86864857Y-53381285D01*
X86979142Y-53438428D01*
X87436285Y-53438428D01*
X67700571Y-54009857D02*
X68100571Y-53438428D01*
X68386285Y-54009857D02*
X68386285Y-52809857D01*
X67929142Y-52809857D01*
X67814857Y-52867000D01*
X67757714Y-52924142D01*
X67700571Y-53038428D01*
X67700571Y-53209857D01*
X67757714Y-53324142D01*
X67814857Y-53381285D01*
X67929142Y-53438428D01*
X68386285Y-53438428D01*
X143900571Y-34959857D02*
X144300571Y-34388428D01*
X144586285Y-34959857D02*
X144586285Y-33759857D01*
X144129142Y-33759857D01*
X144014857Y-33817000D01*
X143957714Y-33874142D01*
X143900571Y-33988428D01*
X143900571Y-34159857D01*
X143957714Y-34274142D01*
X144014857Y-34331285D01*
X144129142Y-34388428D01*
X144586285Y-34388428D01*
X124850571Y-34959857D02*
X125250571Y-34388428D01*
X125536285Y-34959857D02*
X125536285Y-33759857D01*
X125079142Y-33759857D01*
X124964857Y-33817000D01*
X124907714Y-33874142D01*
X124850571Y-33988428D01*
X124850571Y-34159857D01*
X124907714Y-34274142D01*
X124964857Y-34331285D01*
X125079142Y-34388428D01*
X125536285Y-34388428D01*
X105800571Y-34959857D02*
X106200571Y-34388428D01*
X106486285Y-34959857D02*
X106486285Y-33759857D01*
X106029142Y-33759857D01*
X105914857Y-33817000D01*
X105857714Y-33874142D01*
X105800571Y-33988428D01*
X105800571Y-34159857D01*
X105857714Y-34274142D01*
X105914857Y-34331285D01*
X106029142Y-34388428D01*
X106486285Y-34388428D01*
X86750571Y-34959857D02*
X87150571Y-34388428D01*
X87436285Y-34959857D02*
X87436285Y-33759857D01*
X86979142Y-33759857D01*
X86864857Y-33817000D01*
X86807714Y-33874142D01*
X86750571Y-33988428D01*
X86750571Y-34159857D01*
X86807714Y-34274142D01*
X86864857Y-34331285D01*
X86979142Y-34388428D01*
X87436285Y-34388428D01*
X145849857Y-114969857D02*
X145849857Y-113769857D01*
X145564142Y-113769857D01*
X145392714Y-113827000D01*
X145278428Y-113941285D01*
X145221285Y-114055571D01*
X145164142Y-114284142D01*
X145164142Y-114455571D01*
X145221285Y-114684142D01*
X145278428Y-114798428D01*
X145392714Y-114912714D01*
X145564142Y-114969857D01*
X145849857Y-114969857D01*
X144421285Y-113769857D02*
X144192714Y-113769857D01*
X144078428Y-113827000D01*
X143964142Y-113941285D01*
X143907000Y-114169857D01*
X143907000Y-114569857D01*
X143964142Y-114798428D01*
X144078428Y-114912714D01*
X144192714Y-114969857D01*
X144421285Y-114969857D01*
X144535571Y-114912714D01*
X144649857Y-114798428D01*
X144707000Y-114569857D01*
X144707000Y-114169857D01*
X144649857Y-113941285D01*
X144535571Y-113827000D01*
X144421285Y-113769857D01*
X126799857Y-114969857D02*
X126799857Y-113769857D01*
X126514142Y-113769857D01*
X126342714Y-113827000D01*
X126228428Y-113941285D01*
X126171285Y-114055571D01*
X126114142Y-114284142D01*
X126114142Y-114455571D01*
X126171285Y-114684142D01*
X126228428Y-114798428D01*
X126342714Y-114912714D01*
X126514142Y-114969857D01*
X126799857Y-114969857D01*
X125371285Y-113769857D02*
X125142714Y-113769857D01*
X125028428Y-113827000D01*
X124914142Y-113941285D01*
X124857000Y-114169857D01*
X124857000Y-114569857D01*
X124914142Y-114798428D01*
X125028428Y-114912714D01*
X125142714Y-114969857D01*
X125371285Y-114969857D01*
X125485571Y-114912714D01*
X125599857Y-114798428D01*
X125657000Y-114569857D01*
X125657000Y-114169857D01*
X125599857Y-113941285D01*
X125485571Y-113827000D01*
X125371285Y-113769857D01*
X107749857Y-114969857D02*
X107749857Y-113769857D01*
X107464142Y-113769857D01*
X107292714Y-113827000D01*
X107178428Y-113941285D01*
X107121285Y-114055571D01*
X107064142Y-114284142D01*
X107064142Y-114455571D01*
X107121285Y-114684142D01*
X107178428Y-114798428D01*
X107292714Y-114912714D01*
X107464142Y-114969857D01*
X107749857Y-114969857D01*
X106321285Y-113769857D02*
X106092714Y-113769857D01*
X105978428Y-113827000D01*
X105864142Y-113941285D01*
X105807000Y-114169857D01*
X105807000Y-114569857D01*
X105864142Y-114798428D01*
X105978428Y-114912714D01*
X106092714Y-114969857D01*
X106321285Y-114969857D01*
X106435571Y-114912714D01*
X106549857Y-114798428D01*
X106607000Y-114569857D01*
X106607000Y-114169857D01*
X106549857Y-113941285D01*
X106435571Y-113827000D01*
X106321285Y-113769857D01*
X88699857Y-114969857D02*
X88699857Y-113769857D01*
X88414142Y-113769857D01*
X88242714Y-113827000D01*
X88128428Y-113941285D01*
X88071285Y-114055571D01*
X88014142Y-114284142D01*
X88014142Y-114455571D01*
X88071285Y-114684142D01*
X88128428Y-114798428D01*
X88242714Y-114912714D01*
X88414142Y-114969857D01*
X88699857Y-114969857D01*
X87271285Y-113769857D02*
X87042714Y-113769857D01*
X86928428Y-113827000D01*
X86814142Y-113941285D01*
X86757000Y-114169857D01*
X86757000Y-114569857D01*
X86814142Y-114798428D01*
X86928428Y-114912714D01*
X87042714Y-114969857D01*
X87271285Y-114969857D01*
X87385571Y-114912714D01*
X87499857Y-114798428D01*
X87557000Y-114569857D01*
X87557000Y-114169857D01*
X87499857Y-113941285D01*
X87385571Y-113827000D01*
X87271285Y-113769857D01*
X69649857Y-114969857D02*
X69649857Y-113769857D01*
X69364142Y-113769857D01*
X69192714Y-113827000D01*
X69078428Y-113941285D01*
X69021285Y-114055571D01*
X68964142Y-114284142D01*
X68964142Y-114455571D01*
X69021285Y-114684142D01*
X69078428Y-114798428D01*
X69192714Y-114912714D01*
X69364142Y-114969857D01*
X69649857Y-114969857D01*
X68221285Y-113769857D02*
X67992714Y-113769857D01*
X67878428Y-113827000D01*
X67764142Y-113941285D01*
X67707000Y-114169857D01*
X67707000Y-114569857D01*
X67764142Y-114798428D01*
X67878428Y-114912714D01*
X67992714Y-114969857D01*
X68221285Y-114969857D01*
X68335571Y-114912714D01*
X68449857Y-114798428D01*
X68507000Y-114569857D01*
X68507000Y-114169857D01*
X68449857Y-113941285D01*
X68335571Y-113827000D01*
X68221285Y-113769857D01*
X146103857Y-97189857D02*
X146103857Y-95989857D01*
X145818142Y-95989857D01*
X145646714Y-96047000D01*
X145532428Y-96161285D01*
X145475285Y-96275571D01*
X145418142Y-96504142D01*
X145418142Y-96675571D01*
X145475285Y-96904142D01*
X145532428Y-97018428D01*
X145646714Y-97132714D01*
X145818142Y-97189857D01*
X146103857Y-97189857D01*
X144675285Y-95989857D02*
X144446714Y-95989857D01*
X144332428Y-96047000D01*
X144218142Y-96161285D01*
X144161000Y-96389857D01*
X144161000Y-96789857D01*
X144218142Y-97018428D01*
X144332428Y-97132714D01*
X144446714Y-97189857D01*
X144675285Y-97189857D01*
X144789571Y-97132714D01*
X144903857Y-97018428D01*
X144961000Y-96789857D01*
X144961000Y-96389857D01*
X144903857Y-96161285D01*
X144789571Y-96047000D01*
X144675285Y-95989857D01*
X127053857Y-97189857D02*
X127053857Y-95989857D01*
X126768142Y-95989857D01*
X126596714Y-96047000D01*
X126482428Y-96161285D01*
X126425285Y-96275571D01*
X126368142Y-96504142D01*
X126368142Y-96675571D01*
X126425285Y-96904142D01*
X126482428Y-97018428D01*
X126596714Y-97132714D01*
X126768142Y-97189857D01*
X127053857Y-97189857D01*
X125625285Y-95989857D02*
X125396714Y-95989857D01*
X125282428Y-96047000D01*
X125168142Y-96161285D01*
X125111000Y-96389857D01*
X125111000Y-96789857D01*
X125168142Y-97018428D01*
X125282428Y-97132714D01*
X125396714Y-97189857D01*
X125625285Y-97189857D01*
X125739571Y-97132714D01*
X125853857Y-97018428D01*
X125911000Y-96789857D01*
X125911000Y-96389857D01*
X125853857Y-96161285D01*
X125739571Y-96047000D01*
X125625285Y-95989857D01*
X108003857Y-97189857D02*
X108003857Y-95989857D01*
X107718142Y-95989857D01*
X107546714Y-96047000D01*
X107432428Y-96161285D01*
X107375285Y-96275571D01*
X107318142Y-96504142D01*
X107318142Y-96675571D01*
X107375285Y-96904142D01*
X107432428Y-97018428D01*
X107546714Y-97132714D01*
X107718142Y-97189857D01*
X108003857Y-97189857D01*
X106575285Y-95989857D02*
X106346714Y-95989857D01*
X106232428Y-96047000D01*
X106118142Y-96161285D01*
X106061000Y-96389857D01*
X106061000Y-96789857D01*
X106118142Y-97018428D01*
X106232428Y-97132714D01*
X106346714Y-97189857D01*
X106575285Y-97189857D01*
X106689571Y-97132714D01*
X106803857Y-97018428D01*
X106861000Y-96789857D01*
X106861000Y-96389857D01*
X106803857Y-96161285D01*
X106689571Y-96047000D01*
X106575285Y-95989857D01*
X88953857Y-97189857D02*
X88953857Y-95989857D01*
X88668142Y-95989857D01*
X88496714Y-96047000D01*
X88382428Y-96161285D01*
X88325285Y-96275571D01*
X88268142Y-96504142D01*
X88268142Y-96675571D01*
X88325285Y-96904142D01*
X88382428Y-97018428D01*
X88496714Y-97132714D01*
X88668142Y-97189857D01*
X88953857Y-97189857D01*
X87525285Y-95989857D02*
X87296714Y-95989857D01*
X87182428Y-96047000D01*
X87068142Y-96161285D01*
X87011000Y-96389857D01*
X87011000Y-96789857D01*
X87068142Y-97018428D01*
X87182428Y-97132714D01*
X87296714Y-97189857D01*
X87525285Y-97189857D01*
X87639571Y-97132714D01*
X87753857Y-97018428D01*
X87811000Y-96789857D01*
X87811000Y-96389857D01*
X87753857Y-96161285D01*
X87639571Y-96047000D01*
X87525285Y-95989857D01*
X69903857Y-97189857D02*
X69903857Y-95989857D01*
X69618142Y-95989857D01*
X69446714Y-96047000D01*
X69332428Y-96161285D01*
X69275285Y-96275571D01*
X69218142Y-96504142D01*
X69218142Y-96675571D01*
X69275285Y-96904142D01*
X69332428Y-97018428D01*
X69446714Y-97132714D01*
X69618142Y-97189857D01*
X69903857Y-97189857D01*
X68475285Y-95989857D02*
X68246714Y-95989857D01*
X68132428Y-96047000D01*
X68018142Y-96161285D01*
X67961000Y-96389857D01*
X67961000Y-96789857D01*
X68018142Y-97018428D01*
X68132428Y-97132714D01*
X68246714Y-97189857D01*
X68475285Y-97189857D01*
X68589571Y-97132714D01*
X68703857Y-97018428D01*
X68761000Y-96789857D01*
X68761000Y-96389857D01*
X68703857Y-96161285D01*
X68589571Y-96047000D01*
X68475285Y-95989857D01*
X146103857Y-78139857D02*
X146103857Y-76939857D01*
X145818142Y-76939857D01*
X145646714Y-76997000D01*
X145532428Y-77111285D01*
X145475285Y-77225571D01*
X145418142Y-77454142D01*
X145418142Y-77625571D01*
X145475285Y-77854142D01*
X145532428Y-77968428D01*
X145646714Y-78082714D01*
X145818142Y-78139857D01*
X146103857Y-78139857D01*
X144675285Y-76939857D02*
X144446714Y-76939857D01*
X144332428Y-76997000D01*
X144218142Y-77111285D01*
X144161000Y-77339857D01*
X144161000Y-77739857D01*
X144218142Y-77968428D01*
X144332428Y-78082714D01*
X144446714Y-78139857D01*
X144675285Y-78139857D01*
X144789571Y-78082714D01*
X144903857Y-77968428D01*
X144961000Y-77739857D01*
X144961000Y-77339857D01*
X144903857Y-77111285D01*
X144789571Y-76997000D01*
X144675285Y-76939857D01*
X127053857Y-78139857D02*
X127053857Y-76939857D01*
X126768142Y-76939857D01*
X126596714Y-76997000D01*
X126482428Y-77111285D01*
X126425285Y-77225571D01*
X126368142Y-77454142D01*
X126368142Y-77625571D01*
X126425285Y-77854142D01*
X126482428Y-77968428D01*
X126596714Y-78082714D01*
X126768142Y-78139857D01*
X127053857Y-78139857D01*
X125625285Y-76939857D02*
X125396714Y-76939857D01*
X125282428Y-76997000D01*
X125168142Y-77111285D01*
X125111000Y-77339857D01*
X125111000Y-77739857D01*
X125168142Y-77968428D01*
X125282428Y-78082714D01*
X125396714Y-78139857D01*
X125625285Y-78139857D01*
X125739571Y-78082714D01*
X125853857Y-77968428D01*
X125911000Y-77739857D01*
X125911000Y-77339857D01*
X125853857Y-77111285D01*
X125739571Y-76997000D01*
X125625285Y-76939857D01*
X108003857Y-78139857D02*
X108003857Y-76939857D01*
X107718142Y-76939857D01*
X107546714Y-76997000D01*
X107432428Y-77111285D01*
X107375285Y-77225571D01*
X107318142Y-77454142D01*
X107318142Y-77625571D01*
X107375285Y-77854142D01*
X107432428Y-77968428D01*
X107546714Y-78082714D01*
X107718142Y-78139857D01*
X108003857Y-78139857D01*
X106575285Y-76939857D02*
X106346714Y-76939857D01*
X106232428Y-76997000D01*
X106118142Y-77111285D01*
X106061000Y-77339857D01*
X106061000Y-77739857D01*
X106118142Y-77968428D01*
X106232428Y-78082714D01*
X106346714Y-78139857D01*
X106575285Y-78139857D01*
X106689571Y-78082714D01*
X106803857Y-77968428D01*
X106861000Y-77739857D01*
X106861000Y-77339857D01*
X106803857Y-77111285D01*
X106689571Y-76997000D01*
X106575285Y-76939857D01*
X88953857Y-78139857D02*
X88953857Y-76939857D01*
X88668142Y-76939857D01*
X88496714Y-76997000D01*
X88382428Y-77111285D01*
X88325285Y-77225571D01*
X88268142Y-77454142D01*
X88268142Y-77625571D01*
X88325285Y-77854142D01*
X88382428Y-77968428D01*
X88496714Y-78082714D01*
X88668142Y-78139857D01*
X88953857Y-78139857D01*
X87525285Y-76939857D02*
X87296714Y-76939857D01*
X87182428Y-76997000D01*
X87068142Y-77111285D01*
X87011000Y-77339857D01*
X87011000Y-77739857D01*
X87068142Y-77968428D01*
X87182428Y-78082714D01*
X87296714Y-78139857D01*
X87525285Y-78139857D01*
X87639571Y-78082714D01*
X87753857Y-77968428D01*
X87811000Y-77739857D01*
X87811000Y-77339857D01*
X87753857Y-77111285D01*
X87639571Y-76997000D01*
X87525285Y-76939857D01*
X69903857Y-78139857D02*
X69903857Y-76939857D01*
X69618142Y-76939857D01*
X69446714Y-76997000D01*
X69332428Y-77111285D01*
X69275285Y-77225571D01*
X69218142Y-77454142D01*
X69218142Y-77625571D01*
X69275285Y-77854142D01*
X69332428Y-77968428D01*
X69446714Y-78082714D01*
X69618142Y-78139857D01*
X69903857Y-78139857D01*
X68475285Y-76939857D02*
X68246714Y-76939857D01*
X68132428Y-76997000D01*
X68018142Y-77111285D01*
X67961000Y-77339857D01*
X67961000Y-77739857D01*
X68018142Y-77968428D01*
X68132428Y-78082714D01*
X68246714Y-78139857D01*
X68475285Y-78139857D01*
X68589571Y-78082714D01*
X68703857Y-77968428D01*
X68761000Y-77739857D01*
X68761000Y-77339857D01*
X68703857Y-77111285D01*
X68589571Y-76997000D01*
X68475285Y-76939857D01*
X146103857Y-59089857D02*
X146103857Y-57889857D01*
X145818142Y-57889857D01*
X145646714Y-57947000D01*
X145532428Y-58061285D01*
X145475285Y-58175571D01*
X145418142Y-58404142D01*
X145418142Y-58575571D01*
X145475285Y-58804142D01*
X145532428Y-58918428D01*
X145646714Y-59032714D01*
X145818142Y-59089857D01*
X146103857Y-59089857D01*
X144675285Y-57889857D02*
X144446714Y-57889857D01*
X144332428Y-57947000D01*
X144218142Y-58061285D01*
X144161000Y-58289857D01*
X144161000Y-58689857D01*
X144218142Y-58918428D01*
X144332428Y-59032714D01*
X144446714Y-59089857D01*
X144675285Y-59089857D01*
X144789571Y-59032714D01*
X144903857Y-58918428D01*
X144961000Y-58689857D01*
X144961000Y-58289857D01*
X144903857Y-58061285D01*
X144789571Y-57947000D01*
X144675285Y-57889857D01*
X127053857Y-59089857D02*
X127053857Y-57889857D01*
X126768142Y-57889857D01*
X126596714Y-57947000D01*
X126482428Y-58061285D01*
X126425285Y-58175571D01*
X126368142Y-58404142D01*
X126368142Y-58575571D01*
X126425285Y-58804142D01*
X126482428Y-58918428D01*
X126596714Y-59032714D01*
X126768142Y-59089857D01*
X127053857Y-59089857D01*
X125625285Y-57889857D02*
X125396714Y-57889857D01*
X125282428Y-57947000D01*
X125168142Y-58061285D01*
X125111000Y-58289857D01*
X125111000Y-58689857D01*
X125168142Y-58918428D01*
X125282428Y-59032714D01*
X125396714Y-59089857D01*
X125625285Y-59089857D01*
X125739571Y-59032714D01*
X125853857Y-58918428D01*
X125911000Y-58689857D01*
X125911000Y-58289857D01*
X125853857Y-58061285D01*
X125739571Y-57947000D01*
X125625285Y-57889857D01*
X108003857Y-59089857D02*
X108003857Y-57889857D01*
X107718142Y-57889857D01*
X107546714Y-57947000D01*
X107432428Y-58061285D01*
X107375285Y-58175571D01*
X107318142Y-58404142D01*
X107318142Y-58575571D01*
X107375285Y-58804142D01*
X107432428Y-58918428D01*
X107546714Y-59032714D01*
X107718142Y-59089857D01*
X108003857Y-59089857D01*
X106575285Y-57889857D02*
X106346714Y-57889857D01*
X106232428Y-57947000D01*
X106118142Y-58061285D01*
X106061000Y-58289857D01*
X106061000Y-58689857D01*
X106118142Y-58918428D01*
X106232428Y-59032714D01*
X106346714Y-59089857D01*
X106575285Y-59089857D01*
X106689571Y-59032714D01*
X106803857Y-58918428D01*
X106861000Y-58689857D01*
X106861000Y-58289857D01*
X106803857Y-58061285D01*
X106689571Y-57947000D01*
X106575285Y-57889857D01*
X88953857Y-59089857D02*
X88953857Y-57889857D01*
X88668142Y-57889857D01*
X88496714Y-57947000D01*
X88382428Y-58061285D01*
X88325285Y-58175571D01*
X88268142Y-58404142D01*
X88268142Y-58575571D01*
X88325285Y-58804142D01*
X88382428Y-58918428D01*
X88496714Y-59032714D01*
X88668142Y-59089857D01*
X88953857Y-59089857D01*
X87525285Y-57889857D02*
X87296714Y-57889857D01*
X87182428Y-57947000D01*
X87068142Y-58061285D01*
X87011000Y-58289857D01*
X87011000Y-58689857D01*
X87068142Y-58918428D01*
X87182428Y-59032714D01*
X87296714Y-59089857D01*
X87525285Y-59089857D01*
X87639571Y-59032714D01*
X87753857Y-58918428D01*
X87811000Y-58689857D01*
X87811000Y-58289857D01*
X87753857Y-58061285D01*
X87639571Y-57947000D01*
X87525285Y-57889857D01*
X69903857Y-59089857D02*
X69903857Y-57889857D01*
X69618142Y-57889857D01*
X69446714Y-57947000D01*
X69332428Y-58061285D01*
X69275285Y-58175571D01*
X69218142Y-58404142D01*
X69218142Y-58575571D01*
X69275285Y-58804142D01*
X69332428Y-58918428D01*
X69446714Y-59032714D01*
X69618142Y-59089857D01*
X69903857Y-59089857D01*
X68475285Y-57889857D02*
X68246714Y-57889857D01*
X68132428Y-57947000D01*
X68018142Y-58061285D01*
X67961000Y-58289857D01*
X67961000Y-58689857D01*
X68018142Y-58918428D01*
X68132428Y-59032714D01*
X68246714Y-59089857D01*
X68475285Y-59089857D01*
X68589571Y-59032714D01*
X68703857Y-58918428D01*
X68761000Y-58689857D01*
X68761000Y-58289857D01*
X68703857Y-58061285D01*
X68589571Y-57947000D01*
X68475285Y-57889857D01*
X146103857Y-40039857D02*
X146103857Y-38839857D01*
X145818142Y-38839857D01*
X145646714Y-38897000D01*
X145532428Y-39011285D01*
X145475285Y-39125571D01*
X145418142Y-39354142D01*
X145418142Y-39525571D01*
X145475285Y-39754142D01*
X145532428Y-39868428D01*
X145646714Y-39982714D01*
X145818142Y-40039857D01*
X146103857Y-40039857D01*
X144675285Y-38839857D02*
X144446714Y-38839857D01*
X144332428Y-38897000D01*
X144218142Y-39011285D01*
X144161000Y-39239857D01*
X144161000Y-39639857D01*
X144218142Y-39868428D01*
X144332428Y-39982714D01*
X144446714Y-40039857D01*
X144675285Y-40039857D01*
X144789571Y-39982714D01*
X144903857Y-39868428D01*
X144961000Y-39639857D01*
X144961000Y-39239857D01*
X144903857Y-39011285D01*
X144789571Y-38897000D01*
X144675285Y-38839857D01*
X127053857Y-40039857D02*
X127053857Y-38839857D01*
X126768142Y-38839857D01*
X126596714Y-38897000D01*
X126482428Y-39011285D01*
X126425285Y-39125571D01*
X126368142Y-39354142D01*
X126368142Y-39525571D01*
X126425285Y-39754142D01*
X126482428Y-39868428D01*
X126596714Y-39982714D01*
X126768142Y-40039857D01*
X127053857Y-40039857D01*
X125625285Y-38839857D02*
X125396714Y-38839857D01*
X125282428Y-38897000D01*
X125168142Y-39011285D01*
X125111000Y-39239857D01*
X125111000Y-39639857D01*
X125168142Y-39868428D01*
X125282428Y-39982714D01*
X125396714Y-40039857D01*
X125625285Y-40039857D01*
X125739571Y-39982714D01*
X125853857Y-39868428D01*
X125911000Y-39639857D01*
X125911000Y-39239857D01*
X125853857Y-39011285D01*
X125739571Y-38897000D01*
X125625285Y-38839857D01*
X108003857Y-40039857D02*
X108003857Y-38839857D01*
X107718142Y-38839857D01*
X107546714Y-38897000D01*
X107432428Y-39011285D01*
X107375285Y-39125571D01*
X107318142Y-39354142D01*
X107318142Y-39525571D01*
X107375285Y-39754142D01*
X107432428Y-39868428D01*
X107546714Y-39982714D01*
X107718142Y-40039857D01*
X108003857Y-40039857D01*
X106575285Y-38839857D02*
X106346714Y-38839857D01*
X106232428Y-38897000D01*
X106118142Y-39011285D01*
X106061000Y-39239857D01*
X106061000Y-39639857D01*
X106118142Y-39868428D01*
X106232428Y-39982714D01*
X106346714Y-40039857D01*
X106575285Y-40039857D01*
X106689571Y-39982714D01*
X106803857Y-39868428D01*
X106861000Y-39639857D01*
X106861000Y-39239857D01*
X106803857Y-39011285D01*
X106689571Y-38897000D01*
X106575285Y-38839857D01*
X88953857Y-40039857D02*
X88953857Y-38839857D01*
X88668142Y-38839857D01*
X88496714Y-38897000D01*
X88382428Y-39011285D01*
X88325285Y-39125571D01*
X88268142Y-39354142D01*
X88268142Y-39525571D01*
X88325285Y-39754142D01*
X88382428Y-39868428D01*
X88496714Y-39982714D01*
X88668142Y-40039857D01*
X88953857Y-40039857D01*
X87525285Y-38839857D02*
X87296714Y-38839857D01*
X87182428Y-38897000D01*
X87068142Y-39011285D01*
X87011000Y-39239857D01*
X87011000Y-39639857D01*
X87068142Y-39868428D01*
X87182428Y-39982714D01*
X87296714Y-40039857D01*
X87525285Y-40039857D01*
X87639571Y-39982714D01*
X87753857Y-39868428D01*
X87811000Y-39639857D01*
X87811000Y-39239857D01*
X87753857Y-39011285D01*
X87639571Y-38897000D01*
X87525285Y-38839857D01*
X144729142Y-118576714D02*
X143814857Y-118576714D01*
X144272000Y-119033857D02*
X144272000Y-118119571D01*
X125679142Y-118576714D02*
X124764857Y-118576714D01*
X125222000Y-119033857D02*
X125222000Y-118119571D01*
X106629142Y-118576714D02*
X105714857Y-118576714D01*
X106172000Y-119033857D02*
X106172000Y-118119571D01*
X87579142Y-118576714D02*
X86664857Y-118576714D01*
X87122000Y-119033857D02*
X87122000Y-118119571D01*
X68529142Y-118576714D02*
X67614857Y-118576714D01*
X68072000Y-119033857D02*
X68072000Y-118119571D01*
X144729142Y-99526714D02*
X143814857Y-99526714D01*
X144272000Y-99983857D02*
X144272000Y-99069571D01*
X125679142Y-99526714D02*
X124764857Y-99526714D01*
X125222000Y-99983857D02*
X125222000Y-99069571D01*
X106629142Y-99526714D02*
X105714857Y-99526714D01*
X106172000Y-99983857D02*
X106172000Y-99069571D01*
X87579142Y-99526714D02*
X86664857Y-99526714D01*
X87122000Y-99983857D02*
X87122000Y-99069571D01*
X68529142Y-99526714D02*
X67614857Y-99526714D01*
X68072000Y-99983857D02*
X68072000Y-99069571D01*
X144729142Y-80476714D02*
X143814857Y-80476714D01*
X144272000Y-80933857D02*
X144272000Y-80019571D01*
X125679142Y-80476714D02*
X124764857Y-80476714D01*
X125222000Y-80933857D02*
X125222000Y-80019571D01*
X106629142Y-80476714D02*
X105714857Y-80476714D01*
X106172000Y-80933857D02*
X106172000Y-80019571D01*
X87579142Y-80476714D02*
X86664857Y-80476714D01*
X87122000Y-80933857D02*
X87122000Y-80019571D01*
X68529142Y-80476714D02*
X67614857Y-80476714D01*
X68072000Y-80933857D02*
X68072000Y-80019571D01*
X144729142Y-61426714D02*
X143814857Y-61426714D01*
X144272000Y-61883857D02*
X144272000Y-60969571D01*
X125679142Y-61426714D02*
X124764857Y-61426714D01*
X125222000Y-61883857D02*
X125222000Y-60969571D01*
X106629142Y-61426714D02*
X105714857Y-61426714D01*
X106172000Y-61883857D02*
X106172000Y-60969571D01*
X87579142Y-61426714D02*
X86664857Y-61426714D01*
X87122000Y-61883857D02*
X87122000Y-60969571D01*
X68529142Y-61426714D02*
X67614857Y-61426714D01*
X68072000Y-61883857D02*
X68072000Y-60969571D01*
X144729142Y-42376714D02*
X143814857Y-42376714D01*
X144272000Y-42833857D02*
X144272000Y-41919571D01*
X125679142Y-42376714D02*
X124764857Y-42376714D01*
X125222000Y-42833857D02*
X125222000Y-41919571D01*
X106629142Y-42376714D02*
X105714857Y-42376714D01*
X106172000Y-42833857D02*
X106172000Y-41919571D01*
X87579142Y-42376714D02*
X86664857Y-42376714D01*
X87122000Y-42833857D02*
X87122000Y-41919571D01*
X69903857Y-40039857D02*
X69903857Y-38839857D01*
X69618142Y-38839857D01*
X69446714Y-38897000D01*
X69332428Y-39011285D01*
X69275285Y-39125571D01*
X69218142Y-39354142D01*
X69218142Y-39525571D01*
X69275285Y-39754142D01*
X69332428Y-39868428D01*
X69446714Y-39982714D01*
X69618142Y-40039857D01*
X69903857Y-40039857D01*
X68475285Y-38839857D02*
X68246714Y-38839857D01*
X68132428Y-38897000D01*
X68018142Y-39011285D01*
X67961000Y-39239857D01*
X67961000Y-39639857D01*
X68018142Y-39868428D01*
X68132428Y-39982714D01*
X68246714Y-40039857D01*
X68475285Y-40039857D01*
X68589571Y-39982714D01*
X68703857Y-39868428D01*
X68761000Y-39639857D01*
X68761000Y-39239857D01*
X68703857Y-39011285D01*
X68589571Y-38897000D01*
X68475285Y-38839857D01*
X68529142Y-42376714D02*
X67614857Y-42376714D01*
X68072000Y-42833857D02*
X68072000Y-41919571D01*
X80975142Y-42630714D02*
X80060857Y-42630714D01*
X80400571Y-34959857D02*
X80800571Y-34388428D01*
X81086285Y-34959857D02*
X81086285Y-33759857D01*
X80629142Y-33759857D01*
X80514857Y-33817000D01*
X80457714Y-33874142D01*
X80400571Y-33988428D01*
X80400571Y-34159857D01*
X80457714Y-34274142D01*
X80514857Y-34331285D01*
X80629142Y-34388428D01*
X81086285Y-34388428D01*
X67700571Y-34959857D02*
X68100571Y-34388428D01*
X68386285Y-34959857D02*
X68386285Y-33759857D01*
X67929142Y-33759857D01*
X67814857Y-33817000D01*
X67757714Y-33874142D01*
X67700571Y-33988428D01*
X67700571Y-34159857D01*
X67757714Y-34274142D01*
X67814857Y-34331285D01*
X67929142Y-34388428D01*
X68386285Y-34388428D01*
X69164142Y-28152714D02*
X68249857Y-28152714D01*
X68707000Y-28609857D02*
X68707000Y-27695571D01*
X78368571Y-41957571D02*
X78425714Y-42014714D01*
X78597142Y-42071857D01*
X78711428Y-42071857D01*
X78882857Y-42014714D01*
X78997142Y-41900428D01*
X79054285Y-41786142D01*
X79111428Y-41557571D01*
X79111428Y-41386142D01*
X79054285Y-41157571D01*
X78997142Y-41043285D01*
X78882857Y-40929000D01*
X78711428Y-40871857D01*
X78597142Y-40871857D01*
X78425714Y-40929000D01*
X78368571Y-40986142D01*
X80825857Y-32419857D02*
X80825857Y-31219857D01*
X80540142Y-31219857D01*
X80368714Y-31277000D01*
X80254428Y-31391285D01*
X80197285Y-31505571D01*
X80140142Y-31734142D01*
X80140142Y-31905571D01*
X80197285Y-32134142D01*
X80254428Y-32248428D01*
X80368714Y-32362714D01*
X80540142Y-32419857D01*
X80825857Y-32419857D01*
X79397285Y-31219857D02*
X79168714Y-31219857D01*
X79054428Y-31277000D01*
X78940142Y-31391285D01*
X78883000Y-31619857D01*
X78883000Y-32019857D01*
X78940142Y-32248428D01*
X79054428Y-32362714D01*
X79168714Y-32419857D01*
X79397285Y-32419857D01*
X79511571Y-32362714D01*
X79625857Y-32248428D01*
X79683000Y-32019857D01*
X79683000Y-31619857D01*
X79625857Y-31391285D01*
X79511571Y-31277000D01*
X79397285Y-31219857D01*
X80975142Y-27390714D02*
X80060857Y-27390714D01*
X69180000Y-32419857D02*
X69180000Y-31219857D01*
X68894285Y-31219857D01*
X68722857Y-31277000D01*
X68608571Y-31391285D01*
X68551428Y-31505571D01*
X68494285Y-31734142D01*
X68494285Y-31905571D01*
X68551428Y-32134142D01*
X68608571Y-32248428D01*
X68722857Y-32362714D01*
X68894285Y-32419857D01*
X69180000Y-32419857D01*
X67980000Y-32419857D02*
X67980000Y-31219857D01*
X80864000Y-40293857D02*
X80864000Y-39093857D01*
X80578285Y-39093857D01*
X80406857Y-39151000D01*
X80292571Y-39265285D01*
X80235428Y-39379571D01*
X80178285Y-39608142D01*
X80178285Y-39779571D01*
X80235428Y-40008142D01*
X80292571Y-40122428D01*
X80406857Y-40236714D01*
X80578285Y-40293857D01*
X80864000Y-40293857D01*
X79664000Y-40293857D02*
X79664000Y-39093857D01*
X76844571Y-28495571D02*
X76901714Y-28552714D01*
X77073142Y-28609857D01*
X77187428Y-28609857D01*
X77358857Y-28552714D01*
X77473142Y-28438428D01*
X77530285Y-28324142D01*
X77587428Y-28095571D01*
X77587428Y-27924142D01*
X77530285Y-27695571D01*
X77473142Y-27581285D01*
X77358857Y-27467000D01*
X77187428Y-27409857D01*
X77073142Y-27409857D01*
X76901714Y-27467000D01*
X76844571Y-27524142D01*
D11*
G04 #@! TO.C,L1*
G36*
X154305000Y-108218000D02*
X153797000Y-108726000D01*
X154305000Y-108726000D01*
X154305000Y-108218000D01*
G37*
X154305000Y-108218000D02*
X153797000Y-108726000D01*
X154305000Y-108726000D01*
X154305000Y-108218000D01*
G36*
X135255000Y-108218000D02*
X134747000Y-108726000D01*
X135255000Y-108726000D01*
X135255000Y-108218000D01*
G37*
X135255000Y-108218000D02*
X134747000Y-108726000D01*
X135255000Y-108726000D01*
X135255000Y-108218000D01*
G36*
X116205000Y-108218000D02*
X115697000Y-108726000D01*
X116205000Y-108726000D01*
X116205000Y-108218000D01*
G37*
X116205000Y-108218000D02*
X115697000Y-108726000D01*
X116205000Y-108726000D01*
X116205000Y-108218000D01*
G36*
X97155000Y-108218000D02*
X96647000Y-108726000D01*
X97155000Y-108726000D01*
X97155000Y-108218000D01*
G37*
X97155000Y-108218000D02*
X96647000Y-108726000D01*
X97155000Y-108726000D01*
X97155000Y-108218000D01*
G36*
X78105000Y-108218000D02*
X77597000Y-108726000D01*
X78105000Y-108726000D01*
X78105000Y-108218000D01*
G37*
X78105000Y-108218000D02*
X77597000Y-108726000D01*
X78105000Y-108726000D01*
X78105000Y-108218000D01*
G36*
X154305000Y-89168000D02*
X153797000Y-89676000D01*
X154305000Y-89676000D01*
X154305000Y-89168000D01*
G37*
X154305000Y-89168000D02*
X153797000Y-89676000D01*
X154305000Y-89676000D01*
X154305000Y-89168000D01*
G36*
X135255000Y-89168000D02*
X134747000Y-89676000D01*
X135255000Y-89676000D01*
X135255000Y-89168000D01*
G37*
X135255000Y-89168000D02*
X134747000Y-89676000D01*
X135255000Y-89676000D01*
X135255000Y-89168000D01*
G36*
X116205000Y-89168000D02*
X115697000Y-89676000D01*
X116205000Y-89676000D01*
X116205000Y-89168000D01*
G37*
X116205000Y-89168000D02*
X115697000Y-89676000D01*
X116205000Y-89676000D01*
X116205000Y-89168000D01*
G36*
X97155000Y-89168000D02*
X96647000Y-89676000D01*
X97155000Y-89676000D01*
X97155000Y-89168000D01*
G37*
X97155000Y-89168000D02*
X96647000Y-89676000D01*
X97155000Y-89676000D01*
X97155000Y-89168000D01*
G36*
X78105000Y-89168000D02*
X77597000Y-89676000D01*
X78105000Y-89676000D01*
X78105000Y-89168000D01*
G37*
X78105000Y-89168000D02*
X77597000Y-89676000D01*
X78105000Y-89676000D01*
X78105000Y-89168000D01*
G36*
X154305000Y-70118000D02*
X153797000Y-70626000D01*
X154305000Y-70626000D01*
X154305000Y-70118000D01*
G37*
X154305000Y-70118000D02*
X153797000Y-70626000D01*
X154305000Y-70626000D01*
X154305000Y-70118000D01*
G36*
X135255000Y-70118000D02*
X134747000Y-70626000D01*
X135255000Y-70626000D01*
X135255000Y-70118000D01*
G37*
X135255000Y-70118000D02*
X134747000Y-70626000D01*
X135255000Y-70626000D01*
X135255000Y-70118000D01*
G36*
X116205000Y-70118000D02*
X115697000Y-70626000D01*
X116205000Y-70626000D01*
X116205000Y-70118000D01*
G37*
X116205000Y-70118000D02*
X115697000Y-70626000D01*
X116205000Y-70626000D01*
X116205000Y-70118000D01*
G36*
X97155000Y-70118000D02*
X96647000Y-70626000D01*
X97155000Y-70626000D01*
X97155000Y-70118000D01*
G37*
X97155000Y-70118000D02*
X96647000Y-70626000D01*
X97155000Y-70626000D01*
X97155000Y-70118000D01*
G36*
X78105000Y-70118000D02*
X77597000Y-70626000D01*
X78105000Y-70626000D01*
X78105000Y-70118000D01*
G37*
X78105000Y-70118000D02*
X77597000Y-70626000D01*
X78105000Y-70626000D01*
X78105000Y-70118000D01*
G36*
X154305000Y-51068000D02*
X153797000Y-51576000D01*
X154305000Y-51576000D01*
X154305000Y-51068000D01*
G37*
X154305000Y-51068000D02*
X153797000Y-51576000D01*
X154305000Y-51576000D01*
X154305000Y-51068000D01*
G36*
X135255000Y-51068000D02*
X134747000Y-51576000D01*
X135255000Y-51576000D01*
X135255000Y-51068000D01*
G37*
X135255000Y-51068000D02*
X134747000Y-51576000D01*
X135255000Y-51576000D01*
X135255000Y-51068000D01*
G36*
X116205000Y-51068000D02*
X115697000Y-51576000D01*
X116205000Y-51576000D01*
X116205000Y-51068000D01*
G37*
X116205000Y-51068000D02*
X115697000Y-51576000D01*
X116205000Y-51576000D01*
X116205000Y-51068000D01*
G36*
X97155000Y-51068000D02*
X96647000Y-51576000D01*
X97155000Y-51576000D01*
X97155000Y-51068000D01*
G37*
X97155000Y-51068000D02*
X96647000Y-51576000D01*
X97155000Y-51576000D01*
X97155000Y-51068000D01*
G36*
X78105000Y-51068000D02*
X77597000Y-51576000D01*
X78105000Y-51576000D01*
X78105000Y-51068000D01*
G37*
X78105000Y-51068000D02*
X77597000Y-51576000D01*
X78105000Y-51576000D01*
X78105000Y-51068000D01*
G36*
X154305000Y-32018000D02*
X153797000Y-32526000D01*
X154305000Y-32526000D01*
X154305000Y-32018000D01*
G37*
X154305000Y-32018000D02*
X153797000Y-32526000D01*
X154305000Y-32526000D01*
X154305000Y-32018000D01*
G36*
X135255000Y-32018000D02*
X134747000Y-32526000D01*
X135255000Y-32526000D01*
X135255000Y-32018000D01*
G37*
X135255000Y-32018000D02*
X134747000Y-32526000D01*
X135255000Y-32526000D01*
X135255000Y-32018000D01*
G36*
X116205000Y-32018000D02*
X115697000Y-32526000D01*
X116205000Y-32526000D01*
X116205000Y-32018000D01*
G37*
X116205000Y-32018000D02*
X115697000Y-32526000D01*
X116205000Y-32526000D01*
X116205000Y-32018000D01*
G36*
X97155000Y-32018000D02*
X96647000Y-32526000D01*
X97155000Y-32526000D01*
X97155000Y-32018000D01*
G37*
X97155000Y-32018000D02*
X96647000Y-32526000D01*
X97155000Y-32526000D01*
X97155000Y-32018000D01*
G36*
X78105000Y-32018000D02*
X77597000Y-32526000D01*
X78105000Y-32526000D01*
X78105000Y-32018000D01*
G37*
X78105000Y-32018000D02*
X77597000Y-32526000D01*
X78105000Y-32526000D01*
X78105000Y-32018000D01*
G04 #@! TO.C,SW1*
X80922000Y-29187000D02*
X80922000Y-42187000D01*
X67922000Y-29187000D02*
X80922000Y-29187000D01*
X67922000Y-42187000D02*
X67922000Y-29187000D01*
X67922000Y-42187000D02*
X80922000Y-42187000D01*
G04 #@! TO.C,SW24*
X138072000Y-105387000D02*
X138072000Y-118387000D01*
X125072000Y-105387000D02*
X138072000Y-105387000D01*
X125072000Y-118387000D02*
X125072000Y-105387000D01*
X125072000Y-118387000D02*
X138072000Y-118387000D01*
G04 #@! TO.C,SW23*
X119022000Y-105387000D02*
X119022000Y-118387000D01*
X106022000Y-105387000D02*
X119022000Y-105387000D01*
X106022000Y-118387000D02*
X106022000Y-105387000D01*
X106022000Y-118387000D02*
X119022000Y-118387000D01*
G04 #@! TO.C,SW22*
X99972000Y-105387000D02*
X99972000Y-118387000D01*
X86972000Y-105387000D02*
X99972000Y-105387000D01*
X86972000Y-118387000D02*
X86972000Y-105387000D01*
X86972000Y-118387000D02*
X99972000Y-118387000D01*
G04 #@! TO.C,SW21*
X80922000Y-105387000D02*
X80922000Y-118387000D01*
X67922000Y-105387000D02*
X80922000Y-105387000D01*
X67922000Y-118387000D02*
X67922000Y-105387000D01*
X67922000Y-118387000D02*
X80922000Y-118387000D01*
G04 #@! TO.C,SW19*
X138072000Y-86337000D02*
X138072000Y-99337000D01*
X125072000Y-86337000D02*
X138072000Y-86337000D01*
X125072000Y-99337000D02*
X125072000Y-86337000D01*
X125072000Y-99337000D02*
X138072000Y-99337000D01*
G04 #@! TO.C,SW18*
X119022000Y-86337000D02*
X119022000Y-99337000D01*
X106022000Y-86337000D02*
X119022000Y-86337000D01*
X106022000Y-99337000D02*
X106022000Y-86337000D01*
X106022000Y-99337000D02*
X119022000Y-99337000D01*
G04 #@! TO.C,SW17*
X99972000Y-86337000D02*
X99972000Y-99337000D01*
X86972000Y-86337000D02*
X99972000Y-86337000D01*
X86972000Y-99337000D02*
X86972000Y-86337000D01*
X86972000Y-99337000D02*
X99972000Y-99337000D01*
G04 #@! TO.C,SW16*
X80922000Y-86337000D02*
X80922000Y-99337000D01*
X67922000Y-86337000D02*
X80922000Y-86337000D01*
X67922000Y-99337000D02*
X67922000Y-86337000D01*
X67922000Y-99337000D02*
X80922000Y-99337000D01*
G04 #@! TO.C,SW14*
X138072000Y-67287000D02*
X138072000Y-80287000D01*
X125072000Y-67287000D02*
X138072000Y-67287000D01*
X125072000Y-80287000D02*
X125072000Y-67287000D01*
X125072000Y-80287000D02*
X138072000Y-80287000D01*
G04 #@! TO.C,SW12*
X99972000Y-67287000D02*
X99972000Y-80287000D01*
X86972000Y-67287000D02*
X99972000Y-67287000D01*
X86972000Y-80287000D02*
X86972000Y-67287000D01*
X86972000Y-80287000D02*
X99972000Y-80287000D01*
G04 #@! TO.C,SW11*
X80922000Y-67287000D02*
X80922000Y-80287000D01*
X67922000Y-67287000D02*
X80922000Y-67287000D01*
X67922000Y-80287000D02*
X67922000Y-67287000D01*
X67922000Y-80287000D02*
X80922000Y-80287000D01*
G04 #@! TO.C,SW9*
X138072000Y-48237000D02*
X138072000Y-61237000D01*
X125072000Y-48237000D02*
X138072000Y-48237000D01*
X125072000Y-61237000D02*
X125072000Y-48237000D01*
X125072000Y-61237000D02*
X138072000Y-61237000D01*
G04 #@! TO.C,SW8*
X119022000Y-48237000D02*
X119022000Y-61237000D01*
X106022000Y-48237000D02*
X119022000Y-48237000D01*
X106022000Y-61237000D02*
X106022000Y-48237000D01*
X106022000Y-61237000D02*
X119022000Y-61237000D01*
G04 #@! TO.C,SW7*
X99972000Y-48237000D02*
X99972000Y-61237000D01*
X86972000Y-48237000D02*
X99972000Y-48237000D01*
X86972000Y-61237000D02*
X86972000Y-48237000D01*
X86972000Y-61237000D02*
X99972000Y-61237000D01*
G04 #@! TO.C,SW6*
X80922000Y-48237000D02*
X80922000Y-61237000D01*
X67922000Y-48237000D02*
X80922000Y-48237000D01*
X67922000Y-61237000D02*
X67922000Y-48237000D01*
X67922000Y-61237000D02*
X80922000Y-61237000D01*
G04 #@! TO.C,SW5*
X157122000Y-29187000D02*
X157122000Y-42187000D01*
X144122000Y-29187000D02*
X157122000Y-29187000D01*
X144122000Y-42187000D02*
X144122000Y-29187000D01*
X144122000Y-42187000D02*
X157122000Y-42187000D01*
G04 #@! TO.C,SW4*
X138072000Y-29187000D02*
X138072000Y-42187000D01*
X125072000Y-29187000D02*
X138072000Y-29187000D01*
X125072000Y-42187000D02*
X125072000Y-29187000D01*
X125072000Y-42187000D02*
X138072000Y-42187000D01*
G04 #@! TO.C,SW2*
X99972000Y-29187000D02*
X99972000Y-42187000D01*
X86972000Y-29187000D02*
X99972000Y-29187000D01*
X86972000Y-42187000D02*
X86972000Y-29187000D01*
X86972000Y-42187000D02*
X99972000Y-42187000D01*
G04 #@! TO.C,SW3*
X119022000Y-29187000D02*
X119022000Y-42187000D01*
X106022000Y-29187000D02*
X119022000Y-29187000D01*
X106022000Y-42187000D02*
X106022000Y-29187000D01*
X106022000Y-42187000D02*
X119022000Y-42187000D01*
G04 #@! TO.C,SW10*
X157122000Y-48237000D02*
X157122000Y-61237000D01*
X144122000Y-48237000D02*
X157122000Y-48237000D01*
X144122000Y-61237000D02*
X144122000Y-48237000D01*
X144122000Y-61237000D02*
X157122000Y-61237000D01*
G04 #@! TO.C,SW15*
X157122000Y-67287000D02*
X157122000Y-80287000D01*
X144122000Y-67287000D02*
X157122000Y-67287000D01*
X144122000Y-80287000D02*
X144122000Y-67287000D01*
X144122000Y-80287000D02*
X157122000Y-80287000D01*
G04 #@! TO.C,SW20*
X157122000Y-86337000D02*
X157122000Y-99337000D01*
X144122000Y-86337000D02*
X157122000Y-86337000D01*
X144122000Y-99337000D02*
X144122000Y-86337000D01*
X144122000Y-99337000D02*
X157122000Y-99337000D01*
X157122000Y-105387000D02*
X157122000Y-118387000D01*
X144122000Y-105387000D02*
X157122000Y-105387000D01*
X144122000Y-118387000D02*
X144122000Y-105387000D01*
X144122000Y-118387000D02*
X157122000Y-118387000D01*
G04 #@! TO.C,SW13*
X119022000Y-67287000D02*
X119022000Y-80287000D01*
X106022000Y-67287000D02*
X119022000Y-67287000D01*
X106022000Y-80287000D02*
X106022000Y-67287000D01*
X106022000Y-80287000D02*
X119022000Y-80287000D01*
D10*
G04 #@! TO.C,D*
X71992000Y-42457000D02*
X71992000Y-44157000D01*
X70742000Y-43307000D02*
X71992000Y-44157000D01*
X70742000Y-43307000D02*
X71992000Y-42457000D01*
X70741200Y-43307000D02*
X70341200Y-43307000D01*
X70741200Y-42507000D02*
X70741200Y-44107000D01*
X110092000Y-42457000D02*
X110092000Y-44157000D01*
X108842000Y-43307000D02*
X110092000Y-44157000D01*
X108842000Y-43307000D02*
X110092000Y-42457000D01*
X108841200Y-43307000D02*
X108441200Y-43307000D01*
X108841200Y-42507000D02*
X108841200Y-44107000D01*
X71992000Y-61507000D02*
X71992000Y-63207000D01*
X70742000Y-62357000D02*
X71992000Y-63207000D01*
X70742000Y-62357000D02*
X71992000Y-61507000D01*
X70741200Y-62357000D02*
X70341200Y-62357000D01*
X70741200Y-61557000D02*
X70741200Y-63157000D01*
X91042000Y-42457000D02*
X91042000Y-44157000D01*
X89792000Y-43307000D02*
X91042000Y-44157000D01*
X89792000Y-43307000D02*
X91042000Y-42457000D01*
X89791200Y-43307000D02*
X89391200Y-43307000D01*
X89791200Y-42507000D02*
X89791200Y-44107000D01*
X129142000Y-42457000D02*
X129142000Y-44157000D01*
X127892000Y-43307000D02*
X129142000Y-44157000D01*
X127892000Y-43307000D02*
X129142000Y-42457000D01*
X127891200Y-43307000D02*
X127491200Y-43307000D01*
X127891200Y-42507000D02*
X127891200Y-44107000D01*
X148192000Y-42457000D02*
X148192000Y-44157000D01*
X146942000Y-43307000D02*
X148192000Y-44157000D01*
X146942000Y-43307000D02*
X148192000Y-42457000D01*
X146941200Y-43307000D02*
X146541200Y-43307000D01*
X146941200Y-42507000D02*
X146941200Y-44107000D01*
X91042000Y-61507000D02*
X91042000Y-63207000D01*
X89792000Y-62357000D02*
X91042000Y-63207000D01*
X89792000Y-62357000D02*
X91042000Y-61507000D01*
X89791200Y-62357000D02*
X89391200Y-62357000D01*
X89791200Y-61557000D02*
X89791200Y-63157000D01*
X110092000Y-61507000D02*
X110092000Y-63207000D01*
X108842000Y-62357000D02*
X110092000Y-63207000D01*
X108842000Y-62357000D02*
X110092000Y-61507000D01*
X108841200Y-62357000D02*
X108441200Y-62357000D01*
X108841200Y-61557000D02*
X108841200Y-63157000D01*
X129142000Y-61507000D02*
X129142000Y-63207000D01*
X127892000Y-62357000D02*
X129142000Y-63207000D01*
X127892000Y-62357000D02*
X129142000Y-61507000D01*
X127891200Y-62357000D02*
X127491200Y-62357000D01*
X127891200Y-61557000D02*
X127891200Y-63157000D01*
X148192000Y-61507000D02*
X148192000Y-63207000D01*
X146942000Y-62357000D02*
X148192000Y-63207000D01*
X146942000Y-62357000D02*
X148192000Y-61507000D01*
X146941200Y-62357000D02*
X146541200Y-62357000D01*
X146941200Y-61557000D02*
X146941200Y-63157000D01*
X71992000Y-80557000D02*
X71992000Y-82257000D01*
X70742000Y-81407000D02*
X71992000Y-82257000D01*
X70742000Y-81407000D02*
X71992000Y-80557000D01*
X70741200Y-81407000D02*
X70341200Y-81407000D01*
X70741200Y-80607000D02*
X70741200Y-82207000D01*
X91042000Y-80557000D02*
X91042000Y-82257000D01*
X89792000Y-81407000D02*
X91042000Y-82257000D01*
X89792000Y-81407000D02*
X91042000Y-80557000D01*
X89791200Y-81407000D02*
X89391200Y-81407000D01*
X89791200Y-80607000D02*
X89791200Y-82207000D01*
X110092000Y-80557000D02*
X110092000Y-82257000D01*
X108842000Y-81407000D02*
X110092000Y-82257000D01*
X108842000Y-81407000D02*
X110092000Y-80557000D01*
X108841200Y-81407000D02*
X108441200Y-81407000D01*
X108841200Y-80607000D02*
X108841200Y-82207000D01*
X129142000Y-80557000D02*
X129142000Y-82257000D01*
X127892000Y-81407000D02*
X129142000Y-82257000D01*
X127892000Y-81407000D02*
X129142000Y-80557000D01*
X127891200Y-81407000D02*
X127491200Y-81407000D01*
X127891200Y-80607000D02*
X127891200Y-82207000D01*
X148192000Y-80557000D02*
X148192000Y-82257000D01*
X146942000Y-81407000D02*
X148192000Y-82257000D01*
X146942000Y-81407000D02*
X148192000Y-80557000D01*
X146941200Y-81407000D02*
X146541200Y-81407000D01*
X146941200Y-80607000D02*
X146941200Y-82207000D01*
X71992000Y-99607000D02*
X71992000Y-101307000D01*
X70742000Y-100457000D02*
X71992000Y-101307000D01*
X70742000Y-100457000D02*
X71992000Y-99607000D01*
X70741200Y-100457000D02*
X70341200Y-100457000D01*
X70741200Y-99657000D02*
X70741200Y-101257000D01*
X91042000Y-99607000D02*
X91042000Y-101307000D01*
X89792000Y-100457000D02*
X91042000Y-101307000D01*
X89792000Y-100457000D02*
X91042000Y-99607000D01*
X89791200Y-100457000D02*
X89391200Y-100457000D01*
X89791200Y-99657000D02*
X89791200Y-101257000D01*
X110092000Y-99607000D02*
X110092000Y-101307000D01*
X108842000Y-100457000D02*
X110092000Y-101307000D01*
X108842000Y-100457000D02*
X110092000Y-99607000D01*
X108841200Y-100457000D02*
X108441200Y-100457000D01*
X108841200Y-99657000D02*
X108841200Y-101257000D01*
X129142000Y-99607000D02*
X129142000Y-101307000D01*
X127892000Y-100457000D02*
X129142000Y-101307000D01*
X127892000Y-100457000D02*
X129142000Y-99607000D01*
X127891200Y-100457000D02*
X127491200Y-100457000D01*
X127891200Y-99657000D02*
X127891200Y-101257000D01*
X148192000Y-99607000D02*
X148192000Y-101307000D01*
X146942000Y-100457000D02*
X148192000Y-101307000D01*
X146942000Y-100457000D02*
X148192000Y-99607000D01*
X146941200Y-100457000D02*
X146541200Y-100457000D01*
X146941200Y-99657000D02*
X146941200Y-101257000D01*
X71992000Y-118657000D02*
X71992000Y-120357000D01*
X70742000Y-119507000D02*
X71992000Y-120357000D01*
X70742000Y-119507000D02*
X71992000Y-118657000D01*
X70741200Y-119507000D02*
X70341200Y-119507000D01*
X70741200Y-118707000D02*
X70741200Y-120307000D01*
X91042000Y-118657000D02*
X91042000Y-120357000D01*
X89792000Y-119507000D02*
X91042000Y-120357000D01*
X89792000Y-119507000D02*
X91042000Y-118657000D01*
X89791200Y-119507000D02*
X89391200Y-119507000D01*
X89791200Y-118707000D02*
X89791200Y-120307000D01*
X110092000Y-118657000D02*
X110092000Y-120357000D01*
X108842000Y-119507000D02*
X110092000Y-120357000D01*
X108842000Y-119507000D02*
X110092000Y-118657000D01*
X108841200Y-119507000D02*
X108441200Y-119507000D01*
X108841200Y-118707000D02*
X108841200Y-120307000D01*
X129142000Y-118657000D02*
X129142000Y-120357000D01*
X127892000Y-119507000D02*
X129142000Y-120357000D01*
X127892000Y-119507000D02*
X129142000Y-118657000D01*
X127891200Y-119507000D02*
X127491200Y-119507000D01*
X127891200Y-118707000D02*
X127891200Y-120307000D01*
X148192000Y-118657000D02*
X148192000Y-120357000D01*
X146942000Y-119507000D02*
X148192000Y-120357000D01*
X146942000Y-119507000D02*
X148192000Y-118657000D01*
X146941200Y-119507000D02*
X146541200Y-119507000D01*
X146941200Y-118707000D02*
X146941200Y-120307000D01*
G04 #@! TO.C,L1*
D11*
X150788666Y-111704380D02*
X151264857Y-111704380D01*
X151264857Y-110704380D01*
X149931523Y-111704380D02*
X150502952Y-111704380D01*
X150217238Y-111704380D02*
X150217238Y-110704380D01*
X150312476Y-110847238D01*
X150407714Y-110942476D01*
X150502952Y-110990095D01*
X131738666Y-111704380D02*
X132214857Y-111704380D01*
X132214857Y-110704380D01*
X130881523Y-111704380D02*
X131452952Y-111704380D01*
X131167238Y-111704380D02*
X131167238Y-110704380D01*
X131262476Y-110847238D01*
X131357714Y-110942476D01*
X131452952Y-110990095D01*
X112688666Y-111704380D02*
X113164857Y-111704380D01*
X113164857Y-110704380D01*
X111831523Y-111704380D02*
X112402952Y-111704380D01*
X112117238Y-111704380D02*
X112117238Y-110704380D01*
X112212476Y-110847238D01*
X112307714Y-110942476D01*
X112402952Y-110990095D01*
X93638666Y-111704380D02*
X94114857Y-111704380D01*
X94114857Y-110704380D01*
X92781523Y-111704380D02*
X93352952Y-111704380D01*
X93067238Y-111704380D02*
X93067238Y-110704380D01*
X93162476Y-110847238D01*
X93257714Y-110942476D01*
X93352952Y-110990095D01*
X74588666Y-111704380D02*
X75064857Y-111704380D01*
X75064857Y-110704380D01*
X73731523Y-111704380D02*
X74302952Y-111704380D01*
X74017238Y-111704380D02*
X74017238Y-110704380D01*
X74112476Y-110847238D01*
X74207714Y-110942476D01*
X74302952Y-110990095D01*
X150788666Y-92654380D02*
X151264857Y-92654380D01*
X151264857Y-91654380D01*
X149931523Y-92654380D02*
X150502952Y-92654380D01*
X150217238Y-92654380D02*
X150217238Y-91654380D01*
X150312476Y-91797238D01*
X150407714Y-91892476D01*
X150502952Y-91940095D01*
X131738666Y-92654380D02*
X132214857Y-92654380D01*
X132214857Y-91654380D01*
X130881523Y-92654380D02*
X131452952Y-92654380D01*
X131167238Y-92654380D02*
X131167238Y-91654380D01*
X131262476Y-91797238D01*
X131357714Y-91892476D01*
X131452952Y-91940095D01*
X112688666Y-92654380D02*
X113164857Y-92654380D01*
X113164857Y-91654380D01*
X111831523Y-92654380D02*
X112402952Y-92654380D01*
X112117238Y-92654380D02*
X112117238Y-91654380D01*
X112212476Y-91797238D01*
X112307714Y-91892476D01*
X112402952Y-91940095D01*
X93638666Y-92654380D02*
X94114857Y-92654380D01*
X94114857Y-91654380D01*
X92781523Y-92654380D02*
X93352952Y-92654380D01*
X93067238Y-92654380D02*
X93067238Y-91654380D01*
X93162476Y-91797238D01*
X93257714Y-91892476D01*
X93352952Y-91940095D01*
X74588666Y-92654380D02*
X75064857Y-92654380D01*
X75064857Y-91654380D01*
X73731523Y-92654380D02*
X74302952Y-92654380D01*
X74017238Y-92654380D02*
X74017238Y-91654380D01*
X74112476Y-91797238D01*
X74207714Y-91892476D01*
X74302952Y-91940095D01*
X150788666Y-73604380D02*
X151264857Y-73604380D01*
X151264857Y-72604380D01*
X149931523Y-73604380D02*
X150502952Y-73604380D01*
X150217238Y-73604380D02*
X150217238Y-72604380D01*
X150312476Y-72747238D01*
X150407714Y-72842476D01*
X150502952Y-72890095D01*
X131738666Y-73604380D02*
X132214857Y-73604380D01*
X132214857Y-72604380D01*
X130881523Y-73604380D02*
X131452952Y-73604380D01*
X131167238Y-73604380D02*
X131167238Y-72604380D01*
X131262476Y-72747238D01*
X131357714Y-72842476D01*
X131452952Y-72890095D01*
X112688666Y-73604380D02*
X113164857Y-73604380D01*
X113164857Y-72604380D01*
X111831523Y-73604380D02*
X112402952Y-73604380D01*
X112117238Y-73604380D02*
X112117238Y-72604380D01*
X112212476Y-72747238D01*
X112307714Y-72842476D01*
X112402952Y-72890095D01*
X93638666Y-73604380D02*
X94114857Y-73604380D01*
X94114857Y-72604380D01*
X92781523Y-73604380D02*
X93352952Y-73604380D01*
X93067238Y-73604380D02*
X93067238Y-72604380D01*
X93162476Y-72747238D01*
X93257714Y-72842476D01*
X93352952Y-72890095D01*
X74588666Y-73604380D02*
X75064857Y-73604380D01*
X75064857Y-72604380D01*
X73731523Y-73604380D02*
X74302952Y-73604380D01*
X74017238Y-73604380D02*
X74017238Y-72604380D01*
X74112476Y-72747238D01*
X74207714Y-72842476D01*
X74302952Y-72890095D01*
X150788666Y-54554380D02*
X151264857Y-54554380D01*
X151264857Y-53554380D01*
X149931523Y-54554380D02*
X150502952Y-54554380D01*
X150217238Y-54554380D02*
X150217238Y-53554380D01*
X150312476Y-53697238D01*
X150407714Y-53792476D01*
X150502952Y-53840095D01*
X131738666Y-54554380D02*
X132214857Y-54554380D01*
X132214857Y-53554380D01*
X130881523Y-54554380D02*
X131452952Y-54554380D01*
X131167238Y-54554380D02*
X131167238Y-53554380D01*
X131262476Y-53697238D01*
X131357714Y-53792476D01*
X131452952Y-53840095D01*
X112688666Y-54554380D02*
X113164857Y-54554380D01*
X113164857Y-53554380D01*
X111831523Y-54554380D02*
X112402952Y-54554380D01*
X112117238Y-54554380D02*
X112117238Y-53554380D01*
X112212476Y-53697238D01*
X112307714Y-53792476D01*
X112402952Y-53840095D01*
X93638666Y-54554380D02*
X94114857Y-54554380D01*
X94114857Y-53554380D01*
X92781523Y-54554380D02*
X93352952Y-54554380D01*
X93067238Y-54554380D02*
X93067238Y-53554380D01*
X93162476Y-53697238D01*
X93257714Y-53792476D01*
X93352952Y-53840095D01*
X74588666Y-54554380D02*
X75064857Y-54554380D01*
X75064857Y-53554380D01*
X73731523Y-54554380D02*
X74302952Y-54554380D01*
X74017238Y-54554380D02*
X74017238Y-53554380D01*
X74112476Y-53697238D01*
X74207714Y-53792476D01*
X74302952Y-53840095D01*
X150788666Y-35504380D02*
X151264857Y-35504380D01*
X151264857Y-34504380D01*
X149931523Y-35504380D02*
X150502952Y-35504380D01*
X150217238Y-35504380D02*
X150217238Y-34504380D01*
X150312476Y-34647238D01*
X150407714Y-34742476D01*
X150502952Y-34790095D01*
X131738666Y-35504380D02*
X132214857Y-35504380D01*
X132214857Y-34504380D01*
X130881523Y-35504380D02*
X131452952Y-35504380D01*
X131167238Y-35504380D02*
X131167238Y-34504380D01*
X131262476Y-34647238D01*
X131357714Y-34742476D01*
X131452952Y-34790095D01*
X112688666Y-35504380D02*
X113164857Y-35504380D01*
X113164857Y-34504380D01*
X111831523Y-35504380D02*
X112402952Y-35504380D01*
X112117238Y-35504380D02*
X112117238Y-34504380D01*
X112212476Y-34647238D01*
X112307714Y-34742476D01*
X112402952Y-34790095D01*
X93638666Y-35504380D02*
X94114857Y-35504380D01*
X94114857Y-34504380D01*
X92781523Y-35504380D02*
X93352952Y-35504380D01*
X93067238Y-35504380D02*
X93067238Y-34504380D01*
X93162476Y-34647238D01*
X93257714Y-34742476D01*
X93352952Y-34790095D01*
X74588666Y-35504380D02*
X75064857Y-35504380D01*
X75064857Y-34504380D01*
X73731523Y-35504380D02*
X74302952Y-35504380D01*
X74017238Y-35504380D02*
X74017238Y-34504380D01*
X74112476Y-34647238D01*
X74207714Y-34742476D01*
X74302952Y-34790095D01*
G04 #@! TD*
%LPC*%
D12*
G04 #@! TO.C,L1*
X153122000Y-106452000D03*
X153122000Y-107952000D03*
X148122000Y-107952000D03*
X148122000Y-106452000D03*
G04 #@! TD*
G04 #@! TO.C,L1*
X134072000Y-106452000D03*
X134072000Y-107952000D03*
X129072000Y-107952000D03*
X129072000Y-106452000D03*
G04 #@! TD*
G04 #@! TO.C,L1*
X115022000Y-106452000D03*
X115022000Y-107952000D03*
X110022000Y-107952000D03*
X110022000Y-106452000D03*
G04 #@! TD*
G04 #@! TO.C,L1*
X95972000Y-106452000D03*
X95972000Y-107952000D03*
X90972000Y-107952000D03*
X90972000Y-106452000D03*
G04 #@! TD*
G04 #@! TO.C,L1*
X76922000Y-106452000D03*
X76922000Y-107952000D03*
X71922000Y-107952000D03*
X71922000Y-106452000D03*
G04 #@! TD*
G04 #@! TO.C,L1*
X153122000Y-87402000D03*
X153122000Y-88902000D03*
X148122000Y-88902000D03*
X148122000Y-87402000D03*
G04 #@! TD*
G04 #@! TO.C,L1*
X134072000Y-87402000D03*
X134072000Y-88902000D03*
X129072000Y-88902000D03*
X129072000Y-87402000D03*
G04 #@! TD*
G04 #@! TO.C,L1*
X115022000Y-87402000D03*
X115022000Y-88902000D03*
X110022000Y-88902000D03*
X110022000Y-87402000D03*
G04 #@! TD*
G04 #@! TO.C,L1*
X95972000Y-87402000D03*
X95972000Y-88902000D03*
X90972000Y-88902000D03*
X90972000Y-87402000D03*
G04 #@! TD*
G04 #@! TO.C,L1*
X76922000Y-87402000D03*
X76922000Y-88902000D03*
X71922000Y-88902000D03*
X71922000Y-87402000D03*
G04 #@! TD*
G04 #@! TO.C,L1*
X153122000Y-68352000D03*
X153122000Y-69852000D03*
X148122000Y-69852000D03*
X148122000Y-68352000D03*
G04 #@! TD*
G04 #@! TO.C,L1*
X134072000Y-68352000D03*
X134072000Y-69852000D03*
X129072000Y-69852000D03*
X129072000Y-68352000D03*
G04 #@! TD*
G04 #@! TO.C,L1*
X115022000Y-68352000D03*
X115022000Y-69852000D03*
X110022000Y-69852000D03*
X110022000Y-68352000D03*
G04 #@! TD*
G04 #@! TO.C,L1*
X95972000Y-68352000D03*
X95972000Y-69852000D03*
X90972000Y-69852000D03*
X90972000Y-68352000D03*
G04 #@! TD*
G04 #@! TO.C,L1*
X76922000Y-68352000D03*
X76922000Y-69852000D03*
X71922000Y-69852000D03*
X71922000Y-68352000D03*
G04 #@! TD*
G04 #@! TO.C,L1*
X153122000Y-49302000D03*
X153122000Y-50802000D03*
X148122000Y-50802000D03*
X148122000Y-49302000D03*
G04 #@! TD*
G04 #@! TO.C,L1*
X134072000Y-49302000D03*
X134072000Y-50802000D03*
X129072000Y-50802000D03*
X129072000Y-49302000D03*
G04 #@! TD*
G04 #@! TO.C,L1*
X115022000Y-49302000D03*
X115022000Y-50802000D03*
X110022000Y-50802000D03*
X110022000Y-49302000D03*
G04 #@! TD*
G04 #@! TO.C,L1*
X95972000Y-49302000D03*
X95972000Y-50802000D03*
X90972000Y-50802000D03*
X90972000Y-49302000D03*
G04 #@! TD*
G04 #@! TO.C,L1*
X76922000Y-49302000D03*
X76922000Y-50802000D03*
X71922000Y-50802000D03*
X71922000Y-49302000D03*
G04 #@! TD*
G04 #@! TO.C,L1*
X153122000Y-30252000D03*
X153122000Y-31752000D03*
X148122000Y-31752000D03*
X148122000Y-30252000D03*
G04 #@! TD*
G04 #@! TO.C,L1*
X134072000Y-30252000D03*
X134072000Y-31752000D03*
X129072000Y-31752000D03*
X129072000Y-30252000D03*
G04 #@! TD*
G04 #@! TO.C,L1*
X115022000Y-30252000D03*
X115022000Y-31752000D03*
X110022000Y-31752000D03*
X110022000Y-30252000D03*
G04 #@! TD*
G04 #@! TO.C,L1*
X95972000Y-30252000D03*
X95972000Y-31752000D03*
X90972000Y-31752000D03*
X90972000Y-30252000D03*
G04 #@! TD*
G04 #@! TO.C,L1*
X76922000Y-30252000D03*
X76922000Y-31752000D03*
X71922000Y-31752000D03*
X71922000Y-30252000D03*
G04 #@! TD*
D13*
G04 #@! TO.C,SW1*
X79502000Y-35687000D03*
D14*
X78232000Y-38227000D03*
D15*
X74422000Y-35687000D03*
D14*
X71882000Y-40767000D03*
D13*
X69342000Y-35687000D03*
G04 #@! TD*
G04 #@! TO.C,SW24*
X136652000Y-111887000D03*
D14*
X135382000Y-114427000D03*
D15*
X131572000Y-111887000D03*
D14*
X129032000Y-116967000D03*
D13*
X126492000Y-111887000D03*
G04 #@! TD*
G04 #@! TO.C,SW23*
X117602000Y-111887000D03*
D14*
X116332000Y-114427000D03*
D15*
X112522000Y-111887000D03*
D14*
X109982000Y-116967000D03*
D13*
X107442000Y-111887000D03*
G04 #@! TD*
G04 #@! TO.C,SW22*
X98552000Y-111887000D03*
D14*
X97282000Y-114427000D03*
D15*
X93472000Y-111887000D03*
D14*
X90932000Y-116967000D03*
D13*
X88392000Y-111887000D03*
G04 #@! TD*
G04 #@! TO.C,SW21*
X79502000Y-111887000D03*
D14*
X78232000Y-114427000D03*
D15*
X74422000Y-111887000D03*
D14*
X71882000Y-116967000D03*
D13*
X69342000Y-111887000D03*
G04 #@! TD*
G04 #@! TO.C,SW19*
X136652000Y-92837000D03*
D14*
X135382000Y-95377000D03*
D15*
X131572000Y-92837000D03*
D14*
X129032000Y-97917000D03*
D13*
X126492000Y-92837000D03*
G04 #@! TD*
G04 #@! TO.C,SW18*
X117602000Y-92837000D03*
D14*
X116332000Y-95377000D03*
D15*
X112522000Y-92837000D03*
D14*
X109982000Y-97917000D03*
D13*
X107442000Y-92837000D03*
G04 #@! TD*
G04 #@! TO.C,SW17*
X98552000Y-92837000D03*
D14*
X97282000Y-95377000D03*
D15*
X93472000Y-92837000D03*
D14*
X90932000Y-97917000D03*
D13*
X88392000Y-92837000D03*
G04 #@! TD*
G04 #@! TO.C,SW16*
X79502000Y-92837000D03*
D14*
X78232000Y-95377000D03*
D15*
X74422000Y-92837000D03*
D14*
X71882000Y-97917000D03*
D13*
X69342000Y-92837000D03*
G04 #@! TD*
G04 #@! TO.C,SW14*
X136652000Y-73787000D03*
D14*
X135382000Y-76327000D03*
D15*
X131572000Y-73787000D03*
D14*
X129032000Y-78867000D03*
D13*
X126492000Y-73787000D03*
G04 #@! TD*
G04 #@! TO.C,SW12*
X98552000Y-73787000D03*
D14*
X97282000Y-76327000D03*
D15*
X93472000Y-73787000D03*
D14*
X90932000Y-78867000D03*
D13*
X88392000Y-73787000D03*
G04 #@! TD*
G04 #@! TO.C,SW11*
X79502000Y-73787000D03*
D14*
X78232000Y-76327000D03*
D15*
X74422000Y-73787000D03*
D14*
X71882000Y-78867000D03*
D13*
X69342000Y-73787000D03*
G04 #@! TD*
G04 #@! TO.C,SW9*
X136652000Y-54737000D03*
D14*
X135382000Y-57277000D03*
D15*
X131572000Y-54737000D03*
D14*
X129032000Y-59817000D03*
D13*
X126492000Y-54737000D03*
G04 #@! TD*
G04 #@! TO.C,SW8*
X117602000Y-54737000D03*
D14*
X116332000Y-57277000D03*
D15*
X112522000Y-54737000D03*
D14*
X109982000Y-59817000D03*
D13*
X107442000Y-54737000D03*
G04 #@! TD*
G04 #@! TO.C,SW7*
X98552000Y-54737000D03*
D14*
X97282000Y-57277000D03*
D15*
X93472000Y-54737000D03*
D14*
X90932000Y-59817000D03*
D13*
X88392000Y-54737000D03*
G04 #@! TD*
G04 #@! TO.C,SW6*
X79502000Y-54737000D03*
D14*
X78232000Y-57277000D03*
D15*
X74422000Y-54737000D03*
D14*
X71882000Y-59817000D03*
D13*
X69342000Y-54737000D03*
G04 #@! TD*
G04 #@! TO.C,SW5*
X155702000Y-35687000D03*
D14*
X154432000Y-38227000D03*
D15*
X150622000Y-35687000D03*
D14*
X148082000Y-40767000D03*
D13*
X145542000Y-35687000D03*
G04 #@! TD*
G04 #@! TO.C,SW4*
X136652000Y-35687000D03*
D14*
X135382000Y-38227000D03*
D15*
X131572000Y-35687000D03*
D14*
X129032000Y-40767000D03*
D13*
X126492000Y-35687000D03*
G04 #@! TD*
G04 #@! TO.C,SW2*
X98552000Y-35687000D03*
D14*
X97282000Y-38227000D03*
D15*
X93472000Y-35687000D03*
D14*
X90932000Y-40767000D03*
D13*
X88392000Y-35687000D03*
G04 #@! TD*
G04 #@! TO.C,SW3*
X117602000Y-35687000D03*
D14*
X116332000Y-38227000D03*
D15*
X112522000Y-35687000D03*
D14*
X109982000Y-40767000D03*
D13*
X107442000Y-35687000D03*
G04 #@! TD*
G04 #@! TO.C,SW10*
X155702000Y-54737000D03*
D14*
X154432000Y-57277000D03*
D15*
X150622000Y-54737000D03*
D14*
X148082000Y-59817000D03*
D13*
X145542000Y-54737000D03*
G04 #@! TD*
G04 #@! TO.C,SW15*
X155702000Y-73787000D03*
D14*
X154432000Y-76327000D03*
D15*
X150622000Y-73787000D03*
D14*
X148082000Y-78867000D03*
D13*
X145542000Y-73787000D03*
G04 #@! TD*
G04 #@! TO.C,SW20*
X155702000Y-92837000D03*
D14*
X154432000Y-95377000D03*
D15*
X150622000Y-92837000D03*
D14*
X148082000Y-97917000D03*
D13*
X145542000Y-92837000D03*
G04 #@! TD*
G04 #@! TO.C,SW20*
X155702000Y-111887000D03*
D14*
X154432000Y-114427000D03*
D15*
X150622000Y-111887000D03*
D14*
X148082000Y-116967000D03*
D13*
X145542000Y-111887000D03*
G04 #@! TD*
G04 #@! TO.C,SW13*
X117602000Y-73787000D03*
D14*
X116332000Y-76327000D03*
D15*
X112522000Y-73787000D03*
D14*
X109982000Y-78867000D03*
D13*
X107442000Y-73787000D03*
G04 #@! TD*
D16*
G04 #@! TO.C,D*
X69342000Y-43307000D03*
D17*
X75692000Y-43307000D03*
D18*
X73042000Y-43307000D03*
G04 #@! TD*
D16*
G04 #@! TO.C,D*
X107442000Y-43307000D03*
D17*
X113792000Y-43307000D03*
D18*
X111142000Y-43307000D03*
G04 #@! TD*
D16*
G04 #@! TO.C,D*
X69342000Y-62357000D03*
D17*
X75692000Y-62357000D03*
D18*
X73042000Y-62357000D03*
G04 #@! TD*
D16*
G04 #@! TO.C,D*
X88392000Y-43307000D03*
D17*
X94742000Y-43307000D03*
D18*
X92092000Y-43307000D03*
G04 #@! TD*
D16*
G04 #@! TO.C,D*
X126492000Y-43307000D03*
D17*
X132842000Y-43307000D03*
D18*
X130192000Y-43307000D03*
G04 #@! TD*
D16*
G04 #@! TO.C,D*
X145542000Y-43307000D03*
D17*
X151892000Y-43307000D03*
D18*
X149242000Y-43307000D03*
G04 #@! TD*
D16*
G04 #@! TO.C,D*
X88392000Y-62357000D03*
D17*
X94742000Y-62357000D03*
D18*
X92092000Y-62357000D03*
G04 #@! TD*
D16*
G04 #@! TO.C,D*
X107442000Y-62357000D03*
D17*
X113792000Y-62357000D03*
D18*
X111142000Y-62357000D03*
G04 #@! TD*
D16*
G04 #@! TO.C,D*
X126492000Y-62357000D03*
D17*
X132842000Y-62357000D03*
D18*
X130192000Y-62357000D03*
G04 #@! TD*
D16*
G04 #@! TO.C,D*
X145542000Y-62357000D03*
D17*
X151892000Y-62357000D03*
D18*
X149242000Y-62357000D03*
G04 #@! TD*
D16*
G04 #@! TO.C,D*
X69342000Y-81407000D03*
D17*
X75692000Y-81407000D03*
D18*
X73042000Y-81407000D03*
G04 #@! TD*
D16*
G04 #@! TO.C,D*
X88392000Y-81407000D03*
D17*
X94742000Y-81407000D03*
D18*
X92092000Y-81407000D03*
G04 #@! TD*
D16*
G04 #@! TO.C,D*
X107442000Y-81407000D03*
D17*
X113792000Y-81407000D03*
D18*
X111142000Y-81407000D03*
G04 #@! TD*
D16*
G04 #@! TO.C,D*
X126492000Y-81407000D03*
D17*
X132842000Y-81407000D03*
D18*
X130192000Y-81407000D03*
G04 #@! TD*
D16*
G04 #@! TO.C,D*
X145542000Y-81407000D03*
D17*
X151892000Y-81407000D03*
D18*
X149242000Y-81407000D03*
G04 #@! TD*
D16*
G04 #@! TO.C,D*
X69342000Y-100457000D03*
D17*
X75692000Y-100457000D03*
D18*
X73042000Y-100457000D03*
G04 #@! TD*
D16*
G04 #@! TO.C,D*
X88392000Y-100457000D03*
D17*
X94742000Y-100457000D03*
D18*
X92092000Y-100457000D03*
G04 #@! TD*
D16*
G04 #@! TO.C,D*
X107442000Y-100457000D03*
D17*
X113792000Y-100457000D03*
D18*
X111142000Y-100457000D03*
G04 #@! TD*
D16*
G04 #@! TO.C,D*
X126492000Y-100457000D03*
D17*
X132842000Y-100457000D03*
D18*
X130192000Y-100457000D03*
G04 #@! TD*
D16*
G04 #@! TO.C,D*
X145542000Y-100457000D03*
D17*
X151892000Y-100457000D03*
D18*
X149242000Y-100457000D03*
G04 #@! TD*
D16*
G04 #@! TO.C,D*
X69342000Y-119507000D03*
D17*
X75692000Y-119507000D03*
D18*
X73042000Y-119507000D03*
G04 #@! TD*
D16*
G04 #@! TO.C,D*
X88392000Y-119507000D03*
D17*
X94742000Y-119507000D03*
D18*
X92092000Y-119507000D03*
G04 #@! TD*
D16*
G04 #@! TO.C,D*
X107442000Y-119507000D03*
D17*
X113792000Y-119507000D03*
D18*
X111142000Y-119507000D03*
G04 #@! TD*
D16*
G04 #@! TO.C,D*
X126492000Y-119507000D03*
D17*
X132842000Y-119507000D03*
D18*
X130192000Y-119507000D03*
G04 #@! TD*
D16*
G04 #@! TO.C,D*
X145542000Y-119507000D03*
D17*
X151892000Y-119507000D03*
D18*
X149242000Y-119507000D03*
G04 #@! TD*
D19*
G04 #@! TO.C,REF\002A\002A*
X158242000Y-111887000D03*
G04 #@! TD*
G04 #@! TO.C,REF\002A\002A*
X139192000Y-111887000D03*
G04 #@! TD*
G04 #@! TO.C,REF\002A\002A*
X120142000Y-111887000D03*
G04 #@! TD*
G04 #@! TO.C,REF\002A\002A*
X101092000Y-111887000D03*
G04 #@! TD*
G04 #@! TO.C,REF\002A\002A*
X143002000Y-111887000D03*
G04 #@! TD*
G04 #@! TO.C,REF\002A\002A*
X123952000Y-111887000D03*
G04 #@! TD*
G04 #@! TO.C,REF\002A\002A*
X104902000Y-111887000D03*
G04 #@! TD*
G04 #@! TO.C,REF\002A\002A*
X85852000Y-111887000D03*
G04 #@! TD*
G04 #@! TO.C,REF\002A\002A*
X158242000Y-92837000D03*
G04 #@! TD*
G04 #@! TO.C,REF\002A\002A*
X139192000Y-92837000D03*
G04 #@! TD*
G04 #@! TO.C,REF\002A\002A*
X120142000Y-92837000D03*
G04 #@! TD*
G04 #@! TO.C,REF\002A\002A*
X101092000Y-92837000D03*
G04 #@! TD*
G04 #@! TO.C,REF\002A\002A*
X143002000Y-92837000D03*
G04 #@! TD*
G04 #@! TO.C,REF\002A\002A*
X123952000Y-92837000D03*
G04 #@! TD*
G04 #@! TO.C,REF\002A\002A*
X104902000Y-92837000D03*
G04 #@! TD*
G04 #@! TO.C,REF\002A\002A*
X85852000Y-92837000D03*
G04 #@! TD*
G04 #@! TO.C,REF\002A\002A*
X143002000Y-73787000D03*
G04 #@! TD*
G04 #@! TO.C,REF\002A\002A*
X123952000Y-73787000D03*
G04 #@! TD*
G04 #@! TO.C,REF\002A\002A*
X104902000Y-73787000D03*
G04 #@! TD*
G04 #@! TO.C,REF\002A\002A*
X85852000Y-73787000D03*
G04 #@! TD*
G04 #@! TO.C,REF\002A\002A*
X158242000Y-73787000D03*
G04 #@! TD*
G04 #@! TO.C,REF\002A\002A*
X139192000Y-73787000D03*
G04 #@! TD*
G04 #@! TO.C,REF\002A\002A*
X120142000Y-73787000D03*
G04 #@! TD*
G04 #@! TO.C,REF\002A\002A*
X101092000Y-73787000D03*
G04 #@! TD*
G04 #@! TO.C,REF\002A\002A*
X158242000Y-115697000D03*
G04 #@! TD*
G04 #@! TO.C,REF\002A\002A*
X139192000Y-115697000D03*
G04 #@! TD*
G04 #@! TO.C,REF\002A\002A*
X120142000Y-115697000D03*
G04 #@! TD*
G04 #@! TO.C,REF\002A\002A*
X101092000Y-115697000D03*
G04 #@! TD*
G04 #@! TO.C,REF\002A\002A*
X82042000Y-115697000D03*
G04 #@! TD*
G04 #@! TO.C,REF\002A\002A*
X158242000Y-96647000D03*
G04 #@! TD*
G04 #@! TO.C,REF\002A\002A*
X139192000Y-96647000D03*
G04 #@! TD*
G04 #@! TO.C,REF\002A\002A*
X120142000Y-96647000D03*
G04 #@! TD*
G04 #@! TO.C,REF\002A\002A*
X101092000Y-96647000D03*
G04 #@! TD*
G04 #@! TO.C,REF\002A\002A*
X82042000Y-96647000D03*
G04 #@! TD*
G04 #@! TO.C,REF\002A\002A*
X158242000Y-77597000D03*
G04 #@! TD*
G04 #@! TO.C,REF\002A\002A*
X139192000Y-77597000D03*
G04 #@! TD*
G04 #@! TO.C,REF\002A\002A*
X120142000Y-77597000D03*
G04 #@! TD*
G04 #@! TO.C,REF\002A\002A*
X101092000Y-77597000D03*
G04 #@! TD*
G04 #@! TO.C,REF\002A\002A*
X82042000Y-77597000D03*
G04 #@! TD*
G04 #@! TO.C,REF\002A\002A*
X158242000Y-58547000D03*
G04 #@! TD*
G04 #@! TO.C,REF\002A\002A*
X139192000Y-58547000D03*
G04 #@! TD*
G04 #@! TO.C,REF\002A\002A*
X120142000Y-58547000D03*
G04 #@! TD*
G04 #@! TO.C,REF\002A\002A*
X101092000Y-58547000D03*
G04 #@! TD*
G04 #@! TO.C,REF\002A\002A*
X82042000Y-58547000D03*
G04 #@! TD*
G04 #@! TO.C,REF\002A\002A*
X158242000Y-39497000D03*
G04 #@! TD*
G04 #@! TO.C,REF\002A\002A*
X139192000Y-39497000D03*
G04 #@! TD*
G04 #@! TO.C,REF\002A\002A*
X120142000Y-39497000D03*
G04 #@! TD*
G04 #@! TO.C,REF\002A\002A*
X101092000Y-39497000D03*
G04 #@! TD*
G04 #@! TO.C,REF\002A\002A*
X143002000Y-108077000D03*
G04 #@! TD*
G04 #@! TO.C,REF\002A\002A*
X123952000Y-108077000D03*
G04 #@! TD*
G04 #@! TO.C,REF\002A\002A*
X104902000Y-108077000D03*
G04 #@! TD*
G04 #@! TO.C,REF\002A\002A*
X85852000Y-108077000D03*
G04 #@! TD*
G04 #@! TO.C,REF\002A\002A*
X66802000Y-108077000D03*
G04 #@! TD*
G04 #@! TO.C,REF\002A\002A*
X143002000Y-89027000D03*
G04 #@! TD*
G04 #@! TO.C,REF\002A\002A*
X123952000Y-89027000D03*
G04 #@! TD*
G04 #@! TO.C,REF\002A\002A*
X104902000Y-89027000D03*
G04 #@! TD*
G04 #@! TO.C,REF\002A\002A*
X85852000Y-89027000D03*
G04 #@! TD*
G04 #@! TO.C,REF\002A\002A*
X66802000Y-89027000D03*
G04 #@! TD*
G04 #@! TO.C,REF\002A\002A*
X143002000Y-69977000D03*
G04 #@! TD*
G04 #@! TO.C,REF\002A\002A*
X123952000Y-69977000D03*
G04 #@! TD*
G04 #@! TO.C,REF\002A\002A*
X104902000Y-69977000D03*
G04 #@! TD*
G04 #@! TO.C,REF\002A\002A*
X85852000Y-69977000D03*
G04 #@! TD*
G04 #@! TO.C,REF\002A\002A*
X66802000Y-69977000D03*
G04 #@! TD*
G04 #@! TO.C,REF\002A\002A*
X143002000Y-50927000D03*
G04 #@! TD*
G04 #@! TO.C,REF\002A\002A*
X123952000Y-50927000D03*
G04 #@! TD*
G04 #@! TO.C,REF\002A\002A*
X104902000Y-50927000D03*
G04 #@! TD*
G04 #@! TO.C,REF\002A\002A*
X85852000Y-50927000D03*
G04 #@! TD*
G04 #@! TO.C,REF\002A\002A*
X66802000Y-50927000D03*
G04 #@! TD*
G04 #@! TO.C,REF\002A\002A*
X143002000Y-31877000D03*
G04 #@! TD*
G04 #@! TO.C,REF\002A\002A*
X123952000Y-31877000D03*
G04 #@! TD*
G04 #@! TO.C,REF\002A\002A*
X104902000Y-31877000D03*
G04 #@! TD*
G04 #@! TO.C,REF\002A\002A*
X85852000Y-31877000D03*
G04 #@! TD*
G04 #@! TO.C,REF\002A\002A*
X143002000Y-115697000D03*
G04 #@! TD*
G04 #@! TO.C,REF\002A\002A*
X123952000Y-115697000D03*
G04 #@! TD*
G04 #@! TO.C,REF\002A\002A*
X104902000Y-115697000D03*
G04 #@! TD*
G04 #@! TO.C,REF\002A\002A*
X85852000Y-115697000D03*
G04 #@! TD*
G04 #@! TO.C,REF\002A\002A*
X66802000Y-115697000D03*
G04 #@! TD*
G04 #@! TO.C,REF\002A\002A*
X143002000Y-96647000D03*
G04 #@! TD*
G04 #@! TO.C,REF\002A\002A*
X123952000Y-96647000D03*
G04 #@! TD*
G04 #@! TO.C,REF\002A\002A*
X104902000Y-96647000D03*
G04 #@! TD*
G04 #@! TO.C,REF\002A\002A*
X85852000Y-96647000D03*
G04 #@! TD*
G04 #@! TO.C,REF\002A\002A*
X66802000Y-96647000D03*
G04 #@! TD*
G04 #@! TO.C,REF\002A\002A*
X143002000Y-77597000D03*
G04 #@! TD*
G04 #@! TO.C,REF\002A\002A*
X123952000Y-77597000D03*
G04 #@! TD*
G04 #@! TO.C,REF\002A\002A*
X104902000Y-77597000D03*
G04 #@! TD*
G04 #@! TO.C,REF\002A\002A*
X85852000Y-77597000D03*
G04 #@! TD*
G04 #@! TO.C,REF\002A\002A*
X66802000Y-77597000D03*
G04 #@! TD*
G04 #@! TO.C,REF\002A\002A*
X143002000Y-58547000D03*
G04 #@! TD*
G04 #@! TO.C,REF\002A\002A*
X123952000Y-58547000D03*
G04 #@! TD*
G04 #@! TO.C,REF\002A\002A*
X104902000Y-58547000D03*
G04 #@! TD*
G04 #@! TO.C,REF\002A\002A*
X85852000Y-58547000D03*
G04 #@! TD*
G04 #@! TO.C,REF\002A\002A*
X66802000Y-58547000D03*
G04 #@! TD*
G04 #@! TO.C,REF\002A\002A*
X143002000Y-39497000D03*
G04 #@! TD*
G04 #@! TO.C,REF\002A\002A*
X123952000Y-39497000D03*
G04 #@! TD*
G04 #@! TO.C,REF\002A\002A*
X104902000Y-39497000D03*
G04 #@! TD*
G04 #@! TO.C,REF\002A\002A*
X85852000Y-39497000D03*
G04 #@! TD*
G04 #@! TO.C,REF\002A\002A*
X158242000Y-108077000D03*
G04 #@! TD*
G04 #@! TO.C,REF\002A\002A*
X139192000Y-108077000D03*
G04 #@! TD*
G04 #@! TO.C,REF\002A\002A*
X120142000Y-108077000D03*
G04 #@! TD*
G04 #@! TO.C,REF\002A\002A*
X101092000Y-108077000D03*
G04 #@! TD*
G04 #@! TO.C,REF\002A\002A*
X82042000Y-108077000D03*
G04 #@! TD*
G04 #@! TO.C,REF\002A\002A*
X158242000Y-89027000D03*
G04 #@! TD*
G04 #@! TO.C,REF\002A\002A*
X139192000Y-89027000D03*
G04 #@! TD*
G04 #@! TO.C,REF\002A\002A*
X120142000Y-89027000D03*
G04 #@! TD*
G04 #@! TO.C,REF\002A\002A*
X101092000Y-89027000D03*
G04 #@! TD*
G04 #@! TO.C,REF\002A\002A*
X82042000Y-89027000D03*
G04 #@! TD*
G04 #@! TO.C,REF\002A\002A*
X158242000Y-69977000D03*
G04 #@! TD*
G04 #@! TO.C,REF\002A\002A*
X139192000Y-69977000D03*
G04 #@! TD*
G04 #@! TO.C,REF\002A\002A*
X120142000Y-69977000D03*
G04 #@! TD*
G04 #@! TO.C,REF\002A\002A*
X101092000Y-69977000D03*
G04 #@! TD*
G04 #@! TO.C,REF\002A\002A*
X82042000Y-69977000D03*
G04 #@! TD*
G04 #@! TO.C,REF\002A\002A*
X158242000Y-50927000D03*
G04 #@! TD*
G04 #@! TO.C,REF\002A\002A*
X139192000Y-50927000D03*
G04 #@! TD*
G04 #@! TO.C,REF\002A\002A*
X120142000Y-50927000D03*
G04 #@! TD*
G04 #@! TO.C,REF\002A\002A*
X101092000Y-50927000D03*
G04 #@! TD*
G04 #@! TO.C,REF\002A\002A*
X82042000Y-50927000D03*
G04 #@! TD*
G04 #@! TO.C,REF\002A\002A*
X158242000Y-31877000D03*
G04 #@! TD*
G04 #@! TO.C,REF\002A\002A*
X139192000Y-31877000D03*
G04 #@! TD*
G04 #@! TO.C,REF\002A\002A*
X120142000Y-31877000D03*
G04 #@! TD*
G04 #@! TO.C,REF\002A\002A*
X101092000Y-31877000D03*
G04 #@! TD*
G04 #@! TO.C,REF\002A\002A*
X155067000Y-100457000D03*
G04 #@! TD*
G04 #@! TO.C,REF\002A\002A*
X143002000Y-119507000D03*
G04 #@! TD*
G04 #@! TO.C,REF\002A\002A*
X143002000Y-104267000D03*
G04 #@! TD*
G04 #@! TO.C,REF\002A\002A*
X158242000Y-104267000D03*
G04 #@! TD*
G04 #@! TO.C,REF\002A\002A*
X155067000Y-104267000D03*
G04 #@! TD*
G04 #@! TO.C,REF\002A\002A*
X158242000Y-119507000D03*
G04 #@! TD*
G04 #@! TO.C,REF\002A\002A*
X155067000Y-119507000D03*
G04 #@! TD*
G04 #@! TO.C,REF\002A\002A*
X123952000Y-119507000D03*
G04 #@! TD*
G04 #@! TO.C,REF\002A\002A*
X139192000Y-119507000D03*
G04 #@! TD*
G04 #@! TO.C,REF\002A\002A*
X136017000Y-104267000D03*
G04 #@! TD*
G04 #@! TO.C,REF\002A\002A*
X139192000Y-104267000D03*
G04 #@! TD*
G04 #@! TO.C,REF\002A\002A*
X136017000Y-119507000D03*
G04 #@! TD*
G04 #@! TO.C,REF\002A\002A*
X123952000Y-104267000D03*
G04 #@! TD*
G04 #@! TO.C,REF\002A\002A*
X104902000Y-104267000D03*
G04 #@! TD*
G04 #@! TO.C,REF\002A\002A*
X104902000Y-119507000D03*
G04 #@! TD*
G04 #@! TO.C,REF\002A\002A*
X120142000Y-104267000D03*
G04 #@! TD*
G04 #@! TO.C,REF\002A\002A*
X120142000Y-119507000D03*
G04 #@! TD*
G04 #@! TO.C,REF\002A\002A*
X116967000Y-119507000D03*
G04 #@! TD*
G04 #@! TO.C,REF\002A\002A*
X116967000Y-104267000D03*
G04 #@! TD*
G04 #@! TO.C,REF\002A\002A*
X97917000Y-119507000D03*
G04 #@! TD*
G04 #@! TO.C,REF\002A\002A*
X101092000Y-119507000D03*
G04 #@! TD*
G04 #@! TO.C,REF\002A\002A*
X85852000Y-104267000D03*
G04 #@! TD*
G04 #@! TO.C,REF\002A\002A*
X85852000Y-119507000D03*
G04 #@! TD*
G04 #@! TO.C,REF\002A\002A*
X101092000Y-104267000D03*
G04 #@! TD*
G04 #@! TO.C,REF\002A\002A*
X97917000Y-104267000D03*
G04 #@! TD*
G04 #@! TO.C,REF\002A\002A*
X82042000Y-119507000D03*
G04 #@! TD*
G04 #@! TO.C,REF\002A\002A*
X78867000Y-119507000D03*
G04 #@! TD*
G04 #@! TO.C,REF\002A\002A*
X78867000Y-104267000D03*
G04 #@! TD*
G04 #@! TO.C,REF\002A\002A*
X66802000Y-119507000D03*
G04 #@! TD*
G04 #@! TO.C,REF\002A\002A*
X66802000Y-104267000D03*
G04 #@! TD*
G04 #@! TO.C,REF\002A\002A*
X82042000Y-111887000D03*
G04 #@! TD*
G04 #@! TO.C,REF\002A\002A*
X66802000Y-111887000D03*
G04 #@! TD*
G04 #@! TO.C,REF\002A\002A*
X82042000Y-104267000D03*
G04 #@! TD*
G04 #@! TO.C,REF\002A\002A*
X82042000Y-100457000D03*
G04 #@! TD*
G04 #@! TO.C,REF\002A\002A*
X66802000Y-92837000D03*
G04 #@! TD*
G04 #@! TO.C,REF\002A\002A*
X78867000Y-85217000D03*
G04 #@! TD*
G04 #@! TO.C,REF\002A\002A*
X82042000Y-85217000D03*
G04 #@! TD*
G04 #@! TO.C,REF\002A\002A*
X82042000Y-92837000D03*
G04 #@! TD*
G04 #@! TO.C,REF\002A\002A*
X78867000Y-100457000D03*
G04 #@! TD*
G04 #@! TO.C,REF\002A\002A*
X66802000Y-85217000D03*
G04 #@! TD*
G04 #@! TO.C,REF\002A\002A*
X66802000Y-100457000D03*
G04 #@! TD*
G04 #@! TO.C,REF\002A\002A*
X101092000Y-85217000D03*
G04 #@! TD*
G04 #@! TO.C,REF\002A\002A*
X85852000Y-85217000D03*
G04 #@! TD*
G04 #@! TO.C,REF\002A\002A*
X97917000Y-85217000D03*
G04 #@! TD*
G04 #@! TO.C,REF\002A\002A*
X85852000Y-100457000D03*
G04 #@! TD*
G04 #@! TO.C,REF\002A\002A*
X97917000Y-100457000D03*
G04 #@! TD*
G04 #@! TO.C,REF\002A\002A*
X101092000Y-100457000D03*
G04 #@! TD*
G04 #@! TO.C,REF\002A\002A*
X116967000Y-100457000D03*
G04 #@! TD*
G04 #@! TO.C,REF\002A\002A*
X104902000Y-85217000D03*
G04 #@! TD*
G04 #@! TO.C,REF\002A\002A*
X104902000Y-100457000D03*
G04 #@! TD*
G04 #@! TO.C,REF\002A\002A*
X116967000Y-85217000D03*
G04 #@! TD*
G04 #@! TO.C,REF\002A\002A*
X120142000Y-85217000D03*
G04 #@! TD*
G04 #@! TO.C,REF\002A\002A*
X120142000Y-100457000D03*
G04 #@! TD*
G04 #@! TO.C,REF\002A\002A*
X123952000Y-100457000D03*
G04 #@! TD*
G04 #@! TO.C,REF\002A\002A*
X123952000Y-85217000D03*
G04 #@! TD*
G04 #@! TO.C,REF\002A\002A*
X139192000Y-100457000D03*
G04 #@! TD*
G04 #@! TO.C,REF\002A\002A*
X136017000Y-85217000D03*
G04 #@! TD*
G04 #@! TO.C,REF\002A\002A*
X136017000Y-100457000D03*
G04 #@! TD*
G04 #@! TO.C,REF\002A\002A*
X139192000Y-85217000D03*
G04 #@! TD*
G04 #@! TO.C,REF\002A\002A*
X143002000Y-100457000D03*
G04 #@! TD*
G04 #@! TO.C,REF\002A\002A*
X143002000Y-85217000D03*
G04 #@! TD*
G04 #@! TO.C,REF\002A\002A*
X158242000Y-85217000D03*
G04 #@! TD*
G04 #@! TO.C,REF\002A\002A*
X158242000Y-100457000D03*
G04 #@! TD*
G04 #@! TO.C,REF\002A\002A*
X155067000Y-85217000D03*
G04 #@! TD*
G04 #@! TO.C,REF\002A\002A*
X155067000Y-66167000D03*
G04 #@! TD*
G04 #@! TO.C,REF\002A\002A*
X143002000Y-66167000D03*
G04 #@! TD*
G04 #@! TO.C,REF\002A\002A*
X158242000Y-66167000D03*
G04 #@! TD*
G04 #@! TO.C,REF\002A\002A*
X158242000Y-81407000D03*
G04 #@! TD*
G04 #@! TO.C,REF\002A\002A*
X155067000Y-81407000D03*
G04 #@! TD*
G04 #@! TO.C,REF\002A\002A*
X143002000Y-81407000D03*
G04 #@! TD*
G04 #@! TO.C,REF\002A\002A*
X136017000Y-81407000D03*
G04 #@! TD*
G04 #@! TO.C,REF\002A\002A*
X139192000Y-81407000D03*
G04 #@! TD*
G04 #@! TO.C,REF\002A\002A*
X123952000Y-81407000D03*
G04 #@! TD*
G04 #@! TO.C,REF\002A\002A*
X123952000Y-66167000D03*
G04 #@! TD*
G04 #@! TO.C,REF\002A\002A*
X136017000Y-66167000D03*
G04 #@! TD*
G04 #@! TO.C,REF\002A\002A*
X139192000Y-66167000D03*
G04 #@! TD*
G04 #@! TO.C,REF\002A\002A*
X120142000Y-81407000D03*
G04 #@! TD*
G04 #@! TO.C,REF\002A\002A*
X104902000Y-81407000D03*
G04 #@! TD*
G04 #@! TO.C,REF\002A\002A*
X116967000Y-66167000D03*
G04 #@! TD*
G04 #@! TO.C,REF\002A\002A*
X104902000Y-66167000D03*
G04 #@! TD*
G04 #@! TO.C,REF\002A\002A*
X120142000Y-66167000D03*
G04 #@! TD*
G04 #@! TO.C,REF\002A\002A*
X116967000Y-81407000D03*
G04 #@! TD*
G04 #@! TO.C,REF\002A\002A*
X85852000Y-66167000D03*
G04 #@! TD*
G04 #@! TO.C,REF\002A\002A*
X101092000Y-81407000D03*
G04 #@! TD*
G04 #@! TO.C,REF\002A\002A*
X97917000Y-66167000D03*
G04 #@! TD*
G04 #@! TO.C,REF\002A\002A*
X97917000Y-81407000D03*
G04 #@! TD*
G04 #@! TO.C,REF\002A\002A*
X101092000Y-66167000D03*
G04 #@! TD*
G04 #@! TO.C,REF\002A\002A*
X85852000Y-81407000D03*
G04 #@! TD*
G04 #@! TO.C,REF\002A\002A*
X66802000Y-81407000D03*
G04 #@! TD*
G04 #@! TO.C,REF\002A\002A*
X78867000Y-66167000D03*
G04 #@! TD*
G04 #@! TO.C,REF\002A\002A*
X82042000Y-81407000D03*
G04 #@! TD*
G04 #@! TO.C,REF\002A\002A*
X78867000Y-81407000D03*
G04 #@! TD*
G04 #@! TO.C,REF\002A\002A*
X82042000Y-73787000D03*
G04 #@! TD*
G04 #@! TO.C,REF\002A\002A*
X82042000Y-66167000D03*
G04 #@! TD*
G04 #@! TO.C,REF\002A\002A*
X66802000Y-66167000D03*
G04 #@! TD*
G04 #@! TO.C,REF\002A\002A*
X66802000Y-73787000D03*
G04 #@! TD*
G04 #@! TO.C,REF\002A\002A*
X104902000Y-62357000D03*
G04 #@! TD*
G04 #@! TO.C,REF\002A\002A*
X104902000Y-47117000D03*
G04 #@! TD*
G04 #@! TO.C,REF\002A\002A*
X120142000Y-54737000D03*
G04 #@! TD*
G04 #@! TO.C,REF\002A\002A*
X104902000Y-54737000D03*
G04 #@! TD*
G04 #@! TO.C,REF\002A\002A*
X116967000Y-62357000D03*
G04 #@! TD*
G04 #@! TO.C,REF\002A\002A*
X120142000Y-47117000D03*
G04 #@! TD*
G04 #@! TO.C,REF\002A\002A*
X120142000Y-62357000D03*
G04 #@! TD*
G04 #@! TO.C,REF\002A\002A*
X116967000Y-47117000D03*
G04 #@! TD*
G04 #@! TO.C,REF\002A\002A*
X136017000Y-47117000D03*
G04 #@! TD*
G04 #@! TO.C,REF\002A\002A*
X123952000Y-62357000D03*
G04 #@! TD*
G04 #@! TO.C,REF\002A\002A*
X139192000Y-54737000D03*
G04 #@! TD*
G04 #@! TO.C,REF\002A\002A*
X139192000Y-47117000D03*
G04 #@! TD*
G04 #@! TO.C,REF\002A\002A*
X139192000Y-62357000D03*
G04 #@! TD*
G04 #@! TO.C,REF\002A\002A*
X123952000Y-54737000D03*
G04 #@! TD*
G04 #@! TO.C,REF\002A\002A*
X136017000Y-62357000D03*
G04 #@! TD*
G04 #@! TO.C,REF\002A\002A*
X123952000Y-47117000D03*
G04 #@! TD*
G04 #@! TO.C,REF\002A\002A*
X158242000Y-47117000D03*
G04 #@! TD*
G04 #@! TO.C,REF\002A\002A*
X158242000Y-62357000D03*
G04 #@! TD*
G04 #@! TO.C,REF\002A\002A*
X143002000Y-54737000D03*
G04 #@! TD*
G04 #@! TO.C,REF\002A\002A*
X155067000Y-62357000D03*
G04 #@! TD*
G04 #@! TO.C,REF\002A\002A*
X155067000Y-47117000D03*
G04 #@! TD*
G04 #@! TO.C,REF\002A\002A*
X143002000Y-47117000D03*
G04 #@! TD*
G04 #@! TO.C,REF\002A\002A*
X143002000Y-62357000D03*
G04 #@! TD*
G04 #@! TO.C,REF\002A\002A*
X158242000Y-54737000D03*
G04 #@! TD*
G04 #@! TO.C,REF\002A\002A*
X155067000Y-43307000D03*
G04 #@! TD*
G04 #@! TO.C,REF\002A\002A*
X155067000Y-28067000D03*
G04 #@! TD*
G04 #@! TO.C,REF\002A\002A*
X158242000Y-28067000D03*
G04 #@! TD*
G04 #@! TO.C,REF\002A\002A*
X143002000Y-35687000D03*
G04 #@! TD*
G04 #@! TO.C,REF\002A\002A*
X143002000Y-43307000D03*
G04 #@! TD*
G04 #@! TO.C,REF\002A\002A*
X143002000Y-28067000D03*
G04 #@! TD*
G04 #@! TO.C,REF\002A\002A*
X158242000Y-35687000D03*
G04 #@! TD*
G04 #@! TO.C,REF\002A\002A*
X158242000Y-43307000D03*
G04 #@! TD*
G04 #@! TO.C,REF\002A\002A*
X136017000Y-28067000D03*
G04 #@! TD*
G04 #@! TO.C,REF\002A\002A*
X139192000Y-28067000D03*
G04 #@! TD*
G04 #@! TO.C,REF\002A\002A*
X123952000Y-35687000D03*
G04 #@! TD*
G04 #@! TO.C,REF\002A\002A*
X123952000Y-43307000D03*
G04 #@! TD*
G04 #@! TO.C,REF\002A\002A*
X123952000Y-28067000D03*
G04 #@! TD*
G04 #@! TO.C,REF\002A\002A*
X139192000Y-35687000D03*
G04 #@! TD*
G04 #@! TO.C,REF\002A\002A*
X136017000Y-43307000D03*
G04 #@! TD*
G04 #@! TO.C,REF\002A\002A*
X139192000Y-43307000D03*
G04 #@! TD*
G04 #@! TO.C,REF\002A\002A*
X104902000Y-35687000D03*
G04 #@! TD*
G04 #@! TO.C,REF\002A\002A*
X104902000Y-43307000D03*
G04 #@! TD*
G04 #@! TO.C,REF\002A\002A*
X104902000Y-28067000D03*
G04 #@! TD*
G04 #@! TO.C,REF\002A\002A*
X120142000Y-35687000D03*
G04 #@! TD*
G04 #@! TO.C,REF\002A\002A*
X116967000Y-28067000D03*
G04 #@! TD*
G04 #@! TO.C,REF\002A\002A*
X120142000Y-43307000D03*
G04 #@! TD*
G04 #@! TO.C,REF\002A\002A*
X116967000Y-43307000D03*
G04 #@! TD*
G04 #@! TO.C,REF\002A\002A*
X120142000Y-28067000D03*
G04 #@! TD*
G04 #@! TO.C,REF\002A\002A*
X101092000Y-62357000D03*
G04 #@! TD*
G04 #@! TO.C,REF\002A\002A*
X97917000Y-62357000D03*
G04 #@! TD*
G04 #@! TO.C,REF\002A\002A*
X85852000Y-54737000D03*
G04 #@! TD*
G04 #@! TO.C,REF\002A\002A*
X85852000Y-62357000D03*
G04 #@! TD*
G04 #@! TO.C,REF\002A\002A*
X85852000Y-47117000D03*
G04 #@! TD*
G04 #@! TO.C,REF\002A\002A*
X101092000Y-54737000D03*
G04 #@! TD*
G04 #@! TO.C,REF\002A\002A*
X97917000Y-47117000D03*
G04 #@! TD*
G04 #@! TO.C,REF\002A\002A*
X101092000Y-47117000D03*
G04 #@! TD*
G04 #@! TO.C,REF\002A\002A*
X82042000Y-62357000D03*
G04 #@! TD*
G04 #@! TO.C,REF\002A\002A*
X78867000Y-62357000D03*
G04 #@! TD*
G04 #@! TO.C,REF\002A\002A*
X66802000Y-54737000D03*
G04 #@! TD*
G04 #@! TO.C,REF\002A\002A*
X78867000Y-47117000D03*
G04 #@! TD*
G04 #@! TO.C,REF\002A\002A*
X82042000Y-54737000D03*
G04 #@! TD*
G04 #@! TO.C,REF\002A\002A*
X82042000Y-47117000D03*
G04 #@! TD*
G04 #@! TO.C,REF\002A\002A*
X66802000Y-47117000D03*
G04 #@! TD*
G04 #@! TO.C,REF\002A\002A*
X66802000Y-62357000D03*
G04 #@! TD*
G04 #@! TO.C,REF\002A\002A*
X85852000Y-35687000D03*
G04 #@! TD*
G04 #@! TO.C,REF\002A\002A*
X97917000Y-28067000D03*
G04 #@! TD*
G04 #@! TO.C,REF\002A\002A*
X85852000Y-28067000D03*
G04 #@! TD*
G04 #@! TO.C,REF\002A\002A*
X85852000Y-43307000D03*
G04 #@! TD*
G04 #@! TO.C,REF\002A\002A*
X101092000Y-43307000D03*
G04 #@! TD*
G04 #@! TO.C,REF\002A\002A*
X101092000Y-28067000D03*
G04 #@! TD*
G04 #@! TO.C,REF\002A\002A*
X101092000Y-35687000D03*
G04 #@! TD*
G04 #@! TO.C,REF\002A\002A*
X97917000Y-43307000D03*
G04 #@! TD*
G04 #@! TO.C,REF\002A\002A*
X78867000Y-43307000D03*
G04 #@! TD*
G04 #@! TO.C,REF\002A\002A*
X66802000Y-39497000D03*
G04 #@! TD*
G04 #@! TO.C,REF\002A\002A*
X66802000Y-31877000D03*
G04 #@! TD*
G04 #@! TO.C,REF\002A\002A*
X82042000Y-39497000D03*
G04 #@! TD*
G04 #@! TO.C,REF\002A\002A*
X82042000Y-31877000D03*
G04 #@! TD*
G04 #@! TO.C,REF\002A\002A*
X82042000Y-35687000D03*
G04 #@! TD*
G04 #@! TO.C,REF\002A\002A*
X66802000Y-35687000D03*
G04 #@! TD*
G04 #@! TO.C,REF\002A\002A*
X78867000Y-28067000D03*
G04 #@! TD*
G04 #@! TO.C,REF\002A\002A*
X82042000Y-28067000D03*
G04 #@! TD*
G04 #@! TO.C,REF\002A\002A*
X82042000Y-43307000D03*
G04 #@! TD*
G04 #@! TO.C,REF\002A\002A*
X66802000Y-43307000D03*
G04 #@! TD*
G04 #@! TO.C,REF\002A\002A*
X66802000Y-28067000D03*
G04 #@! TD*
M02*
