M48
;DRILL file {KiCad 5.0.2-bee76a0~70~ubuntu18.04.1} date 2020年03月10日 00時59分28秒
;FORMAT={-:-/ absolute / inch / decimal}
FMAT,2
INCH,TZ
T1C0.0157
T2C0.0315
T3C0.0748
T4C0.1181
T5C0.1614
%
G90
G05
T1
X2.63Y-1.18
X2.63Y-1.93
X2.63Y-2.68
X2.63Y-3.43
X2.63Y-4.18
X2.7276Y-1.4979
X2.7276Y-2.2479
X2.7276Y-2.9979
X2.7276Y-3.7479
X2.7276Y-4.4979
X2.73Y-1.28
X2.73Y-2.03
X2.73Y-2.78
X2.73Y-3.53
X2.73Y-4.28
X2.8316Y-1.191
X2.8316Y-1.2519
X2.8316Y-1.941
X2.8316Y-2.0019
X2.8316Y-2.691
X2.8316Y-2.7519
X2.8316Y-3.441
X2.8316Y-3.5019
X2.8316Y-4.191
X2.8316Y-4.2519
X2.91Y-1.095
X2.91Y-1.845
X2.91Y-2.595
X2.91Y-3.345
X2.91Y-4.095
X3.0288Y-1.1889
X3.0288Y-1.9389
X3.0288Y-2.6889
X3.0288Y-3.4389
X3.0288Y-4.1889
X3.0328Y-1.2519
X3.0328Y-2.0019
X3.0328Y-2.7519
X3.0328Y-3.5019
X3.0328Y-4.2519
X3.053Y-1.381
X3.053Y-2.131
X3.053Y-2.881
X3.053Y-3.631
X3.053Y-4.381
X3.0761Y-1.6377
X3.0761Y-2.3877
X3.0761Y-3.1377
X3.0761Y-3.8877
X3.0761Y-4.6377
X3.0918Y-1.3424
X3.0918Y-2.0924
X3.0918Y-2.8424
X3.0918Y-3.5924
X3.0918Y-4.3424
X3.13Y-1.205
X3.13Y-1.955
X3.13Y-2.705
X3.13Y-3.455
X3.13Y-4.205
X3.38Y-1.18
X3.38Y-1.93
X3.38Y-2.68
X3.38Y-3.43
X3.38Y-4.18
X3.4776Y-1.4979
X3.4776Y-2.2479
X3.4776Y-2.9979
X3.4776Y-3.7479
X3.4776Y-4.4979
X3.48Y-1.28
X3.48Y-2.03
X3.48Y-2.78
X3.48Y-3.53
X3.48Y-4.28
X3.5816Y-1.191
X3.5816Y-1.2519
X3.5816Y-1.941
X3.5816Y-2.0019
X3.5816Y-2.691
X3.5816Y-2.7519
X3.5816Y-3.441
X3.5816Y-3.5019
X3.5816Y-4.191
X3.5816Y-4.2519
X3.66Y-1.095
X3.66Y-1.845
X3.66Y-2.595
X3.66Y-3.345
X3.66Y-4.095
X3.7788Y-1.1889
X3.7788Y-1.9389
X3.7788Y-2.6889
X3.7788Y-3.4389
X3.7788Y-4.1889
X3.7828Y-1.2519
X3.7828Y-2.0019
X3.7828Y-2.7519
X3.7828Y-3.5019
X3.7828Y-4.2519
X3.803Y-1.381
X3.803Y-2.131
X3.803Y-2.881
X3.803Y-3.631
X3.803Y-4.381
X3.8261Y-1.6377
X3.8261Y-2.3877
X3.8261Y-3.1377
X3.8261Y-3.8877
X3.8261Y-4.6377
X3.8418Y-1.3424
X3.8418Y-2.0924
X3.8418Y-2.8424
X3.8418Y-3.5924
X3.8418Y-4.3424
X3.88Y-1.205
X3.88Y-1.955
X3.88Y-2.705
X3.88Y-3.455
X3.88Y-4.205
X4.13Y-1.18
X4.13Y-1.93
X4.13Y-2.68
X4.13Y-3.43
X4.13Y-4.18
X4.2276Y-1.4979
X4.2276Y-2.2479
X4.2276Y-2.9979
X4.2276Y-3.7479
X4.2276Y-4.4979
X4.23Y-1.28
X4.23Y-2.03
X4.23Y-2.78
X4.23Y-3.53
X4.23Y-4.28
X4.3316Y-1.191
X4.3316Y-1.2519
X4.3316Y-1.941
X4.3316Y-2.0019
X4.3316Y-2.691
X4.3316Y-2.7519
X4.3316Y-3.441
X4.3316Y-3.5019
X4.3316Y-4.191
X4.3316Y-4.2519
X4.41Y-1.095
X4.41Y-1.845
X4.41Y-2.595
X4.41Y-3.345
X4.41Y-4.095
X4.5288Y-1.1889
X4.5288Y-1.9389
X4.5288Y-2.6889
X4.5288Y-3.4389
X4.5288Y-4.1889
X4.5328Y-1.2519
X4.5328Y-2.0019
X4.5328Y-2.7519
X4.5328Y-3.5019
X4.5328Y-4.2519
X4.553Y-1.381
X4.553Y-2.131
X4.553Y-2.881
X4.553Y-3.631
X4.553Y-4.381
X4.5761Y-1.6377
X4.5761Y-2.3877
X4.5761Y-3.1377
X4.5761Y-3.8877
X4.5761Y-4.6377
X4.5918Y-1.3424
X4.5918Y-2.0924
X4.5918Y-2.8424
X4.5918Y-3.5924
X4.5918Y-4.3424
X4.63Y-1.205
X4.63Y-1.955
X4.63Y-2.705
X4.63Y-3.455
X4.63Y-4.205
X4.88Y-1.18
X4.88Y-1.93
X4.88Y-2.68
X4.88Y-3.43
X4.88Y-4.18
X4.9776Y-1.4979
X4.9776Y-2.2479
X4.9776Y-2.9979
X4.9776Y-3.7479
X4.9776Y-4.4979
X4.98Y-1.28
X4.98Y-2.03
X4.98Y-2.78
X4.98Y-3.53
X4.98Y-4.28
X5.0816Y-1.191
X5.0816Y-1.2519
X5.0816Y-1.941
X5.0816Y-2.0019
X5.0816Y-2.691
X5.0816Y-2.7519
X5.0816Y-3.441
X5.0816Y-3.5019
X5.0816Y-4.191
X5.0816Y-4.2519
X5.16Y-1.095
X5.16Y-1.845
X5.16Y-2.595
X5.16Y-3.345
X5.16Y-4.095
X5.2788Y-1.1889
X5.2788Y-1.9389
X5.2788Y-2.6889
X5.2788Y-3.4389
X5.2788Y-4.1889
X5.2828Y-1.2519
X5.2828Y-2.0019
X5.2828Y-2.7519
X5.2828Y-3.5019
X5.2828Y-4.2519
X5.303Y-1.381
X5.303Y-2.131
X5.303Y-2.881
X5.303Y-3.631
X5.303Y-4.381
X5.3261Y-1.6377
X5.3261Y-2.3877
X5.3261Y-3.1377
X5.3261Y-3.8877
X5.3261Y-4.6377
X5.3418Y-1.3424
X5.3418Y-2.0924
X5.3418Y-2.8424
X5.3418Y-3.5924
X5.3418Y-4.3424
X5.38Y-1.205
X5.38Y-1.955
X5.38Y-2.705
X5.38Y-3.455
X5.38Y-4.205
X5.63Y-1.18
X5.63Y-1.93
X5.63Y-2.68
X5.63Y-3.43
X5.63Y-4.18
X5.7276Y-1.4979
X5.7276Y-2.2479
X5.7276Y-2.9979
X5.7276Y-3.7479
X5.7276Y-4.4979
X5.73Y-1.28
X5.73Y-2.03
X5.73Y-2.78
X5.73Y-3.53
X5.73Y-4.28
X5.8316Y-1.191
X5.8316Y-1.2519
X5.8316Y-1.941
X5.8316Y-2.0019
X5.8316Y-2.691
X5.8316Y-2.7519
X5.8316Y-3.441
X5.8316Y-3.5019
X5.8316Y-4.191
X5.8316Y-4.2519
X5.91Y-1.095
X5.91Y-1.845
X5.91Y-2.595
X5.91Y-3.345
X5.91Y-4.095
X6.0288Y-1.1889
X6.0288Y-1.9389
X6.0288Y-2.6889
X6.0288Y-3.4389
X6.0288Y-4.1889
X6.0328Y-1.2519
X6.0328Y-2.0019
X6.0328Y-2.7519
X6.0328Y-3.5019
X6.0328Y-4.2519
X6.053Y-1.381
X6.053Y-2.131
X6.053Y-2.881
X6.053Y-3.631
X6.053Y-4.381
X6.0761Y-1.6377
X6.0761Y-2.3877
X6.0761Y-3.1377
X6.0761Y-3.8877
X6.0761Y-4.6377
X6.0918Y-1.3424
X6.0918Y-2.0924
X6.0918Y-2.8424
X6.0918Y-3.5924
X6.0918Y-4.3424
X6.13Y-1.205
X6.13Y-1.955
X6.13Y-2.705
X6.13Y-3.455
X6.13Y-4.205
T2
X5.355Y-2.605
X5.4796Y-1.6062
X4.73Y-3.205
X5.48Y-2.605
X4.73Y-3.205
X3.49Y-4.705
X3.74Y-4.705
X4.24Y-2.455
X4.49Y-2.455
X4.13Y-3.205
X4.13Y-1.255
X2.74Y-4.705
X2.99Y-4.705
X3.9796Y-4.6062
X4.605Y-2.605
X3.38Y-1.255
X3.2296Y-4.6062
X4.13Y-2.605
X4.13Y-1.855
X6.23Y-4.255
X4.73Y-4.105
X2.74Y-3.205
X2.99Y-3.205
X4.73Y-2.605
X4.73Y-2.155
X4.13Y-3.505
X5.48Y-4.255
X4.73Y-4.705
X2.63Y-3.655
X2.74Y-1.705
X2.99Y-1.705
X5.48Y-4.405
X6.23Y-1.255
X2.63Y-3.955
X4.605Y-3.205
X4.13Y-2.155
X5.63Y-2.2676
X3.38Y-3.505
X4.73Y-4.255
X4.605Y-4.705
X3.105Y-3.355
X4.73Y-4.405
X5.48Y-4.705
X3.98Y-3.955
X4.605Y-2.455
X3.23Y-1.255
X4.88Y-2.2676
X2.63Y-3.505
X4.605Y-4.105
X3.23Y-3.355
X3.98Y-4.405
X4.73Y-4.705
X3.2296Y-3.8562
X4.605Y-3.955
X3.105Y-1.855
X3.23Y-1.405
X4.13Y-2.2676
X5.63Y-2.755
X3.855Y-4.705
X3.23Y-3.655
X5.48Y-3.655
X3.98Y-4.705
X5.4796Y-4.6062
X6.2296Y-3.1062
X4.13Y-3.355
X5.63Y-1.105
X5.48Y-1.405
X3.23Y-2.155
X4.88Y-2.755
X3.98Y-4.705
X3.105Y-3.955
X4.73Y-3.655
X3.23Y-4.705
X4.7296Y-4.6062
X5.4796Y-3.1062
X4.13Y-3.955
X6.23Y-1.405
X5.355Y-1.705
X3.38Y-4.105
X4.73Y-1.705
X3.98Y-3.655
X3.9796Y-4.6062
X6.23Y-4.705
X4.605Y-3.355
X6.105Y-3.205
X4.88Y-2.155
X6.23Y-1.705
X3.38Y-4.705
X5.63Y-3.655
X3.2296Y-4.6062
X5.63Y-3.0176
X4.73Y-3.355
X5.63Y-3.205
X5.355Y-2.455
X5.355Y-1.105
X6.23Y-4.705
X3.98Y-4.105
X4.88Y-3.655
X2.63Y-3.0176
X6.2296Y-3.8562
X4.73Y-3.955
X4.88Y-1.855
X5.48Y-1.105
X6.105Y-4.705
X3.855Y-4.105
X4.24Y-4.705
X4.49Y-4.705
X4.13Y-3.655
X5.4796Y-3.8562
X4.88Y-3.955
X6.23Y-1.855
X4.88Y-1.405
X6.23Y-2.005
X4.88Y-4.705
X4.24Y-3.205
X4.49Y-3.205
X3.38Y-3.655
X4.7296Y-3.8562
X4.88Y-3.355
X6.23Y-2.455
X4.88Y-1.705
X5.48Y-2.005
X3.49Y-3.205
X3.74Y-3.205
X3.9796Y-3.8562
X3.98Y-3.205
X5.48Y-3.955
X5.63Y-2.155
X4.88Y-1.105
X4.73Y-2.005
X3.2296Y-3.8562
X5.355Y-3.355
X6.105Y-2.455
X3.98Y-2.005
X4.24Y-1.705
X4.49Y-1.705
X6.2296Y-3.8562
X5.355Y-3.955
X5.4796Y-3.8562
X5.48Y-3.355
X5.63Y-1.5176
X3.49Y-2.455
X3.74Y-2.455
X5.63Y-3.955
X3.38Y-2.605
X4.88Y-1.5176
X3.98Y-4.255
X5.63Y-3.355
X3.98Y-3.205
X4.73Y-1.855
X4.13Y-1.5176
X3.23Y-4.255
X4.88Y-3.0176
X5.74Y-3.205
X5.99Y-3.205
X6.23Y-3.355
X3.855Y-2.605
X4.73Y-2.455
X2.63Y-1.405
X3.38Y-2.2676
X3.38Y-1.5176
X6.23Y-3.955
X3.855Y-3.205
X4.605Y-1.855
X3.23Y-1.855
X3.105Y-1.105
X2.63Y-2.2676
X4.13Y-2.755
X5.74Y-2.455
X5.99Y-2.455
X6.105Y-3.355
X3.98Y-2.605
X5.355Y-1.855
X5.48Y-1.705
X2.63Y-1.855
X3.23Y-1.105
X3.98Y-1.705
X6.105Y-2.605
X3.38Y-3.205
X4.88Y-2.455
X4.13Y-1.405
X4.73Y-1.705
X2.63Y-2.455
X3.23Y-1.705
X6.2296Y-4.6062
X5.355Y-3.205
X2.63Y-3.205
X5.48Y-2.155
X4.605Y-1.705
X3.38Y-1.405
X2.63Y-1.705
X5.4796Y-4.6062
X4.7296Y-1.6062
X5.48Y-3.205
X3.105Y-2.605
X5.48Y-1.855
X4.73Y-1.105
X3.855Y-1.105
X2.63Y-1.105
X3.23Y-4.705
X3.9796Y-1.6062
X3.23Y-3.955
X4.88Y-3.205
X3.23Y-3.205
X5.48Y-2.455
X3.98Y-2.455
X3.38Y-1.105
X5.48Y-4.705
X3.105Y-4.705
X5.63Y-2.905
X5.63Y-4.5176
X3.105Y-3.205
X3.855Y-2.455
X3.38Y-1.705
X5.355Y-4.105
X3.105Y-4.105
X2.74Y-2.455
X2.99Y-2.455
X4.88Y-2.905
X4.88Y-4.5176
X3.23Y-2.005
X3.23Y-3.205
X4.7296Y-3.1062
X3.23Y-2.905
X3.38Y-2.155
X3.98Y-1.705
X2.63Y-4.705
X4.13Y-2.905
X4.13Y-4.5176
X4.73Y-2.455
X6.23Y-2.455
X3.9796Y-3.1062
X3.23Y-2.605
X6.105Y-1.855
X3.38Y-2.455
X3.98Y-1.105
X3.38Y-2.905
X3.38Y-4.5176
X3.98Y-2.455
X5.48Y-2.455
X3.2296Y-3.1062
X2.63Y-2.605
X5.63Y-1.855
X3.38Y-1.855
X6.23Y-2.905
X6.2296Y-3.1062
X2.63Y-4.5176
X5.48Y-3.955
X3.23Y-2.455
X6.2296Y-2.3562
X2.63Y-2.905
X5.63Y-2.455
X3.98Y-2.155
X5.48Y-2.905
X5.4796Y-3.1062
X5.63Y-3.7676
X4.73Y-3.955
X6.23Y-2.155
X3.855Y-1.855
X5.63Y-4.405
X4.73Y-2.905
X4.7296Y-3.1062
X4.88Y-3.7676
X3.98Y-3.955
X6.105Y-1.705
X3.98Y-1.855
X6.23Y-3.505
X3.98Y-2.905
X3.9796Y-3.1062
X4.13Y-3.7676
X5.4796Y-1.6062
X6.23Y-3.955
X3.23Y-2.455
X5.48Y-3.505
X6.23Y-4.405
X3.2296Y-3.1062
X3.38Y-3.7676
X4.7296Y-1.6062
X3.38Y-2.755
X4.73Y-3.505
X5.74Y-4.705
X5.99Y-4.705
X6.2296Y-2.3562
X2.63Y-3.7676
X3.9796Y-1.6062
X2.63Y-2.755
X3.98Y-3.505
X4.99Y-4.705
X5.24Y-4.705
X5.4796Y-2.3562
X6.2296Y-4.6062
X5.63Y-2.605
X4.13Y-1.705
X5.63Y-2.005
X3.23Y-3.505
X5.74Y-1.705
X5.99Y-1.705
X4.99Y-3.205
X5.24Y-3.205
X6.23Y-2.605
X4.88Y-2.005
X6.23Y-2.755
X4.99Y-1.705
X5.24Y-1.705
X6.23Y-3.205
X4.13Y-2.005
X5.48Y-2.755
X3.49Y-1.705
X3.74Y-1.705
X5.63Y-4.255
X3.38Y-2.005
X4.73Y-2.755
X4.88Y-4.255
X2.63Y-2.005
X3.98Y-2.755
X5.48Y-4.105
X5.48Y-1.705
X4.13Y-4.255
X5.63Y-1.255
X3.23Y-2.755
X5.355Y-4.705
X2.63Y-4.105
X3.98Y-1.405
X3.38Y-4.255
X4.88Y-1.255
X4.88Y-4.105
X3.23Y-4.405
X4.7296Y-4.6062
X3.98Y-3.355
X3.855Y-1.705
X2.63Y-4.255
X4.13Y-4.105
X2.63Y-4.405
X6.23Y-1.705
X5.4796Y-2.3562
X3.38Y-3.355
X4.13Y-2.455
X3.105Y-1.705
X5.63Y-3.505
X4.13Y-4.705
X3.23Y-4.105
X5.74Y-3.955
X5.99Y-3.955
X4.7296Y-2.3562
X3.855Y-3.355
X2.63Y-1.5176
X4.88Y-3.505
X5.48Y-1.255
X3.23Y-3.955
X4.99Y-3.955
X5.24Y-3.955
X4.88Y-4.405
X3.9796Y-2.3562
X3.38Y-3.955
X6.105Y-1.105
X2.63Y-1.255
X4.73Y-1.255
X4.24Y-3.955
X4.49Y-3.955
X4.13Y-4.405
X4.7296Y-3.8562
X3.2296Y-2.3562
X3.855Y-3.955
X6.23Y-1.105
X3.105Y-2.455
X3.2296Y-1.6062
X3.98Y-1.255
X3.49Y-3.955
X3.74Y-3.955
X3.38Y-4.405
X3.9796Y-3.8562
X6.2296Y-1.6062
X5.63Y-1.405
X2.63Y-2.155
X6.105Y-3.955
X4.99Y-2.455
X5.24Y-2.455
X2.74Y-3.955
X2.99Y-3.955
X6.23Y-3.655
X5.63Y-1.705
X5.63Y-4.705
X4.7296Y-2.3562
X4.13Y-1.105
X5.63Y-4.105
X3.9796Y-2.3562
X4.73Y-1.405
X6.23Y-4.105
X3.2296Y-2.3562
X4.13Y-3.0176
X6.23Y-3.205
X2.63Y-3.355
X4.88Y-2.605
X4.605Y-1.105
X6.105Y-4.105
X6.2296Y-1.6062
X3.38Y-3.0176
X5.48Y-3.205
T3
X5.73Y-2.155
X6.13Y-2.155
X2.73Y-1.405
X3.13Y-1.405
X2.73Y-2.905
X3.13Y-2.905
X4.23Y-2.905
X4.63Y-2.905
X4.23Y-3.655
X4.63Y-3.655
X4.98Y-3.655
X5.38Y-3.655
X5.73Y-3.655
X6.13Y-3.655
X2.73Y-4.405
X3.13Y-4.405
X2.73Y-2.155
X3.13Y-2.155
X4.23Y-1.405
X4.63Y-1.405
X3.48Y-2.905
X3.88Y-2.905
X4.98Y-2.905
X5.38Y-2.905
X4.98Y-1.405
X5.38Y-1.405
X4.23Y-4.405
X4.63Y-4.405
X3.48Y-1.405
X3.88Y-1.405
X4.98Y-2.155
X5.38Y-2.155
X5.73Y-1.405
X6.13Y-1.405
X2.73Y-3.655
X3.13Y-3.655
X5.73Y-2.905
X6.13Y-2.905
X5.73Y-4.405
X6.13Y-4.405
X4.23Y-2.155
X4.63Y-2.155
X3.48Y-2.155
X3.88Y-2.155
X3.48Y-4.405
X3.88Y-4.405
X4.98Y-4.405
X5.38Y-4.405
X3.48Y-3.655
X3.88Y-3.655
T4
X4.33Y-1.605
X4.58Y-1.505
X3.58Y-3.105
X3.83Y-3.005
X5.08Y-3.105
X5.33Y-3.005
X5.08Y-1.605
X5.33Y-1.505
X4.33Y-4.605
X4.58Y-4.505
X3.58Y-1.605
X3.83Y-1.505
X5.08Y-2.355
X5.33Y-2.255
X5.83Y-1.605
X6.08Y-1.505
X2.83Y-3.855
X3.08Y-3.755
X5.83Y-3.105
X6.08Y-3.005
X5.83Y-4.605
X6.08Y-4.505
X4.33Y-2.355
X4.58Y-2.255
X3.58Y-2.355
X3.83Y-2.255
X3.58Y-4.605
X3.83Y-4.505
X5.08Y-4.605
X5.33Y-4.505
X3.58Y-3.855
X3.83Y-3.755
X5.83Y-2.355
X6.08Y-2.255
X2.83Y-1.605
X3.08Y-1.505
X2.83Y-3.105
X3.08Y-3.005
X4.33Y-3.105
X4.58Y-3.005
X4.33Y-3.855
X4.58Y-3.755
X5.08Y-3.855
X5.33Y-3.755
X5.83Y-3.855
X6.08Y-3.755
X2.83Y-4.605
X3.08Y-4.505
X2.83Y-2.355
X3.08Y-2.255
T5
X4.43Y-4.405
X3.68Y-1.405
X5.18Y-2.155
X5.93Y-1.405
X2.93Y-3.655
X5.93Y-2.905
X5.93Y-4.405
X4.43Y-2.155
X3.68Y-2.155
X3.68Y-4.405
X5.18Y-4.405
X3.68Y-3.655
X5.93Y-2.155
X2.93Y-1.405
X2.93Y-2.905
X4.43Y-2.905
X4.43Y-3.655
X5.18Y-3.655
X5.93Y-3.655
X2.93Y-4.405
X2.93Y-2.155
X4.43Y-1.405
X3.68Y-2.905
X5.18Y-2.905
X5.18Y-1.405
T0
M30
